<?xml version="1.0" encoding="UTF-8"?>
<svg width="12px" height="12px" viewBox="0 0 12 12" version="1.1" xmlns="http://www.w3.org/2000/svg" xmlns:xlink="http://www.w3.org/1999/xlink">
    <!-- Generator: Sketch 52.5 (67469) - http://www.bohemiancoding.com/sketch -->
    <title>Icons/arrow-down-grey</title>
    <desc>Created with Sketch.</desc>
    <g id="Icons/arrow-down-grey" stroke="none" stroke-width="1" fill="none" fill-rule="evenodd">
        <rect id="Rectangle" opacity="0" x="0" y="0" width="12" height="12"></rect>
        <path d="M7.81233406,6.0619469 L4.06768826,2.19115044 C3.82010838,1.93628319 3.4332648,1.93628319 3.18568492,2.19115044 C3.06189497,2.31858407 3,2.47787611 3,2.63716814 C3,2.79646018 3.06189497,2.95575221 3.18568492,3.08318584 L6.51253965,6.5079646 L3.20115866,9.91681416 C3.07736871,10.0442478 3.01547374,10.2035398 3.01547374,10.3628319 C3.01547374,10.5221239 3.07736871,10.6814159 3.20115866,10.8088496 C3.44873855,11.0637168 3.83558212,11.0637168 4.08316201,10.8088496 L7.82780781,6.9539823 C8.05991395,6.71504425 8.05991395,6.30088496 7.81233406,6.0619469 Z" id="Combined-Shape" fill="#FFFFFF" opacity="0.4" transform="translate(5.500000, 6.500000) rotate(-270.000000) translate(-5.500000, -6.500000) "></path>
    </g>
</svg>