<?xml version="1.0" encoding="UTF-8"?>
<svg width="12px" height="12px" viewBox="0 0 12 12" version="1.1" xmlns="http://www.w3.org/2000/svg" xmlns:xlink="http://www.w3.org/1999/xlink">
    <!-- Generator: Sketch 52.5 (67469) - http://www.bohemiancoding.com/sketch -->
    <title>Icons/arrow-down-blue</title>
    <desc>Created with Sketch.</desc>
    <g id="Icons/arrow-down-blue" stroke="none" stroke-width="1" fill="none" fill-rule="evenodd">
        <rect id="Rectangle" stroke="#979797" fill="#D8D8D8" opacity="0" x="0.5" y="0.5" width="11" height="11"></rect>
        <path d="M8.41233406,6.4619469 L4.66768826,2.59115044 C4.42010838,2.33628319 4.0332648,2.33628319 3.78568492,2.59115044 C3.66189497,2.71858407 3.6,2.87787611 3.6,3.03716814 C3.6,3.19646018 3.66189497,3.35575221 3.78568492,3.48318584 L7.11253965,6.9079646 L3.80115866,10.3168142 C3.67736871,10.4442478 3.61547374,10.6035398 3.61547374,10.7628319 C3.61547374,10.9221239 3.67736871,11.0814159 3.80115866,11.2088496 C4.04873855,11.4637168 4.43558212,11.4637168 4.68316201,11.2088496 L8.42780781,7.3539823 C8.65991395,7.11504425 8.65991395,6.70088496 8.41233406,6.4619469 Z" id="Combined-Shape" stroke="#008CD5" stroke-width="0.2" fill="#008CD5" transform="translate(6.100000, 6.900000) rotate(-270.000000) translate(-6.100000, -6.900000) "></path>
    </g>
</svg>