<?xml version="1.0" encoding="UTF-8"?>
<svg width="12px" height="12px" viewBox="0 0 12 12" version="1.1" xmlns="http://www.w3.org/2000/svg" xmlns:xlink="http://www.w3.org/1999/xlink">
    <!-- Generator: Sketch 52.5 (67469) - http://www.bohemiancoding.com/sketch -->
    <title>Icons/arrow-right-white</title>
    <desc>Created with Sketch.</desc>
    <g id="Icons/arrow-right-white" stroke="none" stroke-width="1" fill="none" fill-rule="evenodd">
        <rect fill="#000000" x="0" y="0" width="12" height="12"></rect>
        <rect id="Rectangle" stroke="#979797" fill="#D8D8D8" opacity="0" x="0.5" y="0.5" width="11" height="11"></rect>
        <path d="M9.77480088,5.51327434 L5.28122592,1.21238938 C4.98413005,0.92920354 4.51991776,0.92920354 4.2228219,1.21238938 C4.07427397,1.3539823 4,1.53097345 4,1.7079646 C4,1.88495575 4.07427397,2.0619469 4.2228219,2.20353982 L8.21504758,6.00884956 L4.24139039,9.79646018 C4.09284246,9.9380531 4.01856849,10.1150442 4.01856849,10.2920354 C4.01856849,10.4690265 4.09284246,10.6460177 4.24139039,10.7876106 C4.53848626,11.0707965 5.00269854,11.0707965 5.29979441,10.7876106 L9.79336937,6.50442478 C10.0718967,6.23893805 10.0718967,5.77876106 9.77480088,5.51327434 Z" id="Combined-Shape" fill="#FFFFFF"></path>
    </g>
</svg>