<?xml version="1.0" encoding="UTF-8"?>
<svg width="32px" height="32px" viewBox="0 0 32 32" version="1.1" xmlns="http://www.w3.org/2000/svg" xmlns:xlink="http://www.w3.org/1999/xlink">
    <!-- Generator: Sketch 52.5 (67469) - http://www.bohemiancoding.com/sketch -->
    <title>Icons/arrow-hide</title>
    <desc>Created with Sketch.</desc>
    <g id="Icons/arrow-hide" stroke="none" stroke-width="1" fill="none" fill-rule="evenodd" opacity="0.3">
        <path d="M19.6622013,16.2212389 L12.9218389,9.33982301 C12.4761951,8.88672566 11.7798766,8.88672566 11.3342328,9.33982301 C11.1114109,9.56637168 11,9.84955752 11,10.1327434 C11,10.4159292 11.1114109,10.699115 11.3342328,10.9256637 L17.3225714,17.0141593 L11.3620856,23.0743363 C11.1392637,23.300885 11.0278527,23.5840708 11.0278527,23.8672566 C11.0278527,24.1504425 11.1392637,24.4336283 11.3620856,24.660177 C11.8077294,25.1132743 12.5040478,25.1132743 12.9496916,24.660177 L19.6900541,17.8070796 C20.1078451,17.3823009 20.1078451,16.6460177 19.6622013,16.2212389 Z" id="Combined-Shape" fill="#718894" transform="translate(15.500000, 17.000000) scale(1, -1) rotate(-270.000000) translate(-15.500000, -17.000000) "></path>
    </g>
</svg>