<?xml version="1.0" encoding="UTF-8"?>
<svg width="42px" height="42px" viewBox="0 0 42 42" version="1.1" xmlns="http://www.w3.org/2000/svg" xmlns:xlink="http://www.w3.org/1999/xlink">
    <!-- Generator: Sketch 54.1 (76490) - https://sketchapp.com -->
    <title>avatar-empty-on-dark</title>
    <desc>Created with Sketch.</desc>
    <g id="avatar-empty-on-dark" stroke="none" stroke-width="1" fill="none" fill-rule="evenodd">
        <rect id="Rectangle" fill="#D8D8D8" opacity="0" x="5" y="5" width="32" height="32"></rect>
        <path d="M26.1013825,16.2125303 C26.1260504,16.0272667 26.138791,15.8406059 26.138791,15.6581366 C26.138791,13.1164203 23.8406072,11.0268255 21.0059637,11 C19.3898075,11.0159276 17.9026837,11.6983013 16.9254541,12.8724759 C16.1141231,13.8474153 15.7582001,15.0347231 15.9224722,16.2052651 L16.0376796,17.169586 C15.5508268,17.5202735 15.2344809,18.1523494 15.2344809,18.8565189 C15.2344809,19.7711008 15.7590133,20.540378 16.4676064,20.7650415 C16.7717539,22.142084 17.5079967,23.2871976 18.4846842,24.0190308 L18.4434806,24.5438047 C18.3982109,24.5524671 18.3532123,24.5650415 18.3098401,24.585999 L17.9194904,24.7768512 C17.5378151,24.9660269 17.0973163,25.1104934 16.5332068,25.2320465 C15.212343,25.514832 14.0346074,27.1041498 13,30 L29,30 C27.8983464,27.0890605 26.7290142,25.4998358 25.4920033,25.2323259 C24.9273516,25.1107729 24.4868528,24.9663063 24.1024668,24.7757335 L23.7142857,24.5862784 C23.6709135,24.5650415 23.626186,24.5527465 23.5811873,24.5440841 L23.5399837,24.0184719 C24.5169423,23.2866387 25.2531851,22.1415251 25.5573326,20.7650415 C26.2659257,20.540378 26.789916,19.7711008 26.789916,18.8565189 C26.789916,18.1543055 26.4738411,17.5222296 25.9880726,17.1704243 C26.0081323,16.9974557 26.0268365,16.8264431 26.0490648,16.6487242 C26.0650583,16.5025811 26.0837625,16.3539231 26.1013825,16.2125303 Z M17.7487124,13.6003971 C18.5220927,12.6710052 19.7129303,12.1305831 21.0062348,12.1177292 C23.238547,12.1386867 25.0547574,13.7272594 25.0547574,15.6581366 C25.0547574,15.7260387 25.0452697,15.7975734 25.0403903,15.8674314 C24.2209271,15.5636885 23.5242613,15.0051033 23.0073191,14.2196191 C23.0027108,14.2126333 22.9967471,14.2073241 22.9918677,14.2006177 C22.9802114,14.1846901 22.968013,14.1696007 22.9547303,14.1547908 C22.9419897,14.1408192 22.928978,14.1274064 22.9151532,14.1151114 C22.9086473,14.1092433 22.903768,14.1022575 22.8969911,14.0969483 C22.8902142,14.0913597 22.882624,14.0880065 22.875576,14.0826973 C22.8601247,14.0712405 22.8444023,14.0606221 22.8281377,14.050842 C22.8126864,14.0416207 22.797235,14.0332377 22.7809705,14.0256931 C22.7657902,14.0187073 22.7503388,14.0125597 22.7343454,14.0069711 C22.7167254,14.0008236 22.6991054,13.9952349 22.6812144,13.990764 C22.6649499,13.986852 22.6489564,13.9840577 22.6324207,13.9818222 C22.6148008,13.9793073 22.5974519,13.9773513 22.5798319,13.9767924 C22.5619409,13.9759541 22.544321,13.976513 22.5264299,13.9776307 C22.5101654,13.9787484 22.4939008,13.9801456 22.4779073,13.9826605 C22.4594741,13.9854548 22.441312,13.9896463 22.4228788,13.9946761 C22.4068853,13.9988676 22.391434,14.0036179 22.3759827,14.009486 C22.3589049,14.0159129 22.3423692,14.0231782 22.3258336,14.0312817 C22.3092979,14.0393852 22.2933044,14.0483271 22.277582,14.0581072 C22.2699919,14.0628576 22.2618596,14.0659313 22.2542694,14.0709611 C22.2469504,14.0759909 22.2412578,14.0826973 22.2342098,14.0882859 C22.2198428,14.0994632 22.2060179,14.1114788 22.1924641,14.1243327 C22.178097,14.1380249 22.1645432,14.1519965 22.1520737,14.1668064 C22.1466522,14.1732333 22.1401464,14.1779837 22.1349959,14.1846901 C21.3000813,15.262181 20.3572784,16.0283844 19.3326105,16.4615045 L18.2255354,16.794029 C17.9539171,16.8440474 17.6744375,16.8725495 17.3957712,16.8795353 C17.2914069,16.8814913 17.1930062,16.8795353 17.0951477,16.8767409 L16.9970182,16.0563277 C16.8772025,15.1990293 17.1439414,14.3266417 17.7487124,13.6003971 Z M25.2699919,26.326024 C26.0694859,26.4988994 26.9182254,27.7235581 27.8162104,30 L27.1146652,30 L14.0840336,30 C14.8658173,27.7645415 15.7559411,26.539976 16.754405,26.3263034 C17.4068853,26.185749 17.9262673,26.0136186 18.3865546,25.7856019 L18.3936026,25.7819693 C18.4144755,25.8440032 18.444836,25.9029635 18.4860396,25.954379 L19.9718081,27.8134422 C20.220656,28.1247298 20.5874221,28.3091551 20.978585,28.3194941 C20.9899702,28.3197735 21.0013554,28.3197735 21.0124695,28.3197735 C21.391434,28.3197735 21.7535918,28.1554673 22.0260233,27.8461357 L23.5391705,25.954379 C23.5803741,25.902684 23.6104635,25.8440032 23.6316075,25.7819693 L23.6359447,25.7842047 C24.0984007,26.0136186 24.6177826,26.185749 25.2699919,26.326024 Z M22.5624831,25.4187073 L21.2068311,27.1143025 C21.1366224,27.1936613 21.0485226,27.203162 21.0056926,27.2020443 C20.960694,27.2009265 20.875576,27.1863961 20.8086202,27.1031252 L19.462456,25.4187073 L19.526701,24.602206 C19.9953917,24.7852342 20.4939008,24.8883447 21.0111141,24.8883447 C21.5294118,24.8883447 22.0287341,24.7852342 22.498238,24.6016472 L22.5624831,25.4187073 Z M25.149634,19.7149349 C25.1320141,19.7132583 25.1146652,19.7146555 25.0970453,19.7146555 C25.0878287,19.7146555 25.078341,19.7138172 25.0691244,19.7143761 C25.0376796,19.7160527 25.0065058,19.720803 24.9761453,19.7283477 C24.9739767,19.7289065 24.971537,19.7289065 24.9693684,19.7294654 C24.9026837,19.7467902 24.839794,19.7766895 24.7842234,19.8183249 C24.7788018,19.8225164 24.7739225,19.8275461 24.768772,19.8317376 C24.7481702,19.8482241 24.7281106,19.8655489 24.7099485,19.8851092 C24.7015451,19.894051 24.6944972,19.9041106 24.6866359,19.9136113 C24.6730821,19.9303772 24.6597994,19.9468637 24.6481431,19.9653063 C24.6402819,19.9776013 24.6340472,19.9904552 24.6269992,20.0033091 C24.6175115,20.0209133 24.608566,20.038797 24.6009759,20.0577984 C24.5950122,20.0723288 24.5904039,20.0871388 24.5857956,20.1025075 C24.5822716,20.1139643 24.5773922,20.1243033 24.5744104,20.1360394 C24.5725129,20.144143 24.5725129,20.1519671 24.5708864,20.1600706 C24.56926,20.1681741 24.566007,20.1757188 24.5646517,20.1841018 C24.2499322,22.228708 22.7218758,23.7706155 21.010843,23.7706155 C19.3011656,23.7706155 17.7747357,22.228708 17.4597452,20.1841018 C17.4586609,20.1762777 17.455679,20.1695713 17.4540526,20.1620266 C17.4526972,20.1544819 17.4526972,20.1469373 17.4510708,20.1393926 C17.4480889,20.1270976 17.4429385,20.1159203 17.4391434,20.1039047 C17.4345351,20.0888154 17.4301979,20.0740054 17.4245053,20.059475 C17.4166441,20.0396353 17.4071564,20.0209133 17.3971266,20.0024708 C17.3908918,19.9907346 17.3851992,19.9789985 17.3781513,19.9678212 C17.3643264,19.9460254 17.348875,19.9261857 17.3326105,19.9066255 C17.32746,19.900478 17.3228517,19.8937716 17.3174302,19.8876241 C17.2472215,19.8113391 17.1577663,19.7568498 17.0582814,19.7308626 C17.0501491,19.7286271 17.0420168,19.7280682 17.0336134,19.7263916 C17.0089455,19.7210824 16.9840065,19.7168909 16.9585253,19.7149349 C16.946598,19.7140966 16.9343996,19.7149349 16.9224722,19.7149349 C16.9062076,19.7149349 16.8904852,19.7135378 16.8742207,19.7149349 C16.5714286,19.7004044 16.3185145,19.3131113 16.3185145,18.8565189 C16.3185145,18.4069123 16.5570615,18.08808 16.7815126,18.0162659 C16.8075359,18.0076035 16.8297642,17.9964262 16.8519924,17.9855283 C16.9831933,17.9936319 17.1168338,17.9986617 17.256167,17.9986617 C17.3098401,17.9986617 17.3643264,17.9981028 17.419897,17.9967056 C17.7657902,17.9883227 18.1116834,17.951717 18.4475468,17.8880065 C18.4654378,17.8846533 18.4835999,17.8804618 18.5012198,17.8748732 L19.6625102,17.5261416 C19.679859,17.5208324 19.6972079,17.5146849 19.7140146,17.5076991 C20.7416644,17.0790499 21.6888046,16.3737628 22.5391705,15.4125156 C23.1846029,16.1731304 23.989428,16.7174645 24.9151532,17.0069564 C24.8991597,17.1447165 24.8818108,17.2824767 24.8669016,17.4202368 C24.8669016,17.4207956 24.8669016,17.4213545 24.8669016,17.4219134 C24.8636487,17.4532098 24.8641908,17.4839473 24.8658173,17.5146849 C24.8660884,17.5211118 24.8652751,17.5278182 24.8658173,17.5342452 C24.8677148,17.555482 24.8731364,17.5758806 24.8774736,17.5965586 C24.8926538,17.6717259 24.9222011,17.7415839 24.9642179,17.8027796 C24.9704527,17.8120009 24.9753321,17.8220604 24.9818379,17.8307228 C24.9945785,17.8472094 25.0100298,17.8614604 25.0246679,17.8762703 C25.0349688,17.8868887 25.0436433,17.8983455 25.0547574,17.9081256 C25.0815939,17.9315979 25.1105991,17.9522759 25.1415018,17.9701596 C25.1463811,17.9729539 25.1523448,17.9746305 25.1574953,17.9774248 C25.1843318,17.9916759 25.2117105,18.0048092 25.2409867,18.0143099 C25.4730279,18.090036 25.7058824,18.4030002 25.7058824,18.8562394 C25.7058824,19.312273 25.4537815,19.6992867 25.149634,19.7149349 Z" id="Shape" fill="#FFFFFF" fill-rule="nonzero" opacity="0.7"></path>
    </g>
</svg>