<?xml version="1.0" encoding="UTF-8"?>
<svg width="16px" height="16px" viewBox="0 0 16 16" version="1.1" xmlns="http://www.w3.org/2000/svg" xmlns:xlink="http://www.w3.org/1999/xlink">
    <!-- Generator: Sketch 52.5 (67469) - http://www.bohemiancoding.com/sketch -->
    <title>Icons/business-countries</title>
    <desc>Created with Sketch.</desc>
    <g id="Icons/business-countries" stroke="none" stroke-width="1" fill="none" fill-rule="evenodd">
        <path d="M8.5,0 C5.45432976,0 3,2.55566578 3,5.33333333 C3,6.38533511 3.25445732,8.60156444 5.60584677,10.1333333 L6.74798387,12.0944444 C6.39849808,12.1722 6.07350947,12.2708386 5.78326613,12.3944444 C5.41735344,12.5502667 5.09976356,12.7392356 4.85181452,12.9888889 C4.60386547,13.2385422 4.41935484,13.5773689 4.41935484,13.9555556 C4.41935484,14.3337422 4.60386494,14.6670311 4.85181452,14.9166667 C5.0997641,15.16632 5.41735255,15.3552889 5.78326613,15.5111111 C6.51509329,15.8227733 7.45901447,16 8.5,16 C9.54098482,16 10.4849067,15.8227733 11.2167339,15.5111111 C11.5826475,15.3552889 11.9002357,15.16632 12.1481855,14.9166667 C12.3961352,14.6670311 12.5806452,14.3337422 12.5806452,13.9555556 C12.5806452,13.5773689 12.3961345,13.2385422 12.1481855,12.9888889 C11.9002364,12.7392356 11.5826466,12.5502667 11.2167339,12.3944444 C10.9271048,12.2711003 10.6007266,12.1716709 10.2520161,12.0944444 L11.3941532,10.1333333 C13.7455427,8.60156444 14,6.38533511 14,5.33333333 C14,2.55566578 11.5456702,0 8.5,0 Z M8.5,1.06666667 C10.9401007,1.06666667 12.9354839,3.20147911 12.9354839,5.33333333 C12.9354839,6.281536 12.8327059,8.01123556 10.7066532,9.32222222 C10.6315453,9.36732446 10.5687008,9.43029585 10.5236895,9.50555556 L8.5,12.9833333 L6.47631048,9.50555556 C6.43129918,9.43029585 6.36845474,9.36732446 6.29334677,9.32222222 C4.1672941,8.01123556 4.06451613,6.281536 4.06451613,5.33333333 C4.06451613,3.20147911 6.05989927,1.06666667 8.5,1.06666667 Z M8.5,2.31111111 C6.74478535,2.31111111 5.31199597,3.75122133 5.31199597,5.51111111 C5.31199597,7.27100444 6.74478323,8.70555556 8.5,8.70555556 C10.2552168,8.70555556 11.6935484,7.27262578 11.6935484,5.51111111 C11.6935484,3.7496 10.2552146,2.31111111 8.5,2.31111111 Z M8.5,3.37777778 C9.680916,3.37777778 10.6290323,4.32685156 10.6290323,5.51111111 C10.6290323,6.69537422 9.68091387,7.63888889 8.5,7.63888889 C7.31908613,7.63888889 6.3765121,6.69699556 6.3765121,5.51111111 C6.3765121,4.32523022 7.319084,3.37777778 8.5,3.37777778 Z M7.31905242,13.0722222 L8.03981855,14.3111111 C8.13511713,14.4753481 8.31040322,14.5763973 8.5,14.5763973 C8.68959678,14.5763973 8.86488287,14.4753481 8.96018145,14.3111111 L9.67540323,13.0777778 C10.1113726,13.1478985 10.4996517,13.2494894 10.8009073,13.3777778 C11.0771265,13.4954133 11.2829858,13.6269778 11.3941532,13.7388889 C11.5053206,13.8508178 11.516129,13.9164622 11.516129,13.9555556 C11.516129,13.9946667 11.5053206,14.0547378 11.3941532,14.1666667 C11.2829865,14.2785956 11.0771256,14.4156978 10.8009073,14.5333333 C10.2484708,14.7685867 9.41873437,14.9333333 8.5,14.9333333 C7.58126456,14.9333333 6.75152924,14.7685867 6.19909274,14.5333333 C5.92287458,14.4156978 5.71701348,14.2785956 5.60584677,14.1666667 C5.49468006,14.0547378 5.48387097,13.9946667 5.48387097,13.9555556 C5.48387097,13.9164622 5.49467935,13.8508178 5.60584677,13.7388889 C5.71701419,13.6269778 5.92287352,13.4954133 6.19909274,13.3777778 C6.50012034,13.2495867 6.88333763,13.1416757 7.31905242,13.0722222 Z" id="Shape" fill="#728893" fill-rule="nonzero"></path>
    </g>
</svg>