<?xml version="1.0" encoding="UTF-8"?>
<svg width="16px" height="16px" viewBox="0 0 16 16" version="1.1" xmlns="http://www.w3.org/2000/svg" xmlns:xlink="http://www.w3.org/1999/xlink">
    <!-- Generator: Sketch 52.5 (67469) - http://www.bohemiancoding.com/sketch -->
    <title>Icons/business-activity</title>
    <desc>Created with Sketch.</desc>
    <g id="Icons/business-activity" stroke="none" stroke-width="1" fill="none" fill-rule="evenodd">
        <path d="M3,1.50000134 L3,15.5 C3.00002551,15.7617922 3.23225264,15.9999738 3.4875,16 L13.5625,16 C13.8177474,15.9999738 14.0499745,15.7617922 14.05,15.5 L14.05,13.9270835 C15.2050713,13.3183846 16,12.0859379 16,10.6666672 C16,9.24738479 15.2050713,8.01494924 14.05,7.40625079 L14.05,4.83333437 C14.0503088,4.70231571 13.9979805,4.57197639 13.9078125,4.47916773 L10.6578125,1.14583471 C10.567324,1.0533547 10.4402432,0.999685536 10.3125,1.00000139 L3.4875,1.00000139 C3.2243644,1.00000139 3,1.28922838 3,1.50000134 Z M3.975,2.00000129 L9.825,2.00000129 L9.825,4.83333437 C9.82502551,5.09512651 10.0572526,5.33330815 10.3125,5.33333432 L13.075,5.33333432 L13.075,7.06250083 C12.8643825,7.02259116 12.6465896,7.00000083 12.425,7.00000083 C11.3201838,7.00000083 10.3291532,7.52129112 9.67265625,8.33333404 L5.1125,8.33333404 C4.8322083,8.33333404 4.625,8.59763168 4.625,8.833334 C4.625,9.06903631 4.85687125,9.33333395 5.1125,9.33333395 L9.09882813,9.33333395 C9.01730951,9.5465236 8.95241091,9.76976208 8.9109375,10.0000006 L5.1125,10.0000006 C4.8322083,10.0000006 4.625,10.2642982 4.625,10.5000005 C4.625,10.7357028 4.85687125,11.0000005 5.1125,11.0000005 L8.86523438,11.0000005 C8.88545929,11.2287864 8.92753168,11.4517731 8.98710937,11.6666671 L5.1125,11.6666671 C4.8322083,11.6666671 4.625,11.9309647 4.625,12.166667 C4.625,12.4023693 4.85687125,12.666667 5.1125,12.666667 L9.43398438,12.666667 C10.0731378,13.6683515 11.1749328,14.3333335 12.425,14.3333335 C12.6465896,14.3333335 12.8643825,14.3107432 13.075,14.2708335 L13.075,15.0000001 L3.975,15.0000001 L3.975,2.00000129 Z M10.8,2.70312623 L12.3894531,4.33333441 L10.8,4.33333441 L10.8,2.70312623 Z M4.4625,7.16666748 C4.4625,7.40236979 4.69437125,7.66666744 4.95,7.66666744 L8.2,7.66666744 C8.45755242,7.6704041 8.69444297,7.43085013 8.69444297,7.16666748 C8.69444297,6.90248484 8.45755242,6.6629317 8.2,6.66666753 L4.95,6.66666753 C4.6697083,6.66666753 4.4625,6.93096517 4.4625,7.16666748 Z M12.425,8.00000074 C13.8667143,8.00000074 15.025,9.18798396 15.025,10.6666672 C15.025,12.1453504 13.8667143,13.3333336 12.425,13.3333336 C10.9832857,13.3333336 9.825,12.1453504 9.825,10.6666672 C9.825,9.18798396 10.9832857,8.00000074 12.425,8.00000074 Z M12.2625,9.00000065 C12.0326902,9.00000065 11.775,9.23642713 11.775,9.5000006 L11.775,10.8333338 C11.775,11.1635379 11.9811343,11.3092416 12.2625,11.3333338 C12.3829435,11.3436471 13.3327133,11.3300021 13.5625,11.3333338 C13.8200524,11.3370688 14.05,11.0690361 14.05,10.8333338 C14.05,10.5976315 13.8200726,10.3316095 13.5625,10.3333339 L12.75,10.3333339 L12.75,9.5000006 C12.75,9.23295463 12.4923098,9.00000065 12.2625,9.00000065 Z M4.625,13.8333335 C4.625,14.0690358 4.85687125,14.3333335 5.1125,14.3333335 L8.2,14.3333335 C8.45755243,14.3370685 8.69444298,14.0975162 8.69444298,13.8333335 C8.69444298,13.5691509 8.45755243,13.3295977 8.2,13.3333336 L5.1125,13.3333336 C4.8322083,13.3333336 4.625,13.5976312 4.625,13.8333335 Z" id="Shape" fill="#728893" fill-rule="nonzero"></path>
    </g>
</svg>