<?xml version="1.0" encoding="UTF-8"?>
<svg width="194px" height="170px" viewBox="0 0 194 170" version="1.1" xmlns="http://www.w3.org/2000/svg" xmlns:xlink="http://www.w3.org/1999/xlink">
    <!-- Generator: Sketch 52.5 (67469) - http://www.bohemiancoding.com/sketch -->
    <title>Icons/checkout-success</title>
    <desc>Created with Sketch.</desc>
    <defs>
        <circle id="path-1" cx="50" cy="50" r="50"></circle>
        <path d="M0.427438017,27.0165289 L6.87371901,18.0909091 L12.8330579,18.0909091 L16.5024793,23.6 L18.1527273,22.4991736 L14.1857851,16.5487603 C14.0023796,16.2738638 13.6940978,16.1083808 13.3636364,16.107438 L8.30578512,16.107438 L11.8869421,11.1487603 L21.7140496,11.1487603 L25.3953719,17.5950413 C25.5728778,17.9024921 25.9011859,18.0916097 26.2561983,18.0909091 L31.6175207,18.0909091 L36.4859504,27.0165289 L0.427438017,27.0165289 Z M38.7461157,27.0165289 L35.5001653,21.0661157 L39.6446281,21.0661157 L42.322314,24.6363636 L43.9090909,23.446281 L40.9338843,19.4793388 C40.7465907,19.229614 40.4526519,19.0826446 40.1404959,19.0826446 L34.4181818,19.0826446 L33.0773554,16.6241322 C32.9035139,16.3055505 32.5695374,16.1073708 32.2066116,16.107438 L26.831405,16.107438 L23.1500826,9.66115702 C22.9725768,9.35370626 22.6442686,9.16458865 22.2892562,9.16528926 L17.3305785,9.16528926 L21.7933884,3.21487603 L34.1900826,3.21487603 C34.6167662,3.21455206 34.995416,2.94134907 35.1302479,2.53652893 L35.8968595,0.239669421 L36.6287603,0.239669421 L54.172562,27.0165289 L38.7461157,27.0165289 Z" id="path-3"></path>
    </defs>
    <g id="Icons/checkout-success" stroke="none" stroke-width="1" fill="none" fill-rule="evenodd">
        <path d="M155.618264,169 C153.775175,169 152.281056,167.503379 152.281056,165.657204 C152.281056,163.811029 153.775175,162.314408 155.618264,162.314408 C157.461353,162.314408 158.955472,163.811029 158.955472,165.657204 C158.955472,167.503379 157.461353,169 155.618264,169 Z M67.4401526,9.68559208 C65.5970636,9.68559208 64.1029448,8.18897131 64.1029448,6.34279604 C64.1029448,4.49662076 65.5970636,3 67.4401526,3 C69.2832416,3 70.7773604,4.49662076 70.7773604,6.34279604 C70.7773604,8.18897131 69.2832416,9.68559208 67.4401526,9.68559208 Z M3.33720781,85.9448019 C1.49411883,85.9448019 0,84.4481811 0,82.6020059 C0,80.7558306 1.49411883,79.2592098 3.33720781,79.2592098 C5.18029678,79.2592098 6.67441561,80.7558306 6.67441561,82.6020059 C6.67441561,84.4481811 5.18029678,85.9448019 3.33720781,85.9448019 Z M67.4401526,130.107686 C65.5970636,130.107686 64.1029448,128.611065 64.1029448,126.76489 C64.1029448,124.918715 65.5970636,123.422094 67.4401526,123.422094 C69.2832416,123.422094 70.7773604,124.918715 70.7773604,126.76489 C70.7773604,128.611065 69.2832416,130.107686 67.4401526,130.107686 Z M117.584235,42.528196 C115.741146,42.528196 114.247027,41.0315753 114.247027,39.1854 C114.247027,37.3392247 115.741146,35.842604 117.584235,35.842604 C119.427324,35.842604 120.921443,37.3392247 120.921443,39.1854 C120.921443,41.0315753 119.427324,42.528196 117.584235,42.528196 Z M177.662792,19.7004759 C175.819703,19.7004759 174.325584,18.2038552 174.325584,16.3576799 C174.325584,14.5115046 175.819703,13.0148838 177.662792,13.0148838 C179.505881,13.0148838 181,14.5115046 181,16.3576799 C181,18.2038552 179.505881,19.7004759 177.662792,19.7004759 Z" id="Combined-Shape" fill="#FBECC8"></path>
        <circle id="Oval" fill="#008CD5" opacity="0.04" cx="97" cy="85" r="70"></circle>
        <path d="M33.7912117,6.86141315 L40.7152554,18.8552747 L26.8649642,18.8552747 L33.7912117,6.86141315 Z M33.7912117,11.2684907 L30.6839865,16.6517359 L36.8984369,16.6517359 L33.7912117,11.2684907 Z M92.5618425,169 L85.6377988,157.010546 L99.4880899,157.010546 L92.5618425,169 Z M92.5618425,164.592922 L95.6690677,159.214084 L89.4546173,159.214084 L92.5618425,164.592922 Z M179,139.997023 L167.009637,133.073504 L179,126.147781 L179,139.997023 Z M176.796294,136.180493 L176.796294,129.966514 L171.417048,133.073504 L176.796294,136.180493 Z M25.9903634,128.104268 L14,135.02999 L14,121.178545 L25.9903634,128.104268 Z M16.2037058,124.997278 L16.2037058,131.211257 L21.5829518,128.104268 L16.2037058,124.997278 Z M145.942209,14.8492412 L133.954049,7.92351884 L145.944413,1 L145.942209,14.8492412 Z M143.738503,11.0305085 L143.740707,4.81652916 L138.361461,7.9213153 L143.738503,11.0305085 Z" id="Combined-Shape" fill="#D8EDE9" fill-rule="nonzero"></path>
        <g id="Group-2" transform="translate(47.000000, 35.000000)">
            <mask id="mask-2" fill="white">
                <use xlink:href="#path-1"></use>
            </mask>
            <use id="Oval" fill="#D7EDF9" xlink:href="#path-1"></use>
            <path d="M63.1404959,60.9791736 L63.1404959,48.3305785 L64.1322314,48.3305785 C65.7753926,48.3305785 67.107438,46.9985331 67.107438,45.3553719 C67.107438,43.7122107 65.7753926,42.3801653 64.1322314,42.3801653 L63.1404959,42.3801653 L63.1404959,37.0733884 L71.4770248,33.3692562 C71.850731,33.2028344 72.0839039,32.8240248 72.0641536,32.4154144 C72.0444034,32.0068039 71.7757833,31.6522486 71.3877686,31.5226446 L62.4621488,28.547438 C62.1604188,28.4443369 61.8273808,28.4946626 61.5695868,28.682314 C61.3104918,28.8687147 61.1569462,29.1684241 61.1570248,29.4876033 L61.1570248,42.3801653 L59.1735537,42.3801653 L59.1735537,39.4049587 C59.1735537,37.7617974 57.8415083,36.4297521 56.1983471,36.4297521 L53.6634711,36.4297521 C54.0204206,35.8294084 54.2107656,35.1447139 54.214876,34.446281 L54.214876,31.4710744 C54.214876,29.8279131 52.8828307,28.4958678 51.2396694,28.4958678 L46.2809917,28.4958678 C45.9372383,28.4957075 45.6179176,28.6735693 45.4370926,28.9659197 C45.2562677,29.2582702 45.2397306,29.62341 45.3933884,29.9309091 L46.2809917,31.705124 L46.2809917,34.446281 C46.2851021,35.1447139 46.4754472,35.8294084 46.8323967,36.4297521 L43.3057851,36.4297521 L43.3057851,31.5771901 C43.3243876,30.0968803 42.2801099,28.8157605 40.8264463,28.5355372 C39.9625954,28.3895195 39.0782995,28.6316644 38.4093482,29.1974061 C37.7403969,29.7631478 37.3547994,30.5949698 37.3553719,31.4710744 L37.3553719,38.4132231 C37.3553719,40.6041048 39.1314324,42.3801653 41.322314,42.3801653 L45.2892562,42.3801653 L45.2892562,60.231405 L44.2975207,60.231405 C43.9853647,60.231405 43.6914258,60.3783744 43.5041322,60.6280992 L37.8512397,68.1652893 L34.3801653,68.1652893 C34.0616938,68.1650699 33.762492,68.3178067 33.5758678,68.5758678 L20.6833058,86.4271074 C20.4649265,86.7290785 20.4342647,87.1279833 20.6039294,87.4597813 C20.7735941,87.7915793 21.1149427,88.0002568 21.4876033,88 L79.0082645,88 C79.3724982,87.9998258 79.7073266,87.8000059 79.8804048,87.4795216 C80.0534829,87.1590372 80.0369555,86.769467 79.8373554,86.4647934 L63.1404959,60.9791736 Z" id="Path" fill="#3B526A" fill-rule="nonzero" mask="url(#mask-2)"></path>
            <polygon id="Path" fill="#FFFFFF" fill-rule="nonzero" mask="url(#mask-2)" points="63.1404959 30.8641322 68.3352066 32.5957025 63.1404959 34.9034711"></polygon>
            <path d="M63.1404959,44.3636364 L64.1322314,44.3636364 C64.6799518,44.3636364 65.1239669,44.8076515 65.1239669,45.3553719 C65.1239669,45.9030923 64.6799518,46.3471074 64.1322314,46.3471074 L63.1404959,46.3471074 L63.1404959,44.3636364 Z" id="Path" fill="#FFFFFF" fill-rule="nonzero" mask="url(#mask-2)"></path>
            <path d="M51.2396694,30.4793388 C51.7873898,30.4793388 52.231405,30.923354 52.231405,31.4710744 L52.231405,34.446281 C52.231405,35.5417218 51.3433747,36.4297521 50.2479339,36.4297521 C49.1524931,36.4297521 48.2644628,35.5417218 48.2644628,34.446281 L48.2644628,31.4710744 C48.2646063,31.3172291 48.2289559,31.1654601 48.1603306,31.0277686 L47.8856198,30.4793388 L51.2396694,30.4793388 Z" id="Path" fill="#FBECC8" fill-rule="nonzero" mask="url(#mask-2)"></path>
            <path d="M41.322314,40.3966942 C40.2268732,40.3966942 39.338843,39.508664 39.338843,38.4132231 L39.338843,31.4710744 C39.3387163,31.1776115 39.4685664,30.8991614 39.6934608,30.7106329 C39.9183551,30.5221044 40.2151979,30.4428588 40.5041322,30.4942149 C40.9993006,30.6153056 41.3411413,31.0677785 41.322314,31.5771901 L41.322314,37.4214876 C41.322314,37.969208 41.7663292,38.4132231 42.3140496,38.4132231 L56.1983471,38.4132231 C56.7460675,38.4132231 57.1900826,38.8572383 57.1900826,39.4049587 L57.1900826,43.3719008 C57.1900826,43.9196212 57.6340978,44.3636364 58.1818182,44.3636364 L61.1570248,44.3636364 L61.1570248,46.3471074 L57.1900826,46.3471074 C56.0946418,46.3471074 55.2066116,45.4590772 55.2066116,44.3636364 L55.2066116,40.3966942 L53.2231405,40.3966942 L53.2231405,46.3471074 L47.2727273,46.3471074 L47.2727273,41.3884298 C47.2727273,40.8407093 46.8287121,40.3966942 46.2809917,40.3966942 L41.322314,40.3966942 Z" id="Path" fill="#F69568" fill-rule="nonzero" mask="url(#mask-2)"></path>
            <path d="M49.2561983,50.3140496 L49.2561983,59.2396694 C49.2562545,59.5026725 49.3607775,59.7548832 49.5467769,59.9408264 L49.8373554,60.231405 L47.2727273,60.231405 L47.2727273,48.3305785 L53.2231405,48.3305785 L53.2231405,59.2396694 C53.2231967,59.5026725 53.3277196,59.7548832 53.513719,59.9408264 L53.8042975,60.231405 L52.6419835,60.231405 L51.2396694,58.8290909 L51.2396694,50.3140496 L49.2561983,50.3140496 Z" id="Path" fill="#FBECC8" fill-rule="nonzero" mask="url(#mask-2)"></path>
            <path d="M61.1570248,48.3305785 L61.1570248,57.9504132 L60.9943802,57.7024793 C60.8107542,57.4236465 60.4991547,57.2559195 60.1652893,57.2561983 L58.1818182,57.2561983 C57.7547695,57.2560955 57.3756085,57.5293791 57.2406612,57.9345455 L56.5087603,60.1322314 L55.2066116,58.8290909 L55.2066116,47.7920661 C55.8084477,48.1439709 56.4929147,48.3298036 57.1900826,48.3305785 L61.1570248,48.3305785 Z" id="Path" fill="#D8EDE9" fill-rule="nonzero" mask="url(#mask-2)"></path>
            <g id="Group" mask="url(#mask-2)">
                <g transform="translate(23.000000, 59.000000)">
                    <mask id="mask-4" fill="white">
                        <use xlink:href="#path-3"></use>
                    </mask>
                    <use id="Combined-Shape" stroke="none" fill="#B4DBDD" fill-rule="nonzero" xlink:href="#path-3"></use>
                    <path d="M12.9,-0.1 L12.9,6.1 L24.8856198,6.1 L25.3582766,6.1 L30.1674542,13.0751003 L34.9072358,6.1 L42.1,6.1 L42.1,-0.1 L12.9,-0.1 Z" id="Rectangle" stroke="#3B526A" stroke-width="1.8" fill="#FFFFFF" fill-rule="evenodd" mask="url(#mask-4)"></path>
                </g>
            </g>
            <path d="M25.8677935,28.9507483 C25.8645148,26.2135055 23.6463587,23.9953494 20.9091159,23.9920706 C20.4344896,23.9916998 19.9623693,24.0608639 19.5077935,24.1973598 C17.708836,22.8397598 15.2960543,22.6185296 13.2802094,23.6263469 C11.2643645,24.6341642 9.99350751,26.6970216 10.0000249,28.9507483 L10,29.9424838 L25.8677935,29.9424838 L25.8677935,28.9507483 Z M84.5454795,31.9259549 C84.3297816,31.9265005 84.114384,31.9420754 83.9008514,31.9725664 C82.9247778,31.2966408 81.765801,30.9344173 80.5785373,30.9342193 C77.2935745,30.9374994 74.6314042,33.5996697 74.6281241,36.8846326 L74.6281241,37.8763681 L89.5041572,37.8763681 L89.5041572,36.8846326 C89.5008784,34.1473898 87.2827223,31.9292337 84.5454795,31.9259549 Z M18.9256448,39.8598392 L18.9256448,40.8515747 L28.8430002,40.8515747 L28.8430002,39.8598392 C28.8430002,37.1212371 26.6229245,34.9011615 23.8843225,34.9011615 C21.1457204,34.9011615 18.9256448,37.1212371 18.9256448,39.8598392 Z" id="Combined-Shape" fill="#FFFFFF" fill-rule="nonzero" mask="url(#mask-2)"></path>
            <ellipse id="Oval" stroke="#3B526A" stroke-width="2" fill="#CBEEE8" mask="url(#mask-2)" cx="50.5" cy="112.944959" rx="70.5" ry="29.5"></ellipse>
        </g>
    </g>
</svg>