<?xml version="1.0" encoding="UTF-8"?>
<svg width="32px" height="32px" viewBox="0 0 32 32" version="1.1" xmlns="http://www.w3.org/2000/svg" xmlns:xlink="http://www.w3.org/1999/xlink">
    <!-- Generator: Sketch 52.5 (67469) - http://www.bohemiancoding.com/sketch -->
    <title>Icons/close</title>
    <desc>Created with Sketch.</desc>
    <g id="Icons/close" stroke="none" stroke-width="1" fill="none" fill-rule="evenodd">
        <path d="M16,14.3361487 L20.9915538,9.34459488 C21.4510137,8.88513504 22.1959453,8.88513504 22.6554051,9.34459488 C23.114865,9.80405473 23.114865,10.5489863 22.6554051,11.0084462 L17.6638513,16 L22.6554051,20.9915538 C23.114865,21.4510137 23.114865,22.1959453 22.6554051,22.6554051 C22.1959453,23.114865 21.4510137,23.114865 20.9915538,22.6554051 L16,17.6638513 L11.0084462,22.6554051 C10.5489863,23.114865 9.80405473,23.114865 9.34459488,22.6554051 C8.88513504,22.1959453 8.88513504,21.4510137 9.34459488,20.9915538 L14.3361487,16 L9.34459488,11.0084462 C8.88513504,10.5489863 8.88513504,9.80405473 9.34459488,9.34459488 C9.80405473,8.88513504 10.5489863,8.88513504 11.0084462,9.34459488 L16,14.3361487 Z" id="Combined-Shape" fill="#000000"></path>
    </g>
</svg>