<?xml version="1.0" encoding="UTF-8"?>
<svg width="32px" height="32px" viewBox="0 0 32 32" version="1.1" xmlns="http://www.w3.org/2000/svg" xmlns:xlink="http://www.w3.org/1999/xlink">
    <!-- Generator: Sketch 52.5 (67469) - http://www.bohemiancoding.com/sketch -->
    <title>Icons/close-circle</title>
    <desc>Created with Sketch.</desc>
    <g id="Icons/close-circle" stroke="none" stroke-width="1" fill="none" fill-rule="evenodd">
        <rect id="Rectangle" fill="#FFFFFF" x="0" y="0" width="32" height="32" rx="16"></rect>
        <path d="M16,14.5738418 L20.2784747,10.295367 C20.6722974,9.90154432 21.3108102,9.90154432 21.704633,10.295367 C22.0984557,10.6891898 22.0984557,11.3277026 21.704633,11.7215253 L17.4261582,16 L21.704633,20.2784747 C22.0984557,20.6722974 22.0984557,21.3108102 21.704633,21.704633 C21.3108102,22.0984557 20.6722974,22.0984557 20.2784747,21.704633 L16,17.4261582 L11.7215253,21.704633 C11.3277026,22.0984557 10.6891898,22.0984557 10.295367,21.704633 C9.90154432,21.3108102 9.90154432,20.6722974 10.295367,20.2784747 L14.5738418,16 L10.295367,11.7215253 C9.90154432,11.3277026 9.90154432,10.6891898 10.295367,10.295367 C10.6891898,9.90154432 11.3277026,9.90154432 11.7215253,10.295367 L16,14.5738418 Z" id="Combined-Shape" fill="#000000"></path>
    </g>
</svg>