<?xml version="1.0" encoding="UTF-8"?>
<svg width="28px" height="28px" viewBox="0 0 28 28" version="1.1" xmlns="http://www.w3.org/2000/svg" xmlns:xlink="http://www.w3.org/1999/xlink">
    <!-- Generator: Sketch 52.5 (67469) - http://www.bohemiancoding.com/sketch -->
    <title>Icons/contract</title>
    <desc>Created with Sketch.</desc>
    <g id="Icons/contract" stroke="none" stroke-width="1" fill="none" fill-rule="evenodd">
        <rect id="Rectangle" fill="#D8D8D8" opacity="0" x="0" y="0" width="28" height="28"></rect>
        <path d="M9.92307692,7.00000129 C9.41967538,7.00000129 9,7.4243397 9,7.93333454 L9,20.0666668 C9,20.57566 9.41967554,21 9.92307692,21 L18.2307692,21 C18.7341706,21 19.1538462,20.57566 19.1538462,20.0666668 L19.1538462,13.9562507 L20.9519231,10.3201399 C20.98314,10.2576097 21,10.1806619 21,10.1111121 C21,9.94887873 20.9140429,9.79098068 20.7740385,9.70763993 L20.0048077,9.24097331 C19.9255285,9.19391465 19.8321115,9.17158885 19.7403846,9.17777887 C19.5926732,9.18724598 19.4517982,9.27345984 19.375,9.40138996 L19.1298077,9.80486215 C19.1071658,9.73742913 19.0690151,9.67537429 19.0192308,9.62500105 L16.5576923,7.13611239 C16.4720228,7.04979772 16.3517095,6.9997065 16.2307692,7.00000129 L9.92307692,7.00000129 Z M9.92307692,7.93333454 L15.7692308,7.93333454 L15.7692308,9.95555658 C15.7692549,10.1998959 15.9891149,10.4221988 16.2307692,10.4222232 L18.2307692,10.4222232 L18.2307692,11.292362 L16.0432692,14.9138895 L14.7451923,15.7888894 C14.5917014,15.8914286 14.5099545,16.0930267 14.5480769,16.2750004 L15.0096154,18.452778 C15.0645546,18.7036535 15.3532843,18.8735517 15.5961538,18.7979169 L17.5961538,18.1756947 C17.7709151,18.1226787 17.9060497,17.9559022 17.9230769,17.7722225 L18.0673077,16.1486116 L18.2307692,15.8229171 L18.2307692,20.0666668 L9.92307692,20.0666668 L9.92307692,7.93333454 Z M16.6923077,8.59444559 L17.5769231,9.48888995 L16.6923077,9.48888995 L16.6923077,8.59444559 Z M19.9278846,10.281251 L19.9326923,10.2861121 L17.4278846,15.3513894 L17.0192308,15.0937505 L19.9278846,10.281251 Z M11.0240385,11.0444454 C10.7579368,11.0444454 10.5389371,11.2857602 10.5384615,11.511112 C10.5379846,11.73738 10.7820232,11.9777786 11.0240385,11.9777786 L16.8413462,11.9777786 C17.0852071,11.9777786 17.3076923,11.7326729 17.3076923,11.511112 C17.3076923,11.2895511 17.0852071,11.0444454 16.8413462,11.0444454 L11.0240385,11.0444454 Z M11.0240385,12.6000008 C10.7578446,12.6000008 10.5384615,12.8408583 10.5384615,13.0666674 C10.5384615,13.2924765 10.7820232,13.533334 11.0240385,13.533334 L15,13.533334 C15.2438609,13.533334 15.4615385,13.2866556 15.4615385,13.0666674 C15.4615385,12.8466792 15.2438609,12.6000008 15,12.6000008 L11.0240385,12.6000008 Z M11.0240385,14.1555562 C10.7578446,14.1555562 10.5384615,14.3964028 10.5384615,14.6222228 C10.5384615,14.8480272 10.7820232,15.0888894 11.0240385,15.0888894 L15,15.0888894 C15.2438609,15.0888894 15.4615385,14.8422095 15.4615385,14.6222228 C15.4615385,14.4022362 15.2438609,14.1555562 15,14.1555562 L11.0240385,14.1555562 Z M16.3894231,15.7986116 L17.1298077,16.2652782 L17.0288462,17.3784726 L16.4086538,17.572917 L16.7884615,16.8680559 C16.8697742,16.7256674 16.8688883,16.5390323 16.7862277,16.3974394 C16.7035669,16.2558467 16.5423908,16.1648788 16.3798077,16.168056 C16.2151418,16.1721207 16.0562234,16.2727908 15.9807692,16.4208338 L15.6538462,17.0284726 L15.5192308,16.386806 L16.3894231,15.7986116 Z M11.0240385,18.0444447 C10.7565677,18.0444447 10.5384623,18.2853023 10.5384615,18.5111113 C10.5384608,18.736922 10.7820232,18.977778 11.0240385,18.977778 L13.9182692,18.977778 C14.1621302,18.977778 14.3846154,18.7326691 14.3846154,18.5111113 C14.3846154,18.2895536 14.1621302,18.0444447 13.9182692,18.0444447 L11.0240385,18.0444447 Z" id="Shape" fill="#FFFFFF" fill-rule="nonzero" opacity="0.6"></path>
    </g>
</svg>