<?xml version="1.0" encoding="UTF-8"?>
<svg width="16px" height="16px" viewBox="0 0 16 16" version="1.1" xmlns="http://www.w3.org/2000/svg" xmlns:xlink="http://www.w3.org/1999/xlink">
    <!-- Generator: Sketch 52.5 (67469) - http://www.bohemiancoding.com/sketch -->
    <title>Icons/delete</title>
    <desc>Created with Sketch.</desc>
    <g id="Icons/delete" stroke="none" stroke-width="1" fill="none" fill-rule="evenodd" opacity="0.5">
        <path d="M8,6.8115348 L11.5653956,3.2461392 C11.8935812,2.9179536 12.4256752,2.9179536 12.7538608,3.2461392 C13.0820464,3.5743248 13.0820464,4.1064188 12.7538608,4.4346044 L9.1884652,8 L12.7538608,11.5653956 C13.0820464,11.8935812 13.0820464,12.4256752 12.7538608,12.7538608 C12.4256752,13.0820464 11.8935812,13.0820464 11.5653956,12.7538608 L8,9.1884652 L4.4346044,12.7538608 C4.1064188,13.0820464 3.5743248,13.0820464 3.2461392,12.7538608 C2.9179536,12.4256752 2.9179536,11.8935812 3.2461392,11.5653956 L6.8115348,8 L3.2461392,4.4346044 C2.9179536,4.1064188 2.9179536,3.5743248 3.2461392,3.2461392 C3.5743248,2.9179536 4.1064188,2.9179536 4.4346044,3.2461392 L8,6.8115348 Z" id="Combined-Shape" fill="#718894"></path>
    </g>
</svg>