<?xml version="1.0" encoding="UTF-8"?>
<svg width="28px" height="28px" viewBox="0 0 28 28" version="1.1" xmlns="http://www.w3.org/2000/svg" xmlns:xlink="http://www.w3.org/1999/xlink">
    <!-- Generator: Sketch 52.5 (67469) - http://www.bohemiancoding.com/sketch -->
    <title>Icons/done-green-border</title>
    <desc>Created with Sketch.</desc>
    <g id="Icons/done-green-border" stroke="none" stroke-width="1" fill="none" fill-rule="evenodd">
        <rect id="Rectangle" fill="#D8D8D8" opacity="0" x="0" y="0" width="28" height="28"></rect>
        <g id="Group" transform="translate(6.000000, 6.000000)">
            <path d="M13.3597621,13.663286 L13.3914767,13.2413793 C13.4231913,12.7870183 13.7086224,12.3975659 14.1526264,12.2677485 L14.5332012,12.1703854 C15.135778,12.0081136 15.4529237,11.326572 15.1992071,10.7423935 L15.0406343,10.3529412 C14.8820614,9.93103448 14.9772052,9.44421907 15.3260654,9.15212982 L15.6432111,8.86004057 C16.1189296,8.43813387 16.1189296,7.69168357 15.6432111,7.26977688 L15.3260654,6.97768763 C14.9772052,6.68559838 14.8820614,6.19878296 15.0723489,5.77687627 L15.2309217,5.38742394 C15.4846383,4.80324544 15.1674926,4.12170385 14.5649158,3.95943205 L14.1526264,3.79716024 C13.7086224,3.6673428 13.4231913,3.27789047 13.3914767,2.82352941 L13.3914767,2.40162272 C13.3597621,1.81744422 12.8840436,1.39553753 12.3448959,1.39553753 C12.2814668,1.39553753 12.2180377,1.39553753 12.1546085,1.39553753 L11.7423191,1.46044625 C11.67889,1.46044625 11.6154609,1.46044625 11.5520317,1.46044625 C11.1714569,1.46044625 10.8225966,1.26572008 10.6323092,0.90872211 L10.4420218,0.551724138 C10.2517344,0.194726166 9.90287413,1.15301052e-15 9.52229931,1.15301052e-15 C9.30029732,1.15301052e-15 9.11000991,0.0649087221 8.9197225,0.194726166 L8.63429138,0.454361055 C8.44400396,0.584178499 8.25371655,0.649087221 8.03171457,0.649087221 C7.80971259,0.649087221 7.61942517,0.584178499 7.42913776,0.454361055 L7.11199207,0.194726166 C6.92170466,0.0649087221 6.69970268,0 6.50941526,0 C6.12884044,0 5.77998018,0.194726166 5.58969277,0.551724138 L5.39940535,0.90872211 C5.20911794,1.26572008 4.86025768,1.46044625 4.47968285,1.46044625 C4.41625372,1.46044625 4.35282458,1.46044625 4.28939544,1.42799189 L3.87710605,1.36308316 C3.81367691,1.36308316 3.75024777,1.3306288 3.68681863,1.3306288 C3.14767096,1.3306288 2.67195243,1.7525355 2.64023786,2.336714 L2.60852329,2.79107505 C2.57680872,3.24543611 2.2913776,3.63488844 1.84737364,3.76470588 L1.46679881,3.86206897 C0.864222002,4.02434077 0.547076313,4.70588235 0.800792864,5.29006085 L0.959365709,5.67951318 C1.11793855,6.10141988 1.02279485,6.58823529 0.673934589,6.88032454 L0.3567889,7.17241379 C-0.118929633,7.59432049 -0.118929633,8.34077079 0.3567889,8.76267748 L0.673934589,9.05476673 C1.02279485,9.34685598 1.11793855,9.8336714 0.92765114,10.2555781 L0.769078295,10.6450304 C0.515361744,11.2292089 0.832507433,11.9107505 1.43508424,12.0730223 L1.81565907,12.2028398 C2.25966303,12.3326572 2.54509415,12.7221095 2.57680872,13.1764706 L2.60852329,13.5983773 C2.64023786,14.1825558 3.11595639,14.6044625 3.65510406,14.6044625 C3.7185332,14.6044625 3.78196234,14.6044625 3.84539148,14.6044625 L4.25768087,14.5395538 C4.32111001,14.5395538 4.38453915,14.5395538 4.44796829,14.5395538 C4.82854311,14.5395538 5.17740337,14.7342799 5.36769078,15.0912779 L5.5579782,15.4482759 C5.74826561,15.8052738 6.09712587,16 6.47770069,16 C6.69970268,16 6.88999009,15.9350913 7.0802775,15.8052738 L7.42913776,15.5456389 C7.61942517,15.4158215 7.80971259,15.3509128 8.03171457,15.3509128 C8.25371655,15.3509128 8.44400396,15.4158215 8.63429138,15.5456389 L8.95143707,15.8052738 C9.14172448,15.9350913 9.36372646,16 9.55401388,16 C9.9345887,16 10.283449,15.8052738 10.4737364,15.4482759 L10.6640238,15.0912779 C10.8543112,14.7342799 11.2031715,14.5395538 11.5837463,14.5395538 C11.6471754,14.5395538 11.7106046,14.5395538 11.7740337,14.5720081 L12.1863231,14.6369168 C12.2497522,14.6369168 12.3131814,14.6693712 12.3766105,14.6693712 C12.852329,14.6693712 13.3280476,14.2150101 13.3597621,13.663286 Z" id="Shape" stroke="#099179" stroke-width="0.888888889" fill-rule="nonzero"></path>
            <path d="M7.04203258,8.98057232 L5.60558445,7.50623643 C5.34033647,7.23316492 4.90981861,7.23316492 4.64389052,7.50623643 C4.37796242,7.77930794 4.37796242,8.22139046 4.64389052,8.49376357 L6.56118561,10.461863 C6.82643358,10.7349345 7.25695145,10.7349345 7.52287954,10.461863 L11.3561095,6.52566411 C11.6220376,6.2525926 11.6220376,5.81120847 11.3561095,5.53813696 C11.0901814,5.26506546 10.6603436,5.26506546 10.3944156,5.53813696 L7.04203258,8.98057232 Z" id="Shape" fill="#099179"></path>
        </g>
    </g>
</svg>