<?xml version="1.0" encoding="UTF-8"?>
<svg width="16px" height="16px" viewBox="0 0 16 16" version="1.1" xmlns="http://www.w3.org/2000/svg" xmlns:xlink="http://www.w3.org/1999/xlink">
    <!-- Generator: Sketch 52.5 (67469) - http://www.bohemiancoding.com/sketch -->
    <title>Icons/download</title>
    <desc>Created with Sketch.</desc>
    <g id="Icons/download" stroke="none" stroke-width="1" fill="none" fill-rule="evenodd">
        <g id="Group" transform="translate(2.000000, 0.000000)" fill="#008CD5">
            <path d="M5.5,11.6365216 C5.09054766,11.6365216 4.75862095,11.2943353 4.75862095,10.8722272 L4.75862095,1.4324656 C4.75862095,1.01035746 5.09054766,0.6681712 5.5,0.6681712 C5.90945234,0.6681712 6.24137905,1.01035746 6.24137905,1.4324656 L6.24137905,10.8722272 C6.24137905,11.2943353 5.90945234,11.6365216 5.5,11.6365216 Z" id="Path"></path>
            <path d="M5.5,12.1035136 C5.20018045,12.103474 4.92989789,11.9172734 4.81515604,11.631717 C4.70041419,11.3461606 4.76380314,11.0174682 4.97577143,10.7988736 L8.90761143,6.7454608 C9.19752226,6.44933453 9.66507292,6.45044654 9.95365526,6.7479487 C10.2422376,7.04545086 10.2433163,7.52745309 9.95606857,7.8263248 L6.02422857,11.8797376 C5.88532555,12.0232616 5.69666321,12.1037954 5.5,12.1035136 Z" id="Path"></path>
            <path d="M5.5,12.1035136 C5.30332472,12.1037725 5.11466068,12.0232069 4.97577143,11.8796512 L1.04388952,7.8262384 C0.756641814,7.52736669 0.757720492,7.04536446 1.04630283,6.7478623 C1.33488517,6.45036014 1.80243584,6.44924813 2.09234667,6.7453744 L6.02422857,10.7987872 C6.23619686,11.0173818 6.29958581,11.3460742 6.18484396,11.6316306 C6.07010211,11.917187 5.79981955,12.1033876 5.5,12.1034272 L5.5,12.1035136 Z" id="Path"></path>
            <path d="M9.99537524,14.5318288 L1.00462476,14.5318288 C0.59517242,14.5318288 0.263245714,14.1896425 0.263245714,13.7675344 C0.263245714,13.3454263 0.59517242,13.00324 1.00462476,13.00324 L9.99537524,13.00324 C10.4048276,13.00324 10.7367543,13.3454263 10.7367543,13.7675344 C10.7367543,14.1896425 10.4048276,14.5318288 9.99537524,14.5318288 Z" id="Path"></path>
        </g>
    </g>
</svg>