<?xml version="1.0" encoding="UTF-8"?>
<svg width="28px" height="28px" viewBox="0 0 28 28" version="1.1" xmlns="http://www.w3.org/2000/svg" xmlns:xlink="http://www.w3.org/1999/xlink">
    <!-- Generator: Sketch 52.5 (67469) - http://www.bohemiancoding.com/sketch -->
    <title>Icons/exclusive</title>
    <desc>Created with Sketch.</desc>
    <g id="Icons/exclusive" stroke="none" stroke-width="1" fill="none" fill-rule="evenodd">
        <rect id="Rectangle" fill="#D8D8D8" opacity="0" x="0" y="0" width="28" height="28"></rect>
        <path d="M14,10.2515213 C11.9702676,10.2515213 10.32111,11.9391481 10.32111,14.0162272 C10.32111,16.0933063 11.9702676,17.7809331 14,17.7809331 C16.0297324,17.7809331 17.67889,16.0933063 17.67889,14.0162272 C17.67889,11.9391481 16.0297324,10.2515213 14,10.2515213 Z M16.2517344,13.5943205 L15.2051536,14.4705882 L15.5222993,15.7687627 C15.5540139,15.9634888 15.4271556,16.1257606 15.2685828,16.1257606 C15.2051536,16.1257606 15.173439,16.1257606 15.1100099,16.0933063 L14,15.3793103 L12.8899901,16.0933063 C12.8582755,16.1257606 12.7948464,16.1257606 12.7314172,16.1257606 C12.5728444,16.1257606 12.4142716,15.9634888 12.4777007,15.7687627 L12.7948464,14.4705882 L11.7799802,13.5943205 C11.5896928,13.4320487 11.6848365,13.1075051 11.938553,13.1075051 L13.2705649,13.010142 L13.777998,11.7444219 C13.8097126,11.6146045 13.9365709,11.5821501 14.0317146,11.5821501 C14.1268583,11.5821501 14.2537166,11.6470588 14.2854311,11.7444219 L14.7928642,13.010142 L16.1248761,13.1075051 C16.3151635,13.1075051 16.4420218,13.4320487 16.2517344,13.5943205 Z M19.3597621,19.663286 L19.3914767,19.2413793 C19.4231913,18.7870183 19.7086224,18.3975659 20.1526264,18.2677485 L20.5332012,18.1703854 C21.135778,18.0081136 21.4529237,17.326572 21.1992071,16.7423935 L21.0406343,16.3529412 C20.8820614,15.9310345 20.9772052,15.4442191 21.3260654,15.1521298 L21.6432111,14.8600406 C22.1189296,14.4381339 22.1189296,13.6916836 21.6432111,13.2697769 L21.3260654,12.9776876 C20.9772052,12.6855984 20.8820614,12.198783 21.0723489,11.7768763 L21.2309217,11.3874239 C21.4846383,10.8032454 21.1674926,10.1217039 20.5649158,9.95943205 L20.1526264,9.79716024 C19.7086224,9.6673428 19.4231913,9.27789047 19.3914767,8.82352941 L19.3914767,8.40162272 C19.3597621,7.81744422 18.8840436,7.39553753 18.3448959,7.39553753 C18.2814668,7.39553753 18.2180377,7.39553753 18.1546085,7.39553753 L17.7423191,7.46044625 C17.67889,7.46044625 17.6154609,7.46044625 17.5520317,7.46044625 C17.1714569,7.46044625 16.8225966,7.26572008 16.6323092,6.90872211 L16.4420218,6.55172414 C16.2517344,6.19472617 15.9028741,6 15.5222993,6 C15.3002973,6 15.1100099,6.06490872 14.9197225,6.19472617 L14.6342914,6.45436105 C14.444004,6.5841785 14.2537166,6.64908722 14.0317146,6.64908722 C13.8097126,6.64908722 13.6194252,6.5841785 13.4291378,6.45436105 L13.1119921,6.19472617 C12.9217047,6.06490872 12.6997027,6 12.5094153,6 C12.1288404,6 11.7799802,6.19472617 11.5896928,6.55172414 L11.3994054,6.90872211 C11.2091179,7.26572008 10.8602577,7.46044625 10.4796829,7.46044625 C10.4162537,7.46044625 10.3528246,7.46044625 10.2893954,7.42799189 L9.87710605,7.36308316 C9.81367691,7.36308316 9.75024777,7.3306288 9.68681863,7.3306288 C9.14767096,7.3306288 8.67195243,7.7525355 8.64023786,8.336714 L8.60852329,8.79107505 C8.57680872,9.24543611 8.2913776,9.63488844 7.84737364,9.76470588 L7.46679881,9.86206897 C6.864222,10.0243408 6.54707631,10.7058824 6.80079286,11.2900609 L6.95936571,11.6795132 C7.11793855,12.1014199 7.02279485,12.5882353 6.67393459,12.8803245 L6.3567889,13.1724138 C5.88107037,13.5943205 5.88107037,14.3407708 6.3567889,14.7626775 L6.67393459,15.0547667 C7.02279485,15.346856 7.11793855,15.8336714 6.92765114,16.2555781 L6.7690783,16.6450304 C6.51536174,17.2292089 6.83250743,17.9107505 7.43508424,18.0730223 L7.81565907,18.2028398 C8.25966303,18.3326572 8.54509415,18.7221095 8.57680872,19.1764706 L8.60852329,19.5983773 C8.64023786,20.1825558 9.11595639,20.6044625 9.65510406,20.6044625 C9.7185332,20.6044625 9.78196234,20.6044625 9.84539148,20.6044625 L10.2576809,20.5395538 C10.32111,20.5395538 10.3845391,20.5395538 10.4479683,20.5395538 C10.8285431,20.5395538 11.1774034,20.7342799 11.3676908,21.0912779 L11.5579782,21.4482759 C11.7482656,21.8052738 12.0971259,22 12.4777007,22 C12.6997027,22 12.8899901,21.9350913 13.0802775,21.8052738 L13.4291378,21.5456389 C13.6194252,21.4158215 13.8097126,21.3509128 14.0317146,21.3509128 C14.2537166,21.3509128 14.444004,21.4158215 14.6342914,21.5456389 L14.9514371,21.8052738 C15.1417245,21.9350913 15.3637265,22 15.5540139,22 C15.9345887,22 16.283449,21.8052738 16.4737364,21.4482759 L16.6640238,21.0912779 C16.8543112,20.7342799 17.2031715,20.5395538 17.5837463,20.5395538 C17.6471754,20.5395538 17.7106046,20.5395538 17.7740337,20.5720081 L18.1863231,20.6369168 C18.2497522,20.6369168 18.3131814,20.6693712 18.3766105,20.6693712 C18.852329,20.6693712 19.3280476,20.2150101 19.3597621,19.663286 Z M14,19.2413793 C11.1774034,19.2413793 8.89395441,16.9046653 8.89395441,14.0162272 C8.89395441,11.127789 11.1774034,8.79107505 14,8.79107505 C16.8225966,8.79107505 19.1060456,11.127789 19.1060456,14.0162272 C19.1060456,16.9046653 16.8225966,19.2413793 14,19.2413793 Z" id="Shape" fill="#FFFFFF" fill-rule="nonzero" opacity="0.6"></path>
    </g>
</svg>