<?xml version="1.0" encoding="UTF-8"?>
<svg width="12px" height="12px" viewBox="0 0 12 12" version="1.1" xmlns="http://www.w3.org/2000/svg" xmlns:xlink="http://www.w3.org/1999/xlink">
    <!-- Generator: Sketch 52.5 (67469) - http://www.bohemiancoding.com/sketch -->
    <title>Icons/external-link</title>
    <desc>Created with Sketch.</desc>
    <g id="Icons/external-link" stroke="none" stroke-width="1" fill="none" fill-rule="evenodd">
        <rect fill="#000000" x="0" y="0" width="12" height="12"></rect>
        <rect id="Rectangle" stroke="#979797" fill="#D8D8D8" opacity="0" x="0.5" y="0.5" width="11" height="11"></rect>
        <path d="M10.4925,1.121325 L10.4925263,1.1213496 C10.6027968,1.11816948 10.7088747,1.16369956 10.7825314,1.24582377 C10.8561882,1.32794798 10.8899523,1.43833592 10.8748388,1.5476121 L10.8748388,4.4999871 C10.8767514,4.63522557 10.805698,4.76101761 10.6888864,4.829195 C10.5720748,4.89737238 10.4276027,4.89737238 10.3107911,4.829195 C10.1939795,4.76101761 10.1229261,4.63522557 10.1248388,4.4999871 L10.1248388,2.4052746 L5.51496375,7.0151496 C5.42085858,7.11289829 5.28129456,7.15219452 5.15001266,7.11790677 C5.01873075,7.08361902 4.91620683,6.9810951 4.88191908,6.84981319 C4.84763133,6.71853129 4.88692756,6.57896727 4.98467625,6.4848621 L9.59455125,1.8749871 L7.49983875,1.8749871 C7.36460028,1.87689971 7.23880824,1.80584636 7.17063085,1.68903478 C7.10245347,1.5722232 7.10245347,1.427751 7.17063085,1.31093942 C7.23880824,1.19412784 7.36460028,1.12307449 7.49983875,1.1249871 L10.4507513,1.1249871 C10.4645884,1.1229892 10.4785264,1.12176659 10.4925,1.121325 Z M4.99998945,3.00000214 L4.99998945,3.00004941 C5.13112917,2.99819477 5.25310877,3.06709451 5.31921986,3.18036556 C5.38533095,3.29363662 5.38533095,3.43372991 5.31921986,3.54700096 C5.25310877,3.66027202 5.13112917,3.72917176 4.99998945,3.72731712 C4.0927937,3.72731712 3.41734231,3.7297571 2.94174453,3.78342582 C2.46614676,3.83709454 2.22057336,3.93697022 2.07811221,4.07958742 C1.93565106,4.22220461 1.83604425,4.46776656 1.78265904,4.94321782 C1.72927384,5.41866909 1.72726294,6.09375534 1.72726294,7.00000364 C1.72726294,7.90599739 1.73040111,8.58086546 1.78478994,9.05609854 C1.83917878,9.53133163 1.93955649,9.77734448 2.08308309,9.92045622 C2.22660969,10.063568 2.47253582,10.1629527 2.94744269,10.2166178 C3.42234956,10.2702836 4.09634641,10.2727265 4.99997855,10.2727265 C5.90350159,10.2727265 6.57768026,10.2700102 7.0525144,10.2159087 C7.52734855,10.1618073 7.77314376,10.0618952 7.916874,9.91832532 C8.0606006,9.77472632 8.16078195,9.52890983 8.21516715,9.05396765 C8.26956689,8.57906184 8.27269415,7.90448467 8.27269415,7.00001818 C8.27083951,6.86887875 8.3397394,6.74689943 8.45301071,6.68078848 C8.56628202,6.61467754 8.70637561,6.61467754 8.81964692,6.68078848 C8.93291823,6.74689943 9.00181812,6.86887875 8.99996348,7.00001818 C8.99996348,7.90517557 9.00000712,8.59015267 8.93746195,9.13636708 C8.87491679,9.6825815 8.7445174,10.1194439 8.43106432,10.43254 C8.11761124,10.745636 7.68012238,10.876006 7.13419766,10.9382092 C6.58827294,11.0003979 5.90409432,10.9999979 4.99998945,10.9999979 C4.09599368,10.9999979 3.41163324,11.0012997 2.86578125,10.9396274 C2.31992926,10.8779551 1.88327312,10.7481705 1.56960549,10.4353763 C1.25593423,10.1225785 1.12433121,9.68567238 1.06178969,9.13920343 C0.999248161,8.59273447 1.00000088,7.9067392 1.00000088,7.00001818 C1.00000088,6.09351534 0.999040889,5.40773826 1.06037151,4.86152384 C1.12168032,4.31527306 1.25026153,3.87865062 1.56320552,3.56535096 C1.87614952,3.25205131 2.31360202,3.12204493 2.86007219,3.06037263 C3.40657872,2.99870044 4.09243006,3.00000214 4.99998945,3.00000214 Z" id="Combined-Shape" fill="#FFFFFF" opacity="0.6"></path>
    </g>
</svg>