<?xml version="1.0" encoding="UTF-8"?>
<svg width="28px" height="28px" viewBox="0 0 28 28" version="1.1" xmlns="http://www.w3.org/2000/svg" xmlns:xlink="http://www.w3.org/1999/xlink">
    <!-- Generator: Sketch 52.5 (67469) - http://www.bohemiancoding.com/sketch -->
    <title>Icons/fail</title>
    <desc>Created with Sketch.</desc>
    <g id="Icons/fail" stroke="none" stroke-width="1" fill="none" fill-rule="evenodd">
        <rect id="Rectangle" fill="#D8D8D8" opacity="0" x="0" y="0" width="28" height="28"></rect>
        <path d="M20.0297324,20.3711968 L20.0654113,19.8965517 C20.1010902,19.3853955 20.4222002,18.9472617 20.9217047,18.801217 L21.3498513,18.6916836 C22.0277502,18.5091278 22.3845391,17.7423935 22.099108,17.0851927 L21.9207136,16.6470588 C21.7423191,16.1724138 21.8493558,15.6247465 22.2418236,15.296146 L22.5986125,14.9675456 C23.1337958,14.4929006 23.1337958,13.653144 22.5986125,13.178499 L22.2418236,12.8498986 C21.8493558,12.5212982 21.7423191,11.9736308 21.9563925,11.4989858 L22.1347869,11.0608519 C22.420218,10.4036511 22.0634291,9.63691684 21.3855302,9.45436105 L20.9217047,9.27180527 C20.4222002,9.12576065 20.1010902,8.68762677 20.0654113,8.17647059 L20.0654113,7.70182556 C20.0297324,7.04462475 19.4945491,6.56997972 18.8880079,6.56997972 C18.8166501,6.56997972 18.7452924,6.56997972 18.6739346,6.56997972 L18.210109,6.64300203 C18.1387512,6.64300203 18.0673935,6.64300203 17.9960357,6.64300203 C17.567889,6.64300203 17.1754212,6.42393509 16.9613479,6.02231237 L16.7472745,5.62068966 C16.5332012,5.21906694 16.1407334,5 15.7125867,5 C15.4628345,5 15.2487611,5.07302231 15.0346878,5.21906694 L14.7135778,5.51115619 C14.4995045,5.65720081 14.2854311,5.73022312 14.0356789,5.73022312 C13.7859267,5.73022312 13.5718533,5.65720081 13.35778,5.51115619 L13.0009911,5.21906694 C12.7869177,5.07302231 12.5371655,5 12.3230922,5 C11.8949455,5 11.5024777,5.21906694 11.2884044,5.62068966 L11.074331,6.02231237 C10.8602577,6.42393509 10.4677899,6.64300203 10.0396432,6.64300203 C9.96828543,6.64300203 9.89692765,6.64300203 9.82556987,6.60649087 L9.3617443,6.53346856 C9.29038652,6.53346856 9.21902874,6.4969574 9.14767096,6.4969574 C8.54112983,6.4969574 8.00594648,6.97160243 7.97026759,7.62880325 L7.9345887,8.13995943 C7.89890981,8.65111562 7.5777998,9.08924949 7.07829534,9.23529412 L6.65014866,9.34482759 C5.97224975,9.52738337 5.61546085,10.2941176 5.90089197,10.9513185 L6.07928642,11.3894523 C6.25768087,11.8640974 6.1506442,12.4117647 5.75817641,12.7403651 L5.40138751,13.0689655 C4.86620416,13.5436105 4.86620416,14.3833671 5.40138751,14.8580122 L5.75817641,15.1866126 C6.1506442,15.515213 6.25768087,16.0628803 6.04360753,16.5375254 L5.86521308,16.9756592 C5.57978196,17.63286 5.93657086,18.3995943 6.61446977,18.5821501 L7.04261645,18.7281947 C7.54212091,18.8742394 7.86323092,19.3123732 7.89890981,19.8235294 L7.9345887,20.2981744 C7.97026759,20.9553753 8.50545094,21.4300203 9.11199207,21.4300203 C9.18334985,21.4300203 9.25470763,21.4300203 9.32606541,21.4300203 L9.78989098,21.356998 C9.86124876,21.356998 9.93260654,21.356998 10.0039643,21.356998 C10.432111,21.356998 10.8245788,21.5760649 11.0386521,21.9776876 L11.2527255,22.3793103 C11.4667988,22.7809331 11.8592666,23 12.2874133,23 C12.5371655,23 12.7512389,22.9269777 12.9653122,22.7809331 L13.35778,22.4888438 C13.5718533,22.3427992 13.7859267,22.2697769 14.0356789,22.2697769 C14.2854311,22.2697769 14.4995045,22.3427992 14.7135778,22.4888438 L15.0703667,22.7809331 C15.28444,22.9269777 15.5341923,23 15.7482656,23 C16.1764123,23 16.5688801,22.7809331 16.7829534,22.3793103 L16.9970268,21.9776876 C17.2111001,21.5760649 17.6035679,21.356998 18.0317146,21.356998 C18.1030723,21.356998 18.1744301,21.356998 18.2457879,21.3935091 L18.7096135,21.4665314 C18.7809713,21.4665314 18.852329,21.5030426 18.9236868,21.5030426 C19.4588702,21.5030426 19.9940535,20.9918864 20.0297324,20.3711968 Z" id="Shape" fill="#D90537" fill-rule="nonzero"></path>
        <path d="M14,12.5738418 L16.2784747,10.295367 C16.6722974,9.90154432 17.3108102,9.90154432 17.704633,10.295367 C18.0984557,10.6891898 18.0984557,11.3277026 17.704633,11.7215253 L15.4261582,14 L17.704633,16.2784747 C18.0984557,16.6722974 18.0984557,17.3108102 17.704633,17.704633 C17.3108102,18.0984557 16.6722974,18.0984557 16.2784747,17.704633 L14,15.4261582 L11.7215253,17.704633 C11.3277026,18.0984557 10.6891898,18.0984557 10.295367,17.704633 C9.90154432,17.3108102 9.90154432,16.6722974 10.295367,16.2784747 L12.5738418,14 L10.295367,11.7215253 C9.90154432,11.3277026 9.90154432,10.6891898 10.295367,10.295367 C10.6891898,9.90154432 11.3277026,9.90154432 11.7215253,10.295367 L14,12.5738418 Z" id="Combined-Shape" fill="#FFFFFF"></path>
    </g>
</svg>