<?xml version="1.0" encoding="UTF-8"?>
<svg width="32px" height="32px" viewBox="0 0 32 32" version="1.1" xmlns="http://www.w3.org/2000/svg" xmlns:xlink="http://www.w3.org/1999/xlink">
    <!-- Generator: Sketch 52.5 (67469) - http://www.bohemiancoding.com/sketch -->
    <title>Icons/filter-1</title>
    <desc>Created with Sketch.</desc>
    <g id="Icons/filter-1" stroke="none" stroke-width="1" fill="none" fill-rule="evenodd">
        <rect id="Rectangle" fill="#D8D8D8" opacity="0" x="0" y="0" width="32" height="32"></rect>
        <path d="M16.0504615,7.28186256 C18.9587692,7.28186256 21.8670769,7.28186256 24.7753846,7.28186256 C24.9387692,7.28186256 24.9310769,7.28342154 24.9618462,7.44118974 C25,7.64042667 25.0529231,7.83654564 25.0981538,8.03422359 C25.1298462,8.17234872 25.1581538,8.31140923 25.1883077,8.44984615 C25.2350769,8.66373744 25.2818462,8.87762872 25.3292308,9.09120821 C25.3578462,9.22029128 25.4116923,9.34906256 25.4116923,9.47783385 C25.4116923,9.73568821 25.5867692,9.84668718 25.7581538,9.97202872 C25.944,10.1082831 26.1264615,10.2492144 26.3101538,10.3882749 C26.5452308,10.5659979 26.7806154,10.7430974 27.0147692,10.9220677 C27.272,11.1191221 27.5289231,11.3171118 27.7387692,11.5687303 C27.8116923,11.6563446 27.8550769,11.7567426 27.8541538,11.8789662 C27.8501538,12.4529805 27.8621538,13.0269949 27.8476923,13.6003856 C27.84,13.9059446 27.7987692,14.2111918 27.7092308,14.5080205 C27.6569231,14.6832492 27.64,14.8712615 27.5775385,15.0421251 C27.5018462,15.2488451 27.4107692,15.4536944 27.2972308,15.6413949 C27.1489231,15.8858421 26.9843077,16.1259241 26.7609231,16.3086359 C26.5710769,16.4645333 26.3713846,16.6095179 26.1646154,16.7420308 C26.032,16.8265272 25.8787692,16.8779733 25.7363077,16.9478154 C25.7156923,16.9584164 25.6972308,16.9889723 25.6916923,17.0139159 C25.684,17.0479015 25.6886154,17.0850051 25.6886154,17.1208615 C25.6889231,19.4325087 25.6910769,21.7438441 25.6852308,24.0554913 C25.6849231,24.2294728 25.6190769,24.4022072 25.5956923,24.5771241 C25.5698462,24.7688779 25.4596923,24.9160451 25.3372308,25.0416985 C25.2138462,25.1689108 25.0689231,25.2708677 24.8812308,25.323561 C24.4587692,25.4423549 24.0329231,25.3868554 23.6086154,25.3946503 C23.0006154,25.4055631 22.3926154,25.3983918 21.7843077,25.3987036 C21.6409231,25.3987036 21.6406154,25.3983918 21.6406154,25.2555897 C21.6406154,23.381079 21.6406154,21.5065682 21.6406154,19.6317456 C21.6406154,19.4839549 21.6403077,19.4839549 21.4932308,19.4839549 C20.6246154,19.4839549 19.756,19.4839549 18.8873846,19.4839549 C18.7390769,19.4839549 18.7390769,19.4839549 18.7390769,19.6308103 C18.7390769,21.5087508 18.7390769,23.3866913 18.7390769,25.26432 C18.7390769,25.4267651 18.7387692,25.4267651 18.584,25.4267651 C14.9846154,25.4277005 11.3846154,25.4305067 7.784,25.4270769 C7.61538462,25.4270769 7.44738462,25.3634708 7.27753846,25.3425805 C7.09569231,25.3198195 6.94984615,25.2219159 6.82984615,25.1031221 C6.70153846,24.9759097 6.56584615,24.8418379 6.53815385,24.6394831 C6.52123077,24.5157005 6.48092308,24.3947241 6.45323077,24.2725005 C6.44276923,24.2288492 6.43169231,24.1839508 6.43169231,24.1396759 C6.43015385,21.8641969 6.42953846,19.5884062 6.42892308,17.3129272 C6.42892308,17.12928 6.428,17.1336451 6.24276923,17.0949826 C5.97138462,17.0385477 5.71969231,16.9303549 5.49907692,16.7607385 C5.33138462,16.6325908 5.156,16.5069374 5.01661538,16.3501046 C4.74676923,16.04704 4.52307692,15.7071836 4.41846154,15.3046564 C4.34461538,15.0218585 4.28615385,14.7346954 4.22184615,14.4490913 C4.11292308,13.9645621 4.14892308,13.4722379 4.15692308,12.9824082 C4.16061538,12.7438851 4.18707692,12.5025559 4.23261538,12.2687097 C4.27876923,12.0323692 4.336,11.7916636 4.43630769,11.5759015 C4.50646154,11.4259282 4.64953846,11.3058872 4.77507692,11.1889641 C4.90369231,11.0689231 5.04953846,10.9675897 5.18923077,10.8603323 C5.37230769,10.7200246 5.55692308,10.5825231 5.74,10.4425272 C5.92338462,10.3025313 6.10553846,10.1609764 6.28830769,10.0200451 C6.32615385,9.99073641 6.36246154,9.95675077 6.40461538,9.93554872 C6.58061538,9.84637538 6.63815385,9.69484308 6.664,9.50620718 C6.69138462,9.30603487 6.75169231,9.11022769 6.796,8.91254974 C6.82830769,8.76818872 6.85846154,8.62258051 6.88984615,8.47790769 C6.92338462,8.32388103 6.95723077,8.16954256 6.99076923,8.0155159 C7.02153846,7.87396103 7.05323077,7.73240615 7.08276923,7.59022769 C7.09907692,7.51134359 7.10676923,7.42996513 7.13046154,7.35357538 C7.13938462,7.32457846 7.17846154,7.29714051 7.20953846,7.28529231 C7.24092308,7.2734441 7.27969231,7.28186256 7.31476923,7.28186256 C10.2267692,7.28186256 13.1384615,7.28186256 16.0504615,7.28186256 Z M16.0704615,10.7611815 C16.0704615,10.7602462 16.0704615,10.7593108 16.0704615,10.7586872 C13.0298462,10.7586872 9.98923077,10.7586872 6.94892308,10.7580636 C6.87661538,10.7580636 6.81230769,10.7633641 6.756,10.8207344 C6.68184615,10.8961887 6.59784615,10.9616656 6.51907692,11.0324431 C6.14184615,11.3729231 5.76584615,11.7143385 5.38830769,12.0532595 C5.32615385,12.1090708 5.30030769,12.1701826 5.30092308,12.2565497 C5.30492308,12.7847303 5.30492308,13.3132226 5.30215385,13.8410913 C5.30061538,14.0821087 5.32892308,14.3184492 5.37538462,14.5544779 C5.43815385,14.8728205 5.54461538,15.1708964 5.73507692,15.4328041 C5.93415385,15.70656 6.19753846,15.8980021 6.51692308,16.0002708 C6.74953846,16.0747897 6.992,16.1012923 7.23723077,16.0847672 C7.448,16.0710482 7.66215385,16.0744779 7.86830769,16.0358154 C8.07323077,15.9971528 8.272,15.9213867 8.46984615,15.8518564 C8.81938462,15.7286974 9.09230769,15.4923569 9.31138462,15.2014523 C9.63815385,14.7677456 9.76092308,14.2588964 9.784,13.7222974 C9.788,13.6402954 9.81230769,13.6175344 9.89046154,13.6184697 C10.2058462,13.6222113 10.5209231,13.6222113 10.8363077,13.6184697 C10.9147692,13.6178462 10.9443077,13.6399836 10.9412308,13.722921 C10.9304615,14.005719 10.9532308,14.285399 11.0138462,14.56352 C11.0710769,14.8272985 11.1501538,15.0804759 11.2916923,15.3108923 C11.5836923,15.7854441 12.0166154,16.0342564 12.5553846,16.0772841 C12.8212308,16.0981744 13.0923077,16.0620062 13.3609231,16.0473518 C13.6184615,16.0336328 13.8596923,15.9544369 14.0978462,15.8584041 C14.5507692,15.6753805 14.8846154,15.3598441 15.1169231,14.9323733 C15.3209231,14.5572841 15.4033846,14.1472738 15.4212308,13.7232328 C15.4246154,13.6421662 15.4476923,13.6178462 15.5270769,13.6187815 C15.8421538,13.6228349 16.1575385,13.6225231 16.4729231,13.6187815 C16.5504615,13.6181579 16.5769231,13.63936 16.5793846,13.7226092 C16.584,13.9168574 16.5987692,14.1107938 16.6144615,14.3047303 C16.6356923,14.5706913 16.7027692,14.8244923 16.808,15.0701867 C17.0655385,15.6707036 17.5233846,16.0058831 18.1550769,16.0751015 C18.4289231,16.1050338 18.7110769,16.0623179 18.9889231,16.0489108 C19.2501538,16.0361272 19.4941538,15.9566195 19.7356923,15.8590277 C20.1855385,15.6769395 20.5184615,15.3635856 20.7501538,14.9407918 C20.9572308,14.5641436 21.0415385,14.1503918 21.0578462,13.7226092 C21.0612308,13.6396718 21.088,13.6187815 21.1652308,13.6194051 C21.4803077,13.6231467 21.796,13.6234585 22.1110769,13.6194051 C22.1907692,13.6184697 22.2181538,13.6427897 22.2150769,13.72448 C22.2046154,14.0075897 22.2283077,14.2869579 22.2873846,14.5653908 C22.3433846,14.8266749 22.4261538,15.0751754 22.5630769,15.303721 C22.8513846,15.7860677 23.2883077,16.0355036 23.8307692,16.0794667 C24.2916923,16.1168821 24.7510769,16.0822728 25.1956923,15.9301169 C25.452,15.8421908 25.6898462,15.7221497 25.8975385,15.5450503 C26.1892308,15.2956144 26.4046154,14.990679 26.5298462,14.6246318 C26.6264615,14.3427692 26.6916923,14.0518646 26.6966154,13.7528533 C26.7049231,13.2411979 26.6861538,12.7286072 26.7076923,12.2175754 C26.7187692,11.9541087 26.6464615,11.7801272 26.428,11.6270359 C26.0926154,11.3922544 25.7812308,11.1216164 25.4603077,10.865321 C25.3723077,10.7948554 25.28,10.7596226 25.1621538,10.7596226 C22.1323077,10.7621169 19.1015385,10.7611815 16.0704615,10.7611815 Z M15.9024615,15.8322133 C15.8307692,15.9257518 15.7732308,16.0068185 15.7095385,16.081961 C15.5036923,16.3248492 15.2553846,16.5181621 14.9913846,16.6890256 C14.7901538,16.8190441 14.5763077,16.9253662 14.3427692,16.9842954 C14.1790769,17.0254523 14.0163077,17.0722215 13.8516923,17.1068308 C13.6529231,17.1489231 13.4516923,17.1813497 13.2513846,17.2168944 C13.2070769,17.2246892 13.1621538,17.2299897 13.1175385,17.2312369 C12.9418462,17.2368492 12.7646154,17.2555569 12.5907692,17.2396554 C12.4113846,17.2231303 12.2344615,17.1738667 12.0572308,17.1358277 C11.9326154,17.1090133 11.8033846,17.0915528 11.6870769,17.0432246 C11.5141538,16.9718236 11.3458462,16.8863918 11.1855385,16.7894236 C10.8806154,16.6051528 10.6203077,16.3703713 10.4310769,16.0604472 C10.3852308,15.9849928 10.3270769,15.9176451 10.2658462,15.8353313 C10.1898462,15.9313641 10.1258462,16.0155487 10.0587692,16.0959918 C9.85630769,16.3382564 9.60461538,16.5209682 9.34707692,16.6961969 C9.15046154,16.8299569 8.93323077,16.9200656 8.70584615,16.9839836 C8.52492308,17.0351179 8.34461538,17.0874995 8.16184615,17.1302154 C8.01015385,17.1654482 7.856,17.1966277 7.70123077,17.2119056 C7.612,17.2206359 7.57969231,17.2430851 7.57969231,17.337559 C7.58215385,19.6068021 7.58246154,21.8760451 7.58,24.1449764 C7.58,24.2416328 7.61138462,24.2647056 7.70153846,24.2643938 C10.948,24.2618995 14.1947692,24.2618995 17.4409231,24.2612759 C17.5870769,24.2612759 17.5873846,24.2603405 17.5873846,24.110679 C17.5873846,22.2230728 17.5873846,20.3351549 17.5873846,18.4475487 C17.5873846,18.3156595 17.5873846,18.3156595 17.7196923,18.3156595 C19.3606154,18.3156595 21.0015385,18.3156595 22.6424615,18.3156595 C22.7941538,18.3156595 22.7944615,18.3156595 22.7944615,18.4671918 C22.7944615,20.35168 22.7944615,22.2358564 22.7944615,24.1203446 C22.7944615,24.2597169 22.7947692,24.2600287 22.9329231,24.2600287 C23.4156923,24.2600287 23.8981538,24.2600287 24.3809231,24.2600287 C24.5375385,24.2600287 24.5375385,24.2597169 24.5375385,24.0991426 C24.5375385,21.8592082 24.5375385,19.6192738 24.5375385,17.3796513 C24.5375385,17.3634379 24.5375385,17.3472246 24.5372308,17.3306995 C24.5356923,17.2212595 24.5083077,17.2019282 24.4012308,17.2271836 C24.3486154,17.2396554 24.2938462,17.252439 24.2406154,17.2502564 C24.0873846,17.2437087 23.9326154,17.2421497 23.7821538,17.2165826 C23.5126154,17.1707487 23.2418462,17.1230441 22.9787692,17.0497723 C22.6446154,16.9568574 22.3621538,16.7551262 22.1058462,16.5268923 C21.9544615,16.3921969 21.8372308,16.2175918 21.7073846,16.0585764 C21.6513846,15.9902933 21.6018462,15.9167097 21.5409231,15.8347077 C21.4627692,15.9335467 21.3981538,16.021161 21.3276923,16.1034749 C21.1627692,16.2952287 20.9649231,16.4480082 20.7609231,16.5948636 C20.5236923,16.7657272 20.2713846,16.9057231 19.9886154,16.9821128 C19.8224615,17.0270113 19.6563077,17.0719097 19.4886154,17.1071426 C19.2895385,17.1492349 19.0886154,17.1813497 18.888,17.2172062 C18.8347692,17.22656 18.7809231,17.240279 18.7273846,17.2415262 C18.5606154,17.2449559 18.3923077,17.2577395 18.2273846,17.2399672 C18.048,17.2209477 17.8701538,17.17792 17.6941538,17.1348923 C17.5156923,17.0909292 17.3332308,17.0507077 17.1652308,16.9783713 C16.9969231,16.9057231 16.8393846,16.8031426 16.6867692,16.6990031 C16.4904615,16.5649313 16.3107692,16.410281 16.1753846,16.2082379 C16.0929231,16.0860144 16.0024615,15.9694031 15.9024615,15.8322133 Z M24.2963077,9.6206359 C24.28,9.52740923 24.2698462,9.45101949 24.2532308,9.37587692 C24.2067692,9.15886769 24.1467692,8.94435282 24.1126154,8.72547282 C24.0716923,8.46075897 24.0704615,8.45015795 23.8070769,8.45015795 C18.6147692,8.45015795 13.4227692,8.45015795 8.23076923,8.45015795 C8.192,8.45015795 8.15323077,8.45202872 8.11476923,8.44984615 C8.05076923,8.44641641 8.02184615,8.48227282 8.00984615,8.53995487 C7.94338462,8.86172718 7.87630769,9.18318769 7.81015385,9.50496 C7.78461538,9.62905436 7.78492308,9.62936615 7.90615385,9.62936615 C13.3295385,9.62936615 18.7532308,9.62936615 24.1769231,9.62905436 C24.2144615,9.62905436 24.2523077,9.62375385 24.2963077,9.6206359 Z" id="Shape" fill="#728893" fill-rule="nonzero"></path>
        <path d="M12.372,22.7309867 C11.2584615,22.7309867 10.1455385,22.7309867 9.03230769,22.7309867 C8.89969231,22.7309867 8.89938462,22.7309867 8.89938462,22.5994092 C8.89938462,21.2137928 8.89938462,19.8281764 8.89938462,18.44256 C8.89938462,18.3159713 8.89969231,18.3156595 9.02707692,18.3156595 C11.2569231,18.3156595 13.4861538,18.3156595 15.716,18.3156595 C15.8436923,18.3156595 15.844,18.3159713 15.844,18.4422482 C15.844,19.8312944 15.8430769,21.2197169 15.8464615,22.6087631 C15.8464615,22.7097846 15.8169231,22.7331692 15.7212308,22.7331692 C14.6046154,22.7297395 13.4883077,22.7309867 12.372,22.7309867 Z M12.3670769,21.5630031 C13.104,21.5630031 13.8406154,21.5617559 14.5772308,21.5645621 C14.6636923,21.5648738 14.6935385,21.541801 14.6932308,21.4498215 C14.6895385,20.8337149 14.6895385,20.2176082 14.6932308,19.6015015 C14.6935385,19.5054687 14.6636923,19.4817723 14.5723077,19.4817723 C13.1049231,19.4842667 11.6378462,19.4842667 10.1707692,19.4817723 C10.0796923,19.4817723 10.0492308,19.5054687 10.0501538,19.6015015 C10.0541538,20.2144903 10.0544615,20.827479 10.0498462,21.4401559 C10.0489231,21.5411774 10.0803077,21.5651856 10.1756923,21.5648738 C10.9061538,21.5611323 11.6366154,21.5630031 12.3670769,21.5630031 Z" id="Shape" fill="#728893" fill-rule="nonzero"></path>
    </g>
</svg>