<?xml version="1.0" encoding="UTF-8"?>
<svg width="32px" height="32px" viewBox="0 0 32 32" version="1.1" xmlns="http://www.w3.org/2000/svg" xmlns:xlink="http://www.w3.org/1999/xlink">
    <!-- Generator: Sketch 52.5 (67469) - http://www.bohemiancoding.com/sketch -->
    <title>Icons/filter</title>
    <desc>Created with Sketch.</desc>
    <g id="Icons/filter" stroke="none" stroke-width="1" fill="none" fill-rule="evenodd">
        <rect id="Rectangle" fill="#D8D8D8" opacity="0" x="0" y="0" width="32" height="32"></rect>
        <path d="M14.3912955,16.75 C14.0685895,17.8343083 13.0641327,18.625 11.875,18.625 C10.6858673,18.625 9.68141045,17.8343083 9.35870451,16.75 L7.75052098,16.75 C7.33601969,16.75 7,16.4171014 7,16 C7,15.5857864 7.33560191,15.25 7.75052098,15.25 L9.35870451,15.25 C9.68141045,14.1656917 10.6858673,13.375 11.875,13.375 C13.0641327,13.375 14.0685895,14.1656917 14.3912955,15.25 L24.249479,15.25 C24.6639803,15.25 25,15.5828986 25,16 C25,16.4142136 24.6643981,16.75 24.249479,16.75 L14.3912955,16.75 Z M17.6087045,21.625 C17.9314105,20.5406917 18.9358673,19.75 20.125,19.75 C21.3141327,19.75 22.3185895,20.5406917 22.6412955,21.625 L24.249479,21.625 C24.6639803,21.625 25,21.9578986 25,22.375 C25,22.7892136 24.6643981,23.125 24.249479,23.125 L22.6412955,23.125 C22.3185895,24.2093083 21.3141327,25 20.125,25 C18.9358673,25 17.9314105,24.2093083 17.6087045,23.125 L7.75052098,23.125 C7.33601969,23.125 7,22.7921014 7,22.375 C7,21.9607864 7.33560191,21.625 7.75052098,21.625 L17.6087045,21.625 Z M17.6087045,8.875 C17.9314105,7.79069164 18.9358673,7 20.125,7 C21.3141327,7 22.3185895,7.79069164 22.6412955,8.875 L24.249479,8.875 C24.6639803,8.875 25,9.20789861 25,9.625 C25,10.0392136 24.6643981,10.375 24.249479,10.375 L22.6412955,10.375 C22.3185895,11.4593083 21.3141327,12.25 20.125,12.25 C18.9358673,12.25 17.9314105,11.4593083 17.6087045,10.375 L7.75052098,10.375 C7.33601969,10.375 7,10.0421014 7,9.625 C7,9.21078644 7.33560191,8.875 7.75052098,8.875 L17.6087045,8.875 Z M20.125,10.75 C20.7463203,10.75 21.25,10.2463203 21.25,9.625 C21.25,9.00367966 20.7463203,8.5 20.125,8.5 C19.5036797,8.5 19,9.00367966 19,9.625 C19,10.2463203 19.5036797,10.75 20.125,10.75 Z M20.125,23.5 C20.7463203,23.5 21.25,22.9963203 21.25,22.375 C21.25,21.7536797 20.7463203,21.25 20.125,21.25 C19.5036797,21.25 19,21.7536797 19,22.375 C19,22.9963203 19.5036797,23.5 20.125,23.5 Z M11.875,14.875 C11.2536797,14.875 10.75,15.3786797 10.75,16 C10.75,16.6213203 11.2536797,17.125 11.875,17.125 C12.4963203,17.125 13,16.6213203 13,16 C13,15.3786797 12.4963203,14.875 11.875,14.875 Z" id="Shape" fill="#008CD5" fill-rule="nonzero"></path>
    </g>
</svg>