<?xml version="1.0" encoding="UTF-8"?>
<svg width="32px" height="32px" viewBox="0 0 32 32" version="1.1" xmlns="http://www.w3.org/2000/svg" xmlns:xlink="http://www.w3.org/1999/xlink">
    <!-- Generator: Sketch 52.5 (67469) - http://www.bohemiancoding.com/sketch -->
    <title>Icons/filter-2</title>
    <desc>Created with Sketch.</desc>
    <g id="Icons/filter-2" stroke="none" stroke-width="1" fill="none" fill-rule="evenodd">
        <rect id="Rectangle" fill="#D8D8D8" opacity="0" x="0" y="0" width="32" height="32"></rect>
        <path d="M24.6365455,22.0001806 C24.4503636,22.0001806 24.2641818,21.9294028 24.1223636,21.7885694 L21.2132727,18.8996806 C20.9289091,18.6172917 20.9289091,18.1608472 21.2132727,17.8784583 C21.4976364,17.5960694 21.9572727,17.5960694 22.2416364,17.8784583 L24.6365455,20.2567361 L27.0314545,17.8784583 C27.3158182,17.5960694 27.7754545,17.5960694 28.0598182,17.8784583 C28.3441818,18.1608472 28.3441818,18.6172917 28.0598182,18.8996806 L25.1507273,21.7885694 C25.0089091,21.9294028 24.8227273,22.0001806 24.6365455,22.0001806 Z" id="Combined-Shape" fill="#728893"></path>
        <path d="M19.6116364,12.8888889 L5.72727273,12.8888889 C5.32581818,12.8888889 5,12.5653333 5,12.1666667 C5,11.768 5.32581818,11.4444444 5.72727273,11.4444444 L19.6116364,11.4444444 C20.0138182,11.4444444 20.3389091,11.768 20.3389091,12.1666667 C20.3389091,12.5653333 20.0138182,12.8888889 19.6116364,12.8888889 Z M15.1818182,16.2222222 L5.72727273,16.2222222 C5.32581818,16.2222222 5,15.8986667 5,15.5 C5,15.1013333 5.32581818,14.7777778 5.72727273,14.7777778 L15.1818182,14.7777778 C15.584,14.7777778 15.9090909,15.1013333 15.9090909,15.5 C15.9090909,15.8986667 15.584,16.2222222 15.1818182,16.2222222 Z M10.8181818,19.5555556 L5.72727273,19.5555556 C5.32581818,19.5555556 5,19.2327222 5,18.8333333 C5,18.4339444 5.32581818,18.1111111 5.72727273,18.1111111 L10.8181818,18.1111111 C11.2196364,18.1111111 11.5454545,18.4339444 11.5454545,18.8333333 C11.5454545,19.2327222 11.2196364,19.5555556 10.8181818,19.5555556 Z" id="Combined-Shape" fill="#728893"></path>
        <path d="M24.6363636,22 C24.2341818,22 23.9090909,21.6771667 23.9090909,21.2777778 L23.9090909,9.72222222 C23.9090909,9.32355556 24.2341818,9 24.6363636,9 C25.0385455,9 25.3636364,9.32355556 25.3636364,9.72222222 L25.3636364,21.2777778 C25.3636364,21.6771667 25.0385455,22 24.6363636,22 Z" id="Path" fill="#728893"></path>
    </g>
</svg>