<?xml version="1.0" encoding="UTF-8"?>
<svg width="32px" height="32px" viewBox="0 0 32 32" version="1.1" xmlns="http://www.w3.org/2000/svg" xmlns:xlink="http://www.w3.org/1999/xlink">
    <!-- Generator: Sketch 52.5 (67469) - http://www.bohemiancoding.com/sketch -->
    <title>Icons/filter-3</title>
    <desc>Created with Sketch.</desc>
    <g id="Icons/filter-3" stroke="none" stroke-width="1" fill="none" fill-rule="evenodd">
        <rect id="Rectangle" fill="#D8D8D8" opacity="0" x="0" y="0" width="32" height="32"></rect>
        <path d="M20.1075641,7.00402124 C20.0607449,7.00946124 20.0145724,7.01996124 19.9702096,7.03526324 L7.41208527,11.4341575 C7.17057975,11.5186195 6.99776661,11.7570855 7.00002182,12.0027635 L7.00002182,22.40016 C7.00005677,22.71422 7.29916741,22.99996 7.62792803,23 L23.1162814,23 C23.445042,22.99996 23.7441526,22.71422 23.7441876,22.40016 L23.7441876,19.8007998 L24.3720938,19.8007998 C24.7008544,19.8007598 24.999965,19.5150398 25,19.2009598 L25,15.2019596 C24.999965,14.8878796 24.7008544,14.6021396 24.3720938,14.6020996 L23.7441876,14.6020996 L23.7441876,12.0027635 C23.7441547,11.6886915 23.4450434,11.4029455 23.1162814,11.4029135 L20.8139586,11.4029135 L20.8139586,7.60386927 C20.8167172,7.26317725 20.4614097,6.96146124 20.1075641,7.00402124 Z M19.5581461,8.45990531 L19.5581461,11.4029135 L11.1599005,11.4029135 L19.5581461,8.45990531 Z M8.25583425,12.6026115 L22.4883751,12.6026115 L22.4883751,14.6020996 C21.0037826,14.6020996 19.5072167,14.6020996 18.0276247,14.6020996 C17.721241,14.6327796 17.4634799,14.9076596 17.4651254,15.2019596 L17.4651254,19.2009598 C17.4651604,19.5150398 17.764271,19.8007598 18.0930316,19.8007998 L22.4883751,19.8007998 L22.4883751,21.8002799 L8.25583425,21.8002799 L8.25583425,12.6026115 Z M18.7209378,15.8018197 L23.7441876,15.8018197 L23.7441876,18.6010998 L18.7209378,18.6010998 L18.7209378,15.8018197 Z M19.9767503,16.4016597 C19.5143729,16.4016597 19.139542,16.7597397 19.139542,17.2014597 C19.139542,17.6431797 19.5143729,18.0012398 19.9767503,18.0012398 C20.4391276,18.0012398 20.8139586,17.6431797 20.8139586,17.2014597 C20.8139586,16.7597397 20.4391276,16.4016597 19.9767503,16.4016597 Z" id="Shape" fill="#718894" fill-rule="nonzero"></path>
    </g>
</svg>