<?xml version="1.0" encoding="UTF-8"?>
<svg width="54px" height="54px" viewBox="0 0 54 54" version="1.1" xmlns="http://www.w3.org/2000/svg" xmlns:xlink="http://www.w3.org/1999/xlink">
    <!-- Generator: Sketch 52.5 (67469) - http://www.bohemiancoding.com/sketch -->
    <title>Icons/footer-1</title>
    <desc>Created with Sketch.</desc>
    <defs>
        <circle id="path-1" cx="27" cy="27" r="27"></circle>
    </defs>
    <g id="Symbols" stroke="none" stroke-width="1" fill="none" fill-rule="evenodd">
        <g id="Footers/1440" transform="translate(-541.000000, -191.000000)">
            <g id="Icons/footer-1" transform="translate(541.000000, 191.000000)">
                <g id="Group-5">
                    <mask id="mask-2" fill="white">
                        <use xlink:href="#path-1"></use>
                    </mask>
                    <use id="Oval" fill="#1F99DA" xlink:href="#path-1"></use>
                    <path d="M44.0307434,35.1058817 L44.0307692,38.2153846 L35.6439367,38.2153846 L37.2504333,29.5224445 C39.3721196,30.6187377 41.3784197,31.9225272 43.2395352,33.4144488 C43.7438328,33.8329821 44.033921,34.4531282 44.0307434,35.1058817 Z M28.5953039,25.2306471 C28.7001379,25.8335962 28.914625,26.4125449 29.2282704,26.9391652 L29.2282704,28.4699974 L32.5616649,30.8619227 L31.3094919,32.4440105 L32.1523006,33.7869057 L31.4952539,38.2153846 L34.3401633,38.2153846 L33.6796764,33.7971568 L34.5224851,32.4542616 L33.2634321,30.8721738 L36.5968266,28.4802485 L36.5968266,26.9118289 C36.9126023,26.3862161 37.1272388,25.8068644 37.2297931,25.2033108 C37.4705956,25.1828086 37.7905189,24.8616071 38.1310824,23.6451423 C38.5989273,21.9981308 38.1035621,21.7555212 37.6804378,21.7965257 C37.7598522,21.574037 37.8208291,21.3454739 37.8627597,21.1131184 C38.5782871,16.8520743 36.4661052,16.7017247 36.4661052,16.7017247 C36.1572268,16.2023157 35.7171965,15.7959417 35.1932921,15.5262643 C34.4016459,15.0715044 33.4844083,14.8799448 32.575425,14.9795385 C32.2238145,14.9975896 31.8764606,15.0642957 31.5434144,15.1777266 C31.1358019,15.3180058 30.7501562,15.514716 30.3978825,15.7620398 C29.9654669,16.0341796 29.5690707,16.3590488 29.2179503,16.729061 C28.5964831,17.3379791 28.1560732,18.1053171 27.9451372,18.9467175 C27.7795731,19.6594879 27.7795731,20.4003481 27.9451372,21.1131184 C27.9870226,21.3454838 28.0480005,21.5740506 28.1274591,21.7965257 C27.7043347,21.7555212 27.2089696,22.0015479 27.6768144,23.6451423 C28.0345781,24.8581901 28.3510614,25.1964767 28.5953039,25.2306471 Z M28.5953039,29.5395297 C26.471963,30.6300191 24.4633683,31.9280787 22.5993219,33.4144488 C22.089063,33.8361263 21.7971788,34.4636863 21.8046737,35.1229669 L21.8046737,38.2153846 L30.1880404,38.2153846 L28.5953039,29.5395297 Z M20.2325775,35.1058817 C20.2307957,33.9858838 20.7360408,32.9244347 21.6085917,32.215069 C22.021396,31.8733654 22.4342002,31.5589981 22.8470045,31.2582989 C22.7731198,31.1416029 22.7337805,31.006612 22.7334833,30.8687568 L22.7334833,29.9119867 L22.7334833,29.5907852 C22.7334833,29.5907852 25.6196731,29.6796282 26.9888073,28.2888945 C26.9888073,28.2888945 24.9970267,27.7285005 25.3547904,24.1235273 C25.7125541,20.5185541 24.9075858,17.3543786 21.9904356,17.6311586 C21.9904356,17.6311586 20.7245026,16.1208286 18.2063965,17.0707646 C17.3429476,17.4124682 15.0243637,18.2223058 15.1413249,23.2214298 C15.2582861,28.2205537 13.3559464,28.244473 13.3559464,28.244473 C13.3559464,28.244473 14.3432366,29.6488749 17.6628709,29.6181215 L17.6628709,30.8687568 C17.6620956,31.1197535 17.5323701,31.3529868 17.3188674,31.4872403 L17.2466266,31.5316618 C16.2490163,32.0578854 14.1505946,32.6046112 14.1127542,32.6251134 C13.434641,32.8081908 12.7757339,33.0553453 12.1450539,33.3631932 C11.3924472,33.7185246 10.8821107,34.4393686 10.8,35.2630653 L10.8,38.2153846 L20.2325775,38.2153846 L20.2325775,35.1058817 Z" id="Shape" fill="#FFFFFF" fill-rule="nonzero" opacity="0.80984933" mask="url(#mask-2)"></path>
                </g>
            </g>
        </g>
    </g>
</svg>