<?xml version="1.0" encoding="UTF-8"?>
<svg width="54px" height="54px" viewBox="0 0 54 54" version="1.1" xmlns="http://www.w3.org/2000/svg" xmlns:xlink="http://www.w3.org/1999/xlink">
    <!-- Generator: Sketch 52.5 (67469) - http://www.bohemiancoding.com/sketch -->
    <title>Icons/footer-3</title>
    <desc>Created with Sketch.</desc>
    <defs>
        <circle id="path-1" cx="27" cy="27" r="27"></circle>
    </defs>
    <g id="Symbols" stroke="none" stroke-width="1" fill="none" fill-rule="evenodd">
        <g id="Footers/1440" transform="translate(-832.000000, -191.000000)">
            <g id="Icons/footer-3" transform="translate(832.000000, 191.000000)">
                <g id="Oval-2">
                    <mask id="mask-2" fill="white">
                        <use xlink:href="#path-1"></use>
                    </mask>
                    <use id="Oval" fill="#1F99DA" xlink:href="#path-1"></use>
                    <path d="M27.4153846,10.8 C18.7118957,10.8 11.6307692,17.8811264 11.6307692,26.5846154 C11.6307692,35.2881043 18.7118957,42.3692308 27.4153846,42.3692308 C28.8451255,42.3692308 30.2613014,42.1784589 31.7604083,41.7526442 C34.797097,40.4096571 36.4541733,37.0955044 35.7200654,33.862248 L35.7508947,33.8314186 C36.2133346,33.3708901 36.4214326,32.4826356 36.215246,31.8621645 L36.1265809,31.5924079 C35.9184829,30.9719369 35.2325304,30.324521 34.6005292,30.1511369 L32.2671808,29.5134014 C31.6351796,29.3419287 30.7334218,29.5731487 30.2690704,30.0375 L29.4250868,30.8814837 C26.3575687,30.0510032 23.9509698,27.6444043 23.1224008,24.5768863 L23.9663845,23.7329026 C24.4288244,23.2704627 24.6600444,22.3687049 24.4885716,21.7347923 L23.8526859,19.4013822 C23.6812132,18.769381 23.0299129,18.0834285 22.4095035,17.8753305 L22.1435697,17.7866654 C21.5211873,17.5785674 20.6329327,17.7885768 20.1704928,18.2529898 L18.9064904,19.5169922 C18.6810663,19.7405048 18.5365385,20.3821248 18.5365385,20.3840978 C18.4941173,24.3957948 20.0664746,28.2590794 22.9027727,31.0972889 C25.7313635,33.9258797 29.5812065,35.4962639 33.5793386,35.4615501 C33.5889573,35.4615501 33.7353966,35.4288094 33.9088424,35.3767695 C33.9204343,37.3171056 32.8201972,39.13024 31.0994892,39.8990618 C29.9067642,40.228504 28.6678569,40.3961538 27.4153846,40.3961538 C19.8005409,40.3961538 13.6038462,34.1994591 13.6038462,26.5846154 C13.6038462,18.9697716 19.8005409,12.7730769 27.4153846,12.7730769 C35.0302284,12.7730769 41.2269231,18.9697716 41.2269231,26.5846154 C41.2269231,28.8544554 40.6874099,31.0259499 39.6218867,33.035652 C39.3675447,33.5173911 39.5525207,34.1146785 40.0322867,34.3690204 C40.5159371,34.6272469 41.1113131,34.4402978 41.365655,33.9605319 C42.5660874,31.6945763 43.2,29.1434495 43.2,26.5846154 C43.2,17.8811264 36.1188736,10.8 27.4153846,10.8 Z" id="Path" fill-opacity="0.9" fill="#FFFFFF" opacity="0.8" mask="url(#mask-2)"></path>
                </g>
            </g>
        </g>
    </g>
</svg>