<?xml version="1.0" encoding="UTF-8"?>
<svg width="52px" height="44px" viewBox="0 0 52 44" version="1.1" xmlns="http://www.w3.org/2000/svg" xmlns:xlink="http://www.w3.org/1999/xlink">
    <!-- Generator: Sketch 52.5 (67469) - http://www.bohemiancoding.com/sketch -->
    <title>Icons/guarantee</title>
    <desc>Created with Sketch.</desc>
    <g id="Icons/guarantee" stroke="none" stroke-width="1" fill="none" fill-rule="evenodd">
        <g id="Group-5" fill="#FFFFFF">
            <path d="M51,38 L45,38 C44.4477153,38 44,37.5522847 44,37 C44,36.4477153 44.4477153,36 45,36 L50,36 L50,2 L2,2 L2,36 L33,36 C33.5522847,36 34,36.4477153 34,37 C34,37.5522847 33.5522847,38 33,38 L1,38 C0.44771525,38 0,37.5522847 0,37 L0,1 C0,0.44771525 0.44771525,0 1,0 L51,1.2490009e-16 C51.5522847,1.2490009e-16 52,0.44771525 52,1 L52,37 C52,37.5522847 51.5522847,38 51,38 Z" id="Path" opacity="0.44484747"></path>
            <path d="M38,36 C33.581722,36 30,32.418278 30,28 C30,23.581722 33.581722,20 38,20 C42.418278,20 46,23.581722 46,28 C46,30.1217319 45.1571453,32.1565632 43.6568542,33.6568542 C42.1565632,35.1571453 40.1217319,36 38,36 Z M38,22 C34.6862915,22 32,24.6862915 32,28 C32,31.3137085 34.6862915,34 38,34 C41.3137085,34 44,31.3137085 44,28 C44,24.6862915 41.3137085,22 38,22 Z" id="Shape" fill-rule="nonzero"></path>
            <path d="M43,44 C42.734197,44.0015368 42.4787188,43.8971865 42.29,43.71 L38,39.41 L33.71,43.7 C33.4251909,43.9871614 32.995448,44.0744903 32.6211476,43.9212679 C32.2468472,43.7680455 32.0016958,43.4044441 32,43 L32,33 C32,32.4477153 32.4477153,32 33,32 C33.5522847,32 34,32.4477153 34,33 L34,40.59 L37.29,37.3 C37.6800375,36.9122764 38.3099625,36.9122764 38.7,37.3 L42,40.59 L42,33 C42,32.4477153 42.4477153,32 43,32 C43.5522847,32 44,32.4477153 44,33 L44,43 C44,43.5522847 43.5522847,44 43,44 Z" id="Path"></path>
            <path d="M28,32 L7,32 C6.44771525,32 6,31.5522847 6,31 L6,7 C6,6.44771525 6.44771525,6 7,6 L45,6 C45.5522847,6 46,6.44771525 46,7 L46,21 C46,21.5522847 45.5522847,22 45,22 C44.4477153,22 44,21.5522847 44,21 L44,8 L8,8 L8,30 L28,30 C28.5522847,30 29,30.4477153 29,31 C29,31.5522847 28.5522847,32 28,32 Z" id="Path"></path>
            <path d="M34,12 L18,12 C17.4477153,12 17,11.5522847 17,11 C17,10.4477153 17.4477153,10 18,10 L34,10 C34.5522847,10 35,10.4477153 35,11 C35,11.5522847 34.5522847,12 34,12 Z" id="Path"></path>
            <path d="M41,16 L11,16 C10.4477153,16 10,15.5522847 10,15 C10,14.4477153 10.4477153,14 11,14 L41,14 C41.5522847,14 42,14.4477153 42,15 C42,15.5522847 41.5522847,16 41,16 Z" id="Path"></path>
            <path d="M31,20 L15,20 C14.4477153,20 14,19.5522847 14,19 C14,18.4477153 14.4477153,18 15,18 L31,18 C31.5522847,18 32,18.4477153 32,19 C32,19.5522847 31.5522847,20 31,20 Z" id="Path"></path>
            <path d="M27,24 L18,24 C17.4477153,24 17,23.5522847 17,23 C17,22.4477153 17.4477153,22 18,22 L27,22 C27.5522847,22 28,22.4477153 28,23 C28,23.5522847 27.5522847,24 27,24 Z" id="Path"></path>
            <path d="M14,24 L11,24 C10.4477153,24 10,23.5522847 10,23 C10,22.4477153 10.4477153,22 11,22 L14,22 C14.5522847,22 15,22.4477153 15,23 C15,23.5522847 14.5522847,24 14,24 Z" id="Path"></path>
            <circle id="Oval" cx="38" cy="28" r="4"></circle>
        </g>
    </g>
</svg>