<?xml version="1.0" encoding="UTF-8"?>
<svg width="16px" height="16px" viewBox="0 0 16 16" version="1.1" xmlns="http://www.w3.org/2000/svg" xmlns:xlink="http://www.w3.org/1999/xlink">
    <!-- Generator: Sketch 52.5 (67469) - http://www.bohemiancoding.com/sketch -->
    <title>Icons/label</title>
    <desc>Created with Sketch.</desc>
    <g id="Icons/label" stroke="none" stroke-width="1" fill="none" fill-rule="evenodd">
        <rect id="Rectangle" fill="#D8D8D8" opacity="0" x="0" y="0" width="16" height="16"></rect>
        <path d="M2.43333161,4.00000023 C2.19401908,4.00002302 2.00002393,4.18478104 2,4.41269863 L2,11.015873 C2.00002393,11.2437906 2.19401908,11.4285486 2.43333161,11.4285714 L12.8332904,11.4285714 C12.9976214,11.4284297 13.1477317,11.3397803 13.2209194,11.1996526 L14.9542458,7.89806554 C15.0152514,7.78186634 15.0152514,7.64509315 14.9542458,7.52889395 L13.2209194,4.22730675 C13.1472591,4.08780543 12.9972445,3.99983655 12.8332904,4.00000023 L2.43333161,4.00000023 Z M2.86666323,4.82539703 L12.5658433,4.82539703 L14.0825039,7.71428583 L12.5658433,10.6031746 L2.86666323,10.6031746 L2.86666323,4.82539703 Z M11.5332955,6.47619063 C10.820465,6.47619063 10.2333007,7.03539696 10.2333007,7.71428583 C10.2333007,8.3931747 10.820465,8.95238103 11.5332955,8.95238103 C12.246126,8.95238103 12.8332904,8.3931747 12.8332904,7.71428583 C12.8332904,7.03539696 12.246126,6.47619063 11.5332955,6.47619063 Z M11.5332955,7.30158743 C11.7777465,7.30158743 11.9666271,7.48144139 11.9666271,7.71428583 C11.9666271,7.94704773 11.7777465,8.12698423 11.5332955,8.12698423 C11.2888445,8.12698423 11.0999639,7.94704773 11.0999639,7.71428583 C11.0999639,7.48144139 11.2888445,7.30158743 11.5332955,7.30158743 Z" id="Shape" fill="#000000" fill-rule="nonzero" transform="translate(8.500000, 7.714286) rotate(-45.000000) translate(-8.500000, -7.714286) "></path>
    </g>
</svg>