<?xml version="1.0" encoding="UTF-8"?>
<svg width="44px" height="44px" viewBox="0 0 44 44" version="1.1" xmlns="http://www.w3.org/2000/svg" xmlns:xlink="http://www.w3.org/1999/xlink">
    <!-- Generator: Sketch 52.5 (67469) - http://www.bohemiancoding.com/sketch -->
    <title>Icons/map-marker-active</title>
    <desc>Created with Sketch.</desc>
    <defs>
        <path d="M14,0 C6.3875,0 0.21875,6.26666667 0.21875,14 C0.21875,17.0222222 1.18125,20.4888889 2.8,22.8 L14,40 L25.2,22.8 C26.81875,20.4888889 27.78125,17.0666667 27.78125,14 C27.78125,6.26666667 21.6125,0 14,0 Z" id="path-1"></path>
        <filter x="-1.8%" y="-1.2%" width="103.6%" height="102.5%" filterUnits="objectBoundingBox" id="filter-2">
            <feOffset dx="0" dy="1" in="SourceAlpha" result="shadowOffsetInner1"></feOffset>
            <feComposite in="shadowOffsetInner1" in2="SourceAlpha" operator="arithmetic" k2="-1" k3="1" result="shadowInnerInner1"></feComposite>
            <feColorMatrix values="0 0 0 0 1   0 0 0 0 1   0 0 0 0 1  0 0 0 0.157240716 0" type="matrix" in="shadowInnerInner1"></feColorMatrix>
        </filter>
    </defs>
    <g id="Icons/map-marker-active" stroke="none" stroke-width="1" fill="none" fill-rule="evenodd">
        <rect id="Rectangle" fill="#D8D8D8" opacity="0" x="0" y="0" width="44" height="44"></rect>
        <g id="Map-Marker" transform="translate(8.000000, 2.000000)" fill-rule="nonzero">
            <g id="Path">
                <use fill="#008CD5" xlink:href="#path-1"></use>
                <use fill="black" fill-opacity="1" filter="url(#filter-2)" xlink:href="#path-1"></use>
            </g>
            <path d="M14,19.3333333 C11.1125,19.3333333 8.75,16.9333333 8.75,14 C8.75,11.0666667 11.1125,8.66666667 14,8.66666667 C16.8875,8.66666667 19.25,11.0666667 19.25,14 C19.25,16.9333333 16.8875,19.3333333 14,19.3333333 Z" id="Path" fill="#FFFFFF"></path>
        </g>
    </g>
</svg>