<?xml version="1.0" encoding="UTF-8"?>
<svg width="44px" height="44px" viewBox="0 0 44 44" version="1.1" xmlns="http://www.w3.org/2000/svg" xmlns:xlink="http://www.w3.org/1999/xlink">
    <!-- Generator: Sketch 52.5 (67469) - http://www.bohemiancoding.com/sketch -->
    <title>Icons/map-marker-unavailable</title>
    <desc>Created with Sketch.</desc>
    <defs>
        <path d="M11,0 C5.01875,0 0.171875,5.01333333 0.171875,11.2 C0.171875,13.6177778 0.928125,16.3911111 2.2,18.24 L11,32 L19.8,18.24 C21.071875,16.3911111 21.828125,13.6533333 21.828125,11.2 C21.828125,5.01333333 16.98125,0 11,0 Z" id="path-1"></path>
        <filter x="-4.6%" y="-3.1%" width="109.2%" height="106.2%" filterUnits="objectBoundingBox" id="filter-2">
            <feOffset dx="0" dy="2" in="SourceAlpha" result="shadowOffsetInner1"></feOffset>
            <feComposite in="shadowOffsetInner1" in2="SourceAlpha" operator="arithmetic" k2="-1" k3="1" result="shadowInnerInner1"></feComposite>
            <feColorMatrix values="0 0 0 0 1   0 0 0 0 1   0 0 0 0 1  0 0 0 0.157240716 0" type="matrix" in="shadowInnerInner1"></feColorMatrix>
        </filter>
    </defs>
    <g id="Icons/map-marker-unavailable" stroke="none" stroke-width="1" fill="none" fill-rule="evenodd">
        <rect id="Rectangle" fill="#D8D8D8" opacity="0" x="0" y="0" width="44" height="44"></rect>
        <g id="Group" transform="translate(11.000000, 6.000000)" fill-rule="nonzero">
            <g id="Path">
                <use fill="#CDD5D8" xlink:href="#path-1"></use>
                <use fill="black" fill-opacity="1" filter="url(#filter-2)" xlink:href="#path-1"></use>
            </g>
            <path d="M11,15.4666667 C8.73125,15.4666667 6.875,13.5466667 6.875,11.2 C6.875,8.85333333 8.73125,6.93333333 11,6.93333333 C13.26875,6.93333333 15.125,8.85333333 15.125,11.2 C15.125,13.5466667 13.26875,15.4666667 11,15.4666667 Z" id="Path" fill="#FFFFFF"></path>
        </g>
    </g>
</svg>