<?xml version="1.0" encoding="UTF-8"?>
<svg width="28px" height="28px" viewBox="0 0 28 28" version="1.1" xmlns="http://www.w3.org/2000/svg" xmlns:xlink="http://www.w3.org/1999/xlink">
    <!-- Generator: Sketch 52.5 (67469) - http://www.bohemiancoding.com/sketch -->
    <title>Icons/print</title>
    <desc>Created with Sketch.</desc>
    <g id="Icons/print" stroke="none" stroke-width="1" fill="none" fill-rule="evenodd">
        <rect id="Rectangle" fill="#D8D8D8" opacity="0" x="0" y="0" width="28" height="28"></rect>
        <path d="M22.2121519,7.88751545 L22.2121519,4.77255871 C22.2121519,4.3461063 21.8718987,4 21.4526582,4 L6.54734177,4 C6.12810127,4 5.7878481,4.3461063 5.7878481,4.77255871 L5.7878481,7.88751545 C4.78379747,8.00854965 4,8.86918006 4,9.92295014 L4,17.5620107 C4,18.6981871 4.90835443,19.6221673 6.02531646,19.6221673 L8.21974684,19.6221673 L8.21974684,23.2274413 C8.21974684,23.6538937 8.56,24 8.97924051,24 L19.2739241,24 C19.6931646,24 20.0334177,23.6538937 20.0334177,23.2274413 L20.0334177,19.6221673 L21.9746835,19.6221673 C23.0916456,19.6221673 24,18.6981871 24,17.5620107 L24,9.92295014 C24,8.86918006 23.2162025,8.00854965 22.2121519,7.88751545 Z M7.30683544,5.54511743 L20.6931646,5.54511743 L20.6931646,7.86279357 L7.30683544,7.86279357 L7.30683544,5.54511743 Z M18.5144304,22.4548826 L9.73873418,22.4548826 L9.73873418,16.9614751 L18.5144304,16.9614751 L18.5144304,22.4548826 Z M22.4810127,17.5620107 C22.4810127,17.8463123 22.2541772,18.0770499 21.9746835,18.0770499 L20.0334177,18.0770499 L20.0334177,16.9614751 L20.3716456,16.9614751 C20.7908861,16.9614751 21.1311392,16.6153688 21.1311392,16.1889164 C21.1311392,15.7624639 20.7908861,15.4163576 20.3716456,15.4163576 L7.62835443,15.4163576 C7.20911392,15.4163576 6.86886076,15.7624639 6.86886076,16.1889164 C6.86886076,16.6153688 7.20911392,16.9614751 7.62835443,16.9614751 L8.21974684,16.9614751 L8.21974684,18.0770499 L6.02531646,18.0770499 C5.74582278,18.0770499 5.51898734,17.8463123 5.51898734,17.5620107 L5.51898734,9.92295014 C5.51898734,9.63864854 5.74582278,9.407911 6.02531646,9.407911 L21.9746835,9.407911 C22.2541772,9.407911 22.4810127,9.63864854 22.4810127,9.92295014 L22.4810127,17.5620107 Z M19.52,10.631129 C18.6318987,10.631129 17.9088608,11.3666049 17.9088608,12.2699835 C17.9088608,13.1733622 18.6318987,13.9088381 19.52,13.9088381 C20.4081013,13.9088381 21.1311392,13.1733622 21.1311392,12.2699835 C21.1311392,11.3666049 20.4081013,10.631129 19.52,10.631129 Z M15.5498734,10.631129 C14.6622785,10.631129 13.9397468,11.3666049 13.9397468,12.2699835 C13.9397468,13.1733622 14.6622785,13.9088381 15.5498734,13.9088381 C16.4379747,13.9088381 17.1610127,13.1733622 17.1610127,12.2699835 C17.1610127,11.3666049 16.4374684,10.631129 15.5498734,10.631129 Z" id="Shape" fill="#FFFFFF" fill-rule="nonzero"></path>
    </g>
</svg>