<?xml version="1.0" encoding="UTF-8"?>
<svg width="28px" height="28px" viewBox="0 0 28 28" version="1.1" xmlns="http://www.w3.org/2000/svg" xmlns:xlink="http://www.w3.org/1999/xlink">
    <!-- Generator: Sketch 52.5 (67469) - http://www.bohemiancoding.com/sketch -->
    <title>Icons/question-white</title>
    <desc>Created with Sketch.</desc>
    <g id="Icons/question-white" stroke="none" stroke-width="1" fill="none" fill-rule="evenodd">
        <rect id="Rectangle" fill="#D8D8D8" opacity="0" x="0" y="0" width="28" height="28"></rect>
        <path d="M4.375,14 C4.375,8.68425902 8.68425902,4.375 14,4.375 C19.315741,4.375 23.625,8.68425902 23.625,14 C23.625,19.315741 19.315741,23.625 14,23.625 C8.68425902,23.625 4.375,19.315741 4.375,14 Z" id="back" fill="#FFFFFF"></path>
        <path d="M13.4503652,15.6617811 C13.3736716,15.6617811 13.3097612,15.6369281 13.2586321,15.5872212 C13.2075031,15.5375144 13.1819389,15.479524 13.1819389,15.4132482 C13.1819389,15.2392744 13.1861996,15.1067248 13.1947211,15.0155957 C13.2373287,14.6262256 13.3651494,14.2824252 13.5781873,13.9841843 C13.7912251,13.6859433 14.0852128,13.3545695 14.4601594,12.9900528 C14.7498908,12.7083808 14.9650557,12.4764191 15.1056607,12.2941608 C15.2462656,12.1119025 15.3250884,11.9213625 15.3421315,11.7225352 C15.3762175,11.3828719 15.2633092,11.1136307 15.0034031,10.9148034 C14.7434969,10.7159761 14.4303361,10.616564 14.063911,10.616564 C13.2373243,10.616564 12.7388233,11.0183547 12.5683931,11.8219484 C12.5087425,12.0124912 12.3851824,12.1077612 12.1977092,12.1077612 L11.0856574,12.1077612 C11.0004422,12.1077612 10.9301408,12.0787659 10.874751,12.0207746 C10.8193612,11.9627834 10.7916667,11.8882242 10.7916667,11.7970951 C10.8087097,11.3414492 10.9514429,10.9148054 11.2198705,10.5171508 C11.4882982,10.1194963 11.8738908,9.79847785 12.37666,9.55408597 C12.8794293,9.3096941 13.4716655,9.1875 14.1533865,9.1875 C14.860672,9.1875 15.4422565,9.29726758 15.8981574,9.51680604 C16.3540583,9.73634451 16.6863923,10.0159412 16.8951693,10.3556045 C17.1039464,10.6952677 17.2083333,11.0473524 17.2083333,11.4118691 C17.2083333,11.8260926 17.1124678,12.1864617 16.9207337,12.4929871 C16.7289997,12.7995125 16.4456637,13.1515972 16.0707171,13.5492518 C15.7980287,13.8309237 15.5871245,14.0732409 15.437998,14.2762104 C15.2888715,14.4791799 15.1887453,14.696644 15.1376162,14.9286092 C15.1035302,15.1357209 15.0822267,15.2765548 15.0737052,15.351115 C15.0310976,15.4588131 14.98423,15.5375144 14.9331009,15.5872212 C14.8819719,15.6369281 14.8095401,15.6617811 14.7158035,15.6617811 L13.4503652,15.6617811 Z M13.4120186,18.8125 C13.3268035,18.8125 13.2543717,18.7835048 13.1947211,18.7255135 C13.1350705,18.6675222 13.1052457,18.5971053 13.1052457,18.5142606 L13.1052457,17.4082893 C13.1052457,17.3254446 13.1350705,17.2550277 13.1947211,17.1970364 C13.2543717,17.1390451 13.3268035,17.1100499 13.4120186,17.1100499 L14.6774568,17.1100499 C14.762672,17.1100499 14.8372341,17.1390451 14.9011454,17.1970364 C14.9650568,17.2550277 14.997012,17.3254446 14.997012,17.4082893 L14.997012,18.5142606 C14.997012,18.5971053 14.9671871,18.6675222 14.9075365,18.7255135 C14.8478859,18.7835048 14.7711935,18.8125 14.6774568,18.8125 L13.4120186,18.8125 Z" id="?" fill="#008CD5"></path>
    </g>
</svg>