<?xml version="1.0" encoding="UTF-8"?>
<svg width="32px" height="32px" viewBox="0 0 32 32" version="1.1" xmlns="http://www.w3.org/2000/svg" xmlns:xlink="http://www.w3.org/1999/xlink">
    <!-- Generator: Sketch 52.5 (67469) - http://www.bohemiancoding.com/sketch -->
    <title>Icons/question</title>
    <desc>Created with Sketch.</desc>
    <g id="Icons/question" stroke="none" stroke-width="1" fill="none" fill-rule="evenodd">
        <rect id="Rectangle" fill="#D8D8D8" opacity="0" x="0" y="0" width="32" height="32"></rect>
        <path d="M5,16 C5,9.92486745 9.92486745,5 16,5 C22.0751325,5 27,9.92486745 27,16 C27,22.0751325 22.0751325,27 16,27 C9.92486745,27 5,22.0751325 5,16 Z M15.3718459,17.8991784 L16.8180611,17.8991784 C16.9251887,17.8991784 17.0079678,17.8707749 17.0664011,17.8139671 C17.1248343,17.7571593 17.1783973,17.667215 17.2270916,17.5441315 C17.2368305,17.4589198 17.2611773,17.2979668 17.3001328,17.0612676 C17.358566,16.7961646 17.472996,16.5476342 17.6434263,16.315669 C17.8138565,16.0837038 18.05489,15.80677 18.3665339,15.4848592 C18.7950442,15.0303968 19.1188568,14.6280143 19.3379814,14.2776995 C19.557106,13.9273848 19.6666667,13.5155344 19.6666667,13.0421362 C19.6666667,12.6255456 19.5473673,12.2231631 19.3087649,11.8349765 C19.0701626,11.4467899 18.6903523,11.1272509 18.1693227,10.8763498 C17.6482931,10.6254487 16.9836251,10.5 16.1752988,10.5 C15.3961891,10.5 14.7193477,10.6396504 14.1447543,10.9189554 C13.5701609,11.1982604 13.1294836,11.5651386 12.8227092,12.0196009 C12.5159347,12.4740633 12.3528111,12.9616562 12.3333333,13.4823944 C12.3333333,13.586542 12.3649842,13.6717524 12.4282869,13.7380282 C12.4915895,13.8043039 12.571934,13.8374413 12.6693227,13.8374413 L13.940239,13.8374413 C14.1544942,13.8374413 14.2957057,13.7285613 14.3638778,13.5107981 C14.5586552,12.5924054 15.1283707,12.133216 16.0730412,12.133216 C16.4918126,12.133216 16.8497108,12.2468298 17.1467463,12.474061 C17.4437819,12.7012922 17.57282,13.0089965 17.5338645,13.3971831 C17.5143868,13.6244143 17.4243036,13.8421742 17.2636122,14.0504695 C17.1029208,14.2587647 16.857018,14.5238638 16.5258964,14.8457746 C16.0973861,15.2623652 15.7614001,15.6410781 15.5179283,15.9819249 C15.2744565,16.3227717 15.1283756,16.7156864 15.0796813,17.1606808 C15.0699424,17.2648284 15.065073,17.4163136 15.065073,17.6151408 C15.065073,17.6908846 15.0942892,17.7571593 15.1527224,17.8139671 C15.2111557,17.8707749 15.2841961,17.8991784 15.3718459,17.8991784 Z M15.3280212,21.5 L16.7742364,21.5 C16.881364,21.5 16.9690125,21.4668626 17.0371846,21.4005869 C17.1053567,21.3343111 17.1394422,21.2538346 17.1394422,21.1591549 L17.1394422,19.8951878 C17.1394422,19.8005081 17.102922,19.7200316 17.0298805,19.6537559 C16.9568389,19.5874801 16.8716251,19.5543427 16.7742364,19.5543427 L15.3280212,19.5543427 C15.2306325,19.5543427 15.1478534,19.5874801 15.0796813,19.6537559 C15.0115092,19.7200316 14.9774236,19.8005081 14.9774236,19.8951878 L14.9774236,21.1591549 C14.9774236,21.2538346 15.0115092,21.3343111 15.0796813,21.4005869 C15.1478534,21.4668626 15.2306325,21.5 15.3280212,21.5 Z" id="Combined-Shape" fill="#DDF9B8"></path>
    </g>
</svg>