<?xml version="1.0" encoding="UTF-8"?>
<svg width="16px" height="16px" viewBox="0 0 16 16" version="1.1" xmlns="http://www.w3.org/2000/svg" xmlns:xlink="http://www.w3.org/1999/xlink">
    <!-- Generator: Sketch 54.1 (76490) - https://sketchapp.com -->
    <title>Icons/search-dark</title>
    <desc>Created with Sketch.</desc>
    <g id="Icons/search-dark" stroke="none" stroke-width="1" fill="none" fill-rule="evenodd">
        <rect id="Rectangle" fill="#D8D8D8" opacity="0" x="0" y="0" width="16" height="16"></rect>
        <path d="M11.95285,9.57123625 C11.8100022,9.80645905 11.854113,10.1570567 12.0451212,10.3480649 L15.6485281,13.9514719 C16.1171573,14.420101 16.1171573,15.179899 15.6485281,15.6485281 C15.179899,16.1171573 14.420101,16.1171573 13.9514719,15.6485281 L10.3480649,12.0451212 C10.1542571,11.8513134 9.80490321,11.8129058 9.56641409,11.9554422 C9.56641409,11.9554422 9.47812097,12.0210302 9.20089773,12.1561761 C8.35491561,12.568591 7.40448204,12.8 6.4,12.8 C2.8653776,12.8 0,9.93462241 0,6.4 C0,2.8653776 2.8653776,0 6.4,0 C9.93462241,0 12.8,2.8653776 12.8,6.4 C12.8,7.40804668 12.5669457,8.36166061 12.1517786,9.20990033 C12.0176801,9.48388085 11.95285,9.57123625 11.95285,9.57123625 Z M6.4,10.4 C8.60913901,10.4 10.4,8.60913901 10.4,6.4 C10.4,4.190861 8.60913901,2.4 6.4,2.4 C4.190861,2.4 2.4,4.190861 2.4,6.4 C2.4,8.60913901 4.190861,10.4 6.4,10.4 Z" id="Shape" fill="#728893" fill-rule="nonzero"></path>
    </g>
</svg>