<?xml version="1.0" encoding="UTF-8"?>
<svg width="42px" height="42px" viewBox="0 0 42 42" version="1.1" xmlns="http://www.w3.org/2000/svg" xmlns:xlink="http://www.w3.org/1999/xlink">
    <!-- Generator: Sketch 54.1 (76490) - https://sketchapp.com -->
    <title>Icons/Nav Bar/search</title>
    <desc>Created with Sketch.</desc>
    <g id="Icons/Nav-Bar/search" stroke="none" stroke-width="1" fill="none" fill-rule="evenodd">
        <rect id="Rectangle" fill="#D8D8D8" opacity="0" x="0" y="0" width="42" height="42"></rect>
        <path d="M24.95285,22.5712362 C24.8100022,22.806459 24.854113,23.1570567 25.0451212,23.3480649 L28.6485281,26.9514719 C29.1171573,27.420101 29.1171573,28.179899 28.6485281,28.6485281 C28.179899,29.1171573 27.420101,29.1171573 26.9514719,28.6485281 L23.3480649,25.0451212 C23.1542571,24.8513134 22.8049032,24.8129058 22.5664141,24.9554422 C22.5664141,24.9554422 22.478121,25.0210302 22.2008977,25.1561761 C21.3549156,25.568591 20.404482,25.8 19.4,25.8 C15.8653776,25.8 13,22.9346224 13,19.4 C13,15.8653776 15.8653776,13 19.4,13 C22.9346224,13 25.8,15.8653776 25.8,19.4 C25.8,20.4080467 25.5669457,21.3616606 25.1517786,22.2099003 C25.0176801,22.4838808 24.95285,22.5712362 24.95285,22.5712362 Z M19.4,24.4 C22.1614238,24.4 24.4,22.1614238 24.4,19.4 C24.4,16.6385763 22.1614238,14.4 19.4,14.4 C16.6385763,14.4 14.4,16.6385763 14.4,19.4 C14.4,22.1614238 16.6385763,24.4 19.4,24.4 Z" id="Shape" fill="#FFFFFF" fill-rule="nonzero" opacity="0.82"></path>
    </g>
</svg>