<?xml version="1.0" encoding="UTF-8"?>
<svg width="16px" height="16px" viewBox="0 0 16 16" version="1.1" xmlns="http://www.w3.org/2000/svg" xmlns:xlink="http://www.w3.org/1999/xlink">
    <!-- Generator: Sketch 52.5 (67469) - http://www.bohemiancoding.com/sketch -->
    <title>Icons/secure-payment</title>
    <desc>Created with Sketch.</desc>
    <defs>
        <linearGradient x1="50%" y1="0%" x2="50%" y2="40.4724348%" id="linearGradient-1">
            <stop stop-color="#DAD9D9" offset="0%"></stop>
            <stop stop-color="#B3B2B2" offset="100%"></stop>
        </linearGradient>
        <linearGradient x1="50%" y1="0%" x2="50%" y2="100%" id="linearGradient-2">
            <stop stop-color="#FFA133" offset="0%"></stop>
            <stop stop-color="#FFBE51" offset="100%"></stop>
        </linearGradient>
    </defs>
    <g id="Icons/secure-payment" stroke="none" stroke-width="1" fill="none" fill-rule="evenodd">
        <path d="M12.5043109,7.48156522 L12.0622304,7.48156522 L12.0622304,3.69078261 C12.0622304,1.66347826 10.4750261,0.0142608696 8.52391304,0.0142608696 C6.57263261,0.0142608696 4.98526087,1.66347826 4.98526087,3.69078261 L4.98526087,7.48156522 L4.54301304,7.48156522 C3.78205217,7.48156522 13.2652717,7.48156522 12.5043109,7.48156522 Z M6.77345435,4.26221118 C6.77345435,2.64130859 7.46507981,1.87195031 8.52408043,1.87195031 C9.58308105,1.87195031 10.2742043,2.59765625 10.2742043,4.26221118 L10.2742043,7.48156522 L6.77345435,7.48156522 L6.77345435,4.26221118 Z" id="Shape" fill="url(#linearGradient-1)" fill-rule="nonzero"></path>
        <path d="M4.71428571,7.57142857 C3.9253075,7.57142857 3.28571429,8.21102179 3.28571429,9 L3.28571429,14.2857143 C3.28571429,15.0746925 3.9253075,15.7142857 4.71428571,15.7142857 L12.2857143,15.7142857 C13.0746925,15.7142857 13.7142857,15.0746925 13.7142857,14.2857143 L13.7142857,9 C13.7142857,8.21102179 13.0746925,7.57142857 12.2857143,7.57142857 L4.71428571,7.57142857 Z" id="Rectangle" stroke="#D46E1E" stroke-width="0.571428571" fill="url(#linearGradient-2)"></path>
    </g>
</svg>