<?xml version="1.0" encoding="UTF-8"?>
<svg width="13px" height="12px" viewBox="0 0 13 12" version="1.1" xmlns="http://www.w3.org/2000/svg" xmlns:xlink="http://www.w3.org/1999/xlink">
    <!-- Generator: Sketch 52.5 (67469) - http://www.bohemiancoding.com/sketch -->
    <title>Icons/start-active</title>
    <desc>Created with Sketch.</desc>
    <g id="Icons/start-active" stroke="none" stroke-width="1" fill="none" fill-rule="evenodd">
        <path d="M2.81643353,11.9999383 C2.64028165,12.0024503 2.47213349,11.9280964 2.35767183,11.7970772 C2.24321017,11.6660581 2.19432221,11.4919805 2.22428992,11.3221381 L2.86380502,7.6994791 L0.179420664,5.1350382 C0.0176892947,4.9812274 -0.0406805766,4.75088309 0.0288830142,4.5409733 C0.098446605,4.33106351 0.283861448,4.1780466 0.507073461,4.14633809 L4.22376151,3.61722905 L5.88571123,0.322849404 C5.98548016,0.125152701 6.19130525,0 6.41666667,0 C6.64202809,0 6.84785318,0.125152701 6.9476221,0.322849404 L8.60957183,3.61722905 L12.3262599,4.14633809 C12.5494719,4.1780466 12.7348867,4.33106351 12.8044503,4.5409733 C12.8740139,4.75088309 12.815644,4.9812274 12.6539127,5.1350382 L9.96952831,7.6994791 L10.6050958,11.320207 C10.6428146,11.5373078 10.5514565,11.7565578 10.3693453,11.8859844 C10.187234,12.015411 9.94586421,12.0326308 9.74648755,11.9304204 L6.41666667,10.2233678 L3.09276721,11.9323514 C3.00764908,11.9765418 2.91279371,11.999742 2.81643353,11.9999383 Z" id="Path" fill="#FFAE04" fill-rule="nonzero"></path>
    </g>
</svg>