<?xml version="1.0" encoding="UTF-8"?>
<svg width="32px" height="32px" viewBox="0 0 32 32" version="1.1" xmlns="http://www.w3.org/2000/svg" xmlns:xlink="http://www.w3.org/1999/xlink">
    <!-- Generator: Sketch 52.5 (67469) - http://www.bohemiancoding.com/sketch -->
    <title>Icons/telephone</title>
    <desc>Created with Sketch.</desc>
    <g id="Icons/telephone" stroke="none" stroke-width="1" fill="none" fill-rule="evenodd">
        <rect id="Rectangle" fill="#D8D8D8" opacity="0" x="0" y="0" width="32" height="32"></rect>
        <path d="M16,0 C7.17775,0 0,7.17775 0,16 C0,24.82225 7.17775,32 16,32 C17.44925,32 18.88475,31.806625 20.4043125,31.375 C23.4824375,30.0136875 25.162125,26.6543125 24.418,23.3769375 L24.44925,23.3456875 C24.918,22.878875 25.1289375,21.9785 24.9199375,21.3495625 L24.8300625,21.076125 C24.619125,20.4471875 23.9238125,19.7909375 23.2831875,19.6151875 L20.918,18.96875 C20.277375,18.7949375 19.3633125,19.0293125 18.892625,19.5 L18.037125,20.3555 C14.92775,19.5136875 12.4883125,17.07425 11.6484375,13.964875 L12.5039375,13.109375 C12.9726875,12.640625 13.2070625,11.7265625 13.03325,11.084 L12.3886875,8.71875 C12.214875,8.078125 11.5546875,7.3828125 10.9258125,7.171875 L10.65625,7.082 C10.025375,6.8710625 9.125,7.0839375 8.65625,7.5546875 L7.375,8.8359375 C7.1465,9.0625 7,9.712875 7,9.714875 C6.957,13.7813125 8.5508125,17.6973125 11.4258125,20.57425 C14.293,23.4414375 18.195375,25.03325 22.2480625,24.9980625 C22.2578125,24.9980625 22.40625,24.964875 22.5820625,24.912125 C22.5938125,26.8789375 21.4785625,28.7168125 19.734375,29.496125 C18.525375,29.8300625 17.2695625,30 16,30 C8.28125,30 2,23.71875 2,16 C2,8.28125 8.28125,2 16,2 C23.71875,2 30,8.28125 30,16 C30,18.3008125 29.453125,20.5019375 28.3730625,22.5390625 C28.11525,23.027375 28.30275,23.6328125 28.7890625,23.890625 C29.2793125,24.152375 29.8828125,23.962875 30.140625,23.4765625 C31.3574375,21.1796875 32,18.59375 32,16 C32,7.17775 24.82225,0 16,0 Z" id="Path" fill-opacity="0.9" fill="#000000"></path>
    </g>
</svg>