<?xml version="1.0" encoding="UTF-8"?>
<svg width="28px" height="28px" viewBox="0 0 28 28" version="1.1" xmlns="http://www.w3.org/2000/svg" xmlns:xlink="http://www.w3.org/1999/xlink">
    <!-- Generator: Sketch 52.5 (67469) - http://www.bohemiancoding.com/sketch -->
    <title>Icons/timer</title>
    <desc>Created with Sketch.</desc>
    <g id="Icons/timer" stroke="none" stroke-width="1" fill="none" fill-rule="evenodd">
        <rect id="Rectangle" fill="#D8D8D8" opacity="0" x="0" y="0" width="28" height="28"></rect>
        <path d="M13.5113196,7.26694113 C13.745,7.26694113 13.9575258,7.26694113 13.9833814,7.26694113 C14.0090412,7.26694113 14.0301959,7.28572454 14.0301959,7.3086403 C14.0301959,7.33155606 14.0301959,7.55376383 14.0301959,7.80283187 L14.0301959,7.97939594 C14.0301959,8.22808831 13.817866,8.35262233 13.5585258,8.35262233 L13.4641134,8.35262233 C13.2047732,8.35262233 12.9924433,8.22827614 12.9924433,7.97939594 L12.9924433,7.80283187 C12.9924433,7.55395166 12.9924433,7.33155606 12.9924433,7.3086403 C12.9924433,7.28572454 13.0135979,7.26694113 13.0392577,7.26694113 C13.0651134,7.26694113 13.2778351,7.26694113 13.5113196,7.26694113 Z M12.4261649,7.0856812 C12.2183402,7.0856812 12.0483196,6.92301686 12.0483196,6.72391269 L12.0483196,6.36195635 C12.0483196,6.16285218 12.2183402,6 12.4261649,6 L14.6908866,6 C14.8987113,6 15.068732,6.16285218 15.068732,6.36195635 L15.068732,6.72391269 C15.068732,6.92282902 14.8987113,7.0856812 14.6908866,7.0856812 L12.4261649,7.0856812 Z M14.357701,8.04513788 C17.5540103,8.44315838 20.0228351,11.0617538 20.0228351,14.2350234 C20.0228351,17.68347 17.1076082,20.479193 13.5113196,20.479193 C9.91542268,20.479193 7,17.68347 7,14.2352112 C7,11.0617538 9.46902062,8.44315838 12.6649381,8.04513788 C12.6649381,8.2170061 12.8980309,8.62423047 13.5113196,8.62423047 C14.1248041,8.62423047 14.357701,8.25100407 14.357701,8.04513788 Z M13.5113196,19.212064 C16.3779691,19.212064 18.7014536,16.9839757 18.7014536,14.2350234 C18.7014536,11.4858833 16.3779691,9.25760711 13.5113196,9.25760711 C10.6446701,9.25760711 8.32118557,11.4860711 8.32118557,14.2350234 C8.32118557,16.9839757 10.6446701,19.212064 13.5113196,19.212064 Z M14.989423,14.0013746 C15.283964,14.0013746 15.5227366,14.2802964 15.5227366,14.6243638 C15.5227366,14.9684313 15.283964,15.2473531 14.989423,15.2473531 L12.8561684,15.2473531 C12.5616274,15.2473531 12.3228547,14.9684313 12.3228547,14.6243638 L12.3228547,11.5094175 C12.3228547,11.16535 12.5616274,10.8864282 12.8561684,10.8864282 C13.1507094,10.8864282 13.389482,11.16535 13.389482,11.5094175 L13.389482,14.0013746 L14.989423,14.0013746 Z" id="Combined-Shape" fill="#FFFFFF" opacity="0.6"></path>
    </g>
</svg>