<?xml version="1.0" encoding="UTF-8"?>
<svg width="28px" height="28px" viewBox="0 0 28 28" version="1.1" xmlns="http://www.w3.org/2000/svg" xmlns:xlink="http://www.w3.org/1999/xlink">
    <!-- Generator: Sketch 52.5 (67469) - http://www.bohemiancoding.com/sketch -->
    <title>Icons/timer-progress</title>
    <desc>Created with Sketch.</desc>
    <g id="Icons/timer-progress" stroke="none" stroke-width="1" fill="none" fill-rule="evenodd">
        <rect id="Rectangle" fill="#D8D8D8" opacity="0" x="0" y="0" width="28" height="28"></rect>
        <path d="M13.5113196,7.35444195 C13.745,7.35444195 13.9575258,7.35444195 13.9833814,7.35444195 C14.0090412,7.35444195 14.0301959,7.37452264 14.0301959,7.39902107 C14.0301959,7.4235195 14.0301959,7.66107396 14.0301959,7.92734379 L14.0301959,8.1161022 C14.0301959,8.38197042 13.817866,8.51510533 13.5585258,8.51510533 L13.4641134,8.51510533 C13.2047732,8.51510533 12.9924433,8.38217122 12.9924433,8.1161022 L12.9924433,7.92734379 C12.9924433,7.66127476 12.9924433,7.4235195 12.9924433,7.39902107 C12.9924433,7.37452264 13.0135979,7.35444195 13.0392577,7.35444195 C13.0651134,7.35444195 13.2778351,7.35444195 13.5113196,7.35444195 Z M12.4261649,7.16066338 C12.2183402,7.16066338 12.0483196,6.98676468 12.0483196,6.77390946 L12.0483196,6.38695473 C12.0483196,6.17409951 12.2183402,6 12.4261649,6 L14.6908866,6 C14.8987113,6 15.068732,6.17409951 15.068732,6.38695473 L15.068732,6.77390946 C15.068732,6.98656387 14.8987113,7.16066338 14.6908866,7.16066338 L12.4261649,7.16066338 Z M14.357701,8.18638458 C17.5540103,8.61189422 20.0228351,11.411342 20.0228351,14.8037723 C20.0228351,18.4903846 17.1076082,21.4791932 13.5113196,21.4791932 C9.91542268,21.4791932 7,18.4903846 7,14.8039731 C7,11.411342 9.46902062,8.61189422 12.6649381,8.18638458 C12.6649381,8.37012281 12.8980309,8.80547199 13.5113196,8.80547199 C14.1248041,8.80547199 14.357701,8.40646885 14.357701,8.18638458 Z M13.5113196,20.1245504 C16.3779691,20.1245504 18.7014536,17.74258 18.7014536,14.8037723 C18.7014536,11.8647638 16.3779691,9.48259256 13.5113196,9.48259256 C10.6446701,9.48259256 8.32118557,11.8649646 8.32118557,14.8037723 C8.32118557,17.74258 10.6446701,20.1245504 13.5113196,20.1245504 Z M14.989423,14.5539866 C15.283964,14.5539866 15.5227366,14.852172 15.5227366,15.2200024 C15.5227366,15.5878327 15.283964,15.8860182 14.989423,15.8860182 L12.8561684,15.8860182 C12.5616274,15.8860182 12.3228547,15.5878327 12.3228547,15.2200024 L12.3228547,11.8899234 C12.3228547,11.522093 12.5616274,11.2239076 12.8561684,11.2239076 C13.1507094,11.2239076 13.389482,11.522093 13.389482,11.8899234 L13.389482,14.5539866 L14.989423,14.5539866 Z" id="Combined-Shape" fill="#718894"></path>
    </g>
</svg>