<?xml version="1.0" encoding="UTF-8"?>
<svg width="16px" height="16px" viewBox="0 0 16 16" version="1.1" xmlns="http://www.w3.org/2000/svg" xmlns:xlink="http://www.w3.org/1999/xlink">
    <!-- Generator: Sketch 52.5 (67469) - http://www.bohemiancoding.com/sketch -->
    <title>Icons/timer-small</title>
    <desc>Created with Sketch.</desc>
    <g id="Icons/timer-small" stroke="none" stroke-width="1" fill="none" fill-rule="evenodd">
        <rect id="Rectangle" fill="#D8D8D8" opacity="0" x="0" y="0" width="16" height="16"></rect>
        <path d="M14.793309,3.52655363 C15.0647078,3.78632473 15.0647078,4.20586479 14.793309,4.46563589 L13.7153393,5.4946303 C15.7705301,8.26011532 15.3170326,12.0527921 12.6614674,14.3083395 C10.0059023,16.5638868 5.99409771,16.5638868 3.33853256,14.3083395 C0.682967409,12.0527921 0.229469892,8.26011532 2.28466073,5.4946303 L1.20669105,4.46563589 C0.96885398,4.20138728 0.984844699,3.80748297 1.24339576,3.56147735 C1.50194683,3.31547173 1.91593891,3.30025691 2.19366329,3.52655363 L3.20513485,4.48561637 C4.32461086,3.4749473 5.7647348,2.84603947 7.30001969,2.69736396 L7.30001969,1.33203159 L5.90005906,1.33203159 C5.5134706,1.33203159 5.20007874,1.03384616 5.20007874,0.666015793 C5.20007874,0.298185428 5.5134706,2.13162821e-14 5.90005906,2.13162821e-14 L10.0999409,2.13162821e-14 C10.4865294,2.13162821e-14 10.7999213,0.298185428 10.7999213,0.666015793 C10.7999213,1.03384616 10.4865294,1.33203159 10.0999409,1.33203159 L8.69998031,1.33203159 L8.69998031,2.69736396 C10.2352652,2.84603947 11.6753891,3.4749473 12.7948652,4.48561637 L13.8063367,3.52655363 C14.0793552,3.26832359 14.5202904,3.26832359 14.793309,3.52655363 Z M8,14.6523475 C9.48517058,14.6523475 10.9095124,14.0909929 11.9596866,13.0917754 C13.0098608,12.0925579 13.5998425,10.7373281 13.5998425,9.32422111 C13.5998425,6.38157818 11.0927076,3.99609476 8,3.99609476 C4.90729238,3.99609476 2.40015748,6.38157818 2.40015748,9.32422111 C2.40015748,12.266864 4.90729238,14.6523475 8,14.6523475 Z M10.7999213,8.65820531 C11.1865097,8.65820531 11.4999016,8.95639074 11.4999016,9.32422111 C11.4999016,9.69205147 11.1865097,9.9902369 10.7999213,9.9902369 L8,9.9902369 C7.61341155,9.9902369 7.30001969,9.69205147 7.30001969,9.32422111 L7.30001969,5.99414214 C7.30001969,5.62631177 7.61341155,5.32812635 8,5.32812635 C8.38658845,5.32812635 8.69998031,5.62631177 8.69998031,5.99414214 L8.69998031,8.65820531 L10.7999213,8.65820531 Z" id="Combined-Shape" fill="#D90537" fill-rule="nonzero"></path>
    </g>
</svg>