<?xml version="1.0" encoding="UTF-8"?>
<svg width="24px" height="24px" viewBox="0 0 24 24" version="1.1" xmlns="http://www.w3.org/2000/svg" xmlns:xlink="http://www.w3.org/1999/xlink">
    <!-- Generator: Sketch 52.5 (67469) - http://www.bohemiancoding.com/sketch -->
    <title>Icons/Social/twitter</title>
    <desc>Created with Sketch.</desc>
    <g id="Icons/Social/twitter" stroke="none" stroke-width="1" fill="none" fill-rule="evenodd">
        <path d="M0,12 C0,5.37258267 5.37258267,0 12,0 C18.6274173,0 24,5.37258267 24,12 C24,18.6274173 18.6274173,24 12,24 C5.37258267,24 0,18.6274173 0,12 Z" id="back" fill="#55ACEE"></path>
        <path d="M12.6406013,10.5537503 L12.6657826,10.9689774 L12.246095,10.9181333 C10.7184321,10.7232308 9.38382555,10.062257 8.25066904,8.95216018 L7.69668141,8.40134875 L7.55398763,8.8081018 C7.25181256,9.71482215 7.44486885,10.6723866 8.07440025,11.3164123 C8.41015033,11.6723212 8.33460656,11.7231653 7.75543768,11.5113148 C7.55398763,11.4435226 7.37771884,11.3926785 7.36093133,11.4181005 C7.30217507,11.4774187 7.50362512,12.2485547 7.6631064,12.5536195 C7.88134395,12.9773206 8.32621281,13.3925476 8.81305042,13.6382943 L9.22434427,13.8331968 L8.73750665,13.8416708 C8.26745654,13.8416708 8.25066904,13.8501448 8.30103155,14.0280993 C8.46890659,14.5789107 9.132013,15.1636182 9.87066317,15.4178389 L10.3910758,15.5957933 L9.93781318,15.866962 C9.26631303,16.256767 8.47730034,16.4770916 7.68828766,16.4940397 C7.31056882,16.5025137 7,16.5364098 7,16.5618318 C7,16.6465721 8.02403774,17.1211173 8.61999413,17.3075458 C10.4078633,17.8583572 12.5314825,17.6210846 14.1262954,16.6804681 C15.2594519,16.0110204 16.3926084,14.680599 16.9214148,13.3925476 C17.2068024,12.7061519 17.4921899,11.4519966 17.4921899,10.8503411 C17.4921899,10.4605361 17.5173712,10.4096919 17.9874213,9.94362074 C18.2644151,9.67245204 18.5246214,9.37586127 18.5749839,9.29112105 C18.6589215,9.13011464 18.6505277,9.13011464 18.2224464,9.27417301 C17.5089774,9.52839366 17.4082524,9.49449758 17.76079,9.11316659 C18.0209963,8.84199789 18.3315651,8.35050462 18.3315651,8.20644625 C18.3315651,8.18102418 18.2056589,8.22339429 18.0629651,8.29966049 C17.9118775,8.38440071 17.5761275,8.51151104 17.3243149,8.58777724 L16.8710523,8.73183561 L16.4597585,8.45219288 C16.2331271,8.29966049 15.9141646,8.13018005 15.7462895,8.07933592 C15.3182082,7.96069962 14.6634955,7.97764766 14.2773829,8.11323201 C13.2281639,8.49456299 12.5650575,9.47754953 12.6406013,10.5537503 Z" id="Shape" fill="#FFFFFF"></path>
    </g>
</svg>