<?xml version="1.0" encoding="UTF-8"?>
<svg width="50px" height="24px" viewBox="0 0 50 24" version="1.1" xmlns="http://www.w3.org/2000/svg" xmlns:xlink="http://www.w3.org/1999/xlink">
    <!-- Generator: Sketch 52.5 (67469) - http://www.bohemiancoding.com/sketch -->
    <title>Icons/Social/Youtube</title>
    <desc>Created with Sketch.</desc>
    <defs>
        <linearGradient x1="87.5040593%" y1="0%" x2="19.2162696%" y2="100%" id="linearGradient-1">
            <stop stop-color="#EA4534" offset="0%"></stop>
            <stop stop-color="#D03832" offset="100%"></stop>
        </linearGradient>
    </defs>
    <g id="Icons/Social/Youtube" stroke="none" stroke-width="1" fill="none" fill-rule="evenodd">
        <path d="M49.6713462,5.567151 C49.6713462,5.567151 49.3803205,3.52498575 48.4878704,2.62584046 C47.3561752,1.44578348 46.0871581,1.43987179 45.505463,1.37064103 C41.3402208,1.07121083 35.0924288,1.07121083 35.0924288,1.07121083 L35.0794658,1.07121083 C35.0794658,1.07121083 28.8311752,1.07121083 24.6661467,1.37064103 C24.0840954,1.43987179 22.8158618,1.44578348 21.6835969,2.62584046 C20.7911467,3.52498575 20.5007621,5.567151 20.5007621,5.567151 C20.5007621,5.567151 20.2030413,7.96480057 20.2030413,10.3628063 L20.2030413,12.6110256 C20.2030413,15.008604 20.5007621,17.406396 20.5007621,17.406396 C20.5007621,17.406396 20.7911467,19.44849 21.6835969,20.3476353 C22.8158618,21.5279772 24.3033974,21.4906553 24.9655769,21.6139459 C27.3468447,21.8418661 35.0858048,21.9120228 35.0858048,21.9120228 C35.0858048,21.9120228 41.3402208,21.9025499 45.505463,21.6030484 C46.0871581,21.5339601 47.3561752,21.5279772 48.4878704,20.3476353 C49.3803205,19.44849 49.6713462,17.406396 49.6713462,17.406396 C49.6713462,17.406396 49.9684972,15.008604 49.9684972,12.6110256 L49.9684972,10.3628063 C49.9684972,7.96480057 49.6713462,5.567151 49.6713462,5.567151 L49.6713462,5.567151 Z" id="Combined-Shape" fill="url(#linearGradient-1)"></path>
        <g id="Group-3" transform="translate(22.156695, 4.043091)">
            <polygon id="Path" fill="#FFFFFF" points="4.60646011 13.8821795 2.59876781 13.8821795 2.59876781 2.39564103 0.475762108 2.39564103 0.475762108 0.513518519 6.76828348 0.513518519 6.76828348 2.39564103 4.60646011 2.39564103"></polygon>
            <path d="M11.723198,13.8821795 L9.91771368,13.8821795 L9.91771368,12.7957123 C9.19948006,13.6185043 8.51828348,14.0192877 7.85496439,14.0192877 C7.27284188,14.0192877 6.87262821,13.7833903 6.69185897,13.2786182 C6.5930698,12.9769088 6.53288462,12.5006268 6.53288462,11.7970655 L6.53288462,3.92121083 L8.33694444,3.92121083 L8.33694444,11.2547578 C8.33694444,11.6776923 8.33694444,11.8976353 8.35368234,11.9566097 C8.39791311,12.2361681 8.53509259,12.3789744 8.77569088,12.3789744 C9.1385114,12.3789744 9.5166453,12.0998433 9.91771368,11.5343875 L9.91771368,3.92121083 L11.723198,3.92121083 L11.723198,13.8821795 Z" id="Path" fill="#FFFFFF"></path>
            <path d="M18.5799644,10.892792 C18.5799644,11.8140883 18.5182835,12.4778348 18.3978419,12.8999858 C18.1569587,13.640584 17.6739815,14.0192877 16.9553917,14.0192877 C16.3137251,14.0192877 15.6929274,13.6630912 15.0899359,12.9169373 L15.0899359,13.8821795 L13.2855199,13.8821795 L13.2855199,0.513518519 L15.0899359,0.513518519 L15.0899359,4.87975783 C15.6726282,4.16252137 16.2915741,3.7998433 16.9553917,3.7998433 C17.6739815,3.7998433 18.1569587,4.17797721 18.3978419,4.92405983 C18.5182835,5.3245584 18.5799644,5.98317664 18.5799644,6.92655271 L18.5799644,10.892792 Z" id="Path" fill="#FFFFFF"></path>
            <path d="M25.2920014,9.23061254 L21.6831695,9.23061254 L21.6831695,10.9964245 C21.6831695,11.9181481 21.9847365,12.3789744 22.6044658,12.3789744 C23.0485541,12.3789744 23.3075285,12.1371652 23.4105199,11.6548291 C23.4271866,11.5564672 23.4506197,11.1559687 23.4506197,10.4317521 L25.2920014,10.4317521 L25.2920014,10.6954274 C25.2920014,11.2769088 25.2697792,11.6776923 25.2537536,11.8583903 C25.1929274,12.2583191 25.0511182,12.6202849 24.831745,12.9395157 C24.332386,13.6630912 23.5920014,14.0192877 22.6491239,14.0192877 C21.7052493,14.0192877 20.9865171,13.6794729 20.4647222,12.9989886 C20.0814601,12.5006268 19.8847365,11.7152279 19.8847365,10.6568234 L19.8847365,7.16793447 C19.8847365,6.10333333 20.0590954,5.3245584 20.4425712,4.8208547 C20.9644373,4.13915954 21.6831695,3.7998433 22.6044658,3.7998433 C23.5097365,3.7998433 24.2281838,4.13915954 24.7340954,4.8208547 C25.111161,5.3245584 25.2920014,6.10333333 25.2920014,7.16793447 L25.2920014,9.23061254 Z" id="Path" fill="#FFFFFF"></path>
            <path d="M22.5875997,5.42442308 C21.9847507,5.42442308 21.6831838,5.88489316 21.6831838,6.80590456 L21.6831838,7.72841168 L23.487386,7.72841168 L23.487386,6.80590456 C23.487386,5.88489316 23.1858903,5.42442308 22.5875997,5.42442308" id="Fill-3" fill="url(#linearGradient-1)"></path>
            <path d="M15.9898219,5.42442308 C15.6928846,5.42442308 15.3916738,5.56537749 15.0898932,5.86331197 L15.0898932,11.9347507 C15.3916738,12.2361752 15.6928846,12.3789815 15.9898219,12.3789815 C16.5103348,12.3789815 16.775292,11.9347507 16.775292,11.0348219 L16.775292,6.78403846 C16.775292,5.88489316 16.5103348,5.42442308 15.9898219,5.42442308" id="Fill-1" fill="url(#linearGradient-1)"></path>
        </g>
        <path d="M16.8170442,17.9512607 L16.8170442,16.8535399 C16.0911895,17.6857336 15.3988818,18.0899359 14.7329274,18.0899359 C14.146104,18.0899359 13.7408333,17.851688 13.5587821,17.3420014 C13.4583547,17.0369444 13.396745,16.556104 13.396745,15.845349 L13.396745,7.88509259 L15.2154772,7.88509259 L15.2154772,15.2966311 C15.2154772,15.7241239 15.2154772,15.9464174 15.2372721,16.0058191 C15.277443,16.2882977 15.4207479,16.4326709 15.6657621,16.4326709 C16.0303632,16.4326709 16.4129843,16.1504772 16.8170442,15.5789672 L16.8170442,7.88509259 L18.6409046,7.88509259 L18.6409046,17.9512607 L16.8170442,17.9512607 Z M10.1713177,10.8011182 C10.1713177,9.86963675 9.88948006,9.40524929 9.30137464,9.40524929 C8.71341168,9.40524929 8.4310755,9.86963675 8.4310755,10.8011182 L8.4310755,15.0356624 C8.4310755,15.9670014 8.71341168,16.4326709 9.30137464,16.4326709 C9.88948006,16.4326709 10.1713177,15.9670014 10.1713177,15.0356624 L10.1713177,10.8011182 Z M11.4297934,17.0595228 C10.9253063,17.7459188 10.2152635,18.0899359 9.30137464,18.0899359 C8.39282764,18.0899359 7.68228632,17.7459188 7.17844017,17.0595228 C6.79047721,16.556104 6.60714387,15.7622293 6.60714387,14.6925 L6.60714387,11.1670014 C6.60714387,10.0910755 6.79047721,9.30439459 7.17844017,8.79584758 C7.68228632,8.10759972 8.39282764,7.76393875 9.30137464,7.76393875 C10.2152635,7.76393875 10.9253063,8.10759972 11.4297934,8.79584758 C11.8118447,9.30439459 11.9958191,10.0910755 11.9958191,11.1670014 L11.9958191,14.6925 C11.9958191,15.7622293 11.8118447,16.556104 11.4297934,17.0595228 L11.4297934,17.0595228 Z M4.5557906,12.4805342 L4.5557906,17.9512607 L2.53314103,17.9512607 L2.53314103,12.4805342 C2.34973647,11.5116595 1.94503561,10.0910755 1.29681624,8.20688746 C0.869893162,6.95403846 0.426160969,5.69599003 2.13675212e-05,4.44342593 L2.12829772,4.44342593 L3.56405271,9.74791311 L4.94375356,4.44342593 L6.98883903,4.44342593 L4.5557906,12.4805342 Z" id="Fill-8" fill="#FFFFFF"></path>
    </g>
</svg>