<?xml version="1.0" encoding="UTF-8"?>
<svg width="44px" height="44px" viewBox="0 0 44 44" version="1.1" xmlns="http://www.w3.org/2000/svg" xmlns:xlink="http://www.w3.org/1999/xlink">
    <!-- Generator: Sketch 52.5 (67469) - http://www.bohemiancoding.com/sketch -->
    <title>Icons/Banners/last sold</title>
    <desc>Created with Sketch.</desc>
    <g id="Icons/Banners/last-sold" stroke="none" stroke-width="1" fill="none" fill-rule="evenodd">
        <rect id="Rectangle" fill="#D8D8D8" opacity="0" x="0" y="0" width="44" height="44"></rect>
        <path d="M27.9983947,12.0125186 C28.3573249,12.0125186 28.6837618,12.0125186 28.7234758,12.0125186 C28.7628889,12.0125186 28.7953821,12.0423558 28.7953821,12.0787572 C28.7953821,12.1151586 28.7953821,12.4681326 28.7953821,12.8637738 L28.7953821,13.1442434 C28.7953821,13.5392878 28.4692461,13.7371084 28.0709028,13.7371084 L27.9258866,13.7371084 C27.5275434,13.7371084 27.2014073,13.5395862 27.2014073,13.1442434 L27.2014073,12.8637738 C27.2014073,12.468431 27.2014073,12.1151586 27.2014073,12.0787572 C27.2014073,12.0423558 27.2339006,12.0125186 27.2733137,12.0125186 C27.3130277,12.0125186 27.6397654,12.0125186 27.9983947,12.0125186 Z M26.331611,11.7245897 C26.0123948,11.7245897 25.7512453,11.4661996 25.7512453,11.1499254 L25.7512453,10.5749627 C25.7512453,10.2586885 26.0123948,10 26.331611,10 L29.8101947,10 C30.1294109,10 30.3905604,10.2586885 30.3905604,10.5749627 L30.3905604,11.1499254 C30.3905604,11.4659013 30.1294109,11.7245897 29.8101947,11.7245897 L26.331611,11.7245897 Z M29.2984259,13.2486735 C34.2079165,13.8809237 38,18.0405267 38,23.081222 C38,28.5590322 33.5222486,33 27.9983947,33 C22.4751426,33 17.9970903,28.5590322 17.9970903,23.0815204 C17.9970903,18.0405267 21.7894747,13.8809237 26.6983636,13.2486735 C26.6983636,13.5216839 27.0563911,14.1685542 27.9983947,14.1685542 C28.9406992,14.1685542 29.2984259,13.5756892 29.2984259,13.2486735 Z M27.9983947,30.987183 C32.401532,30.987183 35.9703748,27.4478952 35.9703748,23.081222 C35.9703748,18.7142505 32.401532,15.1746643 27.9983947,15.1746643 C23.5952574,15.1746643 20.0264146,18.7145489 20.0264146,23.081222 C20.0264146,27.4478952 23.5952574,30.987183 27.9983947,30.987183 Z M30.2687428,22.710074 C30.7211541,22.710074 31.0879058,23.1531375 31.0879058,23.699684 C31.0879058,24.2462304 30.7211541,24.6892939 30.2687428,24.6892939 L26.9920908,24.6892939 C26.5396796,24.6892939 26.1729278,24.2462304 26.1729278,23.699684 L26.1729278,18.7516343 C26.1729278,18.2050878 26.5396796,17.7620244 26.9920908,17.7620244 C27.444502,17.7620244 27.8112538,18.2050878 27.8112538,18.7516343 L27.8112538,22.710074 L30.2687428,22.710074 Z M6,23.2896446 C6,22.8782438 6.32613603,22.5413608 6.72478017,22.5413608 L12.9282846,22.5413608 C13.3266279,22.5413608 13.6530648,22.8782438 13.6530648,23.2896446 C13.6530648,23.700735 13.3266279,24.037618 12.9282846,24.037618 L6.72478017,24.037618 C6.32613603,24.037618 6,23.700735 6,23.2896446 Z M10.3483801,15.8043226 C10.3483801,15.3929218 10.6745162,15.0563493 11.0731603,15.0563493 L15.5566282,15.0563493 C15.9552723,15.0563493 16.2814083,15.3929218 16.2814083,15.8043226 C16.2814083,16.2157235 15.9552723,16.5522959 15.5566282,16.5522959 L11.0731603,16.5522959 C10.6745162,16.5522959 10.3483801,16.2157235 10.3483801,15.8043226 Z M10.3483801,30.762547 C10.3483801,30.3511461 10.6745162,30.0145737 11.0731603,30.0148842 L15.5566282,30.0148842 C15.9552723,30.0148842 16.2814083,30.3514566 16.2814083,30.762547 C16.2814083,31.1742583 15.9552723,31.5105203 15.5566282,31.5105203 L11.0731603,31.5105203 C10.6745162,31.5105203 10.3483801,31.1742583 10.3483801,30.762547 Z M7.59457654,27.0978193 C7.59457654,26.6864184 7.92041171,26.349846 8.31935671,26.349846 L13.595299,26.349846 C13.9936423,26.349846 14.3197783,26.6864184 14.3197783,27.0978193 C14.3197783,27.5089096 13.9936423,27.8454821 13.595299,27.8454821 L8.31905584,27.8454821 C7.92041171,27.8454821 7.59457654,27.5089096 7.59457654,27.0978193 Z M7.59457654,19.498547 C7.59457654,19.0874566 7.92041171,18.7508842 8.31935671,18.7505737 L13.595299,18.7505737 C13.9936423,18.7505737 14.3197783,19.0874566 14.3197783,19.498547 C14.3197783,19.9099478 13.9936423,20.2465203 13.595299,20.2465203 L8.31905584,20.2465203 C7.92041171,20.2465203 7.59457654,19.9099478 7.59457654,19.498547 Z" id="Combined-Shape" fill="#718894"></path>
    </g>
</svg>