<?xml version="1.0" encoding="UTF-8"?>
<svg width="44px" height="44px" viewBox="0 0 44 44" version="1.1" xmlns="http://www.w3.org/2000/svg" xmlns:xlink="http://www.w3.org/1999/xlink">
    <!-- Generator: Sketch 52.5 (67469) - http://www.bohemiancoding.com/sketch -->
    <title>Icons/Banners/news</title>
    <desc>Created with Sketch.</desc>
    <g id="Icons/Banners/news" stroke="none" stroke-width="1" fill="none" fill-rule="evenodd">
        <rect id="Rectangle" fill="#D8D8D8" opacity="0" x="0" y="0" width="44" height="44"></rect>
        <g id="noun_Megaphone_22205_000000" transform="translate(23.000000, 22.500000) scale(-1, 1) translate(-23.000000, -22.500000) translate(6.000000, 11.000000)" stroke="#718894" stroke-linecap="round" stroke-linejoin="round" stroke-width="1.6">
            <path d="M12.8867727,1.4855 C12.8709318,1.483625 12.8597273,1.482125 12.8597273,1.482125 C12.8705455,1.482125 12.8782727,1.484375 12.8867727,1.4855 Z" id="Path" fill="#718894"></path>
            <ellipse id="Oval" cx="13.6907955" cy="10.302125" rx="2.42134091" ry="9.22275"></ellipse>
            <path d="M28.7017955,6.181625 L28.7017955,6.170375 C20.3173182,6.170375 16.6418409,2.93375 14.6312045,1.52375 C14.4067273,1.365875 14.2251364,1.26575 14.0814091,1.19975 C15.2335455,1.9115 16.1121364,5.71475 16.1121364,10.302125 C16.1121364,15.3965 15.0283864,19.525625 13.6904091,19.525625 C13.6904091,19.525625 14.0068409,19.584125 14.6393182,19.1405 C16.6476364,17.7305 20.3161591,14.432375 28.7014091,14.432375 C29.2141136,14.432375 29.6282955,12.585875 29.6282955,10.308125 C29.6290682,8.02925 29.2145,6.181625 28.7017955,6.181625 Z" id="Path"></path>
            <path d="M13.7186136,1.08125 C13.7016136,1.079375 13.6907955,1.079375 13.6907955,1.079375 C13.7004545,1.079375 13.7089545,1.080125 13.7186136,1.08125 Z" id="Path"></path>
            <path d="M31.2985455,6.394625 L29.1437955,6.394625 C29.4343409,7.18175 29.6290682,8.637875 29.6290682,10.308875 C29.6290682,11.969375 29.4355,13.417625 29.1480455,14.20625 L29.1480455,14.20925 L31.2985455,14.20925 C32.75475,14.20925 33.9343182,12.459125 33.9343182,10.3025 C33.9343182,8.145125 32.7543636,6.394625 31.2985455,6.394625 Z" id="Path"></path>
            <path d="M27.3924091,14.532125 L24.7616591,14.8685 C24.7616591,15.5165 24.0128864,15.5165 24.0128864,16.162625 C24.0128864,16.812875 24.7616591,16.812875 24.7616591,17.45975 C24.7616591,18.1085 24.0128864,18.1085 24.0128864,18.758 C24.0128864,19.4045 24.7616591,19.4045 24.7616591,20.052125 C24.7616591,20.70125 24.0128864,20.70125 24.0128864,21.34925 C24.0128864,21.849875 24.7616591,22.170875 24.7616591,22.170875 C24.7616591,22.170875 26.5041591,23.108 27.3271136,22.64675 C28.4726818,22.00325 27.3924091,14.532125 27.3924091,14.532125 Z" id="Path"></path>
            <path d="M6.65618182,10.650875 L0.0656818182,10.650875" id="Path"></path>
            <path d="M7.075,7.093625 L3.51127273,4.248125" id="Path"></path>
            <path d="M7.075,14.20625 L3.49968182,17.06075" id="Path"></path>
        </g>
    </g>
</svg>