<?xml version="1.0" encoding="UTF-8"?>
<svg width="44px" height="44px" viewBox="0 0 44 44" version="1.1" xmlns="http://www.w3.org/2000/svg" xmlns:xlink="http://www.w3.org/1999/xlink">
    <!-- Generator: Sketch 52.5 (67469) - http://www.bohemiancoding.com/sketch -->
    <title>Icons/Banners/users</title>
    <desc>Created with Sketch.</desc>
    <g id="Icons/Banners/users" stroke="none" stroke-width="1" fill="none" fill-rule="evenodd">
        <rect id="Rectangle" fill="#D8D8D8" opacity="0" x="0" y="0" width="44" height="44"></rect>
        <path d="M29.6520737,14.9559674 C29.6890756,14.6731966 29.7081865,14.3882933 29.7081865,14.1097875 C29.7081865,10.2303258 26.2609108,7.04094419 22.0089455,7 C19.5847113,7.02431061 17.3540255,8.06582837 15.8881811,9.85798956 C14.6711846,11.3460549 14.1373001,13.1582616 14.3837083,14.9448783 L14.5565194,16.4167365 C13.8262402,16.9519965 13.3517213,17.9167439 13.3517213,18.9915288 C13.3517213,20.3874697 14.1385199,21.5616295 15.2014096,21.9045371 C15.6576308,24.0063387 16.7619951,25.7541437 18.2270263,26.8711523 L18.1652209,27.672123 C18.0973163,27.6853445 18.0298184,27.7045371 17.9647601,27.7365247 L17.3792356,28.0278256 C16.8067227,28.3165674 16.1459745,28.5370689 15.2998102,28.7225972 C13.3185145,29.1542172 11.5519111,31.5800181 10,36 L34,36 C32.3475197,31.556987 30.5935213,29.1313283 28.7380049,28.7230238 C27.8910274,28.5374954 27.2302792,28.3169939 26.6537002,28.0261196 L26.0714286,27.7369512 C26.0063703,27.7045371 25.9392789,27.685771 25.871781,27.6725495 L25.8099756,26.8702993 C27.2754134,25.7532907 28.3797777,24.0054857 28.8359989,21.9045371 C29.8988886,21.5616295 30.6848739,20.3874697 30.6848739,18.9915288 C30.6848739,17.9197294 30.2107617,16.954982 29.482109,16.418016 C29.5121984,16.1540113 29.5402548,15.8929921 29.5735972,15.6217369 C29.5975874,15.3986764 29.6256438,15.1717773 29.6520737,14.9559674 Z M17.1230686,10.9690271 C18.2831391,9.55048165 20.0693955,8.72562688 22.0093521,8.70600779 C25.3578205,8.73799544 28.0821361,11.162659 28.0821361,14.1097875 C28.0821361,14.2134275 28.0679046,14.322612 28.0605855,14.4292374 C26.8313906,13.9656298 25.786392,13.1130524 25.0109786,11.9141555 C25.0040661,11.9034929 24.9951206,11.8953894 24.9878016,11.8851533 C24.9703172,11.8608427 24.9520195,11.8378116 24.9320954,11.815207 C24.9129845,11.7938819 24.8934671,11.7734098 24.8727297,11.7546437 C24.862971,11.7456872 24.8556519,11.7350246 24.8454866,11.7269211 C24.8353212,11.7183911 24.823936,11.713273 24.8133641,11.7051695 C24.790187,11.6876829 24.7666034,11.6714758 24.7422066,11.6565483 C24.7190295,11.6424737 24.6958525,11.6296787 24.6714557,11.6181631 C24.6486853,11.6075006 24.6255083,11.5981175 24.601518,11.5895875 C24.5750881,11.5802044 24.5486582,11.5716744 24.5218216,11.5648504 C24.4974248,11.5588793 24.4734345,11.5546143 24.4486311,11.5512023 C24.4222011,11.5473638 24.3961778,11.5443783 24.3697479,11.5435253 C24.3429114,11.5422458 24.3164814,11.5430988 24.2896449,11.5448048 C24.265248,11.5465108 24.2408512,11.5486433 24.2168609,11.5524818 C24.1892112,11.5567468 24.161968,11.5631443 24.1343182,11.5708214 C24.110328,11.5772189 24.087151,11.5844694 24.063974,11.593426 C24.0383573,11.6032355 24.0135538,11.6143246 23.9887503,11.6266931 C23.9639469,11.6390617 23.9399566,11.6527098 23.916373,11.6676373 C23.9049878,11.6748879 23.8927894,11.6795794 23.8814042,11.6872564 C23.8704256,11.6949335 23.8618867,11.7051695 23.8513147,11.7136995 C23.8297642,11.7307596 23.8090268,11.7490992 23.7886961,11.7687183 C23.7671456,11.7896169 23.7468149,11.810942 23.7281106,11.8335466 C23.7199783,11.8433561 23.7102196,11.8506067 23.7024939,11.8608427 C22.450122,13.5054342 21.0359176,14.6749026 19.4989157,15.3359806 L17.8383031,15.8435179 C17.4308756,15.9198618 17.0116563,15.963365 16.5936568,15.9740275 C16.4371103,15.977013 16.2895094,15.9740275 16.1427216,15.9697625 L15.9955272,14.7175528 C15.8158037,13.4090448 16.2159122,12.0775057 17.1230686,10.9690271 Z M28.4049878,30.3923524 C29.6042288,30.6562149 30.877338,32.5254308 32.2243155,36 L31.1719978,36 L11.6260504,36 C12.7987259,32.5879844 14.1339116,30.7189107 15.6316075,30.3927789 C16.610328,30.1782484 17.3894009,29.9155232 18.0798319,29.5674976 L18.0904039,29.5619531 C18.1217132,29.6566365 18.167254,29.7466284 18.2290594,29.8251048 L20.4577121,32.6626223 C20.830984,33.1377454 21.3811331,33.4192367 21.9678775,33.4350173 C21.9849553,33.4354438 22.0020331,33.4354438 22.0187043,33.4354438 C22.587151,33.4354438 23.1303876,33.1846606 23.539035,32.712523 L25.8087558,29.8251048 C25.8705611,29.7462019 25.9156953,29.6566365 25.9474112,29.5619531 L25.9539171,29.5653651 C26.647601,29.9155232 27.4266739,30.1782484 28.4049878,30.3923524 Z M24.3437246,29.0075006 L22.3102467,31.5955144 C22.2049336,31.7166409 22.072784,31.731142 22.0085389,31.729436 C21.9410409,31.72773 21.8133641,31.7055519 21.7129303,31.5784543 L19.6936839,29.0075006 L19.7900515,27.7612619 C20.4930876,28.0406206 21.2408512,28.1979999 22.0166712,28.1979999 C22.7941176,28.1979999 23.5431011,28.0406206 24.247357,27.7604089 L24.3437246,29.0075006 Z M28.2244511,20.3017428 C28.1980211,20.2991838 28.1719978,20.3013163 28.1455679,20.3013163 C28.131743,20.3013163 28.1175115,20.3000368 28.1036866,20.3008898 C28.0565194,20.3034488 28.0097587,20.3106993 27.9642179,20.3222149 C27.960965,20.3230679 27.9573055,20.3230679 27.9540526,20.3239209 C27.8540255,20.350364 27.759691,20.3959997 27.6763351,20.4595485 C27.6682028,20.465946 27.6608837,20.4736231 27.653158,20.4800206 C27.6222554,20.5051842 27.5921659,20.5316273 27.5649227,20.5614825 C27.5523177,20.5751305 27.5417457,20.5904846 27.5299539,20.6049857 C27.5096232,20.6305758 27.4896991,20.6557394 27.4722147,20.6838885 C27.4604229,20.7026546 27.4510708,20.7222737 27.4404988,20.7418928 C27.4262673,20.7687624 27.412849,20.7960585 27.4014638,20.8250607 C27.3925183,20.8472388 27.3856059,20.8698434 27.3786934,20.893301 C27.3734074,20.9107876 27.3660884,20.9265681 27.3616156,20.9444812 C27.3587693,20.9568498 27.3587693,20.9687918 27.3563296,20.9811604 C27.3538899,20.9935289 27.3490106,21.0050445 27.3469775,21.0178395 C26.8748983,24.1385543 24.5828138,26.4919921 22.0162646,26.4919921 C19.4517484,26.4919921 17.1621036,24.1385543 16.6896178,21.0178395 C16.6879913,21.0058975 16.6835186,20.9956614 16.6810789,20.9841459 C16.6790458,20.9726303 16.6790458,20.9611148 16.6766061,20.9495992 C16.6721334,20.9308331 16.6644077,20.9137731 16.6587151,20.8954335 C16.6518027,20.8724024 16.6452968,20.8497978 16.6367579,20.8276197 C16.6249661,20.797338 16.6107346,20.7687624 16.5956899,20.7406133 C16.5863378,20.7227002 16.5777989,20.7047871 16.5672269,20.687727 C16.5464896,20.6544599 16.5233126,20.6241782 16.4989157,20.5943231 C16.49119,20.5849401 16.4842776,20.574704 16.4761453,20.565321 C16.3708322,20.4488859 16.2366495,20.3657181 16.0874221,20.3260534 C16.0752236,20.3226414 16.0630252,20.3217884 16.0504202,20.3192294 C16.0134183,20.3111258 15.9760098,20.3047283 15.937788,20.3017428 C15.919897,20.3004633 15.9015993,20.3017428 15.8837083,20.3017428 C15.8593115,20.3017428 15.8357278,20.2996103 15.811331,20.3017428 C15.3571429,20.2795647 14.9777718,19.688433 14.9777718,18.9915288 C14.9777718,18.3052872 15.3355923,17.8186484 15.6722689,17.7090374 C15.7113039,17.6958159 15.7446462,17.6787558 15.7779886,17.6621222 C15.9747899,17.6744908 16.1752507,17.6821678 16.3842505,17.6821678 C16.4647601,17.6821678 16.5464896,17.6813148 16.6298455,17.6791823 C17.1486853,17.6663872 17.6675251,17.6105155 18.1713201,17.513273 C18.1981567,17.508155 18.2253998,17.5017575 18.2518298,17.4932274 L19.9937652,16.960953 C20.0197886,16.9528495 20.0458119,16.9434664 20.071022,16.9328039 C21.6124966,16.2785499 23.0332068,15.202059 24.3087558,13.7348923 C25.2769043,14.8958306 26.484142,15.7266564 27.8727297,16.1685124 C27.8487395,16.3787779 27.8227162,16.5890433 27.8003524,16.7993088 C27.8003524,16.8001618 27.8003524,16.8010148 27.8003524,16.8018678 C27.795473,16.849636 27.7962863,16.8965512 27.7987259,16.9434664 C27.7991326,16.953276 27.7979127,16.963512 27.7987259,16.9733216 C27.8015722,17.0057357 27.8097045,17.0368704 27.8162104,17.0684315 C27.8389808,17.1831605 27.8833017,17.289786 27.9463269,17.3831899 C27.955679,17.3972645 27.9629981,17.4126186 27.9727568,17.4258401 C27.9918677,17.4510038 28.0150447,17.4727553 28.0370019,17.49536 C28.0524532,17.511567 28.0654649,17.5290536 28.0821361,17.5439812 C28.1223909,17.5798073 28.1658986,17.6113685 28.2122526,17.6386646 C28.2195717,17.6429296 28.2285172,17.6454886 28.2362429,17.6497537 C28.2764977,17.6715053 28.3175657,17.6915508 28.3614801,17.7060519 C28.7095419,17.8216339 29.0588235,18.2993161 29.0588235,18.9911023 C29.0588235,19.6871535 28.6806723,20.2778587 28.2244511,20.3017428 Z" id="Shape" fill="#718894" fill-rule="nonzero"></path>
    </g>
</svg>