<?xml version="1.0" encoding="UTF-8"?>
<svg width="44px" height="44px" viewBox="0 0 44 44" version="1.1" xmlns="http://www.w3.org/2000/svg" xmlns:xlink="http://www.w3.org/1999/xlink">
    <!-- Generator: Sketch 52.5 (67469) - http://www.bohemiancoding.com/sketch -->
    <title>Icons/Banners/youtube</title>
    <desc>Created with Sketch.</desc>
    <g id="Icons/Banners/youtube" stroke="none" stroke-width="1" fill="none" fill-rule="evenodd">
        <rect id="Rectangle" fill="#D8D8D8" opacity="0" x="0" y="0" width="44" height="44"></rect>
        <path d="M39.881484,22.9540088 L39.881484,21.2712795 C39.881484,20.4030752 39.7299897,19.7682592 39.412573,19.3574959 C38.9869461,18.8020319 38.3833734,18.5242998 37.6210924,18.5242998 C36.8491927,18.5242998 36.2432154,18.8020319 35.8055651,19.3574959 C35.4833391,19.7682592 35.3366541,20.4030752 35.3366541,21.2712795 L35.3366541,24.1186161 C35.3366541,24.9821527 35.5025764,25.6216365 35.8248025,26.027732 C36.2624528,26.583196 36.8660254,26.8609281 37.6595672,26.8609281 C38.4531089,26.8609281 39.0756785,26.5691928 39.4943318,25.9810544 C39.6794916,25.7196595 39.79708,25.4232565 39.8502233,25.0988468 C39.8622467,24.9494783 39.881484,24.6227348 39.881484,24.1489566 L39.881484,23.9342394 L38.3328753,23.9342394 C38.3328753,24.5247117 38.3136379,24.8514552 38.2992099,24.9308072 C38.2126417,25.3252334 37.9962212,25.5236134 37.6210924,25.5236134 C37.1016833,25.5236134 36.8491927,25.1478583 36.8491927,24.3940143 L36.8491927,22.9540088 L39.881484,22.9540088 Z M34.2401237,24.3099945 L34.2401237,21.0752334 C34.2401237,20.3050522 34.1872209,19.7682592 34.0862247,19.4415157 C33.8842322,18.8323723 33.4778427,18.5242998 32.87427,18.5242998 C32.3163861,18.5242998 31.7967365,18.8207029 31.3061834,19.4065074 L31.3061834,15.8426689 L29.7890759,15.8426689 L29.7890759,26.7489017 L31.3061834,26.7489017 L31.3061834,25.9623833 C31.8138097,26.5691928 32.3356235,26.8609281 32.87427,26.8609281 C33.4778427,26.8609281 33.8842322,26.5528556 34.0862247,25.94838 C34.1872209,25.6029654 34.2401237,25.0615047 34.2401237,24.3099945 Z M28.476125,26.7489017 L28.476125,18.6223229 L26.9587771,18.6223229 L26.9587771,24.8327842 C26.622123,25.2948929 26.3047063,25.5236134 25.999313,25.5236134 C25.7973205,25.5236134 25.6818963,25.4069193 25.6458262,25.1781988 C25.6311577,25.1291873 25.6311577,24.9494783 25.6311577,24.6063976 L25.6311577,18.6223229 L24.1140502,18.6223229 L24.1140502,25.0475014 C24.1140502,25.6216365 24.1645483,26.0113948 24.2487118,26.2564525 C24.4002061,26.6672158 24.7368602,26.8609281 25.2247681,26.8609281 C25.7828925,26.8609281 26.3552044,26.5341845 26.9587771,25.8620264 L26.9587771,26.7489017 L28.476125,26.7489017 Z M22.4957059,26.7489017 L22.4957059,17.3783635 L24.3112333,17.3783635 L24.3112333,15.8426689 L19.0233597,15.8426689 L19.0233597,17.3783635 L20.8076262,17.3783635 L20.8076262,26.7489017 L22.4957059,26.7489017 Z M41.7499141,16.6688633 C41.7499141,16.6688633 42,18.6246568 42,20.5804503 L42,22.4148819 C42,24.3706755 41.7499141,26.326469 41.7499141,26.326469 C41.7499141,26.326469 41.5046376,27.9905272 40.7543799,28.7257002 C39.8018894,29.6872597 38.7366197,29.6919275 38.2487118,29.7479407 C34.747269,29.9929984 29.4908966,30 29.4908966,30 C29.4908966,30 22.986259,29.9439868 20.9831673,29.7572762 C20.4276881,29.6569193 19.1770182,29.6872597 18.2247681,28.7257002 C17.4747509,27.9905272 17.2318791,26.326469 17.2318791,26.326469 C17.2318791,26.326469 16.9817932,24.3706755 16.9817932,22.4148819 L16.9817932,20.5804503 C16.9817932,18.6246568 17.2318791,16.6688633 17.2318791,16.6688633 C17.2318791,16.6688633 17.4747509,15.0024712 18.2247681,14.2696321 C19.1770182,13.3057386 20.2425283,13.3010708 20.7330814,13.2450577 C24.2342838,13 29.4860873,13 29.4860873,13 L29.4957059,13 C29.4957059,13 34.747269,13 38.2487118,13.2450577 C38.7366197,13.3010708 39.8018894,13.3057386 40.7543799,14.2696321 C41.5046376,15.0024712 41.7499141,16.6688633 41.7499141,16.6688633 Z M14.1346616,26.7699066 L14.1346616,25.8736958 C13.5262796,26.5528556 12.944349,26.8842669 12.38382,26.8842669 C11.8911027,26.8842669 11.5496393,26.6882208 11.398145,26.2727897 C11.3115768,26.0253981 11.2610787,25.630972 11.2610787,25.0521691 L11.2610787,18.5593081 L12.7880453,18.5593081 L12.7880453,24.6040637 C12.7880453,24.9541461 12.7880453,25.133855 12.8072827,25.1828666 C12.8409481,25.4139209 12.9609413,25.530615 13.1679835,25.530615 C13.4733768,25.530615 13.7956029,25.3018946 14.1346616,24.8351181 L14.1346616,18.5593081 L15.6688423,18.5593081 L15.6688423,26.7699066 L14.1346616,26.7699066 Z M8.5510134,20.9375343 C8.5510134,20.1766886 8.31295088,19.7985997 7.81758846,19.7985997 C7.32463071,19.7985997 7.08656819,20.1766886 7.08656819,20.9375343 L7.08656819,24.3916804 C7.08656819,25.1525261 7.32463071,25.530615 7.81758846,25.530615 C8.31295088,25.530615 8.5510134,25.1525261 8.5510134,24.3916804 L8.5510134,20.9375343 Z M9.60666438,26.0417353 C9.18344212,26.6018671 8.58708348,26.8842669 7.81758846,26.8842669 C7.05506699,26.8842669 6.45894881,26.6018671 6.03332188,26.0417353 C5.70869117,25.630972 5.55479217,24.9844865 5.55479217,24.1116145 L5.55479217,21.2362713 C5.55479217,20.3587315 5.70869117,19.7169138 6.03332188,19.3014827 C6.45894881,18.739017 7.05506699,18.4589511 7.81758846,18.4589511 C8.58708348,18.4589511 9.18344212,18.739017 9.60666438,19.3014827 C9.92864995,19.7169138 10.0827894,20.3587315 10.0827894,21.2362713 L10.0827894,24.1116145 C10.0827894,24.9844865 9.92864995,25.630972 9.60666438,26.0417353 Z M3.83064239,22.3075233 L3.83064239,26.7699066 L2.13053933,26.7699066 L2.13053933,22.3075233 C1.97664033,21.5163372 1.63517692,20.3587315 1.09148059,18.8207029 C0.730779801,17.7984624 0.358296118,16.773888 7.01660952e-14,15.7516474 L1.78907592,15.7516474 L2.99622123,20.0786656 L4.1552731,15.7516474 L5.87461353,15.7516474 L3.83064239,22.3075233 Z M32.0636551,19.8499451 C32.5015459,19.8499451 32.7227757,20.2257002 32.7227757,20.9585393 L32.7227757,24.4266886 C32.7227757,25.1595277 32.5015459,25.5236134 32.0636551,25.5236134 C31.8138097,25.5236134 31.5613191,25.4069193 31.3061834,25.1595277 L31.3061834,20.2070291 C31.5613191,19.9643053 31.8138097,19.8499451 32.0636551,19.8499451 Z M37.609069,19.8499451 C38.1116455,19.8499451 38.364136,20.2257002 38.364136,20.9772103 L38.364136,21.7287205 L36.8491927,21.7287205 L36.8491927,20.9772103 C36.8491927,20.2257002 37.1016833,19.8499451 37.609069,19.8499451 Z" id="Combined-Shape" fill="#718894"></path>
    </g>
</svg>