<?xml version="1.0" encoding="UTF-8"?>
<svg width="40px" height="40px" viewBox="0 0 40 40" version="1.1" xmlns="http://www.w3.org/2000/svg" xmlns:xlink="http://www.w3.org/1999/xlink">
    <!-- Generator: Sketch 52.5 (67469) - http://www.bohemiancoding.com/sketch -->
    <title>Buttons/Social/facebook-circle</title>
    <desc>Created with Sketch.</desc>
    <g id="Buttons/Social/facebook-circle" stroke="none" stroke-width="1" fill="none" fill-rule="evenodd">
        <rect id="Rectangle" fill="#FFFFFF" opacity="0" x="0" y="0" width="40" height="40"></rect>
        <path d="M0,20 C0,8.95430446 8.95430446,0 20,0 C31.0456955,0 40,8.95430446 40,20 C40,31.0456955 31.0456955,40 20,40 C8.95430446,40 0,31.0456955 0,20 Z" id="back" fill="#3B5998"></path>
        <g id="Icons/Social/facebook-icon" transform="translate(7.000000, 8.000000)" fill="#FFFFFF">
            <rect id="Rectangle" opacity="0" x="0" y="0" width="24" height="24"></rect>
            <path d="M10.4560251,20 L10.4560251,12.7016912 L8,12.7016912 L8,9.85735974 L10.4560251,9.85735974 L10.4560251,7.75977121 C10.4560251,5.32549518 11.9428027,4 14.114324,4 C15.1544681,4 16.0485118,4.07746355 16.3090068,4.1120644 L16.3090068,6.65600395 L14.8029517,6.65671009 C13.6219327,6.65671009 13.3932846,7.21787946 13.3932846,8.0413798 L13.3932846,9.85735974 L16.2098648,9.85735974 L15.8430957,12.7016912 L13.3932846,12.7016912 L13.3932846,20 L10.4560251,20 Z" id="Fill-14"></path>
        </g>
    </g>
</svg>