<?xml version="1.0" encoding="UTF-8"?>
<svg width="40px" height="40px" viewBox="0 0 40 40" version="1.1" xmlns="http://www.w3.org/2000/svg" xmlns:xlink="http://www.w3.org/1999/xlink">
    <!-- Generator: Sketch 52.5 (67469) - http://www.bohemiancoding.com/sketch -->
    <title>Buttons/Social/google-circle</title>
    <desc>Created with Sketch.</desc>
    <g id="Buttons/Social/google-circle" stroke="none" stroke-width="1" fill="none" fill-rule="evenodd">
        <rect id="Rectangle" fill="#FFFFFF" opacity="0" x="0" y="0" width="40" height="40"></rect>
        <path d="M0,20 C0,8.95430446 8.95430446,0 20,0 C31.0456955,0 40,8.95430446 40,20 C40,31.0456955 31.0456955,40 20,40 C8.95430446,40 0,31.0456955 0,20 Z" id="back" fill="#C53929"></path>
        <g id="Icons/Social/google-icon" transform="translate(8.000000, 8.000000)" fill="#FFFFFF">
            <rect id="Rectangle" opacity="0" x="0" y="0" width="24" height="24"></rect>
            <path d="M8,11 L14.61,11 C14.67,11.35 14.72,11.7 14.72,12.16 C14.72,16.16 12.04,19 8,19 C4.13,19 1,15.87 1,12 C1,8.13 4.13,5 8,5 C9.89,5 11.47,5.69 12.69,6.83 L10.79,8.66 C10.27,8.16 9.36,7.58 8,7.58 C5.61,7.58 3.66,9.56 3.66,12 C3.66,14.44 5.61,16.42 8,16.42 C10.77,16.42 11.81,14.43 11.97,13.4 L8,13.4 L8,11 Z M23,11 L23,13 L21,13 L21,15 L19,15 L19,13 L17,13 L17,11 L19,11 L19,9 L21,9 L21,11 L23,11 Z" id="Combined-Shape"></path>
        </g>
    </g>
</svg>