<?xml version="1.0" encoding="UTF-8"?>
<svg width="40px" height="40px" viewBox="0 0 40 40" version="1.1" xmlns="http://www.w3.org/2000/svg" xmlns:xlink="http://www.w3.org/1999/xlink">
    <!-- Generator: Sketch 52.5 (67469) - http://www.bohemiancoding.com/sketch -->
    <title>Buttons/Social/mail-circle</title>
    <desc>Created with Sketch.</desc>
    <g id="Buttons/Social/mail-circle" stroke="none" stroke-width="1" fill="none" fill-rule="evenodd">
        <rect id="Rectangle" fill="#FFFFFF" opacity="0" x="0" y="0" width="40" height="40"></rect>
        <path d="M0,20 C0,8.95430446 8.95430446,0 20,0 C31.0456955,0 40,8.95430446 40,20 C40,31.0456955 31.0456955,40 20,40 C8.95430446,40 0,31.0456955 0,20 Z" id="back" fill="#FC2C38"></path>
        <path d="M20.0322474,10.0000627 C25.5314875,10.0175497 30,14.4967314 30,19.9999373 C30,20.7810865 29.9350037,21.4134393 29.7893417,22.0481739 L29.7872107,22.0587037 C29.7868346,22.060584 29.7145678,22.3531624 29.6746423,22.4808364 C29.4275059,23.2712618 28.980053,23.9296258 28.380545,24.3846641 C27.7992134,24.8260387 27.0783622,25.0691646 26.35093,25.0691646 C26.2610508,25.0691646 26.1705448,25.0655293 26.0819192,25.058384 C25.0488726,24.9754618 24.1405538,24.4318602 23.5836036,23.565031 C22.6256444,24.5282581 21.3546749,25.058196 19.9999687,25.058196 C17.2108933,25.058196 14.9417885,22.7890841 14.9417885,19.9999373 C14.9417885,17.2108532 17.2108933,14.941804 19.9999687,14.941804 C22.789044,14.941804 25.0581488,17.2108532 25.0581488,19.9999373 L25.0581488,21.6304913 C25.0623482,22.5818724 25.7007788,22.970786 26.2461963,23.0147856 C26.788856,23.0566542 27.5110234,22.7405717 27.7626099,21.7089008 C27.8867109,21.1431114 27.9497642,20.5679831 27.9497642,19.9999373 C27.9497642,15.6164014 24.3834908,12.0501796 19.9999687,12.0501796 C15.6164465,12.0501796 12.0502358,15.6164014 12.0502358,19.9999373 C12.0502358,24.3834732 15.6164465,27.9497578 19.9999687,27.9497578 C21.5258465,27.9497578 23.009856,27.5139614 24.2915433,26.6894395 L24.3144831,26.6746476 L25.6616682,28.2408945 L25.6327739,28.2607006 C23.9679406,29.3985471 22.0201194,30 19.9999687,30 C14.4859368,30 10,25.5140492 10,19.9999373 C10,14.4859508 14.4859368,10 19.9999687,10 L20.0322474,10 L20.0322474,10.0000627 Z M23.0079193,19.9999311 C23.0079193,18.3413602 21.6585406,16.99204 19.9999749,16.99204 C18.3413466,16.99204 16.9920306,18.3413602 16.9920306,19.9999311 C16.9920306,21.6585646 18.3413466,23.0079475 19.9999749,23.0079475 C21.6585406,23.0079475 23.0079193,21.6585646 23.0079193,19.9999311 Z" id="Combined-Shape" fill="#FFFFFF"></path>
    </g>
</svg>