<?xml version="1.0" encoding="UTF-8"?>
<svg width="40px" height="40px" viewBox="0 0 40 40" version="1.1" xmlns="http://www.w3.org/2000/svg" xmlns:xlink="http://www.w3.org/1999/xlink">
    <!-- Generator: Sketch 52.5 (67469) - http://www.bohemiancoding.com/sketch -->
    <title>Buttons/Social/twitter-circle</title>
    <desc>Created with Sketch.</desc>
    <g id="Buttons/Social/twitter-circle" stroke="none" stroke-width="1" fill="none" fill-rule="evenodd">
        <rect id="Rectangle" fill="#FFFFFF" opacity="0" x="0" y="0" width="40" height="40"></rect>
        <path d="M0,20 C0,8.95430446 8.95430446,0 20,0 C31.0456955,0 40,8.95430446 40,20 C40,31.0456955 31.0456955,40 20,40 C8.95430446,40 0,31.0456955 0,20 Z" id="back" fill="#55ACEE"></path>
        <g id="Icons/Social/twitter-icon" transform="translate(7.000000, 7.000000)" fill="#FFFFFF">
            <rect id="Rectangle" opacity="0" x="0" y="0" width="26" height="26"></rect>
            <path d="M12.7809488,9.95820355 L12.813825,10.5204902 L12.2658874,10.4516388 C10.2713943,10.1877083 8.52895256,9.29263975 7.04952088,7.78938357 L6.32624318,7.0434931 L6.13994437,7.59430453 C5.74542926,8.82215499 5.99748058,10.1188569 6.81938707,10.990975 C7.25773719,11.472935 7.15910841,11.5417864 6.40295445,11.2549054 C6.13994437,11.1631035 5.90981056,11.0942521 5.88789305,11.1286778 C5.81118178,11.2090045 6.07419185,12.2532511 6.28240816,12.6663597 C6.56733575,13.2401216 7.14814966,13.8024083 7.78375734,14.1351902 L8.32073625,14.3991206 L7.68512856,14.4105959 C7.07143839,14.4105959 7.04952088,14.4220711 7.1152734,14.6630511 C7.33444846,15.4089416 8.20018996,16.200733 9.16456024,16.5449901 L9.84400293,16.7859701 L9.25223026,17.1531778 C8.37553001,17.6810387 7.34540722,17.9793949 6.31528442,18.0023454 C5.82214053,18.0138206 5.41666667,18.0597216 5.41666667,18.0941473 C5.41666667,18.2088997 6.75363455,18.851513 7.53170602,19.1039682 C9.86592044,19.8498587 12.638485,19.528552 14.7206481,18.2548006 C16.2000797,17.3482568 17.6795114,15.5466444 18.3699129,13.8024083 C18.7425105,12.872914 19.1151081,11.1745788 19.1151081,10.3598369 C19.1151081,9.83197593 19.1479843,9.7631245 19.7616745,9.13198641 C20.1233134,8.7647788 20.4630347,8.36314547 20.5287872,8.24839309 C20.6383748,8.03036357 20.627416,8.03036357 20.0685196,8.22544262 C19.1370256,8.56969975 19.0055205,8.5237988 19.4657882,8.00741309 C19.8055095,7.64020548 20.2109834,6.97464168 20.2109834,6.77956263 C20.2109834,6.74513692 20.0466021,6.80251311 19.8603033,6.90579025 C19.6630457,7.02054263 19.2246956,7.1926712 18.895933,7.29594834 L18.3041603,7.49102738 L17.7671814,7.11234453 C17.4712951,6.90579025 17.0548625,6.67628549 16.8356874,6.60743406 C16.276791,6.44678073 15.4220083,6.46973121 14.9179056,6.65333501 C13.5480615,7.16972072 12.68232,8.50084833 12.7809488,9.95820355 Z" id="Shape"></path>
        </g>
    </g>
</svg>