<svg width="300" height="300" viewBox="0 0 300 300" fill="none" xmlns="http://www.w3.org/2000/svg">
<rect width="300" height="300" rx="150" fill="#4A78F5"/>
<path fill-rule="evenodd" clip-rule="evenodd" d="M157.288 147.89C157.288 150.83 154.893 153.214 151.94 153.214C148.987 153.214 146.593 150.83 146.593 147.89C146.593 144.95 148.987 142.566 151.94 142.566C154.893 142.566 157.288 144.95 157.288 147.89ZM154.027 147.89C154.027 149.037 153.093 149.968 151.94 149.968C150.788 149.968 149.853 149.037 149.853 147.89C149.853 146.743 150.788 145.813 151.94 145.813C153.093 145.813 154.027 146.743 154.027 147.89Z" fill="url(#paint0_linear_159_4179)"/>
<path fill-rule="evenodd" clip-rule="evenodd" d="M84.9017 57C82.2005 57 80.0108 59.18 80.0108 61.8691C80.0108 64.5582 82.2005 66.2486 84.9017 66.2486H162.439C189.379 66.2486 211.218 88.4798 211.218 115.299C211.218 125.381 208.132 134.745 202.85 142.506C192.34 132.528 178.109 126.401 162.439 126.401C144.647 126.401 128.703 134.307 117.971 146.765C117.227 147.628 116.841 148.675 116.797 149.729C116.74 150.876 117.088 152.047 117.866 153.014C128.686 166.446 144.102 173.599 162.439 173.599C178.109 173.599 192.34 167.472 202.85 157.494C208.132 165.255 211.218 174.619 211.218 184.701C211.218 211.52 189.379 232.467 162.439 232.467H83.8909C81.1897 232.467 79 235.442 79 238.131C79 240.82 81.1897 243 83.8909 243H162.439C194.781 243 221 216.898 221 184.701C221 171.701 216.726 159.695 209.501 150C216.726 140.305 221 128.299 221 115.299C221 83.1016 194.781 57 162.439 57H84.9017ZM162.439 136.139C175.723 136.139 187.767 141.425 196.563 150C187.767 158.575 175.723 163.861 162.439 163.861C148.438 163.861 136.88 159.038 128.255 150.058C137.062 141.444 149.126 136.139 162.439 136.139Z" fill="url(#paint1_linear_159_4179)"/>
<defs>
<linearGradient id="paint0_linear_159_4179" x1="83.2864" y1="150" x2="225.218" y2="149.219" gradientUnits="userSpaceOnUse">
<stop offset="0.0344005" stop-color="white" stop-opacity="0"/>
<stop offset="0.788639" stop-color="white"/>
</linearGradient>
<linearGradient id="paint1_linear_159_4179" x1="83.2864" y1="150" x2="225.218" y2="149.219" gradientUnits="userSpaceOnUse">
<stop offset="0.0344005" stop-color="white" stop-opacity="0"/>
<stop offset="0.788639" stop-color="white"/>
</linearGradient>
</defs>
</svg>
