<svg xmlns="http://www.w3.org/2000/svg" width="24" height="28" viewBox="0 0 24 28"><defs><style>.a{fill:#fff;}</style></defs><g transform="translate(-34.883 0)"><g transform="translate(34.883 0)"><path class="a" d="M57.078,10.769,40.667.575a3.724,3.724,0,0,0-3.84-.082,3.783,3.783,0,0,0-1.944,3.338v20.3A3.85,3.85,0,0,0,38.669,28h.017a3.787,3.787,0,0,0,1.967-.6,1.1,1.1,0,0,0,.361-1.5,1.079,1.079,0,0,0-1.489-.363,1.654,1.654,0,0,1-.844.277,1.69,1.69,0,0,1-1.631-1.69V3.831A1.623,1.623,0,0,1,37.884,2.4a1.6,1.6,0,0,1,1.646.035L55.942,12.628a1.647,1.647,0,0,1-.007,2.8L44.069,22.747a1.1,1.1,0,0,0-.358,1.5,1.079,1.079,0,0,0,1.49.361l11.864-7.32a3.839,3.839,0,0,0,.014-6.52Z" transform="translate(-34.883 0)"/></g></g></svg>