<svg xmlns="http://www.w3.org/2000/svg" width="28" height="28" viewBox="0 0 28 28"><defs><style>.a{fill:#fff;}</style></defs><g transform="translate(7.656 7.656)"><path class="a" d="M146.344,140a6.344,6.344,0,1,0,1.916,12.393,1.094,1.094,0,0,0-.66-2.086,4.15,4.15,0,1,1,2.734-2.794,1.094,1.094,0,0,0,2.1.614A6.348,6.348,0,0,0,146.344,140Z" transform="translate(-140 -140)"/></g><path class="a" d="M24.719,10.172h-.551a.364.364,0,0,1-.333-.229l-.01-.024a.367.367,0,0,1,.072-.4l.39-.389a3.285,3.285,0,0,0,0-4.64l-.773-.773a3.281,3.281,0,0,0-4.64,0l-.389.389a.367.367,0,0,1-.4.072l-.021-.009a.365.365,0,0,1-.232-.335V3.281A3.285,3.285,0,0,0,14.547,0H13.453a3.285,3.285,0,0,0-3.281,3.281v.551a.365.365,0,0,1-.231.334l-.021.009a.366.366,0,0,1-.4-.072l-.389-.389a3.281,3.281,0,0,0-4.64,0l-.773.773a3.285,3.285,0,0,0,0,4.64l.389.389a.369.369,0,0,1,.07.406l-.007.016a.365.365,0,0,1-.335.233H3.281A3.285,3.285,0,0,0,0,13.453v1.094a3.285,3.285,0,0,0,3.281,3.281h.551a.364.364,0,0,1,.333.229l.01.024a.367.367,0,0,1-.072.4l-.389.389a3.281,3.281,0,0,0,0,4.64l.773.773a3.281,3.281,0,0,0,4.64,0l.389-.389a.366.366,0,0,1,.4-.072l.021.009a.365.365,0,0,1,.232.335v.551A3.285,3.285,0,0,0,13.453,28h1.094a3.285,3.285,0,0,0,3.281-3.281v-.551a.365.365,0,0,1,.231-.334l.021-.009a.367.367,0,0,1,.4.072l.389.389a3.281,3.281,0,0,0,4.64,0l.773-.773a3.281,3.281,0,0,0,0-4.64l-.389-.389a.367.367,0,0,1-.072-.4l.008-.02a.366.366,0,0,1,.335-.233h.551A3.285,3.285,0,0,0,28,14.547V13.453A3.285,3.285,0,0,0,24.719,10.172Zm1.094,4.375a1.1,1.1,0,0,1-1.094,1.094h-.551a2.546,2.546,0,0,0-2.356,1.585l-.007.017a2.547,2.547,0,0,0,.546,2.787l.39.389a1.094,1.094,0,0,1,0,1.547l-.773.773a1.094,1.094,0,0,1-1.547,0l-.39-.39a2.548,2.548,0,0,0-2.789-.545l-.015.006a2.546,2.546,0,0,0-1.585,2.356v.551a1.1,1.1,0,0,1-1.094,1.094H13.453a1.1,1.1,0,0,1-1.094-1.094v-.551a2.546,2.546,0,0,0-1.586-2.357l-.015-.006a2.583,2.583,0,0,0-.992-.2,2.535,2.535,0,0,0-1.8.744l-.389.39a1.094,1.094,0,0,1-1.547,0l-.773-.773a1.094,1.094,0,0,1,0-1.547l.389-.389A2.547,2.547,0,0,0,6.2,17.243l-.007-.017a2.546,2.546,0,0,0-2.356-1.585H3.281a1.1,1.1,0,0,1-1.094-1.094V13.453a1.1,1.1,0,0,1,1.094-1.094h.551A2.547,2.547,0,0,0,6.19,10.771l.005-.012A2.547,2.547,0,0,0,5.65,7.97l-.389-.389a1.1,1.1,0,0,1,0-1.547l.773-.773a1.094,1.094,0,0,1,1.547,0l.39.39a2.547,2.547,0,0,0,2.789.545l.015-.006a2.546,2.546,0,0,0,1.585-2.356V3.281a1.1,1.1,0,0,1,1.094-1.094h1.094a1.1,1.1,0,0,1,1.094,1.094v.551a2.546,2.546,0,0,0,1.586,2.357l.015.006A2.547,2.547,0,0,0,20.03,5.65l.389-.39a1.094,1.094,0,0,1,1.547,0l.773.773a1.1,1.1,0,0,1,0,1.547l-.39.39a2.546,2.546,0,0,0-.547,2.784l.008.02a2.546,2.546,0,0,0,2.356,1.585h.551a1.1,1.1,0,0,1,1.094,1.094Z"/></svg>