<svg width="355" height="161" viewBox="0 0 355 161" fill="none" xmlns="http://www.w3.org/2000/svg">
<path d="M274.141 125.131L269.767 129.519L251.376 111.068L248.909 107.58L247.787 107.918L248.236 112.193L248.236 147.737L241.956 147.737L241.956 112.193L242.404 107.918L241.283 107.58L238.816 111.068L220.424 129.519L216.051 125.131L242.853 98.242L247.339 98.242L274.141 125.131Z" fill="url(#paint0_linear_1_353)"/>
<path d="M78.0508 37.0581L82.4244 32.6704L100.816 51.1213L103.283 54.609L104.404 54.2714L103.956 49.9962L103.956 14.452L110.236 14.452L110.236 49.9962L109.787 54.2714L110.909 54.609L113.376 51.1213L131.767 32.6704L136.141 37.0581L109.339 63.9469H104.853L78.0508 37.0581Z" fill="url(#paint1_linear_1_353)"/>
<path d="M156 53.2285V36.8806L179.439 10.1079H189.237L158.352 44.9361V45.9627H181.006V33.8005H189.159V45.9627H197.312V53.2285H189.159V63.8112H181.006V53.2285H156Z" fill="white"/>
<path d="M202.512 63.8112V53.7813H212.232V63.8112H202.512Z" fill="white"/>
<path d="M220.332 53.3864C220.332 48.49 221.743 43.9883 229.739 39.7237L243.379 32.4579C247.063 30.4046 249.65 29.2199 249.65 24.4814C249.65 18.0844 245.025 16.3469 239.459 16.3469C233.58 16.3469 230.052 18.2424 229.268 22.9809H221.116C221.978 13.4249 229.347 9.31812 239.616 9.31812C248.709 9.31812 258.038 12.6351 258.038 24.4814C258.038 32.379 254.04 35.538 247.925 38.776L233.501 46.4366C229.425 48.6479 228.406 50.2274 228.406 54.1762V60.9681H229.974V56.5454H259.135L256.627 63.8112H220.332V53.3864Z" fill="white"/>
<path d="M283.83 64.6009C273.326 64.6009 264.546 60.4942 263.527 48.7269H271.68C272.699 55.6767 277.716 57.6511 284.144 57.6511C290.65 57.6511 295.354 55.0449 295.354 47.5422C295.354 40.5924 292.14 37.4334 283.517 37.4334H267.368L266.428 36.4857L272.229 10.1079H302.174L299.665 17.2157H278.735L274.737 34.8272H276.07L277.246 30.7205H285.32C298.646 30.7205 303.741 37.1175 303.741 47.2263C303.741 60.4152 293.472 64.6009 283.83 64.6009Z" fill="white"/>
<path d="M328.974 73.999V64.364C319.097 63.4163 312.277 58.9937 311.493 48.49H319.803C320.822 55.5188 325.917 57.6511 333.835 57.6511C342.301 57.6511 346.455 55.1239 346.455 48.332C346.455 43.7514 344.496 41.4611 338.93 40.5924L326.388 38.539C319.254 37.3544 312.826 34.0374 312.826 24.3235C312.826 13.7408 320.273 10.1869 328.818 9.47608V-0.000976562H336.657V9.47608C345.985 10.4238 351.551 14.8464 352.492 22.8229H344.025C342.928 18.0844 339.165 16.189 332.345 16.189C325.996 16.189 321.292 17.7685 321.292 24.0865C321.292 28.4302 323.566 30.4835 329.131 31.3523L340.655 33.2477C351.237 34.9851 355 39.7237 355 47.7792C355 59.1516 347.318 63.7322 336.813 64.522V73.999H328.974Z" fill="white"/>
<path d="M17.0537 150.949V100.309H15.9782L0.99864 118.929H0V109.502L9.60231 97.9713H25.0428V150.949H17.0537Z" fill="white"/>
<path d="M37.1579 150.949V97.9713H45.1471V123.447L42.5352 127.187V129.212L69.8058 97.9713H79.5618L57.6685 122.902V124.226H62.6617L79.6386 150.949H70.574L55.0567 126.018L45.1471 137.081V150.949H37.1579Z" fill="white"/>
<path d="M104.449 150.949V97.9713H127.725C139.939 97.9713 146.623 102.646 146.623 113.709C146.623 124.226 140.631 128.979 129.646 129.446L129.569 130.771H134.869L146.853 150.949H137.712L125.421 129.524H112.438V150.949H104.449ZM112.438 122.824H127.187C136.252 122.824 138.403 119.318 138.403 113.865C138.403 108.411 136.252 104.827 127.187 104.827H112.438V122.824Z" fill="white"/>
<path d="M170.496 160.999V151.494C160.817 150.559 154.134 146.196 153.366 135.835H161.508C162.507 142.768 167.5 144.872 175.259 144.872C183.555 144.872 187.627 142.379 187.627 135.679C187.627 131.16 185.706 128.901 180.252 128.044L167.961 126.018C160.971 124.85 154.672 121.577 154.672 111.995C154.672 101.555 161.969 98.0492 170.343 97.348V87.999H178.024V97.348C187.166 98.2829 192.62 102.646 193.542 110.514H185.245C184.17 105.84 180.483 103.97 173.799 103.97C167.577 103.97 162.968 105.528 162.968 111.761C162.968 116.046 165.196 118.072 170.65 118.929L181.942 120.798C192.313 122.512 196 127.187 196 135.133C196 146.352 188.472 150.871 178.178 151.65V160.999H170.496Z" fill="white"/>
<defs>
<linearGradient id="paint0_linear_1_353" x1="262.732" y1="144.044" x2="233.525" y2="97.3393" gradientUnits="userSpaceOnUse">
<stop stop-color="#B341C6"/>
<stop offset="1" stop-color="#3F21F5"/>
</linearGradient>
<linearGradient id="paint1_linear_1_353" x1="89.4592" y1="18.1446" x2="118.667" y2="64.8497" gradientUnits="userSpaceOnUse">
<stop stop-color="#B341C6"/>
<stop offset="1" stop-color="#3F21F5"/>
</linearGradient>
</defs>
</svg>
