<svg width="330" height="309" viewBox="0 0 330 309" fill="none" xmlns="http://www.w3.org/2000/svg">
<g style="mix-blend-mode:difference">
<path d="M180.111 2.99902L29 184.799H165L149.889 305.999L301 124.199H165L180.111 2.99902Z" stroke="url(#paint0_linear_37_104)" stroke-width="6" stroke-linecap="round" stroke-linejoin="round"/>
</g>
<path d="M42.729 190.604C19.6154 190.604 0 176.963 0 146.802C0 116.64 19.6154 102.999 42.729 102.999C65.8427 102.999 85.3331 116.64 85.3331 146.802C85.3331 166.45 76.9622 179.216 64.5933 185.598L72.4644 206.999H59.5957L53.2239 189.603L52.974 188.977L50.6001 182.344L48.3512 182.845L50.4752 189.853C48.1014 190.354 45.4777 190.604 42.729 190.604ZM13.3684 146.802C13.3684 167.201 24.8628 178.84 42.729 178.84C44.9779 178.84 47.1019 178.715 49.1009 178.34L40.8549 155.813H53.7236L60.3454 173.709C67.7167 168.453 72.0896 159.317 72.0896 146.802C72.0896 126.277 60.4703 114.763 42.729 114.763C24.8628 114.763 13.3684 126.277 13.3684 146.802Z" fill="white"/>
<path d="M122.105 190.604C107.862 190.604 99.9909 182.595 99.9909 165.699V126.778H112.485V165.699C112.485 173.584 115.608 179.466 126.603 179.466C135.598 179.466 141.97 173.334 141.97 165.449V126.778H154.464V178.465L158.462 189.353H145.469L142.47 180.717L144.969 172.583H143.095C138.222 186.474 130.601 190.604 122.105 190.604Z" fill="white"/>
<path d="M172.468 189.353V126.778H184.962V189.353H172.468ZM171.468 116.39V103.75H185.961V116.39H171.468Z" fill="white"/>
<path d="M230.347 190.604C213.605 190.604 198.862 180.843 198.862 158.065C198.862 135.288 213.605 125.526 230.347 125.526C244.965 125.526 257.209 132.409 259.582 149.18H246.339C244.715 140.794 238.968 136.915 230.347 136.915C219.352 136.915 211.856 143.923 211.856 158.065C211.856 172.207 219.352 179.216 230.347 179.216C238.968 179.216 244.59 175.336 246.339 166.951H259.582C257.209 183.721 244.84 190.604 230.347 190.604Z" fill="white"/>
<path d="M272.028 189.353V104.251H284.522V153.685L280.149 159.317V162.195L312.883 126.778H328.751L300.639 156.689V158.441H308.635L330 189.353H315.507L296.392 160.693L284.522 172.958V189.353H272.028Z" fill="white"/>
<path d="M1.95 233.679V215.999H4.03V217.871L3.458 219.509H3.848C4.862 216.753 6.656 215.739 8.944 215.739C12.09 215.739 15.028 217.715 15.028 222.499C15.028 227.231 12.142 229.259 8.944 229.259C6.76 229.259 4.888 228.323 3.848 225.489H3.458L4.03 227.127V233.679H1.95ZM4.03 222.499C4.03 225.671 5.85 227.309 8.424 227.309C10.998 227.309 12.818 225.671 12.818 222.499C12.818 219.327 10.998 217.689 8.424 217.689C5.85 217.689 4.03 219.327 4.03 222.499ZM21.8672 229.259C19.0332 229.259 17.3692 227.855 17.3692 225.359C17.3692 223.331 18.6172 222.083 21.0092 221.745L25.5332 221.095C26.2872 220.991 26.4432 220.783 26.4432 220.029C26.4432 218.001 25.2212 217.689 23.4272 217.689C21.4512 217.689 20.4372 218.131 20.2812 219.327H18.0712C18.2532 216.909 20.1252 215.739 23.2972 215.739C25.8712 215.739 28.5232 216.519 28.5232 220.393V226.841L29.3292 228.999H27.1192L26.4692 227.153L27.0412 225.489H26.6512C25.6632 228.375 24.2072 229.259 21.8672 229.259ZM19.5792 225.359C19.5792 227.023 20.7232 227.465 22.3092 227.465C25.2992 227.465 26.4432 225.801 26.4432 224.085V222.759L22.1792 223.357C20.4372 223.591 19.5792 224.033 19.5792 225.359ZM35.2595 228.687L30.5795 215.999H32.7635L37.0535 227.933H37.3655L41.6555 215.999H43.8655L37.4175 233.679H35.2075L37.0535 228.687H35.2595ZM51.9549 229.259C48.4449 229.259 45.2989 227.153 45.2989 222.499C45.2989 217.845 48.4449 215.739 51.9549 215.739C55.4649 215.739 58.6109 217.845 58.6109 222.499C58.6109 227.153 55.4649 229.259 51.9549 229.259ZM47.5089 222.499C47.5089 225.567 49.3029 227.309 51.9549 227.309C54.6069 227.309 56.4009 225.567 56.4009 222.499C56.4009 219.431 54.6069 217.689 51.9549 217.689C49.3029 217.689 47.5089 219.431 47.5089 222.499ZM66.5295 229.259C63.4095 229.259 61.6935 227.465 61.6935 223.825V215.999H63.7735V224.085C63.7735 225.827 64.5275 227.309 67.1535 227.309C69.2595 227.309 70.7415 225.801 70.7415 224.085V215.999H72.8215V226.841L73.6275 228.999H71.4175L70.7675 227.153L71.3395 225.489H70.9495C69.9095 228.427 68.2715 229.259 66.5295 229.259ZM82.784 229.025C79.69 229.025 78.26 227.465 78.26 223.825V217.949H75.348V215.999H78.26V212.749L80.34 211.969V215.999H84.5V217.949H80.34V224.085C80.34 226.087 80.808 227.075 83.096 227.075H85.124L84.396 229.025H82.784ZM92.3179 229.259C89.5099 229.259 86.9359 228.245 86.7019 225.463H88.9119C89.0679 226.867 90.3939 227.387 92.3959 227.387C94.5279 227.387 95.6199 226.789 95.6199 225.203C95.6199 224.163 95.1259 223.591 93.7999 223.435L91.0179 223.097C88.3919 222.785 87.0399 221.797 87.0399 219.457C87.0399 216.337 89.7699 215.739 92.1099 215.739C94.8139 215.739 96.9719 216.701 97.2319 219.171H95.0479C94.8399 217.975 93.7999 217.611 91.9799 217.611C90.2899 217.611 89.2239 217.923 89.2239 219.327C89.2239 220.549 89.7699 221.017 91.1739 221.199L94.1899 221.615C97.0759 222.005 97.8039 223.357 97.8039 225.073C97.8039 228.115 95.2819 229.259 92.3179 229.259Z" fill="white"/>
<defs>
<linearGradient id="paint0_linear_37_104" x1="-6.01492" y1="147.66" x2="352.332" y2="221.807" gradientUnits="userSpaceOnUse">
<stop stop-color="#B341C6"/>
<stop offset="1" stop-color="#3F21F5"/>
</linearGradient>
</defs>
</svg>
