<svg width="1030" height="74" viewBox="0 0 1030 74" fill="none" xmlns="http://www.w3.org/2000/svg">
<mask id="mask0" mask-type="alpha" maskUnits="userSpaceOnUse" x="-1" y="-1" width="1032" height="76">
<path d="M4 -0.5C1.51472 -0.5 -0.5 1.51472 -0.5 4V70C-0.5 72.4853 1.5147 74.5 3.99999 74.5H1026C1028.49 74.5 1030.5 72.4853 1030.5 70V4C1030.5 1.51472 1028.49 -0.5 1026 -0.5H4Z" fill="white" stroke="white"/>
</mask>
<g mask="url(#mask0)">
<path fill-rule="evenodd" clip-rule="evenodd" d="M0 0L1030 0V74H0L0 0Z" fill="white"/>
<mask id="mask1" mask-type="alpha" maskUnits="userSpaceOnUse" x="0" y="0" width="1030" height="74">
<path fill-rule="evenodd" clip-rule="evenodd" d="M0 0L1030 0V74H0L0 0Z" fill="white"/>
</mask>
<g mask="url(#mask1)">
<rect opacity="0.01" x="869.65" y="-39.35" width="93.7" height="98.7" fill="#D8D8D8" stroke="#979797" stroke-width="1.3"/>
<path opacity="0.2" fill-rule="evenodd" clip-rule="evenodd" d="M919.753 -40H921.705V-38.0519H919.753V-40ZM921.705 -31.5584H919.753V-29.6104H921.705V-31.5584ZM930.164 -31.5584H928.212V-29.6104H930.164V-31.5584ZM936.671 -31.5584H938.623V-29.6104H936.671V-31.5584ZM947.082 -31.5584H945.13V-29.6104H947.082V-31.5584ZM953.589 -31.5584H955.541V-29.6104H953.589V-31.5584ZM964 -31.5584H962.048V-29.6104H964V-31.5584ZM919.753 -23.1169H921.705V-21.1688H919.753V-23.1169ZM928.212 -23.1169H930.164V-21.1688H928.212V-23.1169ZM938.623 -23.1169H936.671V-21.1688H938.623V-23.1169ZM945.13 -23.1169H947.082V-21.1688H945.13V-23.1169ZM955.541 -23.1169H953.589V-21.1688H955.541V-23.1169ZM962.048 -23.1169H964V-21.1688H962.048V-23.1169ZM928.212 -40H930.164V-38.0519H928.212V-40ZM919.753 -14.6753H921.705V-12.7273H919.753V-14.6753ZM928.212 -14.6753H930.164V-12.7273H928.212V-14.6753ZM938.623 -14.6753H936.671V-12.7273H938.623V-14.6753ZM945.13 -14.6753H947.082V-12.7273H945.13V-14.6753ZM955.541 -14.6753H953.589V-12.7273H955.541V-14.6753ZM962.048 -14.6753H964V-12.7273H962.048V-14.6753ZM936.671 -40H938.623V-38.0519H936.671V-40ZM919.753 -6.23376H921.705V-4.28571H919.753V-6.23376ZM928.212 -6.23376H930.164V-4.28571H928.212V-6.23376ZM938.623 -6.23376H936.671V-4.28571H938.623V-6.23376ZM945.13 -6.23376H947.082V-4.28571H945.13V-6.23376ZM955.541 -6.23376H953.589V-4.28571H955.541V-6.23376ZM962.048 -6.23376H964V-4.28571H962.048V-6.23376ZM945.13 -40H947.082V-38.0519H945.13V-40ZM919.753 2.20779H921.705V4.15584H919.753V2.20779ZM928.212 2.20779H930.164V4.15584H928.212V2.20779ZM938.623 2.20779H936.671V4.15584H938.623V2.20779ZM945.13 2.20779H947.082V4.15584H945.13V2.20779ZM955.541 2.20779H953.589V4.15584H955.541V2.20779ZM962.048 2.20779H964V4.15584H962.048V2.20779ZM953.589 -40H955.541V-38.0519H953.589V-40ZM964 -40H962.048V-38.0519H964V-40ZM870.952 -31.5584H869V-29.6104H870.952V-31.5584ZM879.411 -31.5584H877.459V-29.6104H879.411V-31.5584ZM885.918 -31.5584H887.87V-29.6104H885.918V-31.5584ZM896.329 -31.5584H894.377V-29.6104H896.329V-31.5584ZM902.836 -31.5584H904.788V-29.6104H902.836V-31.5584ZM913.247 -31.5584H911.295V-29.6104H913.247V-31.5584ZM919.753 10.6493H921.705V12.5974H919.753V10.6493ZM921.705 19.0909H919.753V21.039H921.705V19.0909ZM930.164 19.0909H928.212V21.039H930.164V19.0909ZM936.671 19.0909H938.623V21.039H936.671V19.0909ZM947.082 19.0909H945.13V21.039H947.082V19.0909ZM953.589 19.0909H955.541V21.039H953.589V19.0909ZM964 19.0909H962.048V21.039H964V19.0909ZM919.753 27.5325H921.705V29.4805H919.753V27.5325ZM928.212 27.5325H930.164V29.4805H928.212V27.5325ZM938.623 27.5325H936.671V29.4805H938.623V27.5325ZM945.13 27.5325H947.082V29.4805H945.13V27.5325ZM955.541 27.5325H953.589V29.4805H955.541V27.5325ZM962.048 27.5325H964V29.4805H962.048V27.5325ZM928.212 10.6493H930.164V12.5974H928.212V10.6493ZM919.753 35.974H921.705V37.9221H919.753V35.974ZM928.212 35.974H930.164V37.9221H928.212V35.974ZM938.623 35.974H936.671V37.9221H938.623V35.974ZM945.13 35.974H947.082V37.9221H945.13V35.974ZM955.541 35.974H953.589V37.9221H955.541V35.974ZM962.048 35.974H964V37.9221H962.048V35.974ZM936.671 10.6493H938.623V12.5974H936.671V10.6493ZM919.753 44.4156H921.705V46.3636H919.753V44.4156ZM928.212 44.4156H930.164V46.3636H928.212V44.4156ZM938.623 44.4156H936.671V46.3636H938.623V44.4156ZM945.13 44.4156H947.082V46.3636H945.13V44.4156ZM955.541 44.4156H953.589V46.3636H955.541V44.4156ZM962.048 44.4156H964V46.3636H962.048V44.4156ZM945.13 10.6493H947.082V12.5974H945.13V10.6493ZM919.753 52.8571H921.705V54.8052H919.753V52.8571ZM928.212 52.8571H930.164V54.8052H928.212V52.8571ZM938.623 52.8571H936.671V54.8052H938.623V52.8571ZM945.13 52.8571H947.082V54.8052H945.13V52.8571ZM955.541 52.8571H953.589V54.8052H955.541V52.8571ZM962.048 52.8571H964V54.8052H962.048V52.8571ZM953.589 10.6493H955.541V12.5974H953.589V10.6493ZM964 10.6493H962.048V12.5974H964V10.6493ZM870.952 19.0909H869V21.039H870.952V19.0909ZM879.411 19.0909H877.459V21.039H879.411V19.0909ZM885.918 19.0909H887.87V21.039H885.918V19.0909ZM896.329 19.0909H894.377V21.039H896.329V19.0909ZM902.836 19.0909H904.788V21.039H902.836V19.0909ZM913.247 19.0909H911.295V21.039H913.247V19.0909ZM870.952 10.6493H869V12.5974H870.952V10.6493ZM870.952 27.5325H869V29.4805H870.952V27.5325ZM879.411 27.5325H877.459V29.4805H879.411V27.5325ZM885.918 27.5325H887.87V29.4805H885.918V27.5325ZM896.329 27.5325H894.377V29.4805H896.329V27.5325ZM902.836 27.5325H904.788V29.4805H902.836V27.5325ZM913.247 27.5325H911.295V29.4805H913.247V27.5325ZM879.411 10.6493H877.459V12.5974H879.411V10.6493ZM870.952 35.974H869V37.9221H870.952V35.974ZM879.411 35.974H877.459V37.9221H879.411V35.974ZM885.918 35.974H887.87V37.9221H885.918V35.974ZM896.329 35.974H894.377V37.9221H896.329V35.974ZM902.836 35.974H904.788V37.9221H902.836V35.974ZM913.247 35.974H911.295V37.9221H913.247V35.974ZM887.87 10.6493H885.918V12.5974H887.87V10.6493ZM870.952 44.4156H869V46.3636H870.952V44.4156ZM879.411 44.4156H877.459V46.3636H879.411V44.4156ZM885.918 44.4156H887.87V46.3636H885.918V44.4156ZM896.329 44.4156H894.377V46.3636H896.329V44.4156ZM902.836 44.4156H904.788V46.3636H902.836V44.4156ZM913.247 44.4156H911.295V46.3636H913.247V44.4156ZM896.329 10.6493H894.377V12.5974H896.329V10.6493ZM870.952 52.8571H869V54.8052H870.952V52.8571ZM879.411 52.8571H877.459V54.8052H879.411V52.8571ZM885.918 52.8571H887.87V54.8052H885.918V52.8571ZM896.329 52.8571H894.377V54.8052H896.329V52.8571ZM902.836 52.8571H904.788V54.8052H902.836V52.8571ZM913.247 52.8571H911.295V54.8052H913.247V52.8571ZM904.788 10.6493H902.836V12.5974H904.788V10.6493ZM911.295 10.6493H913.247V12.5974H911.295V10.6493ZM869 -40H870.952V-38.0519H869V-40ZM869 -23.1169H870.952V-21.1688H869V-23.1169ZM877.459 -23.1169H879.411V-21.1688H877.459V-23.1169ZM887.87 -23.1169H885.918V-21.1688H887.87V-23.1169ZM894.377 -23.1169H896.329V-21.1688H894.377V-23.1169ZM904.788 -23.1169H902.836V-21.1688H904.788V-23.1169ZM911.295 -23.1169H913.247V-21.1688H911.295V-23.1169ZM877.459 -40H879.411V-38.0519H877.459V-40ZM869 -14.6753H870.952V-12.7273H869V-14.6753ZM877.459 -14.6753H879.411V-12.7273H877.459V-14.6753ZM887.87 -14.6753H885.918V-12.7273H887.87V-14.6753ZM894.377 -14.6753H896.329V-12.7273H894.377V-14.6753ZM904.788 -14.6753H902.836V-12.7273H904.788V-14.6753ZM911.295 -14.6753H913.247V-12.7273H911.295V-14.6753ZM885.918 -40H887.87V-38.0519H885.918V-40ZM869 -6.23376H870.952V-4.28571H869V-6.23376ZM877.459 -6.23376H879.411V-4.28571H877.459V-6.23376ZM887.87 -6.23376H885.918V-4.28571H887.87V-6.23376ZM894.377 -6.23376H896.329V-4.28571H894.377V-6.23376ZM904.788 -6.23376H902.836V-4.28571H904.788V-6.23376ZM911.295 -6.23376H913.247V-4.28571H911.295V-6.23376ZM894.377 -40H896.329V-38.0519H894.377V-40ZM869 2.20779H870.952V4.15584H869V2.20779ZM877.459 2.20779H879.411V4.15584H877.459V2.20779ZM887.87 2.20779H885.918V4.15584H887.87V2.20779ZM894.377 2.20779H896.329V4.15584H894.377V2.20779ZM904.788 2.20779H902.836V4.15584H904.788V2.20779ZM911.295 2.20779H913.247V4.15584H911.295V2.20779ZM902.836 -40H904.788V-38.0519H902.836V-40ZM913.247 -40H911.295V-38.0519H913.247V-40Z" fill="#008CD5"/>
<path fill-rule="evenodd" clip-rule="evenodd" d="M747 192C788.974 192 823 157.974 823 116C823 74.0264 788.974 40 747 40C705.026 40 671 74.0264 671 116C671 157.974 705.026 192 747 192Z" fill="#F0F8FC"/>
<path fill-rule="evenodd" clip-rule="evenodd" d="M464 137V33H285L464 137Z" fill="#F0F8FC"/>
<rect opacity="0.01" x="416.65" y="-4.35" width="93.7" height="98.7" fill="#D8D8D8" stroke="#979797" stroke-width="1.3"/>
<path opacity="0.2" fill-rule="evenodd" clip-rule="evenodd" d="M466.753 -5H468.705V-3.05195H466.753V-5ZM468.705 3.44156H466.753V5.38961H468.705V3.44156ZM477.164 3.44156H475.212V5.38961H477.164V3.44156ZM483.671 3.44156H485.623V5.38961H483.671V3.44156ZM494.082 3.44156H492.13V5.38961H494.082V3.44156ZM500.589 3.44156H502.541V5.38961H500.589V3.44156ZM511 3.44156H509.048V5.38961H511V3.44156ZM466.753 11.8831H468.705V13.8312H466.753V11.8831ZM475.212 11.8831H477.164V13.8312H475.212V11.8831ZM485.623 11.8831H483.671V13.8312H485.623V11.8831ZM492.13 11.8831H494.082V13.8312H492.13V11.8831ZM502.541 11.8831H500.589V13.8312H502.541V11.8831ZM509.048 11.8831H511V13.8312H509.048V11.8831ZM475.212 -5H477.164V-3.05195H475.212V-5ZM466.753 20.3247H468.705V22.2727H466.753V20.3247ZM475.212 20.3247H477.164V22.2727H475.212V20.3247ZM485.623 20.3247H483.671V22.2727H485.623V20.3247ZM492.13 20.3247H494.082V22.2727H492.13V20.3247ZM502.541 20.3247H500.589V22.2727H502.541V20.3247ZM509.048 20.3247H511V22.2727H509.048V20.3247ZM483.671 -5H485.623V-3.05195H483.671V-5ZM466.753 28.7662H468.705V30.7143H466.753V28.7662ZM475.212 28.7662H477.164V30.7143H475.212V28.7662ZM485.623 28.7662H483.671V30.7143H485.623V28.7662ZM492.13 28.7662H494.082V30.7143H492.13V28.7662ZM502.541 28.7662H500.589V30.7143H502.541V28.7662ZM509.048 28.7662H511V30.7143H509.048V28.7662ZM492.13 -5H494.082V-3.05195H492.13V-5ZM466.753 37.2078H468.705V39.1558H466.753V37.2078ZM475.212 37.2078H477.164V39.1558H475.212V37.2078ZM485.623 37.2078H483.671V39.1558H485.623V37.2078ZM492.13 37.2078H494.082V39.1558H492.13V37.2078ZM502.541 37.2078H500.589V39.1558H502.541V37.2078ZM509.048 37.2078H511V39.1558H509.048V37.2078ZM500.589 -5H502.541V-3.05195H500.589V-5ZM511 -5H509.048V-3.05195H511V-5ZM417.952 3.44156H416V5.38961H417.952V3.44156ZM426.411 3.44156H424.459V5.38961H426.411V3.44156ZM432.918 3.44156H434.87V5.38961H432.918V3.44156ZM443.329 3.44156H441.377V5.38961H443.329V3.44156ZM449.836 3.44156H451.788V5.38961H449.836V3.44156ZM460.247 3.44156H458.295V5.38961H460.247V3.44156ZM466.753 45.6493H468.705V47.5974H466.753V45.6493ZM468.705 54.0909H466.753V56.039H468.705V54.0909ZM477.164 54.0909H475.212V56.039H477.164V54.0909ZM483.671 54.0909H485.623V56.039H483.671V54.0909ZM494.082 54.0909H492.13V56.039H494.082V54.0909ZM500.589 54.0909H502.541V56.039H500.589V54.0909ZM511 54.0909H509.048V56.039H511V54.0909ZM466.753 62.5325H468.705V64.4805H466.753V62.5325ZM475.212 62.5325H477.164V64.4805H475.212V62.5325ZM485.623 62.5325H483.671V64.4805H485.623V62.5325ZM492.13 62.5325H494.082V64.4805H492.13V62.5325ZM502.541 62.5325H500.589V64.4805H502.541V62.5325ZM509.048 62.5325H511V64.4805H509.048V62.5325ZM475.212 45.6493H477.164V47.5974H475.212V45.6493ZM466.753 70.974H468.705V72.9221H466.753V70.974ZM475.212 70.974H477.164V72.9221H475.212V70.974ZM485.623 70.974H483.671V72.9221H485.623V70.974ZM492.13 70.974H494.082V72.9221H492.13V70.974ZM502.541 70.974H500.589V72.9221H502.541V70.974ZM509.048 70.974H511V72.9221H509.048V70.974ZM483.671 45.6493H485.623V47.5974H483.671V45.6493ZM466.753 79.4156H468.705V81.3636H466.753V79.4156ZM475.212 79.4156H477.164V81.3636H475.212V79.4156ZM485.623 79.4156H483.671V81.3636H485.623V79.4156ZM492.13 79.4156H494.082V81.3636H492.13V79.4156ZM502.541 79.4156H500.589V81.3636H502.541V79.4156ZM509.048 79.4156H511V81.3636H509.048V79.4156ZM492.13 45.6493H494.082V47.5974H492.13V45.6493ZM466.753 87.8571H468.705V89.8052H466.753V87.8571ZM475.212 87.8571H477.164V89.8052H475.212V87.8571ZM485.623 87.8571H483.671V89.8052H485.623V87.8571ZM492.13 87.8571H494.082V89.8052H492.13V87.8571ZM502.541 87.8571H500.589V89.8052H502.541V87.8571ZM509.048 87.8571H511V89.8052H509.048V87.8571ZM500.589 45.6493H502.541V47.5974H500.589V45.6493ZM511 45.6493H509.048V47.5974H511V45.6493ZM417.952 54.0909H416V56.039H417.952V54.0909ZM426.411 54.0909H424.459V56.039H426.411V54.0909ZM432.918 54.0909H434.87V56.039H432.918V54.0909ZM443.329 54.0909H441.377V56.039H443.329V54.0909ZM449.836 54.0909H451.788V56.039H449.836V54.0909ZM460.247 54.0909H458.295V56.039H460.247V54.0909ZM417.952 45.6493H416V47.5974H417.952V45.6493ZM417.952 62.5325H416V64.4805H417.952V62.5325ZM426.411 62.5325H424.459V64.4805H426.411V62.5325ZM432.918 62.5325H434.87V64.4805H432.918V62.5325ZM443.329 62.5325H441.377V64.4805H443.329V62.5325ZM449.836 62.5325H451.788V64.4805H449.836V62.5325ZM460.247 62.5325H458.295V64.4805H460.247V62.5325ZM426.411 45.6493H424.459V47.5974H426.411V45.6493ZM417.952 70.974H416V72.9221H417.952V70.974ZM426.411 70.974H424.459V72.9221H426.411V70.974ZM432.918 70.974H434.87V72.9221H432.918V70.974ZM443.329 70.974H441.377V72.9221H443.329V70.974ZM449.836 70.974H451.788V72.9221H449.836V70.974ZM460.247 70.974H458.295V72.9221H460.247V70.974ZM434.87 45.6493H432.918V47.5974H434.87V45.6493ZM417.952 79.4156H416V81.3636H417.952V79.4156ZM426.411 79.4156H424.459V81.3636H426.411V79.4156ZM432.918 79.4156H434.87V81.3636H432.918V79.4156ZM443.329 79.4156H441.377V81.3636H443.329V79.4156ZM449.836 79.4156H451.788V81.3636H449.836V79.4156ZM460.247 79.4156H458.295V81.3636H460.247V79.4156ZM443.329 45.6493H441.377V47.5974H443.329V45.6493ZM417.952 87.8571H416V89.8052H417.952V87.8571ZM426.411 87.8571H424.459V89.8052H426.411V87.8571ZM432.918 87.8571H434.87V89.8052H432.918V87.8571ZM443.329 87.8571H441.377V89.8052H443.329V87.8571ZM449.836 87.8571H451.788V89.8052H449.836V87.8571ZM460.247 87.8571H458.295V89.8052H460.247V87.8571ZM451.788 45.6493H449.836V47.5974H451.788V45.6493ZM458.295 45.6493H460.247V47.5974H458.295V45.6493ZM416 -5H417.952V-3.05195H416V-5ZM416 11.8831H417.952V13.8312H416V11.8831ZM424.459 11.8831H426.411V13.8312H424.459V11.8831ZM434.87 11.8831H432.918V13.8312H434.87V11.8831ZM441.377 11.8831H443.329V13.8312H441.377V11.8831ZM451.788 11.8831H449.836V13.8312H451.788V11.8831ZM458.295 11.8831H460.247V13.8312H458.295V11.8831ZM424.459 -5H426.411V-3.05195H424.459V-5ZM416 20.3247H417.952V22.2727H416V20.3247ZM424.459 20.3247H426.411V22.2727H424.459V20.3247ZM434.87 20.3247H432.918V22.2727H434.87V20.3247ZM441.377 20.3247H443.329V22.2727H441.377V20.3247ZM451.788 20.3247H449.836V22.2727H451.788V20.3247ZM458.295 20.3247H460.247V22.2727H458.295V20.3247ZM432.918 -5H434.87V-3.05195H432.918V-5ZM416 28.7662H417.952V30.7143H416V28.7662ZM424.459 28.7662H426.411V30.7143H424.459V28.7662ZM434.87 28.7662H432.918V30.7143H434.87V28.7662ZM441.377 28.7662H443.329V30.7143H441.377V28.7662ZM451.788 28.7662H449.836V30.7143H451.788V28.7662ZM458.295 28.7662H460.247V30.7143H458.295V28.7662ZM441.377 -5H443.329V-3.05195H441.377V-5ZM416 37.2078H417.952V39.1558H416V37.2078ZM424.459 37.2078H426.411V39.1558H424.459V37.2078ZM434.87 37.2078H432.918V39.1558H434.87V37.2078ZM441.377 37.2078H443.329V39.1558H441.377V37.2078ZM451.788 37.2078H449.836V39.1558H451.788V37.2078ZM458.295 37.2078H460.247V39.1558H458.295V37.2078ZM449.836 -5H451.788V-3.05195H449.836V-5ZM460.247 -5H458.295V-3.05195H460.247V-5Z" fill="#008CD5"/>
<path fill-rule="evenodd" clip-rule="evenodd" d="M68 112C109.974 112 144 77.9736 144 36C144 -5.97364 109.974 -40 68 -40C26.0264 -40 -8 -5.97364 -8 36C-8 77.9736 26.0264 112 68 112Z" fill="#F0F8FC"/>
</g>
</g>
</svg>