<?xml version="1.0" encoding="UTF-8"?>
<svg width="79px" height="112px" viewBox="0 0 79 112" version="1.1" xmlns="http://www.w3.org/2000/svg" xmlns:xlink="http://www.w3.org/1999/xlink">
    <!-- Generator: Sketch 52.5 (67469) - http://www.bohemiancoding.com/sketch -->
    <title>Pages/page-3</title>
    <desc>Created with Sketch.</desc>
    <g id="Pages/page-3" stroke="none" stroke-width="1" fill="none" fill-rule="evenodd">
        <g id="3">
            <g id="Checkout/_Overrides/Cover-small" fill="#FFFFFF" stroke="#718894">
                <path d="M-15.5,17.5 L-15.5,94.5 L94.5,94.5 L94.5,17.5 L-15.5,17.5 Z" id="Rectangle" stroke-opacity="0.117442255" stroke-width="2" transform="translate(39.500000, 56.000000) rotate(-270.000000) translate(-39.500000, -56.000000) "></path>
                <path d="M-12.0017965,21.0017965 L-12.0017965,90.9982035 L90.9982035,90.9982035 L90.9982035,21.0017965 L-12.0017965,21.0017965 Z" id="Rectangle" stroke-opacity="0.360394022" stroke-width="1" transform="translate(39.498204, 56.000000) rotate(-270.000000) translate(-39.498204, -56.000000) "></path>
            </g>
            <path d="M12,16 L68.6565657,16 L68.6565657,18.4042553 L12,18.4042553 L12,16 Z M12,37.6382979 L43.9191919,37.6382979 L43.9191919,40.0425532 L12,40.0425532 L12,37.6382979 Z M12,20.8085106 L68.6565657,20.8085106 L68.6565657,23.212766 L12,23.212766 L12,20.8085106 Z M12,25.6170213 L68.6565657,25.6170213 L68.6565657,28.0212766 L12,28.0212766 L12,25.6170213 Z M12,30.4255319 L68.6565657,30.4255319 L68.6565657,32.8297872 L12,32.8297872 L12,30.4255319 Z M12,80.9148936 L68.6565657,80.9148936 L68.6565657,83.3191489 L12,83.3191489 L12,80.9148936 Z M12,42.4468085 L68.6565657,42.4468085 L68.6565657,44.8510638 L12,44.8510638 L12,42.4468085 Z M12,47.2553191 L68.6565657,47.2553191 L68.6565657,49.6595745 L12,49.6595745 L12,47.2553191 Z M12,61.6808511 L68.6565657,61.6808511 L68.6565657,64.0851064 L12,64.0851064 L12,61.6808511 Z M12,66.4893617 L68.6565657,66.4893617 L68.6565657,68.893617 L12,68.893617 L12,66.4893617 Z M12,71.2978723 L68.6565657,71.2978723 L68.6565657,73.7021277 L12,73.7021277 L12,71.2978723 Z M12,76.106383 L68.6565657,76.106383 L68.6565657,78.5106383 L12,78.5106383 L12,76.106383 Z M12,52.0638298 L68.6565657,52.0638298 L68.6565657,54.4680851 L12,54.4680851 L12,52.0638298 Z M12,85.7234043 L68.6565657,85.7234043 L68.6565657,88.1276596 L12,88.1276596 L12,85.7234043 Z M12,90.5319149 L68.6565657,90.5319149 L68.6565657,92.9361702 L12,92.9361702 L12,90.5319149 Z M12,95.3404255 L68.6565657,95.3404255 L68.6565657,97.7446809 L12,97.7446809 L12,95.3404255 Z M12,56.8723404 L68.6565657,56.8723404 L68.6565657,59.2765957 L12,59.2765957 L12,56.8723404 Z" id="Combined-Shape" fill="#CDD5D8"></path>
        </g>
    </g>
</svg>