<?xml version="1.0" encoding="UTF-8"?>
<svg width="79px" height="112px" viewBox="0 0 79 112" version="1.1" xmlns="http://www.w3.org/2000/svg" xmlns:xlink="http://www.w3.org/1999/xlink">
    <!-- Generator: Sketch 52.5 (67469) - http://www.bohemiancoding.com/sketch -->
    <title>Pages/page-5</title>
    <desc>Created with Sketch.</desc>
    <g id="Pages/page-5" stroke="none" stroke-width="1" fill="none" fill-rule="evenodd">
        <g id="5">
            <g id="Checkout/_Overrides/Cover-small" fill="#FFFFFF" stroke="#718894">
                <path d="M-15.5,17.5 L-15.5,94.5 L94.5,94.5 L94.5,17.5 L-15.5,17.5 Z" id="Rectangle" stroke-opacity="0.117442255" stroke-width="2" transform="translate(39.500000, 56.000000) rotate(-270.000000) translate(-39.500000, -56.000000) "></path>
                <path d="M-12.0017965,21.0017965 L-12.0017965,90.9982035 L90.9982035,90.9982035 L90.9982035,21.0017965 L-12.0017965,21.0017965 Z" id="Rectangle" stroke-opacity="0.360394022" stroke-width="1" transform="translate(39.498204, 56.000000) rotate(-270.000000) translate(-39.498204, -56.000000) "></path>
            </g>
            <path d="M11.3434343,16 L43.2626263,16 L43.2626263,18.4042553 L11.3434343,18.4042553 L11.3434343,16 Z M11.3434343,37.6382979 L43.2626263,37.6382979 L43.2626263,40.0425532 L11.3434343,40.0425532 L11.3434343,37.6382979 Z M11.3434343,76.106383 L43.2626263,76.106383 L43.2626263,78.5106383 L11.3434343,78.5106383 L11.3434343,76.106383 Z M11.3434343,20.8085106 L68,20.8085106 L68,23.212766 L11.3434343,23.212766 L11.3434343,20.8085106 Z M11.3434343,25.6170213 L68,25.6170213 L68,28.0212766 L11.3434343,28.0212766 L11.3434343,25.6170213 Z M11.3434343,30.4255319 L68,30.4255319 L68,32.8297872 L11.3434343,32.8297872 L11.3434343,30.4255319 Z M11.3434343,80.9148936 L68,80.9148936 L68,83.3191489 L11.3434343,83.3191489 L11.3434343,80.9148936 Z M11.3434343,42.4468085 L68,42.4468085 L68,44.8510638 L11.3434343,44.8510638 L11.3434343,42.4468085 Z M11.3434343,47.2553191 L68,47.2553191 L68,49.6595745 L11.3434343,49.6595745 L11.3434343,47.2553191 Z M11.3434343,61.6808511 L68,61.6808511 L68,64.0851064 L11.3434343,64.0851064 L11.3434343,61.6808511 Z M11.3434343,66.4893617 L68,66.4893617 L68,68.893617 L11.3434343,68.893617 L11.3434343,66.4893617 Z M11.3434343,52.0638298 L68,52.0638298 L68,54.4680851 L11.3434343,54.4680851 L11.3434343,52.0638298 Z M11.3434343,85.7234043 L68,85.7234043 L68,88.1276596 L11.3434343,88.1276596 L11.3434343,85.7234043 Z M11.3434343,90.5319149 L68,90.5319149 L68,92.9361702 L11.3434343,92.9361702 L11.3434343,90.5319149 Z M11.3434343,95.3404255 L68,95.3404255 L68,97.7446809 L11.3434343,97.7446809 L11.3434343,95.3404255 Z M11.3434343,56.8723404 L68,56.8723404 L68,59.2765957 L11.3434343,59.2765957 L11.3434343,56.8723404 Z" id="Combined-Shape" fill="#CDD5D8"></path>
        </g>
    </g>
</svg>