<?xml version="1.0" encoding="UTF-8"?>
<svg width="79px" height="112px" viewBox="0 0 79 112" version="1.1" xmlns="http://www.w3.org/2000/svg" xmlns:xlink="http://www.w3.org/1999/xlink">
    <!-- Generator: Sketch 52.5 (67469) - http://www.bohemiancoding.com/sketch -->
    <title>Pages/page-6</title>
    <desc>Created with Sketch.</desc>
    <g id="Pages/page-6" stroke="none" stroke-width="1" fill="none" fill-rule="evenodd">
        <g id="6">
            <g id="Checkout/_Overrides/Cover-small" fill="#FFFFFF" stroke="#718894">
                <path d="M-15.5,17.5 L-15.5,94.5 L94.5,94.5 L94.5,17.5 L-15.5,17.5 Z" id="Rectangle" stroke-opacity="0.117442255" stroke-width="2" transform="translate(39.500000, 56.000000) rotate(-270.000000) translate(-39.500000, -56.000000) "></path>
                <path d="M-12.0017965,21.0017965 L-12.0017965,90.9982035 L90.9982035,90.9982035 L90.9982035,21.0017965 L-12.0017965,21.0017965 Z" id="Rectangle" stroke-opacity="0.360394022" stroke-width="1" transform="translate(39.498204, 56.000000) rotate(-270.000000) translate(-39.498204, -56.000000) "></path>
            </g>
            <path d="M10.3434343,16 L67,16 L67,18.4042553 L10.3434343,18.4042553 L10.3434343,16 Z M10.3434343,33.6312057 L42.2626263,33.6312057 L42.2626263,36.035461 L10.3434343,36.035461 L10.3434343,33.6312057 Z M10.3434343,20.8085106 L67,20.8085106 L67,23.212766 L10.3434343,23.212766 L10.3434343,20.8085106 Z M10.3434343,25.6170213 L67,25.6170213 L67,28.0212766 L10.3434343,28.0212766 L10.3434343,25.6170213 Z M10.3434343,80.9148936 L67,80.9148936 L67,83.3191489 L10.3434343,83.3191489 L10.3434343,80.9148936 Z M10.3434343,38.4397163 L67,38.4397163 L67,40.8439716 L10.3434343,40.8439716 L10.3434343,38.4397163 Z M10.3434343,47.2553191 L42.2626263,47.2553191 L42.2626263,49.6595745 L10.3434343,49.6595745 L10.3434343,47.2553191 Z M10.3434343,61.6808511 L67,61.6808511 L67,64.0851064 L10.3434343,64.0851064 L10.3434343,61.6808511 Z M10.3434343,66.4893617 L67,66.4893617 L67,68.893617 L10.3434343,68.893617 L10.3434343,66.4893617 Z M10.3434343,71.2978723 L67,71.2978723 L67,73.7021277 L10.3434343,73.7021277 L10.3434343,71.2978723 Z M10.3434343,76.106383 L67,76.106383 L67,78.5106383 L10.3434343,78.5106383 L10.3434343,76.106383 Z M10.3434343,52.0638298 L67,52.0638298 L67,54.4680851 L10.3434343,54.4680851 L10.3434343,52.0638298 Z M10.3434343,85.7234043 L67,85.7234043 L67,88.1276596 L10.3434343,88.1276596 L10.3434343,85.7234043 Z M10.3434343,90.5319149 L67,90.5319149 L67,92.9361702 L10.3434343,92.9361702 L10.3434343,90.5319149 Z M10.3434343,95.3404255 L67,95.3404255 L67,97.7446809 L10.3434343,97.7446809 L10.3434343,95.3404255 Z M10.3434343,56.8723404 L67,56.8723404 L67,59.2765957 L10.3434343,59.2765957 L10.3434343,56.8723404 Z" id="Combined-Shape" fill="#CDD5D8"></path>
        </g>
    </g>
</svg>