<?xml version="1.0" encoding="UTF-8"?>
<svg width="79px" height="112px" viewBox="0 0 79 112" version="1.1" xmlns="http://www.w3.org/2000/svg" xmlns:xlink="http://www.w3.org/1999/xlink">
    <!-- Generator: Sketch 52.5 (67469) - http://www.bohemiancoding.com/sketch -->
    <title>Pages/page-9-active</title>
    <desc>Created with Sketch.</desc>
    <g id="Pages/page-9-active" stroke="none" stroke-width="1" fill="none" fill-rule="evenodd">
        <g id="Checkout/_Overrides/Cover-small" fill="#FFFFFF" stroke="#718894">
            <path d="M-15.5,17.5 L-15.5,94.5 L94.5,94.5 L94.5,17.5 L-15.5,17.5 Z" id="Rectangle" stroke-opacity="0.117442255" stroke-width="2" transform="translate(39.500000, 56.000000) rotate(-270.000000) translate(-39.500000, -56.000000) "></path>
            <path d="M-12.0017965,21.0017965 L-12.0017965,90.9982035 L90.9982035,90.9982035 L90.9982035,21.0017965 L-12.0017965,21.0017965 Z" id="Rectangle" stroke-opacity="0.360394022" stroke-width="1" transform="translate(39.498204, 56.000000) rotate(-270.000000) translate(-39.498204, -56.000000) "></path>
        </g>
        <path d="M12,16 L68.6565657,16 L68.6565657,18.4042553 L12,18.4042553 L12,16 Z M12,37.6382979 L43.9191919,37.6382979 L43.9191919,40.0425532 L12,40.0425532 L12,37.6382979 Z M12,66.4893617 L43.9191919,66.4893617 L43.9191919,68.893617 L12,68.893617 L12,66.4893617 Z M12,71.2978723 L43.9191919,71.2978723 L43.9191919,73.7021277 L12,73.7021277 L12,71.2978723 Z M12,76.106383 L43.9191919,76.106383 L43.9191919,78.5106383 L12,78.5106383 L12,76.106383 Z M12,20.8085106 L68.6565657,20.8085106 L68.6565657,23.212766 L12,23.212766 L12,20.8085106 Z M12,25.6170213 L68.6565657,25.6170213 L68.6565657,28.0212766 L12,28.0212766 L12,25.6170213 Z M12,30.4255319 L68.6565657,30.4255319 L68.6565657,32.8297872 L12,32.8297872 L12,30.4255319 Z M12,42.4468085 L68.6565657,42.4468085 L68.6565657,44.8510638 L12,44.8510638 L12,42.4468085 Z M12,47.2553191 L68.6565657,47.2553191 L68.6565657,49.6595745 L12,49.6595745 L12,47.2553191 Z M12,52.0638298 L68.6565657,52.0638298 L68.6565657,54.4680851 L12,54.4680851 L12,52.0638298 Z M12,56.8723404 L68.6565657,56.8723404 L68.6565657,59.2765957 L12,59.2765957 L12,56.8723404 Z" id="Combined-Shape" fill="#718894"></path>
        <path d="M61.5472341,92.037713 C60.1432115,92.037713 59.0049311,93.1901366 59.0049311,94.6094524 C59.0049311,96.0273178 60.1432115,97.1804666 61.5472341,97.1804666 C62.9512567,97.1804666 64.0902543,96.0273178 64.0902543,94.6094524 C64.0902543,93.1901366 62.9512567,92.037713 61.5472341,92.037713 Z M64.3208511,99.467545 L64.6518634,97.7487006 L66.3517528,97.41436 L65.7883506,95.7586124 L67.0955441,94.6098151 L65.7883506,93.4602925 L66.3517528,91.8052702 L64.6518634,91.4702043 L64.3208511,89.7520851 L62.68408,90.321407 L61.5475927,89 L60.4114641,90.321407 L58.7743343,89.7520851 L58.4433221,91.4702043 L56.7434327,91.8052702 L57.3068348,93.4602925 L56,94.6098151 L57.3068348,95.7586124 L56.7434327,97.41436 L58.4433221,97.7487006 L58.7743343,99.467545 L60.4114641,98.8974979 L61.5475927,100.219267 L62.68408,98.8974979 L64.3208511,99.467545 Z M58.0868474,94.6094524 C58.0868474,92.676659 59.6368309,91.1108425 61.5472341,91.1108425 C63.4590718,91.1108425 65.0076208,92.676659 65.0076208,94.6094524 C65.0076208,96.5407954 63.4590718,98.1073371 61.5472341,98.1073371 C59.6368309,98.1076997 58.0868474,96.5407954 58.0868474,94.6094524 Z" id="Shape" fill="#718894" fill-rule="nonzero"></path>
    </g>
</svg>