<svg width="64" height="64" viewBox="0 0 64 64" fill="none" xmlns="http://www.w3.org/2000/svg">
<path d="M19.312 17.875L23.2279 15.7311L33.7616 21.4436C35.9724 22.6376 35.5389 23.3703 34.5563 23.8995L34.4697 23.9538C33.5882 24.4423 32.0855 24.795 29.8458 23.5739L19.312 17.8614M28.343 12.936L31.5508 11.1856L41.5355 16.5995C43.3273 17.5629 43.1683 18.2142 42.2724 18.7027L42.2146 18.7434C41.3621 19.2047 40.105 19.3268 38.3277 18.3635L28.343 12.9495M49.3238 15.2019L28.1263 3.70923L5.35371 16.1382L26.6669 27.6852C34.0217 31.6744 39.1658 31.1995 42.7493 29.2456L43.125 29.0421C47.1275 26.8575 45.3069 24.4015 43.7896 23.0447C45.6103 23.6688 49.2805 24.2659 52.1271 22.7055L52.4594 22.5155C55.0603 21.0908 55.884 18.7434 49.3094 15.1748" fill="url(#paint0_linear_2335_4458)"/>
<path d="M12.5207 33.7504V29.4898L22.5776 34.9309C24.5428 36.0028 25.2219 37.2919 25.2219 38.4588V38.4859C25.2219 39.6799 24.4994 40.2227 22.5632 39.1779L12.5207 33.7368M24.6295 30.019L3.8076 18.7434L3.73535 43.4792L12.4774 48.2283L12.5063 39.7478L20.887 44.2933C24.3405 46.1658 25.5398 48.2825 25.5253 51.1048V53.995C25.5253 54.7005 25.5687 55.0533 25.7854 55.4468L34.7153 60.2909V60.128C34.4986 59.5853 34.2818 58.8254 34.2963 57.1022V53.4522C34.3107 50.2636 32.4467 47.2513 29.6146 45.0125C31.3485 45.5145 34.2385 45.5959 34.2529 42.0002V41.6338C34.2529 37.6175 31.3196 33.6826 24.6295 30.0597" fill="url(#paint1_linear_2335_4458)"/>
<path d="M59.736 22.3075L52.4552 26.562L48.4177 36.052L44.2743 31.36L36.4375 35.9459L43.6653 43.4875L36.411 60.1611L43.7977 55.8403L48.1794 45.7009L52.7332 50.6049L60.2655 46.1913L52.8788 37.9871L59.7228 22.2942" fill="url(#paint2_linear_2335_4458)"/>
<defs>
<linearGradient id="paint0_linear_2335_4458" x1="-15.5" y1="11.5" x2="120.692" y2="73.4725" gradientUnits="userSpaceOnUse">
<stop stop-color="#BD00EC"/>
<stop offset="0.719601" stop-color="#5C41FF"/>
</linearGradient>
<linearGradient id="paint1_linear_2335_4458" x1="-15.5" y1="11.5" x2="120.692" y2="73.4725" gradientUnits="userSpaceOnUse">
<stop stop-color="#BD00EC"/>
<stop offset="0.719601" stop-color="#5C41FF"/>
</linearGradient>
<linearGradient id="paint2_linear_2335_4458" x1="-15.5" y1="11.5" x2="120.692" y2="73.4725" gradientUnits="userSpaceOnUse">
<stop stop-color="#BD00EC"/>
<stop offset="0.719601" stop-color="#5C41FF"/>
</linearGradient>
</defs>
</svg>
