<?xml version="1.0" encoding="UTF-8"?>
<svg width="44px" height="44px" viewBox="0 0 44 44" version="1.1" xmlns="http://www.w3.org/2000/svg" xmlns:xlink="http://www.w3.org/1999/xlink">
    <!-- Generator: Sketch 52.5 (67469) - http://www.bohemiancoding.com/sketch -->
    <title>Buttons/arrow-circle</title>
    <desc>Created with Sketch.</desc>
    <g id="Buttons/arrow-circle" stroke="none" stroke-width="1" fill="none" fill-rule="evenodd">
        <circle id="Oval" stroke="#728893" fill="#FFFFFF" opacity="0.2" cx="22" cy="22" r="21.5"></circle>
        <g id="Icons/arrow-right-blue" transform="translate(16.000000, 16.000000)">
            <rect id="Rectangle" stroke="#979797" stroke-width="1" fill="#D8D8D8" opacity="0" x="0.5" y="0.5" width="11" height="11"></rect>
            <path d="M8.77531463,5.78082837 L5.03066884,1.91003191 C4.78308895,1.65516465 4.39624537,1.65516465 4.14866549,1.91003191 C4.02487554,2.03746554 3.96298057,2.19675757 3.96298057,2.35604961 C3.96298057,2.51534164 4.02487554,2.67463368 4.14866549,2.80206731 L7.47552022,6.22684607 L4.16413923,9.63569563 C4.04034929,9.76312926 3.97845431,9.92242129 3.97845431,10.0817133 C3.97845431,10.2410054 4.04034929,10.4002974 4.16413923,10.527731 C4.41171912,10.7825983 4.79856269,10.7825983 5.04614258,10.527731 L8.79078838,6.67286377 C9.02289452,6.43392572 9.02289452,6.01976642 8.77531463,5.78082837 Z" id="Combined-Shape" fill="#008CD5"></path>
        </g>
    </g>
</svg>