<?xml version="1.0" encoding="UTF-8"?>
<svg width="96px" height="96px" viewBox="0 0 96 96" version="1.1" xmlns="http://www.w3.org/2000/svg" xmlns:xlink="http://www.w3.org/1999/xlink">
    <!-- Generator: Sketch 52.5 (67469) - http://www.bohemiancoding.com/sketch -->
    <title>Buttons/play-video</title>
    <desc>Created with Sketch.</desc>
    <g id="Buttons/play-video" stroke="none" stroke-width="1" fill="none" fill-rule="evenodd">
        <path d="M48,0 C21.5282293,0 0,21.52832 0,48 C0,74.47168 21.5282293,96 48,96 C74.4717824,96 96,74.47168 96,48 C96,21.52832 74.4717824,0 48,0 Z" id="Path" fill="#008CD5" fill-rule="nonzero"></path>
        <path d="M42.1578947,35 C41.2913918,35 40.0963674,35.484337 39.5723684,36.3039773 C39.1298103,37.0754501 39,37.7642999 39,38.6818182 L39,58.3181818 C39,59.2356909 39.1298103,59.9245591 39.5723684,60.6960227 C40.0963674,61.5156568 41.2913918,62 42.1578947,62 C43.5024423,62 44.5985312,61.3486557 45.7302632,60.7535511 C49.8241857,58.5266034 57.5740011,53.9771648 60.4736842,52.162642 C62.3686074,50.961142 63,49.8684705 63,48.5 C63,47.1315621 62.3686074,46.0388494 60.4736842,44.837358 C57.5740011,43.0228285 49.8241857,38.4733806 45.7302632,36.2464489 C44.5985312,35.6513026 43.5024423,35 42.1578947,35 Z" id="Path" fill="#FFFFFF" fill-rule="nonzero"></path>
    </g>
</svg>