<?xml version="1.0" encoding="UTF-8"?>
<svg width="50px" height="50px" viewBox="0 0 50 50" version="1.1" xmlns="http://www.w3.org/2000/svg" xmlns:xlink="http://www.w3.org/1999/xlink">
    <!-- Generator: Sketch 52.5 (67469) - http://www.bohemiancoding.com/sketch -->
    <title>Buttons/play-video-small</title>
    <desc>Created with Sketch.</desc>
    <g id="Buttons/play-video-small" stroke="none" stroke-width="1" fill="none" fill-rule="evenodd">
        <path d="M25,0 C11.2126194,0 0,11.2126667 0,25 C0,38.7873333 11.2126194,50 25,50 C38.7873867,50 50,38.7873333 50,25 C50,11.2126667 38.7873867,0 25,0 Z" id="Path" fill="#008CD5" fill-rule="nonzero"></path>
        <path d="M21.754386,17.5 C21.2729954,17.5 20.609093,17.7690761 20.3179825,18.2244318 C20.0721168,18.6530278 20,19.0357222 20,19.5454545 L20,30.4545455 C20,30.9642727 20.0721168,31.3469773 20.3179825,31.7755682 C20.609093,32.2309205 21.2729954,32.5 21.754386,32.5 C22.5013568,32.5 23.1102951,32.138142 23.7390351,31.8075284 C26.0134365,30.5703352 30.3188895,28.0428693 31.9298246,27.0348011 C32.9825596,26.3673011 33.3333333,25.7602614 33.3333333,25 C33.3333333,24.2397567 32.9825596,23.6326941 31.9298246,22.9651989 C30.3188895,21.9571269 26.0134365,19.4296559 23.7390351,18.1924716 C23.1102951,17.8618348 22.5013568,17.5 21.754386,17.5 Z" id="Path" fill="#FFFFFF" fill-rule="nonzero"></path>
    </g>
</svg>