<svg width="32" height="35" viewBox="0 0 32 35" fill="none" xmlns="http://www.w3.org/2000/svg">
<path d="M8.79465 8.65064L11.0055 7.34145L16.9526 10.8299C18.2008 11.5591 17.956 12.0065 17.4013 12.3297L17.3523 12.3628C16.8547 12.6611 16.0063 12.8765 14.7418 12.1308L8.79465 8.64236M13.8934 5.63452L15.7044 4.56562L21.3416 7.87175C22.3532 8.46006 22.2634 8.8578 21.7576 9.15609L21.725 9.18095C21.2437 9.46268 20.5339 9.53725 19.5305 8.94894L13.8934 5.64281M25.7387 7.01829L13.771 0L0.914062 7.59003L12.947 14.6415C17.0994 17.0776 20.0037 16.7876 22.0268 15.5944L22.239 15.4701C24.4987 14.136 23.4708 12.6362 22.6142 11.8076C23.6421 12.1888 25.7142 12.5534 27.3214 11.6005L27.509 11.4845C28.9774 10.6144 29.4424 9.18095 25.7306 7.00172" fill="#0C0C0C"/>
<path d="M4.96004 18.3455V15.7437L10.638 19.0664C11.7475 19.721 12.1309 20.5082 12.1309 21.2208V21.2374C12.1309 21.9665 11.723 22.298 10.6298 21.66L4.96004 18.3372M11.7964 16.0669L0.0407898 9.18115L0 24.2866L4.93556 27.1868L4.95188 22.008L9.68349 24.7838C11.6332 25.9273 12.3104 27.2199 12.3022 28.9434V30.7083C12.3022 31.1392 12.3267 31.3546 12.449 31.5949L17.4907 34.5531V34.4536C17.3683 34.1222 17.2459 33.6582 17.2541 32.6058V30.3769C17.2622 28.4297 16.2099 26.5902 14.6109 25.223C15.5899 25.5295 17.2214 25.5793 17.2296 23.3835V23.1597C17.2296 20.7071 15.5735 18.3041 11.7964 16.0917" fill="#0C0C0C"/>
<path d="M31.6171 11.3577L27.5065 13.9558L25.227 19.7511L22.8877 16.8858L18.4632 19.6863L22.5439 24.2918L18.4482 34.4739L22.6186 31.8353L25.0924 25.6435L27.6634 28.6382L31.916 25.9429L27.7456 20.9328L31.6096 11.3496" fill="#0C0C0C"/>
</svg>
