<svg width="89" height="94" viewBox="0 0 89 94" fill="none" xmlns="http://www.w3.org/2000/svg">
<rect y="0.552734" width="89" height="93" rx="8" fill="url(#paint0_linear_1_5978)"/>
<g clip-path="url(#clip0_1_5978)">
<path d="M30.6982 30.83L34.8962 28.3666L46.1888 34.9305C48.5588 36.3026 48.0941 37.1445 47.0407 37.7525L46.9478 37.8149C46.0029 38.3762 44.3919 38.7816 41.9908 37.3784L30.6982 30.8144M40.3798 25.1548L43.8187 23.1435L54.5227 29.3644C56.4435 30.4714 56.2731 31.2198 55.3127 31.7811L55.2507 31.8279C54.3368 32.358 52.9891 32.4983 51.0838 31.3913L40.3798 25.1704M62.8721 27.7585L40.1475 14.5527L15.7344 28.8343L38.5829 42.1025C46.4676 46.6863 51.9822 46.1406 55.8239 43.8955L56.2266 43.6616C60.5175 41.1514 58.5657 38.3294 56.9392 36.7703C58.891 37.4875 62.8256 38.1735 65.8772 36.3805L66.2335 36.1622C69.0218 34.5252 69.9048 31.8279 62.8566 27.7274" fill="white"/>
<path d="M23.4182 49.0718V44.1762L34.1997 50.4283C36.3064 51.66 37.0344 53.1411 37.0344 54.482V54.5132C37.0344 55.8852 36.2599 56.5089 34.1842 55.3083L23.4182 49.0562M36.3993 44.7842L14.0775 31.8279L14 60.2508L23.3718 65.7077L23.4028 55.9632L32.3873 61.1862C36.0895 63.3378 37.3752 65.7701 37.3597 69.0131V72.334C37.3597 73.1447 37.4062 73.5501 37.6386 74.0023L47.2117 79.5683V79.3813C46.9793 78.7576 46.747 77.8845 46.7625 75.9044V71.7103C46.778 68.0464 44.7797 64.5851 41.7435 62.0126C43.6024 62.5895 46.7005 62.683 46.716 58.5513V58.1304C46.716 53.5153 43.5714 48.9939 36.3993 44.831" fill="white"/>
<path d="M74.0346 35.9232L66.2293 40.8119L61.9009 51.7164L57.459 46.3251L49.0577 51.5946L56.8062 60.2603L49.0293 79.4193L56.9481 74.4544L61.6455 62.8036L66.5273 68.4386L74.6022 63.3671L66.6834 53.9399L74.0204 35.908" fill="white"/>
</g>
<defs>
<linearGradient id="paint0_linear_1_5978" x1="-11.4571" y1="44.9538" x2="105.143" y2="70.6736" gradientUnits="userSpaceOnUse">
<stop stop-color="#B341C6"/>
<stop offset="1" stop-color="#3F21F5"/>
</linearGradient>
<clipPath id="clip0_1_5978">
<rect width="61" height="65" fill="white" transform="translate(14 14.5527)"/>
</clipPath>
</defs>
</svg>
