<svg width="346" height="187" viewBox="0 0 346 187" fill="none" xmlns="http://www.w3.org/2000/svg">
<path d="M23.4295 130.941V62.1729H21.9519L1.372 87.4584H0V74.657L13.1923 58.999H34.4054V130.941H23.4295Z" fill="url(#paint0_linear_1_381)"/>
<path d="M46.6643 130.941V117.505H59.751V130.941H46.6643Z" fill="url(#paint1_linear_1_381)"/>
<path d="M69.7928 130.941L112.008 70.0019V68.7324H63.7772L67.1544 58.999H114.858V83.7555L82.774 130.941H69.7928Z" fill="url(#paint2_linear_1_381)"/>
<path d="M147.488 131.999C133.346 131.999 121.525 126.498 120.153 110.734H131.129C132.501 120.044 139.256 122.689 147.91 122.689C156.67 122.689 163.002 119.198 163.002 109.147C163.002 99.8367 158.675 95.6048 147.066 95.6048H125.325L124.058 94.3353L131.868 58.999H172.184L168.807 68.5208H140.628L135.245 92.1135H137.04L138.623 86.6121H149.493C167.435 86.6121 174.294 95.1816 174.294 108.724C174.294 126.392 160.469 131.999 147.488 131.999Z" fill="url(#paint3_linear_1_381)"/>
<path d="M237.877 130.941L220.463 62.1729H218.986V130.941H208.326V58.999H228.801L246.003 127.767H247.481L264.684 58.999H285.264V130.941H274.499V62.1729H273.021L255.713 130.941H237.877Z" fill="url(#paint4_linear_1_381)"/>
<path d="M296.081 101.847L299.458 92.4309H316.133V76.1382L325.948 72.8584V92.4309H346L342.623 101.847H325.948V118.14L316.133 121.525V101.847H296.081Z" fill="url(#paint5_linear_1_381)"/>
<path d="M23.4295 71.941V3.17293H21.9519L1.372 28.4584H0V15.657L13.1923 -0.000976562H34.4054V71.941H23.4295Z" fill="url(#paint6_linear_1_381)"/>
<path d="M46.6643 71.941V58.5048H59.751V71.941H46.6643Z" fill="url(#paint7_linear_1_381)"/>
<path d="M69.7928 71.941L112.008 11.0019V9.73236H63.7772L67.1544 -0.000976562H114.858V24.7555L82.774 71.941H69.7928Z" fill="url(#paint8_linear_1_381)"/>
<path d="M147.488 72.999C133.346 72.999 121.525 67.4976 120.153 51.7338H131.129C132.501 61.044 139.256 63.6889 147.91 63.6889C156.67 63.6889 163.002 60.1976 163.002 50.1468C163.002 40.8367 158.675 36.6048 147.066 36.6048H125.325L124.058 35.3353L131.868 -0.000976562H172.184L168.807 9.52076H140.628L135.245 33.1135H137.04L138.623 27.6121H149.493C167.435 27.6121 174.295 36.1816 174.295 49.7237C174.295 67.3918 160.469 72.999 147.488 72.999Z" fill="url(#paint9_linear_1_381)"/>
<path d="M237.877 71.941L220.463 3.17293H218.986V71.941H208.326V-0.000976562H228.801L246.004 68.7671H247.481L264.684 -0.000976562H285.264V71.941H274.499V3.17293H273.021L255.713 71.941H237.877Z" fill="url(#paint10_linear_1_381)"/>
<path d="M296.081 42.8469L299.458 33.4309H316.133V17.1382L325.948 13.8584V33.4309H346L342.623 42.8469H325.948V59.1396L316.133 62.5251V42.8469H296.081Z" fill="url(#paint11_linear_1_381)"/>
<path d="M23.4295 185.941V117.173H21.9519L1.372 142.458H0V129.657L13.1923 113.999H34.4054V185.941H23.4295Z" fill="url(#paint12_linear_1_381)"/>
<path d="M46.6643 185.941V172.505H59.751V185.941H46.6643Z" fill="url(#paint13_linear_1_381)"/>
<path d="M69.7928 185.941L112.008 125.002V123.732H63.7772L67.1544 113.999H114.858V138.756L82.774 185.941H69.7928Z" fill="url(#paint14_linear_1_381)"/>
<path d="M147.488 186.999C133.346 186.999 121.525 181.498 120.153 165.734H131.129C132.501 175.044 139.256 177.689 147.91 177.689C156.67 177.689 163.002 174.198 163.002 164.147C163.002 154.837 158.675 150.605 147.066 150.605H125.325L124.058 149.335L131.868 113.999H172.184L168.807 123.521H140.628L135.245 147.114H137.04L138.623 141.612H149.493C167.435 141.612 174.295 150.182 174.295 163.724C174.295 181.392 160.469 186.999 147.488 186.999Z" fill="url(#paint15_linear_1_381)"/>
<path d="M237.877 185.941L220.463 117.173H218.986V185.941H208.326V113.999H228.801L246.004 182.767H247.481L264.684 113.999H285.264V185.941H274.499V117.173H273.021L255.713 185.941H237.877Z" fill="url(#paint16_linear_1_381)"/>
<path d="M296.081 156.847L299.458 147.431H316.133V131.138L325.948 127.858V147.431H346L342.623 156.847H325.948V173.14L316.133 176.525V156.847H296.081Z" fill="url(#paint17_linear_1_381)"/>
<defs>
<linearGradient id="paint0_linear_1_381" x1="-44.541" y1="93.8515" x2="172.167" y2="330.602" gradientUnits="userSpaceOnUse">
<stop stop-color="#B341C6"/>
<stop offset="1" stop-color="#3F21F5"/>
</linearGradient>
<linearGradient id="paint1_linear_1_381" x1="-44.541" y1="93.8515" x2="172.167" y2="330.602" gradientUnits="userSpaceOnUse">
<stop stop-color="#B341C6"/>
<stop offset="1" stop-color="#3F21F5"/>
</linearGradient>
<linearGradient id="paint2_linear_1_381" x1="-44.541" y1="93.8515" x2="172.167" y2="330.602" gradientUnits="userSpaceOnUse">
<stop stop-color="#B341C6"/>
<stop offset="1" stop-color="#3F21F5"/>
</linearGradient>
<linearGradient id="paint3_linear_1_381" x1="-44.541" y1="93.8515" x2="172.167" y2="330.602" gradientUnits="userSpaceOnUse">
<stop stop-color="#B341C6"/>
<stop offset="1" stop-color="#3F21F5"/>
</linearGradient>
<linearGradient id="paint4_linear_1_381" x1="-44.541" y1="93.8515" x2="172.167" y2="330.602" gradientUnits="userSpaceOnUse">
<stop stop-color="#B341C6"/>
<stop offset="1" stop-color="#3F21F5"/>
</linearGradient>
<linearGradient id="paint5_linear_1_381" x1="-44.541" y1="93.8515" x2="172.167" y2="330.602" gradientUnits="userSpaceOnUse">
<stop stop-color="#B341C6"/>
<stop offset="1" stop-color="#3F21F5"/>
</linearGradient>
<linearGradient id="paint6_linear_1_381" x1="173" y1="-0.000976701" x2="173.491" y2="42.8256" gradientUnits="userSpaceOnUse">
<stop stop-color="white"/>
<stop offset="1" stop-color="white" stop-opacity="0"/>
</linearGradient>
<linearGradient id="paint7_linear_1_381" x1="173" y1="-0.000976701" x2="173.491" y2="42.8256" gradientUnits="userSpaceOnUse">
<stop stop-color="white"/>
<stop offset="1" stop-color="white" stop-opacity="0"/>
</linearGradient>
<linearGradient id="paint8_linear_1_381" x1="173" y1="-0.000976701" x2="173.491" y2="42.8256" gradientUnits="userSpaceOnUse">
<stop stop-color="white"/>
<stop offset="1" stop-color="white" stop-opacity="0"/>
</linearGradient>
<linearGradient id="paint9_linear_1_381" x1="173" y1="-0.000976701" x2="173.491" y2="42.8256" gradientUnits="userSpaceOnUse">
<stop stop-color="white"/>
<stop offset="1" stop-color="white" stop-opacity="0"/>
</linearGradient>
<linearGradient id="paint10_linear_1_381" x1="173" y1="-0.000976701" x2="173.491" y2="42.8256" gradientUnits="userSpaceOnUse">
<stop stop-color="white"/>
<stop offset="1" stop-color="white" stop-opacity="0"/>
</linearGradient>
<linearGradient id="paint11_linear_1_381" x1="173" y1="-0.000976701" x2="173.491" y2="42.8256" gradientUnits="userSpaceOnUse">
<stop stop-color="white"/>
<stop offset="1" stop-color="white" stop-opacity="0"/>
</linearGradient>
<linearGradient id="paint12_linear_1_381" x1="173.482" y1="147.579" x2="172.99" y2="186.999" gradientUnits="userSpaceOnUse">
<stop stop-color="white" stop-opacity="0"/>
<stop offset="1" stop-color="white"/>
</linearGradient>
<linearGradient id="paint13_linear_1_381" x1="173.482" y1="147.579" x2="172.99" y2="186.999" gradientUnits="userSpaceOnUse">
<stop stop-color="white" stop-opacity="0"/>
<stop offset="1" stop-color="white"/>
</linearGradient>
<linearGradient id="paint14_linear_1_381" x1="173.482" y1="147.579" x2="172.99" y2="186.999" gradientUnits="userSpaceOnUse">
<stop stop-color="white" stop-opacity="0"/>
<stop offset="1" stop-color="white"/>
</linearGradient>
<linearGradient id="paint15_linear_1_381" x1="173.482" y1="147.579" x2="172.99" y2="186.999" gradientUnits="userSpaceOnUse">
<stop stop-color="white" stop-opacity="0"/>
<stop offset="1" stop-color="white"/>
</linearGradient>
<linearGradient id="paint16_linear_1_381" x1="173.482" y1="147.579" x2="172.99" y2="186.999" gradientUnits="userSpaceOnUse">
<stop stop-color="white" stop-opacity="0"/>
<stop offset="1" stop-color="white"/>
</linearGradient>
<linearGradient id="paint17_linear_1_381" x1="173.482" y1="147.579" x2="172.99" y2="186.999" gradientUnits="userSpaceOnUse">
<stop stop-color="white" stop-opacity="0"/>
<stop offset="1" stop-color="white"/>
</linearGradient>
</defs>
</svg>
