<svg width="40" height="40" viewBox="0 0 40 40" fill="none" xmlns="http://www.w3.org/2000/svg">
    <g clip-path="url(#clip0)">
        <rect width="40" height="40" rx="20" fill="#00B6DE"/>
        <circle cx="20" cy="28.5" r="18.75" stroke="#FFD516" stroke-width="2.5"/>
        <path d="M1.25 11.5C1.25 1.14466 9.64466 -7.25 20 -7.25C30.3553 -7.25 38.75 1.14466 38.75 11.5C38.75 21.8553 30.3553 30.25 20 30.25C9.64466 30.25 1.25 21.8553 1.25 11.5Z"
              stroke="#FFD516" stroke-width="2.5"/>
        <path d="M22.8569 19.7638L23.0897 17.6069H22.9966L22.3293 19.3448L20.0172 23.3948H19.3345L16.8983 19.3293L16.2155 17.6069H16.1379L16.4483 19.7483V25.3965H14.431V14.5345H16.3707L19.2724 19.5L19.7845 20.7414H19.8466L20.3121 19.469L23.0586 14.5345H24.9828V25.3965H22.8569V19.7638Z"
              fill="#FFD516"/>
    </g>
    <defs>
        <clipPath id="clip0">
            <rect width="40" height="40" rx="20" fill="white"/>
        </clipPath>
    </defs>
</svg>
