<svg version="1.1" xmlns="http://www.w3.org/2000/svg" xmlns:xlink="http://www.w3.org/1999/xlink" x="0px" y="0px"
	 viewBox="0 0 430 250" enable-background="new 0 0 430 250" xml:space="preserve">
<path d="M323.75,250c-12.333,0-24.667,0-37,0c-0.882-0.816-1.73-1.673-2.651-2.441c-9.663-8.057-20.84-12.963-33.002-15.803
	c-1.539-0.359-3.088-0.676-4.962-1.085c0.757-0.211,1.174-0.279,1.551-0.439c2.822-1.202,5.809-2.133,8.421-3.69
	c7.682-4.58,10.326-11.759,7.251-20.135c-3.845-10.474-10.539-18.912-19.502-25.529c-9.402-6.94-20.09-10.947-31.353-13.643
	c-13.736-3.287-27.746-3.863-41.769-4.171c-7.326-0.161-14.661,0.075-21.993,0.109c-21.579,0.101-43.159,0.193-64.738,0.284
	c-18.205,0.077-36.41,0.146-54.615,0.219c-0.602,0.003-1.205,0-1.992,0c0.294,0.555,0.454,0.883,0.635,1.198
	c14.408,25.117,28.822,50.231,43.225,75.352c1.859,3.242,3.663,6.514,5.493,9.773c-25.583,0-51.167,0-76.75,0
	C0,166.667,0,83.333,0,0c143.333,0,286.667,0,430,0c0,83.333,0,166.667,0,250c-27.333,0-54.667,0-82,0
	c1.291-0.804,2.566-1.634,3.876-2.406c2.484-1.464,2.44-1.442,2.043-4.283c-1.238-8.862-2.439-17.729-3.645-26.596
	c-1.391-10.227-2.774-20.456-4.157-30.684c-0.333-2.464-0.656-4.929-1.004-7.546c13.238,4.468,26.296,8.875,39.361,13.284
	c0.219-0.37,0.375-0.613,0.512-0.867c6.975-12.965,13.952-25.93,20.919-38.898c0.706-1.314,1.935-2.675,1.888-3.978
	c-0.048-1.366-1.291-2.719-2.114-4.013c-0.327-0.514-0.861-1.041-1.416-1.242c-6.566-2.378-13.155-4.693-19.736-7.03
	c-12.81-4.548-25.616-9.106-38.433-13.634c-0.711-0.252-1.058-0.534-1.146-1.349c-0.296-2.73-0.71-5.447-1.072-8.17
	c-1.371-10.314-2.742-20.629-4.109-30.944c-1.22-9.201-2.434-18.402-3.651-27.604c-1.375-10.398-2.748-20.796-4.125-31.194
	c-0.34-2.562-0.693-5.122-1.087-8.024c-0.405,0.708-0.634,1.091-0.846,1.484c-3.296,6.113-6.589,12.228-9.884,18.342
	c-4.42,8.201-8.848,16.397-13.246,24.61c-0.236,0.441-0.373,1.03-0.31,1.52c0.444,3.467,0.949,6.927,1.44,10.388
	c2.295,16.193,4.594,32.386,6.886,48.58c0.217,1.534,0.402,3.073,0.624,4.773c-12.314-4.498-24.401-8.914-36.553-13.354
	c-8.807,16.354-17.554,32.598-26.337,48.909c0.529,0.18,0.915,0.317,1.305,0.442c19.003,6.085,37.993,12.212,57.027,18.199
	c2.415,0.76,3.671,1.636,3.975,4.437c1.053,9.68,2.476,19.32,3.763,28.975c1.122,8.416,2.259,16.829,3.375,25.246
	C322.682,241.579,323.209,245.79,323.75,250z M250.664,66.711c0.287-0.082,0.544-0.172,0.809-0.229
	c7.995-1.718,15.513-4.658,22.56-8.801c10.322-6.069,17.95-14.494,22.297-25.722c3.362-8.684,0.638-15.596-7.663-19.775
	c-3.635-1.83-7.509-2.93-11.485-3.672c-7.931-1.481-15.939-1.889-23.998-1.742c-7.621,0.139-15.246,0.125-22.869,0.155
	c-25.412,0.101-50.825,0.191-76.237,0.285c-15.456,0.057-30.912,0.119-46.367,0.157c-0.784,0.002-1.271,0.19-1.695,0.924
	C93.767,29.509,81.495,50.714,69.222,71.918c-12.127,20.951-24.262,41.898-36.391,62.849c-1.868,3.227-3.72,6.463-5.643,9.805
	c3.184,0,6.208,0.01,9.232-0.002c19.663-0.08,39.326-0.168,58.99-0.247c24.121-0.098,48.241-0.208,72.362-0.274
	c9.625-0.026,19.241-0.097,28.816-1.275c10.323-1.27,20.42-3.448,30.116-7.284c15.51-6.137,28.159-15.785,36.898-30.197
	c2.895-4.775,5.677-9.609,6.776-15.185c1.081-5.486,0.244-10.527-3.604-14.812c-2.235-2.489-4.973-4.312-8.035-5.59
	C256.116,68.613,253.41,67.721,250.664,66.711z"/>
<path d="M107.204,196.619c1.731,0,3.302,0.005,4.873-0.001c13.494-0.052,26.989-0.101,40.483-0.16
	c8.579-0.038,17.158-0.181,25.735-0.105c6.066,0.054,11.928,1.18,17.139,4.555c3.783,2.45,6.6,5.726,8.018,10.045
	c1.099,3.348-0.072,6.091-3.397,7.238c-2.44,0.842-5.083,1.39-7.658,1.486c-6.489,0.243-12.991,0.172-19.488,0.2
	c-17.034,0.074-34.068,0.132-51.103,0.203c-0.681,0.003-1.216-0.017-1.642-0.762c-4.166-7.295-8.383-14.561-12.582-21.838
	C107.465,197.275,107.39,197.045,107.204,196.619z"/>
<path d="M105.668,112.015c2.78-4.823,5.414-9.396,8.051-13.967c1.663-2.883,3.351-5.751,4.98-8.653
	c0.37-0.66,0.772-0.926,1.55-0.928c17.998-0.054,35.996-0.145,53.994-0.209c7.083-0.025,14.167-0.079,21.248,0.04
	c2.138,0.036,4.272,0.58,6.396,0.962c0.597,0.107,1.171,0.423,1.719,0.712c2.372,1.254,3.268,3.155,2.436,5.728
	c-1.902,5.882-5.707,10.16-11.268,12.867c-4.505,2.193-9.323,3.07-14.275,3.144c-7.706,0.116-15.415,0.088-23.123,0.118
	c-16.665,0.064-33.329,0.126-49.994,0.188C106.892,112.017,106.403,112.015,105.668,112.015z"/>
<path d="M137.057,57.709c0.924-1.622,1.711-3.02,2.514-4.408c2.709-4.68,5.445-9.345,8.115-14.047
	c0.433-0.763,0.909-1.002,1.759-1.004c13.914-0.024,27.828-0.082,41.742-0.132c9.415-0.034,18.83-0.129,28.244-0.054
	c2.217,0.018,4.492,0.386,6.632,0.983c3.47,0.969,4.423,3.324,3.017,6.672c-2.402,5.717-6.936,8.864-12.707,10.489
	c-3.68,1.036-7.462,1.238-11.259,1.249c-15.581,0.043-31.161,0.073-46.742,0.124c-6.54,0.021-13.079,0.084-19.619,0.127
	C138.295,57.712,137.838,57.709,137.057,57.709z"/>
</svg>
