<svg version="1.1" xmlns="http://www.w3.org/2000/svg" xmlns:xlink="http://www.w3.org/1999/xlink" x="0px" y="0px"
	 viewBox="0 0 950 950" enable-background="new 0 0 950 950" xml:space="preserve">
<path fill="#060606" d="M417.562,1.689L64.793,210.477c0,0,269.877,158.247,330.644,193.83c25.94,15.19,52.888,28.215,81.555,37.475
	c22.49,7.264,45.456,12.005,69.153,12.695c12.948,0.377,25.833-0.331,38.606-2.592c17.874-3.162,34.907-8.842,50.945-17.364
	c9.722-5.167,19.315-10.577,27.996-17.425c6.873-5.423,13-11.547,17.476-19.161c5.069-8.623,7.033-17.859,5.559-27.805
	c-1.118-7.543-4.007-14.409-7.851-20.909c-4.413-7.457-9.894-14.085-15.963-20.243c-0.622-0.631-1.223-1.281-2.044-2.141
	c0.593,0.03,0.755,0.003,0.893,0.05c16.539,5.69,33.551,8.906,51.005,9.934c12.882,0.758,25.649-0.019,38.346-2.298
	c19.066-3.423,36.053-11.551,51.586-22.872c3.59-2.616,6.884-5.693,10.054-8.822c3.892-3.842,6.858-8.394,8.879-13.507
	c3.738-9.455,2.827-18.758-1.058-27.919c-3.374-7.957-8.452-14.795-14.204-21.159c-8.492-9.396-18.181-17.444-28.41-24.847
	c-10.92-7.901-22.192-15.24-34.006-21.784L417.562,1.689 M417.562,1.689 M0.042,949.97v-950h950c0,0,0,634,0,950H0.042z
	 M518.159,948c0,0-5.402-25.39-5.177-44.444c0,0-0.052-46.6-0.038-69.9c0.005-8.158-0.731-16.254-2.124-24.279
	c-3.61-20.819-11.133-40.189-21.836-58.362c-12.134-20.603-27.497-38.512-45.355-54.338c-0.63-0.558-1.226-1.152-1.838-1.729
	c1.928,0.142,3.687,0.598,5.456,1.008c10.124,2.346,20.321,3.243,30.602,1.203c11.742-2.33,20.864-8.466,26.847-18.969
	c3.767-6.612,5.673-13.826,6.731-21.305c0.943-6.66,0.906-13.359,0.877-20.06c-0.055-12.745-1.725-25.275-5.003-37.589
	c-5.206-19.56-14.041-37.415-25.477-54.035c-13.847-20.122-30.684-37.491-49.218-53.286c-11.063-9.427-22.714-18.077-34.598-26.436
	c-11.924-8.388-24.725-15.409-36.653-23.783C308.363,410.661,40.741,254.088,40.741,254.088s-0.998,412.525-1.043,413.08
	c-0.073,0.903,134.556,80.219,135.465,80.671c0.129-47.32,0.256-94.331,0.386-141.803c1.149,0.649,87.94,51.488,130.571,76.544
	c14.637,8.603,28.302,18.499,40.041,30.88c8.408,8.868,15.391,18.716,20.507,29.841c7.047,15.326,10.121,31.52,10.248,48.297
	c0.119,15.559-0.009,31.119,0.044,46.68c0.019,5.5,0.176,11.002,0.406,16.497c0.169,4.005,1.047,7.887,2.536,11.631
	c0.646,1.624,1.65,2.761,3.194,3.656C393.998,876.381,518.159,948,518.159,948z M657.744,668.384
	c-37.43,93.058-112.581,279.635-112.581,279.635l114.39-72.335l68.336-169.959l70.411,82.001
	c39.061-24.757,77.867-49.353,116.828-74.047C876.9,667.749,800.742,576.22,800.742,576.22s70.964-176.142,105.861-262.677
	l-112.671,71.073c-19.906,50.698-62.53,158.928-62.53,158.928c-21.473-26.294-42.751-52.35-63.994-78.362
	c-4.742,2.405-120.131,75.699-121.385,77.113C583.21,584.266,620.405,626.244,657.744,668.384z"/>
<path fill="#060606" d="M280.578,237.606l60.135-35.74c0,0,110.166,64.5,164.007,96.091c5.871,3.445,11.547,7.171,16.556,11.824
	c2.355,2.187,4.475,4.573,6.04,7.402c2.843,5.141,2.396,9.991-1.431,14.415c-1.143,1.321-2.436,2.552-3.82,3.617
	c-9.988,7.69-21.194,12.069-33.906,12.117c-9.309,0.036-18.225-2.015-26.876-5.355c-6.055-2.338-11.835-5.232-17.428-8.513
	C400.904,308.266,280.578,237.606,280.578,237.606z"/>
<path fill="#060606" d="M420.315,154.944l49.8-29.468c0,0,76.286,44.82,113.38,66.573c13.928,8.168,27.859,16.329,41.785,24.5
	c4.973,2.918,9.794,6.052,14.075,9.949c2.381,2.167,4.497,4.542,5.957,7.446c1.996,3.972,1.665,7.744-1.105,11.212
	c-0.99,1.239-2.12,2.411-3.355,3.403c-8.881,7.132-19.06,10.15-30.393,9.435c-10.329-0.651-19.944-3.861-28.899-8.794
	c-11.828-6.516-23.434-13.435-35.089-20.262C508.883,206.92,420.315,154.944,420.315,154.944z"/>
<path fill="#060606" d="M174.863,503.997c0-23.59,0-47.077,0-70.875c0,0,75.27,43.893,111.778,65.253
	c14.562,8.52,29.128,17.034,43.683,25.566c10.21,5.985,19.558,13.038,27.189,22.184c6.62,7.935,11.351,16.818,13.279,27.045
	c1.3,6.898,1.602,13.828-0.265,20.685c-1.783,6.547-6.255,10.388-12.547,10.707c-2.134,0.108-4.333-0.059-6.433-0.461
	c-7.488-1.433-14.19-4.841-20.697-8.647C303.588,579.506,174.863,503.997,174.863,503.997z"/>
</svg>
