<svg version="1.1" xmlns="http://www.w3.org/2000/svg" xmlns:xlink="http://www.w3.org/1999/xlink" x="0px" y="0px"
	 viewBox="0 0 950 950" enable-background="new 0 0 950 950" xml:space="preserve">
<path fill="#060606" d="M518.647,950C345.775,950,172.904,950,0,950C0,633.333,0,316.667,0,0c138.989,0,277.957,0,416.926,0
	c-0.827,0.614-311.08,184.01-351.201,207.7c-0.585,0.345-1.127,0.762-1.839,1.247c0.952,0.596,1.681,1.078,2.435,1.519
	c48.749,28.566,268.011,157.062,328.907,192.72c25.995,15.222,53,28.275,81.727,37.554c22.537,7.279,45.552,12.03,69.299,12.722
	c12.975,0.378,25.887-0.332,38.687-2.597c17.912-3.169,34.981-8.861,51.052-17.401c9.743-5.178,19.356-10.599,28.055-17.462
	c6.887-5.434,13.027-11.571,17.513-19.201c5.08-8.641,7.048-17.897,5.571-27.864c-1.12-7.559-4.015-14.439-7.868-20.953
	c-4.422-7.473-9.915-14.115-15.997-20.286c-0.623-0.632-1.226-1.284-2.048-2.146c0.594,0.03,0.757,0.003,0.895,0.05
	c16.574,5.702,33.622,8.925,51.113,9.955c12.909,0.76,25.703-0.019,38.427-2.303c19.106-3.43,36.129-11.575,51.695-22.92
	c3.598-2.622,6.899-5.705,10.075-8.841c3.9-3.85,6.872-8.412,8.898-13.535c3.746-9.475,2.833-18.798-1.06-27.978
	c-3.381-7.974-8.47-14.826-14.234-21.204c-8.51-9.416-18.219-17.481-28.47-24.899c-10.943-7.918-22.239-15.272-34.078-21.83
	c-11.322-6.272-22.375-13.03-33.543-19.58C634.277,127.507,418.573,0.606,417.886,0C595.257,0,772.628,0,950,0
	c0,316.667,0,633.333,0,950c-143.465,0-286.929,0-430.394,0c0.097-2.114-0.554-4.065-1.156-6.061
	c-1.014-3.36-1.957-6.753-2.682-10.184c-2.107-9.974-2.69-20.119-2.748-30.267c-0.134-23.348-0.052-46.698-0.038-70.047
	c0.005-8.175-0.733-16.288-2.128-24.33c-3.618-20.863-11.156-40.274-21.882-58.485c-12.16-20.646-27.555-38.593-45.451-54.453
	c-0.631-0.559-1.229-1.154-1.842-1.733c1.932,0.142,3.695,0.599,5.467,1.01c10.145,2.351,20.364,3.25,30.667,1.205
	c11.767-2.335,20.908-8.484,26.904-19.009c3.775-6.626,5.685-13.855,6.745-21.35c0.945-6.674,0.908-13.387,0.879-20.102
	c-0.055-12.772-1.729-25.328-5.014-37.668c-5.217-19.601-14.071-37.494-25.531-54.149c-13.876-20.165-30.749-37.57-49.322-53.398
	c-11.086-9.447-22.762-18.115-34.671-26.492c-11.949-8.406-24.777-15.442-36.73-23.833
	C307.97,409.553,63.835,266.565,42.038,253.808c-0.641-0.375-1.322-0.681-2.255-1.158c0,1.079,0.002,1.715,0,2.351
	c-0.026,8.315-1,411.044-1.045,411.6c-0.073,0.905,134.84,80.388,135.751,80.841c0.129-47.42,0.257-94.53,0.387-142.102
	c1.151,0.65,88.126,51.597,130.846,76.705c14.668,8.621,28.362,18.538,40.125,30.945c8.426,8.887,15.423,18.756,20.55,29.904
	c7.062,15.358,10.142,31.587,10.27,48.399c0.119,15.592-0.009,31.185,0.044,46.778c0.019,5.512,0.176,11.025,0.407,16.532
	c0.169,4.014,1.049,7.904,2.541,11.656c0.647,1.627,1.653,2.767,3.201,3.664c10.925,6.333,21.802,12.748,32.694,19.138
	c33.641,19.735,67.282,39.468,100.913,59.22C517.257,948.745,517.923,949.422,518.647,950z M658.088,667.82
	C620.579,761.074,583.14,854.154,545.7,947.235c1.186-0.252,2.006-0.716,2.801-1.22c36.625-23.169,73.245-46.346,109.883-69.495
	c1.347-0.851,2.203-1.886,2.801-3.388c13.215-33.191,26.48-66.363,39.738-99.537c8.778-21.963,17.559-43.925,26.345-65.885
	c0.303-0.758,0.67-1.49,1.114-2.471c23.689,27.588,47.109,54.864,70.56,82.174c39.143-24.809,78.031-49.457,117.075-74.203
	c-38.311-46.026-76.473-91.873-114.5-137.558c0-0.346-0.007-0.425,0.002-0.501c0.01-0.079,0.033-0.156,0.055-0.233
	c0.043-0.154,0.076-0.312,0.136-0.46c34.97-86.718,69.942-173.435,104.913-260.152c0.06-0.148,0.117-0.298,0.165-0.45
	c0.072-0.228,0.143-0.457,0.198-0.689c0.015-0.064-0.013-0.151-0.05-0.21c-0.037-0.058-0.11-0.094-0.25-0.205
	c-0.576,0.345-1.196,0.699-1.798,1.08c-36.096,22.809-72.185,45.629-108.304,68.402c-1.446,0.912-2.331,2.021-2.941,3.576
	c-19.948,50.805-39.923,101.6-59.897,152.395c-0.551,1.402-1.14,2.789-1.845,4.512c-21.518-26.35-42.841-52.46-64.129-78.527
	c-4.752,2.41-120.384,75.859-121.641,77.276C583.397,583.524,620.67,625.591,658.088,667.82z"/>
<path fill="#060606" d="M280.609,237.606c6.554-3.89,12.734-7.564,18.92-11.228c13.066-7.74,26.155-15.442,39.179-23.253
	c1.682-1.009,2.874-0.943,4.535,0.033c53.817,31.631,107.667,63.208,161.508,94.799c5.871,3.445,11.547,7.171,16.556,11.824
	c2.355,2.187,4.475,4.573,6.04,7.402c2.843,5.141,2.396,9.991-1.431,14.415c-1.143,1.321-2.436,2.552-3.82,3.617
	c-9.988,7.69-21.194,12.069-33.906,12.117c-9.309,0.036-18.225-2.015-26.876-5.355c-6.055-2.338-11.835-5.232-17.428-8.513
	c-42.95-25.198-85.9-50.396-128.851-75.592c-10.617-6.228-21.237-12.451-31.854-18.68
	C282.439,238.755,281.715,238.288,280.609,237.606z"/>
<path fill="#060606" d="M420.346,154.944c4.824-2.849,9.292-5.489,13.76-8.127c11.288-6.665,22.596-13.295,33.842-20.03
	c1.578-0.945,2.694-0.997,4.32-0.04c37.062,21.808,74.164,43.549,111.258,65.302c13.928,8.168,27.859,16.329,41.785,24.5
	c4.973,2.918,9.794,6.052,14.075,9.949c2.381,2.167,4.497,4.542,5.957,7.446c1.996,3.972,1.665,7.744-1.105,11.212
	c-0.99,1.239-2.12,2.411-3.355,3.403c-8.881,7.132-19.06,10.15-30.393,9.435c-10.329-0.651-19.944-3.861-28.899-8.794
	c-11.828-6.516-23.434-13.435-35.089-20.262c-37.588-22.018-75.154-44.073-112.728-66.114
	C429.438,160.281,425.104,157.736,420.346,154.944z"/>
<path fill="#060606" d="M174.894,503.997c0-23.59,0-47.077,0-70.875c0.892,0.465,1.588,0.791,2.249,1.178
	c36.512,21.355,73.021,42.715,109.529,64.075c14.562,8.52,29.128,17.034,43.683,25.566c10.21,5.985,19.558,13.038,27.189,22.184
	c6.62,7.935,11.351,16.818,13.279,27.045c1.3,6.898,1.602,13.828-0.265,20.685c-1.783,6.547-6.255,10.388-12.547,10.707
	c-2.134,0.108-4.333-0.059-6.433-0.461c-7.488-1.433-14.19-4.841-20.697-8.647c-27.262-15.948-54.508-31.923-81.759-47.889
	c-24.009-14.066-48.017-28.132-72.024-42.202C176.344,504.921,175.612,504.443,174.894,503.997z"/>
</svg>
