<svg version="1.1" xmlns="http://www.w3.org/2000/svg" xmlns:xlink="http://www.w3.org/1999/xlink" x="0px" y="0px"
	 viewBox="0 0 921 930" enable-background="new 0 0 921 930" xml:space="preserve">
<path fill="#060606" d="M-0.124,322.375c0-20.833,0-41.667,0-62.5c1.317,0.715,2.648,1.406,3.949,2.149
	c93.416,53.396,186.825,106.804,280.247,160.189c16.482,9.418,32.839,19.061,49.845,27.538
	c26.375,13.146,53.563,24.145,82.195,31.363c27.001,6.807,54.344,10.04,82.214,7.838c13.161-1.04,26.082-3.336,38.804-6.843
	c20.994-5.788,40.233-15.384,58.51-27.017c4.275-2.721,8.35-5.802,12.286-9.002c7.042-5.723,13.034-12.401,17.273-20.51
	c4.587-8.775,6.154-18.039,4.511-27.839c-1.473-8.789-5.137-16.662-9.927-24.072c-4.819-7.455-10.604-14.109-16.917-20.324
	c-0.611-0.601-1.178-1.247-2.176-2.31c1.158,0.339,1.706,0.482,2.243,0.659c21.041,6.944,42.635,10.543,64.795,10.789
	c13.807,0.153,27.441-1.202,40.906-4.305c19.068-4.394,36.036-13.198,51.77-24.572c5.291-3.825,9.979-8.324,13.858-13.613
	c5.238-7.142,8.165-15.05,7.76-23.999c-0.291-6.427-2.219-12.427-5.107-18.136c-3.333-6.588-7.685-12.469-12.572-17.971
	c-9.294-10.463-20.006-19.324-31.33-27.461c-12.99-9.334-26.647-17.577-40.552-25.51c-119.5-68.179-238.892-136.55-358.317-204.862
	c-1.001-0.573-2.018-1.119-3.027-1.676c-0.897,0.503-1.698,0.941-2.489,1.397C219.935,64.361,111.242,126.948,2.544,189.528
	c-0.862,0.496-1.777,0.9-2.667,1.347c0-63.667,0-127.333,0-191c307.082,0,614.165,0,921.247,0c0,310.333,0,620.666,0,931
	c-105.028,0-210.056,0-315.085,0c23.118-56.435,46.235-112.87,69.486-169.629c26.272,29.846,52.229,59.334,78.208,88.847
	c43.26-26.746,86.223-53.308,129.306-79.945c-0.797-0.979-1.359-1.697-1.949-2.39c-3.784-4.44-7.575-8.873-11.362-13.31
	c-37.216-43.612-74.422-87.234-111.689-130.803c-1.398-1.635-1.574-2.876-0.762-4.835c26.738-64.535,53.416-129.096,80.1-193.654
	c11.64-28.162,23.275-56.326,34.908-84.491c0.318-0.769,0.586-1.558,1.055-2.815c-0.927,0.511-1.298,0.695-1.649,0.911
	c-40.421,24.912-80.837,49.831-121.272,74.72c-1.15,0.708-1.779,1.643-2.26,2.839c-6.047,15.067-12.114,30.126-18.185,45.184
	c-16.47,40.849-32.944,81.696-49.424,122.541c-0.264,0.654-0.623,1.269-1.07,2.168c-23.792-28.42-47.365-56.581-71.031-84.85
	c-44.926,27.739-89.687,55.375-134.594,83.102c41.496,45.684,82.783,91.137,124.09,136.612c-0.405,1.043-0.747,1.974-1.125,2.891
	c-15.555,37.715-31.119,75.427-46.671,113.144c-12.886,31.252-25.759,62.509-38.637,93.763c-24.84,0-49.68,0-74.52,0
	c0.02-10.748,0.095-21.496,0.044-32.243c-0.059-12.386-1.808-24.566-4.806-36.57c-5.531-22.146-15.186-42.422-27.944-61.272
	c-12.407-18.332-27.249-34.487-43.969-48.952c-0.896-0.775-1.785-1.557-2.678-2.336c3.695,0.545,7.154,1.436,10.655,2.108
	c10.317,1.978,20.666,2.545,31.02,0.256c14.177-3.134,24.538-11.109,30.713-24.344c2.482-5.319,4.02-10.921,4.997-16.694
	c1.298-7.674,1.415-15.415,1.367-23.169c-0.091-14.743-2.069-29.215-6.144-43.393c-6.144-21.378-16.326-40.745-29.309-58.706
	c-14.688-20.319-32.218-37.947-51.357-54.038c-12.576-10.573-25.844-20.22-39.372-29.536c-13.492-9.291-27.952-17.035-41.484-26.252
	C179.934,424.997,91.142,374.261,2.345,323.534C1.558,323.085,0.701,322.759-0.124,322.375z"/>
<path fill="#060606" d="M-0.124,771.375c1.684,0.908,3.389,1.78,5.049,2.73c18.287,10.47,36.566,20.953,54.849,31.428
	c0.708,0.406,1.438,0.773,2.581,1.384c0.079-25.796,0.143-51.236,0.238-76.677c0.095-25.41,0.221-50.819,0.335-76.687
	c1.059,0.541,1.906,0.93,2.712,1.391c17.713,10.134,35.421,20.276,53.13,30.417c30.573,17.506,61.182,34.951,91.705,52.546
	c13.757,7.93,26.594,17.168,38.094,28.18c17.413,16.672,29.446,36.439,34.628,60.148c2.25,10.296,3.245,20.724,3.249,31.254
	c0.005,14.333-0.033,28.666,0.012,43c0.032,10.149-0.535,20.333,1.495,30.386c-96.026,0-192.052,0-288.077,0
	C-0.124,877.708-0.124,824.542-0.124,771.375z"/>
<path fill="#060606" d="M180.17,256.907c1.004-0.627,1.741-1.119,2.507-1.562c20.691-11.962,41.396-23.899,62.055-35.915
	c1.647-0.958,2.821-0.999,4.506-0.033c57.791,33.136,115.625,66.198,173.422,99.325c5.919,3.392,11.765,6.946,17.402,10.781
	c3.348,2.278,6.4,5.078,9.247,7.976c1.89,1.924,3.431,4.305,4.69,6.71c2.292,4.379,1.798,8.773-1.152,12.693
	c-1.434,1.907-3.163,3.691-5.061,5.134c-13.287,10.102-28.193,14.663-44.934,12.991c-13.062-1.305-25.211-5.507-36.617-11.741
	c-13.88-7.586-27.546-15.566-41.279-23.42c-47.42-27.12-94.829-54.259-142.241-81.394
	C181.944,258.013,181.197,257.533,180.17,256.907z"/>
<path fill="#060606" d="M334.707,167.616c18.528-10.669,36.775-21.176,55.13-31.746c0.641,0.331,1.308,0.645,1.946,1.01
	c56.889,32.537,113.779,65.07,170.656,97.628c6.083,3.482,11.993,7.247,16.895,12.343c1.434,1.491,2.777,3.126,3.868,4.878
	c3.168,5.087,2.623,10.001-1.422,14.408c-2.918,3.179-6.549,5.415-10.286,7.428c-9.428,5.078-19.563,6.316-30.061,5.032
	c-12.62-1.544-24.061-6.436-34.986-12.674c-27.046-15.443-54.069-30.924-81.103-46.388c-29.274-16.746-58.55-33.491-87.823-50.239
	C336.669,168.808,335.834,168.289,334.707,167.616z"/>
<path fill="#060606" d="M63.246,467.688c1.007,0.522,1.734,0.867,2.431,1.265c56.628,32.32,113.257,64.637,169.875,96.974
	c10.844,6.193,20.82,13.512,29.117,22.942c7.153,8.13,12.467,17.266,14.987,27.881c1.73,7.29,2.272,14.666,0.762,22.045
	c-0.509,2.488-1.42,4.991-2.644,7.214c-2.326,4.227-6.164,6.403-10.956,6.904c-5.179,0.541-10.11-0.589-14.946-2.259
	c-5.686-1.963-11.043-4.64-16.257-7.62c-56.824-32.482-113.647-64.967-170.493-97.411c-1.484-0.847-2.076-1.75-2.072-3.498
	c0.061-23.912,0.04-47.824,0.047-71.736C63.097,469.593,63.182,468.795,63.246,467.688z"/>
</svg>
