<?xml version="1.0" encoding="UTF-8"?>
<svg width="32px" height="32px" viewBox="0 0 32 32" version="1.1" xmlns="http://www.w3.org/2000/svg" xmlns:xlink="http://www.w3.org/1999/xlink">
    <!-- Generator: Sketch 52.5 (67469) - http://www.bohemiancoding.com/sketch -->
    <title>Icons/Package/access</title>
    <desc>Created with Sketch.</desc>
    <g id="Icons/Package/access" stroke="none" stroke-width="1" fill="none" fill-rule="evenodd">
        <rect id="Rectangle" fill="#D8D8D8" opacity="0" x="0" y="0" width="32" height="32"></rect>
        <g id="Group" transform="translate(7.000000, 9.000000)" fill="#718894">
            <path d="M17.5408163,10.2687831 L16.5802041,10.2687831 L16.5802041,1.37481481 C16.5802041,0.657604397 15.9494738,0.0761904762 15.1714286,0.0761904762 L2.82673469,0.0761904762 C2.04868946,0.0761904762 1.41795918,0.657604397 1.41795918,1.37481481 L1.41795918,10.2687831 L0.459183673,10.2687831 C0.205583533,10.2687831 1.77635684e-15,10.4582922 1.77635684e-15,10.6920635 L1.77635684e-15,12.2006349 C0.00101235906,13.087644 0.780814737,13.8064742 1.74306122,13.8074074 L16.2532653,13.8074074 C16.7160411,13.8078567 17.1600564,13.6388246 17.4876327,13.3374962 C17.8152091,13.0361679 17.9995131,12.6272266 18,12.2006349 L18,10.6920635 C18,10.4582922 17.7944165,10.2687831 17.5408163,10.2687831 Z M2.33816327,1.37481481 C2.33816327,1.12514704 2.55772648,0.922751323 2.82857143,0.922751323 L15.1732653,0.922751323 C15.4441103,0.922751323 15.6636735,1.12514704 15.6636735,1.37481481 L15.6636735,10.2687831 L10.7871429,10.2687831 C10.5335427,10.2687831 10.3279592,10.4582922 10.3279592,10.6920635 L10.3279592,11.117037 L7.67204082,11.117037 L7.67204082,10.6920635 C7.67204082,10.4582922 7.46645728,10.2687831 7.21285714,10.2687831 L2.33816327,10.2687831 L2.33816327,1.37481481 Z M17.0816327,12.2006349 C17.0806226,12.6201019 16.7119856,12.9599154 16.2569388,12.9608466 L1.74673469,12.9608466 C1.52752498,12.9612961 1.31709986,12.881455 1.16175073,12.7388876 C1.0064016,12.5963201 0.918853938,12.4027048 0.918367347,12.2006349 L0.918367347,11.1153439 L6.75367347,11.1153439 L6.75367347,11.1746032 C6.75468375,11.6127718 7.13976728,11.967746 7.61510204,11.9686772 L10.384898,11.9686772 C10.8602327,11.967746 11.2453163,11.6127718 11.2463265,11.1746032 L11.2463265,11.1221164 L17.0816327,11.1221164 L17.0816327,12.2006349 Z" id="Shape" fill-rule="nonzero"></path>
            <path d="M10.7393878,7.6952381 C11.0530838,7.69524125 11.3538518,7.58002305 11.5751507,7.37507409 C11.7964497,7.17012513 11.9200373,6.89233978 11.9185714,6.6031746 L11.9185714,5.17079365 C11.9181285,4.62575247 11.479863,4.16528192 10.8936735,4.09396825 L10.8936735,3.38624339 C10.8926613,2.56749546 10.1728892,1.90400183 9.28469388,1.90306878 L9.04040816,1.90306878 C8.15221287,1.90400183 7.43244076,2.56749546 7.43142857,3.38624339 L7.43142857,4.08888889 C6.84523899,4.16020256 6.40697358,4.6206731 6.40653061,5.16571429 L6.40653061,6.6031746 C6.40653061,7.20349936 6.93446913,7.69015873 7.58571429,7.69015873 L10.7393878,7.6952381 Z M9.04040816,2.75640212 L9.28469388,2.75640212 C9.66284944,2.75729611 9.97029202,3.03768504 9.97530612,3.38624339 L9.97530612,4.07873016 L8.34979592,4.07873016 L8.34979592,3.38624339 C8.35382319,3.03729899 8.66184439,2.75638237 9.04040816,2.75640212 Z M7.32489796,6.6031746 L7.32489796,5.17079365 C7.32489796,5.03801154 7.44166941,4.93037037 7.58571429,4.93037037 L10.7393878,4.93037037 C10.8834326,4.93037037 11.0002041,5.03801154 11.0002041,5.17079365 L11.0002041,6.6031746 C11.0002041,6.73595671 10.8834326,6.84359788 10.7393878,6.84359788 L7.58571429,6.84359788 C7.44166941,6.84359788 7.32489796,6.73595671 7.32489796,6.6031746 Z" id="Shape" fill-rule="nonzero"></path>
            <path d="M5.96204082,8.65354497 C5.78407894,8.81839714 5.78455078,9.08495611 5.96309532,9.24927204 C6.14163986,9.41358797 6.43080912,9.41358797 6.60935366,9.24927204 C6.7878982,9.08495611 6.78837004,8.81839714 6.61040816,8.65354497 C6.42810535,8.49592686 6.14434363,8.49592686 5.96204082,8.65354497 Z" id="Path"></path>
            <ellipse id="Oval" cx="10.0928571" cy="8.95322751" rx="1" ry="1"></ellipse>
            <ellipse id="Oval" cx="8.19" cy="8.95322751" rx="1" ry="1"></ellipse>
            <path d="M11.6155102,8.7178836 C11.5988579,8.74080776 11.5847073,8.76519466 11.5732653,8.79068783 C11.5613238,8.81633391 11.5520973,8.8429832 11.5457143,8.87026455 C11.5330337,8.92609669 11.5330337,8.98374458 11.5457143,9.03957672 C11.5520877,9.06631229 11.5613164,9.09240067 11.5732653,9.11746032 C11.5842949,9.14366486 11.5984643,9.16865214 11.6155102,9.19195767 C11.6323414,9.21494608 11.651399,9.23648044 11.672449,9.2562963 C11.7590677,9.33516274 11.8758034,9.37954354 11.997551,9.37989418 C12.0277636,9.37953251 12.0578818,9.37669952 12.087551,9.37142857 C12.1164378,9.36591291 12.1447184,9.35797878 12.1720408,9.34772487 C12.1993524,9.33783055 12.225763,9.32594088 12.2510204,9.31216931 C12.2761765,9.29692612 12.2995649,9.27933796 12.3208163,9.25968254 C12.3418663,9.23986668 12.3609239,9.21833232 12.3777551,9.19534392 C12.3946628,9.1719627 12.4088242,9.14698972 12.42,9.12084656 C12.4318723,9.09576003 12.4410985,9.06967865 12.447551,9.04296296 C12.4602316,8.98713082 12.4602316,8.92948294 12.447551,8.87365079 C12.4346502,8.81933252 12.4109889,8.76767432 12.3777551,8.72126984 C12.3614113,8.69795109 12.3423153,8.67637326 12.3208163,8.65693122 C12.1385135,8.4993131 11.8547518,8.4993131 11.672449,8.65693122 C11.6511589,8.67531278 11.63207,8.69574721 11.6155102,8.7178836 Z" id="Path"></path>
        </g>
    </g>
</svg>