<?xml version="1.0" encoding="UTF-8"?>
<svg width="32px" height="32px" viewBox="0 0 32 32" version="1.1" xmlns="http://www.w3.org/2000/svg" xmlns:xlink="http://www.w3.org/1999/xlink">
    <!-- Generator: Sketch 52.5 (67469) - http://www.bohemiancoding.com/sketch -->
    <title>Icons/Package/art</title>
    <desc>Created with Sketch.</desc>
    <g id="Icons/Package/art" stroke="none" stroke-width="1" fill="none" fill-rule="evenodd">
        <rect id="Rectangle" fill="#D8D8D8" opacity="0" x="0" y="0" width="32" height="32"></rect>
        <g id="Group" transform="translate(7.000000, 6.000000)" fill="#718894" fill-rule="nonzero">
            <path d="M9.6,14.65 C9.6,14.9 9.71666667,15.1166667 9.91666667,15.3 C10.2,15.5666667 10.65,15.7333333 11.1333333,15.7333333 C11.15,15.7333333 11.1833333,15.7333333 11.2,15.7333333 C12.0666667,15.7 12.75,15.2 12.7333333,14.5666667 C12.7333333,14.3166667 12.6166667,14.1 12.4166667,13.9166667 C12.1166667,13.6333333 11.65,13.4833333 11.1333333,13.5 C10.25,13.5 9.58333333,14.0166667 9.6,14.65 Z M11.95,14.3833333 C12.0166667,14.45 12.05,14.5166667 12.05,14.5666667 C12.05,14.7833333 11.6833333,15.0333333 11.1666667,15.05 C10.8333333,15.0666667 10.5333333,14.9666667 10.3666667,14.8 C10.3,14.7333333 10.2666667,14.6666667 10.2666667,14.6166667 C10.2666667,14.4 10.6333333,14.15 11.15,14.1333333 C11.4666667,14.1333333 11.7833333,14.2333333 11.95,14.3833333 Z" id="Shape"></path>
            <path d="M4.93333333,12.0333333 C4.93333333,11.7833333 4.81666667,11.5666667 4.61666667,11.3833333 C4.31666667,11.1 3.83333333,10.95 3.33333333,10.9666667 C2.46666667,11 1.78333333,11.5 1.8,12.1333333 C1.8,12.3833333 1.91666667,12.6 2.11666667,12.7833333 C2.4,13.05 2.85,13.2166667 3.33333333,13.2166667 C3.35,13.2166667 3.38333333,13.2166667 3.4,13.2166667 C4.28333333,13.1833333 4.96666667,12.6666667 4.93333333,12.0333333 Z M3.4,12.55 C3.06666667,12.5666667 2.76666667,12.4666667 2.6,12.3 C2.53333333,12.2333333 2.5,12.1666667 2.5,12.1166667 C2.5,11.9 2.86666667,11.65 3.38333333,11.6333333 C3.4,11.6333333 3.41666667,11.6333333 3.43333333,11.6333333 C3.75,11.6333333 4.03333333,11.7166667 4.18333333,11.8833333 C4.25,11.95 4.28333333,12.0166667 4.28333333,12.0666667 C4.28333333,12.2833333 3.9,12.5333333 3.4,12.55 Z" id="Shape"></path>
            <path d="M5.8,13.5833333 C4.93333333,13.6166667 4.25,14.1166667 4.26666667,14.75 C4.26666667,15 4.38333333,15.2166667 4.58333333,15.4 C4.86666667,15.6666667 5.31666667,15.8333333 5.8,15.8333333 C5.81666667,15.8333333 5.85,15.8333333 5.86666667,15.8333333 C6.73333333,15.8 7.41666667,15.3 7.4,14.6666667 C7.4,14.4166667 7.28333333,14.2 7.08333333,14.0166667 C6.78333333,13.7333333 6.3,13.5666667 5.8,13.5833333 Z M5.85,15.1666667 C5.51666667,15.1833333 5.21666667,15.0833333 5.05,14.9166667 C4.98333333,14.85 4.95,14.7833333 4.95,14.7333333 C4.95,14.5166667 5.31666667,14.2666667 5.83333333,14.25 C6.16666667,14.2333333 6.46666667,14.3333333 6.63333333,14.5 C6.7,14.5666667 6.73333333,14.6333333 6.73333333,14.6833333 C6.73333333,14.9 6.35,15.15 5.85,15.1666667 Z" id="Shape"></path>
            <path d="M5.65,10.45 C5.66666667,10.45 5.7,10.45 5.71666667,10.45 C6.58333333,10.4166667 7.26666667,9.91666667 7.25,9.28333333 C7.25,9.03333333 7.13333333,8.81666667 6.93333333,8.63333333 C6.63333333,8.35 6.16666667,8.2 5.65,8.21666667 C4.78333333,8.25 4.1,8.75 4.11666667,9.38333333 C4.11666667,9.63333333 4.23333333,9.85 4.43333333,10.0333333 C4.71666667,10.2833333 5.16666667,10.45 5.65,10.45 Z M5.66666667,8.85 C6,8.83333333 6.3,8.93333333 6.46666667,9.1 C6.53333333,9.16666667 6.56666667,9.23333333 6.56666667,9.28333333 C6.56666667,9.5 6.2,9.75 5.68333333,9.76666667 C5.35,9.78333333 5.05,9.68333333 4.88333333,9.51666667 C4.81666667,9.45 4.78333333,9.38333333 4.78333333,9.33333333 C4.78333333,9.13333333 5.16666667,8.86666667 5.66666667,8.85 Z" id="Shape"></path>
            <path d="M17.7,0.266666667 C17.4666667,0.0833333333 17.1166667,0.1 16.9,0.316666667 L16.5333333,0.716666667 C14.8333333,2.51666667 13.2166667,4.41666667 11.7,6.38333333 C11.4333333,6.31666667 11.15,6.25 10.8666667,6.2 C10.0666667,6.05 9.23333333,6 8.38333333,6.01666667 C7.25,6.05 6.16666667,6.23333333 5.15,6.56666667 C4.15,6.88333333 3.26666667,7.33333333 2.5,7.88333333 C1.73333333,8.45 1.11666667,9.1 0.7,9.81666667 C0.266666667,10.5666667 0.05,11.3833333 0.0666666667,12.2 C0.0833333333,13.0166667 0.35,13.8166667 0.833333333,14.5333333 C1.28333333,15.2333333 1.93333333,15.8333333 2.73333333,16.35 C3.51666667,16.85 4.43333333,17.25 5.45,17.5 C6.38333333,17.7333333 7.35,17.8666667 8.35,17.8666667 C8.46666667,17.8666667 8.58333333,17.8666667 8.71666667,17.8666667 C9.56666667,17.85 10.3833333,17.7333333 11.1833333,17.5333333 C11.95,17.35 12.6833333,17.0833333 13.35,16.75 C13.75,16.55 14.1333333,16.3333333 14.4833333,16.0833333 C14.9833333,15.7333333 15.25,15.1333333 15.2,14.5333333 C15.15,13.95 14.8,13.4166667 14.25,13.1333333 C14.1666667,13.0833333 14.0833333,13.0333333 14,12.9833333 C13.7666667,12.8333333 13.6,12.6333333 13.4666667,12.4333333 C13.35,12.2333333 13.2833333,12.0166667 13.2666667,11.8 C13.2666667,11.5833333 13.3166667,11.3666667 13.4333333,11.15 C13.55,10.9333333 13.7166667,10.75 13.9333333,10.5666667 C14.0166667,10.5 14.1,10.45 14.1833333,10.4 C14.7,10.0833333 15.0333333,9.55 15.05,8.95 C15.0666667,8.33333333 14.7666667,7.75 14.25,7.43333333 C14,7.26666667 13.7166667,7.13333333 13.4333333,7 C14.8833333,5.23333333 16.25,3.38333333 17.5333333,1.5 L17.8333333,1.05 C17.9833333,0.8 17.9333333,0.466666667 17.7,0.266666667 Z M10.1166667,9.7 L10.1666667,9.73333333 C10.1833333,10.05 10.1,10.35 9.93333333,10.6333333 C9.7,11.0166667 9.33333333,11.2833333 8.9,11.3833333 L8.76666667,11.4166667 L8.76666667,11.2833333 C8.76666667,10.8333333 8.95,10.4166667 9.28333333,10.1166667 C9.53333333,9.9 9.81666667,9.75 10.1166667,9.7 Z M10.9166667,8.91666667 L10.6166667,9.25 L10.5,9.15 L10.7666667,8.78333333 C12.5833333,6.23333333 14.6,3.78333333 16.7333333,1.48333333 C14.9666667,4.08333333 13.0166667,6.56666667 10.9166667,8.91666667 Z M13.8,8.16666667 C14.0666667,8.33333333 14.2166667,8.63333333 14.2166667,8.95 C14.2,9.25 14.0333333,9.53333333 13.75,9.7 C13.6333333,9.76666667 13.5166667,9.85 13.4166667,9.91666667 C13.1,10.1666667 12.8666667,10.45 12.7,10.75 C12.5166667,11.0833333 12.4333333,11.45 12.4333333,11.8166667 C12.45,12.1833333 12.55,12.5333333 12.75,12.8666667 C12.9333333,13.1666667 13.2,13.4333333 13.5166667,13.6666667 C13.6166667,13.7333333 13.7333333,13.8166667 13.85,13.8666667 C14.1333333,14.0166667 14.3333333,14.2833333 14.35,14.6 C14.35,14.6 14.35,14.6 14.35,14.6 C14.3833333,14.9166667 14.2333333,15.2333333 13.9833333,15.4 C13.6666667,15.6166667 13.3333333,15.8166667 12.9666667,16 C12.35,16.3 11.6833333,16.55 10.9666667,16.7166667 C10.2333333,16.9 9.46666667,17 8.68333333,17.0166667 C7.63333333,17.05 6.61666667,16.9333333 5.65,16.6833333 C4.73333333,16.45 3.9,16.0833333 3.18333333,15.6333333 C2.48333333,15.1833333 1.91666667,14.65 1.53333333,14.05 C1.13333333,13.45 0.933333333,12.8166667 0.916666667,12.15 C0.9,11.4833333 1.06666667,10.8333333 1.43333333,10.2166667 C1.78333333,9.6 2.31666667,9.03333333 3,8.55 C3.68333333,8.05 4.5,7.65 5.4,7.35 C6.35,7.05 7.35,6.88333333 8.4,6.85 C8.51666667,6.85 8.61666667,6.85 8.73333333,6.85 C9.4,6.85 10.0666667,6.91666667 10.7,7.01666667 C10.85,7.05 11,7.08333333 11.1333333,7.11666667 C10.8166667,7.55 10.5,7.96666667 10.2,8.4 L9.83333333,8.9 C9.41666667,9 9.03333333,9.2 8.7,9.5 C8.2,9.96666667 7.93333333,10.5833333 7.91666667,11.2666667 L7.91666667,11.9333333 C7.91666667,12.0666667 7.96666667,12.1833333 8.06666667,12.2666667 C8.13333333,12.3333333 8.23333333,12.35 8.33333333,12.35 C8.36666667,12.35 8.4,12.35 8.43333333,12.3333333 L9.08333333,12.1833333 C9.73333333,12.0333333 10.2833333,11.6166667 10.6333333,11.05 C10.8666667,10.6666667 10.9666667,10.25 10.9833333,9.81666667 L11.4,9.35 C11.9,8.8 12.3833333,8.23333333 12.85,7.66666667 C13.2,7.81666667 13.5166667,7.98333333 13.8,8.16666667 Z" id="Shape"></path>
        </g>
    </g>
</svg>