<?xml version="1.0" encoding="UTF-8"?>
<svg width="32px" height="32px" viewBox="0 0 32 32" version="1.1" xmlns="http://www.w3.org/2000/svg" xmlns:xlink="http://www.w3.org/1999/xlink">
    <!-- Generator: Sketch 52.5 (67469) - http://www.bohemiancoding.com/sketch -->
    <title>Icons/Package/calculations</title>
    <desc>Created with Sketch.</desc>
    <g id="Icons/Package/calculations" stroke="none" stroke-width="1" fill="none" fill-rule="evenodd">
        <rect id="Rectangle" fill="#D8D8D8" opacity="0" x="0" y="0" width="32" height="32"></rect>
        <path d="M24.1388081,15.999664 L24.9416157,13.4742123 C25.1276059,12.8858949 24.8026014,12.2580614 24.214475,12.069545 L22.7380472,11.6013226 L21.8448084,8.7883012 C21.6569113,8.2001492 21.0276046,7.87513681 20.438511,8.06200342 L16.0092277,9.46667071 L11.5577979,8.05278644 C10.9687044,7.86591983 10.3393976,8.19093222 10.1515005,8.77908423 L9.24903401,11.6123829 L7.78183391,12.078762 C7.19299934,12.2664413 6.86760976,12.8950186 7.05469324,13.4834293 L7.85380977,15.999664 L7.0528477,18.5158987 C6.86576422,19.1043094 7.19115381,19.7328867 7.77998838,19.920566 L9.25641615,20.386945 L10.1570371,23.2202437 C10.3047052,23.6820449 10.7328842,23.9966707 11.2182196,24 C11.3341061,23.9998685 11.4492753,23.9818359 11.5596435,23.9465415 L16.0129187,22.5326573 L20.4422021,23.9373246 C21.0318355,24.1240386 21.6613856,23.7980752 21.8484995,23.2091834 L22.7435838,20.396162 L24.2200116,19.9279396 C24.8088462,19.7402603 25.1342358,19.111683 24.9471523,18.5232723 L24.1388081,15.999664 Z M23.9339537,12.9470012 C24.0378489,12.9796626 24.0956498,13.0901817 24.0631412,13.1940162 L23.655278,14.475176 L23.0831622,12.6815523 L23.9339537,12.9470012 Z M11.029975,9.05928033 C11.0634549,8.95624522 11.1738606,8.89946045 11.2772767,8.93208604 L14.4885071,9.9514837 L10.3268263,11.2713548 L11.029975,9.05928033 Z M8.06235519,19.0412664 C7.95920051,19.0078253 7.90234984,18.8975476 7.9350133,18.7942514 L8.34103093,17.5186218 L8.90945563,19.3177757 L8.06235519,19.0412664 Z M20.9644884,22.9308307 C20.9310085,23.0338658 20.8206028,23.0906505 20.7171867,23.058025 L17.5354849,22.0496877 L21.6621005,20.7390335 L20.9644884,22.9308307 Z M11.2791222,23.0672419 C11.1757061,23.0998675 11.0653004,23.0430828 11.0318205,22.9400476 L7.93316776,13.2032332 C7.90065912,13.0993987 7.95846001,12.9888795 8.06235519,12.9562182 L20.7171867,8.93945963 C20.8206028,8.90683403 20.9310085,8.9636188 20.9644884,9.06665391 L24.0631412,18.8034684 C24.0956498,18.9073029 24.0378489,19.017822 23.9339537,19.0504834 L11.2791222,23.0672419 Z M17.1848333,15.9222414 C17.0902308,16.1064898 16.883837,16.2046586 16.6810023,16.1618828 L14.5512552,15.7194679 L12.4528823,19.2403531 C12.3213976,19.4587311 12.0375725,19.5292956 11.8189411,19.3979634 C11.6003097,19.2666312 11.5296633,18.9831351 11.6611479,18.7647571 L13.9311556,14.9618324 C14.0314702,14.7921295 14.229044,14.7053275 14.4220678,14.7461551 L16.5296685,15.18857 L18.1131372,12.1432808 L17.6388348,12.2925958 C17.3957412,12.3694608 17.1362911,12.2349343 17.0593369,11.9921224 C16.9823828,11.7493105 17.1170654,11.4901612 17.3601591,11.4132962 L18.895644,10.9284833 C19.0123809,10.891487 19.1390544,10.9023681 19.2477534,10.9587293 C19.3564523,11.0150904 19.4382568,11.1123064 19.4751419,11.2289567 L19.962363,12.7626617 C20.013792,12.9197334 19.9774204,13.0922789 19.8669489,13.215302 C19.7564774,13.3383251 19.5886893,13.3931355 19.4267888,13.3590868 C19.2648883,13.3250382 19.133472,13.2073031 19.082043,13.0502314 L18.9325547,12.5764787 L17.1848333,15.9222414 Z M20.8223822,18.1527498 C20.8718332,18.3098216 20.8336337,18.481313 20.7221732,18.602625 C20.6107127,18.723937 20.4429246,18.7766394 20.2820132,18.7408797 C20.1211017,18.70512 19.9915131,18.5863309 19.9420622,18.4292591 L18.8937984,15.1111474 C18.8440178,14.9540757 18.8819126,14.7824085 18.9932083,14.6608113 C19.104504,14.5392141 19.272292,14.4861604 19.4333683,14.521635 C19.5944446,14.5571095 19.7243379,14.675723 19.7741185,14.8327947 L20.8223822,18.1527498 Z M18.6077406,18.8513967 C18.6864746,19.0132199 18.6637246,19.2060137 18.5494805,19.3451179 C18.4352365,19.4842221 18.2503909,19.5441979 18.0761137,19.4987085 C17.9018365,19.4532191 17.7699989,19.3105835 17.7384937,19.1334362 L17.2051342,17.4393558 C17.1556832,17.282284 17.1938827,17.1107926 17.3053432,16.9894806 C17.4168037,16.8681686 17.5845918,16.8154662 17.7455032,16.8512259 C17.9064147,16.8869856 18.0360033,17.0057747 18.0854542,17.1628465 L18.6077406,18.8513967 Z M16.3930989,19.5482001 C16.4695434,19.791012 16.3344476,20.0497486 16.091354,20.1261046 C15.8482603,20.2024605 15.5892234,20.0675213 15.5127788,19.8247094 L14.8170122,17.612635 C14.7405677,17.3698231 14.8756635,17.1110864 15.1187572,17.0347305 C15.3618508,16.9583746 15.6208878,17.0933138 15.6973323,17.3361256 L16.3930989,19.5482001 Z M14.2079858,20.2486904 C14.2567774,20.4060914 14.2177928,20.5775358 14.1057171,20.6984421 C13.9936414,20.8193484 13.8255016,20.8713481 13.6646343,20.8348534 C13.503767,20.7983587 13.3746118,20.6789139 13.3258202,20.5215129 L13.1892506,20.079098 C13.1138253,19.8357771 13.2501606,19.5774531 13.4937639,19.5021152 C13.7373672,19.4267774 13.9959909,19.5629546 14.0714162,19.8062755 L14.2079858,20.2486904 Z" id="Shape" fill="#718894" fill-rule="nonzero"></path>
    </g>
</svg>