<?xml version="1.0" encoding="UTF-8"?>
<svg width="32px" height="32px" viewBox="0 0 32 32" version="1.1" xmlns="http://www.w3.org/2000/svg" xmlns:xlink="http://www.w3.org/1999/xlink">
    <!-- Generator: Sketch 52.5 (67469) - http://www.bohemiancoding.com/sketch -->
    <title>Icons/Package/consultation</title>
    <desc>Created with Sketch.</desc>
    <g id="Icons/Package/consultation" stroke="none" stroke-width="1" fill="none" fill-rule="evenodd">
        <rect id="Rectangle" fill="#D8D8D8" opacity="0" x="0" y="0" width="32" height="32"></rect>
        <path d="M18.0274032,9 L9.8988025,9 C8.85012286,9 8.00000005,9.82659203 8.00000005,10.846245 L8.00000005,15.3947212 C7.9997894,16.3327089 8.72296331,17.1217752 9.68130331,17.2292174 L9.68130331,19.4379977 C9.68113794,19.6284168 9.79146342,19.8026374 9.96640825,19.8882213 C10.1413531,19.9738052 10.3509861,19.9561101 10.5081455,19.8424932 L12.0910562,18.6978213 C12.2164168,19.6144459 13.0198545,20.2995196 13.9708707,20.3006977 L16.8979394,20.3006977 L20.4901284,22.9005463 C20.6472877,23.0141631 20.8569208,23.0318582 21.0318656,22.9462743 C21.2068104,22.8606904 21.3171359,22.6864699 21.3169706,22.4960508 L21.3169706,20.2889488 C22.2759951,20.1822944 24.00011,19.3930117 24,18.4544527 L24,13.9059764 C24,12.8863235 23.1498772,12.0597314 22.1011975,12.0597314 L19.9262056,12.0597314 L19.9262056,10.846245 C19.9262056,9.82659203 19.0760828,9 18.0274032,9 Z M10.1991585,16.2339235 L9.8988025,16.2339235 C9.42212994,16.2339235 9.03571048,15.8581998 9.03571048,15.3947212 L9.03571048,10.846245 C9.03571048,10.3827664 9.42212994,10.0070427 9.8988025,10.0070427 L18.0274032,10.0070427 C18.5040758,10.0070427 18.8904952,10.3827664 18.8904952,10.846245 L18.8904952,12.0597314 L13.9708707,12.0597314 C12.922191,12.0597314 12.0720682,12.8863235 12.0720682,13.9059764 L12.0720682,17.455802 L10.7170137,18.4359902 L10.7170137,16.7374449 C10.7170137,16.4593577 10.4851621,16.2339235 10.1991585,16.2339235 Z M22.9625634,13.9059764 L22.9625634,18.4544527 C22.9625634,18.9179313 21.5761439,19.2936549 21.0994714,19.2936549 L20.7991153,19.2936549 C20.5131118,19.2936549 20.2812601,19.5190891 20.2812601,19.7971763 L20.2812601,21.4957217 L17.3743662,19.3926808 C17.2864103,19.329273 17.1800475,19.2946042 17.0705578,19.2936549 L13.9708707,19.2936549 C13.4941981,19.2936549 13.1077786,18.9179313 13.1077786,18.4544527 L13.1077786,13.9059764 C13.1077786,13.4424978 13.4941981,13.0667742 13.9708707,13.0667742 L22.0994714,13.0667742 C22.5761439,13.0667742 22.9625634,13.4424978 22.9625634,13.9059764 Z" id="Shape" fill="#718894" fill-rule="nonzero"></path>
    </g>
</svg>