<?xml version="1.0" encoding="UTF-8"?>
<svg width="32px" height="32px" viewBox="0 0 32 32" version="1.1" xmlns="http://www.w3.org/2000/svg" xmlns:xlink="http://www.w3.org/1999/xlink">
    <!-- Generator: Sketch 52.5 (67469) - http://www.bohemiancoding.com/sketch -->
    <title>Icons/Package/doc</title>
    <desc>Created with Sketch.</desc>
    <g id="Icons/Package/doc" stroke="none" stroke-width="1" fill="none" fill-rule="evenodd">
        <rect id="Rectangle" fill="#D8D8D8" opacity="0" x="0" y="0" width="32" height="32"></rect>
        <path d="M11.2098207,24 C10.542306,24.0000007 10.0009208,23.4210214 10.0000026,22.7061715 L10.0000026,12.6513773 C9.99931371,12.2873709 10.1347581,11.9382258 10.3760946,11.6818969 L13.4380826,8.40099012 C13.6776072,8.14302476 14.0036674,7.99860193 14.343366,8.0000102 L20.7901819,8.0000102 C21.4570469,8.00099186 21.9974192,8.57968398 21.9983359,9.29383874 L21.9983359,22.538651 C21.9983359,22.7847122 21.8120725,22.9841842 21.5823049,22.9841842 C21.3525373,22.9841842 21.1662739,22.7847122 21.1662739,22.538651 L21.1662739,9.29383874 C21.1653626,9.07180492 20.9975131,8.89205267 20.7901819,8.89107669 L14.3982821,8.89107669 L14.3982821,11.6444721 C14.3982821,12.235019 13.9512499,12.7137519 13.3998077,12.7137519 L10.8320646,12.7137519 L10.8320646,22.7061715 C10.8329808,22.9288988 11.0018399,23.1089357 11.2098207,23.1089335 L20.7901819,23.1089335 C20.9988109,23.1089335 21.1679381,22.9278129 21.1679381,22.7043893 L21.1679381,21.0594806 C21.1679381,20.8134194 21.3542015,20.6139474 21.583969,20.6139474 C21.8137366,20.6139474 22,20.8134194 22,21.0594806 L22,22.7043893 C21.9990833,23.4195283 21.4579659,23.9990183 20.7901819,24 L11.2098207,24 Z M13.577869,9.52016963 L11.4145079,11.817339 L13.4114566,11.817339 C13.5033636,11.817339 13.577869,11.7375502 13.577869,11.6391257 L13.577869,9.52016963 Z M19.0794626,12.8990937 L16.3536276,12.8990937 C16.1238601,12.8990937 15.9375967,12.6996217 15.9375967,12.4535605 C15.9375967,12.2074993 16.1238601,12.0080273 16.3536276,12.0080273 L19.0794626,12.0080273 C19.3092301,12.0080273 19.4954935,12.2074993 19.4954935,12.4535605 C19.4954935,12.6996217 19.3092301,12.8990937 19.0794626,12.8990937 Z M12.465,14.9717144 C12.4669054,14.7270462 12.6605139,14.5297376 12.8986809,14.5297454 L19.1662365,14.5297454 C19.4057518,14.5297454 19.5999173,14.7292174 19.5999173,14.9752786 C19.5999173,15.2213399 19.4057518,15.4208119 19.1662365,15.4208119 L12.8986809,15.4208119 C12.7830579,15.4208157 12.6722204,15.3733868 12.590789,15.2890606 C12.5093576,15.2047344 12.464075,15.0904935 12.465,14.9717144 Z M19.4734439,16.7128583 C19.7032115,16.7128583 19.8894749,16.9123303 19.8894749,17.1583915 C19.8894749,17.4044527 19.7032115,17.6039248 19.4734439,17.6039248 L12.8810171,17.6039248 C12.6512495,17.6039248 12.4649861,17.4044527 12.4649861,17.1583915 C12.4649861,16.9123303 12.6512495,16.7128583 12.8810171,16.7128583 L19.4734439,16.7128583 Z M19.3178483,18.8959712 C19.5476159,18.8959712 19.7338793,19.0954432 19.7338793,19.3415044 C19.7338793,19.5875656 19.5476159,19.7870377 19.3178483,19.7870377 L12.8810171,19.7870377 C12.6512495,19.7870377 12.4649861,19.5875656 12.4649861,19.3415044 C12.4649861,19.0954432 12.6512495,18.8959712 12.8810171,18.8959712 L19.3178483,18.8959712 Z" id="Combined-Shape" fill="#718894" fill-rule="nonzero"></path>
    </g>
</svg>