<?xml version="1.0" encoding="UTF-8"?>
<svg width="32px" height="32px" viewBox="0 0 32 32" version="1.1" xmlns="http://www.w3.org/2000/svg" xmlns:xlink="http://www.w3.org/1999/xlink">
    <!-- Generator: Sketch 52.5 (67469) - http://www.bohemiancoding.com/sketch -->
    <title>Icons/Package/ebook</title>
    <desc>Created with Sketch.</desc>
    <g id="Icons/Package/ebook" stroke="none" stroke-width="1" fill="none" fill-rule="evenodd">
        <rect id="Rectangle" fill="#D8D8D8" opacity="0" x="0" y="0" width="32" height="32"></rect>
        <path d="M15.0464387,16.2580696 C14.9619026,16.3012873 14.8577497,16.3012873 14.7732136,16.2580696 C14.6895191,16.2152878 14.6375727,16.1365397 14.6366011,16.050972 L14.6366011,13.5328973 C14.636408,13.4463765 14.6884082,13.3663501 14.7729797,13.3230157 C14.8575512,13.2796813 14.9618191,13.2796358 15.0464387,13.3228965 L17.5,14.5809661 C17.5845294,14.6241855 17.6366005,14.7040519 17.6366005,14.790483 C17.6366005,14.8769142 17.5845294,14.9567806 17.5,15 L15.0464387,16.2580696 Z M23.3828571,10.607671 C23.7236957,10.607671 24,10.8813897 24,11.2190388 L24,20.8165434 C24,21.1541926 23.7236957,21.4279113 23.3828571,21.4279113 L19.3371429,21.4279113 C18.6533367,21.4205363 17.9992676,21.7044555 17.5412245,22.2074861 C17.1881332,22.7042111 16.6132638,22.999815 16,23 C15.3901025,22.9997436 14.8181263,22.706787 14.4653061,22.2139556 C14.0049688,21.7132954 13.3530024,21.4279402 12.6693878,21.4279113 L8.61714286,21.4279113 C8.45346639,21.4279113 8.29649369,21.3634995 8.18075696,21.2488458 C8.06502022,21.1341921 8,20.9786883 8,20.8165434 L8,11.2190388 C8,10.8813897 8.27630427,10.607671 8.61714286,10.607671 L9.83510204,10.607671 L9.83510204,9.40434381 C9.83510204,9.18103089 10.017843,9 10.2432653,9 L12.7836735,9 C13.9769214,9.00139374 15.1256375,9.44907101 16,10.2534658 C16.8743625,9.44907101 18.0230786,9.00139374 19.2163265,9 L21.7567347,9 C21.982157,9 22.164898,9.18103089 22.164898,9.40434381 L22.164898,10.607671 L23.3828571,10.607671 Z M10.6481633,9.80868762 L10.6514286,18.793207 L12.7836735,18.793207 C13.7948431,18.793867 14.7791275,19.1158681 15.5918367,19.7118762 L15.5918367,18.4535582 C15.5918367,18.2302453 15.7745777,18.0492144 16,18.0492144 C16.2254223,18.0492144 16.4081633,18.2302453 16.4081633,18.4535582 L16.4081633,19.7102588 C17.2208725,19.1142508 18.2051569,18.7922496 19.2163265,18.7915896 L21.3485714,18.7915896 L21.3485714,9.80383549 L19.2163265,9.80383549 C18.1571982,9.80457527 17.143755,10.2312581 16.4081633,10.9861368 L16.4081633,11.6541128 C16.4081633,11.8774257 16.2254223,12.0584566 16,12.0584566 C15.7745777,12.0584566 15.5918367,11.8774257 15.5918367,11.6541128 L15.5918367,10.9861368 C14.8554187,10.2330433 13.8420809,9.80815566 12.7836735,9.80868762 L10.6481633,9.80868762 Z M23.1836735,20.6192237 L23.1836735,11.4163586 L22.164898,11.4163586 L22.164898,19.1959335 C22.164898,19.4192464 21.982157,19.6002773 21.7567347,19.6002773 L19.2146939,19.6002773 C18.1027392,19.6017363 17.0440473,20.0723073 16.3036735,20.8941774 C16.2262337,20.9801146 16.1154691,21.0292501 15.9991837,21.0292501 C15.8828983,21.0292501 15.7721337,20.9801146 15.6946939,20.8941774 C14.9544456,20.0721375 13.8956727,19.6015306 12.7836735,19.6002773 L10.2432653,19.6002773 C10.017843,19.6002773 9.83510204,19.4192464 9.83510204,19.1959335 L9.83510204,11.4163586 L8.81632653,11.4163586 L8.81632653,20.6192237 L12.6693878,20.6192237 C13.593423,20.6198714 14.4734208,21.0104588 15.0889796,21.6931608 C15.1007753,21.7058912 15.1116848,21.7194004 15.1216327,21.7335952 C15.3189388,22.0218525 15.6484406,22.1935558 16,22.1913124 C16.3515594,22.1935558 16.6810612,22.0218525 16.8783673,21.7335952 C16.8885118,21.7190291 16.8994108,21.704993 16.9110204,21.6915434 C17.5230408,21.0042607 18.4054878,20.613176 19.3306122,20.6192237 L23.1836735,20.6192237 Z" id="Combined-Shape" fill="#718894" fill-rule="nonzero"></path>
    </g>
</svg>