<?xml version="1.0" encoding="UTF-8"?>
<svg width="32px" height="32px" viewBox="0 0 32 32" version="1.1" xmlns="http://www.w3.org/2000/svg" xmlns:xlink="http://www.w3.org/1999/xlink">
    <!-- Generator: Sketch 52.5 (67469) - http://www.bohemiancoding.com/sketch -->
    <title>Icons/Package/exclusive</title>
    <desc>Created with Sketch.</desc>
    <g id="Icons/Package/exclusive" stroke="none" stroke-width="1" fill="none" fill-rule="evenodd">
        <rect id="Rectangle" fill="#D8D8D8" opacity="0" x="0" y="0" width="32" height="32"></rect>
        <path d="M8.64618967,16.9610467 C8.84116379,17.5652978 9.32469989,18.0367183 9.93988796,18.2223299 C10.3582997,18.3488705 10.6411772,18.7331018 10.6334374,19.1643752 C10.6252846,19.6859184 10.8309077,20.1886597 11.2037775,20.5588373 C11.7393619,21.0854776 12.5297282,21.2709391 13.2486555,21.0386732 C13.6646978,20.9005149 14.1235673,21.0449127 14.3813867,21.3951228 C14.7503636,21.9152299 15.355084,22.2234685 15.9990064,22.2196573 C16.6417861,22.2188159 17.2444568,21.9116221 17.6166261,21.3951228 C17.8719944,21.0477443 18.3254627,20.9022014 18.739421,21.0347562 C19.4583284,21.2674927 20.2489476,21.0819719 20.784299,20.5549202 C21.1571689,20.1847427 21.3627919,19.6820014 21.3546391,19.1604581 C21.3468994,18.7291848 21.6297768,18.3449535 22.0481886,18.2184128 C22.6662531,18.0363336 23.1537844,17.5661057 23.3518231,16.9610467 C23.5472057,16.3610743 23.4377517,15.7050994 23.0577104,15.198384 C22.7947294,14.853904 22.7947294,14.3795065 23.0577104,14.0350266 C23.4377517,13.5283112 23.5472057,12.8723363 23.3518231,12.2723638 C23.156849,11.6681127 22.6733129,11.1966922 22.0581248,11.0110807 C21.639713,10.88454 21.3568356,10.5003087 21.3645753,10.0690353 C21.3728028,9.54268655 21.1633054,9.03570776 20.784299,8.66478069 C20.2487479,8.13669736 19.4573222,7.9504103 18.7374338,8.1829862 C18.3240696,8.31394731 17.8721001,8.16862828 17.6166261,7.82261959 C17.2440237,7.30686185 16.6414244,7.00043403 15.9990064,7.00004364 C15.355451,6.99578626 14.7508048,7.30325498 14.3813867,7.82261959 C14.1256315,8.16947409 13.6725496,8.31489297 13.2585917,8.1829862 C13.0532442,8.1136335 12.8377545,8.07790704 12.6206852,8.07722644 C12.0902915,8.07992157 11.583,8.29146879 11.2117265,8.66478069 C10.8388566,9.03495822 10.6332336,9.53769956 10.6413864,10.0592428 C10.6491261,10.4905162 10.3662487,10.8747474 9.94783695,11.0012881 C9.33053261,11.1839203 8.84383746,11.6540584 8.64618967,12.2586542 C8.45080705,12.8586267 8.56026107,13.5146016 8.94030233,14.021317 C9.19935328,14.3670816 9.19935328,14.8389097 8.94030233,15.1846744 C8.55564986,15.694706 8.44600041,16.3569632 8.64618967,16.9610467 Z M9.73917593,13.4357212 C9.55008337,13.1816461 9.49659441,12.8534189 9.59544974,12.553766 C9.69430507,12.2541132 9.93342647,12.0196466 10.2379751,11.9237483 C11.0758677,11.6701997 11.6428904,10.9014174 11.6290486,10.0376991 C11.6246808,9.77764148 11.7271705,9.52688802 11.913225,9.34242659 C12.1009012,9.15792224 12.3556039,9.05497587 12.6206852,9.05648352 C12.7288862,9.05693058 12.8362867,9.07479235 12.9386448,9.1093634 C13.7684661,9.38534423 14.6837799,9.09340145 15.1921838,8.3905887 C15.3788658,8.13462692 15.6791578,7.9828823 15.9990064,7.9828823 C16.3188549,7.9828823 16.619147,8.13462692 16.805829,8.3905887 C17.1784314,8.90634645 17.7810306,9.21277426 18.4234486,9.21316466 C18.6389648,9.21331947 18.8530714,9.17892272 19.0573807,9.11132192 C19.4166222,8.99322211 19.8127449,9.08664353 20.078826,9.35221916 C20.2611917,9.5341303 20.3627077,9.78002332 20.3610152,10.0357406 C20.3471734,10.8994588 20.9141961,11.6682412 21.7520886,11.9217898 C22.0566373,12.0176881 22.2957587,12.2521547 22.394614,12.5518075 C22.4934693,12.8514603 22.4399804,13.1796876 22.2508878,13.4337627 C21.7239338,14.1245732 21.7239338,15.0755426 22.2508878,15.7663531 C22.4416971,16.0205829 22.4961963,16.3499741 22.397219,16.6507738 C22.2982417,16.9515736 22.0579712,17.1867562 21.7520886,17.282243 C20.9141961,17.5357916 20.3471734,18.304574 20.3610152,19.1682922 C20.3648447,19.4276741 20.2623958,19.6776217 20.0768388,19.8616062 C19.8107577,20.1271818 19.4146349,20.2206033 19.0553934,20.1025035 C18.2257224,19.8278993 17.3114359,20.1205671 16.8038417,20.8232367 C16.6171597,21.0791985 16.3168677,21.2309431 15.9970191,21.2309431 C15.6771706,21.2309431 15.3768785,21.0791985 15.1901965,20.8232367 C14.6826023,20.1205671 13.7683158,19.8278993 12.9386448,20.1025035 C12.5794033,20.2206033 12.1832806,20.1271818 11.9171995,19.8616062 C11.7316424,19.6776217 11.6291936,19.4276741 11.633023,19.1682922 C11.6468649,18.304574 11.0798422,17.5357916 10.2419496,17.282243 C9.93740097,17.1863447 9.69827956,16.9518781 9.59942424,16.6522253 C9.50056891,16.3525725 9.55405786,16.0243452 9.74315043,15.7702701 C10.2676421,15.0813082 10.2692598,14.1342537 9.74712493,13.4435553 L9.73917593,13.4357212 Z M7.1497921,22.6035261 L8.89658288,19.8616062 C9.04694129,19.64354 9.3455054,19.5819641 9.57196863,19.7223145 C9.79843186,19.8626649 9.8714698,20.1545409 9.73718869,20.382571 L8.00828314,23.0951131 L9.58019611,22.8444233 C10.0469103,22.7648012 10.4999987,23.0428338 10.6334374,23.490733 L11.0825554,24.9968304 L12.8412697,22.2431594 C12.9251272,22.0741731 13.0998039,21.967476 13.2906733,21.9686521 C13.4815426,21.9698283 13.654852,22.0786696 13.7365589,22.2486762 C13.8182657,22.4186828 13.7939214,22.6197913 13.6739265,22.7660827 L11.897327,25.5471729 C11.7208963,25.8277657 11.4095496,25.9982352 11.0746064,25.9976311 C11.0282927,26.0007896 10.9818128,26.0007896 10.9354991,25.9976311 C10.556747,25.9446478 10.2452054,25.6767581 10.1406,25.3141097 L9.69744373,23.8275974 L8.14540323,24.0763287 C7.76427412,24.1417149 7.37986665,23.9794792 7.16487826,23.6625069 C6.94988987,23.3455346 6.94475454,22.9334404 7.15177935,22.6113601 L7.1497921,22.6035261 Z M22.4178166,22.8444233 L23.9897296,23.0970716 L22.2608241,20.390405 C22.1586988,20.2422918 22.1467638,20.0510478 22.2297023,19.8917169 C22.3126408,19.7323859 22.4772208,19.6303875 22.6588615,19.6257458 C22.8405021,19.6211041 23.0102245,19.7145595 23.1014299,19.8694403 L24.8482206,22.6113601 C25.0552455,22.9334404 25.0501101,23.3455346 24.8351217,23.6625069 C24.6201334,23.9794792 24.2357259,24.1417149 23.8545968,24.0763287 L22.3025563,23.8275974 L21.867349,25.3121512 C21.7627436,25.6747996 21.451202,25.9426893 21.0724499,25.9956726 C21.0261362,25.9988311 20.9796563,25.9988311 20.9333426,25.9956726 C20.5983994,25.9962767 20.2870527,25.8258072 20.110622,25.5452143 L18.3240863,22.7660827 C18.221961,22.6179695 18.210026,22.4267255 18.2929645,22.2673945 C18.375903,22.1080636 18.540483,22.0060652 18.7221237,22.0014235 C18.9037643,21.9967818 19.0734867,22.0902372 19.1646921,22.245118 L20.9234063,24.9987889 L21.3645753,23.490733 C21.498014,23.0428338 21.9511024,22.7648012 22.4178166,22.8444233 Z M13.8726513,15.3335214 L13.5368064,17.2430728 C13.5042772,17.4270581 13.5807796,17.6132573 13.7340331,17.7231028 C13.8872865,17.8329482 14.0905972,17.8473071 14.2581773,17.7601205 L15.9990064,16.8572455 L17.7398354,17.758162 C17.9074155,17.8453486 18.1107263,17.8309897 18.2639797,17.7211443 C18.4172331,17.6112988 18.4937355,17.4250996 18.4612064,17.2411143 L18.129336,15.3315629 L19.5382946,13.9782296 C19.6732379,13.8479619 19.7215494,13.6535448 19.6629552,13.4765649 C19.604361,13.2995851 19.4489993,13.1706638 19.2620672,13.1439026 L17.3165516,12.8657936 L16.4461371,11.1285915 C16.3622951,10.9618636 16.1898039,10.8563845 16.0009936,10.8563845 C15.8121833,10.8563845 15.6396921,10.9618636 15.5558501,11.1285915 L14.6854356,12.8657936 L12.7399201,13.1439026 C12.5529879,13.1706638 12.3976262,13.2995851 12.3390321,13.4765649 C12.2804379,13.6535448 12.3287493,13.8479619 12.4636926,13.9782296 L13.8726513,15.3335214 Z M15.0868597,13.8000048 C15.2486019,13.7765921 15.3883057,13.6762587 15.4604622,13.5316884 L15.9990064,12.4525471 L16.5395378,13.5316884 C16.6116943,13.6762587 16.7513981,13.7765921 16.9131403,13.8000048 L18.121387,13.9723541 L17.246998,14.8125567 C17.1300128,14.9248837 17.0765199,15.0867031 17.1039161,15.2453883 L17.3026409,16.4302894 L16.2295271,15.8721128 C16.0846191,15.7968959 15.9114064,15.7968959 15.7664984,15.8721128 L14.6874229,16.4322479 L14.8861476,15.2473468 C14.9135439,15.0886616 14.860051,14.9268422 14.7430658,14.8145152 L13.8686768,13.9743126 L15.0868597,13.8000048 Z" id="Shape" fill="#718894" fill-rule="nonzero"></path>
    </g>
</svg>