<?xml version="1.0" encoding="UTF-8"?>
<svg width="32px" height="32px" viewBox="0 0 32 32" version="1.1" xmlns="http://www.w3.org/2000/svg" xmlns:xlink="http://www.w3.org/1999/xlink">
    <!-- Generator: Sketch 52.5 (67469) - http://www.bohemiancoding.com/sketch -->
    <title>Icons/Package/guide</title>
    <desc>Created with Sketch.</desc>
    <g id="Icons/Package/guide" stroke="none" stroke-width="1" fill="none" fill-rule="evenodd">
        <rect id="Rectangle" fill="#D8D8D8" opacity="0" x="0" y="0" width="32" height="32"></rect>
        <g id="Group" transform="translate(8.000000, 8.000000)" fill="#718894">
            <path d="M15.0704,3.3504 L14.0032,3.3504 L14.0032,2 C14.0032034,1.89335663 13.9606217,1.7911271 13.8849136,1.71601988 C13.8092055,1.64091266 13.70664,1.59914685 13.6,1.6 L11.0592,1.6 C9.98428684,1.60068938 8.94178384,1.96813359 8.104,2.6416 C7.62215347,1.1493432 6.23051217,0.140063593 4.6624,0.1456 L3.792,0.1456 C3.5710861,0.1456 3.392,0.3246861 3.392,0.5456 L3.392,1.6 L2.08,1.6 C1.8590861,1.6 1.68,1.7790861 1.68,2 L1.68,3.3504 L0.6096,3.3504 C0.448367017,3.34912033 0.293297769,3.41227478 0.178835494,3.52583578 C0.0643732199,3.63939677 -5.07812478e-06,3.79396194 6.57252031e-14,3.9552 L6.57252031e-14,13.76 C6.58317845e-14,14.0940218 0.270778183,14.3648 0.6048,14.3648 L4.5728,14.3648 C5.24481683,14.359723 5.88633266,14.6449059 6.3328,15.1472 C6.70048194,15.5919342 7.2467377,15.8503391 7.82377658,15.8525026 C8.40081547,15.8546661 8.94899354,15.6003647 9.32,15.1584 C9.76997087,14.651343 10.414879,14.3603195 11.0928,14.3584 L15.0608,14.3584 C15.222579,14.3622616 15.3791579,14.301129 15.4955233,14.1886725 C15.6118887,14.0762161 15.6783336,13.9218165 15.68,13.76 L15.68,3.9552 C15.6800051,3.79396194 15.6156268,3.63939677 15.5011645,3.52583578 C15.3867022,3.41227478 15.231633,3.34912033 15.0704,3.3504 Z M11.0592,2.4 L13.2032,2.4 L13.2032,11.8144 L11.0592,11.8144 C10.0430396,11.8153148 9.05430607,12.1441444 8.24,12.752 L8.24,3.6 C8.97801916,2.83409678 9.99558395,2.40096761 11.0592,2.4 Z M4.192,0.945537043 L4.6624,0.9456 C5.91870599,0.937217635 7.0267977,1.7666511 7.3728,2.9744 C7.40269309,3.0793547 7.42514877,3.18628651 7.44,3.2944 L7.44,11.3248 C6.74711543,10.5108263 5.73134242,10.0427282 4.6624,10.0448 L4.192,10.0448 L4.192,0.945537043 Z M2.4768,2.4 L3.392,2.4 L3.392,10.4416 C3.392,10.6625139 3.5710861,10.8416 3.792,10.8416 L4.6624,10.8416 C5.83409644,10.8353971 6.88647505,11.5573926 7.3024,12.6528 C6.51386868,12.107387 5.57797874,11.8149563 4.6192,11.8144 L2.4768,11.8144 L2.4768,2.4 Z M14.88,13.5664 L11.1024,13.5664 C10.1926875,13.5678139 9.32693451,13.9578977 8.7232,14.6384 C8.50585533,14.9000522 8.1833479,15.0514171 7.8432,15.0514171 C7.5030521,15.0514171 7.18054467,14.9000522 6.9632,14.6384 L6.9504,14.6224 C6.35082103,13.9433435 5.486656,13.5570658 4.5808,13.5632 L0.8,13.5632 L0.8,4.1504 L1.6704,4.1504 L1.6704,12.2144 C1.6704,12.4353139 1.8494861,12.6144 2.0704,12.6144 L4.6144,12.6144 C5.73132253,12.6128171 6.79588143,13.0877652 7.5408,13.92 C7.61669099,14.0050139 7.72524031,14.0536216 7.8392,14.0536216 C7.95315969,14.0536216 8.06170901,14.0050139 8.1376,13.92 C8.88111451,13.0884201 9.94370058,12.6129914 11.0592,12.6128 L13.6,12.6128 C13.8209139,12.6128 14,12.4337139 14,12.2128 L14,4.1504 L14.88,4.1504 L14.88,13.5664 Z" id="Shape" fill-rule="nonzero"></path>
            <path d="M9.2128,6.2192 C9.32965363,6.29241008 9.47597594,6.30027037 9.6,6.24 C9.72242108,6.18006677 9.84793016,6.12665865 9.976,6.08 C10.3977601,5.92522621 10.8435379,5.84614536 11.2928,5.8464 L11.9568,5.8464 C12.1777139,5.8464 12.3568,5.6673139 12.3568,5.4464 L12.3568,3.68 C12.3568,3.4590861 12.1777139,3.28 11.9568,3.28 L11.2944,3.28 C10.5839096,3.28042281 9.88308597,3.44467835 9.2464,3.76 C9.11018391,3.82749792 9.02400407,3.96637765 9.024,4.1184 L9.024,5.8784 C9.02361828,6.01704309 9.09505737,6.1459967 9.2128,6.2192 Z M9.824,4.3664 L9.984,4.3072 C10.4057514,4.15239371 10.8515349,4.07331181 11.3008,4.0736 L11.5648,4.07359922 L11.5648,5.0432 L11.2944,5.0432 C10.7946733,5.04193625 10.298064,5.12191251 9.824,5.28 L9.824,4.3664 Z" id="Shape" fill-rule="nonzero"></path>
            <path d="M9.2128,9.6 C9.32993442,9.67269636 9.47624833,9.6799516 9.6,9.6192 C9.72243718,9.55930199 9.84794438,9.50589467 9.976,9.4592 C10.3977514,9.30439371 10.8435349,9.22531181 11.2928,9.2256 L11.9568,9.2256 C12.1777139,9.2256 12.3568,9.0465139 12.3568,8.8256 L12.3568,7.0528 C12.3568,6.8318861 12.1777139,6.6528 11.9568,6.6528 L11.2944,6.6528 C10.5839163,6.65328029 9.88310554,6.8175328 9.2464,7.1328 C9.11018391,7.20029792 9.02400407,7.33917765 9.024,7.4912 L9.024,9.2592 C9.02361828,9.39784309 9.09505737,9.5267967 9.2128,9.6 Z M9.824,7.7472 L9.984,7.688 C10.4057601,7.53322621 10.8515379,7.45414536 11.3008,7.4544 L11.5648,7.45439939 L11.5648,8.424 L11.2944,8.424 C10.7944954,8.42373933 10.297877,8.50479783 9.824,8.664 L9.824,7.7472 Z" id="Shape" fill-rule="nonzero"></path>
            <path d="M11.9584,10.0224 L11.2944,10.0224 C10.748505,10.0213146 10.2067568,10.117204 9.6944,10.3056 C9.53958221,10.3625708 9.38790163,10.4277293 9.24,10.5008 C9.04206115,10.6002113 8.96218875,10.8412611 9.0616,11.0392 C9.16101125,11.2371389 9.40206115,11.3170113 9.6,11.2176 C9.72243718,11.157702 9.84794438,11.1042947 9.976,11.0576 C10.3977514,10.9027937 10.8435349,10.8237118 11.2928,10.824 L11.9568,10.824 C12.1777139,10.824 12.3568,10.6449139 12.3568,10.424 C12.3568,10.2030861 12.1777139,10.024 11.9568,10.024 L11.9584,10.0224 Z" id="Path"></path>
        </g>
    </g>
</svg>