<?xml version="1.0" encoding="UTF-8"?>
<svg width="32px" height="32px" viewBox="0 0 32 32" version="1.1" xmlns="http://www.w3.org/2000/svg" xmlns:xlink="http://www.w3.org/1999/xlink">
    <!-- Generator: Sketch 52.5 (67469) - http://www.bohemiancoding.com/sketch -->
    <title>Icons/Package/learning</title>
    <desc>Created with Sketch.</desc>
    <g id="Icons/Package/learning" stroke="none" stroke-width="1" fill="none" fill-rule="evenodd">
        <rect id="Rectangle" fill="#D8D8D8" opacity="0" x="0" y="0" width="32" height="32"></rect>
        <path d="M11.0909091,10 C9.38799714,10 8,11.4313746 8,13.187499 L8,18.812501 C8,20.5686254 9.38799714,22 11.0909091,22 L20.9090906,22 C22.6120033,22 24,20.5686254 24,18.812501 L24,13.187499 C24,11.4313746 22.6120031,10 20.9090906,10 L11.0909091,10 Z M11.0263157,11 L20.9736839,11 C22.1058047,11 23,11.9334996 23,13.1153838 L23,18.8846162 C23,20.0665004 22.1058047,21 20.9736839,21 L11.0263157,21 C9.89419471,21 9,20.0665004 9,18.8846162 L9,13.1153838 C9,11.9334996 9.89419471,11 11.0263157,11 Z M14.7272726,13.5624989 L14.7272726,18.4375011 L18.7272725,16.0000019 L14.7272726,13.5624989 Z" id="Shape" fill="#718894" fill-rule="nonzero"></path>
    </g>
</svg>