<?xml version="1.0" encoding="UTF-8"?>
<svg width="32px" height="32px" viewBox="0 0 32 32" version="1.1" xmlns="http://www.w3.org/2000/svg" xmlns:xlink="http://www.w3.org/1999/xlink">
    <!-- Generator: Sketch 52.5 (67469) - http://www.bohemiancoding.com/sketch -->
    <title>Icons/Package/stuff</title>
    <desc>Created with Sketch.</desc>
    <g id="Icons/Package/stuff" stroke="none" stroke-width="1" fill="none" fill-rule="evenodd">
        <rect id="Rectangle" fill="#D8D8D8" opacity="0" x="0" y="0" width="32" height="32"></rect>
        <path d="M8.14117647,15.6625 C8.18823529,15.825 8.32941176,15.9410714 8.49411765,15.9875 L10.1647059,16.3821429 L10.1647059,20.1892857 C10.1647059,20.4214286 10.3294118,20.6071429 10.5411765,20.6535714 L15.9294118,21.9303571 C15.9764706,21.9303571 16,21.9535714 16.0470588,21.9535714 C16.0941176,21.9535714 16.1176471,21.9535714 16.1647059,21.9303571 L21.5529412,20.6535714 C21.7647059,20.6071429 21.9058824,20.4214286 21.9058824,20.1892857 L21.9058824,16.3821429 L23.5764706,15.9875 C23.7411765,15.9410714 23.8588235,15.825 23.9294118,15.6625 C24,15.5 23.9529412,15.3375 23.8352941,15.1982143 L22.0705882,13.1785714 L23.8352941,11.1589286 C23.9529412,11.0428571 23.9764706,10.8571429 23.9294118,10.6946429 C23.8823529,10.5321429 23.7411765,10.4392857 23.5764706,10.3928571 L18.1882353,9.13928571 C18.0235294,9.09285714 17.8352941,9.1625 17.7176471,9.27857143 L16.0470588,11.2053571 L14.3529412,9.27857143 C14.2352941,9.13928571 14.0470588,9.09285714 13.8823529,9.13928571 L8.49411765,10.3928571 C8.32941176,10.4392857 8.21176471,10.5553571 8.14117647,10.7178571 C8.09411765,10.8803571 8.11764706,11.0428571 8.23529412,11.1821429 L10,13.2017857 L8.23529412,15.2214286 C8.11764706,15.3375 8.09411765,15.5 8.14117647,15.6625 Z M11.1058824,19.8178571 L11.1058824,16.5910714 L13.8823529,17.2410714 C13.9294118,17.2410714 13.9529412,17.2642857 14,17.2642857 C14.1411765,17.2642857 14.2588235,17.1946429 14.3529412,17.1017857 L15.5529412,15.7321429 L15.5529412,20.8625 L11.1058824,19.8178571 Z M16.0470588,13.9678571 L12.7058824,13.1785714 L16.0470588,12.3892857 L19.3647059,13.1785714 L16.0470588,13.9678571 Z M20.9647059,19.8178571 L16.5176471,20.8625 L16.5176471,15.7321429 L17.7176471,17.1017857 C17.8117647,17.2178571 17.9529412,17.2642857 18.0705882,17.2642857 C18.1176471,17.2642857 18.1411765,17.2642857 18.1882353,17.2410714 L20.9647059,16.5910714 L20.9647059,19.8178571 Z M18.2588235,16.2660714 L16.9176471,14.7339286 L21.2705882,13.7125 L22.6117647,15.2446429 L18.2588235,16.2660714 Z M18.2588235,10.1142857 L22.5882353,11.1357143 L21.2470588,12.6678571 L16.8941176,11.6464286 L18.2588235,10.1142857 Z M13.8352941,10.1142857 L15.1764706,11.6464286 L14.8235294,11.7160714 L10.8235294,12.6678571 L9.48235294,11.1357143 L13.8352941,10.1142857 Z M10.8,13.7125 L15.1529412,14.7339286 L13.8117647,16.2660714 L9.45882353,15.2446429 L10.8,13.7125 Z" id="Shape" fill="#718894" fill-rule="nonzero"></path>
    </g>
</svg>