<?xml version="1.0" encoding="UTF-8"?>
<svg width="60px" height="60px" viewBox="0 0 60 60" version="1.1" xmlns="http://www.w3.org/2000/svg" xmlns:xlink="http://www.w3.org/1999/xlink">
    <!-- Generator: Sketch 52.5 (67469) - http://www.bohemiancoding.com/sketch -->
    <title>Icons/about/contracts</title>
    <desc>Created with Sketch.</desc>
    <g id="Icons/about/contracts" stroke="none" stroke-width="1" fill="none" fill-rule="evenodd">
        <rect id="Rectangle" stroke="#979797" stroke-width="0.666666667" fill="#D8D8D8" opacity="0" x="0.333333333" y="0.333333333" width="59.3333333" height="59.3333333"></rect>
        <g id="Group-9" transform="translate(11.333333, 8.000000)">
            <path d="M26.3570811,6.62355556 L10.972973,6.62355556 L10.972973,0.518326546 C10.972973,0.232062699 11.2050357,-5.69018553e-14 11.4912995,-5.69544412e-14 L25.8387545,-5.70654635e-14 C26.1250184,-5.61010358e-14 26.3570811,0.232062699 26.3570811,0.518326546 L26.3570811,6.62355556 Z M10.9734955,31.3719259 L26.3586486,31.372963 L26.3586486,46.4955556 L18.6660721,41.0856078 L10.9734955,46.4955556 L10.9734955,31.3719259 Z" id="Combined-Shape" fill="#97DFFA"></path>
            <path d="M34.2647409,19.7286622 L32.9941111,17.2651225 L33.6371927,14.5688807 C33.8273212,13.7727292 33.511683,12.941207 32.8406414,12.4708385 L30.5696623,10.8785355 L29.8843299,8.19408397 C29.6817747,7.40103518 29.0157037,6.81090262 28.2023764,6.70603154 L25.4504841,6.34984218 L23.5951781,4.29027336 C23.045918,3.68214518 22.1816412,3.46992086 21.4124286,3.7541277 L18.8108994,4.71534255 L16.2087488,3.7541277 C15.4395362,3.46992086 14.5752594,3.68214518 14.027242,4.29027336 L12.1706933,6.34922164 L9.41942242,6.705411 C8.60671637,6.81028209 7.94002403,7.40041464 7.73746885,8.19346343 L7.05151512,10.877915 L4.78115741,12.470218 C4.11011572,12.9405865 3.79447759,13.7721087 3.98398474,14.5682602 L4.62644502,17.264502 L3.35705783,19.7280416 C2.98177155,20.4559338 3.08926249,21.3389608 3.62795984,21.9563971 L5.45095643,24.0445107 L5.47332449,26.8158377 C5.48015917,27.633708 5.98592578,28.365944 6.74954636,28.6625616 L9.33616354,29.6653526 L10.6453162,32.109035 C11.0317865,32.8307218 11.8202605,33.2421391 12.6348305,33.152161 L15.3916934,32.8400299 L17.6875259,34.3963416 C18.0261534,34.6253205 18.4188371,34.7407407 18.8115207,34.7407407 C19.203583,34.7407407 19.5962667,34.6253205 19.9348942,34.3963416 L22.2301053,32.8400299 L24.9875896,33.152161 C25.8002956,33.2440008 26.5906336,32.8307218 26.9771039,32.109035 L28.2856352,29.6653526 L30.8722524,28.6625616 C31.635873,28.365944 32.1416396,27.6343286 32.1490956,26.8158377 L32.1708423,24.0445107 L33.9938389,21.9563971 C34.5319149,21.3395813 34.6400272,20.4565544 34.2647409,19.7286622 Z" id="Path" fill="#008CD5" fill-rule="nonzero"></path>
            <path d="M31.806991,19.3127407 C32.1225946,19.920963 32.0316757,20.6588148 31.5791712,21.1742222 L30.0460901,22.919037 L30.0278018,25.2347407 C30.0215315,25.9186667 29.5961982,26.53 28.954018,26.7778519 L26.7787568,27.6157778 L25.6783243,29.6577037 C25.3533153,30.2607407 24.6886667,30.6060741 24.0052072,30.5293333 L21.6862523,30.2685185 L19.7560541,31.568963 C19.4712793,31.7602963 19.141045,31.8567407 18.8113333,31.8567407 C18.4810991,31.8567407 18.1508649,31.7602963 17.8660901,31.568963 L15.9353694,30.2685185 L13.6169369,30.5293333 C12.9319099,30.6045185 12.2688288,30.2607407 11.9438198,29.6577037 L10.8428649,27.6157778 L8.6676036,26.7778519 C8.02542342,26.53 7.60009009,25.9181481 7.59434234,25.2347407 L7.57553153,22.919037 L6.04245045,21.1742222 C5.58942342,20.6582963 5.49902703,19.9204444 5.81463063,19.3122222 L6.88214414,17.2537037 L6.34185586,15.0007407 C6.18248649,14.3354815 6.44792793,13.6406667 7.01225225,13.2476296 L8.92154955,11.9171111 L9.49841441,9.674 C9.66875676,9.01133333 10.2294234,8.51822222 10.9128829,8.43059259 L13.2266126,8.13296296 L14.7879099,6.41251852 C15.2487748,5.90437037 15.9756036,5.72703704 16.6224865,5.96451852 L18.8108108,6.7677037 L20.9986126,5.96451852 C21.6454955,5.72703704 22.3723243,5.90437037 22.8342342,6.41251852 L24.3944865,8.13348148 L26.7087387,8.43111111 C27.3927207,8.51874074 27.9528649,9.01185185 28.1232072,9.67451852 L28.6995495,11.9176296 L30.6093694,13.2481481 C31.1736937,13.6411852 31.4391351,14.336 31.2792432,15.0012593 L30.7384324,17.2542222 L31.806991,19.3127407 Z M18.8108108,29.008 C24.4603243,29.008 29.0391892,24.4637037 29.0391892,18.8585185 C29.0391892,13.2533333 24.4598018,8.70851852 18.8108108,8.70851852 C13.1618198,8.70851852 8.58243243,13.2533333 8.58243243,18.8585185 C8.58243243,24.4637037 13.1618198,29.008 18.8108108,29.008 Z" id="Combined-Shape" fill="#FFFFFF"></path>
            <path d="M14.916605,14.8022567 C13.1495806,16.5556952 12.835636,19.2030919 13.9710484,21.2758599 L13.030869,22.2088107 C11.4098558,19.6094365 11.7341411,16.154276 14.0070342,13.8992687 C16.2799272,11.6442613 19.7610314,11.3224692 22.3809595,12.9310192 L21.4399528,13.8643805 C19.3515384,12.7372872 16.6836294,13.0488181 14.916605,14.8022567 Z M23.6152293,23.4335908 C21.3423363,25.6890086 17.8608184,26.0112112 15.241304,24.4018402 L16.1818971,23.4688894 C18.270725,24.5959827 20.9390477,24.2844518 22.7056585,22.5314237 C24.4718556,20.7779851 24.7862139,18.1305884 23.6503878,16.05741 L24.5905672,15.1240488 C26.2115805,17.7234229 25.8877087,21.1785835 23.6152293,23.4335908 Z" id="Combined-Shape" fill="#97DFFA"></path>
            <path d="M37.8828829,9.33333333 C37.4500111,9.33333333 37.0990991,8.98511036 37.0990991,8.55555556 C37.0990991,8.12600075 37.4500111,7.77777778 37.8828829,7.77777778 C38.3157547,7.77777778 38.6666667,8.12600075 38.6666667,8.55555556 C38.6666667,8.98511036 38.3157547,9.33333333 37.8828829,9.33333333 Z M1.30630631,35.7777778 C0.584853255,35.7777778 6.17284002e-14,35.1974062 6.17284002e-14,34.4814815 C6.17284002e-14,33.7655568 0.584853255,33.1851852 1.30630631,33.1851852 C2.02775936,33.1851852 2.61261261,33.7655568 2.61261261,34.4814815 C2.61261261,35.1974062 2.02775936,35.7777778 1.30630631,35.7777778 Z" id="Combined-Shape" fill="#97DFFA"></path>
        </g>
    </g>
</svg>