<?xml version="1.0" encoding="UTF-8"?>
<svg width="60px" height="60px" viewBox="0 0 60 60" version="1.1" xmlns="http://www.w3.org/2000/svg" xmlns:xlink="http://www.w3.org/1999/xlink">
    <!-- Generator: Sketch 52.5 (67469) - http://www.bohemiancoding.com/sketch -->
    <title>Icons/about/foundation</title>
    <desc>Created with Sketch.</desc>
    <g id="Icons/about/foundation" stroke="none" stroke-width="1" fill="none" fill-rule="evenodd">
        <rect id="Rectangle" stroke="#979797" stroke-width="0.666666667" fill="#D8D8D8" opacity="0" x="0.333333333" y="0.333333333" width="59.3333333" height="59.3333333"></rect>
        <g id="Group-10" transform="translate(3.333333, 11.333333)">
            <path d="M47.8122592,17.894249 C47.1505788,17.894249 46.4589114,17.9725141 45.7561253,18.1273574 C44.3672873,18.4326024 43.1215335,19.5538956 42.1928337,20.6525863 C42.204851,20.618008 42.2176544,20.5830924 42.2291663,20.5484578 C42.5489719,19.5881365 42.7683153,18.6047068 42.8862419,17.614755 C45.8554644,16.9690683 47.8034989,15.0862651 48.1039309,12.554008 C48.4655162,9.50633735 49.9368467,8.22317269 49.9516156,8.21029719 C49.9988423,8.17043373 50.0183844,8.10616867 50.0014816,8.04690763 C49.9845227,7.98714056 49.9345443,7.94311647 49.8736717,7.93355823 C49.8674384,7.93237751 49.7200302,7.91016867 49.4640173,7.91016867 C48.616743,7.91016867 46.4059568,8.16053815 44.1813564,10.4776787 C43.4428553,11.2469478 43.0261253,12.3527229 42.7949892,13.4604659 C42.7797149,13.3644337 42.7650583,13.2689076 42.7477624,13.1733815 C42.6318013,12.523253 42.4677711,11.8687952 42.267689,11.2173173 C43.3656976,8.39780723 42.8816933,5.74331727 40.9523585,4.09227309 C38.6224665,2.0979759 38.374203,0.160016064 38.3719006,0.140618474 C38.3646566,0.0793333333 38.32254,0.027437751 38.2638013,0.00848995984 C38.2050626,-0.0109638554 38.1405961,0.00635341365 38.0986479,0.0521204819 C38.0195248,0.138594378 36.1738056,2.21329317 37.0490454,6.20396787 C37.6057711,8.74229719 40.8765486,10.8046265 41.7685788,11.3251566 C41.9510281,11.9725301 42.0971447,12.6219839 42.1951922,13.2655904 C42.3730367,14.4240482 42.4138618,15.5848675 42.316432,16.7153253 C42.2884665,17.044747 42.2476415,17.3733815 42.1959784,17.7006667 C42.1122505,16.1099518 41.7593693,13.9751486 40.5606739,12.7265622 C38.3360734,10.409253 36.1252873,10.1593896 35.278013,10.1593896 C35.022,10.1593896 34.8745918,10.1816546 34.8683585,10.1824418 C34.807486,10.1918313 34.7574514,10.2359679 34.7407171,10.2956225 C34.7235896,10.3549398 34.7431879,10.4188112 34.7900778,10.4591807 C34.8049028,10.4718876 36.2776371,11.766241 36.6379309,14.8028916 C36.9327473,17.2876948 38.8145184,19.1458153 41.6894557,19.8247871 C41.6376242,19.9853655 41.5838272,20.1456627 41.5262678,20.3049478 C41.1159395,21.4461446 40.5416371,22.5871727 39.8190842,23.6970522 L39.2728596,24.4885301 C39.0858056,24.7339518 38.8822981,24.9970281 38.6848553,25.2066908 C38.3798186,25.542241 38.0568683,25.8581687 37.7214514,26.152506 C38.3163629,24.6597912 39.058514,22.1708835 38.3382073,20.3276064 C36.8514341,16.5225301 34.1655162,15.8241044 34.0520259,15.7964418 C33.9908164,15.781261 33.9289892,15.8035261 33.8908035,15.8515984 C33.8522808,15.9001767 33.8453737,15.9669157 33.8733391,16.0217349 C33.8825486,16.0393333 34.7485788,17.7990602 33.9209028,20.742996 C33.2645011,23.0751486 34.2047127,25.4367068 36.4418359,27.1539277 C35.6310626,27.7313012 34.8397754,28.2073012 34.2567127,28.5463373 C33.6741555,28.885992 33.0939006,29.2047309 32.522013,29.5135743 C32.8796674,29.048257 33.1613434,28.5359357 33.2799438,27.9953333 C33.9405011,24.9820723 32.5429028,23.4114859 32.483041,23.3460964 C32.4417667,23.3003293 32.3769071,23.2838554 32.3183369,23.3024659 C32.2594298,23.3214137 32.2171447,23.3728032 32.2097322,23.434257 C32.2081037,23.4485944 32.0156026,24.8945301 30.2881469,26.3729076 C28.9236242,27.5403052 28.5143067,29.3700321 29.1427991,31.3436948 C28.884203,31.4894859 28.6338056,31.6335904 28.3899784,31.7774137 C27.48346,32.3114378 26.7342894,32.8044739 26.0992268,33.2841285 C26.0651965,33.3096546 26.033581,33.3361928 26,33.3618876 C25.966419,33.3361928 25.9346911,33.3096546 25.9007732,33.2841285 C25.2657106,32.8044739 24.51654,32.3114378 23.6100216,31.7774137 C23.3661944,31.6335904 23.115797,31.4894859 22.8568639,31.3436948 C23.4856371,29.3699759 23.0763197,27.5403052 21.711797,26.3729076 C19.9843413,24.8945301 19.7918963,23.4485944 19.7902117,23.434257 C19.7827991,23.3728032 19.7401771,23.3214137 19.6816069,23.3024659 C19.6230367,23.2838554 19.5582333,23.3003293 19.5169028,23.3460964 C19.457041,23.4114859 18.0594428,24.9821285 18.72,27.9953333 C18.8386004,28.5359357 19.1202765,29.048257 19.4779309,29.5135743 C18.9060432,29.2047309 18.3256199,28.885992 17.7429503,28.5463373 C17.1602246,28.2073574 16.3688812,27.7313012 15.5581641,27.1539277 C17.7952873,25.4367068 18.7354989,23.0750924 18.0790972,20.742996 C17.2514212,17.7990602 18.1174514,16.0393333 18.126324,16.0217349 C18.154121,15.9668594 18.1477192,15.9001767 18.1091965,15.8515984 C18.0711793,15.8035261 18.0091836,15.781261 17.9479741,15.7964418 C17.8344838,15.8241044 15.1485097,16.5225301 13.6617927,20.3276064 C12.9415421,22.1708273 13.6836933,24.6597912 14.2785486,26.152506 C13.9430756,25.8581687 13.6201253,25.542241 13.3151447,25.2066908 C13.1177019,24.9970281 12.9141944,24.7339518 12.7271404,24.4885301 L12.1809158,23.6970522 C11.4583629,22.5871727 10.8840043,21.4461446 10.4737322,20.3049478 C10.4161728,20.1456627 10.3623758,19.9853655 10.3105443,19.8247871 C13.1854816,19.1458153 15.0672527,17.2876948 15.3620691,14.8028916 C15.7223629,11.766241 17.1951533,10.4718876 17.2099222,10.4591807 C17.2568121,10.4188112 17.2762419,10.3549398 17.2592829,10.2956225 C17.2424924,10.2359679 17.192514,10.1918313 17.1316415,10.1824418 C17.1254082,10.1815984 16.978,10.1593896 16.721987,10.1593896 C15.8747127,10.1593896 13.6639266,10.409253 11.4393261,12.7265622 C10.2406307,13.9751486 9.88774946,16.1099518 9.8040216,17.7006667 C9.75235853,17.3733815 9.71158963,17.044747 9.68356803,16.7153253 C9.58619438,15.5848675 9.62696328,14.4240482 9.80463931,13.2655904 C9.90285529,12.6220402 10.0489719,11.9725301 10.2314212,11.3251566 C11.1234514,10.8046265 14.3942289,8.74229719 14.9509546,6.20396787 C15.8261944,2.21323695 13.9804752,0.138594378 13.9013521,0.0521204819 C13.8594039,0.00635341365 13.7946004,-0.0109638554 13.7361987,0.00848995984 C13.67746,0.027437751 13.6353434,0.0793333333 13.6280994,0.140618474 C13.625797,0.160072289 13.3775335,2.0979759 11.0476415,4.09227309 C9.11836285,5.74326104 8.63430238,8.397751 9.73231102,11.2173173 C9.5322851,11.8687952 9.36825486,12.523253 9.25223758,13.1733815 C9.23494168,13.2689076 9.22034125,13.3644337 9.2050108,13.4604659 C8.97387473,12.3527229 8.55714471,11.2469478 7.81864363,10.4776787 C5.5940432,8.16053815 3.38325702,7.91016867 2.53598272,7.91016867 C2.27996976,7.91016867 2.13256156,7.93243373 2.12632829,7.93355823 C2.06528726,7.94311647 2.01542117,7.98708434 1.99851836,8.04690763 C1.9815594,8.1062249 2.00115767,8.17043373 2.04838445,8.21029719 C2.0632095,8.22317269 3.5344838,9.50633735 3.89606911,12.554008 C4.19650108,15.0862651 6.14453564,16.969012 9.1137581,17.614755 C9.23174082,18.6047068 9.45102808,19.5881365 9.77083369,20.5484578 C9.78234557,20.5830361 9.79520518,20.6179518 9.80716631,20.6525863 C8.87846652,19.5538956 7.63271274,18.4326024 6.24387473,18.1273574 C5.5410324,17.9725141 4.84942117,17.894249 4.18774082,17.894249 C1.52961987,17.894249 0.156393089,19.1255743 0.0991144708,19.1779759 C0.0536846652,19.2199759 0.0366133909,19.284241 0.055537797,19.343502 C0.0746306695,19.4023133 0.126293737,19.4443133 0.187784017,19.4517349 C0.207045356,19.4538715 2.14261339,19.7026104 4.13405616,22.0353815 C5.19107127,23.2732851 6.65482073,23.9276867 8.36677754,23.9276867 C9.23067387,23.9276867 10.1512873,23.7558635 11.05073,23.4302088 C11.1852786,23.6718635 11.3249935,23.9131807 11.4729071,24.1533173 L12.0207603,24.991743 C12.2175292,25.2635341 12.4035724,25.5204819 12.6433002,25.7931165 C12.707149,25.8672209 12.7737495,25.939245 12.8395637,26.0117189 C11.9149633,25.5966104 10.8852397,25.2770843 9.900946,25.2770843 C9.65565875,25.2770843 9.41727862,25.2976627 9.19271274,25.3376948 C5.17534773,26.0550683 3.96693737,28.5566827 3.91746436,28.6626104 C3.8912959,28.7186104 3.90033693,28.7848434 3.94031965,28.8317912 C3.97996544,28.878739 4.04398272,28.8985301 4.10350756,28.8817189 C4.11159395,28.879245 5.97045356,28.3466827 8.73779698,29.7571968 C9.5042635,30.1475663 10.3141944,30.345253 11.1448467,30.345253 C12.6878877,30.345253 14.2716976,29.6616707 15.6421166,28.4125783 C16.1123067,28.7403695 16.6265788,29.0764257 17.2114384,29.4363213 C17.8718272,29.8436707 18.5232873,30.2212209 19.1604838,30.5849398 C18.6215032,30.4778876 18.0638229,30.4098554 17.5167559,30.4098554 C16.8644536,30.4098554 16.2802117,30.5094859 15.7802592,30.7052048 C11.979879,32.1938153 11.2821469,34.8828835 11.2541814,34.9965141 C11.2395248,35.0566185 11.261257,35.1197028 11.3094384,35.1579357 C11.3582937,35.1966185 11.4246134,35.203253 11.479365,35.175253 C11.4872829,35.1711486 12.2981685,34.7672289 13.7260346,34.7672289 C14.5147387,34.7672289 15.3455594,34.8891245 16.1953045,35.1283052 C16.6822851,35.2658313 17.1756674,35.3355502 17.6614687,35.3355502 C19.4937106,35.3355502 21.2734471,34.3368273 22.6141037,32.579743 C22.7397797,32.6563213 22.8636587,32.7324498 22.9852354,32.8086908 C23.7727603,33.2995341 24.4506134,33.7668755 25.0068337,34.2009317 C24.8179827,34.3771968 24.637162,34.5535743 24.4764449,34.7271968 C24.0232138,35.1877349 23.6341123,35.7301928 23.3131274,36.2895743 C23.2177192,36.445261 23.188406,36.6293976 23.2310281,36.8072932 C23.2736501,36.9851888 23.383041,37.1359277 23.5387041,37.2314538 C23.646635,37.2976867 23.7700086,37.3327711 23.8956847,37.3327711 C24.1360302,37.3327711 24.3545313,37.2103695 24.4798704,37.0053173 L24.7258315,36.5811566 C24.93327,36.2425141 25.1800734,35.912249 25.4515292,35.6229719 C25.6153909,35.4369799 25.8016026,35.2470522 25.9998877,35.0571807 C26.1981166,35.2471084 26.3843844,35.4370361 26.5482462,35.6229719 C26.8197019,35.912249 27.0665054,36.2425141 27.2739438,36.5811566 L27.519905,37.0053173 C27.6452441,37.2103695 27.8637451,37.3327711 28.1036415,37.3327711 C28.2298229,37.3327711 28.3531965,37.2976867 28.4611274,37.2314538 C28.616622,37.1359277 28.7261814,36.9851888 28.7688035,36.8072932 C28.8114255,36.6293976 28.7821123,36.445261 28.6867041,36.2895743 L28.4193477,35.8530442 C28.1612009,35.4544096 27.8562203,35.065502 27.5233866,34.7271968 C27.3626695,34.5535743 27.1816803,34.3773092 26.9928294,34.2009317 C27.5490497,33.7668755 28.2270713,33.2995904 29.0145961,32.8086908 C29.1361728,32.7324498 29.2600518,32.6563213 29.3857279,32.579743 C30.7263844,34.3368273 32.506121,35.3355502 34.3383629,35.3355502 C34.8241641,35.3355502 35.3176026,35.2658876 35.804527,35.1283052 C36.6542721,34.8891245 37.4849244,34.7672289 38.273797,34.7672289 C39.7016631,34.7672289 40.5125486,35.1711486 40.5204665,35.175253 C40.5752743,35.203253 40.6415378,35.1966747 40.6903931,35.1579357 C40.7385745,35.1197028 40.7599698,35.0566185 40.7456501,34.9965141 C40.7176847,34.8828835 40.0199525,32.193759 36.2195724,30.7052048 C35.7196199,30.5095422 35.135378,30.4098554 34.4830756,30.4098554 C33.9360648,30.4098554 33.3783283,30.4778876 32.8393477,30.5849398 C33.4765443,30.2212209 34.1280043,29.8436707 34.7883931,29.4363213 C35.3732527,29.0764257 35.8875248,28.7403695 36.3577149,28.4125783 C37.7281339,29.6616707 39.3119438,30.345253 40.8549849,30.345253 C41.6856371,30.345253 42.495568,30.1475663 43.2618661,29.7571968 C46.029378,28.3466827 47.8882937,28.879245 47.896324,28.8817189 C47.955905,28.8985301 48.0198661,28.878739 48.0595119,28.8317912 C48.0994946,28.7848434 48.1085356,28.7186104 48.0823672,28.6626104 C48.032838,28.5566827 46.8244838,26.0550683 42.8071188,25.3376948 C42.5825529,25.2976627 42.3441728,25.2770843 42.0988855,25.2770843 C41.1145918,25.2770843 40.0848683,25.5966667 39.1602678,26.0117189 C39.2260821,25.939245 39.2924017,25.8672771 39.3565313,25.7931165 C39.5962592,25.5204819 39.7823024,25.2635341 39.9790713,24.991743 L40.5269244,24.1533173 C40.674838,23.9131807 40.8144968,23.6718635 40.9491015,23.4302088 C41.8485443,23.7558635 42.7691577,23.9276867 43.6327171,23.9276867 C45.3450108,23.9276867 46.8087603,23.2732289 47.8657754,22.0353815 C49.8571058,19.7026104 51.7928423,19.4538715 51.811879,19.4517349 C51.873594,19.4443133 51.925257,19.4023133 51.9442937,19.343502 C51.9634428,19.2841847 51.9463153,19.2199759 51.9008855,19.1779759 C51.8436069,19.1255743 50.4703801,17.894249 47.8122592,17.894249 Z" id="Path" fill="#008CD5"></path>
            <path d="M48.5225225,1.62222222 C48.0747241,1.62222222 47.7117117,1.25907541 47.7117117,0.811111111 C47.7117117,0.363146814 48.0747241,2.27373675e-13 48.5225225,2.27373675e-13 C48.970321,2.27373675e-13 49.3333333,0.363146814 49.3333333,0.811111111 C49.3333333,1.25907541 48.970321,1.62222222 48.5225225,1.62222222 Z M20.1441441,14.9555556 C19.6963457,14.9555556 19.3333333,14.5924087 19.3333333,14.1444444 C19.3333333,13.6964801 19.6963457,13.3333333 20.1441441,13.3333333 C20.5919426,13.3333333 20.954955,13.6964801 20.954955,14.1444444 C20.954955,14.5924087 20.5919426,14.9555556 20.1441441,14.9555556 Z M4.68468468,34.7037037 C3.93835394,34.7037037 3.33333333,34.098459 3.33333333,33.3518519 C3.33333333,32.6052447 3.93835394,32 4.68468468,32 C5.43101543,32 6.03603604,32.6052447 6.03603604,33.3518519 C6.03603604,34.098459 5.43101543,34.7037037 4.68468468,34.7037037 Z" id="Combined-Shape" fill="#97DFFA"></path>
            <path d="M42.8862419,17.614755 C45.8554644,16.9690683 47.8034989,15.0862651 48.1039309,12.554008 C48.4655162,9.50633735 49.9368467,8.22317269 49.9516156,8.21029719 C49.9988423,8.17043373 50.0183844,8.10616867 50.0014816,8.04690763 C49.9845227,7.98714056 49.9345443,7.94311647 49.8736717,7.93355823 C49.8674384,7.93237751 49.7200302,7.91016867 49.4640173,7.91016867 C48.616743,7.91016867 46.4059568,8.16053815 44.1813564,10.4776787 C43.4428553,11.2469478 43.0261253,12.3527229 42.7949892,13.4604659 C42.7797149,13.3644337 42.8862419,14.5846354 42.8862419,15.8960938 C42.8862419,16.2277636 42.8862419,17.614755 42.8862419,17.614755 Z" id="Path" fill="#97DFFA"></path>
            <path d="M9.1137581,15.7824653 C9.1137581,14.6092014 9.22034125,13.3644337 9.2050108,13.4604659 C8.97387473,12.3527229 8.55714471,11.2469478 7.81864363,10.4776787 C5.5940432,8.16053815 3.38325702,7.91016867 2.53598272,7.91016867 C2.27996976,7.91016867 2.13256156,7.93243373 2.12632829,7.93355823 C2.06528726,7.94311647 2.01542117,7.98708434 1.99851836,8.04690763 C1.9815594,8.1062249 2.00115767,8.17043373 2.04838445,8.21029719 C2.0632095,8.22317269 3.5344838,9.50633735 3.89606911,12.554008 C4.19650108,15.0862651 6.14453564,16.969012 9.1137581,17.614755 C9.23174082,18.6047068 9.1137581,16.1141403 9.1137581,15.7824653 Z" id="Path" fill="#97DFFA"></path>
            <path d="M37.7214514,26.152506 C38.3163629,24.6597912 39.058514,22.1708835 38.3382073,20.3276064 C36.8514341,16.5225301 34.1655162,15.8241044 34.0520259,15.7964418 C33.9908164,15.781261 33.9289892,15.8035261 33.8908035,15.8515984 C33.8522808,15.9001767 33.8453737,15.9669157 33.8733391,16.0217349 C33.8825486,16.0393333 34.7485788,17.7990602 33.9209028,20.742996 C33.2645011,23.0751486 34.2047127,25.4367068 36.4418359,27.1539277 C35.6310626,27.7313012 38.0568683,25.8581687 37.7214514,26.152506 Z" id="Path" fill="#97DFFA"></path>
            <path d="M17.3668185,26.152506 C17.9617299,24.6597912 18.7038811,22.1708835 17.9835744,20.3276064 C16.4968012,16.5225301 13.8108832,15.8241044 13.697393,15.7964418 C13.6361835,15.781261 13.5743562,15.8035261 13.5361705,15.8515984 C13.4976478,15.9001767 13.4907407,15.9669157 13.5187061,16.0217349 C13.5279156,16.0393333 14.3939459,17.7990602 13.5662699,20.742996 C12.9098681,23.0751486 13.8500798,25.4367068 16.0872029,27.1539277 C15.2764297,27.7313012 17.7022353,25.8581687 17.3668185,26.152506 Z" id="Path" fill="#97DFFA" transform="translate(15.820878, 21.528434) scale(-1, 1) translate(-15.820878, -21.528434) "></path>
        </g>
    </g>
</svg>