<?xml version="1.0" encoding="UTF-8"?>
<svg width="60px" height="60px" viewBox="0 0 60 60" version="1.1" xmlns="http://www.w3.org/2000/svg" xmlns:xlink="http://www.w3.org/1999/xlink">
    <!-- Generator: Sketch 52.5 (67469) - http://www.bohemiancoding.com/sketch -->
    <title>Icons/about/projects</title>
    <desc>Created with Sketch.</desc>
    <g id="Icons/about/projects" stroke="none" stroke-width="1" fill="none" fill-rule="evenodd">
        <rect id="Rectangle" stroke="#979797" stroke-width="0.666666667" fill="#D8D8D8" opacity="0" x="0.333333333" y="0.333333333" width="59.3333333" height="59.3333333"></rect>
        <g id="Group-8" transform="translate(10.000000, 8.000000)">
            <polygon id="Path" fill="#97DFFA" fill-rule="nonzero" points="14.769727 23.5738462 14.769727 9.6361991 26.3915633 9.6361991 26.3915633 13.1726244 26.3915633 23.5733484 14.769727 23.5733484"></polygon>
            <path d="M37.9250218,1.5745098 C37.4916685,1.5745098 37.1403662,1.22204378 37.1403662,0.787254902 C37.1403662,0.352466025 37.4916685,2.93098879e-14 37.9250218,2.93098879e-14 C38.3583751,2.93098879e-14 38.7096774,0.352466025 38.7096774,0.787254902 C38.7096774,1.22204378 38.3583751,1.5745098 37.9250218,1.5745098 Z M5.66695728,20.9862745 C5.23360395,20.9862745 4.88230166,20.6338085 4.88230166,20.1990196 C4.88230166,19.7642307 5.23360395,19.4117647 5.66695728,19.4117647 C6.10031061,19.4117647 6.4516129,19.7642307 6.4516129,20.1990196 C6.4516129,20.6338085 6.10031061,20.9862745 5.66695728,20.9862745 Z M1.30775937,28.3411765 C0.585503815,28.3411765 6.17284002e-14,27.7537331 6.17284002e-14,27.029085 C6.17284002e-14,26.3044368 0.585503815,25.7169935 1.30775937,25.7169935 C2.03001493,25.7169935 2.61551874,26.3044368 2.61551874,27.029085 C2.61551874,27.7537331 2.03001493,28.3411765 1.30775937,28.3411765 Z" id="Combined-Shape" fill="#97DFFA"></path>
            <path d="M2.43731907,43.6231323 C7.32837671,39.4399603 12.983631,37.3483743 19.4030818,37.3483743 C25.8225326,37.3483743 31.5860861,39.4399603 36.6937422,43.6231323 C30.8404844,41.2138957 25.0718756,40.0092773 19.3879158,40.0092773 C13.703956,40.0092773 8.0537571,41.2138957 2.43731907,43.6231323 Z" id="Path-2" fill="#008CD5" fill-rule="nonzero"></path>
            <path d="M25.9449132,28.7533032 L38.498263,28.7533032 C38.5032258,28.7533032 38.5086849,28.7533032 38.5156328,28.7533032 C39.0903226,28.7533032 39.5578164,28.2859276 39.5578164,27.7080543 C39.5578164,27.3715837 39.3990074,27.0724434 39.1528536,26.88181 L34.3315136,19.6944796 L39.2545906,12.399638 C39.5414392,12.0965158 39.6208437,11.6510407 39.4560794,11.2672851 C39.2913151,10.8840271 38.9151365,10.6346606 38.498263,10.6346606 L26.9866005,10.6346606 L26.9866005,7.09823529 C26.9866005,6.52085973 26.5205955,6.05298643 25.9444169,6.05298643 L14.6506203,6.05298643 C15.2863524,5.4258371 15.6828784,4.55479638 15.6828784,3.59266968 C15.6828784,1.68832579 14.1369727,0.139366516 12.2382134,0.139366516 C10.3404467,0.139366516 8.79602978,1.68782805 8.79602978,3.59266968 C8.79602978,5.13266968 9.80595533,6.43923077 11.1960298,6.88321267 L11.1960298,7.09823529 L11.1960298,23.1273756 L11.2163772,39.9519005 L13.280397,39.5860633 L13.280397,24.171629 L24.9022333,24.171629 L24.9022333,27.7080543 C24.9027295,28.2854299 25.3692308,28.7533032 25.9449132,28.7533032 Z M36.0709677,12.7246606 L32.1384615,18.9747511 C31.7563275,19.3784163 31.7563275,20.0110407 32.1384615,20.4147059 L36.0709677,26.6633032 L26.9866005,26.6633032 L26.9866005,23.1268778 L26.9866005,12.7246606 L36.0709677,12.7246606 Z M12.2382134,2.22886878 C12.9885856,2.22886878 13.5980149,2.84058824 13.5980149,3.59167421 C13.5980149,4.34276018 12.9880893,4.95447964 12.2382134,4.95447964 C11.4898263,4.95447964 10.880397,4.34276018 10.880397,3.59167421 C10.880397,2.84058824 11.4898263,2.22886878 12.2382134,2.22886878 Z M13.2808933,8.14298643 L24.9027295,8.14298643 L24.9027295,11.6794118 L24.9027295,22.0801357 L13.2808933,22.0801357 L13.2808933,8.14298643 Z" id="Shape" fill="#008CD5" fill-rule="nonzero"></path>
        </g>
    </g>
</svg>