<svg width="143" height="47" viewBox="0 0 143 47" fill="none" xmlns="http://www.w3.org/2000/svg">
<path d="M55.2764 1.07812L67.0255 34.5287H59.4685L57.3297 27.6204H44.9604L42.6148 34.5287H35.3145L47.2061 1.07812H55.2764ZM46.8425 21.86H55.7826L51.2199 8.63516H51.1272L46.8425 21.86Z" fill="#191919" fill-opacity="0.64"/>
<path d="M94.9999 1.07812V6.83858H78.132V13.754H92.8754V19.5073H78.132V34.5287H71.1738V1.07812H94.9999Z" fill="#191919" fill-opacity="0.64"/>
<path d="M106.37 1.07812H99.4121V34.5287H106.37V1.07812Z" fill="#191919" fill-opacity="0.64"/>
<path d="M0.857678 1.13927C0.0378111 19.932 7.78021 20.7519 7.78021 20.7519V0.982422H0.857678V1.13927Z" fill="#191919" fill-opacity="0.8"/>
<path d="M33.2458 1.14269V0.985844H26.3305V12.3927C26.3305 12.3927 26.5016 19.3152 25.4322 19.8856V19.9497C24.2131 16.713 22.9298 13.9469 22.2525 12.2145C20.6484 8.11512 20.6128 0.950195 20.6128 0.950195H13.4835C13.5191 1.59183 13.733 6.54668 13.733 6.54668C13.8856 9.24595 14.6149 11.8812 15.8718 14.2748C14.3747 14.2178 7.08854 19.3366 8.62846 34.3223V34.4649H15.5439V23.0866C15.5439 23.0866 15.3799 16.1641 16.4493 15.5937V15.4012C17.7855 17.637 18.8347 20.0323 19.5719 22.5305C21.8247 30.0947 21.397 34.4935 21.397 34.4935H28.3195C28.5904 30.3157 27.4497 25.7316 26.0453 21.6608C27.5923 21.4968 34.465 15.4583 33.2458 1.09991" fill="#191919" fill-opacity="0.8"/>
<path d="M118.898 5.80504V9.68336C118 9.30551 116.674 8.69239 116.388 8.54981C116.08 8.3582 115.831 8.08311 115.672 7.75635C115.514 7.42959 115.45 7.06451 115.49 6.70332V5.26321C115.492 4.14633 115.937 3.07573 116.726 2.28597C117.516 1.49621 118.587 1.05169 119.704 1.0498H121.685C122.802 1.05169 123.873 1.49621 124.663 2.28597C125.452 3.07573 125.897 4.14633 125.899 5.26321V10.9666C125.913 12.3435 125.656 13.7097 125.143 14.9875L120.367 25.874C120.367 25.874 118.898 29.0393 118.898 30.5579V31.0783H127.132C126.754 31.9766 126.184 33.2171 126.041 33.5379C125.855 33.8547 125.583 34.112 125.256 34.2799C124.929 34.4478 124.561 34.5193 124.195 34.4861H115.49V31.5988C115.545 29.5801 116.031 27.5966 116.916 25.7813L121.037 16.2138C121.037 16.2138 122.498 12.9985 122.498 11.3445V5.80504C122.53 5.55206 122.508 5.29515 122.433 5.0514C122.358 4.80764 122.232 4.58263 122.064 4.39132C121.895 4.2 121.688 4.04677 121.455 3.9418C121.223 3.83684 120.971 3.78256 120.716 3.78256C120.461 3.78256 120.209 3.83684 119.976 3.9418C119.744 4.04677 119.537 4.2 119.368 4.39132C119.199 4.58263 119.073 4.80764 118.999 5.0514C118.924 5.29515 118.901 5.55206 118.934 5.80504" fill="#191919" fill-opacity="0.8"/>
<path d="M142.966 20.6197V30.3227C142.955 31.4308 142.507 32.4898 141.719 33.2694C140.932 34.049 139.868 34.4863 138.76 34.4862H132.607V1.35645H138.76C139.868 1.35639 140.932 1.79368 141.719 2.57328C142.507 3.35288 142.955 4.4118 142.966 5.51995V15.2443C142.965 15.8397 142.777 16.4197 142.429 16.903C142.082 17.3863 141.591 17.7486 141.027 17.9391C141.592 18.1301 142.084 18.4935 142.431 18.9782C142.779 19.4629 142.966 20.0445 142.966 20.6411V20.6197ZM139.558 6.48953C139.575 6.25779 139.541 6.02522 139.459 5.80803C139.376 5.59084 139.247 5.39427 139.081 5.23203C138.914 5.0698 138.715 4.9458 138.496 4.8687C138.276 4.7916 138.043 4.76325 137.812 4.78563H135.965V16.3778H137.812C138.71 16.3778 139.558 15.9501 139.558 14.4387V6.48953ZM139.558 21.3968C139.558 19.9282 138.71 19.5005 137.812 19.5005H135.965V31.1497H137.812C138.047 31.1706 138.284 31.1395 138.506 31.0586C138.728 30.9777 138.929 30.8491 139.096 30.6818C139.262 30.5144 139.39 30.3125 139.47 30.0903C139.55 29.8681 139.58 29.631 139.558 29.3959V21.3968Z" fill="#191919" fill-opacity="0.64"/>
<path d="M26.8075 45.7931H26.4297V39.8187H27.4706C27.929 39.7733 28.3881 39.8976 28.761 40.1681C28.9282 40.3198 29.0626 40.5041 29.1559 40.7097C29.2491 40.9154 29.2993 41.1379 29.3033 41.3637C29.3073 41.5894 29.2651 41.8136 29.1792 42.0224C29.0932 42.2312 28.9655 42.4202 28.8037 42.5778C28.4193 42.86 27.9459 42.9942 27.4706 42.9556H26.7576L26.8075 45.7931ZM27.5205 42.5991C27.7077 42.6174 27.8967 42.5985 28.0765 42.5435C28.2564 42.4884 28.4236 42.3983 28.5685 42.2783C28.6922 42.1641 28.7904 42.025 28.8568 41.8702C28.9231 41.7155 28.9561 41.5484 28.9535 41.38C28.9577 41.1949 28.9194 41.0112 28.8415 40.8431C28.7637 40.675 28.6483 40.527 28.5043 40.4105C28.192 40.2292 27.8292 40.1541 27.4706 40.1966H26.8432V42.6205L27.5205 42.5991Z" fill="#191919" fill-opacity="0.8" stroke="#191919" stroke-opacity="0.8" stroke-width="0.5"/>
<path d="M35.1078 45.7937H34.6729L32.7266 42.942H32.5341V45.7937H32.1562V39.8193H32.8692C33.3436 39.768 33.8218 39.8732 34.2309 40.1188C34.5015 40.3297 34.697 40.6223 34.7884 40.9531C34.8798 41.2839 34.8622 41.6353 34.7382 41.9553C34.6142 42.2753 34.3904 42.5468 34.1 42.7297C33.8096 42.9125 33.468 42.997 33.1258 42.9705L35.1078 45.7937ZM33.0189 42.6069C33.3882 42.6452 33.7587 42.5462 34.0598 42.3288C34.194 42.2119 34.3011 42.0672 34.3738 41.9046C34.4464 41.7421 34.4828 41.5658 34.4804 41.3878C34.4908 41.1661 34.4364 40.9461 34.3237 40.7549C34.211 40.5637 34.0449 40.4095 33.8459 40.3112C33.5023 40.1942 33.1385 40.1481 32.7765 40.1758H32.5341V42.6069H33.0189Z" fill="#191919" fill-opacity="0.8" stroke="#191919" stroke-opacity="0.8" stroke-width="0.5"/>
<path d="M38.3798 40.1758V42.3502H40.7895V42.7067H38.3798V45.4443H40.8537V45.8008H38.002V39.8193H40.8537V40.1758H38.3798Z" fill="#191919" fill-opacity="0.8" stroke="#191919" stroke-opacity="0.8" stroke-width="0.5"/>
<path d="M49.0087 40.8522H48.9944L46.9056 45.9995L44.8309 40.8522H44.8167L43.7972 45.7999H43.4336L44.7169 39.626L46.9056 45.0585L49.1156 39.626L50.3989 45.7999H50.0353L49.0087 40.8522Z" fill="#191919" fill-opacity="0.8" stroke="#191919" stroke-opacity="0.8" stroke-width="0.5"/>
<path d="M53.4638 39.8262H53.0859V45.8005H53.4638V39.8262Z" fill="#191919" fill-opacity="0.8" stroke="#191919" stroke-opacity="0.8" stroke-width="0.5"/>
<path d="M60.3591 39.8193H60.737V43.5479C60.8145 44.124 60.6691 44.708 60.3306 45.1806C60.1265 45.4088 59.8758 45.5906 59.5953 45.7136C59.3149 45.8366 59.0113 45.8979 58.7051 45.8935C58.399 45.8979 58.0954 45.8366 57.815 45.7136C57.5345 45.5906 57.2838 45.4088 57.0797 45.1806C56.7463 44.7058 56.6038 44.123 56.6804 43.5479V39.8193H57.0583V43.4339C56.9958 43.9552 57.1033 44.4828 57.3648 44.9381C57.5351 45.1232 57.7425 45.2702 57.9734 45.3697C58.2044 45.4692 58.4537 45.519 58.7051 45.5156C58.9568 45.5208 59.2067 45.4719 59.4379 45.3723C59.6691 45.2727 59.8763 45.1246 60.0455 44.9381C60.3129 44.485 60.4232 43.9562 60.3591 43.4339V39.8193Z" fill="#191919" fill-opacity="0.8" stroke="#191919" stroke-opacity="0.8" stroke-width="0.5"/>
<path d="M68.9572 40.8522H68.943L66.8541 45.9995L64.7795 40.8522H64.7652L63.7386 45.7999H63.375L64.6583 39.626L66.8541 45.0585L69.057 39.626L70.3403 45.7999H69.9767L68.9572 40.8522Z" fill="#191919" fill-opacity="0.8" stroke="#191919" stroke-opacity="0.8" stroke-width="0.5"/>
<path d="M83.3155 42.8058C83.3226 43.4207 83.1468 44.0237 82.8103 44.5384C82.4739 45.053 81.992 45.4561 81.426 45.6963C80.86 45.9365 80.2353 46.003 79.6314 45.8874C79.0275 45.7718 78.4716 45.4793 78.0343 45.047C77.597 44.6148 77.2981 44.0622 77.1755 43.4597C77.053 42.8572 77.1122 42.2318 77.3459 41.6631C77.5795 41.0943 77.977 40.6078 78.4877 40.2655C78.9984 39.9231 79.5994 39.7403 80.2143 39.7402C81.0301 39.742 81.8125 40.0645 82.3927 40.638C82.9729 41.2115 83.3043 41.9901 83.3155 42.8058ZM77.4981 42.8058C77.4952 43.3454 77.6527 43.8736 77.9506 44.3235C78.2484 44.7733 78.6732 45.1246 79.171 45.3327C79.6688 45.5408 80.2172 45.5964 80.7466 45.4923C81.276 45.3883 81.7626 45.1293 82.1446 44.7483C82.5266 44.3673 82.7868 43.8814 82.8923 43.3523C82.9977 42.8231 82.9436 42.2746 82.7368 41.7763C82.53 41.2779 82.1798 40.8522 81.7307 40.5532C81.2816 40.2542 80.7538 40.0953 80.2143 40.0967C79.4963 40.1004 78.8086 40.3868 78.3003 40.8939C77.7919 41.4009 77.5037 42.0878 77.4981 42.8058Z" fill="#191919" fill-opacity="0.8"/>
<path d="M77.4981 42.8058C77.4952 43.3454 77.6527 43.8736 77.9506 44.3235C78.2484 44.7733 78.6732 45.1246 79.171 45.3327C79.6688 45.5408 80.2172 45.5964 80.7466 45.4923C81.276 45.3883 81.7626 45.1293 82.1446 44.7483C82.5266 44.3673 82.7868 43.8814 82.8923 43.3523C82.9977 42.8231 82.9436 42.2746 82.7368 41.7763C82.53 41.2779 82.1798 40.8522 81.7307 40.5532C81.2816 40.2542 80.7538 40.0953 80.2143 40.0967C79.4963 40.1004 78.8086 40.3868 78.3003 40.8939C77.7919 41.4009 77.5037 42.0878 77.4981 42.8058M83.3155 42.8058C83.3226 43.4207 83.1468 44.0237 82.8103 44.5384C82.4739 45.053 81.992 45.4561 81.426 45.6963C80.86 45.9365 80.2353 46.003 79.6314 45.8874C79.0275 45.7718 78.4716 45.4793 78.0343 45.047C77.597 44.6148 77.2981 44.0622 77.1755 43.4597C77.053 42.8572 77.1122 42.2318 77.3459 41.6631C77.5795 41.0943 77.977 40.6078 78.4877 40.2655C78.9984 39.9231 79.5994 39.7403 80.2143 39.7402C81.0301 39.742 81.8125 40.0645 82.3927 40.638C82.9729 41.2115 83.3043 41.9901 83.3155 42.8058V42.8058Z" stroke="#191919" stroke-opacity="0.8" stroke-width="0.5"/>
<path d="M86.6025 40.1758V42.3502H88.5773V42.7067H86.6025V45.8008H86.2246V39.8193H88.6343V40.1758H86.6025Z" fill="#191919" fill-opacity="0.8" stroke="#191919" stroke-opacity="0.8" stroke-width="0.5"/>
<path d="M92.1057 40.1758V42.3502H94.0734V42.7067H92.1057V45.8008H91.7207V39.8193H94.1304V40.1758H92.1057Z" fill="#191919" fill-opacity="0.8" stroke="#191919" stroke-opacity="0.8" stroke-width="0.5"/>
<path d="M97.6025 39.8262H97.2246V45.8005H97.6025V39.8262Z" fill="#191919" fill-opacity="0.8" stroke="#191919" stroke-opacity="0.8" stroke-width="0.5"/>
<path d="M105.616 41.0384C105.365 40.7495 105.057 40.5165 104.711 40.3543C104.364 40.1922 103.988 40.1047 103.606 40.0973C102.884 40.1122 102.196 40.408 101.689 40.9219C101.182 41.4357 100.895 42.1272 100.889 42.8492C100.891 43.195 100.962 43.5369 101.099 43.8542C101.237 44.1716 101.437 44.4578 101.688 44.6957C101.943 44.9624 102.252 45.1731 102.593 45.3143C102.934 45.4556 103.301 45.5244 103.671 45.5163C104.04 45.5083 104.404 45.4236 104.739 45.2676C105.073 45.1116 105.372 44.8877 105.616 44.6102V45.1306C105.062 45.6066 104.357 45.8717 103.627 45.8792C103.211 45.8992 102.796 45.8347 102.406 45.6895C102.017 45.5443 101.66 45.3214 101.359 45.0345C101.058 44.7475 100.818 44.4024 100.655 44.02C100.491 43.6376 100.406 43.226 100.406 42.81C100.406 42.394 100.491 41.9824 100.655 41.6C100.818 41.2177 101.058 40.8726 101.359 40.5856C101.66 40.2986 102.017 40.0758 102.406 39.9306C102.796 39.7854 103.211 39.7208 103.627 39.7409C104.361 39.7464 105.067 40.0232 105.609 40.518L105.616 41.0384Z" fill="#191919" fill-opacity="0.8" stroke="#191919" stroke-opacity="0.8" stroke-width="0.5"/>
<path d="M109.088 40.1758V42.3502H111.498V42.7067H109.088V45.4443H111.562V45.8008H108.703V39.8193H111.562V40.1758H109.088Z" fill="#191919" fill-opacity="0.8" stroke="#191919" stroke-opacity="0.8" stroke-width="0.5"/>
<path d="M117.465 40.8025C117.348 40.5852 117.174 40.404 116.962 40.2783C116.749 40.1527 116.507 40.0874 116.26 40.0896C116.111 40.0886 115.962 40.1176 115.824 40.1747C115.686 40.2319 115.561 40.3161 115.456 40.4224C115.351 40.5287 115.269 40.655 115.213 40.7937C115.158 40.9325 115.131 41.0809 115.134 41.2303C115.134 41.8577 115.732 42.1001 116.21 42.3496L117.351 42.9413C117.576 43.0445 117.765 43.2135 117.892 43.4261C118.019 43.6386 118.079 43.8847 118.064 44.1319C118.032 44.5627 117.851 44.9691 117.554 45.2819C117.256 45.5948 116.859 45.7947 116.43 45.8476C116.001 45.9006 115.567 45.8033 115.202 45.5724C114.837 45.3415 114.564 44.9911 114.428 44.581L114.763 44.4313C114.856 44.7384 115.044 45.0081 115.301 45.2015C115.557 45.3949 115.868 45.5021 116.189 45.5079C116.38 45.5146 116.571 45.4826 116.75 45.414C116.928 45.3453 117.092 45.2414 117.229 45.1083C117.367 44.9752 117.477 44.8158 117.551 44.6394C117.626 44.4631 117.665 44.2735 117.664 44.082C117.664 43.3691 116.951 43.1338 116.46 42.8629L115.383 42.2925C115.188 42.1928 115.026 42.0388 114.915 41.8492C114.805 41.6595 114.752 41.4422 114.763 41.2232C114.756 41.0209 114.791 40.8194 114.865 40.6314C114.94 40.4433 115.053 40.2729 115.197 40.1308C115.341 39.9887 115.513 39.8781 115.702 39.806C115.891 39.7338 116.093 39.7017 116.296 39.7117C116.586 39.7165 116.87 39.7965 117.12 39.9439C117.37 40.0914 117.577 40.3013 117.721 40.553L117.465 40.8025Z" fill="#191919" fill-opacity="0.8" stroke="#191919" stroke-opacity="0.8" stroke-width="0.5"/>
</svg>
