<svg width="192" height="36" viewBox="0 0 192 36" fill="none" xmlns="http://www.w3.org/2000/svg">
<path d="M23.4768 28.9357V16.1928C23.5379 14.9239 23.1963 13.6689 22.5029 12.6155C21.8542 11.7124 20.9968 10.9884 20.0076 10.5084C18.9421 9.98838 17.8028 9.64493 16.6323 9.49085C15.4219 9.31769 14.2013 9.23069 12.9792 9.23047C11.6515 9.22998 10.327 9.36417 9.02506 9.63107C7.77917 9.87506 6.58248 10.3328 5.48546 10.9851C4.44711 11.6097 3.56158 12.4688 2.89628 13.4968C2.16903 14.6757 1.76383 16.0328 1.72293 17.4266H8.3054C8.43056 16.1007 8.86079 15.1553 9.60391 14.5864C10.347 14.0176 11.36 13.7332 12.6546 13.7332C13.2042 13.7312 13.7532 13.77 14.2973 13.8493C14.7704 13.9176 15.2261 14.0795 15.6388 14.326C16.027 14.5675 16.3456 14.9104 16.5619 15.3195C16.8177 15.8574 16.9374 16.4525 16.9099 17.0501C16.9448 17.3472 16.9081 17.6486 16.8031 17.9279C16.6981 18.2072 16.528 18.4559 16.3076 18.6525C15.7879 19.056 15.1887 19.339 14.5515 19.4817C13.7139 19.6859 12.863 19.8279 12.0054 19.9063C11.051 19.9971 10.0811 20.1307 9.09546 20.3069C8.10561 20.4634 7.125 20.676 6.15818 20.9439C5.23377 21.1881 4.35773 21.5948 3.56899 22.1457C2.7934 22.7027 2.1591 23.4417 1.71902 24.3009C1.20174 25.3653 0.954263 26.5459 0.999366 27.734C0.973333 28.8572 1.18689 29.9728 1.62515 31.0028C2.01871 31.8899 2.61259 32.6685 3.35779 33.2742C4.12714 33.8889 5.00882 34.3398 5.95089 34.6002C6.98955 34.8895 8.06214 35.031 9.13848 35.0208C10.6123 35.0205 12.078 34.7964 13.4877 34.3558C14.8952 33.9213 16.1695 33.1224 17.1876 32.0364C17.2152 32.4401 17.2688 32.8416 17.348 33.2381C17.4244 33.6315 17.525 34.0195 17.6492 34.3999H24.2981C23.9279 33.6966 23.7066 32.9213 23.6489 32.1245C23.5257 31.0664 23.4683 30.0013 23.4768 28.9357V28.9357ZM16.9099 24.9298C16.9005 25.4378 16.8613 25.9448 16.7926 26.4481C16.7052 27.1075 16.4926 27.743 16.1668 28.3188C15.7906 28.9835 15.2513 29.5359 14.6024 29.9212C13.8905 30.3619 12.888 30.5822 11.5947 30.5822C11.0831 30.5847 10.5723 30.5377 10.0693 30.442C9.61134 30.3605 9.17226 30.1921 8.77474 29.9452C8.40165 29.7073 8.09775 29.3711 7.89473 28.9718C7.66531 28.5025 7.55374 27.9821 7.57011 27.4575C7.55068 26.9173 7.66221 26.3805 7.89473 25.8952C8.10234 25.4936 8.39499 25.1446 8.75127 24.8737C9.12852 24.5845 9.54837 24.3586 9.99502 24.2047C10.472 24.0478 10.9579 23.9208 11.45 23.8242C11.9741 23.732 12.4982 23.6519 13.0144 23.5878C13.5307 23.5237 14.0431 23.4476 14.5202 23.3514C14.9745 23.2626 15.4226 23.1435 15.8618 22.9949C16.2441 22.8734 16.5982 22.673 16.9021 22.406L16.9099 24.9298Z" fill="#191919" fill-opacity="0.64"/>
<path d="M45.4707 9.89551V14.3982H45.4824V34.3839H52.0493V9.89551H46.8357H45.4707Z" fill="#191919" fill-opacity="0.64"/>
<path d="M37.3139 9.89431V8.42413C37.3139 7.41864 37.5056 6.69756 37.8928 6.27293C38.28 5.8483 38.9175 5.63198 39.8093 5.63198C40.613 5.63091 41.4162 5.67773 42.2146 5.77219V0.752733C41.6592 0.720686 41.0882 0.680626 40.5054 0.63656C39.9227 0.592495 39.3321 0.564453 38.7454 0.564453C36.0676 0.564453 34.0638 1.25882 32.734 2.64755C32.0694 3.3576 31.551 4.19732 31.2096 5.11675C30.8683 6.03618 30.711 7.01654 30.7471 7.9995V9.89431H26.8164V14.393H30.7471V34.3827H37.3139V14.393H42.1364V9.89431H37.3139Z" fill="#191919" fill-opacity="0.64"/>
<path d="M105.298 12.7622C104.188 11.6204 102.855 10.7317 101.387 10.1543C99.7542 9.52146 98.0201 9.2089 96.2748 9.23294C94.5382 9.20693 92.8127 9.51962 91.1903 10.1543C89.7187 10.731 88.3859 11.6262 87.283 12.7786C86.1801 13.9311 85.3329 15.3138 84.7994 16.8322C84.1937 18.5404 83.8955 20.347 83.9194 22.1642C83.8944 23.9723 84.1927 25.7699 84.7994 27.468C85.3436 28.9829 86.1939 30.363 87.2947 31.5181C88.3962 32.6521 89.7218 33.5317 91.1824 34.0979C92.8077 34.7199 94.5321 35.0256 96.2669 34.9992C98.0105 35.0237 99.7436 34.7181 101.379 34.0979C102.848 33.5348 104.182 32.655 105.29 31.5181C106.39 30.362 107.24 28.9822 107.785 27.468C108.389 25.7693 108.685 23.9718 108.657 22.1642C108.681 20.347 108.383 18.5404 107.777 16.8322C107.241 15.3111 106.396 13.9239 105.298 12.7622ZM101.829 25.0284C101.661 25.9152 101.34 26.7644 100.882 27.5361C100.437 28.2766 99.8152 28.8887 99.0751 29.3148C98.2157 29.7829 97.2516 30.0122 96.2787 29.9798C95.3131 30.0144 94.3559 29.7849 93.5057 29.3148C92.775 28.8845 92.1617 28.2728 91.7222 27.5361C91.2639 26.7644 90.9434 25.9152 90.7757 25.0284C90.5901 24.0855 90.4971 23.126 90.498 22.1642C90.4978 21.1931 90.5908 20.2243 90.7757 19.2719C90.9389 18.3825 91.2597 17.5312 91.7222 16.7601C92.1727 16.0336 92.7836 15.4257 93.5057 14.9855C94.3512 14.5011 95.3105 14.2641 96.2787 14.3005C97.2544 14.2676 98.2207 14.5057 99.0751 14.9895C99.8065 15.4257 100.426 16.0341 100.882 16.7641C101.345 17.5352 101.665 18.3865 101.829 19.2759C102.013 20.2283 102.106 21.1971 102.106 22.1682C102.107 23.1287 102.014 24.0868 101.829 25.0284V25.0284Z" fill="#191919" fill-opacity="0.64"/>
<path d="M135.579 26.4761H135.489L131.418 9.89551H125.035L121.061 26.5242H120.967L116.575 9.89551H109.637L117.22 34.3839H124.018L128.09 17.9515H128.18L132.435 34.3839H139.185L146.726 9.89551H139.972L135.579 26.4761Z" fill="#191919" fill-opacity="0.64"/>
<path d="M168.942 13.6847C167.964 12.321 166.689 11.2099 165.218 10.4399C163.567 9.60271 161.741 9.19023 159.899 9.23812C158.193 9.21424 156.5 9.5525 154.928 10.2316C153.47 10.8603 152.153 11.7892 151.06 12.9607C149.966 14.1321 149.12 15.5212 148.572 17.0417C147.976 18.6774 147.678 20.4113 147.692 22.1573C147.672 23.9316 147.962 25.6953 148.549 27.365C149.079 28.8774 149.904 30.2635 150.974 31.4391C152.049 32.5946 153.361 33.492 154.815 34.067C156.433 34.7137 158.158 35.0373 159.895 35.0204C162.61 35.0204 164.922 34.3888 166.834 33.1256C168.745 31.8624 170.163 29.7619 171.089 26.8242H165.312C165.097 27.5814 164.51 28.3024 163.552 28.9794C162.543 29.677 161.347 30.0341 160.13 30.001C158.284 30.001 156.867 29.5109 155.878 28.5308C154.889 27.5533 154.353 25.971 154.259 23.7917H171.507C171.637 21.9635 171.481 20.1257 171.046 18.3476C170.645 16.6688 169.93 15.0854 168.942 13.6847V13.6847ZM154.259 19.5094C154.303 18.9657 154.404 18.4285 154.56 17.907C154.74 17.2821 155.037 16.6994 155.436 16.1924C155.891 15.6251 156.459 15.1646 157.103 14.8424C157.919 14.4515 158.815 14.2648 159.715 14.2976C161.319 14.2976 162.513 14.7396 163.298 15.6236C164.083 16.5076 164.63 17.8015 164.941 19.5054L154.259 19.5094Z" fill="#191919" fill-opacity="0.64"/>
<path d="M189.568 9.23346C188.752 9.2301 187.941 9.35715 187.163 9.61002C186.394 9.86249 185.663 10.221 184.988 10.6756C184.312 11.1356 183.704 11.6944 183.185 12.3341C182.67 12.9692 182.249 13.6793 181.938 14.4412H181.844V9.89445H175.586V34.3828H182.188V23.3464C182.181 22.3116 182.29 21.2793 182.513 20.2699C182.705 19.3732 183.075 18.5265 183.6 17.7822C184.123 17.0585 184.814 16.4801 185.61 16.0997C186.571 15.6631 187.614 15.4523 188.665 15.4827C189.082 15.4838 189.498 15.5079 189.912 15.5549C190.343 15.6029 190.695 15.659 191.019 15.7231V9.46982C190.55 9.31871 190.061 9.23907 189.568 9.23346V9.23346Z" fill="#191919" fill-opacity="0.64"/>
<path d="M76.5881 28.6749C76.197 28.2503 76.0093 27.5292 76.0093 26.5197V14.3937H82.0364V9.89499H75.9897V0.969727H69.4229V9.89499H65.4922V14.3937H69.4229V26.9483C69.3868 27.9313 69.5441 28.9116 69.8854 29.8311C70.2267 30.7505 70.7451 31.5902 71.4098 32.3003C72.7369 33.6917 74.7408 34.386 77.4212 34.3834C78.0079 34.3834 78.5946 34.3593 79.1812 34.3113C79.764 34.2672 80.335 34.2231 80.8904 34.1951V29.1716C80.0922 29.2694 79.2889 29.3176 78.485 29.3158C77.5933 29.3158 76.9519 29.1035 76.5881 28.6749Z" fill="#191919" fill-opacity="0.64"/>
<path d="M48.7858 0C48.0749 0 47.3799 0.215913 46.7888 0.620438C46.1978 1.02496 45.7371 1.59993 45.465 2.27263C45.193 2.94533 45.1218 3.68555 45.2605 4.39969C45.3992 5.11382 45.7415 5.7698 46.2442 6.28466C46.7468 6.79952 47.3873 7.15015 48.0845 7.2922C48.7818 7.43425 49.5045 7.36134 50.1613 7.0827C50.818 6.80406 51.3794 6.3322 51.7743 5.72678C52.1693 5.12137 52.3801 4.40959 52.3801 3.68147C52.377 2.70606 51.9973 1.7715 51.3239 1.08178C50.6505 0.392053 49.7381 0.00316866 48.7858 0Z" fill="#191919" fill-opacity="0.64"/>
</svg>
