<svg width="149" height="105" viewBox="0 0 149 105" fill="none" xmlns="http://www.w3.org/2000/svg">
<path d="M106.401 83.9995H92.6133V79.419H101.828V70.2236H106.401V83.9995Z" fill="#191919" fill-opacity="0.64"/>
<path d="M106.401 35.7587H101.828V26.5805H92.6133V22H106.401V35.7587Z" fill="#191919" fill-opacity="0.64"/>
<path d="M58.0745 83.9995H44.2871V70.2236H48.86V79.419H58.0745V83.9995Z" fill="#191919" fill-opacity="0.64"/>
<path d="M48.86 35.7587H44.2871V22H58.0745V26.5805H48.86V35.7587Z" fill="#191919" fill-opacity="0.64"/>
<path d="M8.22115 42.1582L0.949219 61.4925H6.67393L7.79137 57.9413H14.1521L15.3212 61.4925H21.0287L13.8083 42.1582H8.22115ZM12.7425 53.3951H9.3042L11.0233 47.7509L12.7425 53.3951Z" fill="#191919" fill-opacity="0.64"/>
<path d="M22.043 61.4925H27.5442V54.4587H34.266V49.9125H27.5442V46.7044H34.5926V42.1582H22.043V61.4925Z" fill="#191919" fill-opacity="0.64"/>
<path d="M41.8977 42.1582H36.3965V61.4925H41.8977V42.1582Z" fill="#191919" fill-opacity="0.64"/>
<path d="M62.1319 56.243C62.1426 56.9842 61.9652 57.716 61.6162 58.3703C61.2797 58.9957 60.8103 59.5403 60.2409 59.9657C59.6248 60.4261 58.9323 60.7746 58.1951 60.9951C57.3754 61.24 56.5236 61.3615 55.668 61.3554C54.7504 61.3472 53.8354 61.2554 52.9346 61.0809C52.0486 60.9098 51.1878 60.6274 50.373 60.2402L50.8716 58.233C51.5987 58.5544 52.3522 58.8127 53.1237 59.005C53.933 59.2089 54.7644 59.3126 55.5992 59.3138C56.6243 59.3621 57.6392 59.0924 58.5045 58.5418C58.8658 58.3041 59.1588 57.9766 59.3547 57.5916C59.5506 57.2066 59.6427 56.7773 59.622 56.3459C59.6384 55.873 59.5254 55.4045 59.2953 54.9907C59.0743 54.593 58.7763 54.2431 58.4186 53.9613C58.0248 53.6477 57.5983 53.3774 57.1464 53.155L55.582 52.4002C54.9459 52.1085 54.3442 51.7997 53.7597 51.4738C53.2067 51.1715 52.6929 50.8028 52.2297 50.3758C51.7936 49.9737 51.4327 49.4974 51.1639 48.9691C50.8927 48.3955 50.7574 47.7675 50.7684 47.1334C50.7507 46.4123 50.8976 45.6965 51.1982 45.0405C51.4687 44.4412 51.8818 43.9171 52.4016 43.5136C52.9575 43.0965 53.5875 42.788 54.2583 42.6044C55.0304 42.3896 55.8292 42.2856 56.6307 42.2956C57.4996 42.2936 58.3656 42.3973 59.2094 42.6044C59.9753 42.7752 60.7152 43.0463 61.4099 43.4107L60.9457 45.4179C60.3044 45.0905 59.6302 44.8317 58.9343 44.6459C58.1834 44.4424 57.4088 44.3385 56.6307 44.3371C54.3958 44.3371 53.2784 45.212 53.2784 46.9447C53.2679 47.2846 53.3263 47.623 53.4503 47.9397C53.5658 48.2447 53.7478 48.5201 53.9832 48.746C54.2789 49.0331 54.6148 49.2758 54.9803 49.4666L56.4931 50.2557L58.367 51.1993C59.0189 51.5347 59.6304 51.9434 60.1893 52.4173C60.7496 52.9044 61.2207 53.4848 61.5818 54.1329C61.9567 54.7971 62.1466 55.5494 62.1319 56.3116" fill="#191919" fill-opacity="0.8"/>
<path d="M73.393 61.3542C72.0698 61.383 70.7561 61.1255 69.5422 60.5993C68.467 60.1122 67.5064 59.405 66.7228 58.5235C65.9559 57.6335 65.3717 56.6018 65.0036 55.487C64.2019 53.1224 64.2019 50.5604 65.0036 48.1959C65.3758 47.0828 65.9595 46.0518 66.7228 45.1594C67.5064 44.2779 68.467 43.5706 69.5422 43.0835C70.7618 42.574 72.0708 42.3115 73.393 42.3115C74.7152 42.3115 76.0243 42.574 77.2439 43.0835C78.3067 43.5747 79.2552 44.2817 80.0289 45.1594C80.7922 46.0518 81.3759 47.0828 81.748 48.1959C82.1494 49.3724 82.3527 50.6072 82.3497 51.85C82.3506 52.751 82.2468 53.6491 82.0402 54.5263C81.8558 55.367 81.5489 56.1762 81.1291 56.928C80.7374 57.6753 80.233 58.358 79.6335 58.9524C79.0377 59.5533 78.3465 60.0519 77.5877 60.4278L82.1606 63.2927L80.9744 65.1798L74.8715 61.2341H74.115H73.3414L73.393 61.3542ZM73.3414 59.1926C74.3069 59.2039 75.2632 59.0048 76.1436 58.6093C76.9259 58.2354 77.6135 57.69 78.155 57.0138C78.7061 56.2947 79.1198 55.4806 79.3756 54.612C79.9253 52.7123 79.9253 50.6961 79.3756 48.7963C79.1197 47.9331 78.7059 47.1246 78.155 46.4117C77.6135 45.7355 76.9259 45.1901 76.1436 44.8163C75.2618 44.4236 74.307 44.2206 73.3414 44.2206C72.3758 44.2206 71.421 44.4236 70.5393 44.8163C69.7569 45.1901 69.0694 45.7355 68.5279 46.4117C67.977 47.1246 67.5632 47.9331 67.3073 48.7963C66.7576 50.6961 66.7576 52.7123 67.3073 54.612C67.563 55.4806 67.9768 56.2947 68.5279 57.0138C69.0694 57.69 69.7569 58.2354 70.5393 58.6093C71.4197 59.0048 72.376 59.2039 73.3414 59.1926Z" fill="#191919" fill-opacity="0.8"/>
<path d="M97.6329 42.6377H100.177V54.5093C100.187 55.4292 100.024 56.3428 99.6959 57.2027C99.3937 58.0162 98.9253 58.7581 98.3206 59.3815C97.6842 60.0199 96.9155 60.5118 96.0685 60.8225C94.0549 61.5315 91.8589 61.5315 89.8453 60.8225C88.9983 60.5118 88.2296 60.0199 87.5932 59.3815C86.9778 58.7633 86.5029 58.0202 86.2007 57.2027C85.8867 56.3396 85.7295 55.4275 85.7366 54.5093V42.6377H88.2809V54.6465C88.2103 55.8982 88.6294 57.1283 89.4499 58.0776C89.8981 58.525 90.4363 58.8726 91.029 59.0973C91.6216 59.322 92.2552 59.4189 92.8881 59.3815C93.5214 59.4234 94.1564 59.3286 94.7497 59.1036C95.343 58.8786 95.8808 58.5287 96.3264 58.0776C97.1595 57.1347 97.5858 55.9016 97.5126 54.6465L97.6329 42.6377Z" fill="#191919" fill-opacity="0.8"/>
<path d="M119.568 61.0112H116.972L115.253 56.568H106.658L104.938 61.0112H102.377L109.7 42.6377H112.193L119.568 61.0112ZM107.534 54.5265H114.411L110.973 44.9537L107.534 54.5265Z" fill="#191919" fill-opacity="0.8"/>
<path d="M125.035 61.011H122.49V42.6375H127.287C128.219 42.6265 129.15 42.7361 130.054 42.9634C130.855 43.1596 131.617 43.4903 132.306 43.9413C132.943 44.3513 133.468 44.911 133.837 45.5711C134.217 46.258 134.407 47.0338 134.387 47.8184C134.405 49.035 133.97 50.215 133.166 51.1294C132.248 52.135 131.051 52.8455 129.728 53.1709L136.226 61.011H133.114L127.098 53.617H125.052L125.035 61.011ZM131.911 47.8699C131.925 47.3526 131.794 46.8416 131.533 46.3945C131.287 45.9862 130.945 45.6444 130.536 45.3995C130.074 45.1419 129.575 44.9568 129.057 44.8505C128.492 44.7319 127.916 44.6744 127.338 44.679H125.121V51.5412H126.393C127.126 51.5393 127.857 51.4646 128.576 51.3181C129.182 51.1837 129.763 50.952 130.295 50.6319C130.776 50.3543 131.179 49.9587 131.464 49.4825C131.769 48.9636 131.918 48.3681 131.894 47.767" fill="#191919" fill-opacity="0.8"/>
<path d="M138.65 42.6377H148.914V44.6964H141.195V50.5807H148.587V52.6565H141.195V58.9526H149V61.0112H138.65V42.6377Z" fill="#191919" fill-opacity="0.8"/>
<path d="M7.25781 70.3268V66.3467H8.083C8.85661 66.3467 9.42392 66.6726 9.42392 67.376C9.42707 67.5638 9.37502 67.7483 9.27419 67.9069C9.17336 68.0654 9.02818 68.191 8.85661 68.2681C9.10736 68.2937 9.33958 68.4115 9.50802 68.5986C9.67646 68.7857 9.76906 69.0287 9.76776 69.2803C9.76776 70.0351 9.0629 70.3268 8.44402 70.3268H7.25781ZM7.58445 68.1995H8.11738C8.73627 68.1995 9.09728 67.8907 9.09728 67.4103C9.09728 66.93 8.85661 66.604 8.01423 66.604H7.58445V68.1995ZM7.58445 70.0694H8.39245C8.89099 70.0694 9.44112 69.8464 9.44112 69.2631C9.44112 68.6798 8.83942 68.4568 8.32368 68.4568H7.58445V70.0694Z" fill="#191919" fill-opacity="0.64" stroke="#191919" stroke-opacity="0.64" stroke-width="0.5"/>
<path d="M11.8473 66.3467V68.5254C11.8473 69.3661 12.2771 70.1037 13.2055 70.1037C14.1338 70.1037 14.5636 69.4004 14.5636 68.5083V66.3467H14.873V68.5769C14.9366 68.8299 14.9415 69.094 14.8874 69.3491C14.8333 69.6042 14.7216 69.8437 14.5608 70.0493C14.4 70.2549 14.1944 70.4213 13.9596 70.5357C13.7247 70.65 13.4668 70.7095 13.2055 70.7095C12.9441 70.7095 12.6862 70.65 12.4514 70.5357C12.2165 70.4213 12.0109 70.2549 11.8501 70.0493C11.6894 69.8437 11.5777 69.6042 11.5236 69.3491C11.4695 69.094 11.4744 68.8299 11.5379 68.5769V66.3467H11.8473Z" fill="#191919" fill-opacity="0.64" stroke="#191919" stroke-opacity="0.64" stroke-width="0.5"/>
<path d="M18.7407 66.5538V66.8797C18.4775 66.6954 18.1678 66.5884 17.8468 66.5709C17.7392 66.564 17.6314 66.5786 17.5296 66.6138C17.4278 66.6491 17.3341 66.7043 17.254 66.7762C17.1739 66.8482 17.109 66.9354 17.0632 67.0327C17.0174 67.13 16.9916 67.2355 16.9872 67.3429C16.994 67.4893 17.0454 67.6301 17.1345 67.7466C17.2235 67.8631 17.3461 67.9497 17.4857 67.9948L18.1218 68.2522C18.3971 68.31 18.639 68.4724 18.7964 68.705C18.9538 68.9376 19.0144 69.2222 18.9653 69.4986C18.9161 69.775 18.7611 70.0215 18.5331 70.1859C18.3051 70.3503 18.022 70.4197 17.7436 70.3795C17.3751 70.36 17.0186 70.2415 16.7121 70.0364V69.6761C16.9984 69.9191 17.3523 70.0688 17.7264 70.105C17.8348 70.1096 17.943 70.0928 18.0449 70.0556C18.1468 70.0184 18.2404 69.9616 18.3202 69.8883C18.4 69.815 18.4646 69.7267 18.5102 69.6285C18.5558 69.5302 18.5815 69.424 18.586 69.3158C18.5828 69.1465 18.5263 68.9824 18.4245 68.8469C18.3227 68.7114 18.1807 68.6114 18.0187 68.561L17.2794 68.2693C17.1027 68.1908 16.9522 68.0635 16.8455 67.9024C16.7389 67.7413 16.6807 67.5531 16.6777 67.3601C16.6822 67.2159 16.7151 67.074 16.7745 66.9425C16.8339 66.8109 16.9188 66.6924 17.0242 66.5936C17.1295 66.4948 17.2534 66.4177 17.3886 66.3668C17.5239 66.3158 17.6679 66.2919 17.8124 66.2965C18.1383 66.3045 18.4573 66.3929 18.7407 66.5538Z" fill="#191919" fill-opacity="0.64"/>
<path d="M18.7407 66.5538V66.8797C18.4775 66.6954 18.1678 66.5884 17.8468 66.5709C17.7392 66.564 17.6314 66.5786 17.5296 66.6138C17.4278 66.6491 17.3341 66.7043 17.254 66.7762C17.1739 66.8482 17.109 66.9354 17.0632 67.0327C17.0174 67.13 16.9916 67.2355 16.9872 67.3429C16.994 67.4893 17.0454 67.6301 17.1345 67.7466C17.2235 67.8631 17.3461 67.9496 17.4857 67.9948L18.1218 68.2522C18.3971 68.31 18.639 68.4724 18.7964 68.705C18.9538 68.9376 19.0144 69.2222 18.9653 69.4986C18.9161 69.775 18.7611 70.0215 18.5331 70.1859C18.3051 70.3503 18.022 70.4197 17.7436 70.3795C17.3751 70.36 17.0186 70.2415 16.7121 70.0364V69.6761C16.9984 69.9191 17.3523 70.0688 17.7264 70.105C17.8348 70.1096 17.943 70.0928 18.0449 70.0556C18.1468 70.0184 18.2404 69.9616 18.3202 69.8883C18.4 69.815 18.4646 69.7267 18.5102 69.6285C18.5558 69.5302 18.5815 69.424 18.586 69.3158C18.5828 69.1465 18.5263 68.9824 18.4245 68.8469C18.3227 68.7114 18.1807 68.6114 18.0187 68.561L17.2794 68.2693C17.1027 68.1908 16.9522 68.0635 16.8455 67.9024C16.7389 67.7413 16.6807 67.5531 16.6777 67.3601C16.6822 67.2159 16.7151 67.074 16.7745 66.9425C16.8339 66.8109 16.9188 66.6924 17.0242 66.5936C17.1295 66.4948 17.2534 66.4177 17.3886 66.3668C17.5239 66.3158 17.6679 66.2919 17.8124 66.2965C18.1383 66.3045 18.4573 66.3929 18.7407 66.5538" stroke="#191919" stroke-opacity="0.64" stroke-width="0.5"/>
<path d="M21.0106 66.3467H20.7012V70.3268H21.0106V66.3467Z" fill="#191919" fill-opacity="0.64" stroke="#191919" stroke-opacity="0.64" stroke-width="0.5"/>
<path d="M22.9531 66.3467H23.2454L26.2367 69.8292V66.3467H26.5461V70.3268H26.2882L23.2626 66.827V70.3268H22.9531V66.3467Z" fill="#191919" fill-opacity="0.64" stroke="#191919" stroke-opacity="0.64" stroke-width="0.5"/>
<path d="M28.4727 66.3467H30.656V66.604H28.7993V68.1823H30.6044V68.4568H28.7993V70.0694H30.7075V70.3268H28.4727V66.3467Z" fill="#191919" fill-opacity="0.64" stroke="#191919" stroke-opacity="0.64" stroke-width="0.5"/>
<path d="M34.4536 66.5538V66.8797C34.1904 66.6954 33.8807 66.5884 33.5596 66.5709C33.453 66.564 33.346 66.5786 33.2452 66.6141C33.1443 66.6495 33.0518 66.705 32.973 66.7772C32.8943 66.8493 32.831 66.9367 32.7871 67.0339C32.7431 67.1311 32.7194 67.2363 32.7173 67.3429C32.7216 67.49 32.7721 67.632 32.8615 67.7489C32.9509 67.8658 33.0749 67.9519 33.2158 67.9948L33.8347 68.2522C34.059 68.3177 34.2565 68.4528 34.3987 68.6379C34.5409 68.8229 34.6203 69.0484 34.6255 69.2815C34.6234 69.4309 34.5912 69.5784 34.5308 69.7152C34.4704 69.8519 34.3831 69.9751 34.274 70.0776C34.165 70.18 34.0364 70.2595 33.896 70.3114C33.7556 70.3632 33.6061 70.3864 33.4565 70.3795C33.0929 70.3622 32.7414 70.2433 32.4422 70.0364V69.6761C32.7194 69.9228 33.0692 70.0733 33.4393 70.105C33.5477 70.1096 33.6559 70.0928 33.7578 70.0556C33.8597 70.0184 33.9532 69.9616 34.0331 69.8883C34.1129 69.815 34.1775 69.7267 34.2231 69.6285C34.2687 69.5302 34.2944 69.424 34.2989 69.3158C34.2995 69.148 34.2466 68.9843 34.1476 68.8485C34.0487 68.7128 33.909 68.6121 33.7488 68.561L33.0095 68.2693C32.8308 68.1916 32.6778 68.065 32.5683 67.904C32.4588 67.7431 32.3971 67.5545 32.3906 67.3601C32.3951 67.2159 32.428 67.074 32.4874 66.9425C32.5468 66.8109 32.6317 66.6924 32.737 66.5936C32.8424 66.4948 32.9663 66.4177 33.1015 66.3668C33.2368 66.3158 33.3808 66.2919 33.5253 66.2965C33.8512 66.3045 34.1702 66.3929 34.4536 66.5538Z" fill="#191919" fill-opacity="0.64"/>
<path d="M34.4536 66.5538V66.8797C34.1904 66.6954 33.8807 66.5884 33.5596 66.5709C33.453 66.564 33.346 66.5786 33.2452 66.6141C33.1443 66.6495 33.0518 66.705 32.973 66.7772C32.8943 66.8493 32.831 66.9367 32.7871 67.0339C32.7431 67.1311 32.7194 67.2363 32.7173 67.3429C32.7216 67.49 32.7721 67.632 32.8615 67.7489C32.9509 67.8658 33.0749 67.9519 33.2158 67.9948L33.8347 68.2522C34.059 68.3177 34.2565 68.4528 34.3987 68.6379C34.5409 68.8229 34.6203 69.0484 34.6255 69.2815C34.6234 69.4309 34.5912 69.5784 34.5308 69.7152C34.4704 69.8519 34.3831 69.9751 34.274 70.0776C34.165 70.18 34.0364 70.2595 33.896 70.3114C33.7556 70.3632 33.6061 70.3864 33.4565 70.3795C33.0929 70.3622 32.7414 70.2433 32.4422 70.0364V69.6761C32.7194 69.9228 33.0692 70.0733 33.4393 70.105C33.5477 70.1096 33.6559 70.0928 33.7578 70.0556C33.8597 70.0184 33.9532 69.9616 34.0331 69.8883C34.1129 69.815 34.1775 69.7267 34.2231 69.6285C34.2687 69.5302 34.2944 69.424 34.2989 69.3158C34.2995 69.148 34.2466 68.9843 34.1476 68.8485C34.0487 68.7128 33.909 68.6121 33.7488 68.561L33.0095 68.2693C32.8308 68.1916 32.6778 68.065 32.5683 67.904C32.4588 67.7431 32.3971 67.5545 32.3906 67.3601C32.3951 67.2159 32.428 67.074 32.4874 66.9425C32.5468 66.8109 32.6317 66.6924 32.737 66.5936C32.8424 66.4948 32.9663 66.4177 33.1015 66.3668C33.2368 66.3158 33.3808 66.2919 33.5253 66.2965C33.8512 66.3045 34.1702 66.3929 34.4536 66.5538" stroke="#191919" stroke-opacity="0.64" stroke-width="0.5"/>
<path d="M38.3735 66.5538V66.8797C38.1103 66.6954 37.8006 66.5884 37.4795 66.5709C37.372 66.564 37.2642 66.5786 37.1624 66.6138C37.0606 66.6491 36.9669 66.7043 36.8868 66.7762C36.8067 66.8482 36.7418 66.9354 36.696 67.0327C36.6502 67.13 36.6243 67.2355 36.62 67.3429C36.6268 67.4893 36.6782 67.6301 36.7672 67.7466C36.8563 67.8631 36.9789 67.9496 37.1185 67.9948L37.7546 68.2522C37.9771 68.3184 38.1723 68.4541 38.3116 68.6395C38.4509 68.8248 38.5268 69.0499 38.5282 69.2815C38.5284 69.4301 38.4983 69.5772 38.4398 69.7139C38.3813 69.8506 38.2956 69.974 38.1879 70.0766C38.0802 70.1793 37.9528 70.2591 37.8133 70.3111C37.6738 70.3632 37.5252 70.3864 37.3764 70.3795C37.0079 70.36 36.6514 70.2415 36.3449 70.0363V69.6761C36.6312 69.9191 36.9851 70.0688 37.3592 70.105C37.4676 70.1096 37.5758 70.0928 37.6777 70.0556C37.7796 70.0184 37.8731 69.9616 37.953 69.8883C38.0328 69.815 38.0974 69.7267 38.143 69.6285C38.1886 69.5302 38.2143 69.424 38.2188 69.3158C38.2183 69.1458 38.1628 68.9805 38.0606 68.8445C37.9584 68.7085 37.8149 68.609 37.6515 68.561L36.9122 68.2693C36.7379 68.1875 36.5896 68.0594 36.4834 67.899C36.3773 67.7386 36.3175 67.5522 36.3105 67.3601C36.315 67.2159 36.3479 67.074 36.4073 66.9425C36.4667 66.8109 36.5516 66.6924 36.6569 66.5936C36.7623 66.4948 36.8862 66.4177 37.0214 66.3667C37.1567 66.3158 37.3007 66.2919 37.4452 66.2965C37.7711 66.3045 38.0901 66.3929 38.3735 66.5538Z" fill="#191919" fill-opacity="0.64"/>
<path d="M38.3735 66.5538V66.8797C38.1103 66.6954 37.8006 66.5884 37.4795 66.5709C37.372 66.564 37.2642 66.5786 37.1624 66.6138C37.0606 66.6491 36.9669 66.7043 36.8868 66.7762C36.8067 66.8482 36.7418 66.9354 36.696 67.0327C36.6502 67.13 36.6243 67.2355 36.62 67.3429C36.6268 67.4893 36.6782 67.6301 36.7672 67.7466C36.8563 67.8631 36.9789 67.9496 37.1185 67.9948L37.7546 68.2522C37.9771 68.3184 38.1723 68.4541 38.3116 68.6395C38.4509 68.8248 38.5268 69.0499 38.5282 69.2815C38.5284 69.4301 38.4983 69.5772 38.4398 69.7139C38.3813 69.8506 38.2956 69.974 38.1879 70.0766C38.0802 70.1793 37.9528 70.2591 37.8133 70.3111C37.6738 70.3632 37.5252 70.3864 37.3764 70.3795C37.0079 70.36 36.6514 70.2415 36.3449 70.0363V69.6761C36.6312 69.9191 36.9851 70.0688 37.3592 70.105C37.4676 70.1096 37.5758 70.0928 37.6777 70.0556C37.7796 70.0184 37.8731 69.9616 37.953 69.8883C38.0328 69.815 38.0974 69.7267 38.143 69.6285C38.1886 69.5302 38.2143 69.424 38.2188 69.3158C38.2183 69.1458 38.1628 68.9805 38.0606 68.8445C37.9584 68.7085 37.8149 68.609 37.6515 68.561L36.9122 68.2693C36.7379 68.1875 36.5896 68.0594 36.4834 67.899C36.3773 67.7386 36.3175 67.5522 36.3105 67.3601C36.315 67.2159 36.3479 67.074 36.4073 66.9425C36.4667 66.8109 36.5516 66.6924 36.6569 66.5936C36.7623 66.4948 36.8862 66.4177 37.0214 66.3667C37.1567 66.3158 37.3007 66.2919 37.4452 66.2965C37.7711 66.3045 38.0901 66.3929 38.3735 66.5538" stroke="#191919" stroke-opacity="0.64" stroke-width="0.5"/>
<path d="M118.366 70.1044C118.862 70.0814 119.346 69.9402 119.776 69.6927V70.0186C119.341 70.2476 118.858 70.371 118.366 70.3789C117.824 70.3789 117.303 70.1638 116.919 69.781C116.536 69.3981 116.32 68.8788 116.32 68.3374C116.32 67.796 116.536 67.2767 116.919 66.8938C117.303 66.511 117.824 66.2959 118.366 66.2959C118.849 66.3006 119.324 66.4119 119.759 66.6219V66.965C119.35 66.7122 118.881 66.5757 118.4 66.5704C117.931 66.5704 117.48 66.7565 117.148 67.0879C116.816 67.4193 116.63 67.8688 116.63 68.3374C116.63 68.806 116.816 69.2555 117.148 69.5869C117.48 69.9183 117.931 70.1044 118.4 70.1044" fill="#191919" fill-opacity="0.64"/>
<path d="M118.366 70.1044C118.862 70.0814 119.346 69.9402 119.776 69.6927V70.0186C119.341 70.2476 118.858 70.371 118.366 70.3789C117.824 70.3789 117.303 70.1638 116.919 69.781C116.536 69.3981 116.32 68.8788 116.32 68.3374C116.32 67.796 116.536 67.2767 116.919 66.8938C117.303 66.511 117.824 66.2959 118.366 66.2959C118.849 66.3006 119.324 66.4119 119.759 66.6219V66.965C119.35 66.7122 118.881 66.5757 118.4 66.5704C117.931 66.5704 117.48 66.7565 117.148 67.0879C116.816 67.4193 116.63 67.8688 116.63 68.3374C116.63 68.806 116.816 69.2555 117.148 69.5869C117.48 69.9183 117.931 70.1044 118.4 70.1044" stroke="#191919" stroke-opacity="0.64" stroke-width="0.5"/>
<path d="M121.527 66.3467H123.711V66.604H121.854V68.1823H123.659V68.4568H121.854V70.0694H123.762V70.3268H121.527V66.3467Z" fill="#191919" fill-opacity="0.64" stroke="#191919" stroke-opacity="0.64" stroke-width="0.5"/>
<path d="M125.568 66.3467H125.861L128.869 69.8292V66.3467H129.179V70.3268H128.921L125.878 66.827V70.3268H125.568V66.3467Z" fill="#191919" fill-opacity="0.64" stroke="#191919" stroke-opacity="0.64" stroke-width="0.5"/>
<path d="M130.727 66.3467H134.027V66.604H132.532V70.3268H132.222V66.604H130.727V66.3467Z" fill="#191919" fill-opacity="0.64" stroke="#191919" stroke-opacity="0.64" stroke-width="0.5"/>
<path d="M135.625 66.3467H137.791V66.604H135.934V68.1823H137.757V68.4568H135.934V70.0694H137.843V70.3268H135.625V66.3467Z" fill="#191919" fill-opacity="0.64" stroke="#191919" stroke-opacity="0.64" stroke-width="0.5"/>
<path d="M140.628 66.3467C141.849 66.3467 141.986 66.9814 141.986 67.376C141.989 67.5957 141.918 67.81 141.784 67.9843C141.65 68.1586 141.461 68.2828 141.247 68.3367C141.42 68.4607 141.566 68.6182 141.677 68.7999L142.674 70.3268H142.313L141.574 69.1773C141.23 68.6455 141.058 68.4397 140.594 68.4397H139.975V70.3439H139.648V66.3467H140.628ZM139.975 68.1652H140.628C141.385 68.1652 141.66 67.822 141.66 67.376C141.66 66.93 141.316 66.604 140.491 66.604H139.975V68.1652Z" fill="#191919" fill-opacity="0.64" stroke="#191919" stroke-opacity="0.64" stroke-width="0.5"/>
</svg>
