<svg width="296" height="102" viewBox="0 0 296 102" fill="none" xmlns="http://www.w3.org/2000/svg">
<path fill-rule="evenodd" clip-rule="evenodd" d="M44.7311 68.6217C48.4892 68.6287 52.1969 67.7623 55.5589 66.0916C55.7506 65.969 55.9789 65.9157 56.2055 65.9408C56.3292 65.9839 56.3942 66.1039 56.3509 66.3471C56.2933 66.6677 56.2551 66.9915 56.2364 67.3166C55.9765 71.7365 58.7113 75.1992 62.5815 76.8059C62.1078 79.2027 62.1967 81.6759 62.8413 84.0329C63.1754 85.1533 63.1507 85.1318 62.0586 85.5873C52.4573 89.5929 41.7528 90.1426 31.788 87.1418C21.8232 84.141 13.2218 77.7775 7.46473 69.1468C1.70765 60.5162 -0.844842 50.1586 0.246731 39.8573C1.3383 29.556 6.00563 19.9557 13.4451 12.7092C20.8846 5.46283 30.6307 1.0238 41.0054 0.156434C51.38 -0.710929 61.734 2.04766 70.2847 7.95724C78.8353 13.8668 85.0475 22.5576 87.8516 32.5332C90.6558 42.5088 89.8764 53.145 85.6477 62.6104C85.3847 63.2045 85.1743 63.7154 84.834 63.737C84.6082 63.7524 84.3267 63.4815 83.9585 63.186C82.5788 62.0687 80.6886 61.5916 78.8973 61.647C76.2059 61.7275 73.5956 62.5829 71.3829 64.1094C71.1911 62.8259 70.3898 61.6132 69.1616 60.7021C68.2509 60.0176 67.1817 59.572 66.0525 59.4063C64.2551 59.1878 64.0571 59.157 64.8615 57.9658C67.8757 53.5001 69.3027 48.1599 68.9155 42.7944C68.5283 37.429 66.3492 32.3464 62.7247 28.3548C59.1002 24.3633 54.2384 21.692 48.9125 20.7658C43.5865 19.8396 38.1022 20.7117 33.3317 23.2433C28.5612 25.7749 24.7784 29.8207 22.5848 34.7373C20.3913 39.654 19.9129 45.1591 21.2258 50.3774C22.5387 55.5956 25.5675 60.2273 29.8305 63.5359C34.0936 66.8446 39.3461 68.6401 44.7528 68.6371L44.7311 68.6217ZM55.1103 67.7445L54.8752 67.846C54.6122 67.9568 54.3524 68.0584 54.1822 68.123C53.8728 68.2492 53.5635 68.3693 53.2294 68.4801C52.2262 70.1552 51.0882 71.7466 49.8264 73.2386C51.037 73.7311 52.2559 74.1671 53.4831 74.5467C54.7422 74.9345 56.0075 75.2639 57.2697 75.5316L58.5628 75.7717V75.7871L58.9093 75.8456C58.1174 75.1845 57.4219 74.4168 56.8427 73.5648C55.6803 71.8468 55.0756 69.8152 55.1103 67.7445ZM59.8343 76.5566C59.2316 76.654 58.6144 76.6119 58.0307 76.4335C57.2975 78.0371 54.736 80.8627 53.449 82.1615C55.5341 83.0849 59.5744 84.6855 61.839 84.5316C61.1586 82.2355 60.9938 79.8187 61.3564 77.4523C60.8291 77.1909 60.3205 76.8937 59.8343 76.5628V76.5566ZM84.5649 62.2565C84.7748 62.0286 84.9172 61.7474 84.9763 61.4439L77.004 58.1751C77.1567 58.9959 77.2814 59.8167 77.3784 60.6375C77.871 60.5751 78.3667 60.5392 78.8633 60.5297C80.5768 60.4664 82.2744 60.8777 83.7667 61.7178C83.8441 61.764 84.4875 62.2072 84.5649 62.2534V62.2565ZM76.5926 60.7606C76.4936 59.9142 76.3605 59.0646 76.2028 58.2121C75.0674 58.9508 73.8794 59.6433 72.6513 60.2835C72.1563 60.5482 71.651 60.8016 71.1354 61.0438C71.4824 61.4606 71.7746 61.9199 72.0047 62.4104C73.4342 61.617 74.9836 61.0598 76.5926 60.7606ZM70.5723 60.4374C71.1519 60.1665 71.7232 59.8834 72.2862 59.5879C73.4494 58.9723 74.5755 58.3198 75.6614 57.6211L68.215 54.5585C68.082 54.8663 67.9396 55.1741 67.7942 55.4819C67.7942 55.4819 67.3147 56.8054 66.9002 57.1717C66.8489 57.2255 66.8117 57.2911 66.7919 57.3625C66.6063 57.6703 66.4145 57.9781 66.2196 58.2859C67.5227 58.4801 68.7563 58.9953 69.8082 59.7849C70.0767 59.9825 70.332 60.1974 70.5723 60.4282V60.4374ZM16.5511 11.2426H16.6006C17.2972 11.2406 17.9873 11.3755 18.6313 11.6396C19.2752 11.9037 19.8604 12.2918 20.3532 12.7816C21.0136 13.4541 21.4851 14.2873 21.7206 15.1978C21.931 14.3914 22.1661 13.588 22.4259 12.8001C22.3331 10.9718 22.2279 9.2789 21.1297 7.87536C19.5323 8.89194 18.0029 10.0106 16.5511 11.2242V11.2426ZM22.03 20.0579L22.0021 20.5442C23.6779 20.4303 25.3596 20.4303 27.0355 20.5442C27.5738 19.2391 28.1677 17.972 28.8174 16.7429C29.4671 15.5138 30.1601 14.3349 30.8963 13.2064C28.5494 12.7746 26.1677 12.5562 23.781 12.5538C22.9266 14.9891 22.3395 17.5092 22.03 20.0702V20.0579ZM21.9248 21.7815V21.8215H21.8629C21.7541 23.3645 21.7458 24.9129 21.8381 26.4569C23.0014 26.0229 24.1893 25.632 25.3989 25.2934C25.7392 24.093 26.1259 22.905 26.5652 21.7477C25.0194 21.6577 23.4693 21.668 21.9248 21.7784V21.7815ZM15.3415 21.6276C14.4074 21.3948 13.5529 20.9177 12.8666 20.2456C12.3744 19.7559 11.9843 19.1742 11.7188 18.534C11.4534 17.8938 11.3177 17.2077 11.3198 16.5151V16.4659C10.0984 17.9106 8.972 19.4322 7.94768 21.0213C9.37385 22.1355 11.1063 22.2217 12.9718 22.3202H12.9903C13.7699 22.0678 14.5578 21.84 15.3539 21.6368L15.3415 21.6276ZM16.613 12.4307C15.9419 12.4298 15.2809 12.5936 14.6887 12.9078C14.1071 13.4557 13.5379 14.021 12.981 14.6037C12.5676 15.3774 12.4139 16.2623 12.5425 17.1291C12.6711 17.9959 13.0752 18.799 13.6957 19.4207C14.6825 20.4026 16.0902 20.7012 17.7483 20.7596C17.4517 20.5739 17.1759 20.3572 16.9254 20.1133C16.3772 19.5678 15.9807 18.8901 15.7746 18.1465C15.5705 17.4009 15.5609 16.6159 15.7468 15.8657L15.8024 15.6379L16.0314 15.5825C16.7837 15.3943 17.5722 15.4034 18.3199 15.609C19.0677 15.8145 19.749 16.2094 20.2975 16.7552C20.5072 16.9653 20.6957 17.1951 20.8606 17.4416C20.7708 15.9026 20.4305 14.5483 19.5086 13.628C18.7361 12.8608 17.689 12.4302 16.5975 12.4307H16.613ZM19.1065 20.4919C19.6394 20.6384 20.1985 20.6647 20.743 20.5688C20.7647 20.3626 20.7894 20.1533 20.8141 19.9532C20.8185 19.1457 20.5567 18.3591 20.069 17.7137C19.5812 17.0683 18.8943 16.5997 18.1134 16.3797C17.5757 16.2297 17.0108 16.2034 16.4614 16.3028C16.3642 16.8497 16.3916 17.4114 16.5418 17.9464C16.7121 18.5554 17.0383 19.1101 17.4885 19.5562C17.9376 20.0038 18.4947 20.3291 19.1065 20.5011V20.4919ZM11.1063 22.9942C9.81005 22.8496 8.59116 22.5448 7.4991 21.7076C6.67159 23.0459 5.9177 24.4279 5.24074 25.8475C7.11357 24.7293 9.08023 23.7747 11.1187 22.9942H11.1063ZM23.0973 10.9902C22.9488 9.7252 22.6363 8.54943 21.8196 7.48446C23.139 6.67003 24.5022 5.92815 25.9032 5.26218C24.8037 7.08571 23.8619 8.99886 23.088 10.981L23.0973 10.9902ZM1.16022 40.8217L1.20044 40.7786C1.6934 40.289 2.27864 39.9011 2.92258 39.637C3.56653 39.3729 4.25653 39.2379 4.95303 39.2396C5.89789 39.2521 6.82324 39.5088 7.63831 39.9845C7.2083 39.2673 6.80922 38.5378 6.4287 37.793C5.0644 36.5618 3.78673 35.4414 2.01407 35.229C1.60856 37.074 1.32335 38.9432 1.16022 40.8247V40.8217ZM11.3105 43.2102C11.4249 43.3302 11.5301 43.4533 11.6415 43.5764C12.7425 42.3132 13.9291 41.1265 15.193 40.0245C14.6454 38.7256 14.1659 37.4052 13.7483 36.0816C13.3306 34.7581 12.9872 33.4377 12.7057 32.1172C10.7416 33.4642 8.90277 34.9836 7.21139 36.6572C8.33687 38.9799 9.7112 41.1749 11.3105 43.204V43.2102ZM12.4582 44.4875L12.4861 44.5183L12.4427 44.5675C13.4613 45.7353 14.5557 46.8355 15.7189 47.8609C16.2325 46.7313 16.7955 45.6171 17.408 44.5306C16.7893 43.4441 16.2294 42.3329 15.7158 41.2064C14.5602 42.2293 13.4721 43.3253 12.4582 44.4875ZM7.69709 49.0152C6.86885 49.5134 5.9209 49.7803 4.95303 49.7877C4.25648 49.7898 3.56638 49.6549 2.92238 49.3908C2.27839 49.1267 1.6932 48.7386 1.20044 48.2488L1.16641 48.2149C1.32783 50.0957 1.61305 51.9639 2.02025 53.8075C3.81766 53.589 5.1139 52.4348 6.49057 51.1882L6.50913 51.1697C6.88037 50.4433 7.27326 49.7262 7.69709 49.0152ZM2.04191 41.6281C1.5675 42.1008 1.21694 42.6821 1.02101 43.321C0.996257 44.1212 0.996257 44.9246 1.02101 45.7218C1.2808 46.5554 1.80215 47.2843 2.50865 47.8016C3.21514 48.319 4.06962 48.5976 4.94684 48.5966C6.34208 48.5966 7.55169 47.8178 8.76131 46.6913C8.42066 46.7716 8.07191 46.8129 7.72184 46.8144C6.94923 46.8147 6.18995 46.6141 5.51917 46.2327C4.84285 45.8534 4.27687 45.3062 3.87644 44.6445L3.75579 44.4413L3.87644 44.2382C4.2764 43.5798 4.84064 43.0354 5.51441 42.6579C6.18818 42.2804 6.94858 42.0826 7.72184 42.0836C8.01991 42.0837 8.31727 42.1125 8.60972 42.1698C7.46198 41.151 6.25236 40.4277 4.94684 40.4277C4.40605 40.4272 3.87048 40.5329 3.3709 40.7389C2.87132 40.9449 2.41757 41.2471 2.03572 41.6281H2.04191ZM9.54091 45.5617C10.0205 45.2886 10.4344 44.9147 10.7536 44.466C10.6206 44.3028 10.4907 44.1397 10.3607 43.9735C9.78839 43.4007 9.04315 43.0304 8.23912 42.9192C7.43509 42.8081 6.61659 42.9622 5.90897 43.3579C5.42423 43.6314 5.00679 44.0089 4.68698 44.4629C5.00581 44.9186 5.42341 45.2972 5.90897 45.5709C6.46366 45.8805 7.08896 46.043 7.72493 46.043C8.36091 46.043 8.98622 45.8805 9.54091 45.5709V45.5617ZM5.65529 52.958C4.63748 53.7706 3.56089 54.4077 2.1904 54.5862C2.55674 56.1137 3.00703 57.6201 3.53923 59.0985C4.0623 56.9939 4.77038 54.9392 5.65529 52.958ZM5.58723 36.0293C4.58798 35.2414 3.52996 34.6227 2.18422 34.4503C2.54451 32.9441 2.98651 31.4583 3.5083 29.9996C4.02774 32.0643 4.72217 34.0814 5.58413 36.0293H5.58723ZM11.2888 72.5491V72.4968C11.2871 71.8038 11.4228 71.1173 11.6882 70.4767C11.9537 69.836 12.3436 69.2537 12.8356 68.7633C13.5145 68.1101 14.3508 67.6416 15.2642 67.4028C14.4567 67.1997 13.6493 66.9657 12.8542 66.7041C11.0166 66.7964 9.31816 66.9011 7.90437 67.9938C8.92853 69.5829 10.0549 71.1046 11.2764 72.5491H11.2888ZM20.1459 67.0981L20.644 67.1258C20.5259 65.4577 20.5207 63.7836 20.6285 62.1149C19.3168 61.5793 18.0422 60.9884 16.8048 60.342C15.5673 59.7018 14.3887 59.0123 13.2533 58.2767C12.8193 60.6118 12.5998 62.9813 12.5974 65.356C15.0426 66.2075 17.5737 66.7916 20.1459 67.0981ZM21.8722 67.2027H21.9186V67.2674C23.4633 67.375 25.0133 67.3832 26.559 67.292C26.1198 66.1347 25.7269 64.9497 25.3897 63.7493C24.1769 63.4107 22.9921 63.0229 21.8258 62.5889C21.7369 64.1269 21.7472 65.6691 21.8567 67.2058L21.8722 67.2027ZM21.7051 73.7557C21.4755 74.6913 20.9955 75.5475 20.3161 76.2334C19.8233 76.7232 19.2381 77.1114 18.5941 77.3755C17.9501 77.6396 17.26 77.7745 16.5635 77.7724H16.5078C17.9601 78.9896 19.4906 80.1113 21.0895 81.1304C22.2063 79.7084 22.2991 77.9848 22.3919 76.1257V76.1011C22.1382 75.3254 21.9124 74.5406 21.7051 73.7495V73.7557ZM12.452 72.4937C12.4526 73.1618 12.6161 73.8198 12.9284 74.4113C13.4832 74.9899 14.0525 75.5563 14.6361 76.1103C15.4147 76.5189 16.3042 76.6691 17.1747 76.539C18.0452 76.4088 18.8511 76.0052 19.4746 75.387C20.4584 74.4051 20.7616 73.0016 20.8172 71.3549C20.3177 72.1626 19.5724 72.7909 18.6895 73.1484C17.8066 73.506 16.8321 73.5742 15.9076 73.3432L15.6787 73.2848L15.6168 73.057C15.4295 72.3091 15.4399 71.5257 15.6469 70.783C15.854 70.0403 16.2508 69.3636 16.7986 68.8186C17.0102 68.6096 17.2412 68.4211 17.4885 68.2554C15.9417 68.3416 14.5835 68.6801 13.6585 69.6035C13.2755 69.9821 12.9717 70.4324 12.7646 70.9285C12.5575 71.4246 12.4513 71.9566 12.452 72.4937ZM20.5543 70.0006C20.7016 69.4703 20.728 68.9141 20.6316 68.3724L20.0129 68.3016C19.667 68.298 19.3224 68.3425 18.9889 68.4339C18.1046 68.6837 17.3449 69.251 16.8569 70.0259C16.3688 70.8009 16.1871 71.7285 16.3469 72.6291C16.8952 72.7279 17.4587 72.7027 17.9958 72.5553C18.6079 72.3839 19.1655 72.0589 19.6151 71.6116C20.0647 71.1643 20.3913 70.6095 20.5636 70.0006H20.5543ZM23.0694 77.9571C22.9271 79.2498 22.6208 80.4594 21.7763 81.5521C23.138 82.3724 24.5424 83.1203 25.9836 83.7929C24.8571 81.9305 23.8965 79.9737 23.1127 77.9448L23.0694 77.9571ZM11.0475 66.03C9.78221 66.1778 8.59734 66.4887 7.52694 67.3043C6.71094 65.987 5.96737 64.6266 5.29952 63.2291C7.13265 64.3224 9.05552 65.2594 11.0475 66.03ZM41.0559 87.8465L41.0157 87.8065C40.5229 87.3165 40.1326 86.7344 39.8671 86.0936C39.6016 85.4528 39.4662 84.766 39.4688 84.0729C39.4802 83.1333 39.7394 82.213 40.2206 81.4044C39.4998 81.8291 38.7635 82.2293 38.0179 82.6048C36.7804 83.9621 35.6513 85.2333 35.4409 86.9939C37.2936 87.4016 39.1714 87.6864 41.0621 87.8465H41.0559ZM43.4565 77.7478L43.8278 77.4184C42.5431 76.3302 41.3357 75.1547 40.2144 73.9003C38.9058 74.4482 37.5817 74.9253 36.2483 75.3408C34.915 75.7563 33.594 76.0857 32.2637 76.3627C33.6172 78.3206 35.1477 80.1514 36.8361 81.8322C39.1701 80.7131 41.3753 79.3457 43.4132 77.7539L43.4565 77.7478ZM44.7064 76.612L44.7404 76.5843L44.7868 76.6243C45.9606 75.612 47.0664 74.5242 48.097 73.3679C46.9647 72.8569 45.8417 72.2967 44.7497 71.6873C43.6576 72.3029 42.5377 72.86 41.4055 73.374C42.4363 74.5213 43.5388 75.6027 44.7064 76.612ZM49.2571 81.349C49.7588 82.1726 50.0271 83.116 50.0336 84.0791C50.0355 84.7721 49.8999 85.4586 49.6344 86.0993C49.369 86.74 48.979 87.3223 48.4868 87.8127L48.4497 87.8496C50.3402 87.6884 52.218 87.4036 54.0708 86.997C53.8512 85.2087 52.6911 83.9191 51.4381 82.5494L51.4227 82.5309C50.6885 82.1615 49.9666 81.7676 49.2571 81.349ZM41.8324 86.9724C42.3088 87.4457 42.8938 87.7964 43.537 87.9943C44.3444 88.0158 45.1488 88.0127 45.95 87.9943C46.7905 87.736 47.5259 87.217 48.0486 86.5131C48.5713 85.8092 48.8538 84.9574 48.8549 84.0822C48.8549 82.6909 48.0723 81.4906 46.9369 80.2871C47.0189 80.6247 47.0605 80.9708 47.0606 81.3182C47.0623 82.088 46.8637 82.8452 46.4842 83.5162C46.1048 84.1871 45.5573 84.749 44.8951 85.1472L44.694 85.2703L44.4898 85.1472C43.8247 84.7508 43.2742 84.1898 42.8919 83.5188C42.5097 82.8477 42.3088 82.0895 42.3088 81.3182C42.3109 81.0217 42.3399 80.7261 42.3954 80.4348C41.3714 81.5829 40.6444 82.7802 40.6444 84.0822C40.6437 84.6195 40.7496 85.1517 40.9562 85.6482C41.1627 86.1447 41.4657 86.5958 41.8478 86.9755L41.8324 86.9724ZM45.783 79.5114C45.5113 79.0322 45.1349 78.6199 44.6816 78.3049C44.5177 78.4372 44.3506 78.5727 44.1866 78.6989C43.9441 78.9403 43.7359 79.2137 43.5679 79.5114C43.2568 80.0633 43.0934 80.6854 43.0934 81.3182C43.0934 81.9509 43.2568 82.5731 43.5679 83.1249C43.8405 83.609 44.2216 84.024 44.6816 84.3377C45.4358 83.8137 45.9665 83.0288 46.1702 82.1364C46.3738 81.244 46.2358 80.308 45.783 79.5114ZM53.2077 83.3804C54.0244 84.3931 54.6679 85.4611 54.8442 86.8216C56.3852 86.4604 57.9045 86.0134 59.395 85.4827C57.2754 84.9612 55.2052 84.2578 53.2077 83.3804ZM36.1927 83.442C35.4007 84.4392 34.7789 85.4919 34.6087 86.8277C33.0938 86.4703 31.5994 86.0316 30.1322 85.5134C32.2084 84.9974 34.236 84.3043 36.1927 83.442ZM88.2896 48.1995L88.2494 48.2364C87.7569 48.7265 87.1717 49.1148 86.5277 49.3789C85.8836 49.6431 85.1934 49.7778 84.4968 49.7754C83.5527 49.7621 82.6282 49.5043 81.8146 49.0275C82.2416 49.7457 82.6437 50.4772 83.0212 51.222C84.3855 52.4532 85.6631 53.5705 87.4389 53.786C87.8436 51.941 88.1278 50.0718 88.2896 48.1903V48.1995ZM78.1363 45.8049L77.8084 45.4386C76.7074 46.7028 75.5208 47.8906 74.2569 48.9936C74.8014 50.2946 75.2819 51.6078 75.6985 52.9334C76.1131 54.2507 76.4595 55.5743 76.7442 56.8947C78.7131 55.5503 80.5552 54.0307 82.2477 52.3547C81.1211 50.0329 79.7458 47.839 78.1456 45.811L78.1363 45.8049ZM77.0009 44.5244L76.9731 44.4967L77.0195 44.4475C75.9983 43.2801 74.903 42.179 73.7402 41.151C73.2236 42.2806 72.6606 43.3948 72.048 44.4844C72.6667 45.574 73.2236 46.6852 73.7433 47.8117C74.899 46.7866 75.9871 45.6886 77.0009 44.5244ZM81.7651 39.9999C82.7774 39.383 83.969 39.1235 85.1477 39.2631C86.3264 39.4027 87.4234 39.9333 88.2618 40.7693L88.2989 40.8094C88.1362 38.9287 87.851 37.0606 87.4451 35.2167C85.6508 35.4353 84.3514 36.5895 82.9717 37.8361H82.9531C82.585 38.5655 82.1859 39.2827 81.7682 39.9906L81.7651 39.9999ZM87.4172 47.3777C87.8935 46.9054 88.2461 46.3241 88.4443 45.6848C88.466 44.8846 88.466 44.0781 88.4443 43.284C88.1848 42.4478 87.6631 41.7162 86.9556 41.1961C86.2481 40.6761 85.3919 40.395 84.5123 40.3938C83.1171 40.3938 81.9105 41.1756 80.7009 42.2991C81.628 42.0798 82.6012 42.1603 83.4791 42.5289C84.357 42.8976 85.0939 43.5351 85.5827 44.349L85.7064 44.5491L85.5827 44.7522C85.1831 45.4133 84.6196 45.9612 83.9462 46.3435C83.2714 46.7228 82.5092 46.9211 81.7342 46.9191C81.4371 46.9201 81.1407 46.8913 80.8494 46.8329C82.0003 47.8548 83.2068 48.5781 84.5123 48.5781C85.0526 48.5784 85.5876 48.4725 86.0867 48.2665C86.5857 48.0605 87.0389 47.7585 87.4203 47.3777H87.4172ZM79.9213 43.4441C79.4404 43.7154 79.0262 44.0896 78.7086 44.5398L79.1015 45.0292C79.344 45.2721 79.6201 45.4794 79.9213 45.6448C80.4751 45.9555 81.1 46.1187 81.7358 46.1187C82.3715 46.1187 82.9964 45.9555 83.5502 45.6448C84.036 45.3727 84.4529 44.9937 84.7691 44.5368C84.2416 43.7885 83.4541 43.2613 82.5587 43.0572C81.6633 42.8531 80.7236 42.9866 79.9213 43.4318V43.4441ZM83.807 36.0447C84.8248 35.2321 85.9014 34.5919 87.2687 34.4134C86.9016 32.8854 86.4524 31.3782 85.923 29.898C85.3986 32.0072 84.6906 34.067 83.807 36.0539V36.0447ZM83.8719 52.9826C84.8743 53.7675 85.9323 54.3831 87.2749 54.5585C86.9142 56.0637 86.4722 57.5484 85.9508 59.0062C85.4323 56.9433 84.7378 54.9281 83.875 52.9826H83.8719ZM78.1611 16.469V16.5244C78.1643 17.2171 78.0292 17.9036 77.7636 18.5439C77.4981 19.1843 77.1074 19.7659 76.6142 20.2549C75.937 20.9111 75.0985 21.3791 74.1826 21.6122C74.9993 21.8215 75.8006 22.0524 76.5957 22.3171C78.4364 22.2217 80.1317 22.1201 81.5455 21.0274C80.5235 19.4366 79.3981 17.9139 78.1765 16.469H78.1611ZM69.2947 21.92L68.8028 21.8954C68.9173 23.5648 68.9173 25.24 68.8028 26.9094C70.1145 27.4429 71.387 28.0328 72.6203 28.6792C73.8578 29.3163 75.0396 30.0089 76.178 30.7445C76.6094 28.4091 76.8278 26.0397 76.8308 23.6652C74.3854 22.8138 71.8544 22.2287 69.2823 21.92H69.2947ZM67.556 21.8184H67.5189V21.7569C65.9672 21.646 64.4098 21.6368 62.8568 21.7292C63.2961 22.8906 63.6869 24.0736 64.0293 25.2781C65.2379 25.6146 66.4258 26.0003 67.5932 26.4354C67.6826 24.8973 67.6712 23.3551 67.5591 21.8184H67.556ZM67.7107 15.2686C67.9427 14.334 68.4224 13.4783 69.0998 12.7908C69.5935 12.3015 70.1793 11.9137 70.8237 11.6496C71.4681 11.3856 72.1585 11.2504 72.8555 11.2519H72.9111C71.4586 10.0359 69.9281 8.91526 68.3295 7.8969C67.2126 9.31584 67.1229 11.0395 67.027 12.8986V12.9232C67.2828 13.6988 67.5117 14.4837 67.7138 15.2778L67.7107 15.2686ZM76.97 16.5336C76.9698 15.8655 76.8063 15.2074 76.4936 14.6161C75.9429 14.0374 75.3706 13.468 74.7859 12.917C74.0084 12.5069 73.1193 12.3555 72.249 12.4851C71.3787 12.6147 70.5731 13.0185 69.9505 13.6373C68.9636 14.6222 68.6605 16.0227 68.6079 17.6694C69.1081 16.8624 69.8535 16.2347 70.7362 15.8772C71.6189 15.5197 72.593 15.451 73.5175 15.681L73.7464 15.7395L73.8052 15.9704C73.9915 16.7196 73.9809 17.504 73.7743 18.248C73.5681 18.9899 73.1715 19.6655 72.6234 20.2087C72.4139 20.4191 72.1827 20.6068 71.9335 20.7689C73.4804 20.6796 74.8416 20.3441 75.7666 19.4238C76.1486 19.0447 76.4516 18.5942 76.6581 18.0982C76.8647 17.6022 76.9706 17.0705 76.97 16.5336ZM68.8677 19.0268C68.7187 19.5567 68.6923 20.1134 68.7904 20.655L69.4091 20.7258C69.8993 20.7298 70.3854 20.6366 70.8391 20.4516C71.2927 20.2667 71.7047 19.9936 72.0511 19.6485C72.473 19.2293 72.7865 18.7147 72.9648 18.1486C73.1432 17.5826 73.181 16.982 73.0751 16.3982C72.1699 16.2392 71.2376 16.42 70.4586 16.9056C69.6797 17.3911 69.1095 18.147 68.8585 19.0268H68.8677ZM66.3557 11.0641C66.498 9.77445 66.8043 8.56482 67.6458 7.47523C66.3006 6.65292 64.9116 5.90388 63.4848 5.2314C64.609 7.08966 65.5695 9.04116 66.3557 11.0641ZM78.4209 22.9819C79.6862 22.8372 80.8711 22.5264 81.9415 21.7107C82.7546 23.0287 83.4981 24.3879 84.1689 25.7828C82.3351 24.6907 80.4124 23.7538 78.4209 22.9819ZM48.4435 1.15928L48.4806 1.19622C48.9726 1.68735 49.3625 2.27017 49.6279 2.91133C49.8933 3.5525 50.0291 4.23943 50.0274 4.93284C50.0152 5.8724 49.7561 6.79241 49.2757 7.60142C49.9996 7.17666 50.7328 6.77653 51.4815 6.40102C52.7189 5.04057 53.845 3.76938 54.0585 2.0088C52.2056 1.60256 50.3278 1.31877 48.4373 1.15928H48.4435ZM46.0428 11.2549L45.6716 11.5874C46.9402 12.6827 48.1348 13.86 49.2478 15.1116C50.5534 14.5699 51.8733 14.0918 53.2077 13.6773C54.5318 13.2648 55.8621 12.9232 57.1892 12.6431C55.8368 10.6871 54.3073 8.85837 52.6199 7.17974C50.288 8.29781 48.0848 9.6642 46.049 11.2549H46.0428ZM44.7497 12.3999L44.7218 12.4246L44.6723 12.3815C43.499 13.3985 42.3923 14.4893 41.3591 15.6472C42.4944 16.155 43.6143 16.7183 44.7064 17.3277C45.8046 16.7121 46.9214 16.152 48.0568 15.6379C47.0262 14.4883 45.9215 13.4067 44.7497 12.3999ZM40.2144 7.6599C39.7112 6.83787 39.4417 5.89532 39.4348 4.93284C39.4325 4.23933 39.568 3.5522 39.8334 2.91094C40.0989 2.26969 40.4891 1.68695 40.9816 1.19622L41.0187 1.16544C39.1293 1.32327 37.2524 1.60604 35.4007 2.01187C35.6172 3.79708 36.7805 5.08982 38.0334 6.46258V6.47797C38.7635 6.84733 39.4874 7.2413 40.1989 7.6599H40.2144ZM47.6237 2.03958C47.1501 1.56504 46.5654 1.21496 45.9222 1.02078C45.1178 0.996154 44.3135 0.996154 43.5091 1.02078C42.6679 1.27739 41.9319 1.79609 41.4094 2.50043C40.887 3.20476 40.6058 4.05747 40.6073 4.93284C40.6073 6.31792 41.39 7.52447 42.5223 8.72795C42.2679 7.63036 42.438 6.47772 42.9987 5.49919C43.3828 4.82743 43.9334 4.26475 44.5981 3.8648L44.7992 3.74476L45.0034 3.8648C45.6689 4.26466 46.2206 4.8273 46.6059 5.49919C46.987 6.16959 47.1873 6.92665 47.1875 7.69684C47.1863 7.99262 47.1552 8.28754 47.0947 8.57713C48.1187 7.43521 48.8488 6.23174 48.8488 4.93284C48.8508 4.39504 48.7451 3.86223 48.538 3.36548C48.3308 2.86873 48.0263 2.418 47.6422 2.03958H47.6237ZM43.6824 9.50359C43.9542 9.98179 44.3306 10.3931 44.7837 10.7071L45.2787 10.3162C45.6679 9.93784 45.9681 9.47844 46.1577 8.97096C46.3472 8.46348 46.4215 7.92053 46.375 7.38111C46.3286 6.8417 46.1626 6.31921 45.8891 5.8512C45.6156 5.38318 45.2412 4.98126 44.793 4.6743C44.0393 5.19925 43.5084 5.98394 43.3032 6.87622C43.098 7.7685 43.2331 8.7048 43.6824 9.50359ZM36.2576 5.63461C35.4409 4.62197 34.8005 3.55085 34.6211 2.1904C33.0842 2.55526 31.5682 3.00221 30.0796 3.5293C32.1997 4.05054 34.27 4.75498 36.2669 5.63461H36.2576ZM53.282 5.56998C54.0739 4.5758 54.6896 3.52007 54.8659 2.18424C56.3793 2.54455 57.8726 2.98428 59.3393 3.5016C57.2574 4.01733 55.2237 4.70931 53.2603 5.56998H53.282ZM36.7774 7.19513C35.092 8.87647 33.5656 10.7084 32.2173 12.6677C33.5435 12.9447 34.8717 13.2884 36.2019 13.6988C37.5353 14.1113 38.8594 14.5853 40.1649 15.1301C41.2784 13.8643 42.4762 12.6745 43.7504 11.5689C41.6035 9.84819 39.2635 8.3805 36.7774 7.19513ZM31.4903 13.7512C30.7912 14.8325 30.1343 15.9539 29.5197 17.1153C28.9226 18.248 28.3688 19.4146 27.8708 20.6119C29.8198 20.7789 31.7523 21.101 33.6497 21.5753C33.959 21.4275 34.2684 21.286 34.5778 21.1536L31.4903 13.7512ZM27.3881 21.8154C26.9757 22.8783 26.6096 23.9607 26.2899 25.0626C27.1747 24.8348 28.0687 24.6378 28.969 24.4655C29.9157 23.7331 30.9122 23.0666 31.9513 22.471C30.446 22.1547 28.9218 21.9357 27.3881 21.8154ZM26.0424 25.9429C25.897 26.4815 25.7609 27.0263 25.6402 27.5742C26.2808 26.8574 26.9625 26.1781 27.682 25.5397C27.1314 25.6628 26.5848 25.7972 26.0424 25.9429ZM24.5667 28.8515C24.7338 27.9589 24.9318 27.0694 25.1545 26.1922C24.0532 26.5144 22.9653 26.8796 21.8907 27.288C22.0176 28.8127 22.2408 30.328 22.559 31.8248C23.1561 30.7874 23.8271 29.7937 24.5667 28.8515ZM31.6233 12.1322C32.9313 10.2463 34.3989 8.47517 36.0101 6.83809C33.5751 5.74586 31.0228 4.93318 28.4029 4.41575L31.6233 12.1322ZM32.1802 13.4649C33.4465 13.7358 34.7087 14.0651 35.9668 14.4529C37.2043 14.8315 38.417 15.2686 39.6204 15.7549C38.365 17.2518 37.2272 18.8426 36.2174 20.5134C35.908 20.6273 35.577 20.7473 35.2615 20.8735L32.1802 13.4649ZM40.8331 16.2658C41.8788 16.7316 42.91 17.2385 43.9268 17.7863C43.1379 18.2511 42.38 18.7405 41.6158 19.2545C40.412 19.4006 39.2201 19.631 38.0488 19.944C38.8909 18.6579 39.8115 17.4244 40.8053 16.2504L40.8331 16.2658ZM44.6971 18.2203C45.1828 18.4973 45.6623 18.7867 46.1387 19.0822C45.1784 19.0298 44.2158 19.0298 43.2555 19.0822C43.7288 18.7744 44.2114 18.4943 44.6971 18.2173V18.2203ZM47.8062 19.2268C47.0514 18.7159 46.2821 18.2296 45.4983 17.7679C46.5089 17.2179 47.5401 16.705 48.592 16.2289C49.5901 17.4034 50.5118 18.6402 51.3515 19.9317C50.1914 19.621 49.0109 19.3917 47.8186 19.2453L47.8062 19.2268ZM30.9335 12.4153C28.6681 12.0045 26.3713 11.7893 24.0687 11.772C25.0098 9.28248 26.2324 6.90747 27.713 4.69277L30.9335 12.4153ZM12.5851 23.7299C12.5909 26.1048 12.8135 28.4743 13.2502 30.8091C14.3907 30.0704 15.5745 29.3779 16.8017 28.7315C18.0392 28.0882 19.3137 27.5003 20.6223 26.9555C20.5063 25.278 20.5063 23.5945 20.6223 21.9169C17.8799 22.2105 15.1807 22.8188 12.5789 23.7299H12.5851ZM13.507 32.0834C13.7761 33.3392 14.1102 34.5981 14.5 35.8508C14.8898 37.1035 15.326 38.2854 15.821 39.4858C17.3209 38.235 18.917 37.103 20.5945 36.1001C20.709 35.7923 20.8265 35.463 20.9534 35.149L13.507 32.0834ZM16.3346 40.6709C16.8048 41.7112 17.3121 42.7362 17.8814 43.7488C18.3454 42.967 18.8363 42.1996 19.354 41.4465C19.4983 40.262 19.7278 39.0894 20.0407 37.9376C18.7533 38.7719 17.5206 39.6869 16.35 40.677L16.3346 40.6709ZM18.333 44.5429C18.6135 45.0292 18.9064 45.5104 19.2116 45.9865C19.1544 45.027 19.1544 44.065 19.2116 43.1055C18.9023 43.5826 18.6208 44.0597 18.3392 44.5429H18.333ZM19.3694 47.6486C18.8497 46.8934 18.3568 46.125 17.8907 45.3432C17.3338 46.3497 16.8295 47.3777 16.3624 48.4211C17.5395 49.4135 18.7795 50.3295 20.0748 51.1636C19.7601 50.0118 19.5286 48.8392 19.3818 47.6547L19.3694 47.6486ZM12.483 30.8584C12.0698 28.6043 11.8483 26.3195 11.8209 24.0284C9.32408 24.9702 6.94314 26.1918 4.7241 27.6696L12.483 30.8584ZM13.8225 31.4093C14.9084 30.7106 16.0376 30.0519 17.2008 29.4425C18.364 28.8331 19.5148 28.2944 20.7182 27.7958C20.8795 29.7254 21.1919 31.6396 21.6525 33.5208C21.5071 33.8286 21.3679 34.1364 21.2318 34.4442L13.8225 31.4093ZM12.1983 31.5448C10.3057 32.8482 8.52859 34.3104 6.88656 35.9154C5.7838 33.4954 4.96177 30.9582 4.43639 28.3529L12.1983 31.5448ZM7.24852 52.4471C8.93292 54.1164 10.7656 55.6308 12.7243 56.9716C13.0068 55.6481 13.3523 54.3256 13.7606 53.0042C14.1752 51.6807 14.6547 50.3633 15.1961 49.0613C13.9266 47.9527 12.7329 46.7609 11.6229 45.494C9.89454 47.6337 8.41851 49.9635 7.22377 52.4378L7.24852 52.4471ZM13.8132 57.695C14.896 58.3906 16.0314 59.0462 17.1977 59.6556C18.364 60.265 19.5117 60.7975 20.7121 61.2992C20.8837 59.3581 21.2095 57.4335 21.6866 55.5435C21.535 55.2357 21.3958 54.9279 21.2627 54.6201L13.8132 57.695ZM21.9217 61.7763C22.9859 62.1795 24.0872 62.5458 25.1824 62.8659C24.9565 61.9856 24.7555 61.0961 24.5884 60.1973C23.8513 59.2576 23.1805 58.2682 22.5806 57.2363C22.2642 58.7342 22.0441 60.2506 21.9217 61.7763ZM26.0672 63.1152C26.6116 63.2568 27.1561 63.3922 27.7099 63.5154C26.9921 62.8717 26.3124 62.1873 25.6743 61.4654C25.7949 62.0133 25.931 62.5581 26.0764 63.0998L26.0672 63.1152ZM29.003 64.568C28.1059 64.4018 27.2087 64.2048 26.3239 63.977C26.6519 65.0789 27.021 66.1634 27.4315 67.2304C28.9651 67.1055 30.4893 66.8834 31.9946 66.5656C30.9515 65.9704 29.9519 65.3029 29.003 64.568ZM12.1983 57.5441C10.3022 56.2448 8.52198 54.7856 6.87728 53.1827C5.78177 55.6042 4.96501 58.1411 4.44258 60.7452L12.1983 57.5441ZM13.5379 56.9901C13.807 55.7343 14.1381 54.4754 14.5279 53.2227C14.9177 51.97 15.3477 50.785 15.8396 49.5877C17.3425 50.8402 18.9428 51.9723 20.6254 52.9734C20.7368 53.2812 20.8575 53.6136 20.9843 53.9276L13.5379 56.9901ZM12.483 58.2213C12.0721 60.4745 11.8548 62.7583 11.8333 65.0482C9.33078 64.1124 6.94359 62.8959 4.71791 61.4224L12.483 58.2213ZM23.8428 76.4766C26.2299 76.4686 28.6114 76.2461 30.9582 75.8117C30.2157 74.6821 29.5166 73.5002 28.8731 72.2783C28.2296 71.0563 27.6356 69.7821 27.0881 68.4801C25.402 68.5955 23.7099 68.5955 22.0238 68.4801C22.3191 71.2086 22.9306 73.894 23.8459 76.4827L23.8428 76.4766ZM32.239 75.5594C33.5043 75.2885 34.7696 74.9592 36.0256 74.5683C37.2816 74.1774 38.4727 73.7495 39.6792 73.254C38.4205 71.7629 37.2826 70.1748 36.2762 68.5047C35.9668 68.397 35.6327 68.2739 35.3141 68.1477L32.239 75.5594ZM40.8733 72.743C41.919 72.2813 42.9502 71.7745 43.967 71.2225C43.1843 70.7578 42.4202 70.2714 41.656 69.7574C40.4664 69.6131 39.2888 69.3837 38.1324 69.071C38.9683 70.353 39.887 71.5795 40.8826 72.743H40.8733ZM44.7682 70.7701C45.255 70.4889 45.7366 70.1996 46.213 69.9021C45.2506 69.956 44.2859 69.956 43.3235 69.9021C43.7999 70.2099 44.2825 70.49 44.7682 70.767V70.7701ZM47.8835 69.7482C47.1287 70.2632 46.3573 70.7526 45.5695 71.2164C46.5801 71.7683 47.6113 72.2752 48.6631 72.7369C49.6593 71.5655 50.579 70.3318 51.4165 69.0433C50.2566 69.3562 49.076 69.5876 47.8835 69.7359V69.7482ZM31.0046 76.5966C28.7361 77.0208 26.4354 77.2514 24.1274 77.2861C25.0696 79.7705 26.2944 82.1395 27.7779 84.3469L31.0046 76.5966ZM31.5522 75.2854C30.8499 74.2051 30.191 73.0878 29.5754 71.9243C28.9597 70.7608 28.4245 69.6251 27.9202 68.4278C29.8702 68.2545 31.8035 67.9293 33.7023 67.4551C34.0116 67.5998 34.321 67.7383 34.6304 67.8706L31.5522 75.2854ZM31.6914 76.9013C32.9999 78.7866 34.4697 80.5558 36.0844 82.1892C33.6444 83.2883 31.0857 84.1052 28.4585 84.6239L31.6914 76.9013ZM52.7003 81.826C54.3724 80.1444 55.8882 78.3158 57.2295 76.3627C55.9054 76.0857 54.5751 75.7471 53.2479 75.3316C51.9208 74.9161 50.5905 74.4451 49.2881 73.9034C48.1746 75.1683 46.9767 76.357 45.7025 77.4615C47.8497 79.1835 50.1908 80.6513 52.6787 81.8353L52.7003 81.826ZM75.9398 56.9593C75.6696 55.7035 75.3366 54.4477 74.9406 53.1919C74.5601 51.9608 74.1238 50.7604 73.6227 49.56C72.1259 50.8106 70.5329 51.9426 68.8585 52.9457C68.7409 53.2535 68.6203 53.5859 68.4934 53.906L75.9398 56.9593ZM73.1184 48.3534C72.6513 47.3192 72.1377 46.2912 71.5716 45.2755C71.1106 46.0542 70.6218 46.8144 70.1083 47.5716C69.9614 48.7579 69.7309 49.9325 69.4184 51.0866C70.7088 50.2547 71.9447 49.3417 73.1184 48.3534ZM71.1509 44.4875C70.8724 44.0073 70.5785 43.5272 70.2815 43.0593C70.3372 44.0127 70.3372 44.9685 70.2815 45.9218C70.5909 45.4478 70.8724 44.9707 71.1509 44.4875ZM70.1269 41.4096C70.6466 42.1585 71.1375 42.9239 71.5994 43.7057C72.1542 42.6961 72.6698 41.6702 73.1463 40.6278C71.9668 39.6393 70.7269 38.7245 69.4339 37.8884C69.7469 39.0459 69.9795 40.2234 70.13 41.4126L70.1269 41.4096ZM77.3072 57.5103C79.1943 56.2015 80.9642 54.733 82.5973 53.1211C83.7015 55.5417 84.5236 58.0801 85.0475 60.6867L77.3072 57.5103ZM82.257 36.611C80.5536 34.9308 78.7001 33.4081 76.7194 32.0618C76.4441 33.3823 76.1007 34.7058 75.6861 36.0262C75.2716 37.3467 74.7921 38.664 74.2476 39.9629C75.5207 41.071 76.7165 42.2639 77.8269 43.5333C79.557 41.3971 81.0331 39.0691 82.2261 36.5957L82.257 36.611ZM75.6305 31.3385C74.5477 30.6429 73.4185 29.9842 72.2491 29.3779C71.0797 28.7715 69.9412 28.2329 68.7347 27.7373C68.5652 29.6753 68.2414 31.5968 67.7664 33.4839C67.9118 33.7917 68.0572 34.0994 68.1902 34.4072L75.6305 31.3385ZM67.5313 27.2541C66.4609 26.8437 65.3709 26.4795 64.2613 26.1614C64.4902 27.0386 64.6882 27.9282 64.8615 28.8238C65.5986 29.7664 66.2704 30.7577 66.8723 31.791C67.1862 30.2937 67.4063 28.7785 67.5313 27.2541ZM63.3765 25.9183C62.8382 25.7736 62.2907 25.6413 61.7462 25.5181C62.462 26.1539 63.1416 26.8291 63.7818 27.5403C63.658 26.9955 63.525 26.4538 63.3765 25.9183ZM60.4623 24.4501C61.3564 24.6163 62.2473 24.8102 63.1259 25.038C62.8021 23.932 62.434 22.8475 62.0215 21.7846C60.4919 21.9092 58.9718 22.1312 57.4708 22.4494C58.513 23.0471 59.5125 23.7156 60.4623 24.4501ZM77.2608 31.4709C79.1623 32.7706 80.9478 34.2308 82.5973 35.8354C83.6971 33.4132 84.515 30.8738 85.0351 28.2667L77.2608 31.4709ZM75.9213 32.0218C75.6459 33.2807 75.318 34.5396 74.9282 35.7923C74.5384 37.045 74.1177 38.227 73.6258 39.4274C72.1246 38.1753 70.5264 37.0432 68.8461 36.0416C68.7316 35.7338 68.6141 35.4045 68.4872 35.0905L75.9213 32.0218ZM76.97 30.7907C77.3846 28.5359 77.603 26.2497 77.6228 23.9576C80.1255 24.8929 82.5127 26.1094 84.7381 27.5834L76.97 30.7907ZM65.6287 12.5292C63.2417 12.5352 60.8601 12.7567 58.5133 13.191C59.2527 14.3206 59.955 15.5025 60.5984 16.7244C61.2419 17.9464 61.8359 19.2176 62.3866 20.5226C64.0738 20.4088 65.7668 20.4088 67.4539 20.5226C67.1562 17.7945 66.5448 15.1094 65.6318 12.52L65.6287 12.5292ZM57.2295 13.4434C55.9672 13.7142 54.7019 14.0589 53.4459 14.4375C52.1899 14.8161 50.9988 15.2532 49.7954 15.7457C51.0507 17.2394 52.1884 18.8272 53.1984 20.4949C53.5078 20.6088 53.8388 20.7289 54.1575 20.852L57.2295 13.4434ZM58.4669 12.3938C60.7326 11.9747 63.0304 11.7512 65.3348 11.7259C64.3912 9.23568 63.1654 6.8606 61.6812 4.6466L58.4669 12.3938ZM57.9131 13.7296C58.6123 14.8069 59.2743 15.9273 59.89 17.0876C60.5056 18.248 61.0408 19.3869 61.5451 20.5842C59.5985 20.7619 57.6692 21.0933 55.7754 21.5753C55.4661 21.4306 55.1567 21.289 54.8473 21.1567L57.9131 13.7296ZM57.7739 12.1075C56.4621 10.2258 54.9925 8.45785 53.381 6.8227C55.8139 5.72474 58.3652 4.90785 60.9851 4.38805L57.7739 12.1075Z" fill="#555555"/>
<path fill-rule="evenodd" clip-rule="evenodd" d="M180.533 29.9609H185.26L196.936 65.1757L208.559 29.9609H213.292V70.1281H210.074V35.4151H209.982L198.452 70.1281H195.42L183.843 35.4151H183.751V70.1281H180.533V29.9609Z" fill="#555555"/>
<path fill-rule="evenodd" clip-rule="evenodd" d="M248.934 29.9609H252.145V66.8624H271.053V70.1281H248.934V29.9609Z" fill="#555555"/>
<path fill-rule="evenodd" clip-rule="evenodd" d="M273.877 29.9609H277.097V66.8624H296V70.1281H273.877V29.9609Z" fill="#555555"/>
<path d="M224.335 54.8643H237.381L230.971 34.9099L224.335 54.8643ZM229.347 31.2041H232.874L245.867 70.1247H242.464L238.427 58.0253H223.361L219.37 70.1247H215.967L229.347 31.2041Z" fill="#555555"/>
<path fill-rule="evenodd" clip-rule="evenodd" d="M90.4297 70.055H101.681L103.302 64.3116H114.857L116.382 70.055H127.983L114.758 29.8848H103.816L90.4297 70.055ZM105.749 55.7057L109.258 43.3323H109.36L112.62 55.7057H105.749Z" fill="#555555"/>
<path fill-rule="evenodd" clip-rule="evenodd" d="M130.465 70.0539H141.661V54.7504H156.167V45.1841H141.661V40.1824H158.561V29.8867H130.465V70.0539Z" fill="#555555"/>
<path d="M173.721 29.8848H162.525V70.055H173.721V29.8848Z" fill="#555555"/>
<path fill-rule="evenodd" clip-rule="evenodd" d="M29.9805 30.0488H36.3936V48.5503C30.3177 46.3004 30.1166 38.2054 29.9805 30.0488Z" fill="#191919" fill-opacity="0.8"/>
<path fill-rule="evenodd" clip-rule="evenodd" d="M41.5174 30.0488H47.9336C47.8748 37.5436 49.8393 43.0378 52.4194 47.9009C53.9074 43.2132 52.6359 35.7769 53.0629 30.0488H59.4729C59.9957 39.2827 57.7652 45.7894 53.0629 49.8277C54.3325 53.7451 54.9796 57.8357 54.9809 61.9517H48.5678C48.6358 54.2322 46.5724 48.6242 44.082 43.4471C42.5878 48.3472 43.8623 55.9928 43.4385 61.9517H37.0254C37.044 53.4627 37.6441 45.5555 43.4385 42.8069C42.2011 39.138 41.6256 34.8289 41.5174 30.0488Z" fill="#191919" fill-opacity="0.8"/>
<path fill-rule="evenodd" clip-rule="evenodd" d="M79.6678 86.6387C79.6678 86.9465 79.6832 87.1219 79.6832 87.1219C79.742 88.3531 80.5216 89.3658 82.2045 89.3658C83.4698 89.3658 84.4877 88.6917 85.2332 87.7652C85.4019 87.5558 85.5599 87.338 85.7066 87.1127C85.7653 88.3439 86.5449 89.3565 88.231 89.3565C89.4932 89.3565 90.5141 88.6825 91.2597 87.756C91.4081 87.5713 91.5381 87.3928 91.6587 87.2174C91.9959 88.4485 93.0137 89.3319 94.7524 89.3565C95.6778 89.3916 96.5811 89.0696 97.2737 88.4578L96.6178 90.0768C94.5482 90.0768 89.3818 90.3846 85.0847 91.6773C81.4249 92.7915 78.5293 94.5336 78.4705 97.1683C78.3901 101.043 81.7993 102.01 85.7715 101.991C90.2728 101.97 93.419 99.3845 95.5289 96.8328C96.8852 95.1616 98.0283 93.3296 98.9319 91.3787C100.107 91.3941 101.172 91.428 102.026 91.4372C103.114 91.4372 103.572 91.2833 103.606 90.0829C102.391 90.0829 101.076 90.0398 99.5321 90.0398C99.9755 88.981 100.388 87.8658 100.77 86.6941L103.925 76.7031C102.202 75.9675 101.076 76.5831 100.544 78.2144L98.4678 84.6011L98.3874 84.872C97.7687 86.2139 96.4229 87.6698 95.2443 87.7006C94.706 87.716 94.0718 86.9188 94.5606 85.0997L96.1569 80.135C96.9643 77.6049 95.7207 76.4846 94.2543 76.3891C94.0967 76.3784 93.9386 76.3784 93.781 76.3891H91.4081C91.6959 75.4904 91.9248 74.764 92.0423 74.3669H89.1745C89.0663 74.7332 88.8311 75.4688 88.5558 76.3799H86.2108L85.7777 77.7342H88.1196C87.2998 80.2889 86.2913 83.4038 86.0035 84.3118C85.8681 84.7554 85.783 85.2128 85.7499 85.6753L85.688 85.6291C85.3643 86.1648 84.9903 86.6687 84.5712 87.1342C84.1195 87.6144 83.6245 87.9745 83.1543 87.9776C82.0901 87.9776 82.1334 86.4571 82.6222 84.9581L84.169 80.1288C84.9765 77.5988 83.7328 76.4784 82.2602 76.383C81.5063 76.3397 80.7589 76.5429 80.1318 76.9616L79.9184 77.7527C81.8364 77.3495 81.9107 78.2667 81.2393 80.3289L80.9918 81.0892C79.8781 84.6165 77.2393 87.7498 73.7898 87.7683C67.2561 87.8083 67.1633 80.7537 69.0597 75.9644C71.5624 75.9305 75.2655 75.1641 78.3406 73.7821C80.3607 72.8741 82.1086 71.6953 83.0429 70.2887C85.4281 66.7121 82.8418 63.788 78.8232 63.8835C72.837 64.022 68.0666 68.7651 66.0031 74.173C58.6155 72.3263 59.3827 64.5637 64.4563 64.1913C65.3399 64.1403 66.2167 64.3714 66.959 64.8508C67.7013 65.3303 68.2704 66.0331 68.5832 66.8568C70.7797 64.3513 67.6551 61.8551 65.5762 61.6027C62.2784 61.2026 58.9991 63.2709 58.7702 67.1676C58.5753 70.5072 60.6759 74.1638 65.5205 75.395C63.5684 82.4158 66.031 89.4119 73.8734 89.3996C76.1812 89.3996 78.2261 88.1684 79.6554 86.6295L79.6678 86.6387ZM69.3597 74.8009C72.1561 74.6286 74.8976 73.9506 77.4496 72.8003C78.5386 72.2986 80.5433 71.1566 81.5487 69.5007C82.9161 67.2477 81.4497 65.6471 78.8263 66.1396C74.8695 66.8783 71.2159 70.5134 69.3597 74.8009ZM91.5474 85.8815C91.2652 86.3317 90.9421 86.7551 90.5821 87.1466C90.1336 87.6267 89.654 87.9868 89.1683 87.9899C88.1041 87.9899 88.1474 86.4694 88.6331 84.9704C88.9765 83.9086 90.0933 80.492 90.9719 77.7588H91.9C93.7933 77.7588 93.9944 77.9712 93.221 80.3351L91.7732 84.7642C91.6543 85.1248 91.5765 85.4975 91.5412 85.8754L91.5474 85.8815ZM96.0795 91.4157C94.3193 91.4711 89.3323 91.8897 85.5766 93.244C82.9749 94.1858 81.0475 95.6601 81.029 97.4361C81.0104 99.7877 83.0398 100.483 85.9015 100.419C90.7616 100.311 93.9944 95.5093 96.0795 91.4157ZM85.6354 73.2558C85.6929 73.5287 85.6885 73.8108 85.6227 74.0818C85.5569 74.3528 85.4312 74.6058 85.2549 74.8225C85.0917 75.0466 84.8773 75.2288 84.6293 75.3541C84.3813 75.4793 84.1068 75.544 83.8287 75.5427C83.4562 75.5621 83.0901 75.4411 82.8034 75.2038C82.5167 74.9664 82.3304 74.6302 82.2819 74.2623C82.2311 73.9899 82.2437 73.7095 82.3188 73.4428C82.3939 73.176 82.5294 72.9299 82.715 72.7233C82.8817 72.5043 83.0967 72.3264 83.3434 72.2031C83.5901 72.0798 83.862 72.0146 84.1381 72.0123C84.4961 71.9945 84.8478 72.1111 85.1234 72.3392C85.399 72.5672 85.5785 72.89 85.6261 73.2435" fill="#191919" fill-opacity="0.8"/>
</svg>
