<svg width="340" height="103" viewBox="0 0 340 103" fill="none" xmlns="http://www.w3.org/2000/svg">
<g clip-path="url(#clip0_2732_2448)">
<path d="M285.817 29.5684V46.7225C285.817 51.2367 285.667 54.8481 285.366 57.7071C285.065 60.5662 284.689 62.5976 284.087 63.9519C283.485 65.3061 282.807 65.9833 281.98 65.908C281.603 65.908 281.227 65.908 280.775 65.8328C280.324 65.7576 279.872 65.6823 279.496 65.6071V68.5413C279.872 68.6166 280.249 68.6918 280.55 68.7671C280.851 68.8423 281.152 68.8423 281.453 68.9175C281.754 68.9928 282.055 68.9928 282.356 68.9928C283.56 68.9928 284.613 68.6166 285.516 67.8642C286.42 67.1118 287.172 65.9833 287.774 64.4033C288.376 62.8233 288.828 60.7919 289.129 58.3091C289.43 55.8262 289.58 52.8167 289.58 49.2806V32.7283H304.706V68.3909H308.394V29.5684H285.817Z" fill="#555555"/>
<path fill-rule="evenodd" clip-rule="evenodd" d="M264.37 66.0589C272.949 66.0589 276.562 57.4818 276.562 48.98C276.562 40.4782 272.949 31.9011 264.37 31.9011C255.791 31.9011 252.179 40.4782 252.179 48.98C252.179 57.4818 255.791 66.0589 264.37 66.0589ZM264.37 28.8164C274.53 28.8164 279.647 38.4468 279.647 49.0553C279.647 59.6637 274.53 69.2941 264.37 69.2941C254.211 69.2189 249.094 59.5885 249.094 48.98C249.094 38.3716 254.211 28.8164 264.37 28.8164Z" fill="#555555"/>
<path fill-rule="evenodd" clip-rule="evenodd" d="M212.596 29.5684H217.186L228.399 63.5757L239.537 29.5684H244.127V68.3909H241.042V34.835H240.891L229.829 68.3909H226.969L215.832 34.835H215.681V68.3909H212.596V29.5684Z" fill="#555555"/>
<path d="M317.5 29.5684V46.7225C317.5 51.2367 317.35 54.8481 317.049 57.7071C316.748 60.5662 316.371 62.5976 315.769 63.9519C315.167 65.3061 314.49 65.9833 313.662 65.908C313.286 65.908 312.834 65.908 312.383 65.8328C311.931 65.7576 311.48 65.6823 311.104 65.6071V68.5413C311.48 68.6166 311.856 68.6918 312.157 68.7671C312.458 68.8423 312.759 68.8423 313.06 68.9175C313.361 68.9928 313.662 68.9928 313.963 68.9928C315.167 68.9928 316.221 68.6166 317.124 67.8642C318.027 67.1118 318.779 65.9833 319.382 64.4033C319.984 62.8233 320.435 60.7919 320.661 58.3091C320.962 55.8262 321.112 52.8167 321.112 49.2806V32.7283H336.239V68.3909H339.926V29.5684H317.5Z" fill="#555555"/>
<path fill-rule="evenodd" clip-rule="evenodd" d="M90.0059 68.4661H100.843L102.423 62.8985H113.561L114.99 68.4661H126.203L113.485 29.5684H102.95L90.0059 68.4661ZM104.756 54.5472L108.142 42.5844H108.217L111.378 54.5472H104.756Z" fill="#555555"/>
<path d="M195.813 29.6436L183.321 51.9138L183.923 41.9825V29.6436H173.086V68.3908H183.697L196.114 46.1958L195.587 56.0519V68.3908H206.348V29.6436H195.813Z" fill="#555555"/>
<path d="M152.994 43.0359H154.499C155.628 43.0359 156.606 43.2617 157.284 43.6378C158.036 44.0893 158.563 44.6159 158.864 45.4435C159.165 46.2711 159.391 47.2492 159.391 48.453C159.391 49.5816 159.24 50.5597 158.939 51.3873C158.638 52.2149 158.187 52.8168 157.585 53.2682C156.983 53.7197 156.155 53.9454 155.177 53.9454H152.994V43.0359ZM141.631 53.9454H139.448C138.47 53.9454 137.642 53.7197 137.04 53.2682C136.438 52.8168 135.987 52.1397 135.686 51.3873C135.385 50.5597 135.234 49.5816 135.234 48.453C135.234 47.2492 135.385 46.2711 135.686 45.4435C135.987 44.6159 136.513 44.014 137.266 43.6378C138.019 43.2617 138.922 43.0359 140.126 43.0359H141.631V53.9454ZM141.631 29.418V33.9322H138.997C136.438 33.9322 134.256 34.3084 132.45 35.0608C130.568 35.8131 129.063 36.8665 127.859 38.2207C126.655 39.575 125.752 41.0798 125.225 42.8855C124.623 44.6159 124.322 46.4969 124.322 48.5283C124.322 50.6349 124.623 52.5911 125.225 54.3215C125.827 56.052 126.655 57.632 127.859 58.911C129.063 60.1901 130.568 61.2434 132.374 61.9205C134.181 62.6729 136.363 62.9739 138.846 63.0491H141.631V68.3909H152.994V63.0491H155.779C158.262 63.0491 160.369 62.6729 162.251 61.9205C164.057 61.2434 165.562 60.1901 166.766 58.911C167.97 57.632 168.873 56.052 169.4 54.3215C170.002 52.5159 170.303 50.6349 170.303 48.5283C170.303 46.4969 170.002 44.6159 169.4 42.8855C168.798 41.155 167.97 39.575 166.766 38.2207C165.562 36.8665 164.057 35.8131 162.251 35.0608C160.444 34.3084 158.262 33.9322 155.703 33.9322H153.069V29.418H141.631Z" fill="#555555"/>
<path d="M102.196 13.0167H100.691C100.014 13.0167 99.7129 12.4901 99.7129 12.0386C99.7129 11.512 100.089 11.0605 100.691 11.0605H105.884C106.486 11.0605 106.862 11.512 106.862 12.0386C106.862 12.4901 106.561 13.0167 105.884 13.0167H104.379V20.089C104.379 20.7662 103.927 21.2176 103.325 21.2176C102.723 21.2176 102.272 20.8414 102.272 20.089V13.0167H102.196Z" fill="#555555"/>
<path d="M106.938 16.1015C106.938 13.1673 108.894 10.9102 111.829 10.9102C114.689 10.9102 116.721 13.2425 116.721 16.1015C116.721 19.0358 114.764 21.2929 111.829 21.2929C108.894 21.2929 106.938 18.9606 106.938 16.1015ZM114.463 16.1015C114.463 14.3711 113.56 12.8663 111.829 12.8663C110.098 12.8663 109.195 14.3711 109.195 16.1015C109.195 17.832 110.023 19.3367 111.829 19.3367C113.56 19.3367 114.463 17.7568 114.463 16.1015Z" fill="#555555"/>
<path d="M117.549 12.1139C117.549 11.4368 117.925 10.9854 118.678 10.9854H121.161C123.268 10.9854 124.773 12.3396 124.773 14.371C124.773 16.4024 123.193 17.7567 121.236 17.7567H119.656V20.0891C119.656 20.7662 119.204 21.2176 118.602 21.2176C118 21.2176 117.549 20.8415 117.549 20.0891V12.1139ZM119.656 15.8758H121.086C121.989 15.8758 122.516 15.1986 122.516 14.371C122.516 13.5434 121.914 12.8663 121.086 12.8663H119.656V15.8758Z" fill="#555555"/>
<path d="M125.375 12.1139C125.375 11.512 125.751 10.9854 126.504 10.9854H130.116C130.718 10.9854 131.094 11.4368 131.094 11.9634C131.094 12.4149 130.793 12.9415 130.116 12.9415H127.482V20.0138C127.482 20.691 127.031 21.1424 126.429 21.1424C125.827 21.1424 125.375 20.7662 125.375 20.0138V12.1139Z" fill="#555555"/>
<path d="M131.32 16.1015C131.32 13.1673 133.277 10.9102 136.212 10.9102C139.072 10.9102 141.103 13.2425 141.103 16.1015C141.103 19.0358 139.147 21.2929 136.212 21.2929C133.277 21.2929 131.32 18.9606 131.32 16.1015ZM138.846 16.1015C138.846 14.3711 137.943 12.8663 136.212 12.8663C134.481 12.8663 133.578 14.3711 133.578 16.1015C133.578 17.832 134.406 19.3367 136.212 19.3367C137.943 19.3367 138.846 17.7568 138.846 16.1015Z" fill="#555555"/>
<path d="M141.855 12.1139C141.855 11.4367 142.307 11.0605 142.984 11.0605H145.693C147.199 11.0605 148.327 12.0386 148.327 13.5434C148.327 14.5215 147.951 15.1986 147.048 15.65C148.252 15.8005 149.23 16.8538 149.23 18.0576C149.23 20.0138 147.876 21.1424 145.919 21.1424H142.984C142.307 21.1424 141.855 20.7662 141.855 20.089V12.1139ZM144.038 15.0481H145.167C145.844 15.0481 146.295 14.6719 146.295 13.9196C146.295 13.2424 145.769 12.9415 145.167 12.9415H144.038V15.0481ZM144.038 19.2614H145.693C146.446 19.2614 147.048 18.81 147.048 18.0576C147.048 17.3805 146.521 16.9291 145.543 16.9291H144.038V19.2614Z" fill="#555555"/>
<path d="M149.607 16.1015C149.607 13.1673 151.564 10.9102 154.499 10.9102C157.359 10.9102 159.391 13.2425 159.391 16.1015C159.391 19.0358 157.434 21.2929 154.499 21.2929C151.639 21.2929 149.607 18.9606 149.607 16.1015ZM157.133 16.1015C157.133 14.3711 156.23 12.8663 154.499 12.8663C152.768 12.8663 151.865 14.3711 151.865 16.1015C151.865 17.832 152.693 19.3367 154.499 19.3367C156.305 19.3367 157.133 17.7568 157.133 16.1015Z" fill="#555555"/>
<path d="M163.83 16.1016C164.357 16.1016 164.658 16.4777 164.658 17.0044C164.658 17.4558 164.357 17.9073 163.83 17.9073H160.82C160.293 17.9073 159.992 17.5311 159.992 17.0044C159.992 16.4777 160.293 16.1016 160.82 16.1016H163.83Z" fill="#555555"/>
<path d="M165.711 12.1139C165.711 11.4368 166.087 10.9854 166.84 10.9854H169.323C171.43 10.9854 172.935 12.3396 172.935 14.371C172.935 16.4024 171.355 17.7567 169.398 17.7567H167.818V20.0891C167.818 20.7662 167.367 21.2176 166.765 21.2176C166.162 21.2176 165.711 20.8415 165.711 20.0891V12.1139ZM167.818 15.8758H169.248C170.151 15.8758 170.678 15.1986 170.678 14.371C170.678 13.5434 170.076 12.8663 169.248 12.8663H167.818V15.8758Z" fill="#555555"/>
<path d="M175.947 12.0388C176.173 11.3616 176.775 10.835 177.452 10.835C178.204 10.835 178.731 11.3616 178.957 12.0388L181.741 19.713C181.817 19.9387 181.817 20.1644 181.817 20.2396C181.817 20.7663 181.365 21.1425 180.838 21.1425C180.236 21.1425 179.935 20.8415 179.785 20.3901L179.333 19.0358H175.42L174.968 20.3149C174.818 20.7663 174.517 21.0672 173.915 21.0672C173.313 21.0672 172.861 20.6158 172.861 20.0892C172.861 19.8635 172.937 19.713 172.937 19.6377L175.947 12.0388ZM176.097 17.1549H178.806L177.527 13.0921L176.097 17.1549Z" fill="#555555"/>
<path d="M183.02 18.5844C183.697 18.5844 184.149 19.3368 185.428 19.3368C186.181 19.3368 186.783 18.7349 186.783 18.0578C186.783 17.0044 186.03 16.854 185.353 16.7787C184.751 16.7035 184.224 16.553 184.224 15.8759C184.224 15.0483 184.901 15.0483 185.503 14.8225C185.955 14.6721 186.406 14.4464 186.406 13.7692C186.406 13.2426 186.03 12.7911 185.353 12.7911C184.375 12.7911 183.848 13.393 183.321 13.393C182.719 13.393 182.343 12.8664 182.343 12.3397C182.343 11.2111 184.375 10.835 185.503 10.835C187.535 10.835 188.514 11.9635 188.514 13.393C188.514 14.2959 188.137 15.1987 187.234 15.5749C188.363 15.8759 189.04 17.0044 189.04 18.133C189.04 19.8635 187.611 21.293 185.503 21.293C184.45 21.293 182.117 20.9168 182.117 19.6377C182.042 19.0358 182.418 18.5844 183.02 18.5844Z" fill="#555555"/>
<path d="M190.094 12.1139C190.094 11.4367 190.545 11.0605 191.223 11.0605H193.932C195.437 11.0605 196.566 12.0386 196.566 13.5434C196.566 14.5215 196.189 15.1986 195.286 15.65C196.49 15.8005 197.469 16.8538 197.469 18.0576C197.469 20.0138 196.114 21.1424 194.157 21.1424H191.223C190.545 21.1424 190.094 20.7662 190.094 20.089V12.1139ZM192.201 15.0481H193.33C194.007 15.0481 194.458 14.6719 194.458 13.9196C194.458 13.2424 193.932 12.9415 193.33 12.9415H192.201V15.0481ZM192.201 19.2614H193.856C194.609 19.2614 195.211 18.81 195.211 18.0576C195.211 17.3805 194.684 16.9291 193.706 16.9291H192.201V19.2614Z" fill="#555555"/>
<path d="M205.822 21.2176C205.22 21.2176 204.768 20.8414 204.768 20.089V12.9415H201.984V16.1015C201.984 17.6814 201.532 19.4871 200.403 20.4652C199.952 20.8414 199.425 21.2176 198.748 21.2176C198.071 21.2176 197.77 20.6909 197.77 20.2395C197.77 19.7128 197.995 19.4871 198.597 19.2614C199.199 18.9605 199.952 18.1329 199.952 16.5529V12.1891C199.952 11.512 200.403 11.0605 201.006 11.0605H205.897C206.499 11.0605 206.951 11.4367 206.951 12.1891V20.1643C206.875 20.7662 206.424 21.2176 205.822 21.2176Z" fill="#555555"/>
<path d="M208.154 12.2643C208.154 11.5872 208.531 11.0605 209.283 11.0605H212.82C213.497 11.0605 213.798 11.512 213.798 12.0386C213.798 12.4901 213.422 13.0167 212.82 13.0167H210.337V15.0481H212.67C213.347 15.0481 213.723 15.4996 213.723 16.0262C213.723 16.4776 213.347 17.0043 212.67 17.0043H210.337V19.1862H212.971C213.648 19.1862 213.949 19.6376 213.949 20.1643C213.949 20.6157 213.573 21.1424 212.971 21.1424H209.283C208.681 21.1424 208.23 20.6909 208.23 20.089V12.2643H208.154Z" fill="#555555"/>
<path d="M214.702 11.9635C214.702 11.3616 215.154 10.9102 215.756 10.9102C216.358 10.9102 216.809 11.2863 216.809 11.9635V15.0482L220.271 11.3616C220.422 11.2111 220.723 10.9854 221.099 10.9854C221.626 10.9854 222.152 11.3616 222.152 12.0387C222.152 12.4149 221.927 12.7159 221.475 13.1673L218.766 15.8006L222.002 19.1863C222.303 19.5625 222.604 19.8634 222.604 20.2396C222.604 20.9167 222.077 21.2177 221.475 21.2177C221.099 21.2177 220.798 20.992 220.422 20.5405L216.734 16.553V20.1644C216.734 20.691 216.283 21.2177 215.681 21.2177C215.078 21.2177 214.627 20.8415 214.627 20.1644V11.9635H214.702Z" fill="#555555"/>
<path d="M225.689 12.0388C225.915 11.3616 226.517 10.835 227.194 10.835C227.947 10.835 228.473 11.3616 228.699 12.0388L231.484 19.713C231.559 19.9387 231.559 20.1644 231.559 20.2396C231.559 20.7663 231.107 21.1425 230.58 21.1425C229.978 21.1425 229.677 20.8415 229.527 20.3901L229.075 19.0358H225.162L224.711 20.3149C224.56 20.7663 224.259 21.0672 223.657 21.0672C223.055 21.0672 222.604 20.6158 222.604 20.0892C222.604 19.8635 222.679 19.713 222.679 19.6377L225.689 12.0388ZM225.839 17.1549H228.549L227.269 13.0921L225.839 17.1549Z" fill="#555555"/>
<path d="M233.967 13.0167H232.387C231.709 13.0167 231.408 12.4901 231.408 12.0386C231.408 11.512 231.784 11.0605 232.387 11.0605H237.579C238.181 11.0605 238.557 11.512 238.557 12.0386C238.557 12.4901 238.256 13.0167 237.579 13.0167H236.074V20.089C236.074 20.7662 235.622 21.2176 235.02 21.2176C234.418 21.2176 233.967 20.8414 233.967 20.089V13.0167Z" fill="#555555"/>
<path d="M239.084 12.2643C239.084 11.5872 239.46 11.0605 240.213 11.0605H243.75C244.427 11.0605 244.728 11.512 244.728 12.0386C244.728 12.4901 244.352 13.0167 243.75 13.0167H241.266V15.0481H243.599C244.277 15.0481 244.653 15.4996 244.653 16.0262C244.653 16.4776 244.277 17.0043 243.599 17.0043H241.266V19.1862H243.9C244.578 19.1862 244.879 19.6376 244.879 20.1643C244.879 20.6157 244.502 21.1424 243.9 21.1424H240.213C239.611 21.1424 239.159 20.6909 239.159 20.089V12.2643H239.084Z" fill="#555555"/>
<path d="M253.232 21.2176C252.63 21.2176 252.178 20.8414 252.178 20.089V12.9415H249.394V16.1015C249.394 17.6814 248.942 19.4871 247.814 20.4652C247.362 20.8414 246.835 21.2176 246.158 21.2176C245.481 21.2176 245.18 20.6909 245.18 20.2395C245.18 19.7128 245.405 19.4871 246.007 19.2614C246.61 18.9605 247.287 18.1329 247.287 16.5529V12.1891C247.287 11.512 247.738 11.0605 248.34 11.0605H253.232C253.834 11.0605 254.285 11.4367 254.285 12.1891V20.1643C254.285 20.7662 253.834 21.2176 253.232 21.2176Z" fill="#555555"/>
<path d="M259.177 14.8977C261.209 14.8977 262.714 15.8758 262.714 17.9825C262.714 19.9386 261.359 21.1424 259.402 21.1424H256.693C256.016 21.1424 255.564 20.7663 255.564 20.0891V12.0387C255.564 11.3616 256.016 10.9102 256.618 10.9102C257.22 10.9102 257.672 11.2863 257.672 12.0387V14.8977H259.177ZM257.672 19.2615H259.101C259.854 19.2615 260.456 18.7348 260.456 17.9825C260.456 17.3053 259.929 16.7787 258.951 16.7787H257.672V19.2615Z" fill="#555555"/>
<path d="M263.467 12.0387C263.467 11.3616 263.918 10.9102 264.52 10.9102C265.122 10.9102 265.574 11.2863 265.574 12.0387V15.0482H270.014V12.0387C270.014 11.3616 270.465 10.9102 271.067 10.9102C271.67 10.9102 272.121 11.2863 272.121 12.0387V20.0891C272.121 20.7663 271.67 21.2177 271.067 21.2177C270.465 21.2177 270.014 20.8415 270.014 20.0891V17.0044H265.574V20.0891C265.574 20.7663 265.122 21.2177 264.52 21.2177C263.918 21.2177 263.467 20.8415 263.467 20.0891V12.0387Z" fill="#555555"/>
<path d="M277.013 14.8977C279.044 14.8977 280.55 15.8758 280.55 17.9825C280.55 19.9386 279.195 21.1424 277.238 21.1424H274.529C273.852 21.1424 273.4 20.7663 273.4 20.0891V12.0387C273.4 11.3616 273.852 10.9102 274.454 10.9102C275.056 10.9102 275.508 11.2863 275.508 12.0387V14.8977H277.013ZM275.508 19.2615H276.937C277.69 19.2615 278.292 18.7348 278.292 17.9825C278.292 17.3053 277.765 16.7787 276.787 16.7787H275.508V19.2615ZM282.732 10.9102C283.334 10.9102 283.786 11.2863 283.786 12.0387V20.0891C283.786 20.7663 283.334 21.2177 282.732 21.2177C282.13 21.2177 281.678 20.8415 281.678 20.0891V12.0387C281.678 11.3616 282.13 10.9102 282.732 10.9102Z" fill="#555555"/>
<path d="M292.665 21.2173C292.063 21.2173 291.612 20.8411 291.612 20.0887V14.8221L287.021 20.7659C286.795 21.0668 286.419 21.2173 286.118 21.2173C285.516 21.2173 285.064 20.8411 285.064 20.0887V12.0383C285.064 11.3612 285.516 10.9098 286.118 10.9098C286.72 10.9098 287.172 11.2859 287.172 12.0383V17.3802L291.762 11.3612C291.988 11.0602 292.364 10.9098 292.665 10.9098C293.267 10.9098 293.719 11.2859 293.719 12.0383V20.0887C293.719 20.7659 293.267 21.2173 292.665 21.2173ZM287.698 8.12598C288.677 8.12598 288.225 9.10406 289.429 9.10406C290.633 9.10406 290.257 8.12598 291.235 8.12598C291.612 8.12598 291.837 8.5774 291.837 8.95359C291.837 10.0069 290.558 10.4583 289.354 10.4583C288.3 10.4583 287.021 10.0821 287.021 8.95359C287.096 8.5774 287.247 8.12598 287.698 8.12598Z" fill="#555555"/>
<path d="M307.867 23.3996C307.264 23.3996 306.813 23.0234 306.813 22.271V21.0672H299.889C299.287 21.0672 298.836 20.691 298.836 19.9386V12.0387C298.836 11.3616 299.287 10.9102 299.889 10.9102C300.492 10.9102 300.943 11.2863 300.943 12.0387V19.1863H305.383V12.0387C305.383 11.3616 305.835 10.9102 306.437 10.9102C307.039 10.9102 307.49 11.2863 307.49 12.0387V19.1863H307.867C308.469 19.1863 308.92 19.5625 308.92 20.3148V22.271C308.92 23.0234 308.469 23.3996 307.867 23.3996Z" fill="#555555"/>
<path d="M309.447 12.2643C309.447 11.5872 309.824 11.0605 310.576 11.0605H314.113C314.79 11.0605 315.091 11.512 315.091 12.0386C315.091 12.4901 314.715 13.0167 314.113 13.0167H311.63V15.0481H313.963C314.64 15.0481 315.016 15.4996 315.016 16.0262C315.016 16.4776 314.64 17.0043 313.963 17.0043H311.63V19.1862H314.264C314.941 19.1862 315.242 19.6376 315.242 20.1643C315.242 20.6157 314.866 21.1424 314.264 21.1424H310.576C309.974 21.1424 309.523 20.6909 309.523 20.089V12.2643H309.447Z" fill="#555555"/>
<path d="M315.994 12.0387C315.994 11.3616 316.446 10.9102 317.048 10.9102C317.65 10.9102 318.101 11.2863 318.101 12.0387V15.0482H322.541V12.0387C322.541 11.3616 322.993 10.9102 323.595 10.9102C324.197 10.9102 324.648 11.2863 324.648 12.0387V20.0891C324.648 20.7663 324.197 21.2177 323.595 21.2177C322.993 21.2177 322.541 20.8415 322.541 20.0891V17.0044H318.101V20.0891C318.101 20.7663 317.65 21.2177 317.048 21.2177C316.446 21.2177 315.994 20.8415 315.994 20.0891V12.0387Z" fill="#555555"/>
<path d="M327.659 13.0167H326.154C325.477 13.0167 325.176 12.4901 325.176 12.0386C325.176 11.512 325.552 11.0605 326.154 11.0605H331.347C331.949 11.0605 332.325 11.512 332.325 12.0386C332.325 12.4901 332.024 13.0167 331.347 13.0167H329.842V20.089C329.842 20.7662 329.39 21.2176 328.788 21.2176C328.186 21.2176 327.734 20.8414 327.734 20.089V13.0167H327.659Z" fill="#555555"/>
<path d="M332.777 12.1139C332.777 11.4368 333.154 10.9854 333.906 10.9854H336.39C338.497 10.9854 340.002 12.3396 340.002 14.371C340.002 16.4024 338.421 17.7567 336.465 17.7567H334.884V20.0891C334.884 20.7662 334.433 21.2176 333.831 21.2176C333.229 21.2176 332.777 20.8415 332.777 20.0891V12.1139ZM334.884 15.8758H336.314C337.217 15.8758 337.744 15.1986 337.744 14.371C337.744 13.5434 337.142 12.8663 336.314 12.8663H334.884V15.8758Z" fill="#555555"/>
<path fill-rule="evenodd" clip-rule="evenodd" d="M36.1983 48.4537V30.0205H29.877C30.0275 38.1461 30.178 46.1965 36.1983 48.4537Z" fill="#555555"/>
<path fill-rule="evenodd" clip-rule="evenodd" d="M58.9998 30.0205H52.6785C52.2269 35.7386 53.5063 43.1118 52.0764 47.7765C49.5178 42.8861 47.5611 37.469 47.6364 30.0205H41.315C41.3903 34.7605 41.9923 39.049 43.1964 42.7356C37.477 45.4442 36.875 53.3441 36.875 61.7707H43.1964C43.6479 55.8269 42.3686 48.228 43.7984 43.3375C46.2818 48.4537 48.3137 54.0965 48.2384 61.7707H54.5598C54.5598 57.106 53.732 53.2689 52.6785 49.7327C57.3442 45.6699 59.5266 39.1995 58.9998 30.0205Z" fill="#555555"/>
<path fill-rule="evenodd" clip-rule="evenodd" d="M35.9717 86.8994C35.6707 86.8242 35.3696 86.7489 35.0686 86.7489C35.2191 85.7709 35.5954 85.0185 36.1222 84.1909C36.2727 83.3633 36.5737 82.5356 37.0252 81.7833C37.1757 81.5576 37.3263 81.3318 37.4768 81.1061C37.1757 81.2566 36.7995 81.4823 36.4985 81.6328C34.9181 79.9776 33.3378 78.1719 31.9832 76.1405C33.2625 75.8395 34.6171 75.5386 35.8964 75.0871C37.251 74.711 38.5303 74.1843 39.8097 73.6576C40.7127 74.711 41.691 75.689 42.7446 76.6671C42.9703 76.5919 43.1961 76.5167 43.3466 76.3662C43.5724 76.2909 43.7981 76.2157 44.0239 76.1405C42.9703 75.2376 41.9168 74.1843 41.0137 73.131C42.1425 72.6043 43.2714 72.0776 44.3249 71.4757C45.3785 72.0776 46.5073 72.6795 47.6361 73.131C46.7331 74.1091 45.83 75.0119 44.8517 75.9148C45.529 75.7643 46.2815 75.6138 46.9588 75.6138C47.5609 75.0119 48.2382 74.3348 48.7649 73.6576C48.7649 73.6576 48.8402 73.6576 48.8402 73.7329C49.066 73.0557 49.367 72.4538 49.8185 71.7767C50.3453 71.0243 51.0226 70.2719 51.8504 69.5948C52.1514 69.1434 52.3772 68.7672 52.6782 68.3158C52.9792 68.1653 53.2802 68.0901 53.6565 67.9396L53.807 68.3158C54.0328 68.1653 54.2585 68.0901 54.4843 67.9396L54.409 67.7139C54.7101 67.5634 55.0111 67.4129 55.3121 67.2625C55.4626 67.3377 55.6884 67.3377 55.8389 67.4129C56.5914 67.112 57.344 66.8863 58.1718 66.5853C57.7955 66.5101 57.344 66.4348 56.9677 66.3596C58.0212 65.7577 58.9996 65.0806 59.9026 64.4034C60.8057 64.253 61.7087 64.0272 62.5365 63.8015C62.3108 64.4787 62.1603 65.0806 61.9345 65.7577C62.2355 65.6825 62.5365 65.6825 62.8375 65.6072C63.0633 64.9301 63.2891 64.253 63.5148 63.5758C64.7189 63.2749 65.923 62.8234 67.0518 62.4473C67.1271 63.4253 67.1271 64.3282 67.0518 65.3063C67.4281 65.3063 67.8796 65.3063 68.2559 65.3063C68.2559 64.1777 68.2559 63.1244 68.1806 61.9958C69.4599 61.4692 70.7393 60.8673 71.9433 60.2654C73.1474 59.6635 74.3515 58.9111 75.4803 58.234C75.9318 60.6416 76.1576 62.9739 76.0823 65.3063H76.0071H79.243C80.6729 64.7044 82.0275 63.952 83.382 63.1996C83.081 63.8768 82.7047 64.5539 82.3285 65.231C82.5542 65.231 82.7047 65.231 82.9305 65.1558C83.1563 65.1558 83.382 65.1558 83.6078 65.0806C86.7685 59.1368 88.4241 52.6664 88.7251 46.1207C88.7251 45.5941 88.8004 44.9922 88.8004 44.4655C88.8004 44.2398 88.8004 44.0141 88.8004 43.7884C88.8004 43.6379 88.8004 43.4122 88.8004 43.2617C88.8004 42.4341 88.7251 41.6065 88.6498 40.8541C88.6498 40.7789 88.6498 40.6284 88.6498 40.5532C88.4993 38.597 88.1983 36.7161 87.822 34.9104V34.8351C87.5963 33.9323 87.3705 33.0294 87.1448 32.1266V32.0513C81.7264 13.5429 64.7189 0.0754504 44.5507 0.000213039C20.0177 -0.0750244 0.0752545 19.7877 0 44.315C0 57.4064 5.56884 69.1434 14.5994 77.269C14.7499 77.4195 14.9004 77.4947 14.9757 77.6452C15.3519 78.0214 15.8035 78.3976 16.1797 78.6985C16.4807 78.9242 16.7065 79.15 17.0075 79.3757C17.3085 79.6014 17.6096 79.8271 17.9106 80.0528C18.2116 80.2785 18.5879 80.5042 18.9641 80.8052C19.1899 80.9557 19.4157 81.1814 19.7167 81.3318C20.093 81.5576 20.4692 81.7833 20.8455 82.0842C21.0713 82.2347 21.297 82.3852 21.5228 82.5356C21.8991 82.7614 22.2753 82.9871 22.6516 83.2128C22.8774 83.3633 23.1031 83.5137 23.4042 83.589C23.7804 83.8147 24.1567 83.9652 24.533 84.1909C24.834 84.3413 25.0598 84.4918 25.3608 84.5671C25.7371 84.7175 26.1133 84.9432 26.4896 85.0937C26.7906 85.2442 27.0916 85.3947 27.3927 85.4699C27.7689 85.6204 28.0699 85.7709 28.4462 85.8461C28.7472 85.9966 29.1235 86.0718 29.4998 86.2223C29.8008 86.3727 30.1018 86.448 30.4781 86.5232C30.8544 86.6737 31.2306 86.7489 31.6069 86.8994C31.9079 86.9747 32.2089 87.0499 32.51 87.2004C32.8862 87.2756 33.2625 87.4261 33.6388 87.5013C33.9398 87.5766 34.2408 87.6518 34.6171 87.727C34.9934 87.8023 35.3696 87.8775 35.7459 87.9527C35.8964 87.9527 36.0469 88.028 36.1974 88.028C36.0469 87.6518 35.9717 87.2756 35.9717 86.8994ZM35.6707 74.3348C34.3913 74.711 33.1873 75.0119 31.9079 75.3129L34.9934 67.9396C35.2944 68.0901 35.5954 68.1653 35.9717 68.3158C36.0469 68.4663 36.1974 68.692 36.3479 68.8424C37.1757 70.2719 38.1541 71.551 39.2076 72.83C39.2829 72.9053 39.3581 72.9805 39.3581 73.0557C38.0788 73.5072 36.8747 73.9586 35.6707 74.3348ZM21.6733 66.9615C21.5981 66.4348 21.5981 65.9082 21.5981 65.3063C21.5981 64.3282 21.5981 63.3501 21.6733 62.2968C22.5764 62.5977 23.4794 62.8987 24.3825 63.1996C24.6082 63.2749 24.9093 63.3501 25.135 63.4253C25.2103 63.4253 25.2103 63.4253 25.2855 63.5006C25.5865 64.7044 26.0381 65.9082 26.4143 67.0367C24.9093 67.112 23.4042 67.112 21.8991 67.0367C21.8238 67.0367 21.7486 67.0367 21.6733 66.9615ZM21.7486 61.5444C21.8991 60.0397 22.1248 58.5349 22.4259 57.0302C23.0279 58.0835 23.7052 59.0616 24.3825 59.9644C24.533 60.8673 24.7587 61.7701 24.9845 62.5977C23.8557 62.2968 22.8021 61.9206 21.7486 61.5444ZM25.8123 62.8987C25.7371 62.673 25.7371 62.4473 25.6618 62.2215C25.5865 61.9206 25.5113 61.6196 25.436 61.2435C25.6618 61.5444 25.9628 61.7701 26.1886 61.9958C26.5649 62.372 26.9411 62.8234 27.3927 63.1996C27.3927 63.1996 27.3927 63.2749 27.4679 63.2749C26.9411 63.1244 26.3391 63.0492 25.8123 62.8987ZM28.7472 64.3282C29.6503 65.0053 30.5533 65.6825 31.5317 66.2091C31.6069 66.2091 31.6069 66.2844 31.6822 66.2844C30.1771 66.5853 28.672 66.811 27.1669 66.9615C26.7906 65.9834 26.4896 64.9301 26.1886 63.952C26.1886 63.8768 26.1133 63.8015 26.1133 63.7263C26.9411 63.952 27.8442 64.1777 28.7472 64.3282ZM24.9845 68.3158C25.5865 68.3158 26.1886 68.3158 26.8659 68.2405C27.3927 69.5196 27.9947 70.7986 28.5967 72.0024C28.8977 72.6043 29.1988 73.131 29.575 73.7329C29.575 73.7329 29.575 73.8081 29.6503 73.8081C30.0266 74.41 30.3276 74.9367 30.7039 75.5386C28.2957 75.99 25.9628 76.2157 23.6299 76.1405C22.8021 73.7329 22.2001 71.25 21.8991 68.6167C21.8991 68.4662 21.8991 68.3158 21.8991 68.1653C22.8774 68.3158 23.9309 68.3158 24.9845 68.3158ZM29.274 71.7015C28.672 70.5729 28.1452 69.4443 27.6184 68.2405C29.4998 68.0901 31.4564 67.7891 33.3378 67.2625C33.6388 67.4129 33.9398 67.5634 34.2408 67.7139L31.1554 75.0871C31.1554 75.0119 31.0801 75.0119 31.0801 74.9367C30.4781 73.8833 29.8761 72.83 29.274 71.7015ZM43.1961 71.1748C42.4436 71.551 41.6158 72.0024 40.8632 72.3034C40.7127 72.3786 40.5622 72.4538 40.4869 72.5291C39.6591 71.551 38.8313 70.4977 38.1541 69.3691C38.0035 69.2186 37.9283 69.0682 37.7778 68.8424C38.9066 69.1434 39.9602 69.3691 41.089 69.5196C41.1642 69.5196 41.2395 69.5196 41.2395 69.5196C41.3147 69.5196 41.3147 69.5948 41.39 69.5948C42.0673 70.0462 42.8198 70.5729 43.5724 70.9491C43.4219 71.0996 43.3466 71.1748 43.1961 71.1748ZM42.8951 69.7453C43.1961 69.7453 43.4971 69.7453 43.7981 69.7453C44.4754 69.7453 45.0775 69.7453 45.7548 69.7453C45.3032 70.0462 44.7765 70.3472 44.3249 70.5729C43.8734 70.3472 43.4219 70.0462 42.8951 69.7453ZM48.1629 72.6043C48.0877 72.6043 48.0877 72.5291 48.0124 72.5291C47.1093 72.1529 46.2063 71.7015 45.3785 71.1748C45.3032 71.0996 45.228 71.0996 45.1527 71.0243C45.9053 70.5729 46.7331 70.1215 47.4104 69.5948C48.3134 69.5196 49.1412 69.2939 50.0443 69.1434C50.3453 69.0682 50.6463 68.9929 50.9473 68.9177C50.1195 70.1967 49.1412 71.4005 48.1629 72.6043ZM62.9128 62.9739C62.386 63.1244 61.8592 63.2749 61.2572 63.3501C61.9345 62.7482 62.6118 62.0711 63.2891 61.3187C63.1386 61.9206 63.0633 62.4473 62.9128 62.9739ZM63.7406 62.7482C63.9664 61.8454 64.1921 61.0177 64.3426 60.1149C65.0952 59.2121 65.7725 58.234 66.3745 57.1806C66.6755 58.6854 66.9013 60.1901 67.0518 61.6949C65.923 62.0711 64.8694 62.4473 63.7406 62.7482ZM61.4077 61.4692C58.548 64.3282 55.1616 66.2844 51.5494 67.4129C51.2483 67.4882 50.9473 67.5634 50.6463 67.6386C50.27 67.7139 49.8938 67.8644 49.4422 67.9396C49.1412 68.0148 48.8402 68.0901 48.6144 68.0901C48.1629 68.1653 47.7114 68.2405 47.1846 68.3158C46.9588 68.3158 46.7331 68.391 46.5073 68.391C45.6795 68.4663 44.8517 68.4662 44.0239 68.4662C43.3466 68.4662 42.6693 68.391 41.992 68.391C41.6158 68.3158 41.2395 68.3158 40.788 68.2405C40.4117 68.1653 40.0354 68.1653 39.6591 68.0901C39.2076 68.0148 38.8313 67.8643 38.3798 67.7891C38.0788 67.7139 37.7025 67.6386 37.4015 67.5634C37.0252 67.4129 36.5737 67.2625 36.1974 67.112C35.8964 66.9615 35.5201 66.8863 35.2191 66.7358C34.8429 66.5853 34.4666 66.4348 34.0903 66.2091C33.714 66.0587 33.413 65.9082 33.0367 65.6825C32.6605 65.532 32.3595 65.3063 31.9832 65.0806C31.6822 64.8549 31.3059 64.7044 31.0049 64.4787C30.6286 64.253 30.2523 63.952 29.8761 63.6511C29.6503 63.4253 29.3493 63.2749 29.1235 63.0492C28.5215 62.5225 27.9194 61.9958 27.3927 61.4692C27.3174 61.3939 27.2421 61.3187 27.1669 61.1682C22.9526 56.8045 20.394 50.9359 20.394 44.3903C20.394 31.1485 31.2306 20.3895 44.4754 20.3895C55.7636 20.3895 65.1704 28.2142 67.7291 38.7475C68.0301 40.1017 68.2559 41.5313 68.3311 42.8855C68.3311 43.1112 68.3311 43.337 68.3311 43.5627C68.6321 49.9579 66.3745 56.5035 61.4077 61.4692ZM12.417 44.315C13.3953 43.1865 14.5241 42.0579 15.6529 41.0046C16.1797 42.1332 16.7065 43.2617 17.3085 44.315C16.7065 45.3684 16.1045 46.4969 15.6529 47.6255C14.4489 46.5722 13.3953 45.5188 12.417 44.315ZM19.0394 45.7446C18.7384 45.2931 18.4374 44.7665 18.2116 44.315C18.5126 43.8636 18.8136 43.337 19.0394 42.8855C19.0394 43.8636 19.0394 44.7665 19.0394 45.7446ZM19.1899 47.3998C19.3404 48.6036 19.5662 49.7321 19.8672 50.9359C18.5879 50.1083 17.3838 49.2055 16.1797 48.2274C16.6313 47.1741 17.158 46.196 17.6848 45.1427C18.2116 45.895 18.7384 46.6474 19.1899 47.3998ZM15.7282 49.3559C17.158 50.5597 18.7384 51.6883 20.4692 52.7416C20.5445 53.0426 20.695 53.3435 20.8455 53.7197L13.4706 56.7292C13.7716 55.4502 14.0726 54.2464 14.4489 52.9673C14.8251 51.7635 15.2014 50.5597 15.7282 49.3559ZM19.2652 41.2303C18.7384 41.9827 18.2869 42.7351 17.8353 43.4874C17.3085 42.5093 16.7818 41.456 16.3302 40.4027C17.4591 39.4246 18.7384 38.5218 20.0177 37.6942C19.6414 38.8979 19.4157 40.0265 19.2652 41.2303ZM15.7282 39.2741C15.2014 38.0703 14.8251 36.8665 14.4489 35.6627C14.0726 34.3837 13.7716 33.1799 13.4706 31.9009L20.8455 34.9856C20.695 35.2866 20.6197 35.5875 20.4692 35.9637C18.8136 36.9418 17.2333 38.0703 15.7282 39.2741ZM13.7716 31.2237C14.8251 30.5466 15.954 29.8695 17.158 29.2676C18.2869 28.6657 19.4157 28.139 20.6197 27.6123C20.7703 29.4933 21.0713 31.4494 21.5981 33.3304C21.4475 33.6313 21.297 33.9323 21.1465 34.2332L13.7716 31.2237ZM20.6197 20.54C20.394 20.54 20.1682 20.6153 20.0177 20.6153C19.6414 20.6153 19.3404 20.54 19.0394 20.4648C18.4374 20.3143 17.9106 20.0134 17.4591 19.4867C17.0075 19.0353 16.7065 18.4334 16.556 17.9067C16.4055 17.3801 16.4055 16.7782 16.4807 16.2515C17.0075 16.1763 17.6096 16.1763 18.1363 16.3267C18.7384 16.4772 19.2652 16.7782 19.7167 17.3048C20.1682 17.7562 20.4692 18.3581 20.6197 18.8848C20.695 19.4867 20.695 20.0134 20.6197 20.54ZM20.093 21.8191H20.5445C20.394 23.4743 20.394 25.1295 20.5445 26.7847C19.2652 27.3114 17.9858 27.9133 16.7818 28.5152C15.5777 29.1171 14.3736 29.8695 13.2448 30.5466C12.7933 28.139 12.5675 25.8066 12.6428 23.4743C15.0509 22.7219 17.5343 22.12 20.093 21.8191ZM12.718 31.9009C13.019 33.2551 13.3201 34.5342 13.7716 35.8885C14.1479 37.2427 14.6746 38.5218 15.2014 39.8008C13.9221 40.9294 12.718 42.0579 11.6645 43.337C9.9336 41.1551 8.50376 38.8227 7.29969 36.4151C8.80478 34.8351 10.6861 33.3304 12.718 31.9009ZM10.6861 44.3903C10.5356 44.5408 10.4604 44.6912 10.3099 44.8417C10.0841 45.0674 9.78309 45.2931 9.48207 45.4436C8.95529 45.7446 8.35325 45.895 7.67596 45.895C6.99867 45.895 6.39664 45.7446 5.86985 45.4436C5.41833 45.1427 4.9668 44.7665 4.66578 44.315C4.9668 43.8636 5.41833 43.4874 5.86985 43.1865C6.39664 42.8855 6.99867 42.7351 7.67596 42.7351C8.35325 42.7351 8.95529 42.8855 9.48207 43.1865C10.0089 43.5627 10.3851 43.9389 10.6861 44.3903ZM11.2882 45.6693C11.3634 45.5188 11.5139 45.4436 11.5892 45.2931C12.6428 46.5722 13.8468 47.7007 15.1262 48.8293C14.5994 50.1083 14.0726 51.4626 13.6963 52.7416C13.3201 54.0207 12.9438 55.3749 12.6428 56.654C10.6109 55.2997 8.80478 53.7197 7.22444 52.1397C8.278 49.8826 9.63258 47.7007 11.2882 45.6693ZM13.1695 58.0083C14.2984 58.7606 15.5024 59.4378 16.7065 60.1149C17.9106 60.792 19.1899 61.3939 20.4692 61.9206C20.3187 63.5758 20.3187 65.3063 20.4692 66.9615C20.2435 66.9615 20.0177 66.8863 19.7167 66.8863C17.2333 66.5853 14.8251 65.9834 12.4923 65.1558C12.4923 62.7482 12.718 60.4158 13.1695 58.0083ZM20.5445 68.2405C20.5445 68.4662 20.6197 68.692 20.6197 68.8424C20.6197 69.2186 20.5445 69.5196 20.4692 69.8205C20.3187 70.3472 20.0177 70.7986 19.7167 71.1748C19.6414 71.25 19.6414 71.3253 19.5662 71.4005C19.4909 71.4757 19.3404 71.551 19.2652 71.6262C18.8889 71.9272 18.4374 72.1529 17.9858 72.3034C17.6848 72.3786 17.4591 72.4538 17.158 72.4538H17.0828C16.857 72.4538 16.6313 72.4538 16.3302 72.3786C16.255 71.8519 16.255 71.25 16.4055 70.7234C16.556 70.1215 16.857 69.5948 17.3838 69.1434C17.8353 68.692 18.4374 68.391 18.9641 68.2405C19.4909 68.1653 20.0177 68.0901 20.5445 68.2405ZM20.5445 61.0177C19.3404 60.4911 18.2116 59.9644 17.0828 59.3625C15.954 58.7606 14.8251 58.0835 13.7716 57.4064L21.1465 54.3969C21.297 54.6978 21.4475 54.9988 21.5981 55.2997C20.996 57.1806 20.695 59.1368 20.5445 61.0177ZM63.6653 25.28C63.3643 24.0762 62.988 22.8724 62.5365 21.7438C64.0416 21.6686 65.622 21.6686 67.1271 21.8191V21.8943H67.2023C67.2776 23.399 67.3528 24.979 67.2023 26.4838C65.9982 26.0324 64.8694 25.6562 63.6653 25.28ZM67.1271 27.3114C66.9765 28.8161 66.7508 30.3209 66.4498 31.8256C65.8477 30.7723 65.1704 29.7942 64.4931 28.8914C64.3426 27.9885 64.1169 27.0857 63.8911 26.2581C64.9447 26.4838 66.0735 26.86 67.1271 27.3114ZM62.988 25.9571C63.1386 26.4838 63.2891 27.0104 63.3643 27.6123C62.7623 26.86 62.085 26.1828 61.3325 25.5809C61.9345 25.6562 62.4613 25.8066 62.988 25.9571ZM60.1284 24.4524C59.2253 23.7 58.1718 23.0229 57.1935 22.4962C58.6985 22.1952 60.2036 21.9695 61.7087 21.8191C62.085 22.8724 62.4613 24.0009 62.7623 25.0543C61.8592 24.8286 60.9562 24.6028 60.1284 24.4524ZM62.0097 20.54C61.483 19.261 60.8809 17.982 60.2789 16.7782C59.6768 15.5744 58.9243 14.3706 58.247 13.242C60.6552 12.7906 62.9881 12.5649 65.3209 12.6401C66.1487 15.0477 66.7508 17.6058 67.0518 20.1638C67.0518 20.3143 67.0518 20.4648 67.0518 20.6905C65.3962 20.4648 63.6653 20.4648 62.0097 20.54ZM59.6016 17.1543C60.2036 18.2829 60.7304 19.4867 61.2572 20.6153C59.3758 20.7657 57.4192 21.0667 55.5379 21.5933C55.2368 21.4429 54.9358 21.2924 54.6348 21.1419L57.7202 13.7687C58.3223 14.822 58.9996 15.9505 59.6016 17.1543ZM53.8823 20.841C53.5812 20.6905 53.2802 20.6153 52.9039 20.4648C51.9256 18.8096 50.7968 17.1543 49.5175 15.7248C50.7216 15.1982 51.9256 14.822 53.1297 14.4458C54.409 14.0696 55.6131 13.7687 56.8924 13.4677L53.8823 20.841ZM43.7229 17.7562C42.9703 18.2077 42.1425 18.7343 41.4653 19.1858C40.3364 19.3362 39.1324 19.5619 37.9283 19.8629C38.7561 18.5839 39.6591 17.3801 40.6375 16.1763C41.691 16.7029 42.6693 17.2296 43.7229 17.7562ZM41.1642 15.6496C42.2178 14.521 43.2714 13.3925 44.4754 12.4144L44.5507 12.3391C45.6795 13.3172 46.8083 14.4458 47.8619 15.5744C46.7331 16.101 45.6043 16.6277 44.5507 17.2296C43.4219 16.7029 42.2931 16.101 41.1642 15.6496ZM44.4754 18.2077C44.927 18.5086 45.4537 18.8096 45.9053 19.1105C44.927 19.0353 44.0239 19.0353 43.0456 19.1105C43.5724 18.7343 44.0239 18.5086 44.4754 18.2077ZM45.3032 17.7562C46.2815 17.2296 47.3351 16.7029 48.3887 16.2515C49.367 17.3801 50.27 18.6591 51.0978 19.9381C49.969 19.6372 48.7649 19.4115 47.6361 19.261C46.8083 18.7343 46.0558 18.2077 45.3032 17.7562ZM52.9792 13.6934C51.6246 14.0696 50.3453 14.5963 49.066 15.1229C47.9371 13.8439 46.7331 12.6401 45.529 11.5868C47.7114 9.85631 50.0443 8.4268 52.4524 7.223C54.0328 8.80299 55.6131 10.6839 56.9677 12.7153C55.6131 12.941 54.2585 13.3172 52.9792 13.6934ZM45.529 9.48013C45.228 9.93155 44.8517 10.383 44.4002 10.6839C44.2497 10.5335 44.0992 10.4582 43.9487 10.3077C43.7229 10.082 43.4971 9.78108 43.3466 9.48013C43.0456 8.95346 42.8951 8.35157 42.8951 7.67443C42.8951 6.99729 43.0456 6.39539 43.3466 5.86873C43.6476 5.41731 44.0239 4.96588 44.4754 4.66493C44.927 4.96588 45.3032 5.41731 45.6043 5.86873C45.9053 6.39539 46.0558 6.99729 46.0558 7.67443C45.9805 8.35157 45.83 8.95346 45.529 9.48013ZM43.1961 11.2858C43.3466 11.4363 43.4219 11.5115 43.5724 11.5868C42.2931 12.6401 41.1642 13.8439 40.0354 15.1229C38.7561 14.5963 37.4015 14.0696 36.1222 13.6934C34.8429 13.3172 33.4883 12.941 32.2089 12.6401C33.6388 10.6087 35.1439 8.80299 36.7242 7.223C38.9819 8.27633 41.1642 9.6306 43.1961 11.2858ZM35.8212 14.3706C37.0252 14.7467 38.2293 15.1982 39.4334 15.6496C38.2293 17.1543 37.0252 18.7343 36.0469 20.3895C35.7459 20.54 35.4449 20.6153 35.0686 20.7657L32.0584 13.3925C33.3378 13.6934 34.6171 13.9944 35.8212 14.3706ZM34.4666 21.0667C34.1656 21.2172 33.8645 21.3676 33.5635 21.5181C31.6822 21.0667 29.7255 20.6905 27.8442 20.54C28.371 19.3362 28.8977 18.2077 29.4998 17.0791C30.1018 15.9505 30.7791 14.822 31.4564 13.7687L34.4666 21.0667ZM26.1886 24.979C26.4896 23.8505 26.8659 22.7971 27.3174 21.7438C28.8225 21.8943 30.3276 22.12 31.8327 22.421C30.7791 23.0229 29.8008 23.7 28.8977 24.3771C27.9194 24.5276 27.0916 24.7533 26.1886 24.979ZM27.5432 25.4305C26.7906 26.0324 26.1133 26.7095 25.5113 27.4619C25.6618 26.9352 25.7371 26.4085 25.8876 25.8066C26.4896 25.6562 27.0164 25.5809 27.5432 25.4305ZM28.7472 16.7029C28.0699 17.9067 27.4679 19.1858 26.9411 20.4648C25.2855 20.3895 23.5547 20.3143 21.8991 20.4648C22.2001 17.7562 22.8021 15.0477 23.7052 12.4896C25.9628 12.4896 28.371 12.7153 30.7791 13.1668C30.1018 14.2953 29.3493 15.4239 28.7472 16.7029ZM26.4896 21.6686C26.0381 22.7971 25.6618 24.0009 25.2855 25.2047C24.0815 25.5057 22.8774 25.9571 21.7486 26.3333C21.6733 24.8286 21.6733 23.2486 21.8238 21.7438V21.6686C23.4042 21.5933 24.9093 21.5933 26.4896 21.6686ZM25.0598 26.0324C24.834 26.9352 24.6082 27.7628 24.4577 28.6657C23.7052 29.5685 23.0279 30.6218 22.4259 31.5999C22.1248 30.0952 21.8991 28.5904 21.7486 27.0857C22.8774 26.7847 23.9309 26.4085 25.0598 26.0324ZM81.6512 36.6408C81.1244 37.7694 80.5224 38.8227 79.8451 39.876C79.8451 39.9513 79.7698 39.9513 79.7698 40.0265C79.4688 40.5532 79.0925 41.0798 78.7162 41.6065C78.7162 41.6065 78.7162 41.6065 78.7162 41.6817C78.34 42.2084 77.9637 42.7351 77.5874 43.2617C77.5122 43.4122 77.3617 43.4874 77.2864 43.6379C77.1359 43.4122 76.9101 43.2617 76.7596 43.036C75.8566 41.9827 74.8783 41.0046 73.7495 40.1017C73.9752 39.5751 74.201 38.9732 74.4267 38.4465C74.6525 37.8446 74.8783 37.1675 75.104 36.5656C75.1793 36.4151 75.1793 36.3399 75.2545 36.1894C75.7061 34.8351 76.0071 33.5561 76.3081 32.2018C77.4369 33.0294 78.4905 33.857 79.544 34.6847C80.2213 35.2866 80.9739 35.9637 81.6512 36.6408ZM82.6295 45.6693C82.178 45.895 81.6512 46.0455 81.1244 46.0455C80.4471 46.0455 79.8451 45.895 79.3183 45.5941C79.243 45.5188 79.1678 45.4436 79.0925 45.3684C78.942 45.2179 78.7163 45.1427 78.5657 44.9922L78.4905 44.9169C78.34 44.7665 78.2647 44.6912 78.1142 44.5408C78.1142 44.4655 78.1895 44.4655 78.1895 44.3903C78.2647 44.2398 78.4152 44.1646 78.4905 44.0141C78.7163 43.7884 79.0173 43.5627 79.3183 43.4122C79.8451 43.1112 80.4471 42.9608 81.1244 42.9608C81.8017 42.9608 82.4037 43.1112 82.9305 43.4122C83.382 43.7131 83.8336 44.0893 84.1346 44.5408C83.8336 44.9922 83.382 45.3684 82.9305 45.6693C82.8552 45.5941 82.7047 45.5941 82.6295 45.6693ZM75.9318 45.0674C75.0288 46.0455 74.1257 46.9484 73.1474 47.8512C72.6959 46.7979 72.1691 45.7446 71.5671 44.7665C71.4918 44.6912 71.4918 44.616 71.4166 44.5408C72.0186 43.4874 72.6206 42.3589 73.0722 41.2303C74.201 42.2836 75.3298 43.337 76.3081 44.5408L76.3834 44.616C76.3081 44.6912 76.1576 44.9169 75.9318 45.0674ZM70.5135 44.616C70.2877 45.0674 69.9867 45.5188 69.6857 45.895C69.761 45.1427 69.761 44.3903 69.6857 43.6379C69.6857 43.4122 69.6857 43.2617 69.6857 43.036C69.9867 43.4874 70.2877 43.9389 70.5135 44.4655C70.5888 44.5408 70.5888 44.5408 70.5135 44.616ZM69.6105 41.3808C69.4599 40.177 69.2342 39.0484 68.9332 37.8446C69.0084 37.9199 69.1589 37.9951 69.2342 38.0703C70.2877 38.7475 71.2661 39.4999 72.1691 40.2522C72.3196 40.4027 72.4701 40.4779 72.6206 40.6284C72.5454 40.7036 72.5454 40.7789 72.4701 40.9294C72.0186 41.8322 71.5671 42.8103 71.1155 43.7131C70.5888 42.8855 70.1372 42.1332 69.6105 41.3808ZM68.4064 36.0389C68.2559 35.738 68.1806 35.437 68.0301 35.0608L75.4051 32.0513C75.104 33.3304 74.803 34.5342 74.4267 35.8132C74.3515 36.0389 74.2762 36.1894 74.201 36.4151C74.0505 36.9418 73.8247 37.3932 73.6742 37.9199C73.5989 38.0703 73.5237 38.2208 73.5237 38.3713C73.3732 38.7475 73.2227 39.1237 73.0722 39.4246C71.6423 38.2208 70.062 37.0923 68.4064 36.0389ZM69.6105 47.5503C70.1372 46.7979 70.5888 46.0455 71.0403 45.2931C71.5671 46.2712 72.0938 47.3245 72.5454 48.3779C71.4166 49.356 70.1372 50.2588 68.8579 51.0864C69.2342 49.8826 69.4599 48.7541 69.6105 47.5503ZM75.7061 30.7723C74.5772 30.0199 73.3732 29.3428 72.1691 28.6657C70.965 27.9885 69.6857 27.3866 68.4064 26.86C68.5569 25.2047 68.5569 23.4743 68.4064 21.8191C71.1155 22.12 73.8247 22.7219 76.3834 23.6248C76.3834 26.0324 76.1576 28.44 75.7061 30.7723ZM68.2559 20.6153C68.2559 20.3895 68.1806 20.1638 68.1806 20.0134C68.1806 19.6372 68.2559 19.3362 68.3311 19.0353C68.4816 18.4334 68.7826 17.9067 69.3094 17.4553C69.761 17.0039 70.363 16.7029 70.8898 16.5524C71.4166 16.402 72.0186 16.402 72.5454 16.4772C72.6206 17.0039 72.6206 17.6058 72.4701 18.1324C72.2444 18.5839 71.9433 19.1105 71.4918 19.5619C71.0403 20.0134 70.4383 20.3143 69.9115 20.4648C69.3847 20.6905 68.7826 20.6905 68.2559 20.6153ZM68.3311 27.7628C69.5352 28.2895 70.664 28.8161 71.7928 29.418C72.9217 30.0199 74.0505 30.6971 75.104 31.3742L67.7291 34.3837C67.5786 34.0828 67.4281 33.7818 67.2776 33.4809C67.8043 31.5999 68.1054 29.719 68.3311 27.7628ZM71.7176 59.5882C70.5888 60.1901 69.3847 60.7168 68.2559 61.2435C68.1054 59.3625 67.8043 57.4064 67.2776 55.5254C67.4281 55.2245 67.5786 54.9235 67.7291 54.6226L75.104 57.7073C73.9752 58.3092 72.8464 58.9111 71.7176 59.5882ZM67.9549 53.8702C68.1054 53.5692 68.1806 53.2683 68.3311 52.8921C69.9867 51.914 71.5671 50.7855 73.0722 49.5064C73.5237 50.7102 73.9752 51.914 74.3515 53.1178C74.7278 54.3969 75.0288 55.6007 75.3298 56.8797L67.9549 53.8702ZM76.1576 56.8797C75.8566 55.5254 75.5556 54.2464 75.104 52.9673C74.7278 51.6131 74.201 50.334 73.6742 49.055C74.9535 47.9264 76.1576 46.7979 77.2112 45.5188C78.942 47.7007 80.3718 50.0331 81.5759 52.4407C79.9956 54.0207 78.1895 55.5254 76.1576 56.8797ZM76.9854 65.0053C76.9854 62.8234 76.7596 60.4911 76.3834 58.234L84.0593 61.4692C81.8769 62.8234 79.4688 64.0272 76.9854 65.0053ZM76.6844 57.4816C78.641 56.1273 80.3718 54.6978 81.9522 53.1178C83.0058 55.5254 83.8336 58.0835 84.3603 60.6416L76.6844 57.4816ZM85.2634 59.0616C84.7366 56.9549 84.0593 54.9235 83.1563 52.8921C84.2098 53.7197 85.2634 54.3216 86.618 54.5473C86.2417 56.0521 85.7902 57.5568 85.2634 59.0616ZM86.7685 53.795C84.9624 53.5692 83.6831 52.4407 82.3285 51.1616C81.9522 50.4093 81.5759 49.7321 81.1244 48.9798C81.9522 49.4312 82.8553 49.7321 83.8336 49.7321C85.2634 49.7321 86.618 49.1302 87.5963 48.2274C87.4458 50.0331 87.22 51.914 86.7685 53.795ZM87.822 43.337C87.822 43.8636 87.822 44.315 87.822 44.8417C87.822 45.1427 87.822 45.4436 87.822 45.7446C87.7468 45.895 87.6715 45.9703 87.6715 46.1207C87.4458 46.6474 87.22 47.0988 86.8437 47.475C86.0912 48.2274 85.1129 48.6788 83.9841 48.6788C82.6295 48.6788 81.4254 47.9264 80.2213 46.7979C80.5224 46.8731 80.8986 46.9484 81.2749 46.9484C82.1027 46.9484 82.78 46.7226 83.4573 46.3465C83.9088 46.1207 84.2098 45.8198 84.5861 45.4436C84.7366 45.2931 84.8871 45.0674 85.0376 44.9169C85.0376 44.8417 85.1129 44.8417 85.1129 44.8417L85.2634 44.616L85.1129 44.3903C84.7366 43.7131 84.1346 43.1865 83.4573 42.8103C83.3068 42.7351 83.1563 42.6598 83.0058 42.5846C83.0058 42.5846 82.9305 42.5846 82.9305 42.5093C82.4037 42.2836 81.8769 42.2084 81.2749 42.2084C80.9739 42.2084 80.6729 42.2084 80.3718 42.2836C81.5007 41.3055 82.7047 40.5532 83.9841 40.5532C85.1129 40.5532 86.1665 41.0046 86.8437 41.757C87.22 42.0579 87.5963 42.6598 87.822 43.337ZM87.6715 40.7789C86.6932 39.8008 85.3387 39.1989 83.9088 39.1989C82.9305 39.1989 82.1027 39.4998 81.2749 39.9513C81.7264 39.2741 82.1027 38.5218 82.479 37.7694C83.8336 36.5656 85.1129 35.437 86.8437 35.2113C87.22 37.0923 87.521 38.898 87.6715 40.7789ZM84.5108 32.879C84.8119 31.9009 85.1129 30.998 85.3387 30.0199C85.6397 30.7723 85.8654 31.5999 86.0912 32.3523C86.317 33.0294 86.4675 33.7818 86.618 34.4589C85.2634 34.6094 84.2851 35.2113 83.2315 36.0389C83.6078 35.1361 83.9841 34.3085 84.2851 33.4056C84.3603 33.1799 84.4356 33.1047 84.5108 32.879C84.5108 32.9542 84.5108 32.879 84.5108 32.879ZM83.0058 33.4056C82.7047 34.2332 82.4037 34.9856 82.0275 35.738C82.0275 35.8132 81.9522 35.8132 81.9522 35.8885C80.3718 34.3085 78.641 32.879 76.6844 31.5247L84.3603 28.3647C84.1346 30.0952 83.6078 31.7504 83.0058 33.4056ZM76.4586 30.8475C76.9101 28.5152 77.1359 26.2581 77.1359 24.0762C79.6193 25.0543 81.9522 26.2581 84.2098 27.6876L76.4586 30.8475ZM83.6078 25.8819C81.7264 24.7533 79.7698 23.7752 77.8132 23.0229C79.0925 22.8724 80.2966 22.5714 81.4254 21.7438C82.2532 23.0981 82.9305 24.4524 83.6078 25.8819ZM77.6627 16.5524C78.8668 17.982 79.9956 19.4867 80.9739 21.0667C79.5441 22.1952 77.8132 22.2705 76.0071 22.3457C75.2545 22.12 74.4267 21.8943 73.6742 21.6686C74.5773 21.4429 75.4051 20.9914 76.1576 20.3143C77.1359 19.261 77.6627 17.9067 77.6627 16.5524ZM76.0071 14.6715C76.3081 15.2734 76.4586 15.9505 76.4586 16.5524C76.4586 17.6058 76.0823 18.6591 75.2545 19.4115C74.2762 20.3895 72.8464 20.6905 71.2661 20.7657C71.5671 20.6153 71.8681 20.3895 72.0939 20.0886C72.6206 19.5619 73.0722 18.8848 73.2227 18.1324C73.4484 17.3801 73.4484 16.6277 73.2227 15.8753L73.1474 15.6496L72.9217 15.5744C72.1691 15.3486 71.4166 15.4239 70.664 15.5744C69.9115 15.8001 69.2342 16.1763 68.7074 16.7029C68.4816 16.9286 68.3311 17.1543 68.1806 17.3801C68.2559 15.8753 68.6321 14.521 69.5352 13.5429C70.363 12.7153 71.3413 12.3391 72.3949 12.3391C73.0722 12.3391 73.6742 12.4896 74.2762 12.7906C74.8783 13.5429 75.4803 14.0696 76.0071 14.6715ZM72.4701 11.2858C71.0403 11.2858 69.761 11.8125 68.7074 12.7906C68.0301 13.4677 67.5786 14.2953 67.3528 15.1982C67.1271 14.3706 66.9013 13.6182 66.6755 12.7906C66.7508 10.9849 66.9013 9.25441 67.9549 7.90014C69.4599 8.95346 71.0403 10.082 72.4701 11.2858ZM67.2776 7.52395C66.4498 8.57728 66.1487 9.78108 65.9982 10.9849C65.2457 9.0287 64.3426 7.07253 63.2138 5.26683C64.5684 5.94397 65.923 6.69634 67.2776 7.52395ZM65.0199 11.8125C62.8375 11.8125 60.5047 12.0382 58.1718 12.4144L61.4077 4.74017C62.8375 6.92205 64.0416 9.32965 65.0199 11.8125ZM57.4945 12.1887C56.1399 10.2325 54.71 8.50204 53.1297 6.92205C55.5378 5.86873 58.0965 5.04112 60.6552 4.51446L57.4945 12.1887ZM59.0748 3.61161C56.9677 4.13827 54.9358 4.81541 52.9039 5.71826C53.7317 4.74017 54.3338 3.61161 54.5595 2.25734C56.0646 2.63352 57.5697 3.08495 59.0748 3.61161ZM53.807 2.03162C53.5812 3.83732 52.4524 5.11636 51.1731 6.47063C50.4205 6.84682 49.7432 7.223 49.066 7.67443C49.5175 6.84682 49.8185 5.94397 49.8185 4.96588C49.8185 3.53637 49.2165 2.1821 48.3134 1.27925H48.2382C50.0443 1.35449 51.9256 1.65544 53.807 2.03162ZM43.3466 1.05354C44.1744 1.05354 44.927 1.05354 45.7548 1.05354C46.4321 1.27925 46.9588 1.5802 47.4104 2.10686C48.1629 2.85923 48.6144 3.83732 48.6144 4.96588C48.6144 6.32016 47.8619 7.52395 46.7331 8.72775C46.8083 8.4268 46.8836 8.05062 46.8836 7.67443C46.8836 6.84682 46.6578 6.16968 46.2815 5.49254C45.9053 4.81541 45.3785 4.28874 44.7012 3.83732L44.4754 3.76208L44.2497 3.91256C43.5724 4.28874 43.0456 4.89064 42.6693 5.56778C42.2931 6.24492 42.0673 6.99729 42.0673 7.74967C42.0673 8.05062 42.0673 8.35157 42.1425 8.65251C41.089 7.52395 40.4117 6.32016 40.4117 5.04112C40.4117 3.91256 40.8632 2.85923 41.6158 2.1821C42.0673 1.5802 42.6693 1.20401 43.3466 1.05354ZM40.8632 1.20401C39.8849 2.1821 39.2829 3.53637 39.2829 4.96588C39.2829 5.94397 39.5839 6.77158 40.0354 7.59919C39.3581 7.14777 38.6056 6.77158 37.853 6.39539C36.649 5.04112 35.5201 3.76208 35.2944 2.03162C37.1005 1.5802 38.9819 1.35449 40.8632 1.20401ZM34.4666 2.1821C34.6171 3.53637 35.2191 4.58969 36.0469 5.56778C34.0903 4.74017 32.1337 3.9878 30.0266 3.46113C31.5317 3.00971 32.9615 2.55828 34.4666 2.1821ZM35.8964 6.84682C34.3161 8.4268 32.8862 10.1573 31.5317 12.1134L28.371 4.36398C31.0049 4.89064 33.4883 5.71826 35.8964 6.84682ZM30.8544 12.3391C28.5215 11.8877 26.2638 11.662 24.0815 11.662C25.0598 9.17918 26.2638 6.84682 27.6937 4.58969L30.8544 12.3391ZM25.8876 5.19159C24.7587 7.07253 23.7804 8.95346 23.0279 10.9849C22.8774 9.70584 22.5764 8.50204 21.7486 7.37348C23.1031 6.6211 24.4577 5.86873 25.8876 5.19159ZM21.0713 7.8249C22.2001 9.25441 22.2753 10.9849 22.3506 12.7906C22.1248 13.5429 21.8991 14.3706 21.6733 15.1229C21.4475 14.2201 20.996 13.3925 20.3187 12.6401C19.2652 11.5868 17.9106 11.0601 16.6313 11.0601H16.556C17.9858 10.0068 19.4909 8.87823 21.0713 7.8249ZM12.9438 14.521C13.4706 13.9191 14.0726 13.3925 14.6746 12.8658C15.2767 12.5649 15.954 12.4144 16.556 12.4144C17.6096 12.4144 18.6631 12.7906 19.4157 13.6182C20.394 14.5963 20.695 16.0258 20.7703 17.6058C20.6197 17.3048 20.394 17.0791 20.093 16.7782C19.5662 16.1763 18.8889 15.8001 18.1363 15.6496C17.3838 15.4239 16.6313 15.4239 15.8787 15.6496L15.6529 15.7248L15.5777 15.9505C15.4272 16.7029 15.4272 17.4553 15.5777 18.2077C15.8035 18.96 16.1797 19.6372 16.7065 20.1638C16.9323 20.3895 17.158 20.54 17.3838 20.7657C15.8787 20.6905 14.5241 20.3143 13.6211 19.4115C12.7933 18.5839 12.417 17.5305 12.417 16.5524C12.4923 15.8001 12.6428 15.1229 12.9438 14.521ZM11.2882 16.402C11.2882 17.8315 11.815 19.1105 12.7933 20.1638C13.4706 20.841 14.2984 21.2924 15.2014 21.5181C14.3736 21.7438 13.6211 21.9695 12.7933 22.1952C10.9872 22.12 9.25631 21.9695 7.90173 20.9162C8.95529 19.3362 10.0841 17.8315 11.2882 16.402ZM7.52545 21.5933C8.57902 22.421 9.78309 22.7219 10.9872 22.8724C9.03055 23.6248 7.07393 24.6028 5.26782 25.6562C5.94511 24.2267 6.69765 22.8724 7.52545 21.5933ZM11.815 23.8505C11.815 26.0324 12.0407 28.3647 12.417 30.6971L4.74104 27.4619C6.99867 25.9571 9.33156 24.7533 11.815 23.8505ZM12.1912 31.299C10.2346 32.6532 8.50376 34.0828 6.92342 35.6627C5.86985 33.2551 5.04205 30.6971 4.51527 28.139L12.1912 31.299ZM3.61222 29.7942C4.139 31.9009 4.81629 33.9323 5.71935 35.9637C4.74104 35.1361 3.61222 34.5342 2.25764 34.3085C2.63391 32.7285 3.08544 31.2237 3.61222 29.7942ZM2.03187 35.0608C3.83798 35.2866 5.11731 36.4151 6.47189 37.6942C6.84816 38.4465 7.22444 39.1237 7.67596 39.876C6.84816 39.4246 5.94511 39.1237 4.9668 39.1237C3.53696 39.1237 2.18238 39.7256 1.27933 40.6284H1.20407C1.35458 38.7475 1.6556 36.8665 2.03187 35.0608ZM1.05356 43.1112C1.27933 42.5093 1.58035 41.9074 2.10713 41.456C2.85967 40.7036 3.83798 40.2522 4.9668 40.2522C6.32138 40.2522 7.52545 41.0046 8.72953 42.1332C8.42851 42.0579 8.05224 41.9827 7.67596 41.9827C6.92342 41.9827 6.17087 42.2084 5.49358 42.5846C4.81629 42.9608 4.28951 43.4874 3.83798 44.1646L3.76273 44.3903L3.91324 44.616C4.28951 45.2931 4.89155 45.8198 5.56884 46.196C6.24613 46.5722 6.99867 46.7979 7.75122 46.7979C8.05224 46.7979 8.35325 46.7979 8.65427 46.7226C7.52545 47.7007 6.32138 48.4531 5.04205 48.4531C3.91324 48.4531 2.93493 48.0017 2.18238 47.2493C1.73085 46.7979 1.35458 46.196 1.20407 45.5941C1.05356 44.6912 1.05356 43.9389 1.05356 43.1112ZM1.20407 48.0017C2.18238 48.9798 3.53696 49.5817 4.9668 49.5817C5.94511 49.5817 6.77291 49.2807 7.60071 48.8293C7.14918 49.5064 6.77291 50.2588 6.39664 51.0112C5.04205 52.215 3.76273 53.3435 2.03187 53.5692C1.58035 51.6883 1.35458 49.8826 1.20407 48.0017ZM2.18238 54.3216C3.53696 54.1711 4.59053 53.5692 5.56884 52.7416C4.74104 54.6978 3.98849 56.654 3.46171 58.7606C3.01018 57.3311 2.55865 55.8264 2.18238 54.3216ZM6.84816 52.8921C8.42851 54.4721 10.1594 55.9016 12.116 57.2559L4.36476 60.4159C4.89155 57.8578 5.71935 55.2997 6.84816 52.8921ZM12.3417 57.933C11.8902 60.2654 11.6645 62.5225 11.6645 64.7044C9.18105 63.7263 6.84816 62.5225 4.59053 61.093L12.3417 57.933ZM5.19256 62.8987C7.07393 64.0272 9.03055 65.0053 10.9872 65.7577C9.70784 65.9082 8.50376 66.2091 7.37495 67.0367C6.6224 65.7577 5.86985 64.3282 5.19256 62.8987ZM11.2129 72.3034C10.0089 70.8738 8.88004 69.3691 7.90173 67.7891C9.33156 66.6606 11.0624 66.5853 12.8685 66.5101C13.6211 66.7358 14.4489 66.9615 15.2014 67.1872C14.2984 67.4129 13.4706 67.8643 12.718 68.5415C11.7397 69.5196 11.2129 70.8738 11.2129 72.3034ZM14.5241 75.8395C14.4489 75.7643 14.3736 75.689 14.2984 75.689C13.7716 75.1624 13.3201 74.711 12.7933 74.1843C12.4923 73.6576 12.3417 73.0557 12.3417 72.4538C12.3417 72.3786 12.3417 72.3034 12.3417 72.2281C12.3417 71.1748 12.718 70.1215 13.5458 69.3691C14.5241 68.391 15.954 68.0901 17.5343 68.0148C17.2333 68.1653 16.9323 68.391 16.7065 68.692C16.1797 69.2939 15.7282 69.8958 15.5777 70.6481C15.3519 71.4005 15.3519 72.1529 15.5024 72.9053L15.5777 73.131H15.6529H15.8035C16.556 73.2814 17.3085 73.2814 18.0611 73.131C18.8136 72.9053 19.4909 72.5291 20.0177 72.0024C20.2435 71.7767 20.394 71.551 20.5445 71.3253C20.4692 72.83 20.093 74.1843 19.1899 75.0871C18.3621 75.9148 17.3838 76.2909 16.3302 76.2909C15.8035 76.2909 15.1262 76.1405 14.5241 75.8395ZM20.9208 80.8804C19.3404 79.9023 17.8353 78.7738 16.4055 77.57H16.4807C17.8353 77.57 19.1899 77.0433 20.2435 76.0652C20.9208 75.3881 21.3723 74.5605 21.5981 73.6576C21.8238 74.4852 22.0496 75.2376 22.2753 76.0652C22.1248 77.7957 22.0496 79.4509 20.9208 80.8804ZM21.5981 81.2566C22.4259 80.2033 22.7269 78.9995 22.8774 77.7957C23.6299 79.6766 24.533 81.5576 25.5113 83.288C25.5865 83.3633 25.5865 83.4385 25.6618 83.5137C24.232 82.8366 22.8774 82.0842 21.5981 81.2566ZM26.7906 82.9871C25.5865 81.1061 24.6082 79.0747 23.8557 76.9681C26.0381 76.9681 28.371 76.7424 30.7039 76.3662L29.8761 78.3223L27.4679 84.0404C27.2421 83.7394 27.0164 83.3633 26.7906 82.9871ZM28.1452 84.3413L31.3811 76.6671C32.7357 78.6233 34.1656 80.3538 35.7459 81.9337C33.2625 82.9871 30.7039 83.8147 28.1452 84.3413ZM34.3161 86.5985C32.811 86.2223 31.3059 85.7709 29.8008 85.2442C31.9079 84.7175 33.9398 84.0404 35.8964 83.1375C35.1439 84.1909 34.4666 85.2442 34.3161 86.5985Z" fill="#555555"/>
<path d="M35.8967 87.9525C35.671 87.2754 35.5957 87.0497 35.5957 86.0716C35.5957 84.4916 35.972 82.9116 36.7245 81.5574C37.4018 80.2783 38.3801 79.0745 39.5842 78.0964C40.713 77.1936 41.9923 76.4412 43.4222 75.9146C45.0025 75.3127 46.6581 75.0117 48.3137 75.0869C48.4642 73.8832 48.9158 72.7546 49.6683 71.5508C50.5714 70.1965 51.9259 68.9927 53.8073 67.9394C55.5382 66.9613 57.6453 66.2089 60.3544 65.607C62.9131 65.0051 66.0738 64.7794 69.7613 64.7794H80.2969C81.501 64.7794 82.4793 64.7794 83.2318 64.7042C84.0596 64.6289 83.6833 64.6289 84.0596 64.5537L83.4576 65.8327C83.0813 65.908 81.5762 65.908 80.3722 65.908H69.8365C66.2243 65.908 63.1389 66.2089 60.6555 66.7356C58.0968 67.3375 56.0649 68.0146 54.4093 68.9175C52.6785 69.8956 51.4744 70.9489 50.6466 72.1527C49.8941 73.3565 49.4425 74.5603 49.4425 75.6888V76.2907L48.8405 76.2155C47.1849 76.065 45.454 76.366 43.8737 76.9679C42.5944 77.4945 41.3903 78.1717 40.3367 78.9993C39.2832 79.9021 38.3801 80.8802 37.7781 82.084C37.1008 83.2878 36.6493 84.6421 36.7998 86.0716C36.875 86.824 36.875 87.1249 37.3266 88.1783C37.3266 88.1783 36.7245 88.0278 36.4988 88.0278C36.1977 88.0278 35.8967 87.9525 35.8967 87.9525Z" fill="#555555"/>
<path d="M168.795 87.0501C168.645 87.0501 168.419 87.1254 168.344 87.2759C168.344 87.3511 168.268 87.4263 168.118 87.5768L167.516 88.3292C167.215 88.6301 166.839 89.0816 166.387 89.6835C165.635 90.5863 164.957 91.1882 164.43 91.5644C163.753 92.0158 163.527 92.0911 163.452 92.0911C163.302 92.0911 163.226 92.0911 163.226 91.8653C163.226 91.7901 163.226 91.4892 163.452 90.9625C163.678 90.5111 163.904 89.9844 164.205 89.3825C164.506 88.7806 164.882 88.1787 165.258 87.5768C165.635 86.9749 166.011 86.2978 166.387 85.7711C166.763 85.1692 167.064 84.6426 167.365 84.1159C167.666 83.5892 167.892 83.213 168.043 82.9121L168.419 82.235L165.108 82.4607L165.032 82.6864C165.032 82.6864 165.032 82.7616 164.957 82.7616C164.731 82.3854 164.43 82.0845 164.054 81.8588C163.678 81.7083 163.226 81.6331 162.7 81.6331C161.872 81.6331 161.195 81.7835 160.517 82.0092C159.84 82.235 159.313 82.6111 158.862 82.9873C158.41 83.4388 158.109 83.8902 157.959 84.4921C157.808 85.094 157.883 85.6959 158.109 86.2978C158.41 86.8997 158.786 87.3511 159.238 87.7273C159.689 88.1035 160.216 88.3292 160.969 88.3292C160.893 88.4044 160.893 88.4044 160.818 88.4797C159.99 89.232 159.087 89.9844 158.26 90.812C157.281 91.7149 156.679 91.9406 156.378 91.9406C156.303 91.9406 156.228 91.9406 156.077 91.7901C156.002 91.7149 156.002 91.6396 155.927 91.4892C155.927 91.2634 155.927 91.0377 155.927 90.812C155.927 90.5863 156.002 90.3606 156.077 90.1349C156.152 89.9092 156.303 89.6082 156.453 89.232C156.604 88.8558 156.83 88.4797 157.131 87.953L157.206 87.8025L156.754 86.9749C156.378 86.0721 155.701 86.0721 155.475 86.1473C154.948 86.2225 154.572 86.5987 154.271 87.1254C154.196 87.2759 154.121 87.4263 154.045 87.5768C153.97 87.6521 153.895 87.8025 153.744 87.953C152.766 89.1568 151.863 90.2101 151.035 91.0377C150.057 92.0158 149.53 92.1663 149.229 92.1663C149.003 92.1663 149.003 92.0911 149.003 92.0158C149.003 91.9406 149.003 91.7901 149.229 91.1882C149.38 90.7368 149.605 90.2101 149.906 89.6082C150.207 89.0063 150.508 88.3292 150.885 87.7273C151.261 87.0501 151.637 86.4482 151.938 85.8463C152.314 85.2445 152.615 84.7178 152.917 84.2664C153.218 83.8149 153.443 83.4388 153.594 83.2883L154.121 82.6111L151.487 82.6864C151.186 82.6864 150.96 82.7616 150.809 82.8369C150.659 82.9873 150.508 83.1378 150.358 83.4388C150.283 83.6645 150.132 83.8902 149.982 84.1911C149.906 83.8149 149.756 83.4388 149.53 83.0626C149.154 82.6111 148.627 82.3854 147.95 82.3854C147.272 82.3854 146.595 82.5359 145.918 82.7616C145.241 82.9873 144.563 83.2883 143.886 83.7397C143.209 84.1159 142.607 84.6426 142.08 85.1692C141.478 85.6959 140.951 86.2978 140.5 86.8997C140.274 87.2006 140.198 87.3511 140.123 87.4263C140.123 87.4263 140.048 87.4263 140.048 87.5016C140.048 87.5768 139.973 87.652 139.822 87.8025C139.672 87.953 139.521 88.1787 139.295 88.4797C139.07 88.7806 138.693 89.232 138.242 89.7587C138.091 89.9844 137.866 90.2101 137.64 90.5111C137.414 90.812 137.113 91.0377 136.737 91.3387C136.436 91.6396 136.135 91.8653 135.758 92.0158C135.457 92.1663 135.232 92.2415 135.081 92.2415C135.081 92.2415 135.006 92.2415 134.931 92.1663C134.855 92.0911 134.855 92.0911 134.855 92.0911C134.855 92.0911 134.855 92.0158 134.931 91.8653C135.006 91.6396 135.081 91.4139 135.156 91.1882C135.232 90.8873 135.307 90.6615 135.382 90.3606C135.457 90.0596 135.457 89.7587 135.457 89.533C135.457 89.3073 135.382 89.0063 135.232 88.7054C135.081 88.4044 134.931 88.1787 134.705 87.953C134.479 87.7273 134.253 87.5016 134.028 87.3511C134.329 87.2006 134.63 87.0501 134.931 86.8997C135.533 86.5235 135.984 86.0721 136.285 85.4702C136.511 85.0187 136.737 84.6426 136.887 84.4168C136.963 84.3416 137.038 84.2664 137.113 84.1911C137.188 84.4168 137.264 84.6426 137.339 84.8683C137.489 85.094 137.79 85.4702 138.468 85.4702C138.844 85.4702 139.145 85.3197 139.446 85.094C139.672 84.9435 139.897 84.5673 139.822 84.0407C139.822 83.5892 139.596 83.213 139.22 82.9121C138.543 82.3854 137.414 82.3854 136.586 82.9121C136.21 83.1378 135.758 83.6645 135.232 84.3416C134.78 85.0187 134.253 85.5454 133.651 85.9968C132.899 86.5235 132.598 86.5987 132.523 86.5987C132.297 86.5987 132.222 86.5987 132.222 86.5987C132.071 86.5987 131.996 86.5235 131.845 86.5235C131.394 86.5235 131.093 86.5987 130.867 86.674L136.135 75.915L133.2 76.4417L133.125 76.5922C132.447 78.0217 132.447 78.0217 132.222 78.3978L131.996 78.8493C131.469 79.8274 130.942 80.7302 130.415 81.5578C129.889 82.3854 129.136 83.3635 128.384 84.4168C127.706 85.2444 127.255 85.8463 126.878 86.2978C126.502 86.7492 126.201 87.1254 125.975 87.3511C125.825 87.5768 125.674 87.7273 125.599 87.8778C125.449 88.0282 125.298 88.2539 125.072 88.5549C124.847 88.8558 124.47 89.3073 124.019 89.8339C123.341 90.6615 122.589 91.2634 121.836 91.7149C121.084 92.1663 120.407 92.3168 119.88 92.3168C119.052 92.3168 118.676 92.0158 118.676 91.2634C118.6 90.2854 118.751 89.3073 119.052 88.4044C119.353 87.5016 119.805 86.674 120.331 85.9968C120.858 85.3197 121.385 84.793 121.987 84.3416C122.589 83.9654 123.116 83.7397 123.567 83.7397C123.718 83.7397 123.868 83.7397 123.944 83.8149C124.019 83.8902 124.019 83.9654 124.019 83.9654C124.019 84.0407 124.019 84.0407 124.019 84.0407C123.944 84.1159 123.868 84.1159 123.793 84.1911C123.642 84.2664 123.417 84.3416 123.341 84.4921C123.116 84.6426 123.04 84.9435 123.116 85.3197C123.116 85.6206 123.266 85.9216 123.417 86.2225C123.642 86.5235 124.019 86.674 124.47 86.674C124.997 86.674 125.449 86.4482 125.75 85.9216C125.975 85.4702 126.126 85.094 126.126 84.6426C126.051 83.8902 125.75 83.3635 125.223 82.9873C124.696 82.6111 124.019 82.4607 123.266 82.4607C122.213 82.4607 121.084 82.7616 120.03 83.2883C118.977 83.8902 117.923 84.793 116.945 86.0721C116.644 86.4483 116.493 86.674 116.343 86.8997C116.192 87.0501 116.117 87.2006 116.042 87.3511C116.042 87.3511 116.042 87.3511 115.967 87.3511C115.891 87.4263 115.816 87.5016 115.741 87.652C115.666 87.8025 115.515 87.953 115.289 88.254C115.139 88.4797 114.838 88.8558 114.537 89.232C114.01 89.8339 113.558 90.3606 113.182 90.812C112.806 91.1882 112.43 91.5644 112.129 91.7149C111.828 91.9406 111.602 92.0911 111.376 92.1663C111.15 92.2415 111 92.2415 110.849 92.2415C110.623 92.2415 110.623 92.2415 110.623 92.0911C110.623 91.7149 110.774 91.2634 111.075 90.7368C111.451 90.1349 111.828 89.4577 112.279 88.8558C112.731 88.1787 113.182 87.5016 113.483 86.8244C113.859 86.0721 114.085 85.3949 114.01 84.793C113.935 84.1911 113.784 83.6645 113.558 83.2883C113.032 82.3854 111.903 82.235 110.623 82.9873C110.172 83.2883 109.645 83.6645 109.194 84.0407C108.667 84.4921 108.215 84.9435 107.764 85.4702C107.388 85.8463 107.086 86.2225 106.785 86.674L112.354 75.915L109.495 76.4417L109.419 76.5922C108.817 77.6455 108.366 78.4731 107.99 79.075C107.613 79.6769 107.237 80.2788 106.861 80.8054C106.484 81.3321 106.033 81.934 105.581 82.6111C105.13 83.2883 104.453 84.1159 103.7 85.2445C103.249 85.8464 102.872 86.373 102.571 86.674C102.27 86.9749 102.12 87.2759 101.969 87.4263C101.894 87.5016 101.894 87.5768 101.819 87.5768C101.743 87.6521 101.593 87.8025 101.518 88.0282C101.292 88.3292 100.84 88.8558 100.238 89.6082C99.26 90.6615 98.2817 91.4139 97.4539 91.8653C96.4756 92.392 95.8736 92.4672 95.6478 92.4672C95.1963 92.4672 94.8953 92.3168 94.7447 92.1663C94.5942 92.0158 94.4437 91.7149 94.3685 90.8873C94.3685 90.5863 94.3685 90.2854 94.3685 90.0596C94.8953 89.9844 95.422 89.7587 96.1746 89.533C97.0024 89.232 97.8302 88.9311 98.658 88.4797C99.4858 88.0282 100.163 87.5768 100.765 86.9749C101.367 86.373 101.668 85.6206 101.593 84.793C101.518 84.1911 101.292 83.6645 100.916 83.2883C100.464 82.9121 99.9373 82.6864 99.26 82.6864C98.1312 82.6864 97.0776 83.0626 95.9488 83.7397C94.8953 84.4168 93.8417 85.2445 92.8634 86.373C92.7881 86.4483 92.7129 86.5987 92.5624 86.7492L92.1108 87.2759C91.9603 87.4263 91.8851 87.5768 91.8098 87.652C91.7346 87.7273 91.6593 87.7273 91.6593 87.8778C91.6593 87.8778 91.5841 88.0282 91.1325 88.4797C90.8315 88.8558 90.38 89.232 89.8532 89.533C89.5522 89.6835 89.1759 89.8339 88.8749 89.9092C88.9501 89.8339 89.0254 89.7587 89.1007 89.6082C89.4017 89.1568 89.6274 88.7054 89.9285 88.1035C90.1542 87.5768 90.38 86.9749 90.6057 86.373C90.8315 85.7711 90.9068 85.094 90.8315 84.4921C90.8315 84.1159 90.681 83.7397 90.5305 83.3635C90.3047 82.9873 89.9285 82.7616 89.4769 82.7616C88.6491 82.7616 88.3481 83.1378 88.1976 83.514C88.0471 83.8902 88.0471 84.4168 88.0471 85.1692C88.1223 86.373 87.9718 87.4263 87.6708 88.3292C87.3698 89.232 86.9183 89.9844 86.3162 90.6615C85.7895 91.2634 85.1874 91.7901 84.5101 92.0911C83.8328 92.392 83.2308 92.5425 82.704 92.5425C82.5535 92.5425 82.403 92.5425 82.3277 92.4672C82.2525 92.3168 82.1772 92.1663 82.1772 92.0158C82.1772 91.8653 82.1772 91.5644 82.4783 90.812C82.704 90.2101 83.005 89.533 83.3061 88.7806C83.6071 88.1035 83.9833 87.3511 84.2844 86.674C84.6606 85.9968 84.8864 85.5454 85.1122 85.1692C86.0152 84.1911 87.144 83.1378 88.2729 82.0845C89.4769 81.0312 90.6057 79.9778 91.7346 78.9245C92.7881 77.8712 93.6912 76.8179 94.4437 75.8398C95.1963 74.7865 95.5725 73.8084 95.4973 72.9055C95.422 71.5512 94.5942 70.7236 93.1644 70.7236C92.4119 70.7236 91.6593 71.0246 90.9068 71.6265C90.2295 72.1531 89.4769 72.9055 88.8749 73.7331C88.1976 74.5607 87.5956 75.4636 86.9935 76.5169C86.3915 77.495 85.7895 78.4731 85.2627 79.4512C84.7359 80.4293 84.2091 81.2569 83.8328 82.0845C83.3813 82.8369 83.005 83.4388 82.704 83.8149C82.5535 84.0407 82.2525 84.3416 81.8762 84.8683L80.6721 86.2978C80.2959 86.7492 79.9196 87.2006 79.6186 87.5768C79.1671 88.1787 79.0918 88.3292 79.0918 88.5549C79.0918 88.7806 79.3176 89.0816 79.6938 89.0816C79.8443 89.0816 79.9949 89.0063 80.0701 88.9311C80.1454 88.8558 80.2206 88.7806 80.3711 88.5549L80.6721 88.1787C80.5969 88.3292 80.5216 88.4797 80.5216 88.5549C80.1454 89.3073 80.0701 90.0596 80.0701 90.812C80.1454 91.6396 80.3711 92.3168 80.7474 92.8434C81.1989 93.4453 81.8762 93.7463 82.7793 93.7463C83.3061 93.7463 83.9081 93.671 84.4349 93.4453C84.9617 93.2196 85.4132 92.9939 85.8647 92.693C86.3162 92.392 86.6925 92.0911 87.0688 91.7901C87.3698 91.5644 87.5956 91.3387 87.7461 91.113C87.8213 91.113 87.8966 91.113 87.9718 91.113C88.6491 91.113 89.4017 90.9625 90.079 90.5863C90.681 90.2854 91.2078 89.9092 91.6593 89.3825C91.6593 89.3825 91.6593 89.3825 91.6593 89.4577C91.6593 89.9844 91.8098 90.5111 91.9603 90.9625C92.1108 91.4892 92.3366 91.9406 92.6376 92.3168C92.9386 92.693 93.3149 93.0691 93.6912 93.2949C94.1427 93.5206 94.6695 93.671 95.1963 93.671C96.0993 93.671 96.9271 93.4453 97.7549 93.0691C98.5075 92.693 99.4105 92.0158 100.238 91.1882C100.464 90.9625 100.765 90.6615 101.066 90.2854C101.367 89.9844 101.593 89.6835 101.819 89.3825C102.044 89.0816 102.27 88.8559 102.345 88.6301C102.421 88.5549 102.496 88.4797 102.496 88.4044C102.571 88.3292 102.646 88.1787 102.797 88.0282C103.098 87.5768 103.55 87.1254 104.001 86.4483L104.152 86.2978L94.8953 103.452L98.2817 103.226L101.066 97.6586C102.195 95.3263 103.399 93.2949 104.603 91.5644C105.807 89.8339 106.861 88.4044 107.839 87.2759C108.817 86.1473 109.72 85.3197 110.398 84.7178C111.301 84.0407 111.677 83.9654 111.828 83.9654C111.903 83.9654 111.903 83.9654 111.903 83.9654C111.903 83.9654 111.903 83.9654 111.903 84.0407C111.903 84.3416 111.752 84.6426 111.451 85.094C111.075 85.6206 110.699 86.1473 110.247 86.7492C109.796 87.3511 109.344 88.0282 108.968 88.7054C108.592 89.4577 108.441 90.2101 108.441 91.0377C108.516 91.7901 108.667 92.4672 108.968 92.9187C109.645 93.972 111 94.1225 112.731 92.8434C113.558 92.2415 114.461 91.2634 115.666 89.6835C115.816 89.533 115.891 89.3825 116.042 89.232C116.042 89.3073 116.042 89.3073 116.042 89.3073C116.042 89.7587 116.117 90.2854 116.268 90.7368C116.418 91.2634 116.569 91.7149 116.87 92.1663C117.171 92.6177 117.547 92.9939 117.923 93.2949C118.375 93.5958 118.977 93.7463 119.579 93.7463C120.557 93.7463 121.535 93.4453 122.514 92.8434C123.417 92.2415 124.47 91.3387 125.524 89.9844C125.9 89.533 126.201 89.1568 126.427 88.8558L126.502 88.7806C126.577 88.7054 126.577 88.7054 126.653 88.5549C126.728 88.4044 126.954 88.1787 127.104 87.953C127.255 87.8025 127.405 87.5768 127.631 87.2759L124.094 93.7463L127.556 93.5206L130.265 88.0282C130.415 88.3292 130.716 88.5549 131.168 88.5549C131.619 88.5549 131.996 88.4044 132.222 88.1787C132.372 88.0282 132.523 87.953 132.748 88.1035C132.824 88.1787 132.824 88.1787 132.824 88.254C132.824 88.4797 132.748 88.7054 132.598 89.0063C132.372 89.4577 132.222 89.9844 132.297 90.5863C132.297 90.8873 132.372 91.1882 132.447 91.5644C132.523 91.9406 132.673 92.2415 132.899 92.5425C133.125 92.8434 133.35 93.1444 133.651 93.3701C134.253 93.8215 135.081 93.8968 135.909 93.3701C136.285 93.1444 136.662 92.9187 137.038 92.6177C137.414 92.3168 137.79 91.9406 138.167 91.5644C138.543 91.1882 138.844 90.812 139.145 90.5111C139.371 90.2854 139.596 90.0596 139.747 89.7587C139.822 89.6082 139.897 89.533 139.973 89.4577C139.973 89.6082 139.973 89.7587 139.973 89.9844C139.973 90.4358 140.048 90.8873 140.123 91.2634C140.198 91.7149 140.349 92.0911 140.575 92.4672C140.801 92.8434 141.102 93.1444 141.478 93.3701C141.854 93.5958 142.306 93.7463 142.908 93.7463C143.284 93.7463 143.735 93.5958 144.187 93.3701C144.563 93.1444 145.015 92.8434 145.391 92.4672C145.767 92.1663 146.144 91.7901 146.52 91.4139C146.595 91.3387 146.67 91.2634 146.746 91.1882C146.821 92.1663 147.047 92.7682 147.423 93.1444C147.799 93.5958 148.326 93.8215 148.928 93.8215C149.53 93.8215 150.132 93.5206 150.885 92.9187C151.562 92.392 152.314 91.6396 153.067 90.7368C153.142 90.5863 153.293 90.5111 153.368 90.3606C153.368 90.5111 153.368 90.6615 153.368 90.812C153.443 91.6396 153.669 92.3168 154.045 92.8434C154.497 93.4453 155.099 93.7463 155.927 93.7463C156.529 93.7463 157.131 93.5206 157.733 93.0691C158.26 92.693 158.786 92.3168 159.313 91.8653C159.84 91.4139 160.291 91.0377 160.668 90.7368C160.743 90.6615 160.743 90.6615 160.818 90.5863C160.818 90.7368 160.818 90.812 160.818 90.9625C160.818 91.1882 160.893 91.4892 160.969 91.7901C161.044 92.0911 161.119 92.392 161.27 92.693C161.42 92.9939 161.646 93.2196 161.872 93.4453C162.173 93.671 162.474 93.7463 162.925 93.7463C163.527 93.7463 164.129 93.5206 164.807 92.9939C165.409 92.5425 166.161 91.7901 167.064 90.812C167.215 90.5863 167.441 90.3606 167.666 90.0596C167.892 89.7587 168.118 89.533 168.344 89.3073C168.569 89.0816 168.72 88.8558 168.87 88.7054C169.096 88.4797 169.171 88.2539 169.171 88.1035C169.322 87.2759 169.096 87.0501 168.795 87.0501ZM94.7447 87.2759C95.121 86.674 95.4973 85.9968 96.0241 85.4702C96.4756 84.9435 97.0024 84.4168 97.5292 84.0407C97.9807 83.6645 98.4322 83.514 98.8837 83.514C99.1848 83.514 99.26 83.5892 99.26 83.8149C99.3353 84.4168 99.1848 84.9435 98.8085 85.3949C98.4322 85.9216 97.9807 86.4483 97.4539 86.8244C96.8519 87.2759 96.2498 87.5768 95.5725 87.8778C95.121 88.0282 94.6695 88.1787 94.2932 88.254C94.3685 88.0282 94.519 87.652 94.7447 87.2759ZM93.6159 72.2284C93.6912 72.8303 93.5407 73.4322 93.2397 74.0341C92.9386 74.7112 92.5624 75.3131 92.1108 75.9903C91.6593 76.5922 91.1325 77.1941 90.6057 77.7959C90.079 78.3226 89.5522 78.8493 89.1007 79.2255L86.1657 81.934L86.9183 80.354C87.2945 79.6016 87.6708 78.6236 88.1223 77.6455C88.5739 76.6674 89.0254 75.6893 89.6274 74.7865C90.1542 73.8836 90.7563 73.1312 91.3583 72.5293C91.9603 71.9274 92.5624 71.7017 93.1644 71.7017C93.2397 71.7017 93.3149 71.7017 93.4654 71.8522C93.5407 71.9274 93.5407 72.0779 93.6159 72.2284ZM163.828 83.213C163.904 83.4388 163.904 83.7397 163.828 84.1911C163.753 84.4921 163.678 84.7178 163.527 85.0187C163.377 85.3197 163.226 85.5454 163.001 85.8463C162.85 86.1473 162.624 86.373 162.399 86.674C162.323 86.7492 162.173 86.8997 162.098 86.9749C161.721 87.2759 161.345 87.4263 160.893 87.4263C160.743 87.4263 160.592 87.3511 160.442 87.2759C160.291 87.2006 160.216 87.0501 160.141 86.8997C159.99 86.5987 159.915 86.2225 159.99 85.7711C160.066 85.3197 160.216 84.793 160.517 84.3416C160.818 83.8902 161.119 83.514 161.571 83.213C161.947 82.9121 162.399 82.7616 162.925 82.7616C163.151 82.7616 163.302 82.8369 163.452 82.9121C163.603 82.9121 163.753 83.0626 163.828 83.213ZM142.832 89.0063C143.133 88.1035 143.585 87.2006 144.112 86.373C144.639 85.5454 145.241 84.8683 145.918 84.2664C146.595 83.7397 147.197 83.4388 147.874 83.4388C148.251 83.4388 148.326 83.5892 148.401 83.6645C148.552 83.8902 148.627 84.1159 148.627 84.4168C148.702 85.0187 148.476 85.7711 148.1 86.5987C147.649 87.5016 147.122 88.3292 146.52 89.1568C145.918 89.9844 145.241 90.6615 144.563 91.1882C143.961 91.7149 143.359 91.9406 142.983 91.9406C142.757 91.9406 142.682 91.8653 142.682 91.7901C142.607 91.6396 142.531 91.4139 142.456 91.113C142.456 90.6615 142.531 89.9092 142.832 89.0063Z" fill="#555555"/>
<path d="M74.0503 81.0315C74.4266 79.9781 74.7276 79.0753 75.1039 78.3229C75.4049 77.4953 75.7059 76.8182 76.0069 76.2915C76.3832 75.4639 76.8347 74.7115 77.3615 73.9591C77.512 73.8839 77.5873 73.7334 77.6625 73.6582C77.7378 73.583 77.813 73.5077 77.8883 73.3572L79.2429 71.9277L77.211 72.3039L76.0822 73.282C75.2544 74.1849 74.6524 74.9372 74.3513 75.5391C74.1256 75.8401 73.9751 76.141 73.8246 76.442C73.674 76.6677 73.5235 76.9686 73.4483 77.1191C73.2978 77.4201 73.072 77.721 72.9215 78.022C72.771 78.3981 72.6205 78.7743 72.5452 79.0753C72.3947 79.4515 72.169 79.9029 71.9432 80.4296C71.7174 80.9562 71.4164 81.6334 71.1154 82.3857C70.9649 82.7619 70.8144 83.1381 70.7391 83.5143C70.5886 83.8905 70.5134 84.1914 70.3628 84.4924L70.1371 85.1695C70.0618 85.32 70.0618 85.3952 69.9113 85.4705L69.8361 85.5457V85.6209C69.7608 85.7714 69.6855 86.0724 69.3093 86.6743C69.0083 87.2009 68.632 87.8028 68.2557 88.48C67.8042 89.1571 67.3527 89.9095 66.9011 90.7371C66.3744 91.5647 65.8476 92.4675 65.396 93.2952L64.7188 94.499L67.0516 93.2199L68.4062 91.7152C69.3093 90.5866 70.0618 89.5333 70.6639 88.48C71.2659 87.5019 71.7927 86.5238 72.169 85.6209L73.4483 82.8372L74.0503 81.0315Z" fill="#555555"/>
<path d="M70.5129 77.5702C71.3407 76.1407 72.0933 75.0873 72.6953 74.335C72.9963 73.9588 73.2973 73.7331 73.5984 73.5074C73.8994 73.2816 74.2004 73.1312 74.5014 72.9807C74.8024 72.8302 75.0282 72.6797 75.254 72.6045C75.7055 72.3788 75.7807 72.1531 75.7807 71.9274C75.7807 71.6264 75.555 71.4007 75.254 71.4007C75.1034 71.4007 74.9529 71.4007 74.5014 71.6264C74.2004 71.7769 73.8241 72.0026 73.3726 72.2283C72.9211 72.454 72.4695 72.8302 71.9428 73.2064C71.416 73.5826 70.9644 74.034 70.4377 74.4854C69.1583 75.6892 68.0295 77.0435 67.1265 78.5483C66.2234 79.9778 65.2451 81.4825 64.342 82.9873C63.439 84.4168 62.4607 85.8463 61.4824 87.2006C60.5041 88.4796 59.3 89.6834 58.0207 90.6615C56.9671 91.4139 55.6878 92.0158 54.2579 92.4672C52.8281 92.9186 51.2478 93.1443 49.3664 93.1443C48.0871 93.1443 46.883 92.9938 45.8294 92.6929C44.7759 92.3919 43.8728 92.0158 43.1203 91.4891C42.3677 90.9624 41.7657 90.3605 41.3894 89.6834C41.0131 89.0063 40.7874 88.1786 40.7874 87.351C40.7874 86.3729 41.0131 85.3949 41.5399 84.5673C42.0667 83.7396 42.744 82.9873 43.5718 82.3101C44.3996 81.633 45.3779 81.1816 46.4315 80.8054C47.485 80.4292 48.5386 80.2787 49.5922 80.2787C51.3983 80.2787 52.7529 80.6549 53.6559 81.332C54.559 82.0092 54.9352 82.912 54.9352 84.0406C54.9352 84.8682 54.7847 85.5453 54.4085 86.2225C54.0322 86.8244 53.5054 87.4263 52.9034 87.8025C52.3013 88.2539 51.5488 88.5548 50.7962 88.7805C49.3664 89.232 47.786 89.1567 46.8077 88.931C46.3562 88.8558 45.9047 88.7053 45.6037 88.5548C45.3026 88.4044 45.0016 88.3291 44.7759 88.1786C44.4748 88.0282 44.3243 87.9529 44.0986 87.9529C43.8728 87.9529 43.5718 88.1034 43.5718 88.5548C43.5718 88.8558 43.8728 89.0815 44.0986 89.232C44.3243 89.3824 44.7006 89.5329 45.1521 89.6834C45.6037 89.8339 46.0552 89.9843 46.582 90.1348C48.0118 90.4358 49.5922 90.3605 51.0972 89.9091C52.0003 89.6082 52.9034 89.232 53.6559 88.7053C54.4085 88.1786 55.0857 87.5015 55.5373 86.6739C55.9888 85.8463 56.2898 84.9434 56.2898 83.8901C56.2898 82.912 56.0641 82.0092 55.5373 81.332C55.3115 81.0311 55.0857 80.7301 54.7847 80.4292C55.8383 80.8806 57.1929 81.1063 58.7732 81.1063C59.9773 81.1063 61.1814 80.8806 62.3102 80.5044C63.3637 80.1282 64.4173 79.6016 65.2451 78.9997C66.1482 78.3978 66.976 77.7207 67.6532 77.0435C68.3305 76.3664 68.9326 75.6892 69.4594 75.0873C69.9109 74.4854 70.2872 73.9588 70.5882 73.5074C70.9644 72.8302 71.0397 72.6797 71.0397 72.5293C71.0397 72.2283 70.8139 71.9274 70.3624 71.9274C70.1366 71.9274 70.0614 72.0778 69.6099 72.6797C69.3841 73.0559 69.0078 73.4321 68.481 73.9588C67.9543 74.4854 67.3522 75.0873 66.6749 75.6892C65.9224 76.2911 65.0946 76.893 64.1915 77.4197C63.2885 77.9464 62.2349 78.3978 61.1061 78.774C59.9773 79.1502 58.698 79.3006 57.4186 79.3006C56.2146 79.3006 55.161 78.9997 54.4837 78.473C53.8064 77.9464 53.4301 77.2692 53.4301 76.4416C53.4301 75.6892 53.7312 74.9369 54.3332 74.1093C54.9352 73.3569 55.8383 72.6045 56.9671 72.0026C58.0959 71.4007 59.5258 70.874 61.1061 70.4979C62.7617 70.1217 64.5678 69.896 66.5244 69.896C68.1048 69.896 69.5346 69.896 70.6634 69.9712C71.7922 70.0464 72.8458 70.0464 73.6736 70.1217C74.5014 70.1969 75.3292 70.2721 75.9312 70.3474C76.6085 70.4226 77.2106 70.4979 77.8879 70.5731C78.4899 70.6483 79.1672 70.7236 79.8445 70.7236C80.5218 70.7988 81.2743 70.7988 82.1774 70.7988C83.4567 70.7988 84.5103 70.6483 85.4133 70.4226C86.3164 70.1969 87.0689 69.896 87.671 69.6702C88.1977 69.4445 88.4988 69.1436 88.7245 68.9179L88.875 68.7674C89.3266 68.3912 89.4018 68.1655 89.4018 67.9398C89.4018 67.5636 89.1008 67.3379 88.875 67.3379C88.574 67.3379 88.3482 67.3379 88.0472 67.4131H87.8967C87.5204 67.4884 87.0689 67.5636 86.4669 67.6388C85.8648 67.7141 85.1876 67.7893 84.3598 67.8645C83.532 67.9398 82.4784 67.9398 81.1991 67.9398H70.6634C67.1265 67.9398 64.1915 68.2407 61.7834 68.7674C59.3752 69.2941 57.4186 69.9712 55.9888 70.7988C54.4837 71.6264 53.4301 72.5293 52.7528 73.5826C52.0756 74.5607 51.7745 75.5388 51.7745 76.4416C51.7745 77.4197 52.0756 78.3225 52.7528 79.0749C52.3013 78.8492 51.8498 78.6987 51.3983 78.6235C49.2159 78.0968 47.184 78.2473 45.3027 78.9997C44.1738 79.4511 43.1203 80.053 42.2172 80.8054C41.3142 81.5578 40.5616 82.4606 40.0348 83.4387C39.5081 84.492 39.207 85.5453 39.207 86.7491C39.207 87.9529 39.5081 89.0815 40.0348 89.9843C40.5616 90.8872 41.3142 91.7148 42.2172 92.3919C43.1203 93.0691 44.1738 93.5205 45.3779 93.8967C46.582 94.1976 47.8613 94.4233 49.2159 94.4233C51.022 94.4233 52.7528 94.1976 54.3332 93.8214C55.9135 93.37 57.4939 92.7681 58.9237 92.0158C62.4607 90.0596 65.3204 87.0501 67.4275 83.0625C68.6316 80.8054 69.6099 78.9997 70.5129 77.5702Z" fill="#555555"/>
<path d="M78.4137 88.3297C78.1127 88.3297 77.9622 88.5554 77.5859 89.2325C77.3602 89.684 76.9087 90.2106 76.2314 90.8878C75.7046 91.4897 75.253 91.9411 74.8768 92.242C74.5758 92.543 74.2747 92.6182 74.049 92.6182C73.9737 92.6182 73.8985 92.6182 73.8985 92.242C73.8985 91.8659 74.049 91.264 74.2747 90.5868C74.5758 89.8344 74.952 89.0068 75.4036 88.104C75.8551 87.2011 76.3819 86.1478 76.9839 85.0945C77.5859 84.0412 78.1127 82.9126 78.7148 81.8593L83.9073 71.5518L81.8754 71.7022C81.6497 71.7775 81.4992 71.8527 81.4239 71.9279C81.3487 72.0032 81.2734 72.1537 81.0476 72.5298C80.8971 72.7556 80.7466 73.207 80.5209 73.6584C80.2951 74.1851 79.9188 74.8622 79.4673 75.6898C79.0158 76.5927 78.4137 77.646 77.7365 79.0003C77.0592 80.2793 76.1561 81.9345 75.0273 83.8155L73.6727 86.825C73.3717 87.5773 73.1459 88.3297 72.9202 89.0821C72.6944 89.8344 72.6191 90.6621 72.6191 91.5649C72.6191 92.7687 72.8449 93.3706 73.3717 93.6716C73.5222 93.7468 73.748 93.822 73.9737 93.822C74.2747 93.822 74.5758 93.7468 74.952 93.5211C75.4036 93.2201 75.9303 92.8439 76.3819 92.3173C76.8334 91.8659 77.2097 91.4144 77.5859 91.0382C77.887 90.5868 78.188 90.1354 78.489 89.684C79.0158 88.9316 79.0158 88.9316 79.0158 88.7811C79.0158 88.5554 78.79 88.3297 78.4137 88.3297Z" fill="#555555"/>
</g>
<defs>
<clipPath id="clip0_2732_2448">
<rect width="340" height="103" fill="white"/>
</clipPath>
</defs>
</svg>
