<svg width="183" height="53" viewBox="0 0 183 53" fill="none" xmlns="http://www.w3.org/2000/svg">
<path d="M75.4124 12.7308L73.2715 10.5654L71.1306 12.7307L73.2715 14.8961L75.4124 12.7308Z" fill="#191919" fill-opacity="0.64"/>
<path d="M73.3418 10.4943L73.2715 10.4232L73.2012 10.4943L71.0603 12.6596L70.99 12.7307L71.0603 12.8018L73.2012 14.9672L73.2715 15.0383L73.3418 14.9672L75.4827 12.8019L75.553 12.7308L75.4827 12.6596L73.3418 10.4943Z" stroke="#191919" stroke-opacity="0.64" stroke-width="0.2"/>
<path d="M157 33C153.925 31.2472 153.059 29.1264 151.98 24.4991C151.98 24.3764 151.98 24.2537 151.98 24.1135C151.706 22.9587 151.265 21.849 150.673 20.8183C150.48 20.4769 150.255 20.1541 150.001 19.8542C149.204 18.9067 148.225 18.1262 147.12 17.5581L146.59 17.2952L145.476 16.822L138.124 14L138 14.2629C138 14.2629 140.439 15.297 141.8 15.9105C144.54 20.5904 141.075 28.3376 157 33Z" fill="#191919" fill-opacity="0.64"/>
<path d="M156.972 33.096L157.05 32.9131C155.526 32.0445 154.554 31.0886 153.829 29.779C153.102 28.4669 152.619 26.7955 152.08 24.4876V24.4868V24.4861V24.4854V24.4847V24.484V24.4833V24.4825V24.4818V24.4811V24.4804V24.4797V24.4789V24.4782V24.4775V24.4768V24.4761V24.4753V24.4746V24.4739V24.4732V24.4725V24.4717V24.471V24.4703V24.4696V24.4689V24.4681V24.4674V24.4667V24.466V24.4653V24.4645V24.4638V24.4631V24.4624V24.4617V24.4609V24.4602V24.4595V24.4588V24.4581V24.4573V24.4566V24.4559V24.4552V24.4545V24.4537V24.453V24.4523V24.4516V24.4509V24.4501V24.4494V24.4487V24.448V24.4473V24.4465V24.4458V24.4451V24.4444V24.4437V24.4429V24.4422V24.4415V24.4408V24.44V24.4393V24.4386V24.4379V24.4372V24.4364V24.4357V24.435V24.4343V24.4336V24.4328V24.4321V24.4314V24.4307V24.4299V24.4292V24.4285V24.4278V24.427V24.4263V24.4256V24.4249V24.4242V24.4234V24.4227V24.422V24.4213V24.4205V24.4198V24.4191V24.4184V24.4176V24.4169V24.4162V24.4155V24.4147V24.414V24.4133V24.4126V24.4118V24.4111V24.4104V24.4097V24.409V24.4082V24.4075V24.4068V24.406V24.4053V24.4046V24.4039V24.4031V24.4024V24.4017V24.401V24.4002V24.3995V24.3988V24.3981V24.3973V24.3966V24.3959V24.3952V24.3944V24.3937V24.393V24.3922V24.3915V24.3908V24.3901V24.3893V24.3886V24.3879V24.3872V24.3864V24.3857V24.385V24.3842V24.3835V24.3828V24.3821V24.3813V24.3806V24.3799V24.3791V24.3784V24.3777V24.3769V24.3762V24.3755V24.3748V24.374V24.3733V24.3726V24.3718V24.3711V24.3704V24.3696V24.3689V24.3682V24.3674V24.3667V24.366V24.3652V24.3645V24.3638V24.363V24.3623V24.3616V24.3608V24.3601V24.3594V24.3586V24.3579V24.3572V24.3564V24.3557V24.355V24.3542V24.3535V24.3528V24.352V24.3513V24.3506V24.3498V24.3491V24.3484V24.3476V24.3469V24.3462V24.3454V24.3447V24.3439V24.3432V24.3425V24.3417V24.341V24.3403V24.3395V24.3388V24.338V24.3373V24.3366V24.3358V24.3351V24.3343V24.3336V24.3329V24.3321V24.3314V24.3307V24.3299V24.3292V24.3284V24.3277V24.3269V24.3262V24.3255V24.3247V24.324V24.3232V24.3225V24.3218V24.321V24.3203V24.3195V24.3188V24.318V24.3173V24.3166V24.3158V24.3151V24.3143V24.3136V24.3128V24.3121V24.3113V24.3106V24.3099V24.3091V24.3084V24.3076V24.3069V24.3061V24.3054V24.3046V24.3039V24.3031V24.3024V24.3016V24.3009V24.3001V24.2994V24.2987V24.2979V24.2972V24.2964V24.2957V24.2949V24.2942V24.2934V24.2927V24.2919V24.2912V24.2904V24.2897V24.2889V24.2882V24.2874V24.2866V24.2859V24.2851V24.2844V24.2836V24.2829V24.2821V24.2814V24.2806V24.2799V24.2791V24.2784V24.2776V24.2769V24.2761V24.2753V24.2746V24.2738V24.2731V24.2723V24.2716V24.2708V24.27V24.2693V24.2685V24.2678V24.267V24.2663V24.2655V24.2647V24.264V24.2632V24.2625V24.2617V24.2609V24.2602V24.2594V24.2587V24.2579V24.2571V24.2564V24.2556V24.2548V24.2541V24.2533V24.2526V24.2518V24.251V24.2503V24.2495V24.2487V24.248V24.2472V24.2464V24.2457V24.2449V24.2442V24.2434V24.2426V24.2419V24.2411V24.2403V24.2395V24.2388V24.238V24.2372V24.2365V24.2357V24.2349V24.2342V24.2334V24.2326V24.2319V24.2311V24.2303V24.2295V24.2288V24.228V24.2272V24.2265V24.2257V24.2249V24.2241V24.2234V24.2226V24.2218V24.221V24.2203V24.2195V24.2187V24.2179V24.2172V24.2164V24.2156V24.2148V24.2141V24.2133V24.2125V24.2117V24.2109V24.2102V24.2094V24.2086V24.2078V24.2071V24.2063V24.2055V24.2047V24.2039V24.2031V24.2024V24.2016V24.2008V24.2V24.1992V24.1985V24.1977V24.1969V24.1961V24.1953V24.1945V24.1937V24.193V24.1922V24.1914V24.1906V24.1898V24.189V24.1882V24.1875V24.1867V24.1859V24.1851V24.1843V24.1835V24.1827V24.1819V24.1811V24.1803V24.1796V24.1788V24.178V24.1772V24.1764V24.1756V24.1748V24.174V24.1732V24.1724V24.1716V24.1708V24.17V24.1692V24.1684V24.1676V24.1668V24.1661V24.1653V24.1645V24.1637V24.1629V24.1621V24.1613V24.1605V24.1597V24.1589V24.1581V24.1573V24.1565V24.1557V24.1549V24.1541V24.1533V24.1524V24.1516V24.1508V24.15V24.1492V24.1484V24.1476V24.1468V24.146V24.1452V24.1444V24.1436V24.1428V24.142V24.1412V24.1404V24.1395V24.1387V24.1379V24.1371V24.1363V24.1355V24.1347V24.1339V24.1331V24.1323V24.1314V24.1306V24.1298V24.129V24.1282V24.1274V24.1266V24.1257V24.1249V24.1241V24.1233V24.1225V24.1217V24.1208V24.12V24.1192V24.1184V24.1176V24.1167V24.1159V24.1151V24.1143V24.1135V24.1017L152.078 24.0903C151.801 22.9263 151.357 21.8077 150.759 20.7687C150.563 20.4221 150.335 20.0943 150.077 19.7899C149.272 18.8322 148.282 18.0433 147.166 17.4692L147.166 17.4692L147.164 17.4685L146.634 17.2056L146.634 17.2055L146.629 17.2032L145.515 16.7299L145.515 16.7299L145.512 16.7286L138.16 13.9066L138.073 13.8733L138.033 13.9574L137.91 14.2203L137.865 14.3144L137.961 14.355L138 14.2629L137.961 14.355L137.961 14.355L137.961 14.3552L137.963 14.3557L137.968 14.358L137.989 14.3667L138.068 14.4006L138.363 14.5261C138.613 14.6326 138.96 14.781 139.35 14.9485C140.119 15.279 141.052 15.6836 141.73 15.9885C142.394 17.1361 142.686 18.4717 142.994 19.9202C143 19.9495 143.006 19.9789 143.012 20.0083C143.316 21.4389 143.641 22.9716 144.365 24.5045C145.848 27.6433 148.992 30.7598 156.972 33.096Z" stroke="#191919" stroke-opacity="0.64" stroke-width="0.2"/>
<path d="M50 51V46.0005H52.3567C52.7208 45.9907 53.0739 46.1227 53.3387 46.3676C53.4655 46.4801 53.5661 46.6178 53.6339 46.7716C53.7016 46.9254 53.7349 47.0917 53.7315 47.2591C53.7345 47.4754 53.6781 47.6885 53.5682 47.8761C53.4582 48.0637 53.2988 48.2189 53.1066 48.3255C53.3685 48.4161 53.5951 48.5843 53.7551 48.8066C53.915 49.029 54.0003 49.2946 53.9993 49.5666C54.0057 49.7548 53.969 49.942 53.8918 50.1144C53.8145 50.2869 53.6987 50.4402 53.5529 50.563C53.266 50.8201 52.8883 50.9579 52.4995 50.9476L50 51ZM50.4642 46.49V48.238H52.3567C52.4731 48.2404 52.5888 48.2199 52.697 48.1779C52.8052 48.1359 52.9038 48.0732 52.9869 47.9934C53.0701 47.9136 53.1361 47.8185 53.1812 47.7134C53.2262 47.6083 53.2495 47.4954 53.2494 47.3815C53.252 47.2668 53.2305 47.1529 53.1863 47.0467C53.1421 46.9405 53.0761 46.8443 52.9925 46.764C52.9088 46.6837 52.8092 46.6211 52.6999 46.58C52.5905 46.5388 52.4738 46.5201 52.3567 46.5249L50.4642 46.49ZM50.4642 48.6401V50.563H52.4995C52.7654 50.563 53.0211 50.4628 53.2137 50.2833C53.3948 50.1006 53.496 49.8561 53.496 49.6015C53.496 49.347 53.3948 49.1025 53.2137 48.9198C53.1206 48.8277 53.0092 48.7553 52.8863 48.7072C52.7635 48.6591 52.6318 48.6362 52.4995 48.6401H50.4642Z" fill="#191919" fill-opacity="0.64"/>
<path d="M49.9 51V51.1021L50.0021 51.1L52.4993 51.0476C52.912 51.058 53.3131 50.9116 53.6185 50.6385C53.7752 50.5062 53.8998 50.3412 53.983 50.1553C54.0662 49.9696 54.106 49.7679 54.0993 49.565C54.1 49.2725 54.008 48.9871 53.8362 48.7482C53.7017 48.5612 53.5235 48.41 53.3179 48.3064C53.4536 48.2029 53.5681 48.0741 53.6545 47.9266C53.7733 47.7239 53.8345 47.4935 53.8315 47.2594C53.835 47.078 53.7988 46.8979 53.7254 46.7313C53.6519 46.5646 53.5429 46.4153 53.4058 46.2935C53.1221 46.0315 52.7445 45.8904 52.3554 45.9005H50H49.9V46.0005V51ZM52.3587 48.1381L52.3587 48.138H52.3567H50.5642V46.5918L52.3549 46.6249L52.3549 46.6251L52.3608 46.6249C52.4645 46.6206 52.5679 46.6372 52.6647 46.6736C52.7615 46.71 52.8494 46.7653 52.9232 46.8361C52.997 46.907 53.0551 46.9917 53.094 47.0851C53.1328 47.1785 53.1517 47.2786 53.1494 47.3793L53.1494 47.3815C53.1495 47.4819 53.129 47.5813 53.0893 47.674C53.0495 47.7666 52.9912 47.8507 52.9177 47.9213C52.8441 47.9918 52.7568 48.0474 52.6608 48.0847C52.5648 48.122 52.4621 48.1401 52.3587 48.1381ZM52.4995 48.7401V48.7401L52.5025 48.74C52.6213 48.7366 52.7396 48.7571 52.8499 48.8003C52.96 48.8434 53.0598 48.9082 53.143 48.9905C53.3055 49.1546 53.396 49.3738 53.396 49.6015C53.396 49.8288 53.3059 50.0475 53.1441 50.2115C52.9704 50.3727 52.7397 50.463 52.4995 50.463H50.5642V48.7401H52.4995Z" stroke="#191919" stroke-opacity="0.64" stroke-width="0.2"/>
<path d="M56.8154 46.7866C57.2958 46.3613 57.9398 46.0895 58.6355 46.0185C59.3313 45.9476 60.0349 46.0818 60.6242 46.3981C61.2135 46.7143 61.6514 47.1925 61.8617 47.7497C62.0721 48.3069 62.0417 48.9079 61.7757 49.4484C61.5098 49.9889 61.0252 50.4346 60.406 50.7084C59.7869 50.9822 59.0722 51.0666 58.3861 50.9471C57.7 50.8276 57.0857 50.5116 56.65 50.054C56.2143 49.5965 55.9846 49.0262 56.0008 48.4422C55.997 48.1349 56.0672 47.8301 56.2071 47.5457C56.347 47.2614 56.5538 47.0033 56.8154 46.7866ZM56.5571 48.4422C56.55 48.7012 56.6042 48.9588 56.7167 49.2003C56.8292 49.4418 56.9978 49.6624 57.2127 49.8495C57.6608 50.2097 58.2591 50.4109 58.8816 50.4109C59.5041 50.4109 60.1024 50.2097 60.5505 49.8495C60.7654 49.6624 60.9339 49.4418 61.0464 49.2003C61.1589 48.9588 61.2132 48.7012 61.2061 48.4422C61.2165 48.1829 61.1638 47.9245 61.0512 47.6827C60.9385 47.4408 60.7682 47.2205 60.5505 47.035C60.3324 46.8507 60.0725 46.7045 59.786 46.6046C59.4995 46.5048 59.1921 46.4534 58.8816 46.4534C58.5711 46.4534 58.2636 46.5048 57.9771 46.6046C57.6906 46.7045 57.4308 46.8507 57.2127 47.035C56.9991 47.2337 56.8376 47.4674 56.7384 47.7211C56.6392 47.9748 56.6045 48.243 56.6366 48.5085L56.5571 48.4422Z" fill="#191919" fill-opacity="0.64"/>
<path d="M56.8074 49.1581C56.7331 48.9987 56.686 48.8324 56.6666 48.6636L56.766 48.7465L56.7359 48.4965C56.7058 48.2477 56.7382 47.9962 56.8315 47.7576C56.9246 47.5195 57.0766 47.2987 57.2791 47.1098C57.4869 46.9347 57.7352 46.7948 58.01 46.6991C58.2857 46.603 58.582 46.5534 58.8816 46.5534C59.1812 46.5534 59.4775 46.603 59.7531 46.6991C60.0287 46.7951 60.2777 46.9355 60.4858 47.1112C60.6933 47.2881 60.8543 47.497 60.9605 47.7249C61.0666 47.9527 61.1159 48.1953 61.1061 48.4382L61.1059 48.4382L61.1061 48.445C61.1128 48.688 61.0619 48.9302 60.9558 49.1581C60.8498 49.3854 60.6907 49.5945 60.4863 49.7728C60.0576 50.1167 59.4827 50.3109 58.8816 50.3109C58.2806 50.3109 57.7056 50.1167 57.2769 49.7728C57.0725 49.5945 56.9133 49.3854 56.8074 49.1581ZM58.6254 45.919C57.9113 45.9919 57.2477 46.2708 56.7503 46.7107C56.4793 46.9355 56.2637 47.2042 56.1173 47.5016C55.971 47.799 55.8972 48.1186 55.9008 48.4415C55.8844 49.0537 56.1257 49.6484 56.5776 50.123C57.0296 50.5976 57.664 50.9228 58.3689 51.0456C59.0739 51.1684 59.8087 51.0819 60.4465 50.7999C61.0843 50.5179 61.5879 50.0567 61.8655 49.4925C62.1434 48.9276 62.1755 48.2978 61.9553 47.7144C61.7353 47.1318 61.2793 46.6361 60.6715 46.31C60.0637 45.9838 59.34 45.8461 58.6254 45.919Z" stroke="#191919" stroke-opacity="0.64" stroke-width="0.2"/>
<path d="M64.5118 51H64V46.0017H66.3127C66.534 45.9918 66.7551 46.0257 66.9611 46.101C67.167 46.1764 67.3532 46.2915 67.5069 46.4386C67.6655 46.5708 67.7915 46.7328 67.8765 46.9137C67.9616 47.0945 68.0036 47.2901 67.9998 47.4872C68.0015 47.6866 67.9586 47.8842 67.8738 48.0676C67.789 48.251 67.6642 48.4164 67.5069 48.5533C67.3494 48.6946 67.1622 48.8047 66.9568 48.8768C66.7515 48.9489 66.5322 48.9816 66.3127 48.9727H64.5118V51ZM64.5118 46.491V48.5882H66.3127C66.6216 48.5907 66.9199 48.4844 67.1468 48.2911C67.2517 48.1917 67.3342 48.0741 67.3896 47.9451C67.4449 47.8161 67.4719 47.6783 67.469 47.5396C67.4738 47.4017 67.4457 47.2645 67.3868 47.1377C67.3278 47.0109 67.2394 46.8975 67.1278 46.8056C67.0236 46.7032 66.8972 46.6222 66.7567 46.568C66.6163 46.5138 66.4649 46.4875 66.3127 46.491H64.5118Z" fill="#191919" fill-opacity="0.64"/>
<path d="M64.6118 48.4882V48.5882H66.3127C66.6216 48.5907 66.9199 48.4844 67.1468 48.2911M64.6118 48.4882H66.3127H66.3135V48.4882C66.5984 48.4905 66.8723 48.3927 67.0799 48.2167M64.6118 48.4882V46.591M64.6118 48.4882V46.591M67.0799 48.2167C67.0793 48.2173 67.0786 48.2179 67.078 48.2185L67.1468 48.2911M67.0799 48.2167C67.0806 48.2161 67.0812 48.2156 67.0819 48.215L67.1468 48.2911M67.0799 48.2167C67.1744 48.1268 67.2482 48.021 67.2977 47.9057C67.3474 47.7897 67.3716 47.666 67.369 47.5417L67.3689 47.5362L67.369 47.5362C67.3733 47.4142 67.3485 47.2926 67.2961 47.1799C67.2437 47.0671 67.1647 46.9656 67.0642 46.8828L67.0574 46.8772L67.0577 46.8769C66.9636 46.7844 66.8488 46.7107 66.7207 46.6613C66.5926 46.6118 66.4543 46.5878 66.315 46.591L66.3127 46.591V46.591H64.6118M67.1468 48.2911C67.2517 48.1917 67.3342 48.0741 67.3896 47.9451C67.4449 47.8161 67.4719 47.6783 67.469 47.5396C67.4738 47.4017 67.4457 47.2645 67.3868 47.1377C67.3278 47.0109 67.2394 46.8975 67.1278 46.8056C67.0236 46.7032 66.8972 46.6222 66.7567 46.568C66.6163 46.5138 66.4649 46.4875 66.3127 46.491H64.6118V46.591M64.5118 51.1H64.6118V51V49.0727H66.3107C66.5421 49.0818 66.7732 49.0473 66.99 48.9712C67.2072 48.8949 67.4057 48.7783 67.5732 48.6282C67.7404 48.4824 67.8738 48.306 67.9646 48.1095C68.0553 47.9133 68.1014 47.7016 68.0998 47.4877C68.1036 47.2755 68.0583 47.0653 67.967 46.8711C67.8761 46.6776 67.7418 46.5048 67.5736 46.364C67.41 46.2082 67.2129 46.0867 66.9954 46.0071C66.7776 45.9274 66.5441 45.8916 66.3105 45.9017H64H63.9V46.0017V51V51.1H64H64.5118Z" stroke="#191919" stroke-opacity="0.64" stroke-width="0.2"/>
<path d="M70.8466 46.7594C71.3335 46.3411 71.9803 46.0777 72.6755 46.0147C73.3707 45.9516 74.0704 46.093 74.6538 46.4142C75.2372 46.7354 75.6677 47.2164 75.8707 47.774C76.0738 48.3316 76.0367 48.9308 75.7659 49.4681C75.4951 50.0054 75.0077 50.4469 74.3877 50.7164C73.7678 50.986 73.0543 51.0666 72.3706 50.9444C71.6869 50.8221 71.076 50.5047 70.6433 50.0469C70.2106 49.5891 69.9834 49.0198 70.0009 48.4373C70.0009 48.1248 70.0757 47.8154 70.2209 47.5273C70.3661 47.2392 70.5788 46.9781 70.8466 46.7594V46.7594ZM70.5647 48.4373C70.5575 48.6997 70.6125 48.9608 70.7265 49.2055C70.8406 49.4502 71.0113 49.6738 71.2292 49.8634C71.452 50.0467 71.7162 50.1915 72.0064 50.2894C72.2967 50.3873 72.6073 50.4364 72.9204 50.4339C73.234 50.4392 73.5456 50.3914 73.8363 50.2933C74.127 50.1953 74.3908 50.049 74.6117 49.8634C74.8359 49.6768 75.0123 49.4542 75.13 49.209C75.2477 48.9638 75.3042 48.7012 75.2962 48.4373C75.3078 48.1729 75.253 47.9094 75.1351 47.6638C75.0172 47.4182 74.8389 47.1958 74.6117 47.0111C74.3948 46.82 74.1322 46.669 73.8409 46.5679C73.5495 46.4667 73.2359 46.4176 72.9204 46.4238C72.6054 46.4207 72.2929 46.4712 72.0021 46.5721C71.7113 46.6731 71.4483 46.8225 71.2292 47.0111C70.9983 47.2069 70.8198 47.4411 70.7053 47.6985C70.5908 47.9558 70.5428 48.2305 70.5647 48.5044V48.4373Z" fill="#191919" fill-opacity="0.64"/>
<path d="M70.6647 48.4373L70.6608 48.4372C70.6511 48.2001 70.697 47.963 70.7966 47.7391C70.9046 47.4965 71.0736 47.2742 71.2938 47.0873L71.2938 47.0873L71.2944 47.0869C71.5034 46.907 71.7552 46.7637 72.0349 46.6666C72.3146 46.5695 72.6156 46.5208 72.9194 46.5238L72.9194 46.5239L72.9224 46.5238C73.2264 46.5179 73.5282 46.5651 73.8081 46.6623C74.088 46.7595 74.3391 46.9042 74.5456 47.0861L74.5455 47.0862L74.5486 47.0887C74.7652 47.2648 74.9339 47.4757 75.0449 47.7071C75.1559 47.9383 75.2072 48.1854 75.1963 48.4329L75.1961 48.4329L75.1963 48.4403C75.2037 48.6878 75.1508 48.9345 75.0398 49.1657C74.9288 49.397 74.7617 49.6085 74.5477 49.7865L74.5473 49.7869C74.3367 49.9639 74.084 50.1042 73.8044 50.1986C73.5247 50.2929 73.2245 50.3391 72.9221 50.3339L72.9196 50.3339C72.6174 50.3363 72.3179 50.2889 72.0384 50.1946C71.7594 50.1005 71.5065 49.9618 71.2938 49.7871C71.0863 49.6062 70.9247 49.394 70.8172 49.1632C70.7189 48.9523 70.6673 48.7292 70.6642 48.5044L70.6647 48.5044V48.4373ZM72.6665 45.9151C71.9529 45.9798 71.2863 46.2502 70.7824 46.6827C70.505 46.9095 70.2833 47.1811 70.1316 47.4823C69.9798 47.7834 69.9011 48.1076 69.9009 48.4358C69.883 49.0466 70.1217 49.6406 70.5706 50.1156C71.0195 50.5905 71.6505 50.9172 72.353 51.0428C73.0555 51.1684 73.789 51.0858 74.4276 50.8082C75.0661 50.5305 75.5726 50.0738 75.8552 49.5131C76.1382 48.9516 76.1774 48.3237 75.9647 47.7398C75.7523 47.1566 75.3039 46.658 74.7021 46.3266C74.1003 45.9953 73.3805 45.8503 72.6665 45.9151Z" stroke="#191919" stroke-opacity="0.64" stroke-width="0.2"/>
<path d="M78 51V46H78.4557V48.2203H81.5612V46H82V50.9476H81.5612V48.6573H78.4557V50.9476L78 51Z" fill="#191919" fill-opacity="0.64"/>
<path d="M77.9 51V51.1122L78.0114 51.0993L78.4671 51.0469L78.5557 51.0367V50.9476V48.7573H81.4612V50.9476V51.0476H81.5612H82H82.1V50.9476V46V45.9H82H81.5612H81.4612V46V48.1203H78.5557V46V45.9H78.4557H78H77.9V46V51Z" stroke="#191919" stroke-opacity="0.64" stroke-width="0.2"/>
<path d="M85 46H85.4891V50.4103H88.6413V46H89.1305V50.4103H90V52H89.5109V50.8376H85V46Z" fill="#191919" fill-opacity="0.64"/>
<path d="M85 45.9H84.9V46V50.8376V50.9376H85H89.4109V52V52.1H89.5109H90H90.1V52V50.4103V50.3103H90H89.2305V46V45.9H89.1305H88.6413H88.5413V46V50.3103H85.5891V46V45.9H85.4891H85Z" stroke="#191919" stroke-opacity="0.64" stroke-width="0.2"/>
<path d="M92.6795 46.7866C93.0798 46.3613 93.6164 46.0895 94.1962 46.0185C94.776 45.9476 95.3624 46.0818 95.8535 46.3981C96.3446 46.7143 96.7095 47.1925 96.8848 47.7497C97.0601 48.3069 97.0347 48.9079 96.8131 49.4484C96.5915 49.9889 96.1877 50.4346 95.6717 50.7084C95.1557 50.9822 94.5601 51.0666 93.9884 50.9471C93.4166 50.8276 92.9047 50.5116 92.5417 50.054C92.1786 49.5965 91.9872 49.0262 92.0007 48.4422C91.9975 48.1349 92.056 47.8301 92.1726 47.5457C92.2891 47.2614 92.4615 47.0033 92.6795 46.7866ZM92.4477 48.4422C92.442 48.9673 92.6443 49.4732 93.0106 49.8495C93.3812 50.2086 93.877 50.4094 94.393 50.4094C94.9091 50.4094 95.4049 50.2086 95.7755 49.8495C95.9599 49.6654 96.1049 49.4457 96.2017 49.2038C96.2984 48.9618 96.345 48.7027 96.3384 48.4422C96.348 48.1814 96.3028 47.9214 96.2058 47.679C96.1089 47.4367 95.9623 47.2173 95.7755 47.035C95.5952 46.8512 95.38 46.7053 95.1427 46.6057C94.9053 46.5061 94.6505 46.4548 94.393 46.4548C94.1356 46.4548 93.8808 46.5061 93.6434 46.6057C93.4061 46.7053 93.1909 46.8512 93.0106 47.035C92.8186 47.2273 92.6694 47.458 92.5724 47.7118C92.4754 47.9657 92.4329 48.2371 92.4477 48.5085V48.4422Z" fill="#191919" fill-opacity="0.64"/>
<path d="M92.5477 48.4422L92.5452 48.4422C92.5402 48.2052 92.5811 47.9693 92.6658 47.7475C92.7578 47.5067 92.8993 47.288 93.0814 47.1056L93.0814 47.1056L93.0819 47.105C93.253 46.9308 93.457 46.7924 93.6821 46.6979C93.9072 46.6034 94.1489 46.5548 94.393 46.5548C94.6372 46.5548 94.8789 46.6034 95.104 46.6979C95.3291 46.7924 95.5331 46.9308 95.7042 47.105L95.7041 47.105L95.7057 47.1065C95.8825 47.2791 96.0212 47.4868 96.113 47.7162C96.2048 47.9456 96.2475 48.1917 96.2385 48.4386L96.2383 48.4386L96.2385 48.4448C96.2447 48.6917 96.2005 48.9373 96.1088 49.1666C96.0172 49.3957 95.8799 49.6038 95.7054 49.7782C95.3535 50.1189 94.8828 50.3094 94.393 50.3094C93.9035 50.3094 93.4331 50.1191 93.0812 49.7787C92.7437 49.4314 92.5531 48.9681 92.5477 48.4849V48.4422ZM94.1841 45.9193C93.5816 45.993 93.024 46.2752 92.6078 46.7169C92.3809 46.9427 92.2015 47.2116 92.08 47.5078C91.9586 47.804 91.8976 48.1215 91.9007 48.4416C91.887 49.0483 92.086 49.6408 92.4633 50.1162C92.8409 50.592 93.3733 50.9207 93.9679 51.045C94.5625 51.1693 95.1819 51.0815 95.7186 50.7967C96.2552 50.512 96.6752 50.0484 96.9056 49.4863C97.1361 48.9243 97.1625 48.2992 96.9802 47.7197C96.7978 47.1402 96.4184 46.6429 95.9076 46.314C95.3969 45.9851 94.7871 45.8455 94.1841 45.9193Z" stroke="#191919" stroke-opacity="0.64" stroke-width="0.2"/>
<path d="M100 51V46.0005H102.357C102.721 45.9907 103.074 46.1227 103.339 46.3676C103.465 46.4801 103.566 46.6178 103.634 46.7716C103.702 46.9254 103.735 47.0917 103.731 47.2591C103.735 47.4754 103.678 47.6885 103.568 47.8761C103.458 48.0637 103.299 48.2189 103.107 48.3255C103.368 48.4161 103.595 48.5843 103.755 48.8066C103.915 49.029 104 49.2946 103.999 49.5666C104.006 49.7548 103.969 49.942 103.892 50.1144C103.815 50.2869 103.699 50.4402 103.553 50.563C103.266 50.8201 102.888 50.9579 102.5 50.9476L100 51ZM100.464 46.49V48.238H102.357C102.473 48.2404 102.589 48.2199 102.697 48.1779C102.805 48.1359 102.904 48.0732 102.987 47.9934C103.07 47.9136 103.136 47.8185 103.181 47.7134C103.226 47.6083 103.249 47.4954 103.249 47.3815C103.252 47.2668 103.23 47.1529 103.186 47.0467C103.142 46.9405 103.076 46.8443 102.992 46.764C102.909 46.6837 102.809 46.6211 102.7 46.58C102.591 46.5388 102.474 46.5201 102.357 46.5249L100.464 46.49ZM100.464 48.6401V50.563H102.5C102.765 50.563 103.021 50.4628 103.214 50.2833C103.395 50.1006 103.496 49.8561 103.496 49.6015C103.496 49.347 103.395 49.1025 103.214 48.9198C103.121 48.8277 103.009 48.7553 102.886 48.7072C102.763 48.6591 102.632 48.6362 102.5 48.6401H100.464Z" fill="#191919" fill-opacity="0.64"/>
<path d="M99.9 51V51.1021L100.002 51.1L102.499 51.0476C102.912 51.058 103.313 50.9116 103.619 50.6385C103.775 50.5062 103.9 50.3412 103.983 50.1553C104.066 49.9696 104.106 49.7679 104.099 49.565C104.1 49.2725 104.008 48.9871 103.836 48.7482C103.702 48.5612 103.524 48.41 103.318 48.3064C103.454 48.2029 103.568 48.0741 103.654 47.9266C103.773 47.7239 103.834 47.4935 103.831 47.2594C103.835 47.078 103.799 46.8979 103.725 46.7313C103.652 46.5646 103.543 46.4153 103.406 46.2935C103.122 46.0315 102.744 45.8904 102.355 45.9005H100H99.9V46.0005V51ZM102.359 48.1381L102.359 48.138H102.357H100.564V46.5918L102.355 46.6249L102.355 46.6251L102.361 46.6249C102.465 46.6206 102.568 46.6372 102.665 46.6736C102.761 46.71 102.849 46.7653 102.923 46.8361C102.997 46.907 103.055 46.9917 103.094 47.0851C103.133 47.1785 103.152 47.2786 103.149 47.3793L103.149 47.3815C103.149 47.4819 103.129 47.5813 103.089 47.674C103.05 47.7666 102.991 47.8507 102.918 47.9213C102.844 47.9918 102.757 48.0474 102.661 48.0847C102.565 48.122 102.462 48.1401 102.359 48.1381ZM102.5 48.7401V48.7401L102.502 48.74C102.621 48.7366 102.74 48.7571 102.85 48.8003C102.96 48.8434 103.06 48.9082 103.143 48.9905C103.306 49.1546 103.396 49.3738 103.396 49.6015C103.396 49.8288 103.306 50.0475 103.144 50.2115C102.97 50.3727 102.74 50.463 102.5 50.463H100.564V48.7401H102.5Z" stroke="#191919" stroke-opacity="0.64" stroke-width="0.2"/>
<path d="M106.705 46.7094C107.006 46.4461 107.366 46.2477 107.759 46.1285C108.153 46.0093 108.571 45.9724 108.982 46.0204C109.393 46.0684 109.787 46.2002 110.136 46.4061C110.485 46.6121 110.78 46.887 111 47.2111L110.531 47.3841C110.334 47.0899 110.058 46.8476 109.729 46.6809C109.4 46.5142 109.031 46.4287 108.656 46.4327C108.362 46.4273 108.07 46.4784 107.799 46.5826C107.528 46.6869 107.283 46.842 107.08 47.0381C106.872 47.2311 106.709 47.4608 106.599 47.7134C106.49 47.9661 106.436 48.2365 106.443 48.5085C106.436 49.0571 106.665 49.5858 107.08 49.979C107.318 50.1946 107.604 50.3585 107.919 50.4587C108.234 50.5589 108.569 50.5928 108.9 50.558C109.231 50.5231 109.549 50.4204 109.831 50.2574C110.114 50.0943 110.353 49.875 110.531 49.6157L111 49.7887C110.761 50.1641 110.417 50.474 110.006 50.6868C109.594 50.8996 109.128 51.0075 108.656 50.9996C108.124 50.9848 107.609 50.8275 107.172 50.5469C106.736 50.2664 106.398 49.8746 106.199 49.4196C106 48.9646 105.949 48.466 106.052 47.9847C106.155 47.5034 106.408 47.0603 106.78 46.7094H106.705Z" fill="#191919" fill-opacity="0.64"/>
<path d="M106.639 46.6343L106.44 46.8094H106.544C106.249 47.1421 106.046 47.5382 105.954 47.9637C105.847 48.4657 105.9 48.9856 106.107 49.4596C106.314 49.9336 106.666 50.3403 107.118 50.6311C107.57 50.9218 108.104 51.0843 108.653 51.0996L108.654 51.0996C109.142 51.1078 109.625 50.9962 110.051 50.7757C110.478 50.5551 110.835 50.2333 111.084 49.8424L111.151 49.7378L111.035 49.6948L110.566 49.5218L110.493 49.4949L110.449 49.559C110.279 49.8057 110.051 50.0149 109.781 50.1708C109.511 50.3267 109.207 50.4251 108.889 50.4585C108.572 50.4919 108.251 50.4594 107.949 50.3634C107.648 50.2675 107.374 50.111 107.148 49.9057C106.753 49.5308 106.537 49.0288 106.543 48.5097L106.543 48.5097L106.543 48.5062C106.537 48.2488 106.587 47.9927 106.691 47.7532C106.795 47.5136 106.95 47.2953 107.148 47.1114L107.148 47.1115L107.15 47.11C107.343 46.9235 107.576 46.7755 107.835 46.676C108.094 46.5764 108.373 46.5275 108.654 46.5327L108.657 46.5326C109.016 46.5288 109.37 46.6108 109.684 46.7701C109.998 46.9294 110.261 47.1603 110.448 47.4398L110.492 47.5052L110.566 47.4779L111.035 47.3049L111.154 47.2607L111.083 47.155C110.855 46.8182 110.548 46.5332 110.187 46.32C109.826 46.1068 109.418 45.9707 108.993 45.9211C108.569 45.8715 108.137 45.9096 107.73 46.0328C107.323 46.1559 106.951 46.3612 106.639 46.6343Z" stroke="#191919" stroke-opacity="0.64" stroke-width="0.2"/>
<path d="M114 46H114.382V51H114V46ZM116.519 51L114.58 48.4558L116.406 46H116.887L115.061 48.4558L117 51H116.519Z" fill="#191919" fill-opacity="0.64"/>
<path d="M114 45.9H113.9V46V51V51.1H114H114.382H114.482V51V48.492L114.501 48.5164L116.439 51.0606L116.469 51.1H116.519H117H117.202L117.08 50.9394L115.186 48.4551L116.967 46.0597L117.086 45.9H116.887H116.406H116.355L116.325 45.9403L114.5 48.3962L114.482 48.4202V46V45.9H114.382H114Z" stroke="#191919" stroke-opacity="0.64" stroke-width="0.2"/>
<path d="M120 51V46H120.462V50.1433L123.658 46H124V50.9476H123.538V46.8042L120.342 50.9476L120 51Z" fill="#191919" fill-opacity="0.64"/>
<path d="M119.9 51V51.1165L120.015 51.0988L120.357 51.0464L120.397 51.0403L120.421 51.0086L123.438 47.0975V50.9476V51.0476H123.538H124H124.1V50.9476V46V45.9H124H123.658H123.609L123.579 45.9389L120.562 49.85V46V45.9H120.462H120H119.9V46V51Z" stroke="#191919" stroke-opacity="0.64" stroke-width="0.2"/>
<path d="M127 51V45.6327H127.439V50.0804L130.595 45.6327H131V50.9437H130.561V46.496L127.321 51H127ZM128.266 44C128.293 44.2 128.384 44.3825 128.521 44.5144C128.659 44.6464 128.835 44.719 129.017 44.719C129.199 44.719 129.375 44.6464 129.512 44.5144C129.65 44.3825 129.741 44.2 129.768 44H130.156C130.157 44.1513 130.128 44.3009 130.069 44.4375C130.011 44.5741 129.925 44.694 129.819 44.7882C129.599 44.9976 129.315 45.105 129.025 45.0885C128.74 45.0968 128.46 44.9976 128.232 44.807C128.119 44.7138 128.028 44.5919 127.966 44.4515C127.905 44.3111 127.874 44.1562 127.878 44H128.266Z" fill="#191919" fill-opacity="0.64"/>
<path d="M126.9 51V51.1H127H127.321H127.372L127.402 51.0584L130.461 46.8062V50.9437V51.0437H130.561H131H131.1V50.9437V45.6327V45.5327H131H130.595H130.543L130.513 45.5748L127.539 49.7667V45.6327V45.5327H127.439H127H126.9V45.6327V51ZM128.365 43.9866L128.353 43.9H128.266H127.878H127.78L127.778 43.9979C127.774 44.1684 127.807 44.3377 127.875 44.4917C127.942 44.6457 128.043 44.7804 128.168 44.8839C128.413 45.0884 128.715 45.1965 129.024 45.1886C129.34 45.2054 129.648 45.0874 129.886 44.8619C130.004 44.7576 130.097 44.6258 130.161 44.4768C130.225 44.3273 130.258 44.164 130.256 43.9991L130.255 43.9H130.156H129.768H129.681L129.669 43.9866C129.645 44.1655 129.564 44.3269 129.443 44.4422C129.323 44.5573 129.172 44.619 129.017 44.619C128.862 44.619 128.711 44.5573 128.59 44.4422C128.47 44.3269 128.389 44.1655 128.365 43.9866Z" stroke="#191919" stroke-opacity="0.64" stroke-width="0.2"/>
<path d="M34 48H22" stroke="#191919" stroke-opacity="0.64" stroke-width="0.2"/>
<path d="M34 48H22V49H34V48Z" fill="#191919" fill-opacity="0.64"/>
<path d="M22 47.9H21.9V48V49V49.1H22H34H34.1V49V48V47.9H34H22Z" stroke="#191919" stroke-opacity="0.64" stroke-width="0.2"/>
<path d="M161 48H148" stroke="#191919" stroke-opacity="0.64" stroke-width="0.2"/>
<path d="M161 48H148V49H161V48Z" fill="#191919" fill-opacity="0.64"/>
<path d="M148 47.9H147.9V48V49V49.1H148H161H161.1V49V48V47.9H161H148Z" stroke="#191919" stroke-opacity="0.64" stroke-width="0.2"/>
<path d="M26 24.7929V25H16.034V24.7929H17.3435C17.4373 24.7935 17.5299 24.7708 17.6131 24.727C17.6964 24.6832 17.7679 24.6194 17.8214 24.5413C17.875 24.4632 17.909 24.373 17.9206 24.2786C17.9321 24.1842 17.9209 24.0883 17.8878 23.9993L15.1837 16.9425H6.39113L3.68706 23.9993C3.65395 24.0883 3.6427 24.1842 3.65425 24.2786C3.66581 24.373 3.69982 24.4632 3.75338 24.5413C3.80695 24.6194 3.87846 24.6832 3.96171 24.727C4.04497 24.7708 4.13749 24.7935 4.23129 24.7929H5.71087V25H1V24.7929H1.57823C2.05739 24.7881 2.52448 24.6398 2.92085 24.3666C3.31721 24.0934 3.62519 23.7075 3.80612 23.2574L12.3095 1H14.6734L23.1769 22.9813C23.3928 23.4984 23.7557 23.9386 24.219 24.2458C24.6824 24.5531 25.2254 24.7135 25.7789 24.7067L26 24.7929ZM10.8129 5.45146L6.4762 16.7354H15.1327L10.8129 5.45146Z" fill="#191919" fill-opacity="0.64"/>
<path d="M26.1 24.7929V24.7246L26.0364 24.6998L25.8153 24.6135L25.7971 24.6064L25.7777 24.6067C25.2443 24.6133 24.721 24.4587 24.2743 24.1625C23.8279 23.8665 23.4781 23.4424 23.2697 22.944L14.7667 0.963921L14.742 0.9H14.6734H12.3095H12.2407L12.2161 0.964311L3.71333 23.2201C3.71322 23.2203 3.71311 23.2206 3.713 23.2209C3.53929 23.6526 3.24391 24.0225 2.86409 24.2843C2.48421 24.5461 2.03673 24.6882 1.57778 24.6929H1H0.9V24.7929V25V25.1H1H5.71087H5.81087V25V24.7929V24.6929H5.71087H4.23129L4.23072 24.6929C4.15339 24.6934 4.07706 24.6747 4.0083 24.6385C3.93952 24.6023 3.88029 24.5496 3.83586 24.4848C3.79142 24.42 3.76313 24.3451 3.75351 24.2665C3.74392 24.1881 3.75322 24.1085 3.7806 24.0346C3.78066 24.0344 3.78072 24.0343 3.78079 24.0341L6.45991 17.0425H15.1149L17.794 24.0341C17.7941 24.0343 17.7942 24.0344 17.7942 24.0346C17.8216 24.1085 17.8309 24.188 17.8213 24.2665C17.8117 24.3451 17.7834 24.42 17.739 24.4848C17.6945 24.5496 17.6353 24.6023 17.5665 24.6385C17.4978 24.6747 17.4214 24.6934 17.3441 24.6929H17.3435H16.034H15.934V24.7929V25V25.1H16.034H26H26.1V25V24.7929ZM14.9873 16.6354H6.62176L10.8127 5.73069L14.9873 16.6354Z" stroke="#191919" stroke-opacity="0.64" stroke-width="0.2"/>
<path d="M47 1.11974V6.52531H46.7962C46.7962 5.13703 46.2487 3.80561 45.2741 2.82395C44.2995 1.8423 42.9776 1.29082 41.5994 1.29082H37.4216V13.2652H39.5444C40.7141 13.2606 41.8347 12.7906 42.6618 11.9575C43.4889 11.1244 43.9556 9.99572 43.96 8.81753H44.1638V17.9351H43.96C43.96 16.754 43.4953 15.6209 42.6677 14.7841C41.8402 13.9473 40.7171 13.4749 39.5444 13.4704H37.4216V23.7341C37.4215 24.0125 37.5301 24.2797 37.7239 24.4781C37.9177 24.6765 38.1812 24.7902 38.4576 24.7947H39.7482V25H30V24.7947H31.2737C31.553 24.7947 31.8208 24.683 32.0183 24.4841C32.2158 24.2852 32.3267 24.0154 32.3267 23.7341V2.24876C32.3222 1.97045 32.2093 1.70506 32.0123 1.50985C31.8153 1.31464 31.5501 1.20524 31.2737 1.20528H30V1L47 1.11974Z" fill="#191919" fill-opacity="0.64"/>
<path d="M47.1 1.11974V1.02044L47.0007 1.01975L30.0007 0.900002L29.9 0.899293V1V1.20528V1.30528H30H31.2737H31.2737C31.5236 1.30525 31.7636 1.40415 31.9419 1.58088C32.1201 1.75745 32.2224 1.99756 32.2267 2.24958V23.7341C32.2267 23.9891 32.1261 24.2335 31.9473 24.4136C31.7686 24.5937 31.5262 24.6947 31.2737 24.6947H30H29.9V24.7947V25V25.1H30H39.7482H39.8482V25V24.7947V24.6947H39.7482H38.4584C38.2088 24.6904 37.9707 24.5877 37.7955 24.4082C37.62 24.2286 37.5215 23.9865 37.5216 23.7341V13.5704L39.5441 13.5704C39.5441 13.5704 39.5442 13.5704 39.5443 13.5704C40.6902 13.5749 41.7877 14.0365 42.5966 14.8545C43.4057 15.6725 43.86 16.7802 43.86 17.9351L43.86 18.0351H43.96H44.1638H44.2638V17.9351V8.81753V8.71753H44.1638H43.96H43.8604L43.86 8.81715C43.8557 9.96918 43.3994 11.0726 42.5908 11.887C41.7824 12.7014 40.6873 13.1607 39.5443 13.1652C39.5442 13.1652 39.5441 13.1652 39.5441 13.1652L37.5216 13.1652V1.39082H41.5994C42.9509 1.39082 44.2472 1.93158 45.2031 2.89441C46.159 3.85726 46.6962 5.16332 46.6962 6.52531V6.62531H46.7962H47H47.1V6.52531V1.11974Z" stroke="#191919" stroke-opacity="0.64" stroke-width="0.2"/>
<path d="M60.6132 2.25592V23.7269C60.6132 24.0068 60.7246 24.2756 60.9234 24.4751C61.1222 24.6747 61.3925 24.789 61.6759 24.7936H63V25H53V24.7936H54.3066C54.5931 24.7936 54.8678 24.6812 55.0704 24.4811C55.2729 24.2811 55.3868 24.0098 55.3868 23.7269V2.25592C55.3822 1.97601 55.2664 1.70911 55.0643 1.51277C54.8622 1.31644 54.5901 1.20642 54.3066 1.20646H53V1H63V1.20646H61.6759C61.3955 1.21089 61.1278 1.32289 60.9295 1.51875C60.7311 1.71461 60.6177 1.97897 60.6132 2.25592Z" fill="#191919" fill-opacity="0.64"/>
<path d="M63.1 24.7936V24.6936H63H61.6768C61.4195 24.6893 61.1744 24.5853 60.9943 24.4045C60.814 24.2236 60.7132 23.9802 60.7132 23.7269V2.25676C60.7175 2.00646 60.8201 1.76731 60.9997 1.5899C61.1794 1.41244 61.4222 1.31068 61.6767 1.30646H63H63.1V1.20646V1V0.9H63H53H52.9V1V1.20646V1.30646H53H54.3066H54.3066C54.5643 1.30642 54.8113 1.40642 54.9946 1.5845C55.1777 1.76234 55.2824 2.00379 55.2868 2.25677V23.7269C55.2868 23.9828 55.1838 24.2286 55.0001 24.41C54.8164 24.5914 54.567 24.6936 54.3066 24.6936H53H52.9V24.7936V25V25.1H53H63H63.1V25V24.7936Z" stroke="#191919" stroke-opacity="0.64" stroke-width="0.2"/>
<path d="M99.8696 2.78585C100.562 3.40174 101.111 4.15598 101.478 4.99727C101.845 5.83855 102.022 6.74715 101.998 7.66129C102.019 8.55625 101.85 9.44576 101.5 10.2733C101.15 11.1009 100.628 11.8484 99.9663 12.4683C99.3046 13.0883 98.5181 13.5671 97.6567 13.8744C96.7953 14.1817 95.8777 14.3108 94.9625 14.2534H89.686V23.7296C89.686 24.0119 89.8009 24.2826 90.0054 24.4822C90.2099 24.6819 90.4873 24.794 90.7765 24.794H92.0956V25H82V24.794H83.3367C83.6229 24.7895 83.8957 24.6754 84.0964 24.4762C84.2971 24.2771 84.4096 24.009 84.4096 23.7296V2.25367C84.405 1.97732 84.2906 1.71353 84.0904 1.5181C83.8901 1.32266 83.6198 1.21091 83.3367 1.20648H82V1.00047H95.068C96.8403 0.980536 98.5595 1.59073 99.9047 2.71718L99.8696 2.78585ZM89.686 14.0474H91.9373C94.2765 14.0474 96.651 10.614 96.651 7.66129C96.651 4.70856 94.2765 1.29232 91.9373 1.29232H89.686V14.0474Z" fill="#191919" fill-opacity="0.64"/>
<path d="M92.1956 24.794V24.694H92.0956H90.7765C90.5131 24.694 90.2609 24.5918 90.0753 24.4107C89.8898 24.2296 89.786 23.9846 89.786 23.7296V14.3534H94.9593C95.8871 14.4112 96.817 14.2802 97.6903 13.9686C98.5645 13.6567 99.3629 13.1707 100.035 12.5413C100.706 11.9119 101.237 11.1528 101.592 10.3122C101.947 9.47246 102.119 8.56977 102.098 7.66145C102.122 6.73344 101.942 5.81117 101.57 4.95726C101.207 4.12606 100.67 3.37868 99.9936 2.76296L99.9938 2.76275L100.03 2.69173L99.9689 2.64051C98.6054 1.49869 96.8631 0.880406 95.0674 0.900474H82H81.9V1.00047V1.20648V1.30648H82H83.3359C83.5936 1.3107 83.839 1.41249 84.0205 1.58966C84.2019 1.76673 84.3053 2.00518 84.3096 2.25452V23.7296C84.3096 23.982 84.208 24.2247 84.026 24.4053C83.844 24.5858 83.5963 24.6897 83.3359 24.694H82H81.9V24.794V25V25.1H82H92.0956H92.1956V25V24.794ZM91.9373 13.9474H89.786V1.39232H91.9373C93.0597 1.39232 94.212 2.21562 95.0904 3.4282C95.9662 4.63727 96.551 6.20941 96.551 7.66129C96.551 9.11322 95.9662 10.6897 95.0903 11.9031C94.2118 13.1201 93.0595 13.9474 91.9373 13.9474Z" stroke="#191919" stroke-opacity="0.64" stroke-width="0.2"/>
<path d="M128 24.7929V25H117.635V24.7929H119.015C119.111 24.7907 119.205 24.7661 119.289 24.7211C119.374 24.6761 119.446 24.612 119.499 24.5343C119.553 24.4566 119.587 24.3675 119.598 24.2744C119.609 24.1813 119.597 24.0869 119.563 23.9993L116.751 16.9425H107.625L104.812 23.9993C104.778 24.0883 104.766 24.1842 104.778 24.2786C104.79 24.373 104.826 24.4632 104.881 24.5413C104.937 24.6194 105.011 24.6832 105.098 24.727C105.184 24.7708 105.281 24.7935 105.378 24.7929H106.882V25H102V24.7929H102.601C103.099 24.7859 103.584 24.6367 103.996 24.3638C104.408 24.0909 104.728 23.7062 104.918 23.2574L113.762 1H116.22L124.958 22.9123C125.184 23.428 125.562 23.8669 126.044 24.1739C126.525 24.4809 127.089 24.6422 127.664 24.6377L128 24.7929ZM112.188 5.45146L107.695 16.7354H116.68L112.188 5.45146Z" fill="#191919" fill-opacity="0.64"/>
<path d="M128.1 24.7929V24.729L128.042 24.7022L127.706 24.5469L127.686 24.5375L127.663 24.5377C127.107 24.5421 126.562 24.3861 126.097 24.0896C125.633 23.7934 125.269 23.3703 125.05 22.8736L116.313 0.962961L116.288 0.9H116.22H113.762H113.694L113.669 0.963075L104.826 23.2184C104.826 23.2187 104.826 23.219 104.826 23.2194C104.644 23.6494 104.336 24.0184 103.94 24.2804C103.545 24.5425 103.079 24.686 102.601 24.6929H102H101.9V24.7929V25V25.1H102H106.882H106.982V25V24.7929V24.6929H106.882H105.378L105.378 24.6929C105.296 24.6934 105.215 24.6744 105.143 24.6378C105.071 24.6012 105.009 24.5481 104.963 24.4833C104.916 24.4185 104.887 24.3439 104.877 24.266C104.867 24.1883 104.877 24.1093 104.905 24.0358C104.905 24.0356 104.906 24.0355 104.906 24.0353L107.692 17.0425H116.683L119.47 24.0354C119.47 24.0355 119.47 24.0357 119.47 24.0359C119.498 24.1082 119.508 24.1859 119.499 24.2625C119.49 24.3393 119.462 24.4131 119.417 24.4775C119.373 24.5419 119.313 24.5953 119.242 24.6328C119.172 24.6703 119.094 24.6909 119.014 24.6929H117.635H117.535V24.7929V25V25.1H117.635H128H128.1V25V24.7929ZM116.533 16.6354H107.843L112.188 5.72181L116.533 16.6354Z" stroke="#191919" stroke-opacity="0.64" stroke-width="0.2"/>
<path d="M139.746 14.2668H138.592V23.7312C138.592 24.0132 138.706 24.2835 138.909 24.4829C139.113 24.6823 139.389 24.7943 139.676 24.7943H140.988V25H131V24.7943H132.329C132.614 24.7898 132.885 24.6758 133.085 24.4769C133.285 24.278 133.396 24.0102 133.396 23.7312V2.26487C133.392 1.98887 133.278 1.7254 133.079 1.53021C132.88 1.33502 132.611 1.2234 132.329 1.21899H131V1.01323H143.997C144.906 0.956069 145.817 1.08451 146.672 1.39042C147.528 1.69632 148.309 2.17302 148.967 2.79034C149.625 3.40766 150.144 4.15213 150.493 4.97661C150.842 5.80109 151.013 6.68761 150.994 7.58002C151.059 9.0141 150.607 10.4248 149.718 11.5657C148.829 12.7065 147.56 13.5048 146.131 13.821C145.781 13.9582 145.851 14.2668 139.746 14.2668ZM138.627 14.0611H140.848C143.192 14.0611 145.554 10.632 145.554 7.68291C145.554 4.73385 143.192 1.32186 140.848 1.32186H138.627V14.0611Z" fill="#191919" fill-opacity="0.64"/>
<path d="M141.088 24.7943V24.6943H140.988H139.676C139.415 24.6943 139.164 24.5923 138.979 24.4115C138.795 24.2307 138.692 23.986 138.692 23.7312V14.3668H139.746C142.799 14.3668 144.313 14.2897 145.109 14.1947C145.507 14.1471 145.73 14.0945 145.877 14.043C145.952 14.017 146.005 13.9918 146.051 13.9692C146.061 13.9645 146.069 13.96 146.078 13.9558C146.108 13.9405 146.133 13.9282 146.161 13.9169C147.608 13.5945 148.895 12.7844 149.797 11.6271C150.7 10.4685 151.159 9.03573 151.094 7.5788C151.113 6.67338 150.939 5.77404 150.585 4.93764C150.231 4.10022 149.703 3.34421 149.035 2.71742C148.367 2.09065 147.574 1.60675 146.706 1.29625C145.839 0.986116 144.915 0.855712 143.994 0.913235H131H130.9V1.01323V1.21899V1.31899H131H132.329C132.585 1.3232 132.828 1.42475 133.009 1.60163C133.189 1.77843 133.292 2.01659 133.296 2.26571V23.7312C133.296 23.9833 133.195 24.2258 133.014 24.4061C132.834 24.5863 132.587 24.69 132.329 24.6943H131H130.9V24.7943V25V25.1H131H140.988H141.088V25V24.7943ZM140.848 13.9611H138.727V1.42186H140.848C141.973 1.42186 143.123 2.24413 143.999 3.45508C144.872 4.66258 145.454 6.23276 145.454 7.68291C145.454 9.13309 144.872 10.7076 143.999 11.9194C143.123 13.1348 141.973 13.9611 140.848 13.9611Z" stroke="#191919" stroke-opacity="0.64" stroke-width="0.2"/>
<path d="M178.612 23.1974C179.026 23.6973 179.546 24.097 180.132 24.3673C180.718 24.6376 181.356 24.7717 182 24.7597V24.9657H171.295V24.7597H172.007C172.114 24.7615 172.219 24.7322 172.31 24.6754C172.4 24.6186 172.473 24.5365 172.52 24.439C172.566 24.3414 172.584 24.2325 172.571 24.125C172.558 24.0176 172.515 23.9161 172.447 23.8326L164.402 14.0472V23.7296C164.402 24.0119 164.512 24.2826 164.709 24.4822C164.906 24.6818 165.173 24.794 165.452 24.794H166.722V25H157V24.794H158.287C158.563 24.7895 158.826 24.6754 159.019 24.4762C159.212 24.2771 159.32 24.009 159.32 23.7296V2.25322C159.316 1.97687 159.206 1.71307 159.013 1.51763C158.82 1.32219 158.56 1.21044 158.287 1.20601H157V1H166.722V1.20601H165.452C165.176 1.20598 164.912 1.31576 164.715 1.51167C164.519 1.70759 164.406 1.97392 164.402 2.25322V12.9657L175.852 2.03005C175.919 1.96281 175.966 1.87654 175.985 1.78238C176.003 1.68821 175.994 1.59047 175.958 1.50177C175.921 1.41307 175.859 1.33749 175.78 1.28477C175.701 1.23205 175.608 1.20462 175.513 1.20601H174.327V1H179.121V1.20601C177.733 1.21409 176.398 1.74668 175.377 2.69958L167.772 10.0129L178.646 23.1459L178.612 23.1974Z" fill="#191919" fill-opacity="0.64"/>
<path d="M164.502 14.3263L172.37 23.8958C172.37 23.8958 172.37 23.8959 172.37 23.896C172.426 23.9646 172.461 24.0482 172.472 24.1369C172.482 24.2257 172.468 24.3156 172.429 24.3961C172.391 24.4765 172.331 24.544 172.257 24.5906C172.182 24.6372 172.096 24.6611 172.008 24.6597V24.6597H172.007H171.295H171.195V24.7597V24.9657V25.0657H171.295H182H182.1V24.9657V24.7597V24.6578L181.998 24.6597C181.369 24.6714 180.746 24.5405 180.174 24.2765C179.623 24.0228 179.133 23.6522 178.737 23.1901L178.771 23.1391L178.723 23.0821L167.909 10.0206L175.446 2.77268C175.446 2.77252 175.446 2.77236 175.446 2.77221C176.449 1.83664 177.759 1.31394 179.121 1.30601L179.221 1.30543V1.20601V1V0.9H179.121H174.327H174.227V1V1.20601V1.30601H174.327L175.513 1.30602L175.514 1.306C175.589 1.3049 175.662 1.32646 175.725 1.36803C175.787 1.40961 175.836 1.46938 175.865 1.53979C175.894 1.61021 175.901 1.68788 175.886 1.76272C175.872 1.83726 175.835 1.90539 175.782 1.95846C175.782 1.95867 175.781 1.95888 175.781 1.95909L164.502 12.7319V2.25403C164.506 2.00083 164.608 1.7597 164.786 1.58248C164.964 1.40513 165.203 1.30598 165.452 1.30601H166.722H166.822V1.20601V1V0.9H166.722H157H156.9V1V1.20601V1.30601H157H158.286C158.532 1.31021 158.767 1.41112 158.942 1.58787C159.116 1.76466 159.216 2.0035 159.22 2.25402V23.7296C159.22 23.9832 159.122 24.2263 158.947 24.4066C158.772 24.5867 158.535 24.6897 158.286 24.694H157H156.9V24.794V25V25.1H157H166.722H166.822V25V24.794V24.694H166.722H165.452C165.2 24.694 164.959 24.5927 164.781 24.412C164.602 24.2313 164.502 23.9858 164.502 23.7296V14.3263Z" stroke="#191919" stroke-opacity="0.64" stroke-width="0.2"/>
</svg>
