<svg width="190" height="55" viewBox="0 0 190 55" fill="none" xmlns="http://www.w3.org/2000/svg">
<g clip-path="url(#clip0_2732_2499)">
<path d="M41.8349 50.5687C41.8349 51.0032 41.6606 51.3507 41.3119 51.6983C41.4862 51.7852 41.5734 51.872 41.7477 51.9589C41.922 52.0458 42.0092 52.2196 42.0963 52.3065C42.1835 52.4803 42.2706 52.5671 42.3578 52.7409C42.445 52.9147 42.445 53.0885 42.445 53.2622C42.445 53.6967 42.2706 54.1311 41.922 54.4787C41.5734 54.8262 41.2248 55 40.7018 55H38.5229V49.1785H40.4404C40.789 49.1785 41.1376 49.3523 41.3991 49.613C41.7477 49.8736 41.8349 50.2212 41.8349 50.5687ZM38.9587 51.6114H40.3532C40.6147 51.6114 40.8761 51.5245 41.0505 51.3507C41.2248 51.1769 41.3119 50.9163 41.3119 50.6556C41.3119 50.3949 41.2248 50.1343 41.0505 49.9605C40.8761 49.7867 40.6147 49.6998 40.3532 49.6998H38.9587V51.6114ZM51.3349 49.1785V52.9147C51.3349 53.5229 51.0734 54.0442 50.7248 54.4787C50.289 54.8262 49.7661 55.0869 49.156 55.0869C48.5459 55.0869 48.0229 54.9131 47.5872 54.4787C47.1514 54.0442 46.9771 53.5229 46.9771 52.9147V49.1785H47.4128V52.9147C47.4128 53.3491 47.5872 53.7836 47.9358 54.1311C48.2844 54.4787 48.7202 54.6525 49.156 54.6525C49.5917 54.6525 50.0275 54.4787 50.3761 54.1311C50.7248 53.7836 50.8991 53.3491 50.8991 52.9147V49.1785H51.3349ZM57.4358 49.0916C57.8716 49.0916 58.2202 49.2654 58.4816 49.5261L58.133 49.8736C57.9587 49.613 57.6972 49.5261 57.4358 49.5261C57.1743 49.5261 56.9128 49.613 56.7385 49.7867C56.5642 49.9605 56.4771 50.2212 56.4771 50.4818C56.4771 50.8294 56.6514 51.09 56.8257 51.2638C56.9128 51.3507 57.0872 51.4376 57.2615 51.4376C57.4358 51.5245 57.5229 51.6114 57.6972 51.6114C57.9587 51.6983 58.3073 51.872 58.5688 52.1327C58.8303 52.3934 59.0046 52.7409 59.0046 53.2622C59.0046 53.6967 58.8303 54.1311 58.4816 54.4787C58.133 54.7393 57.7844 54.9131 57.2615 54.9131C56.8257 54.9131 56.3899 54.7393 56.0413 54.4787L56.3899 54.1311C56.6514 54.3918 56.9128 54.4787 57.2615 54.4787C57.6101 54.4787 57.8716 54.3918 58.133 54.1311C58.3945 53.8705 58.4816 53.6098 58.4816 53.2622C58.4816 52.8278 58.3073 52.4803 58.0459 52.3934C57.7844 52.2196 57.5229 52.0458 57.1743 51.9589C56.9128 51.872 56.5642 51.6983 56.3027 51.5245C56.0413 51.3507 55.9541 51.0032 55.9541 50.4818C55.9541 50.1343 56.1284 49.7867 56.3899 49.4392C56.6514 49.2654 57 49.0916 57.4358 49.0916ZM63.9725 55H63.5367V49.1785H63.9725V55ZM68.7661 49.1785H69.5505L72.6881 54.5656V49.1785H73.1239V55H72.3394L69.2018 49.613V55H68.7661V49.1785ZM77.9174 49.1785H81.3165V49.613H78.3532V51.4376H80.3578V51.9589H78.3532V54.4787H81.3165V54.9131H77.9174V49.1785ZM87.156 49.0916C87.5917 49.0916 87.9404 49.2654 88.2018 49.5261L87.8532 49.8736C87.6789 49.613 87.4174 49.5261 87.156 49.5261C86.8945 49.5261 86.633 49.613 86.4587 49.7867C86.2844 49.9605 86.1973 50.2212 86.1973 50.4818C86.1973 50.8294 86.3716 51.09 86.5459 51.2638C86.633 51.3507 86.8073 51.4376 86.9817 51.4376C87.156 51.5245 87.2431 51.6114 87.4174 51.6114C87.6789 51.6983 88.0275 51.872 88.289 52.1327C88.5505 52.3934 88.7248 52.7409 88.7248 53.2622C88.7248 53.6967 88.5505 54.1311 88.2018 54.4787C87.8532 54.7393 87.5046 54.9131 86.9817 54.9131C86.5459 54.9131 86.1101 54.7393 85.7615 54.4787L86.1101 54.1311C86.3716 54.3918 86.633 54.4787 86.9817 54.4787C87.3303 54.4787 87.5917 54.3918 87.8532 54.1311C88.1147 53.8705 88.2018 53.6098 88.2018 53.2622C88.2018 52.8278 88.0275 52.4803 87.7661 52.3934C87.5046 52.2196 87.2431 52.0458 86.8945 51.9589C86.633 51.872 86.2844 51.6983 86.0229 51.5245C85.7615 51.3507 85.6743 51.0032 85.6743 50.4818C85.6743 50.1343 85.8486 49.7867 86.1101 49.4392C86.4587 49.2654 86.7202 49.0916 87.156 49.0916ZM94.5642 49.0916C95 49.0916 95.3486 49.2654 95.6101 49.5261L95.2615 49.8736C95.0872 49.613 94.8257 49.5261 94.5642 49.5261C94.3027 49.5261 94.0413 49.613 93.867 49.7867C93.6927 49.9605 93.6055 50.2212 93.6055 50.4818C93.6055 50.8294 93.7798 51.09 94.0413 51.2638C94.1284 51.3507 94.3027 51.4376 94.4771 51.4376C94.6514 51.5245 94.7385 51.6114 94.9128 51.6114C95.1743 51.6983 95.5229 51.872 95.7844 52.1327C96.0459 52.3934 96.2202 52.7409 96.2202 53.2622C96.2202 53.6967 96.0459 54.1311 95.6973 54.4787C95.3486 54.7393 95 54.9131 94.4771 54.9131C94.0413 54.9131 93.6055 54.7393 93.2569 54.4787L93.6055 54.1311C93.867 54.3918 94.1284 54.4787 94.4771 54.4787C94.8257 54.4787 95.0872 54.3918 95.3486 54.1311C95.6101 53.8705 95.6973 53.6098 95.6973 53.2622C95.6973 52.8278 95.5229 52.4803 95.2615 52.3934C95 52.2196 94.7385 52.0458 94.3899 51.9589C94.1284 51.872 93.7798 51.6983 93.5183 51.5245C93.2569 51.3507 93.1697 51.0032 93.1697 50.4818C93.1697 50.1343 93.344 49.7867 93.6055 49.4392C93.867 49.2654 94.2156 49.0916 94.5642 49.0916ZM109.555 54.3918C109.119 54.7393 108.596 55 107.986 55C107.376 55 106.853 54.8262 106.417 54.3918C105.982 53.9573 105.807 53.436 105.807 52.8278V51.2638C105.807 50.6556 105.982 50.1343 106.417 49.6998C106.853 49.2654 107.376 49.0916 107.986 49.0916C108.596 49.0916 109.119 49.2654 109.555 49.6998L109.206 50.0474C108.858 49.6998 108.509 49.5261 107.986 49.5261C107.55 49.5261 107.115 49.6998 106.766 50.0474C106.417 50.3949 106.243 50.7425 106.243 51.2638V52.9147C106.243 53.3491 106.417 53.7836 106.766 54.1311C107.115 54.4787 107.55 54.6525 107.986 54.6525C108.422 54.6525 108.858 54.4787 109.206 54.1311L109.555 54.3918ZM114.261 49.1785H117.661V49.613H114.697V51.4376H116.702V51.9589H114.697V54.4787H117.661V54.9131H114.261V49.1785ZM122.193 49.1785H122.977L126.115 54.5656V49.1785H126.55V55H125.766L122.628 49.613V55H122.193V49.1785ZM134.917 49.1785V49.613H133.174V55H132.739V49.613H130.995V49.1785H134.917ZM139.45 49.1785H141.367C141.89 49.1785 142.326 49.3523 142.761 49.7867C143.11 50.1343 143.372 50.6556 143.372 51.1769C143.372 51.6114 143.284 51.9589 143.023 52.2196C142.761 52.5671 142.5 52.8278 142.151 52.9147L143.372 55H142.849L141.716 53.0016C141.541 53.0016 141.454 53.0016 141.454 53.0016H139.972V54.9131H139.45V49.1785ZM141.367 52.5671C141.803 52.5671 142.151 52.3934 142.413 52.1327C142.674 51.872 142.849 51.5245 142.849 51.09C142.849 50.6556 142.674 50.3081 142.413 50.0474C142.151 49.7867 141.803 49.613 141.367 49.613H139.885V52.5671H141.367ZM148.078 49.1785H151.477V49.613H148.514V51.4376H150.518V51.9589H148.514V54.4787H151.477V54.9131H148.078V49.1785ZM35.1239 21.1137C35.7339 20.5924 36.1697 19.8973 36.6055 19.1153C37.3028 17.4645 37.6514 14.684 37.6514 10.7741C37.6514 7.47235 37.3899 5.56082 36.7798 4.2575C35.4725 1.39021 32.945 0 29.1101 0H29.0229C25.6239 0 23.3578 0.955766 22.1376 2.78041C21.0917 4.43128 20.5688 7.1248 20.5688 11.4692C20.5688 14.2496 20.7431 16.248 21.0917 17.6382C21.5275 19.2891 22.3119 20.5055 23.3578 21.3744C23.445 21.4613 23.6193 21.5482 23.7064 21.6351C23.7936 21.722 23.8807 21.722 23.9679 21.8088C24.055 21.8957 24.1422 21.8957 24.2294 21.9826C25.5367 22.6777 27.2798 23.0253 29.4587 23.0253C30.8532 23.0253 31.9862 22.8515 32.945 22.504C36.5183 26.327 41.2248 29.0205 46.5413 30.8452C41.2248 27.6303 37.4771 23.981 35.1239 21.1137ZM33.2936 18.7678C32.1605 17.1169 31.6376 16.0742 31.6376 16.0742H28.5872C29.4587 17.8989 30.5046 19.5498 31.7248 21.0269C31.0275 21.5482 30.156 21.8088 29.0229 21.8088C26.9312 21.8088 25.5367 20.94 24.8394 19.2891C24.3165 17.9858 24.055 15.5529 24.055 11.7299C24.055 6.69036 24.4908 3.90995 25.4495 2.69352C26.3211 1.56398 27.4541 1.04265 28.9358 1.04265H29.0229C30.6789 1.12954 31.8991 1.65087 32.6835 2.69352C33.4679 3.73618 33.9037 5.99526 33.9037 9.90521C33.9908 14.4234 33.7294 17.2907 33.2936 18.7678ZM125.592 27.4566C104.587 27.4566 93.1697 36.0585 68.9404 36.0585C55.6055 36.0585 45.4083 33.9731 37.1284 28.4123C43.8394 35.9716 54.6468 44.2259 69.6376 44.2259C92.9083 44.2259 108.248 32.3223 132.826 32.3223C146.422 32.3223 153.83 35.5371 153.83 35.5371C150.867 32.8436 143.11 27.4566 125.592 27.4566ZM10.2844 0.521327H9.32569C8.01835 0.521327 6.88532 0.608215 6.18807 2.69352L0 21.722H1.3945L3.74771 14.1627C3.83486 13.8152 4.09633 13.7283 4.27064 13.7283H10.3716C10.7202 13.7283 10.9817 13.7283 11.0688 13.8152C11.156 13.9021 11.2431 14.0758 11.3303 14.4234C11.3303 14.4234 12.289 17.3776 12.9862 19.376C13.5092 21.0269 14.4679 21.722 15.2523 21.722H17.4312L10.2844 0.521327ZM10.1972 12.5118H4.88073C4.53211 12.5118 4.44495 12.3381 4.53211 12.0774L7.49541 2.51975L10.5459 11.9036C10.7202 12.2512 10.5459 12.5118 10.1972 12.5118ZM70.5092 0.521327H69.5505C68.2431 0.521327 67.1101 0.608215 66.4128 2.69352L60.2248 21.722H61.6193L63.9725 14.1627C64.0596 13.8152 64.3211 13.7283 64.4954 13.7283H70.5963C70.945 13.7283 71.2064 13.7283 71.2936 13.8152C71.3807 13.9021 71.4679 14.0758 71.555 14.4234C71.555 14.4234 72.5138 17.3776 73.211 19.376C73.7339 21.0269 74.6927 21.722 75.4771 21.722H77.656L70.5092 0.521327ZM70.422 12.5118H65.1055C64.7569 12.5118 64.6697 12.3381 64.7569 12.0774L67.7202 2.51975L70.7706 11.9036C70.945 12.2512 70.8578 12.5118 70.422 12.5118ZM116.702 0.521327H115.743C114.436 0.521327 113.303 0.608215 112.605 2.69352L106.417 21.722H107.812L110.165 14.1627C110.252 13.8152 110.514 13.7283 110.688 13.7283H116.789C117.138 13.7283 117.399 13.7283 117.486 13.8152C117.573 13.9021 117.661 14.0758 117.748 14.4234C117.748 14.4234 118.706 17.3776 119.404 19.376C119.927 21.0269 120.885 21.722 121.67 21.722H123.849L116.702 0.521327ZM116.615 12.5118H111.298C110.95 12.5118 110.862 12.3381 110.95 12.0774L113.913 2.51975L116.963 11.9036C117.138 12.2512 117.05 12.5118 116.615 12.5118ZM56.0413 0.521327V17.5513C56.0413 18.594 55.6927 19.4629 54.9083 20.158C54.0367 20.8531 52.6422 21.2006 50.7248 21.2006C48.8945 21.2006 47.5872 20.6793 46.8899 19.7235C46.367 19.1153 46.1927 17.9858 46.1927 16.248V0.521327H44.8853C43.7523 0.521327 42.8807 1.39021 42.8807 2.51975V16.5087C42.8807 17.5513 42.8807 18.3333 42.9679 18.6809C43.1422 19.376 43.4037 19.9842 43.9266 20.5924C45.2339 21.9826 47.4128 22.7646 50.6376 22.7646C52.9908 22.7646 54.7339 22.2433 55.867 21.2006C56.4771 20.5924 56.9128 19.8104 57.1743 19.0284C57.3486 18.4202 57.4358 17.5513 57.4358 16.248V0.521327H56.0413ZM140.757 20.6793C140.147 20.6793 139.624 20.2449 139.101 19.2022L135.963 13.6414C137.183 13.5545 137.881 13.3807 138.142 13.3807C138.839 13.207 139.45 12.7725 139.885 12.2512C140.495 11.3823 140.757 10.079 140.757 8.34123V5.30016C140.757 3.47551 140.321 2.1722 139.362 1.39021C138.665 0.781991 137.445 0.434439 135.789 0.434439H129.427C128.294 0.434439 127.422 1.30332 127.422 2.43286V21.722H128.817C129.95 21.722 130.821 20.8531 130.821 19.7235V13.5545H132.826L134.046 15.9874L136.138 20.158C136.661 21.2006 137.532 21.722 138.839 21.722H141.367V20.5924H140.757V20.6793ZM130.734 12.5118V1.65087H133.959C135.092 1.65087 135.876 1.82464 136.399 2.25908C137.009 2.78041 137.358 3.82306 137.358 5.38705V8.25434C137.358 9.81833 137.096 10.9479 136.661 11.5561C136.138 12.1643 135.266 12.425 134.046 12.5118H130.734ZM188.257 17.3776V17.4645C188.257 18.6809 188.083 19.4629 187.734 19.8973C187.385 20.3318 186.688 20.5055 185.642 20.5055H180.849C180.239 20.5055 179.803 20.4186 179.716 20.2449C179.628 20.158 179.628 19.7235 179.628 19.1153V11.3823C179.628 11.2085 179.803 11.1216 179.977 11.1216H183.638C184.161 11.1216 184.509 11.2085 184.683 11.4692C184.858 11.7299 184.945 12.0774 184.945 12.6856V13.7283H186.427V7.29858H184.945V8.68878C184.945 9.21011 184.858 9.47077 184.683 9.64455C184.509 9.73144 184.073 9.81833 183.463 9.81833H180.413C179.977 9.81833 179.803 9.81833 179.716 9.73144C179.628 9.64455 179.628 9.38389 179.628 8.94945V2.8673C179.628 2.34597 179.716 1.99842 179.89 1.82464C180.064 1.73776 180.326 1.65087 180.674 1.65087H185.032C186.078 1.65087 186.775 1.82464 187.124 2.08531C187.56 2.43286 187.821 3.12796 187.821 4.08373C187.821 4.95261 188.605 5.56082 189.564 5.7346V0.521327H178.234C177.101 0.521327 176.229 1.39021 176.229 2.51975V21.722H190V15.6398C188.954 15.9005 188.257 16.4218 188.257 17.3776ZM169.693 0.521327V18.0727L158.711 0.521327H157.839C156.706 0.521327 155.835 1.39021 155.835 2.51975V3.82306V21.722H157.055V4.43128L166.904 20.2449C167.427 21.1137 168.298 21.6351 169.344 21.722H171V0.521327H169.693ZM148.078 0.521327H146.683V21.722H148.078C149.211 21.722 150.083 20.8531 150.083 19.7235V2.51975C150.083 1.47709 149.211 0.521327 148.078 0.521327ZM100.839 0.521327H99.1835L92.211 18.0727L85.4128 0.521327H83.6697C82.5367 0.521327 81.6651 1.39021 81.6651 2.51975V21.722H82.9725V3.64929L89.3349 19.8973C89.7706 21.0269 90.555 21.722 91.6009 21.722H92.3853L99.5321 3.64929V21.722H100.839C101.972 21.722 102.844 20.8531 102.844 19.7235V2.51975C102.844 1.47709 101.972 0.521327 100.839 0.521327ZM38.9587 52.0458V54.5656H40.5275C40.8761 54.5656 41.2248 54.4787 41.4862 54.218C41.7477 53.9573 41.922 53.6967 41.922 53.2622C41.922 52.9147 41.8349 52.654 41.5734 52.3934C41.3119 52.1327 41.0505 52.0458 40.7018 52.0458H40.6147H40.5275H38.9587Z" fill="#555555"/>
</g>
<defs>
<clipPath id="clip0_2732_2499">
<rect width="190" height="55" fill="white"/>
</clipPath>
</defs>
</svg>
