<svg width="128" height="57" viewBox="0 0 128 57" fill="none" xmlns="http://www.w3.org/2000/svg">
<g clip-path="url(#clip0_2732_2544)">
<path d="M63.3945 0.487305C51.3224 0.487305 41.0703 5.11551 41.0703 10.2309C41.0703 15.4072 51.2618 19.9745 63.3945 19.9745C75.4665 19.9745 85.7187 15.3463 85.7187 10.2309C85.658 5.11551 75.4665 0.487305 63.3945 0.487305Z" fill="#555555"/>
<path d="M63.3957 0C75.3464 0 86.2052 4.56731 86.2052 10.2917C86.2052 16.016 75.3464 20.5833 63.3957 20.5833C51.445 20.5833 40.5862 16.016 40.5862 10.2917C40.5255 4.56731 51.445 0 63.3957 0Z" fill="#555555"/>
<path d="M43.4961 10.2915C43.4961 5.2979 52.4136 1.21777 63.3937 1.21777C74.3738 1.21777 83.2914 5.237 83.2914 10.2306C83.2914 15.2242 74.3738 19.2434 63.3937 19.2434C52.4136 19.3043 43.4961 15.2851 43.4961 10.2915Z" fill="white"/>
<path d="M53.9337 12.6057V12.4839C53.4483 11.8749 52.963 11.205 52.5384 10.5352C55.0863 11.9358 57.5735 13.3973 60.4853 14.1281C61.2133 14.2499 62.2446 14.4326 62.8512 14.0672C63.5185 13.3973 62.9725 12.0576 64.5498 11.9358C67.0976 11.5704 69.5242 12.423 71.5867 13.58C72.0114 13.8845 72.4967 14.2499 72.7393 14.5544L72.1327 16.6249C69.9488 14.6762 66.7337 13.4582 63.6398 14.1281C62.1839 14.4935 63.2152 16.1986 61.3953 16.3204C59.1507 16.3813 57.3308 15.4679 55.4502 14.6762C54.237 14.0672 52.963 13.4582 51.8711 12.7275L53.9337 12.6057Z" fill="#555555"/>
<path d="M55.0842 8.70813L53.6282 6.82031H53.7496C56.6007 8.34275 59.3913 10.1088 62.8491 10.4742C63.3344 10.4742 63.8804 10.4133 64.1837 10.1088C64.5477 9.4389 64.3657 8.34275 65.5789 8.16006C68.5515 7.73377 71.524 8.76903 73.6472 10.4742L73.8898 10.7177C73.7079 11.4485 73.5259 12.1184 73.2832 12.8492C71.2813 11.0831 68.6728 10.0479 65.7003 10.1697C65.0936 10.2915 64.305 10.3524 64.0017 10.9004C63.6984 11.4485 63.8804 12.3011 62.8491 12.4838C61.0898 12.7883 59.4519 11.9966 57.9353 11.4485C56.2368 10.7177 54.5382 9.86519 52.9609 8.89083L55.0842 8.82993V8.70813Z" fill="#555555"/>
<path d="M56.1154 5.05481L54.6595 3.16699C56.2974 4.01956 58.2386 5.54199 62.1818 6.57725C63.0311 6.75994 64.1837 7.00353 64.9116 6.63815C65.6396 5.90738 65.2149 4.56763 66.8529 4.44584C69.9467 4.20225 72.8585 5.23751 74.9211 7.18622C74.6784 7.8561 74.4965 8.58686 74.2538 9.25674C72.1912 7.42981 69.5827 6.39456 66.6709 6.51635C66.0642 6.57725 65.3363 6.63815 65.0329 7.18622C64.669 7.7343 64.9116 8.64776 63.8803 8.83045C62.0604 9.13494 60.3619 8.28238 58.7239 7.7343C57.086 7.06443 55.5088 6.27276 53.9922 5.2984L56.0547 5.23751L56.1154 5.05481Z" fill="#555555"/>
<path d="M6.9763 36.2945C6.55166 36.5381 5.8237 36.9034 5.03507 36.9034C3.57915 36.9034 2.12322 35.5028 2.12322 32.2143C2.12322 29.2304 3.39716 27.5252 5.1564 27.5252C5.94502 27.5252 6.55166 27.7688 7.03697 28.0124L7.15829 28.0733L7.6436 26.9772L7.58294 26.9163C6.73365 26.49 5.8237 26.3682 5.03507 26.3682C1.75924 26.3073 0 29.0477 0 32.2752C0 35.4419 1.57725 38.1214 4.73175 38.1214C6.00569 38.1214 6.91564 37.6951 7.58294 37.3297L7.6436 37.2688L7.09763 36.1727L6.9763 36.2945Z" fill="#555555"/>
<path d="M12.9217 32.8239H13.4677L16.7435 38.0002H18.9881L15.2269 32.5194C17.2895 32.0323 17.8961 30.5707 17.8961 29.2919C17.8961 28.622 17.6535 27.5258 16.5615 26.9169C15.7122 26.4297 14.9236 26.4297 13.7103 26.4297H10.9805V37.9393H12.861V32.8239H12.9217ZM12.9217 27.6476H13.6497C13.8923 27.6476 14.1956 27.6476 14.499 27.6476C14.7416 27.6476 15.0449 27.7085 15.2269 27.8303C15.6516 28.0739 15.9549 28.5002 15.9549 29.4746C15.9549 31.6669 14.4383 31.6669 13.5283 31.6669H12.9217V27.6476Z" fill="#555555"/>
<path d="M25.1141 38.1221C27.7226 38.1221 29.7852 35.9907 29.7852 32.0323C29.7852 27.5868 27.3587 26.2471 25.2961 26.2471C22.8089 26.2471 20.625 28.1958 20.625 32.1541C20.625 36.1734 22.6269 38.1221 25.1141 38.1221ZM22.6876 32.2759C22.6876 28.9266 23.7188 27.465 25.2354 27.465C27.48 27.465 27.662 30.7535 27.662 32.2759C27.662 36.2342 26.1454 37.0259 25.1748 37.0259C24.0222 36.965 22.6876 35.8689 22.6876 32.2759Z" fill="#555555"/>
<path d="M36.3379 38.0002L38.4004 29.5964L40.3417 38.0002H41.6156L44.4061 26.4297H43.0715L41.191 34.5899L39.3104 26.4297H38.0365L36.0952 34.6508L34.2753 26.4297H32.2734L35.1246 38.0002H36.3379Z" fill="#555555"/>
<path d="M49.5632 29.8399L54.841 38.0002H56.1149V26.4297H54.7196V34.5899L49.4419 26.4297H48.168V38.0002H49.5632V29.8399Z" fill="#555555"/>
<path d="M67.1544 36.7214H62.9686V32.6412H66.7904V31.4233H62.9686V27.6476H67.0937V26.4297H61.0273V38.0002H67.1544V36.7214Z" fill="#555555"/>
<path d="M79.1639 32.9454H80.5591C83.4103 32.9454 84.5023 31.1793 84.5023 29.4742C84.5023 28.8652 84.3809 27.7082 83.3497 27.0383C82.5004 26.4902 81.5904 26.4902 80.2558 26.4902H77.2227V37.9998H79.1639V32.9454ZM79.1639 27.6473H80.1952C80.4378 27.6473 80.7411 27.6473 80.9838 27.6473C81.2264 27.6473 81.5298 27.7082 81.7118 27.83C82.1364 28.0736 82.4397 28.4999 82.4397 29.4742C82.4397 31.5447 81.2871 31.7274 80.1345 31.7274H79.1032V27.6473H79.1639Z" fill="#555555"/>
<path d="M94.0896 36.7214H90.0858V26.4297H88.1445V38.0002H94.0896V36.7214Z" fill="#555555"/>
<path d="M98.882 34.2242H102.036L103.25 37.9998H105.312L101.369 26.4902H100.156L96.2734 37.9998H97.7294L98.882 34.2242ZM100.459 29.2306L101.672 33.1281H99.246L100.459 29.2306Z" fill="#555555"/>
<path d="M115.32 27.4649V26.4297H107.858V27.6476H113.075L107.555 36.9649V38.0002H115.623V36.7214H109.799L115.32 27.4649Z" fill="#555555"/>
<path d="M121.511 26.4297L117.629 37.9393H119.085L120.298 34.1637H123.453L124.666 37.9393H126.728L122.785 26.4297H121.511ZM120.601 33.0675L121.815 29.1701L123.028 33.0675H120.601Z" fill="#555555"/>
<path d="M115.564 43.6025H10.9805V44.3942H115.564V43.6025Z" fill="#555555"/>
<path d="M127.575 26.6125C127.332 26.3689 127.029 26.2471 126.665 26.2471C126.301 26.2471 125.997 26.3689 125.755 26.6125C125.512 26.856 125.391 27.1605 125.391 27.5259C125.391 27.8913 125.512 28.1958 125.755 28.4394C125.997 28.683 126.301 28.8048 126.665 28.8048C127.029 28.8048 127.332 28.683 127.575 28.4394C127.817 28.1958 127.938 27.8913 127.938 27.5259C127.999 27.1605 127.878 26.856 127.575 26.6125ZM127.453 28.3176C127.211 28.5612 126.968 28.683 126.665 28.683C126.361 28.683 126.058 28.5612 125.876 28.3176C125.633 28.074 125.573 27.8304 125.573 27.5259C125.573 27.2214 125.694 26.9169 125.876 26.7343C126.119 26.4907 126.361 26.3689 126.665 26.3689C126.968 26.3689 127.271 26.4907 127.453 26.7343C127.696 26.9778 127.757 27.2214 127.757 27.5259C127.817 27.8304 127.696 28.1349 127.453 28.3176Z" fill="#555555"/>
<path d="M127.213 28.0738V27.952C127.213 27.8911 127.213 27.8302 127.152 27.7084C127.092 27.6475 127.031 27.5866 126.91 27.5866C126.97 27.5866 127.092 27.5257 127.092 27.5257C127.213 27.4648 127.213 27.343 127.213 27.2212C127.213 27.0385 127.152 26.9167 126.97 26.8558C126.91 26.7949 126.728 26.7949 126.606 26.7949H126.121V28.2565H126.364V27.7084H126.546C126.667 27.7084 126.788 27.7084 126.849 27.7693C126.97 27.8302 126.97 27.952 126.97 28.0738V28.1956V28.2565L127.213 28.3174C127.213 28.2565 127.213 28.2565 127.213 28.1956C127.213 28.1347 127.213 28.0738 127.213 28.0738ZM126.849 27.4648C126.788 27.4648 126.728 27.5257 126.606 27.5257H126.364V26.9776H126.606C126.728 26.9776 126.849 26.9776 126.91 27.0385C126.97 27.0994 127.031 27.1603 127.031 27.2212C127.031 27.343 126.97 27.4039 126.849 27.4648Z" fill="#555555"/>
<path d="M26.7529 52.7982H24.4476V50.3623H23.2344V56.8174H24.4476V53.9553H26.7529V56.8174H27.9661V50.3623H26.7529V52.7982Z" fill="#555555"/>
<path d="M31.7262 50.1191C30.8769 50.1191 30.2703 50.3627 29.785 50.8499C29.1783 51.4589 28.875 52.3114 28.875 53.5294C28.875 54.6864 29.1783 55.5999 29.785 56.2089C30.2096 56.6961 30.8769 56.9396 31.7262 56.9396C32.5755 56.9396 33.1821 56.6961 33.6674 56.2089C34.2741 55.5999 34.5774 54.6864 34.5774 53.5294C34.5774 52.3114 34.2741 51.4589 33.6674 50.8499C33.1821 50.3627 32.5755 50.1191 31.7262 50.1191ZM32.8788 55.2954C32.5755 55.7217 32.2115 55.9044 31.7262 55.9044C31.2409 55.9044 30.8769 55.7217 30.5736 55.2954C30.2703 54.8691 30.1489 54.3211 30.1489 53.5903C30.1489 52.8595 30.2703 52.3114 30.5736 51.8852C30.8769 51.4589 31.2409 51.2762 31.7262 51.2762C32.2115 51.2762 32.5755 51.4589 32.8788 51.8852C33.1821 52.3114 33.3034 52.8595 33.3034 53.5903C33.3034 54.3211 33.1821 54.8691 32.8788 55.2954Z" fill="#555555"/>
<path d="M35.0039 51.4585H36.7631V56.8174H37.9764V51.4585H39.7357V50.3623H35.0039V51.4585Z" fill="#555555"/>
<path d="M41.6742 54.0162H44.5254V52.8591H41.6742V51.4585H44.768V50.3623H40.4609V56.8174H44.8894V55.6604H41.6742V54.0162Z" fill="#555555"/>
<path d="M47.0726 50.3623H45.8594V56.8174H49.9845V55.6604H47.0726V50.3623Z" fill="#555555"/>
<path d="M53.8698 53.1633L52.8385 52.9197C52.4139 52.7979 52.1712 52.737 52.0499 52.6761C51.8679 52.5543 51.7466 52.3716 51.7466 52.1281C51.7466 51.8845 51.8679 51.7018 52.0499 51.5191C52.2319 51.3973 52.4746 51.3364 52.8385 51.3364C53.1419 51.3364 53.3845 51.3973 53.5665 51.5191C53.8698 51.7018 53.9911 51.9454 54.0518 52.3716H55.2044C55.2044 51.7018 54.9618 51.1537 54.5371 50.7883C54.1125 50.4229 53.5665 50.2402 52.9599 50.2402C52.2319 50.2402 51.6253 50.4229 51.2613 50.7883C50.8973 51.1537 50.6546 51.6409 50.6546 52.2499C50.6546 52.8588 50.8366 53.346 51.2613 53.6505C51.5039 53.8332 51.9286 54.0159 52.5352 54.1377L53.1419 54.3204C53.5058 54.3813 53.8092 54.5031 53.9305 54.6249C54.1125 54.7466 54.1731 54.9293 54.1731 55.112C54.1731 55.4774 53.9911 55.721 53.6272 55.8428C53.4452 55.9037 53.2025 55.9646 52.8992 55.9646C52.4139 55.9646 52.0499 55.8428 51.8679 55.5383C51.7466 55.4165 51.6859 55.1729 51.6253 54.8684H50.4727C50.4727 55.5383 50.7153 56.0864 51.14 56.4518C51.5646 56.8172 52.1712 57.0607 52.9599 57.0607C53.6878 57.0607 54.2945 56.8781 54.7191 56.4518C55.1437 56.0864 55.3257 55.5383 55.3257 54.9902C55.3257 54.3813 55.1438 53.955 54.7798 53.6505C54.6584 53.4069 54.2945 53.2851 53.8698 53.1633Z" fill="#555555"/>
<path d="M62.9698 54.6864C63.1518 54.2601 63.2125 53.8947 63.2125 53.4684H62.1812C62.1812 53.6511 62.1812 53.8338 62.1205 54.0165C62.0599 54.1992 61.9992 54.3819 61.8779 54.5037L61.0286 53.3466C61.3319 53.1639 61.5745 52.9203 61.7565 52.6768C61.9385 52.4332 61.9992 52.1287 61.9992 51.7633C61.9992 51.337 61.8779 50.9716 61.5745 50.728C61.2712 50.4845 60.9679 50.3018 60.5433 50.3018C60.058 50.3018 59.694 50.4236 59.3907 50.728C59.0873 50.9716 58.966 51.337 58.966 51.8242C58.966 52.0678 59.0267 52.3114 59.0873 52.4941C59.2087 52.7377 59.33 52.9203 59.4513 53.1639V53.2857C59.0267 53.5293 58.784 53.8338 58.602 54.1383C58.42 54.4428 58.3594 54.7473 58.3594 55.1736C58.3594 55.6607 58.5414 56.087 58.8447 56.4524C59.2087 56.8178 59.6333 57.0614 60.2399 57.0614C60.6646 57.0614 60.9679 57.0005 61.2712 56.8178C61.4532 56.696 61.6352 56.5742 61.8172 56.3915L62.2418 56.9396H63.6371L62.5452 55.5389C62.7271 55.1736 62.9091 54.93 62.9698 54.6864ZM60.3006 51.3979C60.3613 51.337 60.4826 51.2761 60.6039 51.2761C60.7859 51.2761 60.9072 51.337 60.9679 51.4588C61.0286 51.5806 61.0892 51.7024 61.0892 51.8242C61.0892 52.0069 61.0286 52.1896 60.9072 52.3114C60.8466 52.3723 60.7253 52.4941 60.5433 52.6159C60.3613 52.3723 60.3006 52.2505 60.2399 52.1896C60.1793 52.0678 60.1186 51.946 60.1186 51.8242C60.058 51.6415 60.1793 51.4588 60.3006 51.3979ZM60.8466 55.7825C60.6646 55.9043 60.4826 55.9043 60.3006 55.9043C60.058 55.9043 59.8153 55.8434 59.694 55.6607C59.512 55.478 59.4513 55.2953 59.4513 55.0518C59.4513 54.8691 59.512 54.6864 59.5726 54.5037C59.694 54.321 59.876 54.1383 60.1186 53.9556L61.2106 55.4171C61.1499 55.5998 61.0286 55.7216 60.8466 55.7825Z" fill="#555555"/>
<path d="M71.1591 55.7209V55.2946C71.1591 54.8684 71.0985 54.503 70.9771 54.2594C70.8558 54.0158 70.6738 53.894 70.4312 53.7722C70.7345 53.6504 70.9771 53.4677 71.0985 53.1632C71.2198 52.8587 71.2805 52.5543 71.2805 52.2498C71.2805 52.0062 71.2198 51.7626 71.1591 51.5799C71.0985 51.3972 70.9771 51.2145 70.8558 51.0318C70.7345 50.8491 70.5525 50.6664 70.3098 50.6055C70.0672 50.4837 69.7639 50.4229 69.3999 50.4229H66.6094V56.9389H67.8226V54.3812H69.0359C69.3999 54.3812 69.5819 54.4421 69.7032 54.5639C69.8245 54.6857 69.8852 54.9902 69.8852 55.4164V56.0254C69.8852 56.2081 69.8852 56.3908 69.9459 56.5735C69.9459 56.6344 70.0065 56.7562 70.0065 56.9389H71.3411V56.7562C71.2198 56.6953 71.1591 56.5735 71.0985 56.3908C71.2198 56.2081 71.1591 56.0254 71.1591 55.7209ZM69.7639 53.1023C69.6425 53.1632 69.4606 53.2241 69.1572 53.2241H67.8226V51.4581H69.1572C69.3999 51.4581 69.5819 51.519 69.7032 51.5799C69.9459 51.7017 70.0672 52.0062 70.0672 52.3716C70.1279 52.737 70.0065 52.9805 69.7639 53.1023Z" fill="#555555"/>
<path d="M73.768 54.0162H76.6191V52.8591H73.768V51.4585H76.8618V50.3623H72.5547V56.8174H76.9831V55.6604H73.768V54.0162Z" fill="#555555"/>
<path d="M80.9849 53.1633L79.9537 52.9197C79.529 52.7979 79.2864 52.737 79.165 52.6761C78.983 52.5543 78.8617 52.3716 78.8617 52.1281C78.8617 51.8845 78.983 51.7018 79.165 51.5191C79.347 51.3973 79.5897 51.3364 79.9537 51.3364C80.257 51.3364 80.4996 51.3973 80.6816 51.5191C80.9849 51.7018 81.1063 51.9454 81.1669 52.3716H82.3195C82.3195 51.7018 82.0769 51.1537 81.6522 50.7883C81.2276 50.4229 80.6816 50.2402 80.075 50.2402C79.347 50.2402 78.7404 50.4229 78.3764 50.7883C78.0124 51.1537 77.7698 51.6409 77.7698 52.2499C77.7698 52.8588 77.9518 53.346 78.3764 53.6505C78.6191 53.8332 79.0437 54.0159 79.6503 54.1377L80.257 54.3204C80.621 54.3813 80.9243 54.5031 81.0456 54.6249C81.2276 54.7466 81.2882 54.9293 81.2882 55.112C81.2882 55.4774 81.1063 55.721 80.7423 55.8428C80.5603 55.9037 80.3176 55.9646 80.0143 55.9646C79.529 55.9646 79.165 55.8428 78.983 55.5383C78.8617 55.4165 78.801 55.1729 78.7404 54.8684H77.6484C77.6484 55.5383 77.8911 56.0864 78.3157 56.4518C78.7404 56.8172 79.347 57.0607 80.1356 57.0607C80.8636 57.0607 81.4702 56.8781 81.8949 56.4518C82.3195 56.0864 82.5015 55.5383 82.5015 54.9902C82.5015 54.3813 82.3195 53.955 81.9556 53.6505C81.7736 53.4069 81.4096 53.2851 80.9849 53.1633Z" fill="#555555"/>
<path d="M85.9606 50.1191C85.1113 50.1191 84.5046 50.3627 84.0193 50.8499C83.4127 51.4589 83.1094 52.3114 83.1094 53.5294C83.1094 54.6864 83.4127 55.5999 84.0193 56.2089C84.444 56.6961 85.1113 56.9396 85.9606 56.9396C86.8098 56.9396 87.4165 56.6961 87.9018 56.2089C88.5084 55.5999 88.8117 54.6864 88.8117 53.5294C88.8117 52.3114 88.5084 51.4589 87.9018 50.8499C87.4165 50.3627 86.8098 50.1191 85.9606 50.1191ZM87.1132 55.2954C86.8099 55.7217 86.4459 55.9044 85.9606 55.9044C85.4753 55.9044 85.1113 55.7217 84.808 55.2954C84.5046 54.8691 84.3833 54.3211 84.3833 53.5903C84.3833 52.8595 84.5046 52.3114 84.808 51.8852C85.1113 51.4589 85.4753 51.2762 85.9606 51.2762C86.4459 51.2762 86.8099 51.4589 87.1132 51.8852C87.4165 52.3114 87.5378 52.8595 87.5378 53.5903C87.5378 54.3211 87.4165 54.8691 87.1132 55.2954Z" fill="#555555"/>
<path d="M94.2099 55.7209V55.2946C94.2099 54.8684 94.1492 54.503 94.0279 54.2594C93.9066 54.0158 93.7246 53.894 93.482 53.7722C93.7853 53.6504 94.0279 53.4677 94.1492 53.1632C94.2706 52.8587 94.3312 52.5543 94.3312 52.2498C94.3312 52.0062 94.2706 51.7626 94.2099 51.5799C94.1493 51.3972 94.0279 51.2145 93.9066 51.0318C93.7853 50.8491 93.6033 50.6664 93.3606 50.6055C93.118 50.4837 92.8146 50.4229 92.4507 50.4229H89.6602V56.9389H90.8734V54.3812H92.0867C92.4507 54.3812 92.6327 54.4421 92.754 54.5639C92.8753 54.6857 92.936 54.9902 92.936 55.4164V56.0254C92.936 56.2081 92.936 56.3908 92.9966 56.5735C92.9966 56.6344 93.0573 56.7562 93.0573 56.9389H94.3919V56.7562C94.2706 56.6953 94.2099 56.5735 94.1492 56.3908C94.2099 56.2081 94.2099 56.0254 94.2099 55.7209ZM92.8147 53.1023C92.6933 53.1632 92.5113 53.2241 92.208 53.2241H90.8734V51.4581H92.208C92.4507 51.4581 92.6327 51.519 92.754 51.5799C92.9966 51.7017 93.118 52.0062 93.118 52.3716C93.1786 52.737 93.0573 52.9805 92.8147 53.1023Z" fill="#555555"/>
<path d="M95.0586 51.4585H96.8178V56.8174H98.0918V51.4585H99.7904V50.3623H95.0586V51.4585Z" fill="#555555"/>
<path d="M103.553 53.1633L102.522 52.9197C102.097 52.7979 101.855 52.737 101.733 52.6761C101.552 52.5543 101.43 52.3716 101.43 52.1281C101.43 51.8845 101.552 51.7018 101.733 51.5191C101.915 51.3973 102.158 51.3364 102.522 51.3364C102.825 51.3364 103.068 51.3973 103.25 51.5191C103.553 51.7018 103.675 51.9454 103.735 52.3716H104.888C104.888 51.7018 104.645 51.1537 104.221 50.7883C103.796 50.4229 103.25 50.2402 102.643 50.2402C101.915 50.2402 101.309 50.4229 100.945 50.7883C100.581 51.1537 100.338 51.6409 100.338 52.2499C100.338 52.8588 100.52 53.346 100.945 53.6505C101.188 53.8332 101.612 54.0159 102.219 54.1377L102.825 54.3204C103.189 54.3813 103.493 54.5031 103.614 54.6249C103.796 54.7466 103.857 54.9293 103.857 55.112C103.857 55.4774 103.675 55.721 103.311 55.8428C103.129 55.9037 102.886 55.9646 102.583 55.9646C102.097 55.9646 101.733 55.8428 101.552 55.5383C101.43 55.4165 101.37 55.1729 101.309 54.8684H100.156C100.156 55.5383 100.399 56.0864 100.824 56.4518C101.248 56.8172 101.855 57.0607 102.643 57.0607C103.371 57.0607 103.978 56.8781 104.403 56.4518C104.827 56.0864 105.009 55.5383 105.009 54.9902C105.009 54.3813 104.827 53.955 104.463 53.6505C104.342 53.4069 104.039 53.2851 103.553 53.1633Z" fill="#555555"/>
</g>
<defs>
<clipPath id="clip0_2732_2544">
<rect width="128" height="57" fill="white"/>
</clipPath>
</defs>
</svg>
