<svg width="120" height="61" viewBox="0 0 120 61" fill="none" xmlns="http://www.w3.org/2000/svg">
<mask id="path-1-outside-1_2718_7397" maskUnits="userSpaceOnUse" x="0" y="-0.0322266" width="120" height="61" fill="black">
<rect fill="white" y="-0.0322266" width="120" height="61"/>
<path fill-rule="evenodd" clip-rule="evenodd" d="M12.0098 54.0983C12.0098 55.4845 12.363 56.5956 13.0694 57.4315C13.4046 57.8388 13.829 58.1638 14.3099 58.3812C14.7909 58.5986 15.3154 58.7027 15.843 58.6854C17.0643 58.6854 18.0286 58.286 18.7253 57.4844C19.422 56.6829 19.7717 55.5612 19.7717 54.1221C19.7717 52.6831 19.43 51.5032 18.7491 50.699C18.0683 49.8948 17.1279 49.4927 15.9384 49.4927C15.3986 49.4754 14.8619 49.581 14.369 49.8015C13.876 50.0219 13.4398 50.3515 13.0933 50.7652C12.3674 51.6117 12.0045 52.7254 12.0045 54.0983H12.0098ZM10.4494 54.2174C10.4494 52.3709 10.951 50.8992 11.9541 49.8022C12.9573 48.7053 14.3145 48.1586 16.0258 48.1621C17.6153 48.1621 18.8993 48.6965 19.8777 49.7652C20.8561 50.8339 21.3426 52.2272 21.3373 53.9449C21.3373 55.8055 20.8384 57.2798 19.8406 58.368C18.8427 59.4561 17.5102 60.0002 15.843 60.0002C14.2112 60.0002 12.9078 59.4711 11.9223 58.3971C10.9369 57.3231 10.4547 55.9342 10.4547 54.2174H10.4494ZM34.1962 55.1406C34.1962 58.3839 32.725 60.0037 29.7827 60.0002C26.957 60.0002 25.5441 58.4376 25.5441 55.3126V48.3552H27.0435V55.2464C27.0435 57.5391 28.0069 58.6854 29.9337 58.6854C31.7934 58.6854 32.7233 57.5761 32.7233 55.3575V48.3552H34.1962V55.1406ZM40.6362 49.6488V53.6936H42.382C42.9873 53.7193 43.5787 53.5076 44.0297 53.1037C44.2405 52.9046 44.4063 52.6628 44.5159 52.3945C44.6256 52.1263 44.6766 51.8377 44.6655 51.5482C44.6789 51.2869 44.6338 51.026 44.5334 50.7844C44.433 50.5428 44.28 50.3265 44.0854 50.1514C43.7012 49.8155 43.1396 49.6488 42.4058 49.6488H40.6362ZM47.5239 59.8097H45.7782L43.8734 56.6353C43.611 56.1402 43.2568 55.6994 42.8297 55.3364C42.5003 55.1016 42.103 54.9808 41.6985 54.9925H40.6389V59.8097H39.158V48.3552H42.6469C43.7631 48.3552 44.6373 48.6197 45.2695 49.1488C45.5878 49.4292 45.8385 49.7778 46.0027 50.1685C46.1669 50.5593 46.2405 50.9821 46.2179 51.4053C46.2179 52.9926 45.3684 54.0225 43.6695 54.4951V54.5322C43.9793 54.6634 44.2582 54.858 44.488 55.1036C44.824 55.4967 45.1229 55.92 45.3808 56.3681L47.5239 59.8097ZM73.9331 48.3552L70.7197 59.8097H68.9951L66.6824 51.5561C66.5773 51.17 66.516 50.7734 66.4996 50.3736H66.4678C66.4408 50.7696 66.3716 51.1616 66.2612 51.5429L63.9273 59.8097H62.2186L58.8913 48.3552H60.5311L62.8677 57.0083C62.9717 57.3911 63.0348 57.784 63.0557 58.1802H63.0981C63.1443 57.7828 63.2268 57.3906 63.3445 57.0083L65.8241 48.3552H67.2838L69.6547 57.085C69.7463 57.4446 69.8101 57.8108 69.8455 58.1802H69.8772C69.9123 57.7985 69.9842 57.4211 70.0918 57.0532L72.3436 48.3552H73.9331ZM79.2313 48.3552V59.8097H77.7478V48.3552H79.2313ZM93.7114 59.8097H91.9471L86.1747 50.8974C86.0218 50.6614 85.8914 50.4117 85.7852 50.1514H85.7402C85.7918 50.685 85.8113 51.2212 85.7985 51.7572V59.8097H84.3335V48.3552H86.1879L91.804 57.1114C91.9762 57.3668 92.1337 57.6318 92.2756 57.905H92.3074C92.2457 57.3509 92.2209 56.7932 92.2332 56.2358V48.3552H93.6982L93.7114 59.8097ZM100.292 49.67V58.5003H101.958C103.415 58.5003 104.552 58.1034 105.368 57.3098C106.184 56.5162 106.594 55.4052 106.594 53.974C106.594 52.5429 106.176 51.4688 105.336 50.7493C104.496 50.0297 103.391 49.67 102.024 49.67H100.292ZM98.811 59.8097V48.3552H102.085C103.82 48.3552 105.264 48.8596 106.419 49.8684C107.574 50.8771 108.151 52.2333 108.149 53.937C108.149 55.7111 107.573 57.1335 106.419 58.204C105.266 59.2745 103.782 59.8097 101.966 59.8097H98.811ZM111.967 57.6564C112.381 57.9984 112.859 58.2547 113.373 58.4103C113.911 58.5998 114.477 58.6998 115.047 58.7066C116.658 58.7066 117.463 58.1352 117.461 56.9924C117.464 56.6837 117.371 56.3816 117.196 56.1273C117.007 55.8552 116.765 55.6232 116.486 55.4448C115.936 55.114 115.369 54.8111 114.788 54.5375C113.638 53.9661 112.881 53.437 112.518 52.9502C112.153 52.4659 111.96 51.8739 111.969 51.2678C111.955 50.825 112.053 50.3859 112.254 49.9907C112.454 49.5955 112.751 49.2569 113.116 49.006C113.966 48.422 114.981 48.1287 116.012 48.17C117.154 48.17 117.992 48.3076 118.523 48.5827V50.1937C117.743 49.6914 116.828 49.4411 115.9 49.4768C115.298 49.4508 114.701 49.6046 114.187 49.9186C113.979 50.0467 113.808 50.227 113.692 50.4414C113.576 50.6559 113.518 50.897 113.524 51.1408C113.517 51.3515 113.554 51.5613 113.633 51.7568C113.712 51.9523 113.831 52.1291 113.983 52.2757C114.29 52.5667 114.954 52.9626 115.975 53.4634C117.101 53.9925 117.888 54.5304 118.335 55.0771C118.773 55.5795 119.013 56.2234 119.011 56.8892C119.035 57.3356 118.947 57.781 118.755 58.1851C118.564 58.5892 118.275 58.9393 117.914 59.2039C117.183 59.733 116.168 59.9975 114.87 59.9975C114.335 59.9894 113.802 59.9265 113.281 59.8097C112.813 59.7377 112.364 59.5779 111.956 59.3388L111.967 57.6564ZM34.3472 1.09277C34.6316 0.973376 34.9516 0.970866 35.2378 1.08578C35.524 1.2007 35.7533 1.42376 35.8757 1.7065L49.3174 33.1681C49.3836 33.3096 49.4206 33.4629 49.4262 33.619C49.4318 33.7751 49.4059 33.9307 49.3501 34.0766C49.2942 34.2225 49.2095 34.3556 49.101 34.4681C48.9925 34.5806 48.8625 34.6702 48.7186 34.7314C48.5747 34.7927 48.42 34.8244 48.2636 34.8247C48.1072 34.825 47.9523 34.7939 47.8082 34.7332C47.6641 34.6724 47.5337 34.5834 47.4248 34.4713C47.3159 34.3592 47.2307 34.2264 47.1742 34.0807L33.7273 2.61916C33.6077 2.33519 33.6052 2.01558 33.7203 1.72977C33.8354 1.44396 34.0587 1.21505 34.3419 1.09277H34.3472ZM57.8449 1.09277C58.1293 0.973376 58.4494 0.970866 58.7356 1.08578C59.0218 1.2007 59.251 1.42376 59.3735 1.7065L71.7025 30.5782L84.0368 1.71179C84.0933 1.56613 84.1785 1.43329 84.2874 1.3212C84.3963 1.20911 84.5267 1.12005 84.6708 1.05934C84.8149 0.998618 84.9697 0.967478 85.1261 0.967776C85.2825 0.968073 85.4373 0.999802 85.5812 1.06107C85.725 1.12233 85.8551 1.21189 85.9636 1.32439C86.0721 1.4369 86.1568 1.57005 86.2126 1.71593C86.2685 1.86181 86.2944 2.01743 86.2888 2.17351C86.2832 2.32959 86.2462 2.48295 86.18 2.62445L73.4906 32.3215C73.1939 33.0173 72.8443 34.4246 72.1979 34.7024C71.8786 34.8224 71.5264 34.8224 71.2071 34.7024C70.5581 34.4246 70.1872 32.9617 69.8825 32.258L57.2224 2.62974C57.1616 2.48838 57.1294 2.33644 57.1275 2.18262C57.1257 2.02879 57.1542 1.87612 57.2116 1.73334C57.2689 1.59056 57.3539 1.46049 57.4617 1.35057C57.5695 1.24065 57.6979 1.15304 57.8396 1.09277H57.8449ZM6.9102 49.67H2.48086V53.5005H6.58435V54.802H2.48086V59.8097H1V48.3552H6.9102V49.67Z"/>
</mask>
<path fill-rule="evenodd" clip-rule="evenodd" d="M12.0098 54.0983C12.0098 55.4845 12.363 56.5956 13.0694 57.4315C13.4046 57.8388 13.829 58.1638 14.3099 58.3812C14.7909 58.5986 15.3154 58.7027 15.843 58.6854C17.0643 58.6854 18.0286 58.286 18.7253 57.4844C19.422 56.6829 19.7717 55.5612 19.7717 54.1221C19.7717 52.6831 19.43 51.5032 18.7491 50.699C18.0683 49.8948 17.1279 49.4927 15.9384 49.4927C15.3986 49.4754 14.8619 49.581 14.369 49.8015C13.876 50.0219 13.4398 50.3515 13.0933 50.7652C12.3674 51.6117 12.0045 52.7254 12.0045 54.0983H12.0098ZM10.4494 54.2174C10.4494 52.3709 10.951 50.8992 11.9541 49.8022C12.9573 48.7053 14.3145 48.1586 16.0258 48.1621C17.6153 48.1621 18.8993 48.6965 19.8777 49.7652C20.8561 50.8339 21.3426 52.2272 21.3373 53.9449C21.3373 55.8055 20.8384 57.2798 19.8406 58.368C18.8427 59.4561 17.5102 60.0002 15.843 60.0002C14.2112 60.0002 12.9078 59.4711 11.9223 58.3971C10.9369 57.3231 10.4547 55.9342 10.4547 54.2174H10.4494ZM34.1962 55.1406C34.1962 58.3839 32.725 60.0037 29.7827 60.0002C26.957 60.0002 25.5441 58.4376 25.5441 55.3126V48.3552H27.0435V55.2464C27.0435 57.5391 28.0069 58.6854 29.9337 58.6854C31.7934 58.6854 32.7233 57.5761 32.7233 55.3575V48.3552H34.1962V55.1406ZM40.6362 49.6488V53.6936H42.382C42.9873 53.7193 43.5787 53.5076 44.0297 53.1037C44.2405 52.9046 44.4063 52.6628 44.5159 52.3945C44.6256 52.1263 44.6766 51.8377 44.6655 51.5482C44.6789 51.2869 44.6338 51.026 44.5334 50.7844C44.433 50.5428 44.28 50.3265 44.0854 50.1514C43.7012 49.8155 43.1396 49.6488 42.4058 49.6488H40.6362ZM47.5239 59.8097H45.7782L43.8734 56.6353C43.611 56.1402 43.2568 55.6994 42.8297 55.3364C42.5003 55.1016 42.103 54.9808 41.6985 54.9925H40.6389V59.8097H39.158V48.3552H42.6469C43.7631 48.3552 44.6373 48.6197 45.2695 49.1488C45.5878 49.4292 45.8385 49.7778 46.0027 50.1685C46.1669 50.5593 46.2405 50.9821 46.2179 51.4053C46.2179 52.9926 45.3684 54.0225 43.6695 54.4951V54.5322C43.9793 54.6634 44.2582 54.858 44.488 55.1036C44.824 55.4967 45.1229 55.92 45.3808 56.3681L47.5239 59.8097ZM73.9331 48.3552L70.7197 59.8097H68.9951L66.6824 51.5561C66.5773 51.17 66.516 50.7734 66.4996 50.3736H66.4678C66.4408 50.7696 66.3716 51.1616 66.2612 51.5429L63.9273 59.8097H62.2186L58.8913 48.3552H60.5311L62.8677 57.0083C62.9717 57.3911 63.0348 57.784 63.0557 58.1802H63.0981C63.1443 57.7828 63.2268 57.3906 63.3445 57.0083L65.8241 48.3552H67.2838L69.6547 57.085C69.7463 57.4446 69.8101 57.8108 69.8455 58.1802H69.8772C69.9123 57.7985 69.9842 57.4211 70.0918 57.0532L72.3436 48.3552H73.9331ZM79.2313 48.3552V59.8097H77.7478V48.3552H79.2313ZM93.7114 59.8097H91.9471L86.1747 50.8974C86.0218 50.6614 85.8914 50.4117 85.7852 50.1514H85.7402C85.7918 50.685 85.8113 51.2212 85.7985 51.7572V59.8097H84.3335V48.3552H86.1879L91.804 57.1114C91.9762 57.3668 92.1337 57.6318 92.2756 57.905H92.3074C92.2457 57.3509 92.2209 56.7932 92.2332 56.2358V48.3552H93.6982L93.7114 59.8097ZM100.292 49.67V58.5003H101.958C103.415 58.5003 104.552 58.1034 105.368 57.3098C106.184 56.5162 106.594 55.4052 106.594 53.974C106.594 52.5429 106.176 51.4688 105.336 50.7493C104.496 50.0297 103.391 49.67 102.024 49.67H100.292ZM98.811 59.8097V48.3552H102.085C103.82 48.3552 105.264 48.8596 106.419 49.8684C107.574 50.8771 108.151 52.2333 108.149 53.937C108.149 55.7111 107.573 57.1335 106.419 58.204C105.266 59.2745 103.782 59.8097 101.966 59.8097H98.811ZM111.967 57.6564C112.381 57.9984 112.859 58.2547 113.373 58.4103C113.911 58.5998 114.477 58.6998 115.047 58.7066C116.658 58.7066 117.463 58.1352 117.461 56.9924C117.464 56.6837 117.371 56.3816 117.196 56.1273C117.007 55.8552 116.765 55.6232 116.486 55.4448C115.936 55.114 115.369 54.8111 114.788 54.5375C113.638 53.9661 112.881 53.437 112.518 52.9502C112.153 52.4659 111.96 51.8739 111.969 51.2678C111.955 50.825 112.053 50.3859 112.254 49.9907C112.454 49.5955 112.751 49.2569 113.116 49.006C113.966 48.422 114.981 48.1287 116.012 48.17C117.154 48.17 117.992 48.3076 118.523 48.5827V50.1937C117.743 49.6914 116.828 49.4411 115.9 49.4768C115.298 49.4508 114.701 49.6046 114.187 49.9186C113.979 50.0467 113.808 50.227 113.692 50.4414C113.576 50.6559 113.518 50.897 113.524 51.1408C113.517 51.3515 113.554 51.5613 113.633 51.7568C113.712 51.9523 113.831 52.1291 113.983 52.2757C114.29 52.5667 114.954 52.9626 115.975 53.4634C117.101 53.9925 117.888 54.5304 118.335 55.0771C118.773 55.5795 119.013 56.2234 119.011 56.8892C119.035 57.3356 118.947 57.781 118.755 58.1851C118.564 58.5892 118.275 58.9393 117.914 59.2039C117.183 59.733 116.168 59.9975 114.87 59.9975C114.335 59.9894 113.802 59.9265 113.281 59.8097C112.813 59.7377 112.364 59.5779 111.956 59.3388L111.967 57.6564ZM34.3472 1.09277C34.6316 0.973376 34.9516 0.970866 35.2378 1.08578C35.524 1.2007 35.7533 1.42376 35.8757 1.7065L49.3174 33.1681C49.3836 33.3096 49.4206 33.4629 49.4262 33.619C49.4318 33.7751 49.4059 33.9307 49.3501 34.0766C49.2942 34.2225 49.2095 34.3556 49.101 34.4681C48.9925 34.5806 48.8625 34.6702 48.7186 34.7314C48.5747 34.7927 48.42 34.8244 48.2636 34.8247C48.1072 34.825 47.9523 34.7939 47.8082 34.7332C47.6641 34.6724 47.5337 34.5834 47.4248 34.4713C47.3159 34.3592 47.2307 34.2264 47.1742 34.0807L33.7273 2.61916C33.6077 2.33519 33.6052 2.01558 33.7203 1.72977C33.8354 1.44396 34.0587 1.21505 34.3419 1.09277H34.3472ZM57.8449 1.09277C58.1293 0.973376 58.4494 0.970866 58.7356 1.08578C59.0218 1.2007 59.251 1.42376 59.3735 1.7065L71.7025 30.5782L84.0368 1.71179C84.0933 1.56613 84.1785 1.43329 84.2874 1.3212C84.3963 1.20911 84.5267 1.12005 84.6708 1.05934C84.8149 0.998618 84.9697 0.967478 85.1261 0.967776C85.2825 0.968073 85.4373 0.999802 85.5812 1.06107C85.725 1.12233 85.8551 1.21189 85.9636 1.32439C86.0721 1.4369 86.1568 1.57005 86.2126 1.71593C86.2685 1.86181 86.2944 2.01743 86.2888 2.17351C86.2832 2.32959 86.2462 2.48295 86.18 2.62445L73.4906 32.3215C73.1939 33.0173 72.8443 34.4246 72.1979 34.7024C71.8786 34.8224 71.5264 34.8224 71.2071 34.7024C70.5581 34.4246 70.1872 32.9617 69.8825 32.258L57.2224 2.62974C57.1616 2.48838 57.1294 2.33644 57.1275 2.18262C57.1257 2.02879 57.1542 1.87612 57.2116 1.73334C57.2689 1.59056 57.3539 1.46049 57.4617 1.35057C57.5695 1.24065 57.6979 1.15304 57.8396 1.09277H57.8449ZM6.9102 49.67H2.48086V53.5005H6.58435V54.802H2.48086V59.8097H1V48.3552H6.9102V49.67Z" fill="#191919" fill-opacity="0.64"/>
<path fill-rule="evenodd" clip-rule="evenodd" d="M12.0098 54.0983C12.0098 55.4845 12.363 56.5956 13.0694 57.4315C13.4046 57.8388 13.829 58.1638 14.3099 58.3812C14.7909 58.5986 15.3154 58.7027 15.843 58.6854C17.0643 58.6854 18.0286 58.286 18.7253 57.4844C19.422 56.6829 19.7717 55.5612 19.7717 54.1221C19.7717 52.6831 19.43 51.5032 18.7491 50.699C18.0683 49.8948 17.1279 49.4927 15.9384 49.4927C15.3986 49.4754 14.8619 49.581 14.369 49.8015C13.876 50.0219 13.4398 50.3515 13.0933 50.7652C12.3674 51.6117 12.0045 52.7254 12.0045 54.0983H12.0098ZM10.4494 54.2174C10.4494 52.3709 10.951 50.8992 11.9541 49.8022C12.9573 48.7053 14.3145 48.1586 16.0258 48.1621C17.6153 48.1621 18.8993 48.6965 19.8777 49.7652C20.8561 50.8339 21.3426 52.2272 21.3373 53.9449C21.3373 55.8055 20.8384 57.2798 19.8406 58.368C18.8427 59.4561 17.5102 60.0002 15.843 60.0002C14.2112 60.0002 12.9078 59.4711 11.9223 58.3971C10.9369 57.3231 10.4547 55.9342 10.4547 54.2174H10.4494ZM34.1962 55.1406C34.1962 58.3839 32.725 60.0037 29.7827 60.0002C26.957 60.0002 25.5441 58.4376 25.5441 55.3126V48.3552H27.0435V55.2464C27.0435 57.5391 28.0069 58.6854 29.9337 58.6854C31.7934 58.6854 32.7233 57.5761 32.7233 55.3575V48.3552H34.1962V55.1406ZM40.6362 49.6488V53.6936H42.382C42.9873 53.7193 43.5787 53.5076 44.0297 53.1037C44.2405 52.9046 44.4063 52.6628 44.5159 52.3945C44.6256 52.1263 44.6766 51.8377 44.6655 51.5482C44.6789 51.2869 44.6338 51.026 44.5334 50.7844C44.433 50.5428 44.28 50.3265 44.0854 50.1514C43.7012 49.8155 43.1396 49.6488 42.4058 49.6488H40.6362ZM47.5239 59.8097H45.7782L43.8734 56.6353C43.611 56.1402 43.2568 55.6994 42.8297 55.3364C42.5003 55.1016 42.103 54.9808 41.6985 54.9925H40.6389V59.8097H39.158V48.3552H42.6469C43.7631 48.3552 44.6373 48.6197 45.2695 49.1488C45.5878 49.4292 45.8385 49.7778 46.0027 50.1685C46.1669 50.5593 46.2405 50.9821 46.2179 51.4053C46.2179 52.9926 45.3684 54.0225 43.6695 54.4951V54.5322C43.9793 54.6634 44.2582 54.858 44.488 55.1036C44.824 55.4967 45.1229 55.92 45.3808 56.3681L47.5239 59.8097ZM73.9331 48.3552L70.7197 59.8097H68.9951L66.6824 51.5561C66.5773 51.17 66.516 50.7734 66.4996 50.3736H66.4678C66.4408 50.7696 66.3716 51.1616 66.2612 51.5429L63.9273 59.8097H62.2186L58.8913 48.3552H60.5311L62.8677 57.0083C62.9717 57.3911 63.0348 57.784 63.0557 58.1802H63.0981C63.1443 57.7828 63.2268 57.3906 63.3445 57.0083L65.8241 48.3552H67.2838L69.6547 57.085C69.7463 57.4446 69.8101 57.8108 69.8455 58.1802H69.8772C69.9123 57.7985 69.9842 57.4211 70.0918 57.0532L72.3436 48.3552H73.9331ZM79.2313 48.3552V59.8097H77.7478V48.3552H79.2313ZM93.7114 59.8097H91.9471L86.1747 50.8974C86.0218 50.6614 85.8914 50.4117 85.7852 50.1514H85.7402C85.7918 50.685 85.8113 51.2212 85.7985 51.7572V59.8097H84.3335V48.3552H86.1879L91.804 57.1114C91.9762 57.3668 92.1337 57.6318 92.2756 57.905H92.3074C92.2457 57.3509 92.2209 56.7932 92.2332 56.2358V48.3552H93.6982L93.7114 59.8097ZM100.292 49.67V58.5003H101.958C103.415 58.5003 104.552 58.1034 105.368 57.3098C106.184 56.5162 106.594 55.4052 106.594 53.974C106.594 52.5429 106.176 51.4688 105.336 50.7493C104.496 50.0297 103.391 49.67 102.024 49.67H100.292ZM98.811 59.8097V48.3552H102.085C103.82 48.3552 105.264 48.8596 106.419 49.8684C107.574 50.8771 108.151 52.2333 108.149 53.937C108.149 55.7111 107.573 57.1335 106.419 58.204C105.266 59.2745 103.782 59.8097 101.966 59.8097H98.811ZM111.967 57.6564C112.381 57.9984 112.859 58.2547 113.373 58.4103C113.911 58.5998 114.477 58.6998 115.047 58.7066C116.658 58.7066 117.463 58.1352 117.461 56.9924C117.464 56.6837 117.371 56.3816 117.196 56.1273C117.007 55.8552 116.765 55.6232 116.486 55.4448C115.936 55.114 115.369 54.8111 114.788 54.5375C113.638 53.9661 112.881 53.437 112.518 52.9502C112.153 52.4659 111.96 51.8739 111.969 51.2678C111.955 50.825 112.053 50.3859 112.254 49.9907C112.454 49.5955 112.751 49.2569 113.116 49.006C113.966 48.422 114.981 48.1287 116.012 48.17C117.154 48.17 117.992 48.3076 118.523 48.5827V50.1937C117.743 49.6914 116.828 49.4411 115.9 49.4768C115.298 49.4508 114.701 49.6046 114.187 49.9186C113.979 50.0467 113.808 50.227 113.692 50.4414C113.576 50.6559 113.518 50.897 113.524 51.1408C113.517 51.3515 113.554 51.5613 113.633 51.7568C113.712 51.9523 113.831 52.1291 113.983 52.2757C114.29 52.5667 114.954 52.9626 115.975 53.4634C117.101 53.9925 117.888 54.5304 118.335 55.0771C118.773 55.5795 119.013 56.2234 119.011 56.8892C119.035 57.3356 118.947 57.781 118.755 58.1851C118.564 58.5892 118.275 58.9393 117.914 59.2039C117.183 59.733 116.168 59.9975 114.87 59.9975C114.335 59.9894 113.802 59.9265 113.281 59.8097C112.813 59.7377 112.364 59.5779 111.956 59.3388L111.967 57.6564ZM34.3472 1.09277C34.6316 0.973376 34.9516 0.970866 35.2378 1.08578C35.524 1.2007 35.7533 1.42376 35.8757 1.7065L49.3174 33.1681C49.3836 33.3096 49.4206 33.4629 49.4262 33.619C49.4318 33.7751 49.4059 33.9307 49.3501 34.0766C49.2942 34.2225 49.2095 34.3556 49.101 34.4681C48.9925 34.5806 48.8625 34.6702 48.7186 34.7314C48.5747 34.7927 48.42 34.8244 48.2636 34.8247C48.1072 34.825 47.9523 34.7939 47.8082 34.7332C47.6641 34.6724 47.5337 34.5834 47.4248 34.4713C47.3159 34.3592 47.2307 34.2264 47.1742 34.0807L33.7273 2.61916C33.6077 2.33519 33.6052 2.01558 33.7203 1.72977C33.8354 1.44396 34.0587 1.21505 34.3419 1.09277H34.3472ZM57.8449 1.09277C58.1293 0.973376 58.4494 0.970866 58.7356 1.08578C59.0218 1.2007 59.251 1.42376 59.3735 1.7065L71.7025 30.5782L84.0368 1.71179C84.0933 1.56613 84.1785 1.43329 84.2874 1.3212C84.3963 1.20911 84.5267 1.12005 84.6708 1.05934C84.8149 0.998618 84.9697 0.967478 85.1261 0.967776C85.2825 0.968073 85.4373 0.999802 85.5812 1.06107C85.725 1.12233 85.8551 1.21189 85.9636 1.32439C86.0721 1.4369 86.1568 1.57005 86.2126 1.71593C86.2685 1.86181 86.2944 2.01743 86.2888 2.17351C86.2832 2.32959 86.2462 2.48295 86.18 2.62445L73.4906 32.3215C73.1939 33.0173 72.8443 34.4246 72.1979 34.7024C71.8786 34.8224 71.5264 34.8224 71.2071 34.7024C70.5581 34.4246 70.1872 32.9617 69.8825 32.258L57.2224 2.62974C57.1616 2.48838 57.1294 2.33644 57.1275 2.18262C57.1257 2.02879 57.1542 1.87612 57.2116 1.73334C57.2689 1.59056 57.3539 1.46049 57.4617 1.35057C57.5695 1.24065 57.6979 1.15304 57.8396 1.09277H57.8449ZM6.9102 49.67H2.48086V53.5005H6.58435V54.802H2.48086V59.8097H1V48.3552H6.9102V49.67Z" stroke="#191919" stroke-opacity="0.64" stroke-width="0.4" mask="url(#path-1-outside-1_2718_7397)"/>
<mask id="path-2-outside-2_2718_7397" maskUnits="userSpaceOnUse" x="23.9922" y="39.7119" width="72" height="6" fill="black">
<rect fill="white" x="23.9922" y="39.7119" width="72" height="6"/>
<path d="M27.0823 41.654C27.0842 41.7852 27.0561 41.9152 27.0001 42.0339C26.9441 42.1526 26.8617 42.257 26.7592 42.3392C26.8549 42.3797 26.9442 42.4341 27.0241 42.5005C27.1051 42.5651 27.1757 42.6419 27.2333 42.728C27.2944 42.8133 27.3409 42.9081 27.3711 43.0084C27.4042 43.1119 27.4212 43.2199 27.4214 43.3285C27.4228 43.4696 27.3953 43.6095 27.3406 43.7396C27.2859 43.8696 27.2053 43.9872 27.1035 44.0851C27.0064 44.1861 26.8895 44.266 26.76 44.3197C26.6306 44.3734 26.4914 44.3998 26.3512 44.3973H24.9922V40.7599H26.2055C26.4375 40.7693 26.657 40.8674 26.8186 41.0338C26.9803 41.2002 27.0719 41.4222 27.0744 41.654H27.0823ZM25.2809 42.2598H26.1711C26.2507 42.2612 26.3298 42.2465 26.4036 42.2165C26.4773 42.1865 26.5442 42.1418 26.6002 42.0852C26.6594 42.0303 26.7064 41.9635 26.7379 41.8892C26.7694 41.8148 26.7848 41.7347 26.783 41.654C26.7809 41.4931 26.7156 41.3394 26.6011 41.2261C26.4867 41.1128 26.3322 41.0489 26.1711 41.0482H25.2809V42.2598ZM33.0164 40.7599V43.0984C33.0157 43.2758 32.9797 43.4514 32.9106 43.6148C32.8415 43.7783 32.7406 43.9265 32.6137 44.0507C32.3493 44.2827 32.0094 44.4106 31.6574 44.4106C31.3054 44.4106 30.9655 44.2827 30.7011 44.0507C30.5722 43.928 30.47 43.7801 30.4008 43.6163C30.3315 43.4525 30.2966 43.2762 30.2984 43.0984V40.7599H30.5845V43.0878C30.5845 43.2279 30.6123 43.3666 30.6664 43.4958C30.7205 43.6251 30.7997 43.7423 30.8995 43.8407C30.9993 43.9392 31.1177 44.0168 31.2478 44.0692C31.3779 44.1216 31.5171 44.1477 31.6574 44.146C31.9394 44.1453 32.21 44.034 32.4106 43.8361C32.6113 43.6382 32.7261 43.3694 32.7303 43.0878V40.7599H33.0164ZM36.794 40.7122C36.9196 40.7091 37.0443 40.7333 37.1596 40.7831C37.2749 40.8329 37.3779 40.9071 37.4616 41.0006L37.255 41.2096C37.1996 41.1411 37.1293 41.0862 37.0494 41.0491C36.9695 41.0119 36.8822 40.9935 36.794 40.9953C36.7141 40.9938 36.6347 41.0093 36.5611 41.0408C36.4876 41.0722 36.4216 41.119 36.3675 41.1778C36.3102 41.2324 36.2646 41.2981 36.2336 41.3708C36.2026 41.4436 36.1869 41.522 36.1874 41.6011C36.1786 41.698 36.1966 41.7954 36.2396 41.8826C36.2826 41.9699 36.3489 42.0437 36.4311 42.0958C36.5053 42.1381 36.5901 42.1804 36.6801 42.2228C36.7702 42.2651 36.8682 42.3074 36.9689 42.3471C37.1607 42.4264 37.3393 42.5343 37.4987 42.6672C37.5905 42.7594 37.6604 42.8709 37.7035 42.9936C37.7466 43.1162 37.7617 43.2469 37.7477 43.3762C37.7499 43.5173 37.7227 43.6574 37.668 43.7876C37.6133 43.9178 37.5322 44.0353 37.4298 44.1327C37.2249 44.3163 36.958 44.4155 36.6828 44.4105C36.4027 44.4162 36.1306 44.3171 35.9198 44.1327L36.1291 43.929C36.2013 44.0021 36.2873 44.06 36.3821 44.0996C36.4769 44.1392 36.5787 44.1596 36.6815 44.1596C36.7842 44.1596 36.886 44.1392 36.9808 44.0996C37.0756 44.06 37.1616 44.0021 37.2338 43.929C37.3076 43.8572 37.3661 43.7712 37.4057 43.6762C37.4453 43.5811 37.4652 43.4791 37.4643 43.3762C37.476 43.2676 37.4589 43.1579 37.4148 43.0581C37.3706 42.9583 37.3009 42.8718 37.2126 42.8074C37.0453 42.7018 36.8678 42.6132 36.6828 42.5429C36.4951 42.4663 36.3173 42.3677 36.153 42.2492C36.0647 42.1688 35.9968 42.0685 35.9549 41.9568C35.913 41.845 35.8983 41.7249 35.9119 41.6064C35.911 41.4894 35.934 41.3734 35.9796 41.2656C36.0251 41.1578 36.0922 41.0604 36.1768 40.9794C36.2578 40.8953 36.3548 40.8283 36.4622 40.7824C36.5696 40.7365 36.6852 40.7127 36.802 40.7122H36.794ZM40.9134 44.3973H40.622V40.7599H40.9134V44.3973ZM43.9016 40.7599H44.3732L46.3309 44.138V40.7599H46.617V44.3973H46.1455L44.1878 41.0165V44.3973H43.9016V40.7599ZM49.584 40.7599H51.7245V41.0482H49.8701V42.2175H51.1497V42.5614H49.8781V44.1248H51.7325V44.4105H49.592L49.584 40.7599ZM55.3644 40.7122C55.4896 40.7091 55.6139 40.7333 55.7287 40.7831C55.8436 40.8329 55.9462 40.9071 56.0293 41.0006L55.8227 41.2096C55.741 41.1199 55.6343 41.0567 55.5163 41.028C55.3984 40.9993 55.2745 41.0064 55.1607 41.0485C55.0468 41.0905 54.9481 41.1656 54.8773 41.2641C54.8064 41.3626 54.7667 41.4799 54.7631 41.6011C54.7542 41.698 54.7723 41.7954 54.8153 41.8826C54.8583 41.9699 54.9245 42.0437 55.0068 42.0958C55.0836 42.1381 55.1657 42.1804 55.2584 42.2228C55.3512 42.2651 55.4439 42.3074 55.5472 42.3471C55.7384 42.4276 55.9169 42.5354 56.077 42.6672C56.1678 42.76 56.237 42.8716 56.2796 42.9942C56.3222 43.1167 56.3371 43.2472 56.3234 43.3762C56.3254 43.5171 56.2984 43.6569 56.2442 43.787C56.19 43.9172 56.1097 44.0348 56.0081 44.1327C55.7976 44.3122 55.5299 44.4107 55.2531 44.4107C54.9764 44.4107 54.7087 44.3122 54.4982 44.1327L54.7048 43.929C54.7763 44.0033 54.8624 44.062 54.9577 44.1016C55.0529 44.1412 55.1553 44.1608 55.2584 44.1592C55.3608 44.1605 55.4623 44.1408 55.5567 44.1012C55.651 44.0616 55.7362 44.003 55.8068 43.929C55.8811 43.8576 55.94 43.7716 55.9796 43.6765C56.0193 43.5814 56.0389 43.4792 56.0373 43.3762C56.0499 43.2681 56.0338 43.1586 55.9905 43.0588C55.9473 42.9589 55.8784 42.8722 55.7909 42.8074C55.6234 42.7021 55.4459 42.6135 55.2611 42.5429C55.073 42.4672 54.8951 42.3685 54.7313 42.2492C54.6425 42.169 54.5742 42.0689 54.5318 41.9571C54.4894 41.8454 54.4742 41.7252 54.4876 41.6064C54.4857 41.4892 54.5083 41.373 54.5539 41.2651C54.5995 41.1571 54.6671 41.0598 54.7525 40.9794C54.8323 40.8954 54.9284 40.8283 55.035 40.7824C55.1415 40.7365 55.2563 40.7126 55.3724 40.7122H55.3644ZM60.0189 40.7122C60.1445 40.7088 60.2694 40.7328 60.3847 40.7826C60.5 40.8324 60.603 40.9068 60.6865 41.0006L60.4825 41.2096C60.427 41.1413 60.3567 41.0865 60.2768 41.0493C60.1969 41.0122 60.1097 40.9937 60.0216 40.9953C59.9412 40.9938 59.8614 41.0092 59.7874 41.0407C59.7135 41.0721 59.647 41.1189 59.5924 41.1778C59.5354 41.2325 59.4902 41.2983 59.4597 41.3711C59.4292 41.4439 59.4139 41.5222 59.4149 41.6011C59.4061 41.698 59.4242 41.7954 59.4672 41.8826C59.5102 41.9699 59.5764 42.0437 59.6586 42.0958C59.7328 42.1381 59.8149 42.1804 59.9077 42.2228C60.0004 42.2651 60.0957 42.3074 60.1964 42.3471C60.3875 42.4278 60.566 42.5356 60.7262 42.6672C60.8161 42.7605 60.8845 42.8723 60.9266 42.9948C60.9687 43.1172 60.9835 43.2474 60.97 43.3762C60.9727 43.5174 60.9459 43.6577 60.8911 43.788C60.8364 43.9183 60.755 44.0357 60.6521 44.1327C60.4464 44.3167 60.1785 44.416 59.9024 44.4105C59.6239 44.4156 59.3537 44.3165 59.1447 44.1327L59.354 43.929C59.4248 44.0027 59.51 44.0612 59.6043 44.1007C59.6986 44.1403 59.8001 44.1602 59.9024 44.1592C60.0055 44.1603 60.1077 44.1405 60.2029 44.1009C60.2981 44.0614 60.3842 44.0029 60.456 43.929C60.53 43.8575 60.5884 43.7714 60.6276 43.6763C60.6668 43.5812 60.686 43.479 60.6839 43.3762C60.6965 43.2681 60.6803 43.1586 60.6371 43.0588C60.5938 42.9589 60.525 42.8722 60.4375 42.8074C60.2698 42.7025 60.0923 42.6139 59.9077 42.5429C59.7197 42.467 59.5417 42.3684 59.3778 42.2492C59.2891 42.169 59.2207 42.0689 59.1784 41.9571C59.136 41.8454 59.1208 41.7252 59.1341 41.6064C59.1334 41.4894 59.1565 41.3735 59.202 41.2657C59.2476 41.1579 59.3146 41.0605 59.399 40.9794C59.4803 40.895 59.5778 40.8278 59.6857 40.7819C59.7936 40.736 59.9096 40.7123 60.0269 40.7122H60.0189ZM69.3756 44.0454C69.1135 44.287 68.7679 44.4178 68.4114 44.4105C68.057 44.4188 67.7135 44.2877 67.455 44.0454C67.3262 43.9222 67.2242 43.7739 67.1554 43.6095C67.0866 43.4452 67.0524 43.2685 67.055 43.0904V42.0667C67.0564 41.7079 67.1997 41.3642 67.4538 41.1105C67.7079 40.8568 68.0521 40.7136 68.4114 40.7122C68.5906 40.7098 68.7685 40.7437 68.9343 40.8119C69.1 40.8801 69.2502 40.9812 69.3756 41.1091L69.1664 41.3127C69.0693 41.2106 68.9521 41.1296 68.8222 41.075C68.6922 41.0204 68.5523 40.9932 68.4114 40.9953C68.2711 40.9953 68.1322 41.0231 68.0028 41.0771C67.8733 41.1311 67.7559 41.2102 67.6573 41.3099C67.5588 41.4096 67.481 41.5278 67.4285 41.6577C67.3761 41.7876 67.35 41.9266 67.3517 42.0667V43.0904C67.3517 43.3711 67.4633 43.6402 67.6621 43.8387C67.8608 44.0371 68.1303 44.1486 68.4114 44.1486C68.5521 44.1507 68.6918 44.1238 68.8217 44.0697C68.9516 44.0155 69.0689 43.9352 69.1664 43.8338L69.3756 44.0454ZM72.2897 40.7599H74.4302V41.0482H72.5758V42.2175H73.8527V42.5614H72.5758V44.1248H74.4302V44.4105H72.2897V40.7599ZM77.2409 40.7599H77.7151L79.6701 44.138V40.7599H79.9589V44.3973H79.4953L77.5376 41.0165V44.3973H77.2515L77.2409 40.7599ZM85.2068 40.7599V41.0482H84.1472V44.3973H83.8611V41.0482H82.8014V40.7599H85.2068ZM88.0281 40.7599H89.2414C89.5635 40.7626 89.8716 40.8918 90.0991 41.1195C90.3266 41.3472 90.4553 41.6551 90.4574 41.9767C90.4536 42.2159 90.3806 42.4489 90.2471 42.6474C90.1135 42.846 89.9253 43.0017 89.705 43.0957L90.46 44.3999H90.1262L89.4189 43.1725C89.3601 43.181 89.3008 43.1863 89.2414 43.1883H88.3142V44.3999H88.0281V40.7599ZM89.2414 42.8973C89.362 42.9002 89.4819 42.8782 89.5936 42.8327C89.7053 42.7871 89.8063 42.7191 89.8905 42.6328C90.022 42.5041 90.1122 42.3391 90.1495 42.159C90.1869 41.9789 90.1696 41.7917 90.1 41.6214C90.0303 41.4511 89.9115 41.3054 89.7586 41.2029C89.6057 41.1003 89.4256 41.0455 89.2414 41.0456H88.3142V42.8973H89.2414ZM93.3847 40.7625H95.5252V41.0509H93.6708V42.2175H94.945V42.5614H93.6708V44.1248H95.5252V44.4105H93.3847V40.7625ZM25.2809 42.5508V44.1142H26.2638C26.3727 44.1279 26.4832 44.118 26.5879 44.0851C26.6926 44.0522 26.789 43.9972 26.8704 43.9237C26.948 43.8518 27.0105 43.7651 27.0541 43.6687C27.0977 43.5723 27.1215 43.4682 27.1242 43.3624C27.1269 43.2567 27.1085 43.1515 27.0699 43.053C27.0313 42.9545 26.9734 42.8647 26.8996 42.7889C26.8291 42.7147 26.744 42.6559 26.6496 42.6163C26.5552 42.5767 26.4536 42.5571 26.3512 42.5587H26.3035H26.2638L25.2809 42.5508Z"/>
</mask>
<path d="M27.0823 41.654C27.0842 41.7852 27.0561 41.9152 27.0001 42.0339C26.9441 42.1526 26.8617 42.257 26.7592 42.3392C26.8549 42.3797 26.9442 42.4341 27.0241 42.5005C27.1051 42.5651 27.1757 42.6419 27.2333 42.728C27.2944 42.8133 27.3409 42.9081 27.3711 43.0084C27.4042 43.1119 27.4212 43.2199 27.4214 43.3285C27.4228 43.4696 27.3953 43.6095 27.3406 43.7396C27.2859 43.8696 27.2053 43.9872 27.1035 44.0851C27.0064 44.1861 26.8895 44.266 26.76 44.3197C26.6306 44.3734 26.4914 44.3998 26.3512 44.3973H24.9922V40.7599H26.2055C26.4375 40.7693 26.657 40.8674 26.8186 41.0338C26.9803 41.2002 27.0719 41.4222 27.0744 41.654H27.0823ZM25.2809 42.2598H26.1711C26.2507 42.2612 26.3298 42.2465 26.4036 42.2165C26.4773 42.1865 26.5442 42.1418 26.6002 42.0852C26.6594 42.0303 26.7064 41.9635 26.7379 41.8892C26.7694 41.8148 26.7848 41.7347 26.783 41.654C26.7809 41.4931 26.7156 41.3394 26.6011 41.2261C26.4867 41.1128 26.3322 41.0489 26.1711 41.0482H25.2809V42.2598ZM33.0164 40.7599V43.0984C33.0157 43.2758 32.9797 43.4514 32.9106 43.6148C32.8415 43.7783 32.7406 43.9265 32.6137 44.0507C32.3493 44.2827 32.0094 44.4106 31.6574 44.4106C31.3054 44.4106 30.9655 44.2827 30.7011 44.0507C30.5722 43.928 30.47 43.7801 30.4008 43.6163C30.3315 43.4525 30.2966 43.2762 30.2984 43.0984V40.7599H30.5845V43.0878C30.5845 43.2279 30.6123 43.3666 30.6664 43.4958C30.7205 43.6251 30.7997 43.7423 30.8995 43.8407C30.9993 43.9392 31.1177 44.0168 31.2478 44.0692C31.3779 44.1216 31.5171 44.1477 31.6574 44.146C31.9394 44.1453 32.21 44.034 32.4106 43.8361C32.6113 43.6382 32.7261 43.3694 32.7303 43.0878V40.7599H33.0164ZM36.794 40.7122C36.9196 40.7091 37.0443 40.7333 37.1596 40.7831C37.2749 40.8329 37.3779 40.9071 37.4616 41.0006L37.255 41.2096C37.1996 41.1411 37.1293 41.0862 37.0494 41.0491C36.9695 41.0119 36.8822 40.9935 36.794 40.9953C36.7141 40.9938 36.6347 41.0093 36.5611 41.0408C36.4876 41.0722 36.4216 41.119 36.3675 41.1778C36.3102 41.2324 36.2646 41.2981 36.2336 41.3708C36.2026 41.4436 36.1869 41.522 36.1874 41.6011C36.1786 41.698 36.1966 41.7954 36.2396 41.8826C36.2826 41.9699 36.3489 42.0437 36.4311 42.0958C36.5053 42.1381 36.5901 42.1804 36.6801 42.2228C36.7702 42.2651 36.8682 42.3074 36.9689 42.3471C37.1607 42.4264 37.3393 42.5343 37.4987 42.6672C37.5905 42.7594 37.6604 42.8709 37.7035 42.9936C37.7466 43.1162 37.7617 43.2469 37.7477 43.3762C37.7499 43.5173 37.7227 43.6574 37.668 43.7876C37.6133 43.9178 37.5322 44.0353 37.4298 44.1327C37.2249 44.3163 36.958 44.4155 36.6828 44.4105C36.4027 44.4162 36.1306 44.3171 35.9198 44.1327L36.1291 43.929C36.2013 44.0021 36.2873 44.06 36.3821 44.0996C36.4769 44.1392 36.5787 44.1596 36.6815 44.1596C36.7842 44.1596 36.886 44.1392 36.9808 44.0996C37.0756 44.06 37.1616 44.0021 37.2338 43.929C37.3076 43.8572 37.3661 43.7712 37.4057 43.6762C37.4453 43.5811 37.4652 43.4791 37.4643 43.3762C37.476 43.2676 37.4589 43.1579 37.4148 43.0581C37.3706 42.9583 37.3009 42.8718 37.2126 42.8074C37.0453 42.7018 36.8678 42.6132 36.6828 42.5429C36.4951 42.4663 36.3173 42.3677 36.153 42.2492C36.0647 42.1688 35.9968 42.0685 35.9549 41.9568C35.913 41.845 35.8983 41.7249 35.9119 41.6064C35.911 41.4894 35.934 41.3734 35.9796 41.2656C36.0251 41.1578 36.0922 41.0604 36.1768 40.9794C36.2578 40.8953 36.3548 40.8283 36.4622 40.7824C36.5696 40.7365 36.6852 40.7127 36.802 40.7122H36.794ZM40.9134 44.3973H40.622V40.7599H40.9134V44.3973ZM43.9016 40.7599H44.3732L46.3309 44.138V40.7599H46.617V44.3973H46.1455L44.1878 41.0165V44.3973H43.9016V40.7599ZM49.584 40.7599H51.7245V41.0482H49.8701V42.2175H51.1497V42.5614H49.8781V44.1248H51.7325V44.4105H49.592L49.584 40.7599ZM55.3644 40.7122C55.4896 40.7091 55.6139 40.7333 55.7287 40.7831C55.8436 40.8329 55.9462 40.9071 56.0293 41.0006L55.8227 41.2096C55.741 41.1199 55.6343 41.0567 55.5163 41.028C55.3984 40.9993 55.2745 41.0064 55.1607 41.0485C55.0468 41.0905 54.9481 41.1656 54.8773 41.2641C54.8064 41.3626 54.7667 41.4799 54.7631 41.6011C54.7542 41.698 54.7723 41.7954 54.8153 41.8826C54.8583 41.9699 54.9245 42.0437 55.0068 42.0958C55.0836 42.1381 55.1657 42.1804 55.2584 42.2228C55.3512 42.2651 55.4439 42.3074 55.5472 42.3471C55.7384 42.4276 55.9169 42.5354 56.077 42.6672C56.1678 42.76 56.237 42.8716 56.2796 42.9942C56.3222 43.1167 56.3371 43.2472 56.3234 43.3762C56.3254 43.5171 56.2984 43.6569 56.2442 43.787C56.19 43.9172 56.1097 44.0348 56.0081 44.1327C55.7976 44.3122 55.5299 44.4107 55.2531 44.4107C54.9764 44.4107 54.7087 44.3122 54.4982 44.1327L54.7048 43.929C54.7763 44.0033 54.8624 44.062 54.9577 44.1016C55.0529 44.1412 55.1553 44.1608 55.2584 44.1592C55.3608 44.1605 55.4623 44.1408 55.5567 44.1012C55.651 44.0616 55.7362 44.003 55.8068 43.929C55.8811 43.8576 55.94 43.7716 55.9796 43.6765C56.0193 43.5814 56.0389 43.4792 56.0373 43.3762C56.0499 43.2681 56.0338 43.1586 55.9905 43.0588C55.9473 42.9589 55.8784 42.8722 55.7909 42.8074C55.6234 42.7021 55.4459 42.6135 55.2611 42.5429C55.073 42.4672 54.8951 42.3685 54.7313 42.2492C54.6425 42.169 54.5742 42.0689 54.5318 41.9571C54.4894 41.8454 54.4742 41.7252 54.4876 41.6064C54.4857 41.4892 54.5083 41.373 54.5539 41.2651C54.5995 41.1571 54.6671 41.0598 54.7525 40.9794C54.8323 40.8954 54.9284 40.8283 55.035 40.7824C55.1415 40.7365 55.2563 40.7126 55.3724 40.7122H55.3644ZM60.0189 40.7122C60.1445 40.7088 60.2694 40.7328 60.3847 40.7826C60.5 40.8324 60.603 40.9068 60.6865 41.0006L60.4825 41.2096C60.427 41.1413 60.3567 41.0865 60.2768 41.0493C60.1969 41.0122 60.1097 40.9937 60.0216 40.9953C59.9412 40.9938 59.8614 41.0092 59.7874 41.0407C59.7135 41.0721 59.647 41.1189 59.5924 41.1778C59.5354 41.2325 59.4902 41.2983 59.4597 41.3711C59.4292 41.4439 59.4139 41.5222 59.4149 41.6011C59.4061 41.698 59.4242 41.7954 59.4672 41.8826C59.5102 41.9699 59.5764 42.0437 59.6586 42.0958C59.7328 42.1381 59.8149 42.1804 59.9077 42.2228C60.0004 42.2651 60.0957 42.3074 60.1964 42.3471C60.3875 42.4278 60.566 42.5356 60.7262 42.6672C60.8161 42.7605 60.8845 42.8723 60.9266 42.9948C60.9687 43.1172 60.9835 43.2474 60.97 43.3762C60.9727 43.5174 60.9459 43.6577 60.8911 43.788C60.8364 43.9183 60.755 44.0357 60.6521 44.1327C60.4464 44.3167 60.1785 44.416 59.9024 44.4105C59.6239 44.4156 59.3537 44.3165 59.1447 44.1327L59.354 43.929C59.4248 44.0027 59.51 44.0612 59.6043 44.1007C59.6986 44.1403 59.8001 44.1602 59.9024 44.1592C60.0055 44.1603 60.1077 44.1405 60.2029 44.1009C60.2981 44.0614 60.3842 44.0029 60.456 43.929C60.53 43.8575 60.5884 43.7714 60.6276 43.6763C60.6668 43.5812 60.686 43.479 60.6839 43.3762C60.6965 43.2681 60.6803 43.1586 60.6371 43.0588C60.5938 42.9589 60.525 42.8722 60.4375 42.8074C60.2698 42.7025 60.0923 42.6139 59.9077 42.5429C59.7197 42.467 59.5417 42.3684 59.3778 42.2492C59.2891 42.169 59.2207 42.0689 59.1784 41.9571C59.136 41.8454 59.1208 41.7252 59.1341 41.6064C59.1334 41.4894 59.1565 41.3735 59.202 41.2657C59.2476 41.1579 59.3146 41.0605 59.399 40.9794C59.4803 40.895 59.5778 40.8278 59.6857 40.7819C59.7936 40.736 59.9096 40.7123 60.0269 40.7122H60.0189ZM69.3756 44.0454C69.1135 44.287 68.7679 44.4178 68.4114 44.4105C68.057 44.4188 67.7135 44.2877 67.455 44.0454C67.3262 43.9222 67.2242 43.7739 67.1554 43.6095C67.0866 43.4452 67.0524 43.2685 67.055 43.0904V42.0667C67.0564 41.7079 67.1997 41.3642 67.4538 41.1105C67.7079 40.8568 68.0521 40.7136 68.4114 40.7122C68.5906 40.7098 68.7685 40.7437 68.9343 40.8119C69.1 40.8801 69.2502 40.9812 69.3756 41.1091L69.1664 41.3127C69.0693 41.2106 68.9521 41.1296 68.8222 41.075C68.6922 41.0204 68.5523 40.9932 68.4114 40.9953C68.2711 40.9953 68.1322 41.0231 68.0028 41.0771C67.8733 41.1311 67.7559 41.2102 67.6573 41.3099C67.5588 41.4096 67.481 41.5278 67.4285 41.6577C67.3761 41.7876 67.35 41.9266 67.3517 42.0667V43.0904C67.3517 43.3711 67.4633 43.6402 67.6621 43.8387C67.8608 44.0371 68.1303 44.1486 68.4114 44.1486C68.5521 44.1507 68.6918 44.1238 68.8217 44.0697C68.9516 44.0155 69.0689 43.9352 69.1664 43.8338L69.3756 44.0454ZM72.2897 40.7599H74.4302V41.0482H72.5758V42.2175H73.8527V42.5614H72.5758V44.1248H74.4302V44.4105H72.2897V40.7599ZM77.2409 40.7599H77.7151L79.6701 44.138V40.7599H79.9589V44.3973H79.4953L77.5376 41.0165V44.3973H77.2515L77.2409 40.7599ZM85.2068 40.7599V41.0482H84.1472V44.3973H83.8611V41.0482H82.8014V40.7599H85.2068ZM88.0281 40.7599H89.2414C89.5635 40.7626 89.8716 40.8918 90.0991 41.1195C90.3266 41.3472 90.4553 41.6551 90.4574 41.9767C90.4536 42.2159 90.3806 42.4489 90.2471 42.6474C90.1135 42.846 89.9253 43.0017 89.705 43.0957L90.46 44.3999H90.1262L89.4189 43.1725C89.3601 43.181 89.3008 43.1863 89.2414 43.1883H88.3142V44.3999H88.0281V40.7599ZM89.2414 42.8973C89.362 42.9002 89.4819 42.8782 89.5936 42.8327C89.7053 42.7871 89.8063 42.7191 89.8905 42.6328C90.022 42.5041 90.1122 42.3391 90.1495 42.159C90.1869 41.9789 90.1696 41.7917 90.1 41.6214C90.0303 41.4511 89.9115 41.3054 89.7586 41.2029C89.6057 41.1003 89.4256 41.0455 89.2414 41.0456H88.3142V42.8973H89.2414ZM93.3847 40.7625H95.5252V41.0509H93.6708V42.2175H94.945V42.5614H93.6708V44.1248H95.5252V44.4105H93.3847V40.7625ZM25.2809 42.5508V44.1142H26.2638C26.3727 44.1279 26.4832 44.118 26.5879 44.0851C26.6926 44.0522 26.789 43.9972 26.8704 43.9237C26.948 43.8518 27.0105 43.7651 27.0541 43.6687C27.0977 43.5723 27.1215 43.4682 27.1242 43.3624C27.1269 43.2567 27.1085 43.1515 27.0699 43.053C27.0313 42.9545 26.9734 42.8647 26.8996 42.7889C26.8291 42.7147 26.744 42.6559 26.6496 42.6163C26.5552 42.5767 26.4536 42.5571 26.3512 42.5587H26.3035H26.2638L25.2809 42.5508Z" fill="#191919" fill-opacity="0.64"/>
<path d="M27.0823 41.654C27.0842 41.7852 27.0561 41.9152 27.0001 42.0339C26.9441 42.1526 26.8617 42.257 26.7592 42.3392C26.8549 42.3797 26.9442 42.4341 27.0241 42.5005C27.1051 42.5651 27.1757 42.6419 27.2333 42.728C27.2944 42.8133 27.3409 42.9081 27.3711 43.0084C27.4042 43.1119 27.4212 43.2199 27.4214 43.3285C27.4228 43.4696 27.3953 43.6095 27.3406 43.7396C27.2859 43.8696 27.2053 43.9872 27.1035 44.0851C27.0064 44.1861 26.8895 44.266 26.76 44.3197C26.6306 44.3734 26.4914 44.3998 26.3512 44.3973H24.9922V40.7599H26.2055C26.4375 40.7693 26.657 40.8674 26.8186 41.0338C26.9803 41.2002 27.0719 41.4222 27.0744 41.654H27.0823ZM25.2809 42.2598H26.1711C26.2507 42.2612 26.3298 42.2465 26.4036 42.2165C26.4773 42.1865 26.5442 42.1418 26.6002 42.0852C26.6594 42.0303 26.7064 41.9635 26.7379 41.8892C26.7694 41.8148 26.7848 41.7347 26.783 41.654C26.7809 41.4931 26.7156 41.3394 26.6011 41.2261C26.4867 41.1128 26.3322 41.0489 26.1711 41.0482H25.2809V42.2598ZM33.0164 40.7599V43.0984C33.0157 43.2758 32.9797 43.4514 32.9106 43.6148C32.8415 43.7783 32.7406 43.9265 32.6137 44.0507C32.3493 44.2827 32.0094 44.4106 31.6574 44.4106C31.3054 44.4106 30.9655 44.2827 30.7011 44.0507C30.5722 43.928 30.47 43.7801 30.4008 43.6163C30.3315 43.4525 30.2966 43.2762 30.2984 43.0984V40.7599H30.5845V43.0878C30.5845 43.2279 30.6123 43.3666 30.6664 43.4958C30.7205 43.6251 30.7997 43.7423 30.8995 43.8407C30.9993 43.9392 31.1177 44.0168 31.2478 44.0692C31.3779 44.1216 31.5171 44.1477 31.6574 44.146C31.9394 44.1453 32.21 44.034 32.4106 43.8361C32.6113 43.6382 32.7261 43.3694 32.7303 43.0878V40.7599H33.0164ZM36.794 40.7122C36.9196 40.7091 37.0443 40.7333 37.1596 40.7831C37.2749 40.8329 37.3779 40.9071 37.4616 41.0006L37.255 41.2096C37.1996 41.1411 37.1293 41.0862 37.0494 41.0491C36.9695 41.0119 36.8822 40.9935 36.794 40.9953C36.7141 40.9938 36.6347 41.0093 36.5611 41.0408C36.4876 41.0722 36.4216 41.119 36.3675 41.1778C36.3102 41.2324 36.2646 41.2981 36.2336 41.3708C36.2026 41.4436 36.1869 41.522 36.1874 41.6011C36.1786 41.698 36.1966 41.7954 36.2396 41.8826C36.2826 41.9699 36.3489 42.0437 36.4311 42.0958C36.5053 42.1381 36.5901 42.1804 36.6801 42.2228C36.7702 42.2651 36.8682 42.3074 36.9689 42.3471C37.1607 42.4264 37.3393 42.5343 37.4987 42.6672C37.5905 42.7594 37.6604 42.8709 37.7035 42.9936C37.7466 43.1162 37.7617 43.2469 37.7477 43.3762C37.7499 43.5173 37.7227 43.6574 37.668 43.7876C37.6133 43.9178 37.5322 44.0353 37.4298 44.1327C37.2249 44.3163 36.958 44.4155 36.6828 44.4105C36.4027 44.4162 36.1306 44.3171 35.9198 44.1327L36.1291 43.929C36.2013 44.0021 36.2873 44.06 36.3821 44.0996C36.4769 44.1392 36.5787 44.1596 36.6815 44.1596C36.7842 44.1596 36.886 44.1392 36.9808 44.0996C37.0756 44.06 37.1616 44.0021 37.2338 43.929C37.3076 43.8572 37.3661 43.7712 37.4057 43.6762C37.4453 43.5811 37.4652 43.4791 37.4643 43.3762C37.476 43.2676 37.4589 43.1579 37.4148 43.0581C37.3706 42.9583 37.3009 42.8718 37.2126 42.8074C37.0453 42.7018 36.8678 42.6132 36.6828 42.5429C36.4951 42.4663 36.3173 42.3677 36.153 42.2492C36.0647 42.1688 35.9968 42.0685 35.9549 41.9568C35.913 41.845 35.8983 41.7249 35.9119 41.6064C35.911 41.4894 35.934 41.3734 35.9796 41.2656C36.0251 41.1578 36.0922 41.0604 36.1768 40.9794C36.2578 40.8953 36.3548 40.8283 36.4622 40.7824C36.5696 40.7365 36.6852 40.7127 36.802 40.7122H36.794ZM40.9134 44.3973H40.622V40.7599H40.9134V44.3973ZM43.9016 40.7599H44.3732L46.3309 44.138V40.7599H46.617V44.3973H46.1455L44.1878 41.0165V44.3973H43.9016V40.7599ZM49.584 40.7599H51.7245V41.0482H49.8701V42.2175H51.1497V42.5614H49.8781V44.1248H51.7325V44.4105H49.592L49.584 40.7599ZM55.3644 40.7122C55.4896 40.7091 55.6139 40.7333 55.7287 40.7831C55.8436 40.8329 55.9462 40.9071 56.0293 41.0006L55.8227 41.2096C55.741 41.1199 55.6343 41.0567 55.5163 41.028C55.3984 40.9993 55.2745 41.0064 55.1607 41.0485C55.0468 41.0905 54.9481 41.1656 54.8773 41.2641C54.8064 41.3626 54.7667 41.4799 54.7631 41.6011C54.7542 41.698 54.7723 41.7954 54.8153 41.8826C54.8583 41.9699 54.9245 42.0437 55.0068 42.0958C55.0836 42.1381 55.1657 42.1804 55.2584 42.2228C55.3512 42.2651 55.4439 42.3074 55.5472 42.3471C55.7384 42.4276 55.9169 42.5354 56.077 42.6672C56.1678 42.76 56.237 42.8716 56.2796 42.9942C56.3222 43.1167 56.3371 43.2472 56.3234 43.3762C56.3254 43.5171 56.2984 43.6569 56.2442 43.787C56.19 43.9172 56.1097 44.0348 56.0081 44.1327C55.7976 44.3122 55.5299 44.4107 55.2531 44.4107C54.9764 44.4107 54.7087 44.3122 54.4982 44.1327L54.7048 43.929C54.7763 44.0033 54.8624 44.062 54.9577 44.1016C55.0529 44.1412 55.1553 44.1608 55.2584 44.1592C55.3608 44.1605 55.4623 44.1408 55.5567 44.1012C55.651 44.0616 55.7362 44.003 55.8068 43.929C55.8811 43.8576 55.94 43.7716 55.9796 43.6765C56.0193 43.5814 56.0389 43.4792 56.0373 43.3762C56.0499 43.2681 56.0338 43.1586 55.9905 43.0588C55.9473 42.9589 55.8784 42.8722 55.7909 42.8074C55.6234 42.7021 55.4459 42.6135 55.2611 42.5429C55.073 42.4672 54.8951 42.3685 54.7313 42.2492C54.6425 42.169 54.5742 42.0689 54.5318 41.9571C54.4894 41.8454 54.4742 41.7252 54.4876 41.6064C54.4857 41.4892 54.5083 41.373 54.5539 41.2651C54.5995 41.1571 54.6671 41.0598 54.7525 40.9794C54.8323 40.8954 54.9284 40.8283 55.035 40.7824C55.1415 40.7365 55.2563 40.7126 55.3724 40.7122H55.3644ZM60.0189 40.7122C60.1445 40.7088 60.2694 40.7328 60.3847 40.7826C60.5 40.8324 60.603 40.9068 60.6865 41.0006L60.4825 41.2096C60.427 41.1413 60.3567 41.0865 60.2768 41.0493C60.1969 41.0122 60.1097 40.9937 60.0216 40.9953C59.9412 40.9938 59.8614 41.0092 59.7874 41.0407C59.7135 41.0721 59.647 41.1189 59.5924 41.1778C59.5354 41.2325 59.4902 41.2983 59.4597 41.3711C59.4292 41.4439 59.4139 41.5222 59.4149 41.6011C59.4061 41.698 59.4242 41.7954 59.4672 41.8826C59.5102 41.9699 59.5764 42.0437 59.6586 42.0958C59.7328 42.1381 59.8149 42.1804 59.9077 42.2228C60.0004 42.2651 60.0957 42.3074 60.1964 42.3471C60.3875 42.4278 60.566 42.5356 60.7262 42.6672C60.8161 42.7605 60.8845 42.8723 60.9266 42.9948C60.9687 43.1172 60.9835 43.2474 60.97 43.3762C60.9727 43.5174 60.9459 43.6577 60.8911 43.788C60.8364 43.9183 60.755 44.0357 60.6521 44.1327C60.4464 44.3167 60.1785 44.416 59.9024 44.4105C59.6239 44.4156 59.3537 44.3165 59.1447 44.1327L59.354 43.929C59.4248 44.0027 59.51 44.0612 59.6043 44.1007C59.6986 44.1403 59.8001 44.1602 59.9024 44.1592C60.0055 44.1603 60.1077 44.1405 60.2029 44.1009C60.2981 44.0614 60.3842 44.0029 60.456 43.929C60.53 43.8575 60.5884 43.7714 60.6276 43.6763C60.6668 43.5812 60.686 43.479 60.6839 43.3762C60.6965 43.2681 60.6803 43.1586 60.6371 43.0588C60.5938 42.9589 60.525 42.8722 60.4375 42.8074C60.2698 42.7025 60.0923 42.6139 59.9077 42.5429C59.7197 42.467 59.5417 42.3684 59.3778 42.2492C59.2891 42.169 59.2207 42.0689 59.1784 41.9571C59.136 41.8454 59.1208 41.7252 59.1341 41.6064C59.1334 41.4894 59.1565 41.3735 59.202 41.2657C59.2476 41.1579 59.3146 41.0605 59.399 40.9794C59.4803 40.895 59.5778 40.8278 59.6857 40.7819C59.7936 40.736 59.9096 40.7123 60.0269 40.7122H60.0189ZM69.3756 44.0454C69.1135 44.287 68.7679 44.4178 68.4114 44.4105C68.057 44.4188 67.7135 44.2877 67.455 44.0454C67.3262 43.9222 67.2242 43.7739 67.1554 43.6095C67.0866 43.4452 67.0524 43.2685 67.055 43.0904V42.0667C67.0564 41.7079 67.1997 41.3642 67.4538 41.1105C67.7079 40.8568 68.0521 40.7136 68.4114 40.7122C68.5906 40.7098 68.7685 40.7437 68.9343 40.8119C69.1 40.8801 69.2502 40.9812 69.3756 41.1091L69.1664 41.3127C69.0693 41.2106 68.9521 41.1296 68.8222 41.075C68.6922 41.0204 68.5523 40.9932 68.4114 40.9953C68.2711 40.9953 68.1322 41.0231 68.0028 41.0771C67.8733 41.1311 67.7559 41.2102 67.6573 41.3099C67.5588 41.4096 67.481 41.5278 67.4285 41.6577C67.3761 41.7876 67.35 41.9266 67.3517 42.0667V43.0904C67.3517 43.3711 67.4633 43.6402 67.6621 43.8387C67.8608 44.0371 68.1303 44.1486 68.4114 44.1486C68.5521 44.1507 68.6918 44.1238 68.8217 44.0697C68.9516 44.0155 69.0689 43.9352 69.1664 43.8338L69.3756 44.0454ZM72.2897 40.7599H74.4302V41.0482H72.5758V42.2175H73.8527V42.5614H72.5758V44.1248H74.4302V44.4105H72.2897V40.7599ZM77.2409 40.7599H77.7151L79.6701 44.138V40.7599H79.9589V44.3973H79.4953L77.5376 41.0165V44.3973H77.2515L77.2409 40.7599ZM85.2068 40.7599V41.0482H84.1472V44.3973H83.8611V41.0482H82.8014V40.7599H85.2068ZM88.0281 40.7599H89.2414C89.5635 40.7626 89.8716 40.8918 90.0991 41.1195C90.3266 41.3472 90.4553 41.6551 90.4574 41.9767C90.4536 42.2159 90.3806 42.4489 90.2471 42.6474C90.1135 42.846 89.9253 43.0017 89.705 43.0957L90.46 44.3999H90.1262L89.4189 43.1725C89.3601 43.181 89.3008 43.1863 89.2414 43.1883H88.3142V44.3999H88.0281V40.7599ZM89.2414 42.8973C89.362 42.9002 89.4819 42.8782 89.5936 42.8327C89.7053 42.7871 89.8063 42.7191 89.8905 42.6328C90.022 42.5041 90.1122 42.3391 90.1495 42.159C90.1869 41.9789 90.1696 41.7917 90.1 41.6214C90.0303 41.4511 89.9115 41.3054 89.7586 41.2029C89.6057 41.1003 89.4256 41.0455 89.2414 41.0456H88.3142V42.8973H89.2414ZM93.3847 40.7625H95.5252V41.0509H93.6708V42.2175H94.945V42.5614H93.6708V44.1248H95.5252V44.4105H93.3847V40.7625ZM25.2809 42.5508V44.1142H26.2638C26.3727 44.1279 26.4832 44.118 26.5879 44.0851C26.6926 44.0522 26.789 43.9972 26.8704 43.9237C26.948 43.8518 27.0105 43.7651 27.0541 43.6687C27.0977 43.5723 27.1215 43.4682 27.1242 43.3624C27.1269 43.2567 27.1085 43.1515 27.0699 43.053C27.0313 42.9545 26.9734 42.8647 26.8996 42.7889C26.8291 42.7147 26.744 42.6559 26.6496 42.6163C26.5552 42.5767 26.4536 42.5571 26.3512 42.5587H26.3035H26.2638L25.2809 42.5508Z" stroke="#191919" stroke-opacity="0.64" stroke-width="0.4" mask="url(#path-2-outside-2_2718_7397)"/>
</svg>
