<svg width="126" height="89" viewBox="0 0 126 89" fill="none" xmlns="http://www.w3.org/2000/svg">
<path d="M8.38974 61.4167L6.77373 57.293L5.13378 61.4167H8.38974ZM9.04013 63.2388H4.42753L3.41403 65.6363H1L5.95575 53.9404H7.6356L12.4557 65.6363H10.0616L9.04013 63.2388Z" fill="#191919" fill-opacity="0.64"/>
<path d="M16.0352 59.4751H16.9409C17.453 59.523 17.9662 59.3962 18.3973 59.1155C18.5941 58.9531 18.7518 58.7484 18.8589 58.5167C18.9659 58.285 19.0196 58.0321 19.0158 57.7769C19.0207 57.5244 18.9657 57.2743 18.8554 57.0472C18.7451 56.82 18.5827 56.6223 18.3814 56.4702C17.9001 56.1856 17.3422 56.0585 16.7853 56.1066H16.0192L16.0352 59.4751ZM17.1285 54.1846C18.4173 54.1846 19.3071 54.3204 20.149 55.0637C20.5281 55.4146 20.8284 55.8423 21.03 56.3184C21.2315 56.7944 21.3298 57.3079 21.3181 57.8248C21.3413 58.7682 21.003 59.6848 20.3724 60.3862C19.738 61.0215 18.7764 61.4011 17.4716 61.4011H16.0352V65.6407H13.8047V54.1846H17.1285Z" fill="#191919" fill-opacity="0.64"/>
<path d="M25.8469 59.599L22.4353 54.1846H25.1087L27.1157 57.7409L29.2265 54.1846H31.8999L28.3886 59.599L32.2989 65.6407H29.6215L27.1157 61.453L24.4782 65.6407H21.7969L25.8469 59.599Z" fill="#191919" fill-opacity="0.64"/>
<path d="M36.1817 54.1845V61.8806L42.4941 53.9248H44.0382V65.6407H41.8078V57.9127L35.4954 65.8645H33.9512V54.1845H36.1817Z" fill="#191919" fill-opacity="0.64"/>
<path d="M50.2553 65.6407H48.0248V56.1066H45.4512V54.1846H52.8289V56.1066H50.2553V65.6407Z" fill="#191919" fill-opacity="0.64"/>
<path d="M60.5886 56.1066H56.4668V58.6679H60.4131V60.5899H56.4668V63.7187H60.5886V65.6407H54.2363V54.1846H60.5886V56.1066Z" fill="#191919" fill-opacity="0.64"/>
<path d="M64.9824 59.0316L69.1841 54.1846H71.9971L67.1571 59.4751L72.2565 65.6407H69.3038L65.2338 60.506L64.9824 60.7658V65.6407H62.752V54.1846H64.9824V59.0316Z" fill="#191919" fill-opacity="0.64"/>
<path d="M77.267 65.6407H75.0365V56.1066H72.4629V54.1846H79.8406V56.1066H77.267V65.6407Z" fill="#191919" fill-opacity="0.64"/>
<path d="M90.6186 59.9215C90.6186 57.6039 89.0226 55.9536 86.808 55.9536C84.5935 55.9536 83.0054 57.6039 83.0054 59.9215C83.0054 62.2391 84.5775 63.8695 86.808 63.8695C89.0385 63.8695 90.6186 62.2391 90.6186 59.9215ZM92.9169 59.9215C92.9169 63.4099 90.4111 65.9153 86.808 65.9153C83.2049 65.9153 80.7031 63.4259 80.7031 59.9215C80.7031 56.4172 83.2089 53.9277 86.808 53.9277C90.4071 53.9277 92.9169 56.4371 92.9169 59.9215Z" fill="#191919" fill-opacity="0.64"/>
<path d="M97.2109 59.4751H98.1247C98.6367 59.522 99.1496 59.3954 99.5811 59.1155C99.7773 58.9529 99.9344 58.7481 100.041 58.5164C100.147 58.2846 100.2 58.0319 100.196 57.7769C100.201 57.5247 100.147 57.2748 100.037 57.0477C99.9274 56.8206 99.7657 56.6227 99.5651 56.4702C99.0837 56.1861 98.5259 56.059 97.9691 56.1066H97.195L97.2109 59.4751ZM98.3082 54.1846C99.597 54.1846 100.487 54.3204 101.325 55.0637C101.706 55.4134 102.007 55.8408 102.209 56.3171C102.41 56.7935 102.508 57.3076 102.494 57.8248C102.519 58.7678 102.182 59.6846 101.552 60.3862C100.918 61.0215 99.9801 61.4011 98.6554 61.4011H97.2109V65.6407H94.9805V54.1846H98.3082Z" fill="#191919" fill-opacity="0.64"/>
<path d="M113.513 59.9215C113.513 57.6039 111.917 55.9536 109.707 55.9536C107.496 55.9536 105.896 57.6039 105.896 59.9215C105.896 62.2391 107.492 63.8695 109.707 63.8695C111.921 63.8695 113.513 62.2391 113.513 59.9215ZM115.811 59.9215C115.811 63.4099 113.306 65.9153 109.707 65.9153C106.107 65.9153 103.598 63.4259 103.598 59.9215C103.598 56.4172 106.103 53.9277 109.707 53.9277C113.31 53.9277 115.811 56.4371 115.811 59.9215Z" fill="#191919" fill-opacity="0.64"/>
<path d="M120.105 63.8226H121.067C121.595 63.8545 122.122 63.747 122.595 63.5109C122.82 63.3745 123.004 63.1802 123.128 62.9483C123.253 62.7164 123.312 62.4553 123.302 62.1923C123.309 61.9145 123.232 61.641 123.082 61.4073C122.932 61.1736 122.715 60.9905 122.46 60.8816C121.971 60.7018 121.451 60.6269 120.931 60.6619H120.105V63.8226ZM120.105 58.9437H120.744C121.087 58.9437 122.476 58.9077 122.476 57.4492C122.476 56.4023 121.678 56.0067 120.76 56.0067H120.105V58.9437ZM120.708 54.1846C121.342 54.1846 122.579 54.1846 123.501 54.9038C123.846 55.193 124.122 55.5569 124.306 55.968C124.491 56.3791 124.58 56.8268 124.566 57.2774C124.583 57.7351 124.472 58.1884 124.245 58.586C124.018 58.9835 123.684 59.3095 123.282 59.527C123.841 59.6065 124.363 59.8578 124.774 60.2463C125.049 60.5308 125.263 60.8678 125.405 61.2371C125.547 61.6064 125.613 62.0006 125.6 62.3961C125.61 62.83 125.528 63.2612 125.358 63.6608C125.189 64.0604 124.937 64.4193 124.618 64.7137C123.801 65.3754 122.766 65.7062 121.717 65.6407H117.875V54.1846H120.708Z" fill="#191919" fill-opacity="0.64"/>
<path d="M47.3936 72.5889V87.7732L46.2325 87.6333V72.5889H45.3626V87.5334L43.3277 87.2857V72.5889H42.4538V87.1578L41.7116 87.0659V72.5889H40.8418V86.974L38.8028 86.7223V72.5889H37.933V86.5984L37.1908 86.5065V72.5889H36.301V86.3946L34.2621 86.1468V72.5889H33.3882V86.039L32.65 85.9471V72.5889H31.7762V85.8392L29.7412 85.5874V72.5889H28.8674V85.4835L28.1252 85.3916V72.6049H27.2554V85.2957L25.2164 85.044V72.5889H24.3466V84.9241L23.6084 84.8282V72.5889H22.7346V84.7363L20.6916 84.4846V72.5889H19.8218V84.3647L19.0836 84.2728V72.5889H18.2137V84.1769L16.1748 83.9251V72.5889H15.3049V83.8053L14.1398 83.6614V72.5889H13.0505V83.9371C13.0457 83.9689 13.0457 84.0012 13.0505 84.033C13.0553 84.1913 13.1155 84.3428 13.2205 84.4611C13.3255 84.5794 13.4687 84.657 13.6251 84.6804H13.657L48.4829 88.9839V72.5889H47.3936Z" fill="#191919" fill-opacity="0.64"/>
<path d="M23.6049 29.361V26.7437C23.6166 26.4879 23.5764 26.2324 23.4868 25.9926C23.3971 25.7528 23.2599 25.5337 23.0833 25.3486C22.9067 25.1634 22.6944 25.016 22.4593 24.9153C22.2243 24.8146 21.9712 24.7627 21.7155 24.7627C21.4599 24.7627 21.2068 24.8146 20.9717 24.9153C20.7367 25.016 20.5244 25.1634 20.3478 25.3486C20.1712 25.5337 20.0339 25.7528 19.9443 25.9926C19.8546 26.2324 19.8145 26.4879 19.8262 26.7437V29.361H20.6921V26.7437C20.6834 26.6043 20.7033 26.4645 20.7505 26.3331C20.7978 26.2016 20.8715 26.0813 20.967 25.9794C21.0626 25.8776 21.1779 25.7964 21.3059 25.741C21.434 25.6855 21.572 25.6569 21.7115 25.6569C21.8511 25.6569 21.9891 25.6855 22.1171 25.741C22.2452 25.7964 22.3605 25.8776 22.4561 25.9794C22.5516 26.0813 22.6253 26.2016 22.6726 26.3331C22.7198 26.4645 22.7397 26.6043 22.731 26.7437V29.361H23.6049Z" fill="#191919" fill-opacity="0.64"/>
<path d="M28.1244 29.361V26.7397C28.102 26.2529 27.8932 25.7935 27.5413 25.457C27.1895 25.1204 26.7216 24.9326 26.235 24.9326C25.7485 24.9326 25.2806 25.1204 24.9287 25.457C24.5769 25.7935 24.368 26.2529 24.3457 26.7397V29.361H25.2155V26.7397C25.2318 26.48 25.3463 26.2362 25.5357 26.058C25.7251 25.8798 25.9752 25.7807 26.235 25.7807C26.4949 25.7807 26.745 25.8798 26.9344 26.058C27.1238 26.2362 27.2383 26.48 27.2545 26.7397V29.361H28.1244Z" fill="#191919" fill-opacity="0.64"/>
<path d="M19.0638 29.3609V26.7436C19.0415 26.2568 18.8327 25.7974 18.4808 25.4609C18.1289 25.1243 17.6611 24.9365 17.1745 24.9365C16.6879 24.9365 16.2201 25.1243 15.8682 25.4609C15.5163 25.7974 15.3075 26.2568 15.2852 26.7436V29.3609H16.155V26.7436C16.1463 26.6041 16.1662 26.4644 16.2135 26.3329C16.2608 26.2015 16.3345 26.0812 16.43 25.9793C16.5255 25.8775 16.6408 25.7963 16.7689 25.7408C16.8969 25.6854 17.035 25.6568 17.1745 25.6568C17.314 25.6568 17.452 25.6854 17.5801 25.7408C17.7081 25.7963 17.8235 25.8775 17.919 25.9793C18.0145 26.0812 18.0882 26.2015 18.1355 26.3329C18.1828 26.4644 18.2027 26.6041 18.194 26.7436V29.3609H19.0638Z" fill="#191919" fill-opacity="0.64"/>
<path d="M37.1752 29.362V26.7407C37.1752 26.2384 36.976 25.7566 36.6213 25.4014C36.2666 25.0462 35.7855 24.8467 35.2839 24.8467C34.7823 24.8467 34.3012 25.0462 33.9465 25.4014C33.5918 25.7566 33.3926 26.2384 33.3926 26.7407V29.362H34.2624V26.7407C34.2787 26.481 34.3931 26.2372 34.5825 26.059C34.7719 25.8809 35.022 25.7817 35.2819 25.7817C35.5418 25.7817 35.7919 25.8809 35.9813 26.059C36.1707 26.2372 36.2851 26.481 36.3014 26.7407V29.362H37.1752Z" fill="#191919" fill-opacity="0.64"/>
<path d="M46.2162 29.361V26.7397C46.1938 26.2529 45.985 25.7935 45.6331 25.457C45.2813 25.1204 44.8134 24.9326 44.3268 24.9326C43.8403 24.9326 43.3724 25.1204 43.0205 25.457C42.6687 25.7935 42.4598 26.2529 42.4375 26.7397V29.361H43.3073V26.7397C43.3236 26.48 43.4381 26.2362 43.6275 26.058C43.8169 25.8798 44.067 25.7807 44.3268 25.7807C44.5867 25.7807 44.8368 25.8798 45.0262 26.058C45.2156 26.2362 45.3301 26.48 45.3463 26.7397V29.361H46.2162Z" fill="#191919" fill-opacity="0.64"/>
<path d="M32.6498 29.3619V26.7446C32.6498 26.2423 32.4506 25.7605 32.0959 25.4053C31.7412 25.0501 31.2601 24.8506 30.7585 24.8506C30.2569 24.8506 29.7758 25.0501 29.4211 25.4053C29.0664 25.7605 28.8672 26.2423 28.8672 26.7446V29.3619H29.741V26.7446C29.7323 26.6052 29.7522 26.4654 29.7995 26.334C29.8468 26.2025 29.9205 26.0822 30.016 25.9804C30.1115 25.8785 30.2269 25.7974 30.3549 25.7419C30.483 25.6864 30.621 25.6578 30.7605 25.6578C30.9 25.6578 31.0381 25.6864 31.1661 25.7419C31.2942 25.7974 31.4095 25.8785 31.505 25.9804C31.6005 26.0822 31.6742 26.2025 31.7215 26.334C31.7688 26.4654 31.7887 26.6052 31.78 26.7446V29.3619H32.6498Z" fill="#191919" fill-opacity="0.64"/>
<path d="M2.09189 15.5599C2.07467 14.321 2.30584 13.0912 2.77173 11.9433C3.23761 10.7955 3.92873 9.75286 4.80418 8.87727C5.67962 8.00169 6.7216 7.31091 7.8684 6.84582C9.01521 6.38073 10.2435 6.1508 11.4807 6.16962H50.0653C51.301 6.1535 52.5273 6.38541 53.672 6.85166C54.8167 7.31791 55.8566 8.00904 56.7302 8.8843C57.6038 9.75955 58.2935 10.8012 58.7586 11.9477C59.2237 13.0943 59.4548 14.3225 59.4381 15.5599C59.4363 16.1692 59.3843 16.7773 59.2825 17.378C58.9415 19.5763 57.8264 21.5798 56.1389 23.0264C54.4514 24.4731 52.3027 25.2675 50.0813 25.2659C49.5264 25.2643 48.9726 25.2175 48.4254 25.126C46.5785 24.8165 44.9006 23.8623 43.689 22.4324C42.4773 21.0026 41.8102 19.1894 41.8057 17.3141C41.8044 16.8653 41.8432 16.4174 41.9214 15.9755C42.062 15.1282 42.3686 14.3171 42.8236 13.589C43.2786 12.8609 43.873 12.2301 44.5725 11.7331C45.2721 11.2361 46.0629 10.8827 46.8995 10.6932C47.7361 10.5037 48.6018 10.4819 49.4468 10.629C50.6949 10.8429 51.8273 11.4914 52.6443 12.4601C53.4613 13.4289 53.9102 14.6555 53.9118 15.9235C53.9117 16.2288 53.8863 16.5335 53.836 16.8346C53.7395 17.4057 53.5312 17.952 53.2231 18.4423C52.915 18.9325 52.5133 19.3569 52.0409 19.6911C51.5685 20.0253 51.0348 20.2627 50.4704 20.3897C49.9061 20.5166 49.3223 20.5306 48.7526 20.4309C47.9182 20.2877 47.1611 19.854 46.6151 19.2062C46.069 18.5584 45.7689 17.7383 45.7679 16.8905C45.767 16.6883 45.7844 16.4863 45.8198 16.2872C45.9355 15.6054 46.2881 14.9865 46.8152 14.5398C47.3423 14.0931 48.0101 13.8472 48.7007 13.8457C48.8638 13.8451 49.0266 13.8585 49.1875 13.8856C49.7376 13.9789 50.237 14.2638 50.5977 14.6901C50.9584 15.1164 51.157 15.6565 51.1586 16.2152C51.1574 16.3492 51.1454 16.4828 51.1227 16.6148C51.0467 17.0548 50.8181 17.4539 50.4773 17.7419C50.1365 18.0298 49.7052 18.1882 49.2593 18.1892C49.1499 18.187 49.0407 18.179 48.9321 18.1652C48.5826 18.1019 48.2661 17.9183 48.0373 17.6462C47.8086 17.3741 47.6819 17.0305 47.6792 16.6748C47.6783 16.5929 47.6863 16.5111 47.7031 16.431C47.75 16.1536 47.8927 15.9015 48.1065 15.7188C48.3202 15.5362 48.5913 15.4347 48.8723 15.432H49.0598C49.1714 15.4498 49.2855 15.4234 49.378 15.3585C49.4705 15.2935 49.5341 15.195 49.5553 15.0839C49.5766 14.9727 49.5538 14.8577 49.4919 14.7631C49.4299 14.6685 49.3336 14.6017 49.2234 14.5769C49.1076 14.5551 48.99 14.5444 48.8723 14.545C48.3866 14.5447 47.9166 14.7168 47.5455 15.0306C47.1745 15.3444 46.9264 15.7797 46.8453 16.2592C46.8214 16.3911 46.8094 16.5248 46.8094 16.6588C46.8127 17.2229 47.0147 17.7677 47.3796 18.1975C47.7445 18.6272 48.249 18.9143 48.8044 19.0084C48.9602 19.0323 49.1176 19.0443 49.2753 19.0443C49.928 19.0433 50.5594 18.8114 51.0581 18.3896C51.5567 17.9677 51.8905 17.383 52.0005 16.7387C52.0285 16.5575 52.0432 16.3746 52.0444 16.1913C52.0458 15.426 51.7765 14.6851 51.2841 14.0999C50.7918 13.5146 50.1083 13.123 49.3551 12.9946C49.1441 12.9588 48.9306 12.9401 48.7166 12.9386C47.8207 12.9392 46.9538 13.2573 46.2695 13.8365C45.5852 14.4157 45.1277 15.2187 44.9779 16.1034C44.9329 16.3525 44.9115 16.6054 44.914 16.8586C44.9168 17.9115 45.2905 18.9297 45.9693 19.7338C46.6482 20.5378 47.5886 21.0762 48.6249 21.254C48.9204 21.3016 49.2193 21.3257 49.5187 21.326C50.7623 21.3245 51.9653 20.8824 52.9147 20.0779C53.8641 19.2735 54.4986 18.1585 54.7058 16.9305C54.7664 16.5822 54.7958 16.2291 54.7936 15.8756C54.7931 14.4014 54.2722 12.9749 53.323 11.8481C52.3738 10.7213 51.0574 9.9668 49.6064 9.71796C49.1936 9.64901 48.776 9.61293 48.3575 9.61006L46.7615 9.76991C41.7496 10.985 36.612 11.6034 31.4553 11.612H30.0588C24.9083 11.6206 19.7748 11.0211 14.7646 9.82584L13.1685 9.66601C12.7487 9.6682 12.3297 9.70428 11.9156 9.77389C10.465 10.0235 9.14906 10.7782 8.19999 11.9048C7.25093 13.0314 6.72975 14.4576 6.72843 15.9315C6.72962 16.2851 6.76032 16.638 6.82021 16.9864C7.02823 18.2141 7.66293 19.3286 8.61215 20.1329C9.56136 20.9373 10.764 21.3797 12.0074 21.3819C12.3041 21.3815 12.6003 21.3575 12.8932 21.31C13.9296 21.1309 14.8701 20.5924 15.5499 19.7888C16.2298 18.9852 16.6058 17.9677 16.612 16.9145C16.6089 16.6614 16.5862 16.4089 16.5442 16.1593C16.3944 15.2747 15.9368 14.4716 15.2525 13.8924C14.5683 13.3132 13.7014 12.9951 12.8054 12.9946C12.5927 12.9952 12.3805 13.0139 12.171 13.0505C11.7494 13.1165 11.3454 13.2665 10.9827 13.4916C10.62 13.7167 10.3061 14.0124 10.0595 14.3611C9.81284 14.7097 9.63852 15.1044 9.54681 15.5217C9.4551 15.939 9.44786 16.3705 9.52552 16.7906C9.63341 17.4356 9.96672 18.0212 10.4659 18.4428C10.9651 18.8644 11.5977 19.0946 12.2508 19.0923C12.4058 19.0939 12.5607 19.0819 12.7136 19.0563C13.2691 18.9623 13.7736 18.6752 14.1385 18.2454C14.5034 17.8157 14.7053 17.2708 14.7087 16.7067C14.7089 16.5727 14.6969 16.439 14.6728 16.3071C14.5918 15.8272 14.3439 15.3915 13.9729 15.077C13.6019 14.7626 13.1318 14.5897 12.6458 14.5889C12.5307 14.5896 12.4159 14.6003 12.3027 14.6209C12.2458 14.6295 12.1913 14.6496 12.1424 14.6798C12.0935 14.7101 12.0512 14.7499 12.0181 14.7969C11.9849 14.8439 11.9616 14.8972 11.9494 14.9534C11.9373 15.0097 11.9367 15.0678 11.9475 15.1244C11.968 15.2378 12.0322 15.3387 12.1262 15.4052C12.2203 15.4718 12.3367 15.4986 12.4503 15.48H12.6458C12.9256 15.4823 13.1958 15.5827 13.4093 15.7637C13.6229 15.9448 13.7664 16.195 13.8149 16.471C13.83 16.554 13.8366 16.6383 13.8349 16.7227C13.8322 17.0784 13.7055 17.422 13.4767 17.6941C13.248 17.9663 12.9315 18.1499 12.582 18.2132C12.4763 18.2291 12.3696 18.2371 12.2628 18.2371C11.8124 18.237 11.377 18.0759 11.0347 17.7829C10.6924 17.4899 10.4657 17.0842 10.3954 16.6388C10.3723 16.5068 10.3603 16.3732 10.3595 16.2392C10.3601 15.6809 10.5579 15.1407 10.9179 14.7144C11.2779 14.2881 11.7769 14.003 12.3266 13.9096C12.4888 13.8828 12.653 13.8694 12.8174 13.8697C13.5076 13.8702 14.1753 14.1152 14.7025 14.5613C15.2297 15.0074 15.5824 15.6258 15.6983 16.3071C15.7299 16.5081 15.7459 16.7111 15.7461 16.9145C15.745 17.7628 15.4444 18.5834 14.8975 19.2313C14.3506 19.8791 13.5926 20.3125 12.7575 20.4549C12.5137 20.4973 12.2668 20.52 12.0194 20.5228C10.9804 20.5239 9.97471 20.1559 9.18124 19.4842C8.38777 18.8125 7.85797 17.8807 7.68607 16.8546C7.63231 16.5552 7.6056 16.2517 7.60626 15.9475C7.60788 14.6795 8.0568 13.4529 8.87376 12.4841C9.69072 11.5154 10.8232 10.8668 12.0712 10.653C12.9161 10.5063 13.7817 10.5284 14.6181 10.7178C15.4545 10.9072 16.2452 11.2603 16.9449 11.7568C17.6446 12.2532 18.2394 12.8833 18.6952 13.6107C19.1509 14.3381 19.4586 15.1486 19.6006 15.9955C19.6718 16.4395 19.7079 16.8884 19.7083 17.3381C19.7061 19.2084 19.0443 21.0177 17.8398 22.447C16.6352 23.8763 14.9653 24.8336 13.1246 25.15C12.5774 25.2415 12.0236 25.2883 11.4687 25.2899C9.24626 25.2914 7.09658 24.4967 5.40829 23.0492C3.72 21.6018 2.6045 19.5973 2.26347 17.398C2.15956 16.7989 2.1075 16.192 2.10785 15.5839L2.09189 15.5599ZM51.9327 4.23562L50.9192 5.36645C50.6359 5.34247 50.3526 5.3225 50.0613 5.3225H11.4807C11.1934 5.3225 10.9101 5.34247 10.6268 5.36645L9.6133 4.23562H16.4763H45.0776H51.9327ZM9.05069 3.34054V1.09088H52.4554V3.34054H9.05069ZM41.7698 22.8244V21.7335H42.1688C42.3967 22.1148 42.6514 22.4794 42.9309 22.8244H41.7698ZM34.3362 12.4112C35.9961 12.3432 37.5283 12.2194 38.9687 12.0555C39.0617 12.621 39.1111 13.1927 39.1164 13.7658C39.1487 15.2299 38.84 16.6815 38.2146 18.0054C37.664 19.0723 36.9577 19.6037 36.3153 19.6037C35.4854 19.6397 34.5277 18.6327 33.9851 16.9065C34.2798 15.8858 34.4289 14.8284 34.428 13.7658C34.4264 13.3127 34.3958 12.8603 34.3362 12.4112V12.4112ZM27.952 13.7658C27.9606 13.3229 27.9979 12.8811 28.0637 12.4431C28.7101 12.4631 29.3685 12.4751 30.0588 12.4751H31.4553C32.1416 12.4751 32.8 12.4751 33.4504 12.4471C33.5165 12.8851 33.5538 13.3269 33.5621 13.7698C33.5662 14.7995 33.4183 15.8242 33.1232 16.8106C32.5845 18.6008 31.603 19.6437 30.761 19.6077C29.9151 19.6437 28.9335 18.6008 28.3989 16.8106C28.1004 15.8248 27.9511 14.7998 27.956 13.7698L27.952 13.7658ZM27.533 16.9185C26.9864 18.6367 26.0287 19.6437 25.2028 19.6077C24.5604 19.6077 23.8501 19.0723 23.2995 18.0094C22.6761 16.6863 22.3674 15.2365 22.3977 13.7738C22.405 13.2008 22.4543 12.6292 22.5453 12.0635C23.9938 12.2314 25.53 12.3552 27.1978 12.4232C26.9715 13.9291 27.086 15.4668 27.533 16.9225V16.9185ZM41.3269 20.8704H19.7802C20.292 19.7569 20.5639 18.5479 20.5782 17.3221C20.5785 16.824 20.5371 16.3268 20.4545 15.8356C20.1554 14.069 19.2233 12.4721 17.833 11.3443C19.0779 11.576 20.3508 11.7918 21.6914 11.9636C21.5915 12.5619 21.5395 13.1672 21.5358 13.7738C21.5717 17.3221 22.9284 20.3789 25.2107 20.4788C26.4357 20.4549 27.3614 19.5038 28.0038 18.1492C28.6303 19.5038 29.56 20.4549 30.7969 20.4788C32.0339 20.5028 32.9476 19.5038 33.59 18.1492C34.2165 19.5038 35.1462 20.4549 36.3831 20.4788C38.6615 20.3789 40.0221 17.3221 40.0541 13.7738C40.0504 13.1672 39.9984 12.5619 39.8984 11.9636C41.2431 11.7918 42.512 11.564 43.7569 11.3443C42.3651 12.4709 41.4327 14.0683 41.1354 15.8356C41.0526 16.3268 41.0112 16.824 41.0117 17.3221C41.0241 18.5481 41.2961 19.7575 41.8097 20.8704H41.3269ZM40.888 22.8324H38.9248V21.7415H40.888V22.8324ZM38.055 22.8324H37.1851V21.7415H38.055V22.8324ZM36.3113 22.8324H34.3522V21.7415H36.3113V22.8324ZM33.4823 22.8324H32.6085V21.7415H33.4823V22.8324ZM31.7426 22.8324H29.7795V21.7415H31.7426V22.8324ZM28.9096 22.8324H28.0358V21.7415H28.9096V22.8324ZM27.1699 22.8324H25.2068V21.7415H27.1699V22.8324ZM24.3369 22.8324H23.4511V21.7415H24.3249L24.3369 22.8324ZM22.5972 22.8324H20.6341V21.7415H22.5972V22.8324ZM19.7642 22.8324H18.6111C18.8932 22.4893 19.1481 22.1246 19.3732 21.7415H19.7722L19.7642 22.8324ZM11.4448 26.3608C11.9787 26.3693 12.5125 26.3346 13.0408 26.2569V29.4536H14.1301V25.7614C15.499 25.3822 16.755 24.6745 17.7891 23.6995C17.7891 23.6995 17.7891 23.6995 17.813 23.6995H43.729C44.7612 24.6711 46.0143 25.3761 47.3799 25.7534V29.4456H48.4653V26.2489C48.9937 26.3276 49.5271 26.3677 50.0613 26.3687V26.3687C52.5375 26.3676 54.9321 25.4816 56.8141 23.8701C58.6962 22.2585 59.9422 20.0273 60.3279 17.5778C60.4417 16.918 60.4978 16.2495 60.4955 15.5799C60.5195 13.2001 59.7233 10.8848 58.2413 9.02428C56.7592 7.16379 54.682 5.87192 52.3596 5.36645L53.5367 4.05581V0H7.96538V4.01984L9.14247 5.33049C6.818 5.83449 4.73838 7.12626 3.25469 8.98772C1.77101 10.8492 0.97413 13.1663 0.998594 15.5479C0.999436 16.2176 1.05684 16.8859 1.17017 17.5459C1.55683 19.9957 2.80362 22.227 4.68633 23.8384C6.56903 25.4499 8.9641 26.3358 11.4408 26.3368" fill="#191919" fill-opacity="0.64"/>
<path d="M41.6947 29.361V26.7437C41.7065 26.4879 41.6663 26.2324 41.5766 25.9926C41.487 25.7528 41.3497 25.5337 41.1731 25.3486C40.9965 25.1634 40.7843 25.016 40.5492 24.9153C40.3141 24.8146 40.0611 24.7627 39.8054 24.7627C39.5497 24.7627 39.2967 24.8146 39.0616 24.9153C38.8265 25.016 38.6143 25.1634 38.4377 25.3486C38.2611 25.5337 38.1238 25.7528 38.0341 25.9926C37.9445 26.2324 37.9043 26.4879 37.9161 26.7437V29.361H38.7819V26.7437C38.7819 26.4724 38.8895 26.2122 39.0811 26.0204C39.2727 25.8285 39.5325 25.7208 39.8034 25.7208C40.0743 25.7208 40.3341 25.8285 40.5257 26.0204C40.7172 26.2122 40.8249 26.4724 40.8249 26.7437V29.361H41.6947Z" fill="#191919" fill-opacity="0.64"/>
<path d="M3.5896 42.6399H4.64698C5.23975 42.701 5.83578 42.5602 6.33881 42.2403C6.56662 42.0503 6.7493 41.8118 6.87354 41.5423C6.99778 41.2727 7.06046 40.9788 7.05703 40.6819C7.06448 40.3881 7.00131 40.0968 6.87284 39.8325C6.74438 39.5683 6.55438 39.3388 6.31885 39.1635C5.76387 38.845 5.12437 38.7054 4.48738 38.7639H3.5896V42.6399ZM4.86644 36.4902C6.35875 36.4902 7.40018 36.6501 8.37378 37.5092C8.81287 37.9156 9.16085 38.4106 9.39471 38.9617C9.62857 39.5128 9.743 40.1072 9.73042 40.7059C9.75699 41.8015 9.36282 42.8656 8.62915 43.6788C7.89496 44.418 6.79767 44.8576 5.26147 44.8576H3.5896V49.7885H1V36.4902H4.86644Z" fill="#191919" fill-opacity="0.64"/>
<path d="M19.0223 38.7279H14.2381V41.7008H18.8228V43.9345H14.2381V47.5668H19.0223V49.8045H11.6445V36.4902H19.0223V38.7279Z" fill="#191919" fill-opacity="0.64"/>
<path d="M21.8158 37.745C22.9218 36.7082 24.3913 36.1497 25.9057 36.1906C28.5951 36.1906 30.2709 37.5652 30.2709 39.663C30.278 40.2341 30.1294 40.7964 29.8411 41.2892C29.5529 41.7821 29.1358 42.1869 28.635 42.4601C30.2709 42.8797 31.1048 44.2782 31.1048 45.8925C31.1048 48.4299 28.8943 50.0882 25.8219 50.0882C23.4917 50.0882 21.7759 49.1292 20.8223 47.5708L22.5141 45.9725C23.1525 47.387 24.6249 47.9464 25.8858 47.9464C27.6773 47.9464 28.4355 46.9714 28.4355 45.9725C28.4355 44.1144 26.604 43.9346 25.5266 43.9346H24.3296V41.6969H25.5266C26.8593 41.6969 27.7372 41.0775 27.7372 40.0026C27.7372 39.0436 27.0988 38.4642 25.8419 38.4642C25.3479 38.4457 24.8555 38.5302 24.3959 38.7125C23.9364 38.8948 23.5197 39.1709 23.1725 39.5231L21.8158 37.745Z" fill="#191919" fill-opacity="0.64"/>
<path d="M36.0974 36.4901V45.4329L43.4353 36.1904H45.2268V49.8044H42.6372V40.8216L35.3034 50.0641H33.5078V36.4901H36.0974Z" fill="#191919" fill-opacity="0.64"/>
<path d="M52.0467 42.2762C52.0467 44.3341 51.8312 45.3531 51.5918 45.9924C51.3729 46.5908 51.0177 47.1299 50.5544 47.5668H55.9171V38.7279H52.0467V42.2762ZM58.5067 36.4902V47.5748H59.9072V52.8054H57.5131V49.8125H49.3413V52.8054H46.9473V47.5748C47.9049 47.6147 48.667 46.7756 49.0581 45.7806C49.3214 45.1213 49.5369 44.1223 49.5369 42.2842V36.4902H58.5067Z" fill="#191919" fill-opacity="0.64"/>
<path d="M69.0047 38.7279H64.2166V41.7008H68.8052V43.9345H64.2166V47.5668H69.0047V49.8045H61.627V36.4902H69.0047V38.7279Z" fill="#191919" fill-opacity="0.64"/>
<path d="M74.1072 41.6409H79.7333V36.4902H82.3229V49.8045H79.7333V43.8746H74.1072V49.8045H71.5176V36.4902H74.1072V41.6409Z" fill="#191919" fill-opacity="0.64"/>
<path d="M85.3555 36.4902H87.9491V47.5708H93.216V36.4902H95.8056V47.5708H97.3977V52.7974H95.0076V49.8045H85.3555V36.4902Z" fill="#191919" fill-opacity="0.64"/>
<path d="M101.711 36.4901V45.4329L109.045 36.1904H110.84V49.8044H108.251V40.8216L100.913 50.0641H99.1211V36.4901H101.711Z" fill="#191919" fill-opacity="0.64"/>
<path d="M116.47 36.4901V45.4329L123.804 36.1904H125.6V49.8044H123.006V40.8216L115.672 50.0641H113.881V36.4901H116.47Z" fill="#191919" fill-opacity="0.64"/>
<path d="M125.6 29.1699H1V30.5005H125.6V29.1699Z" fill="#191919" fill-opacity="0.64"/>
<path d="M125.6 71.6533H1V72.9839H125.6V71.6533Z" fill="#191919" fill-opacity="0.64"/>
</svg>
