<svg width="140" height="91" viewBox="0 0 140 91" fill="none" xmlns="http://www.w3.org/2000/svg">
<path d="M139.981 33.5957H0V35.0799H139.981V33.5957Z" fill="#191919" fill-opacity="0.8"/>
<path d="M139.981 70.6162H0V72.1004H139.981V70.6162Z" fill="#191919" fill-opacity="0.8"/>
<path d="M4.34311 37.3398C6.02334 37.3398 7.19055 37.5183 8.28719 38.478C8.78268 38.9348 9.17477 39.4915 9.43735 40.111C9.69992 40.7305 9.82696 41.3986 9.80999 42.0709C9.80999 42.6494 9.7177 44.258 8.57492 45.3934C7.76059 46.2207 6.51737 46.7073 4.79099 46.7073H2.90988V52.2169H0V37.348L4.34311 37.3398ZM2.90988 44.212H4.09609C4.65527 44.212 5.37459 44.212 5.9962 43.7416C6.25397 43.5311 6.46098 43.2656 6.60192 42.9647C6.74287 42.6638 6.81416 42.3353 6.81053 42.0033C6.81801 41.674 6.74569 41.3478 6.59968 41.0522C6.45367 40.7567 6.23829 40.5005 5.97177 40.3055C5.36916 39.8838 4.61455 39.8405 3.91422 39.8405H2.90988V44.212Z" fill="#191919" fill-opacity="0.64"/>
<path d="M20.252 39.8405H14.8774V43.1631H20.0294V45.661H14.8774V49.7216H20.252V52.2169H11.9648V37.3398H20.252V39.8405Z" fill="#191919" fill-opacity="0.64"/>
<path d="M23.3898 38.7455C24.6312 37.5863 26.2816 36.9616 27.9827 37.0072C31.0066 37.0072 32.8904 38.5455 32.8904 40.8867C32.9017 41.5283 32.7365 42.1608 32.4125 42.7155C32.0886 43.2702 31.6183 43.726 31.0527 44.0335C32.8904 44.5012 33.8269 46.061 33.8269 47.8696C33.8269 50.7002 31.3431 52.552 27.8904 52.552C25.2737 52.552 23.3437 51.4706 22.2715 49.7431L24.1716 47.9372C24.8882 49.5214 26.544 50.1432 27.9555 50.1432C29.9696 50.1432 30.822 49.0619 30.822 47.9372C30.822 45.861 28.7617 45.6609 27.5646 45.6609H26.2074V43.1738H27.5646C29.063 43.1738 30.0511 42.4817 30.0511 41.2814C30.0511 40.2 29.3317 39.562 27.9202 39.562C27.2036 39.562 25.8817 39.6944 24.9208 40.7461L23.3898 38.7455Z" fill="#191919" fill-opacity="0.64"/>
<path d="M39.4353 37.3394V47.334L47.679 37.0068H49.6932V52.2164H46.7833V42.1812L38.5395 52.5084H36.5254V37.3394H39.4353Z" fill="#191919" fill-opacity="0.64"/>
<path d="M64.6183 37.3398V49.7216H66.1872V55.5638H63.4972V52.2169H54.317V55.5638H51.627V49.7216C52.7127 49.7649 53.5569 48.8268 54.0021 47.713C54.2925 46.9776 54.545 45.8611 54.545 43.8092V37.3398H64.6183ZM57.3599 43.8092C57.3599 46.1071 57.1156 47.2453 56.8468 47.959C56.6016 48.6294 56.2018 49.2331 55.6796 49.7216H61.7057V39.8405H57.3626L57.3599 43.8092Z" fill="#191919" fill-opacity="0.64"/>
<path d="M76.4063 39.8405H71.029V43.1631H76.1864V45.661H71.029V49.7216H76.4063V52.2169H68.1191V37.3398H76.4063V39.8405Z" fill="#191919" fill-opacity="0.64"/>
<path d="M82.1443 43.0955H88.4608V37.3398H91.3734V52.2169H88.4608V45.5962H82.1443V52.2169H79.2344V37.3398H82.1443V43.0955Z" fill="#191919" fill-opacity="0.64"/>
<path d="M94.7832 37.3398H97.6958V49.7216H103.611V37.3398H106.523V49.7216H108.312V55.5638H105.625V52.2169H94.7832V37.3398Z" fill="#191919" fill-opacity="0.64"/>
<path d="M113.158 37.3394V47.334L121.402 37.0068H123.416V52.2164H120.506V42.1812L112.262 52.5084H110.248V37.3394H113.158Z" fill="#191919" fill-opacity="0.64"/>
<path d="M129.74 37.3394V47.334L137.984 37.0068H140.001V52.2164H137.088V42.1812L128.844 52.5084H126.83V37.3394H129.74Z" fill="#191919" fill-opacity="0.64"/>
<path d="M2.23127 61.8513L6.43865 57.0283H9.25353L4.41368 62.2973L9.5114 68.4341H6.55809L2.49186 63.3219L2.23127 63.5788V68.4341H0V57.0283H2.23127V61.8513Z" fill="#191919" fill-opacity="0.64"/>
<path d="M22.5942 62.7409C22.5942 66.2121 20.0888 68.6885 16.484 68.6885C12.8792 68.6885 10.3711 66.2121 10.3711 62.7409C10.3711 59.2697 12.8792 56.7744 16.484 56.7744C20.0888 56.7744 22.5942 59.2697 22.5942 62.7409ZM20.2951 62.7409C20.2951 60.4322 18.7153 58.7912 16.4949 58.7912C14.2745 58.7912 12.6947 60.4322 12.6947 62.7409C12.6947 65.0497 14.2717 66.6717 16.4949 66.6717C18.718 66.6717 20.2951 65.0497 20.2951 62.7409Z" fill="#191919" fill-opacity="0.64"/>
<path d="M24.0801 68.4348L26.2082 56.8262H27.7527L30.858 64.2796L34.1045 56.8262H35.649L37.5709 68.4348H35.307L34.2755 61.4085L31.1322 68.5861H30.516L27.5138 61.4085L26.3439 68.4348H24.0801Z" fill="#191919" fill-opacity="0.64"/>
<path d="M39.6035 57.0283H48.6643V68.4341H46.4358V58.9451H41.8348V68.4341H39.6035V57.0283Z" fill="#191919" fill-opacity="0.64"/>
<path d="M62.9583 62.7409C62.9583 66.2121 60.4474 68.6885 56.8426 68.6885C53.2379 68.6885 50.7324 66.2121 50.7324 62.7409C50.7324 59.2697 53.2379 56.7744 56.8426 56.7744C60.4474 56.7744 62.9583 59.2697 62.9583 62.7409ZM60.6537 62.7409C60.6537 60.4322 59.0739 58.7912 56.8535 58.7912C54.6331 58.7912 53.0533 60.4322 53.0533 62.7409C53.0533 65.0497 54.6331 66.6717 56.8535 66.6717C59.0739 66.6717 60.6537 65.0497 60.6537 62.7409Z" fill="#191919" fill-opacity="0.64"/>
<path d="M65.261 58.1072C66.2146 57.2167 67.483 56.7376 68.7897 56.7744C71.1079 56.7744 72.5492 57.9531 72.5492 59.7482C72.5565 60.239 72.4295 60.7226 72.1818 61.1469C71.9341 61.5713 71.575 61.9204 71.1432 62.157C72.5492 62.5165 73.2686 63.7115 73.2686 65.0956C73.2686 67.2584 71.3685 68.6858 68.7192 68.6858C66.7132 68.6858 65.2365 67.8748 64.4141 66.523L65.8717 65.1362C66.4146 66.35 67.6904 66.8285 68.7735 66.8285C70.3153 66.8285 70.9694 65.9932 70.9694 65.1362C70.9694 63.5466 69.3869 63.3925 68.4667 63.3925H67.4352V61.4784H68.4667C69.6122 61.4784 70.3668 60.9377 70.3668 60.0267C70.3668 59.2156 69.824 58.7074 68.7382 58.7074C68.3122 58.6917 67.8877 58.7643 67.4914 58.9207C67.0952 59.0771 66.7359 59.3138 66.4363 59.6158L65.261 58.1072Z" fill="#191919" fill-opacity="0.64"/>
<path d="M77.5563 57.0285V64.6901L83.8728 56.7744H85.4173V68.4344H83.186V60.7404L76.8695 68.6533H75.3223V57.0285H77.5563Z" fill="#191919" fill-opacity="0.64"/>
<path d="M91.6405 68.4341H89.4065V58.9451H86.8359V57.0283H94.2165V58.9451H91.6405V68.4341Z" fill="#191919" fill-opacity="0.64"/>
<path d="M107.299 62.7409C107.299 66.2121 104.791 68.6885 101.186 68.6885C97.5816 68.6885 95.0762 66.2121 95.0762 62.7409C95.0762 59.2697 97.5816 56.7744 101.186 56.7744C104.791 56.7744 107.299 59.2697 107.299 62.7409ZM104.997 62.7409C104.997 60.4322 103.42 58.7912 101.197 58.7912C98.9741 58.7912 97.397 60.4322 97.397 62.7409C97.397 65.0497 98.9741 66.6717 101.197 66.6717C103.42 66.6717 104.997 65.0497 104.997 62.7409Z" fill="#191919" fill-opacity="0.64"/>
<path d="M112.695 57.0283C113.981 57.0283 114.866 57.1689 115.716 57.9015C116.096 58.2517 116.396 58.6786 116.598 59.1536C116.799 59.6286 116.896 60.1409 116.883 60.6563C116.883 61.0997 116.815 62.3298 115.938 63.203C115.303 63.8356 114.359 64.2114 113.037 64.2114H111.595V68.4341H109.361V57.0283H112.695ZM111.595 62.2973H112.505C113.017 62.3457 113.531 62.2189 113.962 61.9378C114.16 61.7762 114.318 61.5725 114.425 61.3418C114.533 61.1111 114.587 60.8593 114.584 60.605C114.59 60.3534 114.536 60.104 114.425 59.8777C114.315 59.6514 114.151 59.4548 113.949 59.3046C113.485 58.9775 112.901 58.9451 112.369 58.9451H111.595V62.2973Z" fill="#191919" fill-opacity="0.64"/>
<path d="M130.211 62.7409C130.211 66.2121 127.706 68.6885 124.096 68.6885C120.486 68.6885 117.988 66.2121 117.988 62.7409C117.988 59.2697 120.494 56.7744 124.096 56.7744C127.698 56.7744 130.211 59.2697 130.211 62.7409ZM127.91 62.7409C127.91 60.4322 126.33 58.7912 124.096 58.7912C121.862 58.7912 120.296 60.4322 120.296 62.7409C120.296 65.0497 121.873 66.6717 124.096 66.6717C126.319 66.6717 127.91 65.0497 127.91 62.7409Z" fill="#191919" fill-opacity="0.64"/>
<path d="M135.109 57.0283C135.739 57.0283 136.977 57.0283 137.905 57.7474C138.25 58.0356 138.524 58.3975 138.708 58.8062C138.893 59.2149 138.982 59.6597 138.969 60.1075C138.987 60.5633 138.876 61.0148 138.648 61.4105C138.421 61.8063 138.086 62.1305 137.683 62.346C138.243 62.4247 138.765 62.6762 139.176 63.0651C139.449 63.3479 139.662 63.683 139.802 64.05C139.942 64.4171 140.006 64.8085 139.99 65.2008C140 65.6326 139.918 66.0616 139.75 66.4596C139.581 66.8575 139.33 67.2154 139.013 67.5096C138.152 68.2638 137.113 68.4341 136.111 68.4341H132.275V57.0283H135.109ZM134.507 61.7675H135.145C135.487 61.7675 136.874 61.7323 136.874 60.2779C136.874 59.237 136.059 58.8423 135.161 58.8423H134.507V61.7675ZM134.507 66.6337H135.468C135.995 66.6651 136.521 66.5598 136.996 66.3282C137.22 66.1908 137.403 65.9964 137.527 65.765C137.651 65.5336 137.71 65.2735 137.699 65.0116C137.707 64.7358 137.632 64.4639 137.482 64.2318C137.332 63.9997 137.115 63.8182 136.86 63.7112C136.372 63.5298 135.851 63.4542 135.332 63.4895H134.518L134.507 66.6337Z" fill="#191919" fill-opacity="0.64"/>
<path d="M60.1625 20.1572L59.9236 20.0409C60.2982 19.0839 60.9687 16.9158 60.9687 15.0125C60.9687 14.8341 60.9687 14.6611 60.9687 14.5016V14.4854C60.8601 12.5713 60.0539 10.4626 57.9149 9.11092C57.1933 8.60506 56.3377 8.3229 55.4556 8.29989C55.3661 8.29989 55.2738 8.29989 55.1842 8.29989C50.8628 8.84058 48.7672 15.7208 45.9252 17.2212C45.0573 17.7275 44.0818 18.023 43.0778 18.0836C42.8796 18.0999 42.676 18.1026 42.4752 18.1026C39.6549 18.1026 36.365 16.6779 33.4551 15.0206C29.4839 12.9282 22.7683 1.15469 15.1706 1.01141C14.7662 0.995189 14.3563 0.984375 13.9681 0.984375C13.3655 0.984375 12.7955 1.006 12.2689 1.04655C9.13098 1.27905 7.13586 2.12793 5.92251 3.39314C4.96057 4.40699 4.44129 5.75922 4.47843 7.15363C4.47843 7.29421 4.47843 7.4456 4.49471 7.61321C4.5862 8.83264 4.92021 10.0218 5.47734 11.1115L5.56149 11.2304L5.57506 11.2683C5.87093 11.6792 7.00557 13.285 8.95454 13.3067H9.13098C9.34848 13.289 9.56334 13.2473 9.77159 13.1823C9.79873 13.6067 9.82859 14.069 9.85845 14.5611C9.89645 15.2964 9.94531 16.102 9.99417 16.9942C10.2656 21.344 10.6456 27.2672 11.4925 33.6582H12.6272C11.7748 27.2429 11.3758 21.298 11.1152 16.9158C11.0664 16.0452 11.0229 15.2315 10.9795 14.4827C10.8302 12.0144 10.7271 10.3707 10.5181 9.65161C10.3226 9.00008 9.85845 8.29989 9.16084 8.42965C8.42794 8.58105 8.22435 9.65972 8.88939 10.0869C9.20155 10.2923 9.63044 9.7976 9.90188 10.0004C10.1733 10.2031 10.0756 11.4737 10.1 11.7765C9.78951 11.9555 9.44445 12.067 9.08755 12.1036C8.31665 12.1739 7.65975 11.7684 7.18744 11.3494C6.91153 11.0975 6.66396 10.8165 6.44911 10.5113C5.98015 9.5745 5.69632 8.55667 5.61306 7.51319C5.53163 5.35043 6.35953 2.75783 12.3476 2.2631C13.2836 2.19959 14.2225 2.18876 15.1598 2.23066C21.764 2.16037 28.5094 13.5148 32.9339 16.0993C36.137 17.9133 39.8096 19.5381 43.1565 19.3002C44.3242 19.2278 45.4585 18.8833 46.4681 18.2945C49.8096 16.2075 52.0707 9.6435 55.2738 9.52725C56.0136 9.49839 56.7419 9.71731 57.3422 10.149C59.1364 11.3115 59.7363 12.9228 59.8422 14.5584C59.9697 16.6427 59.2016 18.6838 58.865 19.4732L57.2227 18.6622L56.8671 18.4919L56.6364 18.3729C56.7013 17.7705 56.7194 17.1641 56.6907 16.5589C56.6256 15.5586 56.3568 14.2556 55.1923 14.288C55.0671 14.2987 54.9439 14.326 54.8259 14.3691C52.505 15.2748 49.4594 22.6687 45.0539 23.3824C43.9355 23.5635 42.8253 23.6527 41.6201 23.7474C37.6516 24.0177 32.6815 23.4527 23.8677 16.2886C19.9046 13.4364 17.7656 12.9904 16.6608 13.0715C16.3218 13.0683 15.9911 13.1756 15.7189 13.377L15.5941 13.4824V13.6527C15.2847 20.0285 15.2974 26.4158 15.6321 32.7904C15.6321 33.0769 15.6728 33.3635 15.6891 33.6501H16.3867C16.3677 33.3473 16.3432 33.0445 16.3215 32.739C16.0175 27.5376 16.0338 22.4335 16.1125 18.8217L20.233 33.6501H20.9578L16.1695 16.4102C16.2102 15.1856 16.2537 14.3096 16.27 13.923C16.412 13.8789 16.5586 13.8508 16.707 13.8392C17.3486 13.8321 17.9855 13.9487 18.5827 14.1826L23.9193 33.6474H24.6467L19.4024 14.5178C20.8029 15.1623 22.132 15.9506 23.3682 16.8698L27.8362 33.6582H28.5582L24.2803 17.5835C25.4475 18.5027 26.5495 19.3083 27.5919 20.0166L31.2672 33.6609H31.992L28.4632 20.5951C29.5269 21.2719 30.627 21.8901 31.7586 22.447L34.6902 33.6501H35.4203L32.5865 22.8363C33.4965 23.251 34.4343 23.6024 35.3932 23.8879L37.9312 33.6528H38.6587L36.1668 24.0907C37.09 24.3183 38.0306 24.4684 38.979 24.5395L41.2998 33.6528H42.0273L39.7146 24.5719C40.3986 24.5908 41.0501 24.5719 41.6717 24.5259C41.9024 24.5097 42.1223 24.4773 42.3503 24.4557L44.6929 33.6474H45.4203L43.0588 24.3827C43.7672 24.3016 44.454 24.2448 45.1163 24.1583C45.3265 24.128 45.5349 24.0865 45.7406 24.0339L47.9719 33.6474H48.6912L46.4165 23.8312C47.1359 23.5527 47.8072 23.1642 48.4062 22.6795L50.2358 30.4005L48.9871 33.6447H49.7472L55.3172 19.1137L55.8737 18.9893L51.099 33.6528H51.8454C51.9513 33.3311 52.0517 33.0093 52.1576 32.6876C53.0751 29.8688 53.9935 27.0483 54.9127 24.2259C55.2059 23.3256 55.4963 22.4227 55.7895 21.5224L56.5061 19.1596L59.2911 20.5113L56.4763 33.642H57.6245L60.3905 20.6195C60.4108 20.5273 60.3997 20.431 60.3589 20.3458C60.3181 20.2606 60.2499 20.1914 60.1652 20.1491L60.1625 20.1572ZM50.6836 29.2245L49.0088 22.155C49.6408 21.5687 50.2278 20.9361 50.7651 20.2626L52.1576 25.3721L50.6836 29.2245ZM55.9171 18.3675L54.7526 18.6081L52.5105 24.4475L51.3025 19.5814C52.9448 17.4186 54.1771 15.3072 55.0159 15.1153C55.0826 15.0888 55.1532 15.0733 55.2249 15.0693C55.6728 15.0342 55.9117 15.61 55.9822 16.613C56.0147 17.1986 55.9929 17.7859 55.9171 18.3675V18.3675Z" fill="#191919" fill-opacity="0.8"/>
<path d="M47.9093 72.0325L44.1362 87.9504L34.8392 88.8128L34.7659 88.7533C34.6818 88.6776 35.5395 86.2742 35.5803 86.1147C36.3928 83.5014 37.2071 80.8881 38.0233 78.2748C38.6802 76.1823 39.3334 74.088 39.9831 71.992H39.2068L34.128 88.3208L32.4777 87.4394C33.0477 86.9555 34.2366 85.6443 34.1063 83.2788C34.0276 81.9271 33.4929 80.3051 32.2361 78.3802L33.3951 77.3745L33.7589 78.2315C33.7589 78.2315 34.1009 78.5424 34.3018 78.5424C34.5026 78.5424 34.5732 78.3207 34.5732 78.3207L33.9299 75.9201L35.3712 71.9893H34.5868L33.6014 74.6765L32.8875 71.9893H32.1275L33.1726 75.8849C33.1004 76.3312 32.8772 76.7394 32.5401 77.042C32.3609 77.2231 31.7502 77.7746 31.7502 77.7746C30.393 76.5446 29.0493 74.5116 27.7708 72.0028H26.9022C28.1439 74.4133 29.7031 76.6481 31.5385 78.6478C32.6083 79.9961 33.2517 81.6306 33.387 83.3437C33.5363 85.8038 32.1302 86.7798 31.8859 86.9123C31.1174 87.1968 30.3122 87.3716 29.4945 87.4313C28.0043 87.5097 26.6063 87.2286 26.4706 85.5389C26.4706 85.4551 26.457 85.374 26.4516 85.301C26.4027 83.5789 26.9185 83.4086 27.4369 83.3248C27.8387 83.2545 28.3816 83.2545 28.6394 83.6898C29.1416 84.5413 27.8061 84.8739 28.3463 85.6714C28.6747 86.1553 29.1606 85.9958 29.4646 85.6552C30.9467 84.052 30.0428 81.3297 28.9706 79.7481C27.2089 77.1745 24.9939 74.5873 23.6476 71.992H22.3066C23.748 74.8414 26.0906 77.6692 28.026 80.5024C28.3499 81.0713 28.6094 81.6742 28.7996 82.3002C28.397 82.1253 27.963 82.0334 27.5238 82.0298C27.4722 82.0298 27.4125 82.0298 27.3311 82.0298C27.0272 82.0521 26.733 82.1458 26.4725 82.3032C26.2121 82.4606 25.9928 82.6773 25.8327 82.9355C25.4555 83.5441 25.2623 84.248 25.2762 84.9631C25.2762 85.0874 25.2762 85.2334 25.2762 85.4064C25.2762 85.4875 25.2898 85.5822 25.2952 85.6768C25.5015 88.0829 27.4994 88.7993 28.9869 88.7587C29.1416 88.7587 29.2882 88.7587 29.4293 88.7425H29.5678C30.2196 88.6872 30.8642 88.5677 31.4923 88.3856L33.9353 89.6995L34.4511 89.9239L34.7469 90.0158L44.7279 89.2264C44.8251 89.2179 44.9168 89.1778 44.9889 89.1124C45.061 89.0469 45.1095 88.9597 45.127 88.8641L49.09 72.0487L47.9093 72.0325Z" fill="#191919" fill-opacity="0.8"/>
</svg>
