<svg width="203" height="64" viewBox="0 0 203 64" fill="none" xmlns="http://www.w3.org/2000/svg">
<mask id="path-1-outside-1_2687_3447" maskUnits="userSpaceOnUse" x="0" y="0" width="203" height="64" fill="black">
<rect fill="white" width="203" height="64"/>
<path fill-rule="evenodd" clip-rule="evenodd" d="M23.782 33.5303C23.3527 33.0295 22.815 32.634 22.2102 32.374C21.6054 32.114 20.9494 31.9963 20.2924 32.0299C18.4814 32.0299 16.3268 33.039 16.3268 35.4422C16.3268 37.6795 17.9989 38.3965 19.6314 38.9011C21.2639 39.4056 22.6452 39.8305 22.6452 41.5566C22.6452 43.1499 21.1846 43.9532 19.9156 43.9532C19.3524 43.9573 18.7975 43.8167 18.3036 43.5448C17.8097 43.273 17.3931 42.8788 17.0935 42.3997L16.0096 43.203C16.4695 43.793 17.0605 44.2666 17.7354 44.5859C18.4102 44.9052 19.1501 45.0614 19.8958 45.042C21.8455 45.042 23.9208 43.9532 23.9208 41.4703C23.9208 38.9874 22.0041 38.4231 20.2593 37.8455C18.8846 37.394 17.576 36.9891 17.576 35.4157C17.576 33.8423 18.9903 33.0855 20.2196 33.0855C20.7191 33.0525 21.2187 33.1473 21.6718 33.3609C22.1248 33.5745 22.5166 33.9 22.8105 34.307L23.782 33.5303ZM15.8509 33.5303C15.4226 33.0301 14.8861 32.6348 14.2824 32.3748C13.6788 32.1148 13.0239 31.9968 12.3679 32.0299C10.557 32.0299 8.40234 33.039 8.40234 35.4422C8.40234 37.6795 10.0745 38.3965 11.707 38.9011C13.3394 39.4056 14.7208 39.8305 14.7208 41.5566C14.7208 43.1499 13.2535 43.9532 11.9845 43.9532C11.4213 43.9573 10.8664 43.8167 10.3725 43.5448C9.87857 43.273 9.46203 42.8788 9.1624 42.3997L8.13797 43.1831C8.59651 43.7729 9.18635 44.2465 9.86012 44.5659C10.5339 44.8853 11.2728 45.0415 12.0176 45.0221C14.0004 45.0221 16.0426 43.9333 16.0426 41.4504C16.0426 38.9675 14.1259 38.4032 12.3877 37.8256C11.013 37.3741 9.70436 36.9692 9.70436 35.3958C9.70436 33.8224 11.1121 33.0655 12.3481 33.0655C12.8393 33.0456 13.3279 33.1486 13.7697 33.3653C14.2116 33.582 14.5929 33.9056 14.8794 34.307L15.8509 33.5303ZM55.4138 20.485C54.9855 19.9848 54.449 19.5895 53.8453 19.3295C53.2416 19.0695 52.5868 18.9515 51.9307 18.9846C50.1198 18.9846 47.9652 19.9937 47.9652 22.3903C47.9652 24.6342 49.6373 25.3512 51.2698 25.8558C52.9023 26.3603 54.2836 26.7852 54.2836 28.5113C54.2836 30.1046 52.823 30.9079 51.5474 30.9079C50.9842 30.912 50.4293 30.7714 49.9354 30.4996C49.4414 30.2277 49.0249 29.8335 48.7253 29.3544L47.648 30.1577C48.1075 30.7481 48.6985 31.222 49.3734 31.5413C50.0483 31.8607 50.7884 32.0167 51.5342 31.9967C53.4839 31.9967 55.5526 30.9079 55.5526 28.425C55.5526 25.9421 53.6425 25.3778 51.8977 24.8002C50.5692 24.3554 49.2474 23.9504 49.2474 22.377C49.2474 20.8036 50.6552 20.0468 51.8911 20.0468C52.3847 20.024 52.8761 20.1257 53.3205 20.3425C53.765 20.5594 54.1483 20.8845 54.4356 21.2883L55.4138 20.485ZM47.4827 20.485C47.0554 19.9836 46.519 19.5876 45.9151 19.3274C45.3112 19.0673 44.6559 18.95 43.9997 18.9846C42.1887 18.9846 40.0341 19.9937 40.0341 22.3903C40.0341 24.6342 41.7063 25.3512 43.3387 25.8558C44.9712 26.3603 46.3526 26.7852 46.3526 28.5113C46.3526 30.1046 44.8919 30.9079 43.6229 30.9079C43.0597 30.912 42.5048 30.7714 42.0109 30.4996C41.517 30.2277 41.1004 29.8335 40.8008 29.3544L39.7169 30.1577C40.1768 30.7477 40.7678 31.2213 41.4427 31.5406C42.1175 31.8599 42.8574 32.0161 43.6031 31.9967C45.5528 31.9967 47.6281 30.9079 47.6281 28.425C47.6281 25.9421 45.7115 25.3778 43.9666 24.8002C42.6382 24.3554 41.3163 23.9504 41.3163 22.377C41.3163 20.8036 42.7307 20.0468 43.96 20.0468C44.4536 20.024 44.945 20.1257 45.3894 20.3425C45.8339 20.5594 46.2172 20.8845 46.5046 21.2883L47.4827 20.485ZM15.8509 20.485C15.4226 19.9848 14.8861 19.5895 14.2824 19.3295C13.6788 19.0695 13.0239 18.9515 12.3679 18.9846C10.557 18.9846 8.40234 19.9937 8.40234 22.3903C8.40234 24.6342 10.0745 25.3512 11.707 25.8558C13.3394 26.3603 14.7208 26.7852 14.7208 28.5113C14.7208 30.1046 13.2535 30.9079 11.9845 30.9079C11.4213 30.912 10.8664 30.7714 10.3725 30.4996C9.87857 30.2277 9.46203 29.8335 9.1624 29.3544L8.13797 30.1644C8.59651 30.7542 9.18635 31.2278 9.86012 31.5472C10.5339 31.8665 11.2728 32.0228 12.0176 32.0033C14.0004 32.0033 16.0426 30.9146 16.0426 28.4316C16.0426 25.9487 14.1259 25.3844 12.3877 24.8068C11.013 24.3554 9.70436 23.9504 9.70436 22.377C9.70436 20.8036 11.1121 20.0468 12.3481 20.0468C12.8393 20.0269 13.3279 20.1299 13.7697 20.3466C14.2116 20.5633 14.5929 20.8869 14.8794 21.2883L15.8509 20.485ZM23.3656 7.02142C23.4148 7.06012 23.4612 7.10227 23.5044 7.14755C23.782 6.99486 24.0662 6.84217 24.3504 6.70275C24.02 6.80234 23.6895 6.90856 23.3656 7.02142ZM22.0438 17.0859C22.2928 16.8244 22.4779 16.5084 22.5845 16.1627C22.6912 15.8171 22.7165 15.4513 22.6585 15.0942C22.3729 15.7314 22.1622 16.3998 22.0306 17.0859H22.0438ZM17.6619 9.78317C17.7332 10.1133 17.8854 10.4204 18.1047 10.6766C18.324 10.9328 18.6034 11.13 18.9176 11.2503C19.8665 9.90073 21.0538 8.73738 22.4205 7.81808C22.3033 7.70353 22.1749 7.60121 22.0372 7.51269C20.5051 8.13135 19.0355 8.8961 17.6487 9.79645L17.6619 9.78317ZM10.0613 17.2585C10.6333 17.6894 11.329 17.9224 12.044 17.9224C13.313 17.9224 14.7803 17.1191 14.7803 15.5258C14.7884 15.0536 14.645 14.5914 14.3712 14.2076C14.0974 13.8237 13.7078 13.5387 13.2601 13.3947C12.0744 14.5779 11.0033 15.8717 10.0613 17.2585V17.2585ZM6.20147 26.3072C6.20147 26.1412 6.27417 25.9819 6.31382 25.8226C6.28739 25.9819 6.23451 26.1412 6.20147 26.3072ZM6.10233 26.7719C6.10233 26.6192 6.16181 26.4732 6.19486 26.3271C6.16181 26.4732 6.13537 26.6192 6.10233 26.7719ZM5.62646 30.5361C5.99541 30.3511 6.30616 30.0671 6.52431 29.7156C6.74245 29.364 6.85946 28.9587 6.86239 28.5445C6.88392 28.2171 6.8246 27.8894 6.6897 27.5906C6.55479 27.2918 6.34849 27.0311 6.08911 26.8317V26.7918C5.84725 28.0274 5.69265 29.2787 5.62646 30.5361V30.5361ZM5.62646 33.2647C5.62646 32.8863 5.62646 32.5012 5.62646 32.1095C6.54696 32.291 7.3736 32.7944 7.95952 33.5303L6.94831 34.307C6.62422 33.8319 6.16285 33.4681 5.62646 33.2647V33.2647ZM7.39113 41.6363L7.30521 41.3973L7.39113 41.6363ZM7.86038 42.7516C7.82734 42.6719 7.78768 42.5989 7.75464 42.5192C7.78768 42.5989 7.82734 42.6719 7.86038 42.7516V42.7516ZM10.2529 46.9672C10.0282 46.6419 9.81011 46.3034 9.592 45.9648C10.3979 45.336 11.3939 45.0033 12.4141 45.0221C13.0702 44.989 13.725 45.1069 14.3287 45.367C14.9324 45.627 15.4689 46.0222 15.8972 46.5224L14.8794 47.3257C14.5916 46.9224 14.2082 46.5976 13.7639 46.3808C13.3195 46.1641 12.8283 46.0621 12.3348 46.0843C11.9462 46.081 11.561 46.1577 11.203 46.3095C10.8449 46.4613 10.5216 46.6852 10.2529 46.9672V46.9672ZM43.0149 46.2436C42.5308 46.3624 42.1004 46.6409 41.7924 47.0345C41.4845 47.428 41.3169 47.9139 41.3163 48.4145C41.2997 48.857 41.4377 49.2915 41.7063 49.6427C42.3599 48.6099 42.7941 47.4527 42.9818 46.2436H43.0149ZM41.0321 50.6783C40.7337 50.388 40.5003 50.0371 40.3476 49.649C40.1949 49.2609 40.1263 48.8446 40.1465 48.4278C40.1465 46.4361 41.6137 45.4005 43.1471 45.1084C43.1504 45.0686 43.1504 45.0286 43.1471 44.9889C42.5011 44.9372 41.8731 44.7497 41.3038 44.4386C40.7345 44.1275 40.2367 43.6998 39.8425 43.1831L40.9264 42.3798C41.1694 42.7738 41.493 43.1114 41.8759 43.3701C42.2588 43.6288 42.6921 43.8027 43.1471 43.8802C42.7836 38.3899 38.6726 36.2455 33.6628 34.5394C33.5534 34.8113 33.4995 35.1025 33.5042 35.3958C33.5042 36.9692 34.8261 37.3874 36.1876 37.8256C37.9258 38.4032 39.8425 38.9675 39.8425 41.4504C39.8425 43.9333 37.7672 45.0221 35.8174 45.0221C35.0719 45.0405 34.3323 44.8838 33.6577 44.5646C32.983 44.2453 32.3918 43.7723 31.9312 43.1831L33.0151 42.3798C33.3147 42.8589 33.7313 43.253 34.2252 43.5249C34.7191 43.7968 35.2741 43.9374 35.8373 43.9333C37.1062 43.9333 38.5735 43.13 38.5735 41.5367C38.5735 39.8039 37.1261 39.3658 35.5597 38.8811C33.9933 38.3965 32.2551 37.6596 32.2551 35.4223C32.2516 34.9887 32.3301 34.5585 32.4864 34.1543L31.3959 33.8091L30.7746 34.3136C30.4873 33.9099 30.1039 33.5848 29.6595 33.3679C29.215 33.1511 28.7236 33.0494 28.23 33.0722C27.0139 33.0722 25.5863 33.8091 25.5863 35.4024C25.5863 36.9957 26.9082 37.394 28.2697 37.8322C30.0145 38.4098 31.9246 38.9741 31.9246 41.457C31.9246 43.9399 29.8559 45.0287 27.9062 45.0287C27.1604 45.0487 26.4203 44.8927 25.7454 44.5733C25.0705 44.254 24.4795 43.7801 24.02 43.1897L25.0973 42.3864C25.3969 42.8655 25.8134 43.2597 26.3074 43.5316C26.8013 43.8035 27.3562 43.944 27.9194 43.9399C29.195 43.9399 30.6556 43.1366 30.6556 41.5433C30.6556 39.8106 29.2082 39.3724 27.6418 38.8878C26.0754 38.4031 24.3372 37.6662 24.3372 35.429C24.3295 34.7019 24.565 33.9932 25.006 33.4166C25.4471 32.84 26.068 32.4288 26.7694 32.249C25.5806 31.7863 24.4274 31.236 23.3194 30.6025C22.9056 31.0674 22.395 31.435 21.8239 31.6794C21.2528 31.9238 20.6351 32.0389 20.0148 32.0166C19.269 32.036 18.5292 31.8798 17.8543 31.5605C17.1795 31.2412 16.5885 30.7676 16.1285 30.1776L17.2124 29.3743C17.5121 29.8534 17.9286 30.2476 18.4225 30.5195C18.9165 30.7914 19.4714 30.9319 20.0346 30.9278C20.4577 30.9334 20.8771 30.848 21.2647 30.6774C21.6523 30.5068 21.999 30.2549 22.2817 29.9386C20.4498 28.7495 18.965 27.0931 17.9791 25.1388C17.493 24.8743 17.0911 24.4772 16.8198 23.9933C16.5485 23.5093 16.4189 22.9583 16.4458 22.4036C16.4364 21.8756 16.5567 21.3534 16.7961 20.8833C16.7285 20.2705 16.6954 19.6543 16.6969 19.0377C16.6969 18.6261 16.6969 18.2211 16.7432 17.8294C16.5169 17.6292 16.311 17.4068 16.1285 17.1655L16.882 16.6012C17.0826 15.0925 17.5481 13.6315 18.2567 12.286C17.8706 12.1215 17.5206 11.8819 17.2268 11.5812C16.933 11.2804 16.7013 10.9243 16.5449 10.5334C15.7357 11.1375 14.9591 11.7846 14.2185 12.4719C14.7941 12.7072 15.2824 13.1169 15.6153 13.6441C15.9482 14.1712 16.1091 14.7895 16.0757 15.4129C16.0757 17.8958 14.007 18.9846 12.0506 18.9846C11.1229 18.9967 10.2092 18.7558 9.40694 18.2875C7.98515 20.6148 6.9327 23.1502 6.28739 25.8027C6.28739 25.7164 6.33365 25.63 6.35348 25.5437C6.9035 25.7892 7.36621 26.1969 7.6802 26.7127C7.99419 27.2285 8.14462 27.828 8.11153 28.4316C8.12296 29.1932 7.87686 29.9362 7.41347 30.5392C6.95008 31.1421 6.29679 31.5693 5.56037 31.751C5.56037 31.3992 5.56037 31.0473 5.56037 30.6955C5.52909 31.1198 5.52909 31.5458 5.56037 31.9701C5.61392 34.183 5.88848 36.3848 6.37992 38.5426C6.92281 38.7913 7.37844 39.1987 7.68735 39.7115C7.99625 40.2243 8.14408 40.8187 8.11153 41.4172C8.12906 41.8966 8.05271 42.3748 7.88682 42.8246V42.8246C9.38018 46.1316 11.5355 49.0943 14.2185 51.5281C14.7976 51.7858 15.2909 52.2052 15.6395 52.7364C16.3069 53.2685 17.0018 53.7649 17.7214 54.2235C16.8325 53.4258 16.0305 52.5357 15.3288 51.5679L16.9811 50.3331C16.574 49.7817 16.3665 49.1072 16.3929 48.4211C16.3929 46.0245 18.5145 45.0154 20.3584 45.0154C21.0155 44.9818 21.6715 45.0995 22.2763 45.3595C22.8811 45.6196 23.4188 46.0151 23.8481 46.5158L22.8105 47.3257C22.5231 46.922 22.1398 46.5969 21.6953 46.38C21.2509 46.1632 20.7595 46.0615 20.2659 46.0843C19.0498 46.0843 17.6222 46.8212 17.6222 48.4145C17.6098 48.8339 17.7326 49.2461 17.9725 49.5896L19.8363 48.2021C20.9856 50.0676 22.5626 51.6298 24.4356 52.7581C26.3086 53.8865 28.4232 54.5483 30.6028 54.6882V54.5554C30.6028 52.8227 29.1553 52.3845 27.5889 51.8999C26.0226 51.4152 24.2843 50.6783 24.2843 48.4344C24.2843 46.0378 26.4125 45.0287 28.2499 45.0287C28.9059 44.9951 29.561 45.1129 30.1647 45.3729C30.7685 45.633 31.3049 46.0285 31.7329 46.5291L30.7415 47.3324C30.4542 46.9286 30.0709 46.6035 29.6264 46.3867C29.182 46.1698 28.6906 46.0682 28.197 46.0909C26.9809 46.0909 25.5533 46.8278 25.5533 48.4211C25.5533 50.0145 26.8751 50.4128 28.2366 50.8509C29.9815 51.4285 31.8916 51.9928 31.8916 54.4758C31.8916 54.5621 31.8916 54.6484 31.8916 54.728C34.0318 54.6915 36.1315 54.1357 38.0117 53.1081C37.2945 52.5016 36.4381 52.0841 35.52 51.8932C33.8809 51.3887 32.2154 50.6717 32.2154 48.4278C32.2154 46.0312 34.3436 45.0221 36.1809 45.0221C36.837 44.989 37.4918 45.1069 38.0955 45.367C38.6992 45.627 39.2357 46.0222 39.664 46.5224L38.6726 47.3257C38.384 46.9233 38.0004 46.5992 37.5563 46.3825C37.1122 46.1658 36.6214 46.0633 36.1281 46.0843C34.9054 46.0843 33.4844 46.8212 33.4844 48.4145C33.4844 50.0078 34.8062 50.4061 36.1677 50.8443C37.2649 51.2094 38.4347 51.5679 39.1485 52.4044C39.8272 51.9095 40.4403 51.3294 40.9726 50.6783H41.0321ZM46.412 53.9978C46.3309 53.595 46.1222 53.2294 45.8172 52.9555C44.874 54.2179 43.7228 55.3091 42.4135 56.1819C43.7857 55.5749 45.1035 54.8508 46.3526 54.0177L46.412 53.9978ZM49.8687 51.2559C49.3169 51.0133 48.8508 50.6092 48.5313 50.0964C48.2117 49.5835 48.0536 48.9858 48.0776 48.3813C48.071 48.2575 48.071 48.1334 48.0776 48.0095C47.7635 49.3678 47.2418 50.6689 46.531 51.8667C46.9959 52.1944 47.349 52.658 47.5422 53.1945C48.3316 52.5963 49.0884 51.9558 49.8092 51.2758L49.8687 51.2559ZM53.8342 46.6087C53.2589 46.2298 52.578 46.046 51.8911 46.0843C50.6684 46.0843 49.2474 46.8212 49.2474 48.4145C49.2404 48.8603 49.3787 49.2962 49.6412 49.6557C49.9037 50.0153 50.276 50.2788 50.7014 50.4061C51.8285 49.2372 52.8482 47.9684 53.7483 46.6154L53.8342 46.6087ZM55.817 43.0835L55.7443 43.2429L55.6914 43.1765L55.817 43.0835ZM57.7072 37.3144L57.6477 37.5866L57.7072 37.3144ZM57.8064 36.8165L57.7601 37.0422C57.6676 36.9758 57.6874 36.8961 57.7006 36.8497L57.8064 36.8165ZM55.9954 21.5804C56.466 22.6806 56.8613 23.8118 57.1785 24.9662C56.7532 24.6904 56.4073 24.3074 56.1753 23.8554C55.9434 23.4034 55.8335 22.8983 55.8566 22.3903C55.8729 22.116 55.9195 21.8443 55.9954 21.5804V21.5804ZM54.0589 17.8958L54.1977 18.1215L54.0589 17.8958ZM33.4315 9.26534V9.41139C33.4315 10.9848 34.7534 11.403 36.1149 11.8412C37.8531 12.4188 39.7698 12.9831 39.7698 15.466C39.7698 17.9489 37.6945 19.0377 35.7447 19.0377C34.9992 19.0561 34.2596 18.8994 33.585 18.5802C32.9103 18.2609 32.3191 17.7879 31.8585 17.1987L32.9424 16.3954C33.242 16.8745 33.6586 17.2687 34.1525 17.5406C34.6464 17.8125 35.2014 17.953 35.7646 17.9489C37.0335 17.9489 38.5008 17.1456 38.5008 15.5523C38.5008 13.8196 37.0534 13.3814 35.487 12.8968C33.9206 12.4121 32.1824 11.6752 32.1824 9.43131V9.28526C30.1262 9.35711 28.1186 9.93134 26.3332 10.9582C26.914 11.3169 27.5442 11.5876 28.2036 11.7615C29.9484 12.3391 31.8585 12.9034 31.8585 15.3863C31.8585 17.8693 29.7898 18.958 27.8401 18.958C27.0943 18.978 26.3542 18.822 25.6793 18.5027C25.0044 18.1833 24.4134 17.7094 23.9539 17.1191L25.0312 16.3158C25.3308 16.7948 25.7473 17.189 26.2413 17.4609C26.7352 17.7328 27.2901 17.8734 27.8533 17.8693C29.1289 17.8693 30.5895 17.066 30.5895 15.4726C30.5895 13.7399 29.1421 13.3017 27.5757 12.8171C26.7399 12.6052 25.9553 12.2259 25.2691 11.7018C24.5835 12.2512 23.9783 12.8949 23.4714 13.6138C23.8097 14.1506 23.978 14.778 23.9539 15.4129C23.9734 16.0934 23.7841 16.7635 23.4117 17.3324C23.0393 17.9012 22.5018 18.3413 21.872 18.5929C21.872 18.7124 21.872 18.8319 21.872 18.9514V19.2103C22.6274 19.4242 23.2975 19.8699 23.7886 20.485L22.8105 21.2883C22.596 20.9778 22.3219 20.7137 22.0041 20.5115C22.6651 24.9728 26.3332 26.7918 30.5961 28.2922C30.4772 26.7454 29.0892 26.3006 27.5889 25.8558C25.9499 25.3512 24.2843 24.6342 24.2843 22.3903C24.2843 19.9937 26.4125 18.9846 28.2499 18.9846C28.9059 18.951 29.561 19.0687 30.1647 19.3288C30.7685 19.5889 31.3049 19.9844 31.7329 20.485L30.7415 21.2883C30.4542 20.8845 30.0709 20.5594 29.6264 20.3425C29.182 20.1257 28.6906 20.024 28.197 20.0468C26.9809 20.0468 25.5533 20.7837 25.5533 22.377C25.5533 23.9703 26.8751 24.3687 28.2366 24.8068C29.9815 25.3844 31.8916 25.9487 31.8916 28.4316C31.8916 28.5312 31.8916 28.6308 31.8916 28.7237L33.1407 29.142C34.5154 29.5934 35.91 30.0449 37.2781 30.5494C37.6585 30.3657 37.9791 30.0773 38.2026 29.7176C38.4261 29.358 38.5433 28.9419 38.5404 28.5179C38.5404 26.7852 37.093 26.347 35.5266 25.8624C33.9602 25.3778 32.222 24.6409 32.222 22.3969C32.222 20.0003 34.3502 18.9912 36.1876 18.9912C36.8436 18.9581 37.4984 19.0761 38.1021 19.3361C38.7058 19.5962 39.2423 19.9914 39.6706 20.4916L38.6792 21.2949C38.3906 20.8925 38.0071 20.5683 37.5629 20.3516C37.1188 20.135 36.628 20.0325 36.1347 20.0534C34.912 20.0534 33.491 20.7903 33.491 22.3837C33.491 23.977 34.8128 24.3753 36.1743 24.8135C37.9126 25.391 39.8292 25.9554 39.8292 28.4383C39.8487 28.9425 39.7521 29.4444 39.5469 29.905C39.3417 30.3656 39.0335 30.7724 38.6462 31.0938C39.7259 31.5253 40.7768 32.0265 41.7922 32.5942C42.4945 32.2138 43.2811 32.0174 44.079 32.0232C44.7259 31.9987 45.3699 32.1215 45.9628 32.3825C46.5557 32.6434 47.0821 33.0358 47.5026 33.5303L46.5112 34.3335C46.2262 33.9239 45.8431 33.593 45.3972 33.3714C44.9514 33.1498 44.4571 33.0446 43.96 33.0655C43.5805 33.0656 43.2042 33.1353 42.8497 33.2713C44.4438 34.2884 45.7739 35.6721 46.7301 37.3079C47.6863 38.9437 48.2411 40.7847 48.3485 42.6786L48.7517 42.3798C49.0513 42.8589 49.4679 43.253 49.9618 43.5249C50.4557 43.7968 51.0106 43.9374 51.5738 43.9333C52.8494 43.9333 54.3101 43.13 54.3101 41.5367C54.3101 39.8039 52.8627 39.3658 51.2963 38.8811C49.7299 38.3965 47.9916 37.6596 47.9916 35.4223C47.9916 33.0191 50.1198 32.01 51.9572 32.01C52.6104 31.9834 53.2611 32.1065 53.86 32.3698C54.4588 32.6332 54.9902 33.0301 55.4138 33.5303L54.4224 34.3335C54.1393 33.9268 53.7594 33.5978 53.3173 33.3763C52.8751 33.1548 52.3848 33.048 51.8911 33.0655C50.6684 33.0655 49.2474 33.8024 49.2474 35.3958C49.2474 36.9891 50.5692 37.3874 51.9307 37.8256C53.6756 38.4032 55.5857 38.9675 55.5857 41.4504C55.5857 43.9333 53.517 45.0221 51.5672 45.0221C50.4294 45.0342 49.3208 44.6599 48.4212 43.9598C48.4212 44.0793 48.4212 44.1988 48.4212 44.3183C48.4238 45.3312 48.3353 46.3422 48.1569 47.339C48.6922 45.7191 50.4172 45.0221 51.9241 45.0221C52.7754 45.0083 53.6157 45.2164 54.3629 45.6262C55.8337 43.1804 56.8963 40.5096 57.5089 37.7194C57.5089 37.8588 57.4495 37.9982 57.4164 38.1376C56.9343 37.8729 56.5361 37.4772 56.2673 36.9959C55.9984 36.5145 55.8699 35.9669 55.8963 35.4157C55.8856 34.7243 56.0972 34.048 56.4996 33.4871C56.9021 32.9261 57.4739 32.5106 58.1302 32.3021C58.1302 32.7336 58.1302 33.1585 58.0839 33.5767C57.7941 33.7801 57.5594 34.0531 57.4013 34.3707C57.2431 34.6884 57.1665 35.0408 57.1785 35.3958C57.1659 35.6544 57.2077 35.9127 57.3011 36.1541C57.3945 36.3954 57.5373 36.6143 57.7204 36.7966C57.979 35.2112 58.1248 33.6094 58.1566 32.0033C58.1566 31.0805 58.1566 31.5984 58.1566 31.3992C58.1566 31.5452 58.1566 31.6847 58.1566 31.8307C57.1374 31.5944 56.234 31.0042 55.6055 30.1644L56.6894 29.3611C57.0316 29.9157 57.531 30.355 58.1236 30.6224C57.8925 26.1932 56.5487 21.8949 54.2175 18.1282V18.1746C53.4391 18.7089 52.5167 18.9915 51.5738 18.9846C50.8281 19.0046 50.088 18.8486 49.4131 18.5292C48.7382 18.2099 48.1472 17.736 47.6876 17.1456L48.7649 16.3423C49.0645 16.8214 49.4811 17.2156 49.975 17.4875C50.4689 17.7593 51.0239 17.8999 51.5871 17.8958C52.3143 17.8952 53.0174 17.6339 53.5698 17.1589C51.9158 14.7148 49.8649 12.5671 47.5026 10.8055C47.562 10.8852 47.6215 10.9582 47.6744 11.0379L45.8635 12.5051C46.4236 12.7463 46.8965 13.1547 47.218 13.6747C47.5396 14.1948 47.6943 14.8016 47.6612 15.4129C47.6612 17.8958 45.5859 18.9846 43.6362 18.9846C42.8904 19.004 42.1506 18.8478 41.4757 18.5285C40.8009 18.2092 40.2099 17.7356 39.7499 17.1456L40.8338 16.3423C41.1335 16.8214 41.55 17.2156 42.0439 17.4875C42.5379 17.7593 43.0928 17.8999 43.656 17.8958C44.925 17.8958 46.3856 17.0925 46.3856 15.4992C46.3934 15.0192 46.2454 14.5496 45.964 14.1616C45.6826 13.7735 45.2831 13.488 44.8258 13.3482L43.504 14.4104C41.4287 11.3765 38.0117 9.35828 33.4315 9.21223V9.26534ZM31.8585 1C37.9633 0.998688 43.9314 2.81588 49.0081 6.22177C54.0847 9.62766 58.0417 14.4693 60.3789 20.1343C62.716 25.7993 63.3282 32.0332 62.138 38.0477C60.9478 44.0622 58.0087 49.5871 53.6924 53.9236C49.3761 58.2602 43.8765 61.2136 37.889 62.4104C31.9016 63.6072 25.6953 62.9937 20.0551 60.6473C14.4148 58.3009 9.59396 54.3271 6.20217 49.2285C2.81037 44.1299 1 38.1355 1 32.0033C1 23.7819 4.25094 15.8971 10.0378 10.083C15.8248 4.26895 23.6737 1.00176 31.8585 1V1ZM98.9687 16.11H95.7896V47.4718H98.9687V16.11ZM110.442 16.11H107.263V47.4718H125.002V44.6503H110.462L110.442 16.11ZM126.807 16.11H123.37L135.267 47.4851H138.624L150.58 16.11H147.196L137.044 43.369H136.959L126.807 16.11ZM158.049 32.5477H173.184V29.7594H158.049V18.9248H174.248V16.11H154.876V47.4718H174.777V44.6503H158.049V32.5477ZM184.175 18.8584H189.819C194.545 18.8584 197.678 20.3655 197.678 24.4815C197.678 28.2059 194.763 30.0714 189.687 30.0714H184.175V18.8584ZM184.175 32.8H189.462L198.12 47.4718H202L192.866 32.5477C197.413 32.0631 200.85 29.1353 200.85 24.4815C200.85 18.3672 196.349 16.11 190.176 16.11H180.996V47.4718H184.175V32.8ZM69.7757 13.7731H70.6415L73.4306 10.6794V13.7731H74.0188V10.6794L76.8013 13.7731H77.6671L74.6929 10.5997L77.5019 7.94421H76.6757L74.032 10.5533V7.96413H73.4438V10.5732L70.8001 7.96413H69.9607L72.7697 10.6197L69.7757 13.7731ZM78.4536 13.7731H79.1145L82.2936 8.83382V13.7731H82.8818V7.96413H82.2209L79.0352 12.8569V7.96413H78.447L78.4536 13.7731ZM84.2367 13.8329C85.6246 13.8329 86.0542 12.3524 86.0542 9.51762V8.48196H88.3608V13.793H88.9491V7.96413H85.4858V9.21887C85.4858 12.2196 85.1157 13.2885 84.164 13.2885C84.0443 13.2863 83.9259 13.2638 83.8137 13.2221L83.7079 13.7532C83.8802 13.8016 84.0578 13.8284 84.2367 13.8329V13.8329ZM93.1856 13.3947C92.8603 13.398 92.5378 13.3341 92.2382 13.2069C91.9385 13.0797 91.6681 12.892 91.4437 12.6554C91.2194 12.4188 91.0458 12.1384 90.9339 11.8316C90.8219 11.5248 90.774 11.1981 90.793 10.8719C90.7686 10.5413 90.8123 10.2092 90.9214 9.89629C91.0305 9.58341 91.2028 9.29651 91.4273 9.05355C91.6519 8.81058 91.924 8.61676 92.2265 8.48423C92.529 8.35169 92.8555 8.28329 93.1856 8.28329C93.5156 8.28329 93.8421 8.35169 94.1447 8.48423C94.4472 8.61676 94.7193 8.81058 94.9438 9.05355C95.1684 9.29651 95.3406 9.58341 95.4498 9.89629C95.5589 10.2092 95.6026 10.5413 95.5781 10.8719C95.5972 11.1981 95.5492 11.5248 95.4373 11.8316C95.3254 12.1384 95.1518 12.4188 94.9274 12.6554C94.7031 12.892 94.4327 13.0797 94.133 13.2069C93.8334 13.3341 93.5109 13.398 93.1856 13.3947V13.3947ZM93.1856 13.9192C93.5836 13.9256 93.9788 13.8509 94.3472 13.6995C94.7156 13.548 95.0496 13.323 95.3289 13.0381C95.6082 12.7532 95.827 12.4144 95.9721 12.042C96.1172 11.6696 96.1855 11.2716 96.173 10.8719C96.173 10.069 95.8554 9.29904 95.2902 8.73131C94.725 8.16358 93.9585 7.84463 93.1591 7.84463C92.3598 7.84463 91.5933 8.16358 91.0281 8.73131C90.4629 9.29904 90.1453 10.069 90.1453 10.8719C90.1324 11.2762 90.2023 11.6788 90.3506 12.0548C90.4989 12.4308 90.7225 12.7722 91.0075 13.0579C91.2925 13.3435 91.6329 13.5674 92.0076 13.7155C92.3822 13.8637 92.7832 13.933 93.1856 13.9192V13.9192ZM99.6428 7.40647C99.7896 7.41638 99.9368 7.39707 100.076 7.34967C100.215 7.30227 100.344 7.22769 100.455 7.13023C100.565 7.03277 100.655 6.91434 100.72 6.78174C100.785 6.64914 100.823 6.50498 100.832 6.35753L100.456 6.28451C100.424 6.47816 100.326 6.65456 100.178 6.78285C100.031 6.91114 99.8426 6.98317 99.6473 6.98633C99.4519 6.9895 99.2617 6.9236 99.1099 6.80016C98.9581 6.67672 98.8543 6.5036 98.8166 6.31106L98.4465 6.38409C98.4582 6.53013 98.4984 6.67243 98.5649 6.80286C98.6313 6.93329 98.7227 7.04929 98.8338 7.14423C98.9449 7.23918 99.0735 7.3112 99.2123 7.3562C99.3511 7.40119 99.4974 7.41828 99.6428 7.40647V7.40647ZM97.4221 13.7731H98.083L101.269 8.83382V13.7731H101.857V7.96413H101.196L98.0103 12.8569V7.96413H97.4221V13.7731ZM105.446 13.7731H106.034V10.6794L108.929 13.7731H109.788L106.748 10.5997L109.662 7.94421H108.797L106.041 10.5533V7.96413H105.426L105.446 13.7731ZM113.079 13.3947C112.754 13.398 112.432 13.3341 112.132 13.2069C111.832 13.0797 111.562 12.892 111.338 12.6554C111.113 12.4188 110.94 12.1384 110.828 11.8316C110.716 11.5248 110.668 11.1981 110.687 10.8719C110.662 10.5413 110.706 10.2092 110.815 9.89629C110.924 9.58341 111.097 9.29651 111.321 9.05355C111.546 8.81058 111.818 8.61676 112.12 8.48423C112.423 8.35169 112.749 8.28329 113.079 8.28329C113.409 8.28329 113.736 8.35169 114.038 8.48423C114.341 8.61676 114.613 8.81058 114.838 9.05355C115.062 9.29651 115.234 9.58341 115.344 9.89629C115.453 10.2092 115.496 10.5413 115.472 10.8719C115.491 11.1981 115.443 11.5248 115.331 11.8316C115.219 12.1384 115.046 12.4188 114.821 12.6554C114.597 12.892 114.326 13.0797 114.027 13.2069C113.727 13.3341 113.405 13.398 113.079 13.3947V13.3947ZM113.079 13.9192C113.48 13.9293 113.878 13.8573 114.249 13.7075C114.621 13.5577 114.958 13.3332 115.24 13.0479C115.522 12.7627 115.743 12.4225 115.89 12.0484C116.037 11.6742 116.106 11.2739 116.093 10.8719C116.093 10.069 115.776 9.29904 115.21 8.73131C114.645 8.16358 113.879 7.84463 113.079 7.84463C112.28 7.84463 111.513 8.16358 110.948 8.73131C110.383 9.29904 110.066 10.069 110.066 10.8719C110.053 11.2739 110.122 11.6742 110.269 12.0484C110.415 12.4225 110.637 12.7627 110.919 13.0479C111.201 13.3332 111.538 13.5577 111.91 13.7075C112.281 13.8573 112.679 13.9293 113.079 13.9192V13.9192ZM117.316 13.7731H117.904V8.7276L119.999 13.7731H120.31L122.398 8.7276V13.7731H122.987V7.96413H122.088L120.158 12.7706L118.175 7.96413H117.323L117.316 13.7731ZM124.546 13.7731H125.135V8.49524H128.287V13.8063H128.875V7.96413H124.546V13.7731ZM130.204 13.8329C131.592 13.8329 132.028 12.3524 132.028 9.51762V8.48196H134.328V13.793H134.916V7.96413H131.453V9.21887C131.453 12.2196 131.09 13.2885 130.131 13.2885C130.011 13.2869 129.893 13.2645 129.781 13.2221L129.669 13.7532C129.843 13.8022 130.023 13.8289 130.204 13.8329V13.8329ZM136.45 13.7731H140.131V13.2486H137.038V11.0114H139.84V10.4935H137.038V8.50187H140.038V7.97077H136.45V13.7731ZM141.288 13.7731H141.876V10.6794L144.764 13.7731H145.63L142.55 10.5997L145.465 7.94421H144.625L141.876 10.5533V7.96413H141.288V13.7731ZM148.921 13.9192C149.343 13.9339 149.761 13.8426 150.139 13.6537C150.516 13.4647 150.84 13.184 151.082 12.837L150.626 12.5449C150.437 12.8191 150.183 13.0412 149.886 13.1909C149.589 13.3405 149.26 13.4129 148.928 13.4013C148.602 13.4036 148.279 13.3389 147.979 13.211C147.679 13.0832 147.408 12.895 147.184 12.658C146.959 12.421 146.785 12.1402 146.672 11.833C146.559 11.5259 146.511 11.1988 146.529 10.8719C146.51 10.5446 146.558 10.2167 146.67 9.90878C146.782 9.60083 146.956 9.31927 147.181 9.08155C147.406 8.84383 147.677 8.655 147.977 8.52674C148.278 8.39848 148.601 8.33353 148.928 8.3359C149.23 8.32936 149.528 8.39521 149.8 8.52799C150.071 8.66078 150.307 8.85666 150.488 9.09937L150.977 8.74087C150.728 8.43858 150.413 8.19805 150.056 8.038C149.7 7.87794 149.311 7.80268 148.921 7.81808C148.52 7.80789 148.122 7.88012 147.75 8.03033C147.378 8.18054 147.04 8.40556 146.758 8.69156C146.476 8.97756 146.255 9.31851 146.108 9.69347C145.962 10.0684 145.894 10.4695 145.907 10.8719C145.893 11.2744 145.961 11.6755 146.107 12.0506C146.253 12.4256 146.474 12.7666 146.756 13.0523C147.039 13.3379 147.377 13.5623 147.749 13.7114C148.122 13.8605 148.521 13.9312 148.921 13.9192V13.9192ZM88.5525 19.124C87.0522 17.0792 83.926 15.3067 79.7292 15.3067C75.1027 15.3067 69.7559 17.8825 69.7559 23.9371C69.7559 29.6133 73.9924 31.4324 78.1364 32.7137C82.1019 33.9551 85.77 35.0638 85.77 39.4521C85.77 43.4885 82.0689 45.5266 78.8435 45.5266C77.4117 45.5386 76.0011 45.178 74.7491 44.48C73.497 43.782 72.4463 42.7703 71.699 41.5433L68.9627 43.5881C71.2099 46.6884 75.0036 48.2353 78.8039 48.2353C83.741 48.2353 88.9953 45.4868 88.9953 39.1932C88.9953 32.8996 84.1375 31.4789 79.7424 30.0183C76.2527 28.8632 72.9481 27.8408 72.9481 23.8575C72.9481 19.8742 76.5171 17.9622 79.6102 17.9622C80.8595 17.9051 82.1031 18.1631 83.2276 18.7128C84.352 19.2625 85.3215 20.0863 86.0476 21.109L88.5525 19.124Z"/>
</mask>
<path fill-rule="evenodd" clip-rule="evenodd" d="M23.782 33.5303C23.3527 33.0295 22.815 32.634 22.2102 32.374C21.6054 32.114 20.9494 31.9963 20.2924 32.0299C18.4814 32.0299 16.3268 33.039 16.3268 35.4422C16.3268 37.6795 17.9989 38.3965 19.6314 38.9011C21.2639 39.4056 22.6452 39.8305 22.6452 41.5566C22.6452 43.1499 21.1846 43.9532 19.9156 43.9532C19.3524 43.9573 18.7975 43.8167 18.3036 43.5448C17.8097 43.273 17.3931 42.8788 17.0935 42.3997L16.0096 43.203C16.4695 43.793 17.0605 44.2666 17.7354 44.5859C18.4102 44.9052 19.1501 45.0614 19.8958 45.042C21.8455 45.042 23.9208 43.9532 23.9208 41.4703C23.9208 38.9874 22.0041 38.4231 20.2593 37.8455C18.8846 37.394 17.576 36.9891 17.576 35.4157C17.576 33.8423 18.9903 33.0855 20.2196 33.0855C20.7191 33.0525 21.2187 33.1473 21.6718 33.3609C22.1248 33.5745 22.5166 33.9 22.8105 34.307L23.782 33.5303ZM15.8509 33.5303C15.4226 33.0301 14.8861 32.6348 14.2824 32.3748C13.6788 32.1148 13.0239 31.9968 12.3679 32.0299C10.557 32.0299 8.40234 33.039 8.40234 35.4422C8.40234 37.6795 10.0745 38.3965 11.707 38.9011C13.3394 39.4056 14.7208 39.8305 14.7208 41.5566C14.7208 43.1499 13.2535 43.9532 11.9845 43.9532C11.4213 43.9573 10.8664 43.8167 10.3725 43.5448C9.87857 43.273 9.46203 42.8788 9.1624 42.3997L8.13797 43.1831C8.59651 43.7729 9.18635 44.2465 9.86012 44.5659C10.5339 44.8853 11.2728 45.0415 12.0176 45.0221C14.0004 45.0221 16.0426 43.9333 16.0426 41.4504C16.0426 38.9675 14.1259 38.4032 12.3877 37.8256C11.013 37.3741 9.70436 36.9692 9.70436 35.3958C9.70436 33.8224 11.1121 33.0655 12.3481 33.0655C12.8393 33.0456 13.3279 33.1486 13.7697 33.3653C14.2116 33.582 14.5929 33.9056 14.8794 34.307L15.8509 33.5303ZM55.4138 20.485C54.9855 19.9848 54.449 19.5895 53.8453 19.3295C53.2416 19.0695 52.5868 18.9515 51.9307 18.9846C50.1198 18.9846 47.9652 19.9937 47.9652 22.3903C47.9652 24.6342 49.6373 25.3512 51.2698 25.8558C52.9023 26.3603 54.2836 26.7852 54.2836 28.5113C54.2836 30.1046 52.823 30.9079 51.5474 30.9079C50.9842 30.912 50.4293 30.7714 49.9354 30.4996C49.4414 30.2277 49.0249 29.8335 48.7253 29.3544L47.648 30.1577C48.1075 30.7481 48.6985 31.222 49.3734 31.5413C50.0483 31.8607 50.7884 32.0167 51.5342 31.9967C53.4839 31.9967 55.5526 30.9079 55.5526 28.425C55.5526 25.9421 53.6425 25.3778 51.8977 24.8002C50.5692 24.3554 49.2474 23.9504 49.2474 22.377C49.2474 20.8036 50.6552 20.0468 51.8911 20.0468C52.3847 20.024 52.8761 20.1257 53.3205 20.3425C53.765 20.5594 54.1483 20.8845 54.4356 21.2883L55.4138 20.485ZM47.4827 20.485C47.0554 19.9836 46.519 19.5876 45.9151 19.3274C45.3112 19.0673 44.6559 18.95 43.9997 18.9846C42.1887 18.9846 40.0341 19.9937 40.0341 22.3903C40.0341 24.6342 41.7063 25.3512 43.3387 25.8558C44.9712 26.3603 46.3526 26.7852 46.3526 28.5113C46.3526 30.1046 44.8919 30.9079 43.6229 30.9079C43.0597 30.912 42.5048 30.7714 42.0109 30.4996C41.517 30.2277 41.1004 29.8335 40.8008 29.3544L39.7169 30.1577C40.1768 30.7477 40.7678 31.2213 41.4427 31.5406C42.1175 31.8599 42.8574 32.0161 43.6031 31.9967C45.5528 31.9967 47.6281 30.9079 47.6281 28.425C47.6281 25.9421 45.7115 25.3778 43.9666 24.8002C42.6382 24.3554 41.3163 23.9504 41.3163 22.377C41.3163 20.8036 42.7307 20.0468 43.96 20.0468C44.4536 20.024 44.945 20.1257 45.3894 20.3425C45.8339 20.5594 46.2172 20.8845 46.5046 21.2883L47.4827 20.485ZM15.8509 20.485C15.4226 19.9848 14.8861 19.5895 14.2824 19.3295C13.6788 19.0695 13.0239 18.9515 12.3679 18.9846C10.557 18.9846 8.40234 19.9937 8.40234 22.3903C8.40234 24.6342 10.0745 25.3512 11.707 25.8558C13.3394 26.3603 14.7208 26.7852 14.7208 28.5113C14.7208 30.1046 13.2535 30.9079 11.9845 30.9079C11.4213 30.912 10.8664 30.7714 10.3725 30.4996C9.87857 30.2277 9.46203 29.8335 9.1624 29.3544L8.13797 30.1644C8.59651 30.7542 9.18635 31.2278 9.86012 31.5472C10.5339 31.8665 11.2728 32.0228 12.0176 32.0033C14.0004 32.0033 16.0426 30.9146 16.0426 28.4316C16.0426 25.9487 14.1259 25.3844 12.3877 24.8068C11.013 24.3554 9.70436 23.9504 9.70436 22.377C9.70436 20.8036 11.1121 20.0468 12.3481 20.0468C12.8393 20.0269 13.3279 20.1299 13.7697 20.3466C14.2116 20.5633 14.5929 20.8869 14.8794 21.2883L15.8509 20.485ZM23.3656 7.02142C23.4148 7.06012 23.4612 7.10227 23.5044 7.14755C23.782 6.99486 24.0662 6.84217 24.3504 6.70275C24.02 6.80234 23.6895 6.90856 23.3656 7.02142ZM22.0438 17.0859C22.2928 16.8244 22.4779 16.5084 22.5845 16.1627C22.6912 15.8171 22.7165 15.4513 22.6585 15.0942C22.3729 15.7314 22.1622 16.3998 22.0306 17.0859H22.0438ZM17.6619 9.78317C17.7332 10.1133 17.8854 10.4204 18.1047 10.6766C18.324 10.9328 18.6034 11.13 18.9176 11.2503C19.8665 9.90073 21.0538 8.73738 22.4205 7.81808C22.3033 7.70353 22.1749 7.60121 22.0372 7.51269C20.5051 8.13135 19.0355 8.8961 17.6487 9.79645L17.6619 9.78317ZM10.0613 17.2585C10.6333 17.6894 11.329 17.9224 12.044 17.9224C13.313 17.9224 14.7803 17.1191 14.7803 15.5258C14.7884 15.0536 14.645 14.5914 14.3712 14.2076C14.0974 13.8237 13.7078 13.5387 13.2601 13.3947C12.0744 14.5779 11.0033 15.8717 10.0613 17.2585V17.2585ZM6.20147 26.3072C6.20147 26.1412 6.27417 25.9819 6.31382 25.8226C6.28739 25.9819 6.23451 26.1412 6.20147 26.3072ZM6.10233 26.7719C6.10233 26.6192 6.16181 26.4732 6.19486 26.3271C6.16181 26.4732 6.13537 26.6192 6.10233 26.7719ZM5.62646 30.5361C5.99541 30.3511 6.30616 30.0671 6.52431 29.7156C6.74245 29.364 6.85946 28.9587 6.86239 28.5445C6.88392 28.2171 6.8246 27.8894 6.6897 27.5906C6.55479 27.2918 6.34849 27.0311 6.08911 26.8317V26.7918C5.84725 28.0274 5.69265 29.2787 5.62646 30.5361V30.5361ZM5.62646 33.2647C5.62646 32.8863 5.62646 32.5012 5.62646 32.1095C6.54696 32.291 7.3736 32.7944 7.95952 33.5303L6.94831 34.307C6.62422 33.8319 6.16285 33.4681 5.62646 33.2647V33.2647ZM7.39113 41.6363L7.30521 41.3973L7.39113 41.6363ZM7.86038 42.7516C7.82734 42.6719 7.78768 42.5989 7.75464 42.5192C7.78768 42.5989 7.82734 42.6719 7.86038 42.7516V42.7516ZM10.2529 46.9672C10.0282 46.6419 9.81011 46.3034 9.592 45.9648C10.3979 45.336 11.3939 45.0033 12.4141 45.0221C13.0702 44.989 13.725 45.1069 14.3287 45.367C14.9324 45.627 15.4689 46.0222 15.8972 46.5224L14.8794 47.3257C14.5916 46.9224 14.2082 46.5976 13.7639 46.3808C13.3195 46.1641 12.8283 46.0621 12.3348 46.0843C11.9462 46.081 11.561 46.1577 11.203 46.3095C10.8449 46.4613 10.5216 46.6852 10.2529 46.9672V46.9672ZM43.0149 46.2436C42.5308 46.3624 42.1004 46.6409 41.7924 47.0345C41.4845 47.428 41.3169 47.9139 41.3163 48.4145C41.2997 48.857 41.4377 49.2915 41.7063 49.6427C42.3599 48.6099 42.7941 47.4527 42.9818 46.2436H43.0149ZM41.0321 50.6783C40.7337 50.388 40.5003 50.0371 40.3476 49.649C40.1949 49.2609 40.1263 48.8446 40.1465 48.4278C40.1465 46.4361 41.6137 45.4005 43.1471 45.1084C43.1504 45.0686 43.1504 45.0286 43.1471 44.9889C42.5011 44.9372 41.8731 44.7497 41.3038 44.4386C40.7345 44.1275 40.2367 43.6998 39.8425 43.1831L40.9264 42.3798C41.1694 42.7738 41.493 43.1114 41.8759 43.3701C42.2588 43.6288 42.6921 43.8027 43.1471 43.8802C42.7836 38.3899 38.6726 36.2455 33.6628 34.5394C33.5534 34.8113 33.4995 35.1025 33.5042 35.3958C33.5042 36.9692 34.8261 37.3874 36.1876 37.8256C37.9258 38.4032 39.8425 38.9675 39.8425 41.4504C39.8425 43.9333 37.7672 45.0221 35.8174 45.0221C35.0719 45.0405 34.3323 44.8838 33.6577 44.5646C32.983 44.2453 32.3918 43.7723 31.9312 43.1831L33.0151 42.3798C33.3147 42.8589 33.7313 43.253 34.2252 43.5249C34.7191 43.7968 35.2741 43.9374 35.8373 43.9333C37.1062 43.9333 38.5735 43.13 38.5735 41.5367C38.5735 39.8039 37.1261 39.3658 35.5597 38.8811C33.9933 38.3965 32.2551 37.6596 32.2551 35.4223C32.2516 34.9887 32.3301 34.5585 32.4864 34.1543L31.3959 33.8091L30.7746 34.3136C30.4873 33.9099 30.1039 33.5848 29.6595 33.3679C29.215 33.1511 28.7236 33.0494 28.23 33.0722C27.0139 33.0722 25.5863 33.8091 25.5863 35.4024C25.5863 36.9957 26.9082 37.394 28.2697 37.8322C30.0145 38.4098 31.9246 38.9741 31.9246 41.457C31.9246 43.9399 29.8559 45.0287 27.9062 45.0287C27.1604 45.0487 26.4203 44.8927 25.7454 44.5733C25.0705 44.254 24.4795 43.7801 24.02 43.1897L25.0973 42.3864C25.3969 42.8655 25.8134 43.2597 26.3074 43.5316C26.8013 43.8035 27.3562 43.944 27.9194 43.9399C29.195 43.9399 30.6556 43.1366 30.6556 41.5433C30.6556 39.8106 29.2082 39.3724 27.6418 38.8878C26.0754 38.4031 24.3372 37.6662 24.3372 35.429C24.3295 34.7019 24.565 33.9932 25.006 33.4166C25.4471 32.84 26.068 32.4288 26.7694 32.249C25.5806 31.7863 24.4274 31.236 23.3194 30.6025C22.9056 31.0674 22.395 31.435 21.8239 31.6794C21.2528 31.9238 20.6351 32.0389 20.0148 32.0166C19.269 32.036 18.5292 31.8798 17.8543 31.5605C17.1795 31.2412 16.5885 30.7676 16.1285 30.1776L17.2124 29.3743C17.5121 29.8534 17.9286 30.2476 18.4225 30.5195C18.9165 30.7914 19.4714 30.9319 20.0346 30.9278C20.4577 30.9334 20.8771 30.848 21.2647 30.6774C21.6523 30.5068 21.999 30.2549 22.2817 29.9386C20.4498 28.7495 18.965 27.0931 17.9791 25.1388C17.493 24.8743 17.0911 24.4772 16.8198 23.9933C16.5485 23.5093 16.4189 22.9583 16.4458 22.4036C16.4364 21.8756 16.5567 21.3534 16.7961 20.8833C16.7285 20.2705 16.6954 19.6543 16.6969 19.0377C16.6969 18.6261 16.6969 18.2211 16.7432 17.8294C16.5169 17.6292 16.311 17.4068 16.1285 17.1655L16.882 16.6012C17.0826 15.0925 17.5481 13.6315 18.2567 12.286C17.8706 12.1215 17.5206 11.8819 17.2268 11.5812C16.933 11.2804 16.7013 10.9243 16.5449 10.5334C15.7357 11.1375 14.9591 11.7846 14.2185 12.4719C14.7941 12.7072 15.2824 13.1169 15.6153 13.6441C15.9482 14.1712 16.1091 14.7895 16.0757 15.4129C16.0757 17.8958 14.007 18.9846 12.0506 18.9846C11.1229 18.9967 10.2092 18.7558 9.40694 18.2875C7.98515 20.6148 6.9327 23.1502 6.28739 25.8027C6.28739 25.7164 6.33365 25.63 6.35348 25.5437C6.9035 25.7892 7.36621 26.1969 7.6802 26.7127C7.99419 27.2285 8.14462 27.828 8.11153 28.4316C8.12296 29.1932 7.87686 29.9362 7.41347 30.5392C6.95008 31.1421 6.29679 31.5693 5.56037 31.751C5.56037 31.3992 5.56037 31.0473 5.56037 30.6955C5.52909 31.1198 5.52909 31.5458 5.56037 31.9701C5.61392 34.183 5.88848 36.3848 6.37992 38.5426C6.92281 38.7913 7.37844 39.1987 7.68735 39.7115C7.99625 40.2243 8.14408 40.8187 8.11153 41.4172C8.12906 41.8966 8.05271 42.3748 7.88682 42.8246V42.8246C9.38018 46.1316 11.5355 49.0943 14.2185 51.5281C14.7976 51.7858 15.2909 52.2052 15.6395 52.7364C16.3069 53.2685 17.0018 53.7649 17.7214 54.2235C16.8325 53.4258 16.0305 52.5357 15.3288 51.5679L16.9811 50.3331C16.574 49.7817 16.3665 49.1072 16.3929 48.4211C16.3929 46.0245 18.5145 45.0154 20.3584 45.0154C21.0155 44.9818 21.6715 45.0995 22.2763 45.3595C22.8811 45.6196 23.4188 46.0151 23.8481 46.5158L22.8105 47.3257C22.5231 46.922 22.1398 46.5969 21.6953 46.38C21.2509 46.1632 20.7595 46.0615 20.2659 46.0843C19.0498 46.0843 17.6222 46.8212 17.6222 48.4145C17.6098 48.8339 17.7326 49.2461 17.9725 49.5896L19.8363 48.2021C20.9856 50.0676 22.5626 51.6298 24.4356 52.7581C26.3086 53.8865 28.4232 54.5483 30.6028 54.6882V54.5554C30.6028 52.8227 29.1553 52.3845 27.5889 51.8999C26.0226 51.4152 24.2843 50.6783 24.2843 48.4344C24.2843 46.0378 26.4125 45.0287 28.2499 45.0287C28.9059 44.9951 29.561 45.1129 30.1647 45.3729C30.7685 45.633 31.3049 46.0285 31.7329 46.5291L30.7415 47.3324C30.4542 46.9286 30.0709 46.6035 29.6264 46.3867C29.182 46.1698 28.6906 46.0682 28.197 46.0909C26.9809 46.0909 25.5533 46.8278 25.5533 48.4211C25.5533 50.0145 26.8751 50.4128 28.2366 50.8509C29.9815 51.4285 31.8916 51.9928 31.8916 54.4758C31.8916 54.5621 31.8916 54.6484 31.8916 54.728C34.0318 54.6915 36.1315 54.1357 38.0117 53.1081C37.2945 52.5016 36.4381 52.0841 35.52 51.8932C33.8809 51.3887 32.2154 50.6717 32.2154 48.4278C32.2154 46.0312 34.3436 45.0221 36.1809 45.0221C36.837 44.989 37.4918 45.1069 38.0955 45.367C38.6992 45.627 39.2357 46.0222 39.664 46.5224L38.6726 47.3257C38.384 46.9233 38.0004 46.5992 37.5563 46.3825C37.1122 46.1658 36.6214 46.0633 36.1281 46.0843C34.9054 46.0843 33.4844 46.8212 33.4844 48.4145C33.4844 50.0078 34.8062 50.4061 36.1677 50.8443C37.2649 51.2094 38.4347 51.5679 39.1485 52.4044C39.8272 51.9095 40.4403 51.3294 40.9726 50.6783H41.0321ZM46.412 53.9978C46.3309 53.595 46.1222 53.2294 45.8172 52.9555C44.874 54.2179 43.7228 55.3091 42.4135 56.1819C43.7857 55.5749 45.1035 54.8508 46.3526 54.0177L46.412 53.9978ZM49.8687 51.2559C49.3169 51.0133 48.8508 50.6092 48.5313 50.0964C48.2117 49.5835 48.0536 48.9858 48.0776 48.3813C48.071 48.2575 48.071 48.1334 48.0776 48.0095C47.7635 49.3678 47.2418 50.6689 46.531 51.8667C46.9959 52.1944 47.349 52.658 47.5422 53.1945C48.3316 52.5963 49.0884 51.9558 49.8092 51.2758L49.8687 51.2559ZM53.8342 46.6087C53.2589 46.2298 52.578 46.046 51.8911 46.0843C50.6684 46.0843 49.2474 46.8212 49.2474 48.4145C49.2404 48.8603 49.3787 49.2962 49.6412 49.6557C49.9037 50.0153 50.276 50.2788 50.7014 50.4061C51.8285 49.2372 52.8482 47.9684 53.7483 46.6154L53.8342 46.6087ZM55.817 43.0835L55.7443 43.2429L55.6914 43.1765L55.817 43.0835ZM57.7072 37.3144L57.6477 37.5866L57.7072 37.3144ZM57.8064 36.8165L57.7601 37.0422C57.6676 36.9758 57.6874 36.8961 57.7006 36.8497L57.8064 36.8165ZM55.9954 21.5804C56.466 22.6806 56.8613 23.8118 57.1785 24.9662C56.7532 24.6904 56.4073 24.3074 56.1753 23.8554C55.9434 23.4034 55.8335 22.8983 55.8566 22.3903C55.8729 22.116 55.9195 21.8443 55.9954 21.5804V21.5804ZM54.0589 17.8958L54.1977 18.1215L54.0589 17.8958ZM33.4315 9.26534V9.41139C33.4315 10.9848 34.7534 11.403 36.1149 11.8412C37.8531 12.4188 39.7698 12.9831 39.7698 15.466C39.7698 17.9489 37.6945 19.0377 35.7447 19.0377C34.9992 19.0561 34.2596 18.8994 33.585 18.5802C32.9103 18.2609 32.3191 17.7879 31.8585 17.1987L32.9424 16.3954C33.242 16.8745 33.6586 17.2687 34.1525 17.5406C34.6464 17.8125 35.2014 17.953 35.7646 17.9489C37.0335 17.9489 38.5008 17.1456 38.5008 15.5523C38.5008 13.8196 37.0534 13.3814 35.487 12.8968C33.9206 12.4121 32.1824 11.6752 32.1824 9.43131V9.28526C30.1262 9.35711 28.1186 9.93134 26.3332 10.9582C26.914 11.3169 27.5442 11.5876 28.2036 11.7615C29.9484 12.3391 31.8585 12.9034 31.8585 15.3863C31.8585 17.8693 29.7898 18.958 27.8401 18.958C27.0943 18.978 26.3542 18.822 25.6793 18.5027C25.0044 18.1833 24.4134 17.7094 23.9539 17.1191L25.0312 16.3158C25.3308 16.7948 25.7473 17.189 26.2413 17.4609C26.7352 17.7328 27.2901 17.8734 27.8533 17.8693C29.1289 17.8693 30.5895 17.066 30.5895 15.4726C30.5895 13.7399 29.1421 13.3017 27.5757 12.8171C26.7399 12.6052 25.9553 12.2259 25.2691 11.7018C24.5835 12.2512 23.9783 12.8949 23.4714 13.6138C23.8097 14.1506 23.978 14.778 23.9539 15.4129C23.9734 16.0934 23.7841 16.7635 23.4117 17.3324C23.0393 17.9012 22.5018 18.3413 21.872 18.5929C21.872 18.7124 21.872 18.8319 21.872 18.9514V19.2103C22.6274 19.4242 23.2975 19.8699 23.7886 20.485L22.8105 21.2883C22.596 20.9778 22.3219 20.7137 22.0041 20.5115C22.6651 24.9728 26.3332 26.7918 30.5961 28.2922C30.4772 26.7454 29.0892 26.3006 27.5889 25.8558C25.9499 25.3512 24.2843 24.6342 24.2843 22.3903C24.2843 19.9937 26.4125 18.9846 28.2499 18.9846C28.9059 18.951 29.561 19.0687 30.1647 19.3288C30.7685 19.5889 31.3049 19.9844 31.7329 20.485L30.7415 21.2883C30.4542 20.8845 30.0709 20.5594 29.6264 20.3425C29.182 20.1257 28.6906 20.024 28.197 20.0468C26.9809 20.0468 25.5533 20.7837 25.5533 22.377C25.5533 23.9703 26.8751 24.3687 28.2366 24.8068C29.9815 25.3844 31.8916 25.9487 31.8916 28.4316C31.8916 28.5312 31.8916 28.6308 31.8916 28.7237L33.1407 29.142C34.5154 29.5934 35.91 30.0449 37.2781 30.5494C37.6585 30.3657 37.9791 30.0773 38.2026 29.7176C38.4261 29.358 38.5433 28.9419 38.5404 28.5179C38.5404 26.7852 37.093 26.347 35.5266 25.8624C33.9602 25.3778 32.222 24.6409 32.222 22.3969C32.222 20.0003 34.3502 18.9912 36.1876 18.9912C36.8436 18.9581 37.4984 19.0761 38.1021 19.3361C38.7058 19.5962 39.2423 19.9914 39.6706 20.4916L38.6792 21.2949C38.3906 20.8925 38.0071 20.5683 37.5629 20.3516C37.1188 20.135 36.628 20.0325 36.1347 20.0534C34.912 20.0534 33.491 20.7903 33.491 22.3837C33.491 23.977 34.8128 24.3753 36.1743 24.8135C37.9126 25.391 39.8292 25.9554 39.8292 28.4383C39.8487 28.9425 39.7521 29.4444 39.5469 29.905C39.3417 30.3656 39.0335 30.7724 38.6462 31.0938C39.7259 31.5253 40.7768 32.0265 41.7922 32.5942C42.4945 32.2138 43.2811 32.0174 44.079 32.0232C44.7259 31.9987 45.3699 32.1215 45.9628 32.3825C46.5557 32.6434 47.0821 33.0358 47.5026 33.5303L46.5112 34.3335C46.2262 33.9239 45.8431 33.593 45.3972 33.3714C44.9514 33.1498 44.4571 33.0446 43.96 33.0655C43.5805 33.0656 43.2042 33.1353 42.8497 33.2713C44.4438 34.2884 45.7739 35.6721 46.7301 37.3079C47.6863 38.9437 48.2411 40.7847 48.3485 42.6786L48.7517 42.3798C49.0513 42.8589 49.4679 43.253 49.9618 43.5249C50.4557 43.7968 51.0106 43.9374 51.5738 43.9333C52.8494 43.9333 54.3101 43.13 54.3101 41.5367C54.3101 39.8039 52.8627 39.3658 51.2963 38.8811C49.7299 38.3965 47.9916 37.6596 47.9916 35.4223C47.9916 33.0191 50.1198 32.01 51.9572 32.01C52.6104 31.9834 53.2611 32.1065 53.86 32.3698C54.4588 32.6332 54.9902 33.0301 55.4138 33.5303L54.4224 34.3335C54.1393 33.9268 53.7594 33.5978 53.3173 33.3763C52.8751 33.1548 52.3848 33.048 51.8911 33.0655C50.6684 33.0655 49.2474 33.8024 49.2474 35.3958C49.2474 36.9891 50.5692 37.3874 51.9307 37.8256C53.6756 38.4032 55.5857 38.9675 55.5857 41.4504C55.5857 43.9333 53.517 45.0221 51.5672 45.0221C50.4294 45.0342 49.3208 44.6599 48.4212 43.9598C48.4212 44.0793 48.4212 44.1988 48.4212 44.3183C48.4238 45.3312 48.3353 46.3422 48.1569 47.339C48.6922 45.7191 50.4172 45.0221 51.9241 45.0221C52.7754 45.0083 53.6157 45.2164 54.3629 45.6262C55.8337 43.1804 56.8963 40.5096 57.5089 37.7194C57.5089 37.8588 57.4495 37.9982 57.4164 38.1376C56.9343 37.8729 56.5361 37.4772 56.2673 36.9959C55.9984 36.5145 55.8699 35.9669 55.8963 35.4157C55.8856 34.7243 56.0972 34.048 56.4996 33.4871C56.9021 32.9261 57.4739 32.5106 58.1302 32.3021C58.1302 32.7336 58.1302 33.1585 58.0839 33.5767C57.7941 33.7801 57.5594 34.0531 57.4013 34.3707C57.2431 34.6884 57.1665 35.0408 57.1785 35.3958C57.1659 35.6544 57.2077 35.9127 57.3011 36.1541C57.3945 36.3954 57.5373 36.6143 57.7204 36.7966C57.979 35.2112 58.1248 33.6094 58.1566 32.0033C58.1566 31.0805 58.1566 31.5984 58.1566 31.3992C58.1566 31.5452 58.1566 31.6847 58.1566 31.8307C57.1374 31.5944 56.234 31.0042 55.6055 30.1644L56.6894 29.3611C57.0316 29.9157 57.531 30.355 58.1236 30.6224C57.8925 26.1932 56.5487 21.8949 54.2175 18.1282V18.1746C53.4391 18.7089 52.5167 18.9915 51.5738 18.9846C50.8281 19.0046 50.088 18.8486 49.4131 18.5292C48.7382 18.2099 48.1472 17.736 47.6876 17.1456L48.7649 16.3423C49.0645 16.8214 49.4811 17.2156 49.975 17.4875C50.4689 17.7593 51.0239 17.8999 51.5871 17.8958C52.3143 17.8952 53.0174 17.6339 53.5698 17.1589C51.9158 14.7148 49.8649 12.5671 47.5026 10.8055C47.562 10.8852 47.6215 10.9582 47.6744 11.0379L45.8635 12.5051C46.4236 12.7463 46.8965 13.1547 47.218 13.6747C47.5396 14.1948 47.6943 14.8016 47.6612 15.4129C47.6612 17.8958 45.5859 18.9846 43.6362 18.9846C42.8904 19.004 42.1506 18.8478 41.4757 18.5285C40.8009 18.2092 40.2099 17.7356 39.7499 17.1456L40.8338 16.3423C41.1335 16.8214 41.55 17.2156 42.0439 17.4875C42.5379 17.7593 43.0928 17.8999 43.656 17.8958C44.925 17.8958 46.3856 17.0925 46.3856 15.4992C46.3934 15.0192 46.2454 14.5496 45.964 14.1616C45.6826 13.7735 45.2831 13.488 44.8258 13.3482L43.504 14.4104C41.4287 11.3765 38.0117 9.35828 33.4315 9.21223V9.26534ZM31.8585 1C37.9633 0.998688 43.9314 2.81588 49.0081 6.22177C54.0847 9.62766 58.0417 14.4693 60.3789 20.1343C62.716 25.7993 63.3282 32.0332 62.138 38.0477C60.9478 44.0622 58.0087 49.5871 53.6924 53.9236C49.3761 58.2602 43.8765 61.2136 37.889 62.4104C31.9016 63.6072 25.6953 62.9937 20.0551 60.6473C14.4148 58.3009 9.59396 54.3271 6.20217 49.2285C2.81037 44.1299 1 38.1355 1 32.0033C1 23.7819 4.25094 15.8971 10.0378 10.083C15.8248 4.26895 23.6737 1.00176 31.8585 1V1ZM98.9687 16.11H95.7896V47.4718H98.9687V16.11ZM110.442 16.11H107.263V47.4718H125.002V44.6503H110.462L110.442 16.11ZM126.807 16.11H123.37L135.267 47.4851H138.624L150.58 16.11H147.196L137.044 43.369H136.959L126.807 16.11ZM158.049 32.5477H173.184V29.7594H158.049V18.9248H174.248V16.11H154.876V47.4718H174.777V44.6503H158.049V32.5477ZM184.175 18.8584H189.819C194.545 18.8584 197.678 20.3655 197.678 24.4815C197.678 28.2059 194.763 30.0714 189.687 30.0714H184.175V18.8584ZM184.175 32.8H189.462L198.12 47.4718H202L192.866 32.5477C197.413 32.0631 200.85 29.1353 200.85 24.4815C200.85 18.3672 196.349 16.11 190.176 16.11H180.996V47.4718H184.175V32.8ZM69.7757 13.7731H70.6415L73.4306 10.6794V13.7731H74.0188V10.6794L76.8013 13.7731H77.6671L74.6929 10.5997L77.5019 7.94421H76.6757L74.032 10.5533V7.96413H73.4438V10.5732L70.8001 7.96413H69.9607L72.7697 10.6197L69.7757 13.7731ZM78.4536 13.7731H79.1145L82.2936 8.83382V13.7731H82.8818V7.96413H82.2209L79.0352 12.8569V7.96413H78.447L78.4536 13.7731ZM84.2367 13.8329C85.6246 13.8329 86.0542 12.3524 86.0542 9.51762V8.48196H88.3608V13.793H88.9491V7.96413H85.4858V9.21887C85.4858 12.2196 85.1157 13.2885 84.164 13.2885C84.0443 13.2863 83.9259 13.2638 83.8137 13.2221L83.7079 13.7532C83.8802 13.8016 84.0578 13.8284 84.2367 13.8329V13.8329ZM93.1856 13.3947C92.8603 13.398 92.5378 13.3341 92.2382 13.2069C91.9385 13.0797 91.6681 12.892 91.4437 12.6554C91.2194 12.4188 91.0458 12.1384 90.9339 11.8316C90.8219 11.5248 90.774 11.1981 90.793 10.8719C90.7686 10.5413 90.8123 10.2092 90.9214 9.89629C91.0305 9.58341 91.2028 9.29651 91.4273 9.05355C91.6519 8.81058 91.924 8.61676 92.2265 8.48423C92.529 8.35169 92.8555 8.28329 93.1856 8.28329C93.5156 8.28329 93.8421 8.35169 94.1447 8.48423C94.4472 8.61676 94.7193 8.81058 94.9438 9.05355C95.1684 9.29651 95.3406 9.58341 95.4498 9.89629C95.5589 10.2092 95.6026 10.5413 95.5781 10.8719C95.5972 11.1981 95.5492 11.5248 95.4373 11.8316C95.3254 12.1384 95.1518 12.4188 94.9274 12.6554C94.7031 12.892 94.4327 13.0797 94.133 13.2069C93.8334 13.3341 93.5109 13.398 93.1856 13.3947V13.3947ZM93.1856 13.9192C93.5836 13.9256 93.9788 13.8509 94.3472 13.6995C94.7156 13.548 95.0496 13.323 95.3289 13.0381C95.6082 12.7532 95.827 12.4144 95.9721 12.042C96.1172 11.6696 96.1855 11.2716 96.173 10.8719C96.173 10.069 95.8554 9.29904 95.2902 8.73131C94.725 8.16358 93.9585 7.84463 93.1591 7.84463C92.3598 7.84463 91.5933 8.16358 91.0281 8.73131C90.4629 9.29904 90.1453 10.069 90.1453 10.8719C90.1324 11.2762 90.2023 11.6788 90.3506 12.0548C90.4989 12.4308 90.7225 12.7722 91.0075 13.0579C91.2925 13.3435 91.6329 13.5674 92.0076 13.7155C92.3822 13.8637 92.7832 13.933 93.1856 13.9192V13.9192ZM99.6428 7.40647C99.7896 7.41638 99.9368 7.39707 100.076 7.34967C100.215 7.30227 100.344 7.22769 100.455 7.13023C100.565 7.03277 100.655 6.91434 100.72 6.78174C100.785 6.64914 100.823 6.50498 100.832 6.35753L100.456 6.28451C100.424 6.47816 100.326 6.65456 100.178 6.78285C100.031 6.91114 99.8426 6.98317 99.6473 6.98633C99.4519 6.9895 99.2617 6.9236 99.1099 6.80016C98.9581 6.67672 98.8543 6.5036 98.8166 6.31106L98.4465 6.38409C98.4582 6.53013 98.4984 6.67243 98.5649 6.80286C98.6313 6.93329 98.7227 7.04929 98.8338 7.14423C98.9449 7.23918 99.0735 7.3112 99.2123 7.3562C99.3511 7.40119 99.4974 7.41828 99.6428 7.40647V7.40647ZM97.4221 13.7731H98.083L101.269 8.83382V13.7731H101.857V7.96413H101.196L98.0103 12.8569V7.96413H97.4221V13.7731ZM105.446 13.7731H106.034V10.6794L108.929 13.7731H109.788L106.748 10.5997L109.662 7.94421H108.797L106.041 10.5533V7.96413H105.426L105.446 13.7731ZM113.079 13.3947C112.754 13.398 112.432 13.3341 112.132 13.2069C111.832 13.0797 111.562 12.892 111.338 12.6554C111.113 12.4188 110.94 12.1384 110.828 11.8316C110.716 11.5248 110.668 11.1981 110.687 10.8719C110.662 10.5413 110.706 10.2092 110.815 9.89629C110.924 9.58341 111.097 9.29651 111.321 9.05355C111.546 8.81058 111.818 8.61676 112.12 8.48423C112.423 8.35169 112.749 8.28329 113.079 8.28329C113.409 8.28329 113.736 8.35169 114.038 8.48423C114.341 8.61676 114.613 8.81058 114.838 9.05355C115.062 9.29651 115.234 9.58341 115.344 9.89629C115.453 10.2092 115.496 10.5413 115.472 10.8719C115.491 11.1981 115.443 11.5248 115.331 11.8316C115.219 12.1384 115.046 12.4188 114.821 12.6554C114.597 12.892 114.326 13.0797 114.027 13.2069C113.727 13.3341 113.405 13.398 113.079 13.3947V13.3947ZM113.079 13.9192C113.48 13.9293 113.878 13.8573 114.249 13.7075C114.621 13.5577 114.958 13.3332 115.24 13.0479C115.522 12.7627 115.743 12.4225 115.89 12.0484C116.037 11.6742 116.106 11.2739 116.093 10.8719C116.093 10.069 115.776 9.29904 115.21 8.73131C114.645 8.16358 113.879 7.84463 113.079 7.84463C112.28 7.84463 111.513 8.16358 110.948 8.73131C110.383 9.29904 110.066 10.069 110.066 10.8719C110.053 11.2739 110.122 11.6742 110.269 12.0484C110.415 12.4225 110.637 12.7627 110.919 13.0479C111.201 13.3332 111.538 13.5577 111.91 13.7075C112.281 13.8573 112.679 13.9293 113.079 13.9192V13.9192ZM117.316 13.7731H117.904V8.7276L119.999 13.7731H120.31L122.398 8.7276V13.7731H122.987V7.96413H122.088L120.158 12.7706L118.175 7.96413H117.323L117.316 13.7731ZM124.546 13.7731H125.135V8.49524H128.287V13.8063H128.875V7.96413H124.546V13.7731ZM130.204 13.8329C131.592 13.8329 132.028 12.3524 132.028 9.51762V8.48196H134.328V13.793H134.916V7.96413H131.453V9.21887C131.453 12.2196 131.09 13.2885 130.131 13.2885C130.011 13.2869 129.893 13.2645 129.781 13.2221L129.669 13.7532C129.843 13.8022 130.023 13.8289 130.204 13.8329V13.8329ZM136.45 13.7731H140.131V13.2486H137.038V11.0114H139.84V10.4935H137.038V8.50187H140.038V7.97077H136.45V13.7731ZM141.288 13.7731H141.876V10.6794L144.764 13.7731H145.63L142.55 10.5997L145.465 7.94421H144.625L141.876 10.5533V7.96413H141.288V13.7731ZM148.921 13.9192C149.343 13.9339 149.761 13.8426 150.139 13.6537C150.516 13.4647 150.84 13.184 151.082 12.837L150.626 12.5449C150.437 12.8191 150.183 13.0412 149.886 13.1909C149.589 13.3405 149.26 13.4129 148.928 13.4013C148.602 13.4036 148.279 13.3389 147.979 13.211C147.679 13.0832 147.408 12.895 147.184 12.658C146.959 12.421 146.785 12.1402 146.672 11.833C146.559 11.5259 146.511 11.1988 146.529 10.8719C146.51 10.5446 146.558 10.2167 146.67 9.90878C146.782 9.60083 146.956 9.31927 147.181 9.08155C147.406 8.84383 147.677 8.655 147.977 8.52674C148.278 8.39848 148.601 8.33353 148.928 8.3359C149.23 8.32936 149.528 8.39521 149.8 8.52799C150.071 8.66078 150.307 8.85666 150.488 9.09937L150.977 8.74087C150.728 8.43858 150.413 8.19805 150.056 8.038C149.7 7.87794 149.311 7.80268 148.921 7.81808C148.52 7.80789 148.122 7.88012 147.75 8.03033C147.378 8.18054 147.04 8.40556 146.758 8.69156C146.476 8.97756 146.255 9.31851 146.108 9.69347C145.962 10.0684 145.894 10.4695 145.907 10.8719C145.893 11.2744 145.961 11.6755 146.107 12.0506C146.253 12.4256 146.474 12.7666 146.756 13.0523C147.039 13.3379 147.377 13.5623 147.749 13.7114C148.122 13.8605 148.521 13.9312 148.921 13.9192V13.9192ZM88.5525 19.124C87.0522 17.0792 83.926 15.3067 79.7292 15.3067C75.1027 15.3067 69.7559 17.8825 69.7559 23.9371C69.7559 29.6133 73.9924 31.4324 78.1364 32.7137C82.1019 33.9551 85.77 35.0638 85.77 39.4521C85.77 43.4885 82.0689 45.5266 78.8435 45.5266C77.4117 45.5386 76.0011 45.178 74.7491 44.48C73.497 43.782 72.4463 42.7703 71.699 41.5433L68.9627 43.5881C71.2099 46.6884 75.0036 48.2353 78.8039 48.2353C83.741 48.2353 88.9953 45.4868 88.9953 39.1932C88.9953 32.8996 84.1375 31.4789 79.7424 30.0183C76.2527 28.8632 72.9481 27.8408 72.9481 23.8575C72.9481 19.8742 76.5171 17.9622 79.6102 17.9622C80.8595 17.9051 82.1031 18.1631 83.2276 18.7128C84.352 19.2625 85.3215 20.0863 86.0476 21.109L88.5525 19.124Z" fill="#191919" fill-opacity="0.64"/>
<path fill-rule="evenodd" clip-rule="evenodd" d="M23.782 33.5303C23.3527 33.0295 22.815 32.634 22.2102 32.374C21.6054 32.114 20.9494 31.9963 20.2924 32.0299C18.4814 32.0299 16.3268 33.039 16.3268 35.4422C16.3268 37.6795 17.9989 38.3965 19.6314 38.9011C21.2639 39.4056 22.6452 39.8305 22.6452 41.5566C22.6452 43.1499 21.1846 43.9532 19.9156 43.9532C19.3524 43.9573 18.7975 43.8167 18.3036 43.5448C17.8097 43.273 17.3931 42.8788 17.0935 42.3997L16.0096 43.203C16.4695 43.793 17.0605 44.2666 17.7354 44.5859C18.4102 44.9052 19.1501 45.0614 19.8958 45.042C21.8455 45.042 23.9208 43.9532 23.9208 41.4703C23.9208 38.9874 22.0041 38.4231 20.2593 37.8455C18.8846 37.394 17.576 36.9891 17.576 35.4157C17.576 33.8423 18.9903 33.0855 20.2196 33.0855C20.7191 33.0525 21.2187 33.1473 21.6718 33.3609C22.1248 33.5745 22.5166 33.9 22.8105 34.307L23.782 33.5303ZM15.8509 33.5303C15.4226 33.0301 14.8861 32.6348 14.2824 32.3748C13.6788 32.1148 13.0239 31.9968 12.3679 32.0299C10.557 32.0299 8.40234 33.039 8.40234 35.4422C8.40234 37.6795 10.0745 38.3965 11.707 38.9011C13.3394 39.4056 14.7208 39.8305 14.7208 41.5566C14.7208 43.1499 13.2535 43.9532 11.9845 43.9532C11.4213 43.9573 10.8664 43.8167 10.3725 43.5448C9.87857 43.273 9.46203 42.8788 9.1624 42.3997L8.13797 43.1831C8.59651 43.7729 9.18635 44.2465 9.86012 44.5659C10.5339 44.8853 11.2728 45.0415 12.0176 45.0221C14.0004 45.0221 16.0426 43.9333 16.0426 41.4504C16.0426 38.9675 14.1259 38.4032 12.3877 37.8256C11.013 37.3741 9.70436 36.9692 9.70436 35.3958C9.70436 33.8224 11.1121 33.0655 12.3481 33.0655C12.8393 33.0456 13.3279 33.1486 13.7697 33.3653C14.2116 33.582 14.5929 33.9056 14.8794 34.307L15.8509 33.5303ZM55.4138 20.485C54.9855 19.9848 54.449 19.5895 53.8453 19.3295C53.2416 19.0695 52.5868 18.9515 51.9307 18.9846C50.1198 18.9846 47.9652 19.9937 47.9652 22.3903C47.9652 24.6342 49.6373 25.3512 51.2698 25.8558C52.9023 26.3603 54.2836 26.7852 54.2836 28.5113C54.2836 30.1046 52.823 30.9079 51.5474 30.9079C50.9842 30.912 50.4293 30.7714 49.9354 30.4996C49.4414 30.2277 49.0249 29.8335 48.7253 29.3544L47.648 30.1577C48.1075 30.7481 48.6985 31.222 49.3734 31.5413C50.0483 31.8607 50.7884 32.0167 51.5342 31.9967C53.4839 31.9967 55.5526 30.9079 55.5526 28.425C55.5526 25.9421 53.6425 25.3778 51.8977 24.8002C50.5692 24.3554 49.2474 23.9504 49.2474 22.377C49.2474 20.8036 50.6552 20.0468 51.8911 20.0468C52.3847 20.024 52.8761 20.1257 53.3205 20.3425C53.765 20.5594 54.1483 20.8845 54.4356 21.2883L55.4138 20.485ZM47.4827 20.485C47.0554 19.9836 46.519 19.5876 45.9151 19.3274C45.3112 19.0673 44.6559 18.95 43.9997 18.9846C42.1887 18.9846 40.0341 19.9937 40.0341 22.3903C40.0341 24.6342 41.7063 25.3512 43.3387 25.8558C44.9712 26.3603 46.3526 26.7852 46.3526 28.5113C46.3526 30.1046 44.8919 30.9079 43.6229 30.9079C43.0597 30.912 42.5048 30.7714 42.0109 30.4996C41.517 30.2277 41.1004 29.8335 40.8008 29.3544L39.7169 30.1577C40.1768 30.7477 40.7678 31.2213 41.4427 31.5406C42.1175 31.8599 42.8574 32.0161 43.6031 31.9967C45.5528 31.9967 47.6281 30.9079 47.6281 28.425C47.6281 25.9421 45.7115 25.3778 43.9666 24.8002C42.6382 24.3554 41.3163 23.9504 41.3163 22.377C41.3163 20.8036 42.7307 20.0468 43.96 20.0468C44.4536 20.024 44.945 20.1257 45.3894 20.3425C45.8339 20.5594 46.2172 20.8845 46.5046 21.2883L47.4827 20.485ZM15.8509 20.485C15.4226 19.9848 14.8861 19.5895 14.2824 19.3295C13.6788 19.0695 13.0239 18.9515 12.3679 18.9846C10.557 18.9846 8.40234 19.9937 8.40234 22.3903C8.40234 24.6342 10.0745 25.3512 11.707 25.8558C13.3394 26.3603 14.7208 26.7852 14.7208 28.5113C14.7208 30.1046 13.2535 30.9079 11.9845 30.9079C11.4213 30.912 10.8664 30.7714 10.3725 30.4996C9.87857 30.2277 9.46203 29.8335 9.1624 29.3544L8.13797 30.1644C8.59651 30.7542 9.18635 31.2278 9.86012 31.5472C10.5339 31.8665 11.2728 32.0228 12.0176 32.0033C14.0004 32.0033 16.0426 30.9146 16.0426 28.4316C16.0426 25.9487 14.1259 25.3844 12.3877 24.8068C11.013 24.3554 9.70436 23.9504 9.70436 22.377C9.70436 20.8036 11.1121 20.0468 12.3481 20.0468C12.8393 20.0269 13.3279 20.1299 13.7697 20.3466C14.2116 20.5633 14.5929 20.8869 14.8794 21.2883L15.8509 20.485ZM23.3656 7.02142C23.4148 7.06012 23.4612 7.10227 23.5044 7.14755C23.782 6.99486 24.0662 6.84217 24.3504 6.70275C24.02 6.80234 23.6895 6.90856 23.3656 7.02142ZM22.0438 17.0859C22.2928 16.8244 22.4779 16.5084 22.5845 16.1627C22.6912 15.8171 22.7165 15.4513 22.6585 15.0942C22.3729 15.7314 22.1622 16.3998 22.0306 17.0859H22.0438ZM17.6619 9.78317C17.7332 10.1133 17.8854 10.4204 18.1047 10.6766C18.324 10.9328 18.6034 11.13 18.9176 11.2503C19.8665 9.90073 21.0538 8.73738 22.4205 7.81808C22.3033 7.70353 22.1749 7.60121 22.0372 7.51269C20.5051 8.13135 19.0355 8.8961 17.6487 9.79645L17.6619 9.78317ZM10.0613 17.2585C10.6333 17.6894 11.329 17.9224 12.044 17.9224C13.313 17.9224 14.7803 17.1191 14.7803 15.5258C14.7884 15.0536 14.645 14.5914 14.3712 14.2076C14.0974 13.8237 13.7078 13.5387 13.2601 13.3947C12.0744 14.5779 11.0033 15.8717 10.0613 17.2585V17.2585ZM6.20147 26.3072C6.20147 26.1412 6.27417 25.9819 6.31382 25.8226C6.28739 25.9819 6.23451 26.1412 6.20147 26.3072ZM6.10233 26.7719C6.10233 26.6192 6.16181 26.4732 6.19486 26.3271C6.16181 26.4732 6.13537 26.6192 6.10233 26.7719ZM5.62646 30.5361C5.99541 30.3511 6.30616 30.0671 6.52431 29.7156C6.74245 29.364 6.85946 28.9587 6.86239 28.5445C6.88392 28.2171 6.8246 27.8894 6.6897 27.5906C6.55479 27.2918 6.34849 27.0311 6.08911 26.8317V26.7918C5.84725 28.0274 5.69265 29.2787 5.62646 30.5361V30.5361ZM5.62646 33.2647C5.62646 32.8863 5.62646 32.5012 5.62646 32.1095C6.54696 32.291 7.3736 32.7944 7.95952 33.5303L6.94831 34.307C6.62422 33.8319 6.16285 33.4681 5.62646 33.2647V33.2647ZM7.39113 41.6363L7.30521 41.3973L7.39113 41.6363ZM7.86038 42.7516C7.82734 42.6719 7.78768 42.5989 7.75464 42.5192C7.78768 42.5989 7.82734 42.6719 7.86038 42.7516V42.7516ZM10.2529 46.9672C10.0282 46.6419 9.81011 46.3034 9.592 45.9648C10.3979 45.336 11.3939 45.0033 12.4141 45.0221C13.0702 44.989 13.725 45.1069 14.3287 45.367C14.9324 45.627 15.4689 46.0222 15.8972 46.5224L14.8794 47.3257C14.5916 46.9224 14.2082 46.5976 13.7639 46.3808C13.3195 46.1641 12.8283 46.0621 12.3348 46.0843C11.9462 46.081 11.561 46.1577 11.203 46.3095C10.8449 46.4613 10.5216 46.6852 10.2529 46.9672V46.9672ZM43.0149 46.2436C42.5308 46.3624 42.1004 46.6409 41.7924 47.0345C41.4845 47.428 41.3169 47.9139 41.3163 48.4145C41.2997 48.857 41.4377 49.2915 41.7063 49.6427C42.3599 48.6099 42.7941 47.4527 42.9818 46.2436H43.0149ZM41.0321 50.6783C40.7337 50.388 40.5003 50.0371 40.3476 49.649C40.1949 49.2609 40.1263 48.8446 40.1465 48.4278C40.1465 46.4361 41.6137 45.4005 43.1471 45.1084C43.1504 45.0686 43.1504 45.0286 43.1471 44.9889C42.5011 44.9372 41.8731 44.7497 41.3038 44.4386C40.7345 44.1275 40.2367 43.6998 39.8425 43.1831L40.9264 42.3798C41.1694 42.7738 41.493 43.1114 41.8759 43.3701C42.2588 43.6288 42.6921 43.8027 43.1471 43.8802C42.7836 38.3899 38.6726 36.2455 33.6628 34.5394C33.5534 34.8113 33.4995 35.1025 33.5042 35.3958C33.5042 36.9692 34.8261 37.3874 36.1876 37.8256C37.9258 38.4032 39.8425 38.9675 39.8425 41.4504C39.8425 43.9333 37.7672 45.0221 35.8174 45.0221C35.0719 45.0405 34.3323 44.8838 33.6577 44.5646C32.983 44.2453 32.3918 43.7723 31.9312 43.1831L33.0151 42.3798C33.3147 42.8589 33.7313 43.253 34.2252 43.5249C34.7191 43.7968 35.2741 43.9374 35.8373 43.9333C37.1062 43.9333 38.5735 43.13 38.5735 41.5367C38.5735 39.8039 37.1261 39.3658 35.5597 38.8811C33.9933 38.3965 32.2551 37.6596 32.2551 35.4223C32.2516 34.9887 32.3301 34.5585 32.4864 34.1543L31.3959 33.8091L30.7746 34.3136C30.4873 33.9099 30.1039 33.5848 29.6595 33.3679C29.215 33.1511 28.7236 33.0494 28.23 33.0722C27.0139 33.0722 25.5863 33.8091 25.5863 35.4024C25.5863 36.9957 26.9082 37.394 28.2697 37.8322C30.0145 38.4098 31.9246 38.9741 31.9246 41.457C31.9246 43.9399 29.8559 45.0287 27.9062 45.0287C27.1604 45.0487 26.4203 44.8927 25.7454 44.5733C25.0705 44.254 24.4795 43.7801 24.02 43.1897L25.0973 42.3864C25.3969 42.8655 25.8134 43.2597 26.3074 43.5316C26.8013 43.8035 27.3562 43.944 27.9194 43.9399C29.195 43.9399 30.6556 43.1366 30.6556 41.5433C30.6556 39.8106 29.2082 39.3724 27.6418 38.8878C26.0754 38.4031 24.3372 37.6662 24.3372 35.429C24.3295 34.7019 24.565 33.9932 25.006 33.4166C25.4471 32.84 26.068 32.4288 26.7694 32.249C25.5806 31.7863 24.4274 31.236 23.3194 30.6025C22.9056 31.0674 22.395 31.435 21.8239 31.6794C21.2528 31.9238 20.6351 32.0389 20.0148 32.0166C19.269 32.036 18.5292 31.8798 17.8543 31.5605C17.1795 31.2412 16.5885 30.7676 16.1285 30.1776L17.2124 29.3743C17.5121 29.8534 17.9286 30.2476 18.4225 30.5195C18.9165 30.7914 19.4714 30.9319 20.0346 30.9278C20.4577 30.9334 20.8771 30.848 21.2647 30.6774C21.6523 30.5068 21.999 30.2549 22.2817 29.9386C20.4498 28.7495 18.965 27.0931 17.9791 25.1388C17.493 24.8743 17.0911 24.4772 16.8198 23.9933C16.5485 23.5093 16.4189 22.9583 16.4458 22.4036C16.4364 21.8756 16.5567 21.3534 16.7961 20.8833C16.7285 20.2705 16.6954 19.6543 16.6969 19.0377C16.6969 18.6261 16.6969 18.2211 16.7432 17.8294C16.5169 17.6292 16.311 17.4068 16.1285 17.1655L16.882 16.6012C17.0826 15.0925 17.5481 13.6315 18.2567 12.286C17.8706 12.1215 17.5206 11.8819 17.2268 11.5812C16.933 11.2804 16.7013 10.9243 16.5449 10.5334C15.7357 11.1375 14.9591 11.7846 14.2185 12.4719C14.7941 12.7072 15.2824 13.1169 15.6153 13.6441C15.9482 14.1712 16.1091 14.7895 16.0757 15.4129C16.0757 17.8958 14.007 18.9846 12.0506 18.9846C11.1229 18.9967 10.2092 18.7558 9.40694 18.2875C7.98515 20.6148 6.9327 23.1502 6.28739 25.8027C6.28739 25.7164 6.33365 25.63 6.35348 25.5437C6.9035 25.7892 7.36621 26.1969 7.6802 26.7127C7.99419 27.2285 8.14462 27.828 8.11153 28.4316C8.12296 29.1932 7.87686 29.9362 7.41347 30.5392C6.95008 31.1421 6.29679 31.5693 5.56037 31.751C5.56037 31.3992 5.56037 31.0473 5.56037 30.6955C5.52909 31.1198 5.52909 31.5458 5.56037 31.9701C5.61392 34.183 5.88848 36.3848 6.37992 38.5426C6.92281 38.7913 7.37844 39.1987 7.68735 39.7115C7.99625 40.2243 8.14408 40.8187 8.11153 41.4172C8.12906 41.8966 8.05271 42.3748 7.88682 42.8246V42.8246C9.38018 46.1316 11.5355 49.0943 14.2185 51.5281C14.7976 51.7858 15.2909 52.2052 15.6395 52.7364C16.3069 53.2685 17.0018 53.7649 17.7214 54.2235C16.8325 53.4258 16.0305 52.5357 15.3288 51.5679L16.9811 50.3331C16.574 49.7817 16.3665 49.1072 16.3929 48.4211C16.3929 46.0245 18.5145 45.0154 20.3584 45.0154C21.0155 44.9818 21.6715 45.0995 22.2763 45.3595C22.8811 45.6196 23.4188 46.0151 23.8481 46.5158L22.8105 47.3257C22.5231 46.922 22.1398 46.5969 21.6953 46.38C21.2509 46.1632 20.7595 46.0615 20.2659 46.0843C19.0498 46.0843 17.6222 46.8212 17.6222 48.4145C17.6098 48.8339 17.7326 49.2461 17.9725 49.5896L19.8363 48.2021C20.9856 50.0676 22.5626 51.6298 24.4356 52.7581C26.3086 53.8865 28.4232 54.5483 30.6028 54.6882V54.5554C30.6028 52.8227 29.1553 52.3845 27.5889 51.8999C26.0226 51.4152 24.2843 50.6783 24.2843 48.4344C24.2843 46.0378 26.4125 45.0287 28.2499 45.0287C28.9059 44.9951 29.561 45.1129 30.1647 45.3729C30.7685 45.633 31.3049 46.0285 31.7329 46.5291L30.7415 47.3324C30.4542 46.9286 30.0709 46.6035 29.6264 46.3867C29.182 46.1698 28.6906 46.0682 28.197 46.0909C26.9809 46.0909 25.5533 46.8278 25.5533 48.4211C25.5533 50.0145 26.8751 50.4128 28.2366 50.8509C29.9815 51.4285 31.8916 51.9928 31.8916 54.4758C31.8916 54.5621 31.8916 54.6484 31.8916 54.728C34.0318 54.6915 36.1315 54.1357 38.0117 53.1081C37.2945 52.5016 36.4381 52.0841 35.52 51.8932C33.8809 51.3887 32.2154 50.6717 32.2154 48.4278C32.2154 46.0312 34.3436 45.0221 36.1809 45.0221C36.837 44.989 37.4918 45.1069 38.0955 45.367C38.6992 45.627 39.2357 46.0222 39.664 46.5224L38.6726 47.3257C38.384 46.9233 38.0004 46.5992 37.5563 46.3825C37.1122 46.1658 36.6214 46.0633 36.1281 46.0843C34.9054 46.0843 33.4844 46.8212 33.4844 48.4145C33.4844 50.0078 34.8062 50.4061 36.1677 50.8443C37.2649 51.2094 38.4347 51.5679 39.1485 52.4044C39.8272 51.9095 40.4403 51.3294 40.9726 50.6783H41.0321ZM46.412 53.9978C46.3309 53.595 46.1222 53.2294 45.8172 52.9555C44.874 54.2179 43.7228 55.3091 42.4135 56.1819C43.7857 55.5749 45.1035 54.8508 46.3526 54.0177L46.412 53.9978ZM49.8687 51.2559C49.3169 51.0133 48.8508 50.6092 48.5313 50.0964C48.2117 49.5835 48.0536 48.9858 48.0776 48.3813C48.071 48.2575 48.071 48.1334 48.0776 48.0095C47.7635 49.3678 47.2418 50.6689 46.531 51.8667C46.9959 52.1944 47.349 52.658 47.5422 53.1945C48.3316 52.5963 49.0884 51.9558 49.8092 51.2758L49.8687 51.2559ZM53.8342 46.6087C53.2589 46.2298 52.578 46.046 51.8911 46.0843C50.6684 46.0843 49.2474 46.8212 49.2474 48.4145C49.2404 48.8603 49.3787 49.2962 49.6412 49.6557C49.9037 50.0153 50.276 50.2788 50.7014 50.4061C51.8285 49.2372 52.8482 47.9684 53.7483 46.6154L53.8342 46.6087ZM55.817 43.0835L55.7443 43.2429L55.6914 43.1765L55.817 43.0835ZM57.7072 37.3144L57.6477 37.5866L57.7072 37.3144ZM57.8064 36.8165L57.7601 37.0422C57.6676 36.9758 57.6874 36.8961 57.7006 36.8497L57.8064 36.8165ZM55.9954 21.5804C56.466 22.6806 56.8613 23.8118 57.1785 24.9662C56.7532 24.6904 56.4073 24.3074 56.1753 23.8554C55.9434 23.4034 55.8335 22.8983 55.8566 22.3903C55.8729 22.116 55.9195 21.8443 55.9954 21.5804V21.5804ZM54.0589 17.8958L54.1977 18.1215L54.0589 17.8958ZM33.4315 9.26534V9.41139C33.4315 10.9848 34.7534 11.403 36.1149 11.8412C37.8531 12.4188 39.7698 12.9831 39.7698 15.466C39.7698 17.9489 37.6945 19.0377 35.7447 19.0377C34.9992 19.0561 34.2596 18.8994 33.585 18.5802C32.9103 18.2609 32.3191 17.7879 31.8585 17.1987L32.9424 16.3954C33.242 16.8745 33.6586 17.2687 34.1525 17.5406C34.6464 17.8125 35.2014 17.953 35.7646 17.9489C37.0335 17.9489 38.5008 17.1456 38.5008 15.5523C38.5008 13.8196 37.0534 13.3814 35.487 12.8968C33.9206 12.4121 32.1824 11.6752 32.1824 9.43131V9.28526C30.1262 9.35711 28.1186 9.93134 26.3332 10.9582C26.914 11.3169 27.5442 11.5876 28.2036 11.7615C29.9484 12.3391 31.8585 12.9034 31.8585 15.3863C31.8585 17.8693 29.7898 18.958 27.8401 18.958C27.0943 18.978 26.3542 18.822 25.6793 18.5027C25.0044 18.1833 24.4134 17.7094 23.9539 17.1191L25.0312 16.3158C25.3308 16.7948 25.7473 17.189 26.2413 17.4609C26.7352 17.7328 27.2901 17.8734 27.8533 17.8693C29.1289 17.8693 30.5895 17.066 30.5895 15.4726C30.5895 13.7399 29.1421 13.3017 27.5757 12.8171C26.7399 12.6052 25.9553 12.2259 25.2691 11.7018C24.5835 12.2512 23.9783 12.8949 23.4714 13.6138C23.8097 14.1506 23.978 14.778 23.9539 15.4129C23.9734 16.0934 23.7841 16.7635 23.4117 17.3324C23.0393 17.9012 22.5018 18.3413 21.872 18.5929C21.872 18.7124 21.872 18.8319 21.872 18.9514V19.2103C22.6274 19.4242 23.2975 19.8699 23.7886 20.485L22.8105 21.2883C22.596 20.9778 22.3219 20.7137 22.0041 20.5115C22.6651 24.9728 26.3332 26.7918 30.5961 28.2922C30.4772 26.7454 29.0892 26.3006 27.5889 25.8558C25.9499 25.3512 24.2843 24.6342 24.2843 22.3903C24.2843 19.9937 26.4125 18.9846 28.2499 18.9846C28.9059 18.951 29.561 19.0687 30.1647 19.3288C30.7685 19.5889 31.3049 19.9844 31.7329 20.485L30.7415 21.2883C30.4542 20.8845 30.0709 20.5594 29.6264 20.3425C29.182 20.1257 28.6906 20.024 28.197 20.0468C26.9809 20.0468 25.5533 20.7837 25.5533 22.377C25.5533 23.9703 26.8751 24.3687 28.2366 24.8068C29.9815 25.3844 31.8916 25.9487 31.8916 28.4316C31.8916 28.5312 31.8916 28.6308 31.8916 28.7237L33.1407 29.142C34.5154 29.5934 35.91 30.0449 37.2781 30.5494C37.6585 30.3657 37.9791 30.0773 38.2026 29.7176C38.4261 29.358 38.5433 28.9419 38.5404 28.5179C38.5404 26.7852 37.093 26.347 35.5266 25.8624C33.9602 25.3778 32.222 24.6409 32.222 22.3969C32.222 20.0003 34.3502 18.9912 36.1876 18.9912C36.8436 18.9581 37.4984 19.0761 38.1021 19.3361C38.7058 19.5962 39.2423 19.9914 39.6706 20.4916L38.6792 21.2949C38.3906 20.8925 38.0071 20.5683 37.5629 20.3516C37.1188 20.135 36.628 20.0325 36.1347 20.0534C34.912 20.0534 33.491 20.7903 33.491 22.3837C33.491 23.977 34.8128 24.3753 36.1743 24.8135C37.9126 25.391 39.8292 25.9554 39.8292 28.4383C39.8487 28.9425 39.7521 29.4444 39.5469 29.905C39.3417 30.3656 39.0335 30.7724 38.6462 31.0938C39.7259 31.5253 40.7768 32.0265 41.7922 32.5942C42.4945 32.2138 43.2811 32.0174 44.079 32.0232C44.7259 31.9987 45.3699 32.1215 45.9628 32.3825C46.5557 32.6434 47.0821 33.0358 47.5026 33.5303L46.5112 34.3335C46.2262 33.9239 45.8431 33.593 45.3972 33.3714C44.9514 33.1498 44.4571 33.0446 43.96 33.0655C43.5805 33.0656 43.2042 33.1353 42.8497 33.2713C44.4438 34.2884 45.7739 35.6721 46.7301 37.3079C47.6863 38.9437 48.2411 40.7847 48.3485 42.6786L48.7517 42.3798C49.0513 42.8589 49.4679 43.253 49.9618 43.5249C50.4557 43.7968 51.0106 43.9374 51.5738 43.9333C52.8494 43.9333 54.3101 43.13 54.3101 41.5367C54.3101 39.8039 52.8627 39.3658 51.2963 38.8811C49.7299 38.3965 47.9916 37.6596 47.9916 35.4223C47.9916 33.0191 50.1198 32.01 51.9572 32.01C52.6104 31.9834 53.2611 32.1065 53.86 32.3698C54.4588 32.6332 54.9902 33.0301 55.4138 33.5303L54.4224 34.3335C54.1393 33.9268 53.7594 33.5978 53.3173 33.3763C52.8751 33.1548 52.3848 33.048 51.8911 33.0655C50.6684 33.0655 49.2474 33.8024 49.2474 35.3958C49.2474 36.9891 50.5692 37.3874 51.9307 37.8256C53.6756 38.4032 55.5857 38.9675 55.5857 41.4504C55.5857 43.9333 53.517 45.0221 51.5672 45.0221C50.4294 45.0342 49.3208 44.6599 48.4212 43.9598C48.4212 44.0793 48.4212 44.1988 48.4212 44.3183C48.4238 45.3312 48.3353 46.3422 48.1569 47.339C48.6922 45.7191 50.4172 45.0221 51.9241 45.0221C52.7754 45.0083 53.6157 45.2164 54.3629 45.6262C55.8337 43.1804 56.8963 40.5096 57.5089 37.7194C57.5089 37.8588 57.4495 37.9982 57.4164 38.1376C56.9343 37.8729 56.5361 37.4772 56.2673 36.9959C55.9984 36.5145 55.8699 35.9669 55.8963 35.4157C55.8856 34.7243 56.0972 34.048 56.4996 33.4871C56.9021 32.9261 57.4739 32.5106 58.1302 32.3021C58.1302 32.7336 58.1302 33.1585 58.0839 33.5767C57.7941 33.7801 57.5594 34.0531 57.4013 34.3707C57.2431 34.6884 57.1665 35.0408 57.1785 35.3958C57.1659 35.6544 57.2077 35.9127 57.3011 36.1541C57.3945 36.3954 57.5373 36.6143 57.7204 36.7966C57.979 35.2112 58.1248 33.6094 58.1566 32.0033C58.1566 31.0805 58.1566 31.5984 58.1566 31.3992C58.1566 31.5452 58.1566 31.6847 58.1566 31.8307C57.1374 31.5944 56.234 31.0042 55.6055 30.1644L56.6894 29.3611C57.0316 29.9157 57.531 30.355 58.1236 30.6224C57.8925 26.1932 56.5487 21.8949 54.2175 18.1282V18.1746C53.4391 18.7089 52.5167 18.9915 51.5738 18.9846C50.8281 19.0046 50.088 18.8486 49.4131 18.5292C48.7382 18.2099 48.1472 17.736 47.6876 17.1456L48.7649 16.3423C49.0645 16.8214 49.4811 17.2156 49.975 17.4875C50.4689 17.7593 51.0239 17.8999 51.5871 17.8958C52.3143 17.8952 53.0174 17.6339 53.5698 17.1589C51.9158 14.7148 49.8649 12.5671 47.5026 10.8055C47.562 10.8852 47.6215 10.9582 47.6744 11.0379L45.8635 12.5051C46.4236 12.7463 46.8965 13.1547 47.218 13.6747C47.5396 14.1948 47.6943 14.8016 47.6612 15.4129C47.6612 17.8958 45.5859 18.9846 43.6362 18.9846C42.8904 19.004 42.1506 18.8478 41.4757 18.5285C40.8009 18.2092 40.2099 17.7356 39.7499 17.1456L40.8338 16.3423C41.1335 16.8214 41.55 17.2156 42.0439 17.4875C42.5379 17.7593 43.0928 17.8999 43.656 17.8958C44.925 17.8958 46.3856 17.0925 46.3856 15.4992C46.3934 15.0192 46.2454 14.5496 45.964 14.1616C45.6826 13.7735 45.2831 13.488 44.8258 13.3482L43.504 14.4104C41.4287 11.3765 38.0117 9.35828 33.4315 9.21223V9.26534ZM31.8585 1C37.9633 0.998688 43.9314 2.81588 49.0081 6.22177C54.0847 9.62766 58.0417 14.4693 60.3789 20.1343C62.716 25.7993 63.3282 32.0332 62.138 38.0477C60.9478 44.0622 58.0087 49.5871 53.6924 53.9236C49.3761 58.2602 43.8765 61.2136 37.889 62.4104C31.9016 63.6072 25.6953 62.9937 20.0551 60.6473C14.4148 58.3009 9.59396 54.3271 6.20217 49.2285C2.81037 44.1299 1 38.1355 1 32.0033C1 23.7819 4.25094 15.8971 10.0378 10.083C15.8248 4.26895 23.6737 1.00176 31.8585 1V1ZM98.9687 16.11H95.7896V47.4718H98.9687V16.11ZM110.442 16.11H107.263V47.4718H125.002V44.6503H110.462L110.442 16.11ZM126.807 16.11H123.37L135.267 47.4851H138.624L150.58 16.11H147.196L137.044 43.369H136.959L126.807 16.11ZM158.049 32.5477H173.184V29.7594H158.049V18.9248H174.248V16.11H154.876V47.4718H174.777V44.6503H158.049V32.5477ZM184.175 18.8584H189.819C194.545 18.8584 197.678 20.3655 197.678 24.4815C197.678 28.2059 194.763 30.0714 189.687 30.0714H184.175V18.8584ZM184.175 32.8H189.462L198.12 47.4718H202L192.866 32.5477C197.413 32.0631 200.85 29.1353 200.85 24.4815C200.85 18.3672 196.349 16.11 190.176 16.11H180.996V47.4718H184.175V32.8ZM69.7757 13.7731H70.6415L73.4306 10.6794V13.7731H74.0188V10.6794L76.8013 13.7731H77.6671L74.6929 10.5997L77.5019 7.94421H76.6757L74.032 10.5533V7.96413H73.4438V10.5732L70.8001 7.96413H69.9607L72.7697 10.6197L69.7757 13.7731ZM78.4536 13.7731H79.1145L82.2936 8.83382V13.7731H82.8818V7.96413H82.2209L79.0352 12.8569V7.96413H78.447L78.4536 13.7731ZM84.2367 13.8329C85.6246 13.8329 86.0542 12.3524 86.0542 9.51762V8.48196H88.3608V13.793H88.9491V7.96413H85.4858V9.21887C85.4858 12.2196 85.1157 13.2885 84.164 13.2885C84.0443 13.2863 83.9259 13.2638 83.8137 13.2221L83.7079 13.7532C83.8802 13.8016 84.0578 13.8284 84.2367 13.8329V13.8329ZM93.1856 13.3947C92.8603 13.398 92.5378 13.3341 92.2382 13.2069C91.9385 13.0797 91.6681 12.892 91.4437 12.6554C91.2194 12.4188 91.0458 12.1384 90.9339 11.8316C90.8219 11.5248 90.774 11.1981 90.793 10.8719C90.7686 10.5413 90.8123 10.2092 90.9214 9.89629C91.0305 9.58341 91.2028 9.29651 91.4273 9.05355C91.6519 8.81058 91.924 8.61676 92.2265 8.48423C92.529 8.35169 92.8555 8.28329 93.1856 8.28329C93.5156 8.28329 93.8421 8.35169 94.1447 8.48423C94.4472 8.61676 94.7193 8.81058 94.9438 9.05355C95.1684 9.29651 95.3406 9.58341 95.4498 9.89629C95.5589 10.2092 95.6026 10.5413 95.5781 10.8719C95.5972 11.1981 95.5492 11.5248 95.4373 11.8316C95.3254 12.1384 95.1518 12.4188 94.9274 12.6554C94.7031 12.892 94.4327 13.0797 94.133 13.2069C93.8334 13.3341 93.5109 13.398 93.1856 13.3947V13.3947ZM93.1856 13.9192C93.5836 13.9256 93.9788 13.8509 94.3472 13.6995C94.7156 13.548 95.0496 13.323 95.3289 13.0381C95.6082 12.7532 95.827 12.4144 95.9721 12.042C96.1172 11.6696 96.1855 11.2716 96.173 10.8719C96.173 10.069 95.8554 9.29904 95.2902 8.73131C94.725 8.16358 93.9585 7.84463 93.1591 7.84463C92.3598 7.84463 91.5933 8.16358 91.0281 8.73131C90.4629 9.29904 90.1453 10.069 90.1453 10.8719C90.1324 11.2762 90.2023 11.6788 90.3506 12.0548C90.4989 12.4308 90.7225 12.7722 91.0075 13.0579C91.2925 13.3435 91.6329 13.5674 92.0076 13.7155C92.3822 13.8637 92.7832 13.933 93.1856 13.9192V13.9192ZM99.6428 7.40647C99.7896 7.41638 99.9368 7.39707 100.076 7.34967C100.215 7.30227 100.344 7.22769 100.455 7.13023C100.565 7.03277 100.655 6.91434 100.72 6.78174C100.785 6.64914 100.823 6.50498 100.832 6.35753L100.456 6.28451C100.424 6.47816 100.326 6.65456 100.178 6.78285C100.031 6.91114 99.8426 6.98317 99.6473 6.98633C99.4519 6.9895 99.2617 6.9236 99.1099 6.80016C98.9581 6.67672 98.8543 6.5036 98.8166 6.31106L98.4465 6.38409C98.4582 6.53013 98.4984 6.67243 98.5649 6.80286C98.6313 6.93329 98.7227 7.04929 98.8338 7.14423C98.9449 7.23918 99.0735 7.3112 99.2123 7.3562C99.3511 7.40119 99.4974 7.41828 99.6428 7.40647V7.40647ZM97.4221 13.7731H98.083L101.269 8.83382V13.7731H101.857V7.96413H101.196L98.0103 12.8569V7.96413H97.4221V13.7731ZM105.446 13.7731H106.034V10.6794L108.929 13.7731H109.788L106.748 10.5997L109.662 7.94421H108.797L106.041 10.5533V7.96413H105.426L105.446 13.7731ZM113.079 13.3947C112.754 13.398 112.432 13.3341 112.132 13.2069C111.832 13.0797 111.562 12.892 111.338 12.6554C111.113 12.4188 110.94 12.1384 110.828 11.8316C110.716 11.5248 110.668 11.1981 110.687 10.8719C110.662 10.5413 110.706 10.2092 110.815 9.89629C110.924 9.58341 111.097 9.29651 111.321 9.05355C111.546 8.81058 111.818 8.61676 112.12 8.48423C112.423 8.35169 112.749 8.28329 113.079 8.28329C113.409 8.28329 113.736 8.35169 114.038 8.48423C114.341 8.61676 114.613 8.81058 114.838 9.05355C115.062 9.29651 115.234 9.58341 115.344 9.89629C115.453 10.2092 115.496 10.5413 115.472 10.8719C115.491 11.1981 115.443 11.5248 115.331 11.8316C115.219 12.1384 115.046 12.4188 114.821 12.6554C114.597 12.892 114.326 13.0797 114.027 13.2069C113.727 13.3341 113.405 13.398 113.079 13.3947V13.3947ZM113.079 13.9192C113.48 13.9293 113.878 13.8573 114.249 13.7075C114.621 13.5577 114.958 13.3332 115.24 13.0479C115.522 12.7627 115.743 12.4225 115.89 12.0484C116.037 11.6742 116.106 11.2739 116.093 10.8719C116.093 10.069 115.776 9.29904 115.21 8.73131C114.645 8.16358 113.879 7.84463 113.079 7.84463C112.28 7.84463 111.513 8.16358 110.948 8.73131C110.383 9.29904 110.066 10.069 110.066 10.8719C110.053 11.2739 110.122 11.6742 110.269 12.0484C110.415 12.4225 110.637 12.7627 110.919 13.0479C111.201 13.3332 111.538 13.5577 111.91 13.7075C112.281 13.8573 112.679 13.9293 113.079 13.9192V13.9192ZM117.316 13.7731H117.904V8.7276L119.999 13.7731H120.31L122.398 8.7276V13.7731H122.987V7.96413H122.088L120.158 12.7706L118.175 7.96413H117.323L117.316 13.7731ZM124.546 13.7731H125.135V8.49524H128.287V13.8063H128.875V7.96413H124.546V13.7731ZM130.204 13.8329C131.592 13.8329 132.028 12.3524 132.028 9.51762V8.48196H134.328V13.793H134.916V7.96413H131.453V9.21887C131.453 12.2196 131.09 13.2885 130.131 13.2885C130.011 13.2869 129.893 13.2645 129.781 13.2221L129.669 13.7532C129.843 13.8022 130.023 13.8289 130.204 13.8329V13.8329ZM136.45 13.7731H140.131V13.2486H137.038V11.0114H139.84V10.4935H137.038V8.50187H140.038V7.97077H136.45V13.7731ZM141.288 13.7731H141.876V10.6794L144.764 13.7731H145.63L142.55 10.5997L145.465 7.94421H144.625L141.876 10.5533V7.96413H141.288V13.7731ZM148.921 13.9192C149.343 13.9339 149.761 13.8426 150.139 13.6537C150.516 13.4647 150.84 13.184 151.082 12.837L150.626 12.5449C150.437 12.8191 150.183 13.0412 149.886 13.1909C149.589 13.3405 149.26 13.4129 148.928 13.4013C148.602 13.4036 148.279 13.3389 147.979 13.211C147.679 13.0832 147.408 12.895 147.184 12.658C146.959 12.421 146.785 12.1402 146.672 11.833C146.559 11.5259 146.511 11.1988 146.529 10.8719C146.51 10.5446 146.558 10.2167 146.67 9.90878C146.782 9.60083 146.956 9.31927 147.181 9.08155C147.406 8.84383 147.677 8.655 147.977 8.52674C148.278 8.39848 148.601 8.33353 148.928 8.3359C149.23 8.32936 149.528 8.39521 149.8 8.52799C150.071 8.66078 150.307 8.85666 150.488 9.09937L150.977 8.74087C150.728 8.43858 150.413 8.19805 150.056 8.038C149.7 7.87794 149.311 7.80268 148.921 7.81808C148.52 7.80789 148.122 7.88012 147.75 8.03033C147.378 8.18054 147.04 8.40556 146.758 8.69156C146.476 8.97756 146.255 9.31851 146.108 9.69347C145.962 10.0684 145.894 10.4695 145.907 10.8719C145.893 11.2744 145.961 11.6755 146.107 12.0506C146.253 12.4256 146.474 12.7666 146.756 13.0523C147.039 13.3379 147.377 13.5623 147.749 13.7114C148.122 13.8605 148.521 13.9312 148.921 13.9192V13.9192ZM88.5525 19.124C87.0522 17.0792 83.926 15.3067 79.7292 15.3067C75.1027 15.3067 69.7559 17.8825 69.7559 23.9371C69.7559 29.6133 73.9924 31.4324 78.1364 32.7137C82.1019 33.9551 85.77 35.0638 85.77 39.4521C85.77 43.4885 82.0689 45.5266 78.8435 45.5266C77.4117 45.5386 76.0011 45.178 74.7491 44.48C73.497 43.782 72.4463 42.7703 71.699 41.5433L68.9627 43.5881C71.2099 46.6884 75.0036 48.2353 78.8039 48.2353C83.741 48.2353 88.9953 45.4868 88.9953 39.1932C88.9953 32.8996 84.1375 31.4789 79.7424 30.0183C76.2527 28.8632 72.9481 27.8408 72.9481 23.8575C72.9481 19.8742 76.5171 17.9622 79.6102 17.9622C80.8595 17.9051 82.1031 18.1631 83.2276 18.7128C84.352 19.2625 85.3215 20.0863 86.0476 21.109L88.5525 19.124Z" stroke="#191919" stroke-opacity="0.64" stroke-width="0.4" mask="url(#path-1-outside-1_2687_3447)"/>
</svg>
