<svg width="206" height="60" viewBox="0 0 206 60" fill="none" xmlns="http://www.w3.org/2000/svg">
<path d="M49.5377 44.9453C57.3957 48.2742 58.618 55.112 58.618 55.112C45.3468 61.6798 28.7577 50.3435 28.7577 50.3435C29.9801 51.5132 29.6308 52.5928 29.3689 53.4025L29.0197 53.9424C25.0907 57.2713 14.4388 55.8317 14.4388 55.8317C14.4388 55.8317 9.72396 51.7831 11.9067 46.9247C12.0814 46.4748 12.6052 45.7551 12.8672 45.4851C5.53305 51.6031 14.5261 59.6105 14.5261 59.6105C28.4958 61.3199 30.0674 55.6518 30.1547 53.4925C48.1407 65.0087 59.9277 56.2816 59.9277 56.2816C59.8404 47.6444 49.5377 44.9453 49.5377 44.9453Z" fill="#545859"/>
<path d="M19.9758 44.9457C-1.92585 29.9502 2.4728 19.8327 2.4728 19.8327C3.93901 19.3811 6.59654 19.7424 9.98717 20.6458L16.6768 23.2655C16.6768 23.2655 7.87946 16.671 0.0901886 19.3811C0.0901886 19.3811 -2.20076 31.9376 16.3102 44.6747C18.2346 44.4037 19.9758 44.9457 19.9758 44.9457Z" fill="#545859"/>
<path d="M9.91692 22.4727C9.91692 22.4727 22.1371 29.4478 24.6505 41.1626C23.0038 37.1384 17.977 26.7651 7.49023 23.0986C7.49023 23.0986 19.9704 31.1469 23.7838 41.7885C23.7838 41.7885 23.7838 41.7885 23.6971 41.7885C19.8837 38.5692 9.65694 29.7161 8.09692 26.0497C8.70359 27.5699 11.9103 34.7239 22.2238 41.9674C19.7971 40.4472 12.517 36.3336 8.61691 29.8055C8.61691 29.8055 10.6103 37.1384 20.2304 42.0568C20.6638 42.4145 21.6171 43.3088 22.5704 44.5607C16.2437 44.7396 14.1637 47.4223 13.6437 48.4954C14.857 46.3492 20.1437 45.8127 23.0904 45.455V45.5444C13.7303 47.5118 14.4237 52.8773 14.4237 52.8773C17.0237 48.1377 21.0104 46.5281 23.2638 45.9915C23.6105 46.7964 23.9571 47.6012 24.0438 48.5849C22.3971 51.983 16.157 52.4302 16.157 52.4302C23.0904 52.9667 24.8238 49.658 25.1705 47.8695C25.4305 53.5927 18.1504 53.4138 18.1504 53.4138C25.7771 54.3975 26.5572 48.4954 26.5572 46.5281C29.2439 48.5849 40.0773 56.186 47.8774 54.7552C47.8774 54.7552 36.004 53.7715 27.5105 45.9021C27.5972 45.9021 27.6838 45.8127 27.7705 45.8127C29.6772 47.0646 42.5907 55.0235 53.6842 53.1456C53.6842 53.1456 39.4707 52.3407 29.4172 45.9021C34.6173 47.0646 50.2175 50.6417 53.5975 52.9667C53.5975 52.9667 45.5374 46.9752 31.3239 45.455C31.2372 45.3655 31.1506 45.3656 31.0639 45.2761C34.7906 45.3656 43.1107 45.455 49.6975 48.4954C49.6975 48.4954 41.1173 43.6665 30.3705 44.5607C30.2839 44.4713 30.1972 44.3819 30.1105 44.203C33.7506 42.1462 41.464 36.6913 41.984 27.5699C41.984 27.5699 39.904 38.5692 29.4172 42.8616C29.3305 42.6828 29.2439 42.5039 29.2439 42.3251C32.1906 40.7154 39.5573 35.5288 40.8573 25.1554C40.8573 25.1554 38.1706 35.9759 28.9838 41.252C28.8972 40.626 28.8105 39.9106 28.8972 39.1952C31.6706 34.5451 36.8706 26.2285 39.384 24.7083C39.384 24.7083 32.9706 28.1065 27.7705 39.6423C27.5972 39.8212 27.4238 40 27.2505 40.1789C28.4638 36.5124 30.8905 29.5373 35.5706 25.4237C35.5706 25.4237 28.3772 30.2527 26.0371 40.8943C24.5638 36.3336 19.7104 25.2448 9.91692 22.4727Z" fill="#545859"/>
<path d="M15.7759 5.9158C11.2805 4.46406 8.45984 6.91388 8.45984 6.91388C11.8094 14.5355 22.7394 15.8058 22.7394 15.8058C21.8579 15.8058 21.5935 16.4409 21.4172 16.8946V17.2575C21.9461 20.0703 26.8822 23.4274 26.8822 23.4274C26.8822 23.4274 30.3198 23.4274 31.025 20.6147C31.1131 20.3425 31.1131 19.8888 31.1131 19.6166C32.0827 24.8792 25.56 24.9699 25.56 24.9699C19.0372 20.6147 20.3594 17.6205 21.0646 16.6224C9.51757 14.8984 7.49023 6.91388 7.49023 6.91388C10.4872 3.28452 15.6877 5.9158 15.7759 5.9158Z" fill="#545859"/>
<path d="M28.7148 16.1615C42.141 17.4412 43.8405 11.9812 43.8405 11.9812C43.4156 11.2987 42.3109 10.6162 40.6964 9.84833L37.2124 8.73926C37.2124 8.73926 42.8208 8.99519 44.9451 12.6637C44.9451 12.6637 41.7161 18.3797 30.2444 17.3559C29.5646 16.5881 28.7148 16.1615 28.7148 16.1615Z" fill="#545859"/>
<path d="M40.3838 10.5677C40.3838 10.5677 32.5808 9.05804 27.2275 12.9654C29.4051 11.8998 35.3028 9.41326 41.2004 11.6334C41.2004 11.6334 32.853 10.4789 27.409 13.4983C30.2217 13.4983 37.934 13.4983 39.8394 12.5214C39.0228 12.9654 35.0306 14.7415 27.9534 14.0311C29.5866 14.2975 34.214 15.1855 38.2969 13.8535C38.2969 13.8535 34.7584 16.1624 28.8607 14.7415C28.5885 14.7415 27.7719 14.7415 26.9553 14.9191C29.6773 17.2281 29.5866 19.1818 29.4958 19.8034C29.768 18.4713 27.5905 16.34 26.4109 15.0967C26.4109 15.0967 26.4109 15.0967 26.3202 15.0967C29.768 19.2706 27.4997 21.2242 27.4997 21.2242C28.0441 18.2937 26.8646 16.1624 26.048 15.1855C25.5943 15.3632 25.1407 15.6296 24.7778 15.9848C24.2334 17.9385 26.8646 20.425 26.8646 20.425C23.5982 18.1161 24.0519 16.1624 24.5055 15.2744C22.3279 17.5833 25.5943 20.0698 25.5943 20.0698C21.8743 17.7609 23.689 15.0079 24.3241 14.2087C22.4187 14.1199 14.9786 13.4095 11.9844 9.94609C11.9844 9.94609 17.5191 13.7647 24.0519 13.5871C24.0519 13.4983 23.9612 13.4983 23.9612 13.4095C22.6909 13.2318 14.162 11.8998 9.98828 7.10435C9.98828 7.10435 16.5211 11.8998 23.2353 12.8766C20.5133 11.4558 12.4381 7.37076 10.079 7.10435C10.079 7.10435 15.7045 7.54837 22.6002 11.9886C22.6002 11.9886 22.6909 11.9886 22.7816 11.9886C21.1484 10.6565 17.4284 7.72598 13.4361 6.57152C13.4361 6.57152 18.9708 7.63717 23.326 11.8998C23.4168 11.8998 23.5075 11.8998 23.5075 11.811C22.6002 9.59088 21.2392 4.61783 24.2333 0.621628C24.2333 0.621628 21.2392 5.94989 24.2333 11.5446C24.3241 11.4558 24.4148 11.4558 24.5055 11.367C23.7797 9.59088 22.4187 4.79544 25.5943 0C25.5943 0 22.8724 5.50587 25.0499 10.9229C25.3221 10.7453 25.5943 10.3901 25.8665 10.1237C26.3202 7.19315 27.0461 1.86489 26.4109 0.266409C26.4109 0.266409 28.0441 3.9962 26.1387 10.6565C26.1387 10.8341 26.1387 10.9229 26.2295 11.1005C27.0461 9.14685 28.4071 5.32826 27.8627 1.95369C27.8627 1.95369 29.3144 6.57153 26.5017 11.811C29.0422 11.0117 35.1213 8.17 40.3838 10.5677Z" fill="#545859"/>
<path d="M63.475 25.1038C66.1721 22.4456 69.0553 23.0873 69.0553 23.0873C69.4273 29.5952 62.0799 34.4532 62.0799 34.4532C62.731 34.1782 63.103 34.4532 63.382 34.7282L63.568 35.0031C64.219 37.203 61.8009 41.2361 61.8009 41.2361C61.8009 41.2361 59.3828 42.5193 57.8017 40.7778C57.6157 40.5945 57.4297 40.3195 57.4297 40.1362C58.6387 44.0776 63.382 41.7861 63.382 41.7861C66.4511 36.3781 64.4981 34.8198 63.568 34.4532C71.2874 29.0452 69.7993 22.8123 69.7993 22.8123C66.3581 21.3457 63.475 25.1038 63.475 25.1038Z" fill="#545859"/>
<path d="M58.6786 37.0359C48.9232 42.75 45.5136 39.6332 45.5136 39.6332C45.6083 39.0272 46.1766 38.0748 47.1237 37.0359L49.3021 34.958C49.3021 34.958 45.1347 37.209 44.9453 40.4124C44.9453 40.4124 49.681 43.1829 57.921 38.3345C58.2051 37.5553 58.6786 37.0359 58.6786 37.0359Z" fill="#545859"/>
<path d="M47.6283 37.243C47.6283 37.243 52.5298 33.688 57.6162 34.4497C55.6741 34.4497 50.6802 34.7883 47.4434 38.174C47.4434 38.174 52.8072 34.7037 57.7087 34.873C55.7666 35.804 50.4027 38.3433 48.7381 38.3433C49.4779 38.3433 52.8997 38.174 57.5237 35.3808C56.5064 36.058 53.5471 38.174 50.3103 38.6819C50.3103 38.6819 53.6395 39.0205 57.2463 36.1426C57.4312 36.058 57.9861 35.804 58.6335 35.6348C57.6162 38.0894 58.356 39.2744 58.7259 39.613C58.0786 38.8512 58.726 36.7351 59.0959 35.5501C58.2636 39.359 60.5755 39.9515 60.5755 39.9515C59.0959 38.2587 59.1884 36.4812 59.2808 35.5501C59.6508 35.5501 60.0207 35.5501 60.4831 35.6348C61.5929 36.7351 60.668 39.1898 60.668 39.1898C62.0552 36.6505 61.038 35.4655 60.3906 35.0422C62.7026 35.804 61.4079 38.5126 61.4079 38.5126C63.0725 35.804 60.853 34.619 60.1131 34.2805C61.4079 33.5187 66.3093 30.6408 67.0492 27.4244C67.0492 27.4244 64.6447 31.7412 60.0207 33.7726V33.688C60.853 33.1801 66.2169 29.4558 67.4191 24.9697C67.4191 24.9697 64.6447 30.2176 60.2981 33.0955C61.6853 31.318 65.7545 25.9008 67.2341 24.9697C67.2341 24.9697 63.4425 27.0858 60.3906 32.249C60.3906 32.249 60.2981 32.249 60.2981 32.3337C60.9455 30.8947 62.4252 27.7629 64.7372 25.7315C64.7372 25.7315 61.3154 28.2708 59.8357 32.4183C59.7432 32.4183 59.7432 32.4183 59.6507 32.503C59.4658 30.8101 58.541 27.0858 55.0267 25.4776C55.0267 25.4776 59.0959 27.9322 59.0034 32.5876C58.9109 32.5876 58.8184 32.5876 58.7259 32.5876C58.541 31.2333 57.7087 27.5937 53.8245 25.5622C53.8245 25.5622 57.7087 28.1862 58.2635 32.503C57.9861 32.4183 57.7087 32.3337 57.4312 32.249C56.044 30.4715 53.5471 27.2551 53.3621 26.0701C53.3621 26.0701 53.6395 29.0326 57.3387 32.7569C57.3387 32.8415 57.4312 32.9262 57.4312 33.0108C56.1365 31.9951 53.732 30.0483 52.8997 27.5937C52.8997 27.5937 53.6395 31.064 57.5237 33.5187C55.7666 33.7726 50.4952 33.9419 47.6283 37.243Z" fill="#545859"/>
<path d="M196.827 21.2236H198.252C198.252 22.3666 198.786 22.8941 199.766 22.8941C200.745 22.8941 201.28 22.3666 201.28 21.2236H202.704C202.704 23.07 201.725 24.0371 199.766 24.0371C197.806 24.0371 196.827 23.07 196.827 21.2236ZM204.129 39.863V27.554L195.402 39.863H193.442V24.9163H195.313V37.2253L204.04 24.9163H206V39.863H204.129ZM187.921 24.9163H189.88V39.863H187.921V24.9163ZM176.878 24.9163V38.2804H181.152C182.845 38.2804 183.646 37.4012 183.646 35.6428C183.646 33.7964 182.577 32.8293 180.529 32.8293H178.57V31.2467H180.707C184.091 31.2467 185.783 32.6534 185.783 35.4669C185.783 38.3683 184.27 39.7751 181.331 39.7751H174.918V24.8284H176.878V24.9163ZM166.903 38.2804C168.684 38.2804 169.575 37.4012 169.575 35.5548C169.575 33.7964 168.328 32.9172 165.924 32.9172H165.033V31.6863C167.972 31.3346 169.397 30.2795 169.397 28.609C169.397 27.2023 168.595 26.4989 166.992 26.4989H162.718V38.2804H166.903ZM160.758 39.863V24.9163H167.26C170.109 24.9163 171.534 26.0593 171.534 28.4332C171.534 30.1037 170.555 31.3346 168.684 32.1259C170.644 32.4776 171.712 33.6206 171.712 35.5548C171.712 38.5442 170.109 39.9509 166.992 39.9509H160.758V39.863ZM157.641 24.9163V26.4989H149.715V31.5104H157.285V33.093H149.715V38.2804H157.819V39.863H147.756V24.9163H157.641V24.9163ZM131.637 39.863V24.9163H133.596V31.4225H142.234V24.9163H144.194V39.863H142.234V33.0051H133.596V39.863H131.637ZM128.52 24.9163V26.4989H120.593V31.5104H128.163V33.093H120.593V38.2804H128.698V39.863H118.634V24.9163H128.52V24.9163ZM105.276 39.863V24.9163H111.421C114.538 24.9163 116.052 26.2351 116.052 28.9607C116.052 31.8621 113.914 33.6206 109.728 34.236L109.283 32.5655C112.4 32.1259 113.914 30.895 113.914 28.9607C113.914 27.2902 113.024 26.4989 111.153 26.4989H107.146V39.863H105.276V39.863ZM99.754 39.863V27.554L91.0264 39.863H89.0671V24.9163H90.9373V37.2253L99.6649 24.9163H101.624V39.863H99.754ZM85.861 39.3355C84.5251 39.7751 83.1002 39.9509 81.5863 39.9509C76.3319 39.9509 73.6602 37.4012 73.6602 32.1259C73.6602 27.2023 76.3319 24.7405 81.5863 24.7405C83.1002 24.7405 84.5251 24.9163 85.861 25.3559V27.0264C84.5251 26.4989 83.1893 26.3231 81.8534 26.3231C77.7568 26.3231 75.6194 28.2573 75.6194 32.1259C75.6194 36.2582 77.6677 38.3683 81.8534 38.3683C83.1893 38.3683 84.6142 38.1046 85.861 37.665V39.3355Z" fill="#545859"/>
<path d="M120.098 57.4301H118.167V42.4482H120.098V57.4301ZM127.56 57.4301C125.189 53.6405 123.697 51.5255 123.083 50.9967C122.468 50.4679 121.854 50.2035 121.327 50.2035V48.7935C122.468 48.7935 123.521 47.7359 124.663 45.6209C125.804 43.5058 127.033 42.4482 128.35 42.4482H129.491V44.1227H128.701C127.911 44.1227 127.121 44.9158 126.155 46.5903C125.189 48.2647 124.399 49.2341 123.522 49.4985C124.048 49.5866 124.575 50.0273 125.277 50.6442C125.892 51.3492 127.472 53.5524 129.842 57.4301H127.56V57.4301ZM104.999 57.4301V42.4482H111.056C114.129 42.4482 115.621 43.7702 115.621 46.5022C115.621 49.4104 113.514 51.173 109.388 51.7899L108.949 50.1154C112.022 49.6748 113.514 48.441 113.514 46.5022C113.514 44.8277 112.636 44.0346 110.793 44.0346H106.843V57.4301H104.999V57.4301ZM90.0758 57.4301H88.0567L94.3772 42.4482H96.484L102.804 57.4301H100.698L98.7664 52.7593H93.8505L94.3772 51.1729H98.1519L95.3428 44.3871L90.0758 57.4301ZM73.6602 57.4301V42.4482H86.0377V57.4301H84.1065V44.0346H75.5914V57.4301H73.6602Z" fill="#545859"/>
<path d="M175.127 17.047C174.507 17.22 173.888 17.3066 173.179 17.3066C170.7 17.3066 169.46 16.0952 169.46 13.7589C169.46 11.5091 170.7 10.3843 173.179 10.3843C173.888 10.3843 174.507 10.4708 175.127 10.6439V11.4226C174.507 11.163 173.888 11.0765 173.268 11.0765C171.319 11.0765 170.345 11.9418 170.345 13.7589C170.345 15.6625 171.319 16.6143 173.268 16.6143C173.888 16.6143 174.507 16.5278 175.127 16.2682V17.047ZM164.235 17.3066H163.35V10.3843H164.235V17.3066ZM167.689 17.3066C166.538 15.576 165.829 14.5377 165.564 14.3646C165.298 14.105 165.032 14.0185 164.767 14.0185V13.4128C165.298 13.4128 165.829 12.8936 166.361 11.9418C166.892 10.99 167.512 10.4708 168.132 10.4708H168.663V11.2496H168.309C167.955 11.2496 167.512 11.5957 167.158 12.3744C166.715 13.1532 166.272 13.5858 165.918 13.6724C166.183 13.6724 166.449 13.9319 166.715 14.1915C166.98 14.5376 167.777 15.576 168.929 17.3066H167.689V17.3066ZM161.844 10.4708V11.163H158.125V13.4993H161.667V14.1915H158.125V16.6143H161.933V17.3066H157.24V10.3843H161.844V10.4708ZM148.827 16.6143C150.155 16.6143 150.864 15.576 150.864 13.4993V10.4708H155.469V17.3931H154.583V11.2496H151.749V13.5858C151.749 16.1817 150.775 17.4796 148.827 17.4796V16.6143ZM142.186 17.3066V10.3843H148.03V17.3066H147.145V11.163H143.16V17.3066H142.186ZM133.065 17.3066V10.3843H134.216L136.784 16.0952L139.352 10.3843H140.503V17.3066H139.706V11.6822L137.227 17.3066H136.518L133.95 11.6822V17.3066H133.065ZM124.652 13.8454C124.652 11.5091 125.803 10.2977 128.194 10.2977C130.497 10.2977 131.648 11.5091 131.648 13.8454C131.648 16.1817 130.497 17.3066 128.194 17.3066C125.803 17.3931 124.652 16.1817 124.652 13.8454ZM125.626 13.8454C125.626 15.6625 126.512 16.6143 128.194 16.6143C129.877 16.6143 130.762 15.6625 130.762 13.8454C130.762 12.0283 129.877 11.0765 128.194 11.0765C126.423 11.0765 125.626 12.0283 125.626 13.8454ZM119.339 17.3066H118.453V10.3843H119.339V17.3066ZM122.793 17.3066C121.641 15.576 120.933 14.5377 120.667 14.3646C120.402 14.105 120.136 14.0185 119.87 14.0185V13.4128C120.402 13.4128 120.933 12.8936 121.464 11.9418C121.996 10.99 122.615 10.4708 123.235 10.4708H123.767V11.2496H123.412C123.058 11.2496 122.704 11.5957 122.261 12.3744C121.819 13.1532 121.376 13.5858 121.022 13.6724C121.287 13.6724 121.553 13.9319 121.819 14.1915C122.084 14.5376 122.881 15.576 124.032 17.3066H122.793V17.3066ZM109.952 8.74023H110.661C110.661 9.25941 110.926 9.51899 111.369 9.51899C111.812 9.51899 112.078 9.25941 112.078 8.74023H112.786C112.786 9.60552 112.343 10.0382 111.458 10.0382C110.395 10.0382 109.952 9.60552 109.952 8.74023ZM113.406 17.3066V11.5957L109.333 17.3066H108.447V10.3843H109.333V16.0952L113.406 10.3843H114.292V17.3066H113.406ZM99.946 13.8454C99.946 11.5091 101.097 10.2977 103.488 10.2977C105.79 10.2977 106.942 11.5091 106.942 13.8454C106.942 16.1817 105.79 17.3066 103.488 17.3066C101.097 17.3931 99.946 16.1817 99.946 13.8454ZM100.92 13.8454C100.92 15.6625 101.806 16.6143 103.488 16.6143C105.171 16.6143 106.056 15.6625 106.056 13.8454C106.056 12.0283 105.171 11.0765 103.488 11.0765C101.717 11.0765 100.92 12.0283 100.92 13.8454ZM91.7991 16.6143C93.1274 16.6143 93.8358 15.576 93.8358 13.4993V10.4708H98.4405V17.3931H97.555V11.2496H94.7213V13.5858C94.7213 16.1817 93.7473 17.4796 91.7991 17.4796V16.6143ZM90.1166 17.3066V11.5957L86.0432 17.3066H85.1576V10.3843H86.0432V16.0952L90.1166 10.3843H91.0021V17.3066H90.1166ZM74 17.3066C75.1512 15.576 75.8596 14.5376 76.2138 14.1915C76.4795 13.8454 76.7451 13.6724 77.0108 13.6724C76.6566 13.5858 76.2138 13.0667 75.7711 12.3744C75.3283 11.5957 74.9741 11.2496 74.6199 11.2496H74.2656V10.4708H74.797C75.4168 10.4708 76.0367 10.99 76.568 11.9418C77.0993 12.8936 77.6306 13.4128 78.162 13.4128V14.0185C77.8963 14.0185 77.6307 14.105 77.365 14.3646C77.0993 14.6242 76.3909 15.576 75.2397 17.3066H74V17.3066ZM79.5788 17.3066H78.6933V10.3843H79.5788V17.3066ZM83.0324 17.3066C81.8812 15.576 81.1728 14.5377 80.9071 14.3646C80.6414 14.105 80.3758 14.0185 80.1101 14.0185V13.4128C80.6415 13.4128 81.1728 12.8936 81.7041 11.9418C82.2354 10.99 82.8553 10.4708 83.4751 10.4708H84.0065V11.2496H83.6522C83.298 11.2496 82.8553 11.5957 82.501 12.3744C82.0583 13.1532 81.6155 13.5858 81.2613 13.6724C81.527 13.6724 81.7926 13.9319 82.0583 14.1915C82.3239 14.5376 83.1209 15.576 84.2721 17.3066H83.0324V17.3066Z" fill="#545859"/>
</svg>
