<svg width="32" height="25" viewBox="0 0 32 25" fill="none" xmlns="http://www.w3.org/2000/svg">
	<path d="M25.2007 20.3483C24.2383 18.8372 23.7297 17.0784 23.7297 15.2621V10.1049C23.7297 7.98834 22.941 5.99987 21.5088 4.50579C20.2937 3.23802 18.7399 2.45699 17.0616 2.25381V0.303223H15.2495V2.26102C11.525 2.74756 8.62849 6.11819 8.62849 10.1804V15.2622C8.62849 17.0784 8.11983 18.8372 7.15746 20.3484L5.42542 23.0683H13.6167C13.9907 24.1723 14.9979 24.9654 16.1791 24.9654C17.3603 24.9654 18.3674 24.1723 18.7414 23.0683H26.9327L25.2007 20.3483ZM8.80753 21.1712C9.87676 19.3999 10.4406 17.3628 10.4406 15.2621V10.1803C10.4406 6.83757 13.0058 4.10879 16.1587 4.09741C16.1655 4.09741 16.1723 4.09741 16.1791 4.09741C17.7083 4.09741 19.1462 4.71921 20.2298 5.84956C21.3181 6.98503 21.9175 8.49626 21.9175 10.1049V15.2622C21.9175 17.3629 22.4813 19.3999 23.5506 21.1712H8.80753Z" fill="#29315B"/>
	<path d="M29.0773 6.15063L27.7959 7.49207C29.108 8.86563 29.8305 10.6918 29.8305 12.6343C29.8305 14.5342 29.135 16.3316 27.8723 17.6954L29.1734 19.0158C30.7657 17.2961 31.6427 15.0298 31.6427 12.6343C31.6427 10.1851 30.7316 7.88249 29.0773 6.15063Z" fill="#29315B"/>
	<path d="M26.5146 8.8335L25.2332 10.175C25.8607 10.8318 26.2062 11.7052 26.2062 12.6343C26.2062 13.5488 25.8699 14.4125 25.2591 15.0661L26.5545 16.3927C27.4986 15.3825 28.0184 14.0477 28.0184 12.6343C28.0184 11.1985 27.4843 9.84869 26.5146 8.8335Z" fill="#29315B"/>
	<path d="M4.56213 7.49207L3.28079 6.15063C1.62652 7.88249 0.715454 10.1851 0.715454 12.6343C0.715454 15.0298 1.59239 17.2961 3.18463 19.0158L4.48578 17.6954C3.22305 16.3316 2.52756 14.5342 2.52756 12.6343C2.52756 10.6918 3.25011 8.86563 4.56213 7.49207Z" fill="#29315B"/>
	<path d="M7.12488 10.175L5.84353 8.8335C4.87381 9.84869 4.33972 11.1985 4.33972 12.6343C4.33972 14.0477 4.85956 15.3825 5.80355 16.3928L7.0989 15.0661C6.48816 14.4125 6.15183 13.5489 6.15183 12.6343C6.15183 11.7053 6.4974 10.8319 7.12488 10.175Z" fill="#29315B"/>
</svg>