<svg width="21" height="18" viewBox="0 0 21 18" fill="none" xmlns="http://www.w3.org/2000/svg">
	<path d="M16.8522 17.5318L15.6361 16.3147C19.6108 12.339 19.6099 5.87276 15.6342 1.89801L16.8522 0.681885C21.4985 5.3263 21.4985 12.8873 16.8522 17.5318ZM13.5311 14.2107L14.7472 15.4296C18.2329 11.943 18.2329 6.27061 14.7472 2.78589L13.5311 4.00201C16.3452 6.81518 16.3452 11.3975 13.5311 14.2107ZM12.5774 13.257C14.8667 10.9686 14.8667 7.24313 12.5765 4.95573L11.3603 6.17185C12.98 7.79147 12.98 10.4241 11.3603 12.0399L12.5774 13.257ZM5.03894 1.89801L3.82093 0.681885C-0.824425 5.3263 -0.824425 12.8873 3.82093 17.5318L5.03706 16.3147C1.06231 12.3409 1.06325 5.8737 5.03894 1.89801ZM5.92399 15.4296L7.14106 14.2107C4.32694 11.3975 4.32694 6.81801 7.14106 4.00201L5.92399 2.78495C2.43739 6.26967 2.43739 11.943 5.92399 15.4296ZM8.09477 13.257L9.31184 12.0399C7.6941 10.4212 7.6941 7.78865 9.31278 6.17185L8.09571 4.95573C5.80642 7.24595 5.80642 10.9696 8.09477 13.257Z" fill="#7ABBFD"/>
</svg>