<svg width="37" height="36" viewBox="0 0 37 36" fill="none" xmlns="http://www.w3.org/2000/svg">
	<path d="M18.5753 0.421387C8.7704 0.421387 0.793457 8.39844 0.793457 18.2034C0.793457 28.0083 8.7704 35.9851 18.5753 35.9851C28.3802 35.9851 36.3572 28.0083 36.3572 18.2034C36.3572 8.39844 28.3802 0.421387 18.5753 0.421387ZM18.5753 32.752C10.553 32.752 4.02652 26.2256 4.02652 18.2034C4.02652 10.1812 10.553 3.65445 18.5753 3.65445C26.5976 3.65445 33.1241 10.1812 33.1241 18.2034C33.1241 26.2256 26.5975 32.752 18.5753 32.752Z" fill="#FF4C60"/>
	<path d="M18.5754 7.96484C17.3871 7.96484 16.4204 8.93218 16.4204 10.1212C16.4204 11.3091 17.3871 12.2756 18.5754 12.2756C19.7636 12.2756 20.7303 11.3091 20.7303 10.1212C20.7303 8.93218 19.7636 7.96484 18.5754 7.96484Z" fill="#FF4C60"/>
	<path d="M18.5753 15.5088C17.6825 15.5088 16.9587 16.2326 16.9587 17.1253V26.8245C16.9587 27.7173 17.6825 28.4411 18.5753 28.4411C19.468 28.4411 20.1918 27.7173 20.1918 26.8245V17.1253C20.1918 16.2326 19.468 15.5088 18.5753 15.5088Z" fill="#FF4C60"/>
</svg>