<svg width="44" height="36" viewBox="0 0 44 36" fill="none" xmlns="http://www.w3.org/2000/svg">
	<rect x="0.5" y="1" width="42.035" height="34" rx="2.5" fill="#29315B" stroke="#F2F3F5"/>
	<path d="M25.1888 18.7343H10.992C10.5867 18.7343 10.2577 18.4053 10.2577 17.9999C10.2577 17.5946 10.5867 17.2656 10.992 17.2656H25.1888C25.5942 17.2656 25.9232 17.5946 25.9232 17.9999C25.9232 18.4053 25.5942 18.7343 25.1888 18.7343Z" fill="white"/>
	<path d="M21.2729 22.6503C21.0848 22.6503 20.897 22.5789 20.7539 22.4349C20.467 22.1481 20.467 21.6831 20.7539 21.396L24.1514 17.9987L20.7539 14.6012C20.467 14.3144 20.467 13.8491 20.7539 13.5623C21.0409 13.2755 21.506 13.2755 21.7928 13.5623L25.7091 17.4788C25.996 17.7657 25.996 18.2307 25.7091 18.5175L21.7928 22.4339C21.6488 22.5789 21.461 22.6503 21.2729 22.6503Z" fill="white"/>
	<path d="M22.007 28.7697C17.551 28.7697 13.6171 26.089 11.983 21.9394C11.8342 21.5635 12.0201 21.1366 12.3971 20.9878C12.7731 20.841 13.201 21.024 13.3498 21.403C14.7607 24.9855 18.1591 27.3011 22.007 27.3011C27.1354 27.3011 31.3085 23.128 31.3085 17.9996C31.3085 12.8712 27.1354 8.69814 22.007 8.69814C18.1591 8.69814 14.7607 11.0137 13.3498 14.5962C13.2 14.9752 12.7731 15.1582 12.3971 15.0114C12.0201 14.8626 11.8342 14.4357 11.983 14.0598C13.6171 9.91024 17.551 7.22949 22.007 7.22949C27.9452 7.22949 32.7771 12.0614 32.7771 17.9996C32.7771 23.9378 27.9452 28.7697 22.007 28.7697Z" fill="white"/>
</svg>