<svg width="38" height="37" viewBox="0 0 38 37" fill="none" xmlns="http://www.w3.org/2000/svg">
	<path d="M33.0838 0.224609H4.48012C2.31398 0.224609 0.551758 1.98711 0.551758 4.15325V32.7567C0.551758 34.9231 2.31398 36.6853 4.48012 36.6853H33.0838C35.2502 36.6853 37.0124 34.9231 37.0124 32.7567V4.15325C37.0124 1.98711 35.2502 0.224609 33.0838 0.224609V0.224609ZM4.48012 2.36098H33.0838C34.0722 2.36098 34.8761 3.1649 34.8761 4.15325V9.37789H2.68813V4.15325C2.68813 3.1649 3.49205 2.36098 4.48012 2.36098ZM33.0838 34.5489H4.48012C3.49205 34.5489 2.68813 33.745 2.68813 32.7567V11.5143H34.8761V32.7567C34.8761 33.745 34.0722 34.5489 33.0838 34.5489Z" fill="#FF4C60"/>
	<path d="M10.7733 6.93764H26.7913C27.3813 6.93764 27.8595 6.45946 27.8595 5.86946C27.8595 5.27973 27.3813 4.80127 26.7913 4.80127H10.7733C10.1835 4.80127 9.70508 5.27973 9.70508 5.86946C9.70508 6.45946 10.1835 6.93764 10.7733 6.93764Z" fill="#FF4C60"/>
	<path d="M6.1966 21.8115H10.7734C11.3631 21.8115 11.8416 21.3333 11.8416 20.7433V16.1668C11.8416 15.5768 11.3631 15.0986 10.7734 15.0986H6.1966C5.60688 15.0986 5.12842 15.5768 5.12842 16.1668V20.7433C5.12842 21.3333 5.6066 21.8115 6.1966 21.8115ZM7.26479 17.235H9.70521V19.6751H7.26479V17.235Z" fill="#FF4C60"/>
	<path d="M31.368 19.6753H15.3499C14.7599 19.6753 14.2817 20.1538 14.2817 20.7435C14.2817 21.3335 14.7599 21.8117 15.3499 21.8117H31.368C31.9577 21.8117 32.4362 21.3335 32.4362 20.7435C32.4362 20.1538 31.9577 19.6753 31.368 19.6753Z" fill="#FF4C60"/>
	<path d="M31.368 24.252H6.1966C5.60688 24.252 5.12842 24.7301 5.12842 25.3201C5.12842 25.9099 5.60688 26.3883 6.1966 26.3883H31.368C31.9577 26.3883 32.4362 25.9099 32.4362 25.3201C32.4362 24.7301 31.9577 24.252 31.368 24.252Z" fill="#FF4C60"/>
	<path d="M31.368 28.8286H6.1966C5.60688 28.8286 5.12842 29.3068 5.12842 29.8968C5.12842 30.4868 5.60688 30.965 6.1966 30.965H31.368C31.9577 30.965 32.4362 30.4868 32.4362 29.8968C32.4362 29.3068 31.9577 28.8286 31.368 28.8286Z" fill="#FF4C60"/>
	<path d="M31.368 15.0986H15.3499C14.7599 15.0986 14.2817 15.5768 14.2817 16.1668C14.2817 16.7568 14.7599 17.235 15.3499 17.235H31.368C31.9577 17.235 32.4362 16.7568 32.4362 16.1668C32.4362 15.5768 31.9577 15.0986 31.368 15.0986Z" fill="#FF4C60"/>
</svg>