<svg width="21" height="22" viewBox="0 0 21 22" fill="none" xmlns="http://www.w3.org/2000/svg">
	<path d="M19.3821 13.3038C19.0932 13.3038 18.8591 13.5391 18.8591 13.8294V18.4967C18.858 19.3673 18.1563 20.0728 17.29 20.0736H2.61492C1.74869 20.0728 1.04692 19.3673 1.0459 18.4967V4.79867C1.04692 3.92827 1.74869 3.22274 2.61492 3.22172H7.25867C7.54755 3.22172 7.78168 2.9864 7.78168 2.69606C7.78168 2.40593 7.54755 2.17041 7.25867 2.17041H2.61492C1.17134 2.17205 0.00151233 3.34779 -0.00012207 4.79867V18.4969C0.00151233 19.9477 1.17134 21.1235 2.61492 21.1251H17.29C18.7336 21.1235 19.9034 19.9477 19.9051 18.4969V13.8294C19.9051 13.5391 19.6709 13.3038 19.3821 13.3038Z" fill="#2A325C"/>
	<path d="M19.698 0.817845C18.7788 -0.105948 17.2887 -0.105948 16.3695 0.817845L7.03873 10.1958C6.97478 10.2601 6.92861 10.3398 6.9045 10.4272L5.67747 14.8795C5.62701 15.062 5.67829 15.2575 5.81149 15.3916C5.9449 15.5254 6.13939 15.577 6.32102 15.5265L10.7509 14.293C10.8379 14.2688 10.9172 14.2224 10.9811 14.1581L20.3117 4.77995C21.2294 3.85554 21.2294 2.35908 20.3117 1.43467L19.698 0.817845ZM8.17831 10.5375L15.8149 2.86214L18.2777 5.33743L10.641 13.0128L8.17831 10.5375ZM7.68636 11.5297L9.65397 13.5074L6.93228 14.2653L7.68636 11.5297ZM19.5721 4.03665L19.0175 4.59413L16.5544 2.11863L17.1093 1.56115C17.6199 1.04802 18.4477 1.04802 18.9582 1.56115L19.5721 2.17797C20.0819 2.69172 20.0819 3.52311 19.5721 4.03665Z" fill="#2A325C"/>
</svg>