<svg xmlns="http://www.w3.org/2000/svg">
    <symbol id="404" viewBox="0 0 150 150" fill="none" xmlns="http://www.w3.org/2000/svg">
        <rect x="28.1523" y="15.6306" width="93" height="118" rx="6.5" stroke="#B7B7B7" stroke-width="7"
              stroke-linecap="round" stroke-linejoin="round"/>
        <path d="M75.4994 103.333C91.1474 103.333 103.833 90.648 103.833 75C103.833 59.3519 91.1474 46.6666 75.4994 46.6666C59.8513 46.6666 47.166 59.3519 47.166 75C47.166 90.648 59.8513 103.333 75.4994 103.333Z"
              stroke="#B7B7B7" stroke-width="7" stroke-linecap="round" stroke-linejoin="round"/>
        <path d="M86.8327 86.3333C86.8327 86.3333 82.5827 80.6666 75.4993 80.6666C68.416 80.6666 64.166 86.3333 64.166 86.3333"
              stroke="#B7B7B7" stroke-width="7" stroke-linecap="round" stroke-linejoin="round"/>
        <path d="M67 66.5H67.0283" stroke="#B7B7B7" stroke-width="7" stroke-linecap="round" stroke-linejoin="round"/>
        <path d="M84 66.5H84.0283" stroke="#B7B7B7" stroke-width="7" stroke-linecap="round" stroke-linejoin="round"/>
    </symbol>
    <symbol id="500" viewBox="0 0 150 150" fill="none" xmlns="http://www.w3.org/2000/svg">
        <path d="M75 137.5C109.518 137.5 137.5 109.518 137.5 75C137.5 40.4822 109.518 12.5 75 12.5C40.4822 12.5 12.5 40.4822 12.5 75C12.5 109.518 40.4822 137.5 75 137.5Z"
              stroke="#B7B7B7" stroke-width="7" stroke-linecap="round" stroke-linejoin="round"/>
        <path d="M93.75 56.25L56.25 93.75" stroke="#B7B7B7" stroke-width="7" stroke-linecap="round"
              stroke-linejoin="round"/>
        <path d="M56.25 56.25L93.75 93.75" stroke="#B7B7B7" stroke-width="7" stroke-linecap="round"
              stroke-linejoin="round"/>
    </symbol>
    <symbol id="tech" viewBox="0 0 150 150" fill="none" xmlns="http://www.w3.org/2000/svg">
        <path d="M64.6126 24.0171L11.6751 112.392C10.5837 114.282 10.0062 116.425 10 118.608C9.99394 120.791 10.5594 122.937 11.6403 124.833C12.7211 126.729 14.2797 128.309 16.1608 129.416C18.0419 130.523 20.1801 131.118 22.3626 131.142H128.238C130.42 131.118 132.558 130.523 134.439 129.416C136.321 128.309 137.879 126.729 138.96 124.833C140.041 122.937 140.606 120.791 140.6 118.608C140.594 116.425 140.017 114.282 138.925 112.392L85.9876 24.0171C84.8734 22.1803 83.3046 20.6616 81.4326 19.6077C79.5606 18.5537 77.4485 18 75.3001 18C73.1518 18 71.0397 18.5537 69.1676 19.6077C67.2956 20.6616 65.7268 22.1803 64.6126 24.0171V24.0171Z"
              stroke="#B7B7B7" stroke-width="7" stroke-linecap="round" stroke-linejoin="round"/>
        <path d="M75.2969 56.1423V81.1423" stroke="#B7B7B7" stroke-width="7" stroke-linecap="round"
              stroke-linejoin="round"/>
        <path d="M75.2969 106.142H75.3594" stroke="#B7B7B7" stroke-width="7" stroke-linecap="round"
              stroke-linejoin="round"/>
    </symbol>
</svg>
