<svg width="19" height="20" viewBox="0 0 19 20" fill="none" xmlns="http://www.w3.org/2000/svg">
	<path d="M18.8842 9.72029C18.7902 9.56344 17.2655 7.06739 14.5472 5.40076L16.9078 3.04016L16.374 2.50635L13.866 5.01436C12.62 4.36698 11.1589 3.91832 9.5 3.91832C3.65417 3.91832 0.257687 9.48361 0.11575 9.72029L0 9.91422L0.11575 10.1081C0.2098 10.265 1.73441 12.761 4.45273 14.4277L2.09213 16.7882L2.62595 17.322L5.13396 14.814C6.37999 15.4614 7.84108 15.9101 9.49996 15.9101C15.3458 15.9101 18.7423 10.3448 18.8842 10.1081L19 9.91418L18.8842 9.72029ZM5.0158 13.8646C2.755 12.5243 1.3073 10.5377 0.889234 9.91422C1.53957 8.94427 4.67794 4.67336 9.50004 4.67336C10.9165 4.67336 12.1864 5.04335 13.292 5.58847L12.1275 6.75295C11.4143 6.15917 10.4984 5.80107 9.50004 5.80107C7.23242 5.80107 5.38728 7.64621 5.38728 9.91422C5.38728 10.9125 5.7453 11.8283 6.33897 12.5415L5.0158 13.8646ZM12.1239 7.82415C12.5822 8.3983 12.8581 9.12413 12.8581 9.91422C12.8581 11.766 11.3518 13.2724 9.49996 13.2724C8.70995 13.2724 7.98417 12.9964 7.41001 12.538L12.1239 7.82415ZM6.87627 12.0041C6.4181 11.43 6.14224 10.7042 6.14224 9.91422C6.14224 8.06244 7.64857 6.55608 9.5 6.55608C10.2901 6.55608 11.0159 6.83205 11.5901 7.2903L6.87627 12.0041ZM9.5 15.1551C8.08351 15.1551 6.81363 14.7851 5.70807 14.24L6.87271 13.0753C7.58584 13.6692 8.50173 14.0274 9.5 14.0274C11.768 14.0274 13.6131 12.1822 13.6131 9.91422C13.6131 8.91583 13.255 7.99994 12.6613 7.28677L13.9842 5.96383C16.245 7.3041 17.6927 9.29068 18.1108 9.91422C17.4605 10.8842 14.3221 15.1551 9.5 15.1551Z" fill="black"/>
</svg>