<svg width="19" height="20" viewBox="0 0 19 20" fill="none" xmlns="http://www.w3.org/2000/svg">
	<path d="M16.3881 7.33396C12.5724 3.51824 6.36436 3.51824 2.54863 7.33396L0 9.88227L2.61186 12.4941C4.51956 14.4018 7.02551 15.356 9.53177 15.356C12.038 15.356 14.5437 14.4022 16.4517 12.4941L19.0003 9.9455L16.3881 7.33396ZM15.9976 12.0403C12.4322 15.6054 6.63106 15.6054 3.06568 12.0403L0.907635 9.88227L3.00245 7.78746C6.56784 4.22239 12.3689 4.22239 15.9343 7.78746L18.0924 9.9455L15.9976 12.0403Z" fill="black"/>
	<path d="M9.49115 5.73193C7.1906 5.73193 5.31885 7.60369 5.31885 9.90423C5.31885 12.2048 7.1906 14.0765 9.49115 14.0765C11.7917 14.0765 13.6634 12.2048 13.6634 9.90423C13.6634 7.60369 11.792 5.73193 9.49115 5.73193ZM9.49115 13.4346C7.54461 13.4346 5.96074 11.8508 5.96074 9.90423C5.96074 7.95769 7.54461 6.37383 9.49115 6.37383C11.4377 6.37383 13.0215 7.95769 13.0215 9.90423C13.0215 11.8508 11.438 13.4346 9.49115 13.4346Z" fill="black"/>
</svg>