<svg width="20" height="19" viewBox="0 0 20 19" fill="none" xmlns="http://www.w3.org/2000/svg">
	<path d="M7.35225 6.87744L10.1695 1.20557L13.2153 6.87744L19.3829 7.75356L14.7192 12.2841L15.9946 18.5849L10.2838 15.7296L4.43983 18.2994L5.56294 12.2841L1.12756 7.75356L7.35225 6.87744Z" fill="#FFC501"/>
	<path d="M4.17641 18.9735C4.1058 18.9735 4.03519 18.9517 3.97584 18.9084C3.87078 18.832 3.81825 18.7027 3.84042 18.5748L4.89477 12.4288L0.429418 8.07673C0.336639 7.986 0.303211 7.85058 0.34312 7.72745C0.38337 7.60397 0.490134 7.51392 0.618729 7.49516L6.78924 6.5984L9.54908 1.00674C9.60639 0.890084 9.72509 0.816406 9.85471 0.816406C9.98467 0.816406 10.1034 0.890084 10.1603 1.00674L12.9198 6.5984L19.0907 7.49516C19.2193 7.51392 19.3257 7.60363 19.3663 7.72745C19.4062 7.85058 19.3731 7.98634 19.28 8.07673L14.8147 12.4295L15.8687 18.5751C15.8905 18.703 15.838 18.8323 15.7332 18.9087C15.6282 18.9858 15.4887 18.9957 15.3737 18.9346L9.85471 16.0332L4.33502 18.9346C4.28522 18.9606 4.23064 18.9735 4.17641 18.9735ZM1.40053 8.07059L5.4992 12.0659C5.57936 12.144 5.61619 12.2573 5.59709 12.3678L4.62939 18.0089L9.6961 15.3456C9.79536 15.2931 9.91372 15.2931 10.0137 15.3456L15.0797 18.0089L14.1123 12.3678C14.0932 12.2573 14.1301 12.1444 14.2102 12.0659L18.3089 8.07059L12.6449 7.24752C12.5337 7.23149 12.4379 7.16156 12.3881 7.06094L9.85471 1.92874L7.32136 7.06128C7.27156 7.1619 7.17571 7.23183 7.06451 7.24786L1.40053 8.07059Z" fill="#465168"/>
</svg>
