<svg width="588" height="543" viewBox="0 0 588 543" fill="none" xmlns="http://www.w3.org/2000/svg">
<path d="M402.579 402.234C593.958 289.608 567.487 195.371 567.487 195.371C556.219 190.199 534.219 190.582 505.423 195.371L448.725 212.609C448.725 212.609 526.528 162.426 587.161 193.455C587.161 193.455 595.21 307.23 432.627 402.425C417.067 399.361 402.579 402.234 402.579 402.234ZM518.837 247.469C519.374 246.32 519.732 245.554 519.91 245.171C519.732 245.937 519.195 246.703 518.837 247.469ZM519.91 245.171C519.91 244.979 520.089 244.979 520.089 244.788C520.089 244.788 520.089 244.979 519.91 245.171ZM451.05 443.223C451.229 443.798 451.408 444.181 451.586 444.755C451.586 444.372 451.408 443.798 451.05 443.223C442.286 422.537 397.75 412.96 371.994 407.022C371.815 407.214 371.637 407.405 371.637 407.597C450.692 434.221 439.961 481.531 439.961 481.531C421.896 436.328 388.628 418.131 369.49 411.236C365.555 417.748 362.336 425.218 360.368 433.646C371.279 465.442 424.758 475.402 424.758 475.402C364.125 473.486 352.678 442.074 350.889 425.602C343.198 476.934 406.335 482.297 406.335 482.297C339.8 483.83 338.369 430.198 339.621 412.96C314.402 428.666 214.778 486.511 148.421 466.016C148.421 466.016 251.444 468.315 332.109 406.639C331.393 406.256 330.499 405.873 329.784 405.49C312.077 414.684 193.672 473.103 100.308 445.905C100.308 445.905 223.363 452.417 316.369 404.341C270.76 409.512 133.039 426.368 101.918 443.989C101.918 443.989 176.502 398.403 300.987 398.02C301.524 397.637 302.239 397.062 303.313 396.296C270.939 393.04 199.396 386.336 139.657 406.831C139.657 406.831 217.997 371.779 309.751 390.55C310.467 389.784 311.361 388.826 312.077 387.868C282.207 365.65 220.68 309.528 224.436 227.549C224.436 227.549 232.663 328.299 319.41 376.95C320.304 375.418 321.02 373.886 321.735 372.162C298.126 354.54 238.566 300.909 236.956 207.246C236.956 207.246 250.549 306.847 325.133 362.585C326.564 357.03 327.459 350.901 327.637 344.006C307.784 299.377 270.403 220.079 249.834 203.99C249.834 203.99 302.061 240.382 336.759 348.603C338.011 350.326 339.442 352.05 341.052 353.966C334.076 319.872 319.052 255.131 282.386 213.95C282.386 213.95 339.8 264.133 351.068 361.819C368.596 323.511 420.465 228.699 507.569 213.567C507.569 213.567 396.14 263.942 363.767 366.224C381.474 331.364 434.237 243.83 527.78 221.42C527.78 221.42 412.953 281.564 371.1 372.928C371.279 372.928 371.458 373.12 371.458 373.12C407.229 347.836 503.098 278.307 519.553 247.278C512.935 260.494 478.952 321.021 383.62 375.993C383.799 375.993 383.799 375.993 383.978 375.993C405.977 364.692 472.334 334.62 512.041 280.797C512.041 280.797 488.431 344.772 400.791 378.866C396.856 381.356 387.555 388.251 378.433 399.361C431.912 407.022 447.294 433.455 451.05 443.223ZM451.765 444.755C452.123 446.096 452.302 446.862 452.302 446.862C452.123 446.096 451.944 445.522 451.765 444.755ZM473.228 57.6535C512.219 48.8427 534.577 73.1682 534.577 73.1682C499.521 137.334 405.799 138.292 405.799 138.292C413.49 139.633 415.099 145.187 415.994 148.826L415.815 151.891C408.66 176.408 363.767 200.925 363.767 200.925C363.767 200.925 334.792 197.669 331.036 172.003C330.678 169.513 330.678 165.49 331.215 163.383C318.337 208.778 373.783 216.057 373.783 216.057C432.806 183.687 424.221 156.297 418.855 147.103C518.48 143.08 542.268 74.3175 542.268 74.3175C520.268 39.6487 473.228 57.6535 473.228 57.6535ZM354.824 139.824C235.346 138.1 225.509 85.4268 225.509 85.4268C229.802 79.8721 240.533 73.9344 255.557 68.3797L287.036 61.1012C287.036 61.1012 237.493 58.2281 215.493 90.0237C215.493 90.0237 238.923 147.103 340.336 148.443C347.133 142.506 354.824 139.824 354.824 139.824ZM261.46 97.1107C260.923 96.7276 260.565 96.5361 260.387 96.3445C260.744 96.7276 261.102 96.9192 261.46 97.1107C267.72 101.708 298.841 121.628 358.043 121.819L357.864 122.011C344.45 122.585 305.28 126.416 273.085 111.285C273.085 111.285 299.914 135.802 350.352 127.949C352.856 128.14 359.116 128.906 366.092 131.779C341.767 150.359 340.694 167.406 341.231 173.152C340.515 160.702 359.653 143.846 370.742 133.886C370.921 133.886 370.921 134.078 371.1 134.078C339.263 168.747 355.897 188.475 355.897 188.475C353.751 161.66 365.377 143.655 373.067 135.036C376.466 137.143 379.864 139.824 382.905 143.463C385.23 161.851 361.799 181.388 361.799 181.388C390.596 163.767 388.628 145.379 385.588 136.951C401.506 159.553 372.352 179.473 372.352 179.473C404.904 161.851 392.742 135.61 387.913 127.566C403.831 128.14 465.895 128.715 493.082 100.558C493.082 100.558 443.895 130.056 390.059 122.585C390.238 122.202 390.596 121.819 390.953 121.436C401.685 121.053 472.871 116.648 511.504 77.7652C511.504 77.7652 453.733 114.732 397.213 117.222C420.465 107.262 491.114 77.3821 510.252 77.1906C510.252 77.1906 463.212 75.6582 403.116 109.752C402.758 109.752 402.221 109.752 401.506 109.561C416.351 99.0261 449.261 76.0413 483.066 69.529C483.066 69.529 436.741 74.3175 397.035 108.603C396.498 108.412 395.783 108.22 395.246 108.028C404.368 89.066 420.644 45.0119 399.002 6.51235C399.002 6.51235 419.213 57.462 388.986 104.772C388.27 104.198 387.555 103.623 386.661 103.048C393.815 88.1083 409.733 45.778 388.092 0C388.092 0 405.441 51.7158 382.905 99.4092C380.937 97.1107 378.97 94.4291 377.181 91.173C376.108 64.1658 375.035 15.5147 381.116 2.10694C381.116 2.10694 364.661 34.0941 373.962 95.9615C373.783 97.1107 373.425 98.4515 373.246 99.6007C368.417 81.2129 360.011 45.778 368.059 15.8978C368.059 15.8978 352.32 55.9296 370.563 106.113C352.856 92.5137 305.101 60.9097 259.313 77.7652C259.313 77.7652 325.312 71.4444 365.377 111.859C348.564 99.9838 301.882 72.2105 251.444 87.1506C251.444 87.1506 321.377 84.6606 363.588 117.222L363.409 117.414C339.979 114.732 276.842 107.645 261.46 97.1107ZM260.387 96.3445L260.208 96.153C260.208 96.3445 260.387 96.3445 260.387 96.3445ZM341.231 173.152C341.231 173.535 341.231 173.727 341.409 174.11C341.409 173.727 341.409 173.344 341.231 173.152ZM341.409 173.918C341.588 174.684 341.588 175.067 341.588 175.067C341.409 174.684 341.409 174.301 341.409 173.918ZM50.2276 189.241C31.0897 163.575 6.94382 166.448 6.94382 166.448C-1.6414 222.761 53.6259 272.178 53.6259 272.178C48.439 268.922 45.0407 271.412 42.8944 273.136L41.6424 275.051C34.6669 293.248 50.2276 331.172 50.2276 331.172C50.2276 331.172 68.8289 344.389 82.7799 331.172C84.2107 329.832 85.9993 327.533 86.7147 326.001C73.658 359.712 37.5286 335.003 37.5286 335.003C17.3176 285.011 34.8457 273.327 42.3578 270.646C-14.877 216.248 2.47235 163 2.47235 163C30.732 153.998 50.2276 189.241 50.2276 189.241ZM82.9587 299.76C154.502 361.244 184.372 335.003 184.372 335.003C184.372 329.449 180.794 320.446 174.356 309.145L158.974 288.459C158.974 288.459 189.558 312.785 188.128 342.856C188.128 342.856 148.242 364.5 87.609 312.21C86.1781 305.314 82.9587 299.76 82.9587 299.76ZM158.616 323.319C158.258 323.319 157.901 323.319 157.543 323.319C158.079 323.319 158.437 323.319 158.616 323.319ZM75.8044 326.384C75.6255 326.575 75.4466 326.767 75.2678 326.958C75.4466 326.767 75.6255 326.575 75.8044 326.384C81.8856 319.488 78.3084 299.377 76.1621 287.693C75.9832 287.693 75.9833 287.693 75.8044 287.693C78.845 324.852 60.0648 327.916 60.0648 327.916C73.6581 313.168 74.7312 296.312 74.1946 287.31C71.154 286.735 67.9346 286.544 64.5363 287.118C54.699 296.695 59.7071 320.638 59.7071 320.638C50.5853 295.163 60.2437 285.394 65.7883 281.947C46.1138 287.118 54.3414 314.125 54.3414 314.125C43.0733 286.735 62.2111 277.541 68.8289 275.243C58.9916 267.198 22.1468 235.211 18.9273 204.373C18.9273 204.373 34.6669 247.469 69.902 271.22C69.902 270.837 69.902 270.454 69.902 270.071C63.8208 264.133 23.5777 224.485 18.3908 181.197C18.3908 181.197 35.74 233.296 68.1134 264.325C58.9916 246.129 30.732 191.731 19.2851 181.58C19.2851 181.58 47.7235 205.139 67.9346 256.855C68.1134 257.046 68.4711 257.238 68.8289 257.621C64.7151 243.639 55.7722 212.801 38.7806 191.348C38.7806 191.348 63.9997 218.355 71.8695 259.345C72.2272 259.536 72.7638 259.728 73.3003 259.92C76.5198 244.022 87.0725 209.353 117.3 197.861C117.3 197.861 82.0644 217.398 78.4873 261.26C79.2027 261.26 79.9181 261.452 80.6335 261.452C83.3164 248.81 93.1537 215.482 126.779 199.776C126.779 199.776 92.796 221.42 84.5685 261.26C86.7148 261.069 89.2188 260.303 91.7228 259.345C104.779 243.83 127.495 215.674 129.999 204.565C129.999 204.565 125.169 232.146 91.5439 263.942C91.1862 264.708 90.6496 265.666 90.2919 266.623C101.56 258.196 122.665 241.532 131.608 219.696C131.608 219.696 122.665 251.683 89.0399 271.987C105.674 273.136 148.421 279.457 167.917 313.168C167.917 313.168 131.787 274.86 89.5765 277.924C104.958 279.648 145.202 287.501 168.453 322.745C168.453 322.745 128.21 284.82 88.3245 281.947V282.138C103.17 292.864 143.771 321.595 157.722 323.511C151.819 322.936 124.454 318.531 89.2188 287.693V287.884C96.7309 295.163 118.373 317.956 144.307 325.809C144.307 325.809 117.3 326.384 91.0074 295.354C89.3976 294.205 85.4627 291.332 80.097 289.417C85.8205 312.593 78.6661 323.319 75.8044 326.384ZM75.4467 326.958C75.0889 327.342 74.7312 327.533 74.7312 327.533C74.9101 327.342 75.0889 327.15 75.4467 326.958ZM145.738 378.483C75.6255 400.127 59.3494 459.887 59.3494 459.887C167.38 531.14 319.052 446.288 319.052 446.288C307.784 455.29 309.573 465.825 311.182 472.529L314.044 477.509C345.165 510.645 437.278 508.538 437.278 508.538C437.278 508.538 481.277 476.743 466.789 431.922C465.359 427.517 462.139 421.196 459.635 417.94C516.87 479.233 433.164 542.249 433.164 542.249C312.077 544.356 303.849 492.449 305.101 472.337C141.267 557.572 47.5447 468.506 47.5447 468.506C55.5933 392.848 145.738 378.674 145.738 378.483Z" fill="#6F64A2"/>
</svg>
