<svg width="12" height="30" viewBox="0 0 12 30" fill="none" xmlns="http://www.w3.org/2000/svg">
<path d="M5.98583 0.31897C5.72084 0.32311 5.46833 0.432259 5.28376 0.622445C5.09919 0.81263 4.99766 1.0683 5.00146 1.33329V26.2526L2.04182 23.2929C1.94968 23.197 1.83931 23.1203 1.71718 23.0676C1.59505 23.0148 1.46362 22.9869 1.33058 22.9855C1.19754 22.9842 1.06557 23.0094 0.942392 23.0597C0.819216 23.11 0.707313 23.1843 0.613235 23.2784C0.519157 23.3725 0.444796 23.4844 0.394507 23.6076C0.344218 23.7307 0.319012 23.8627 0.320364 23.9958C0.321717 24.1288 0.349601 24.2602 0.402384 24.3824C0.455167 24.5045 0.531787 24.6148 0.627758 24.707L5.29443 29.3737C5.48197 29.5611 5.73629 29.6664 6.00146 29.6664C6.26663 29.6664 6.52095 29.5611 6.70849 29.3737L11.3752 24.707C11.4711 24.6148 11.5477 24.5045 11.6005 24.3824C11.6533 24.2602 11.6812 24.1288 11.6825 23.9958C11.6839 23.8627 11.6587 23.7307 11.6084 23.6076C11.5581 23.4844 11.4838 23.3725 11.3897 23.2784C11.2956 23.1843 11.1837 23.11 11.0605 23.0597C10.9373 23.0094 10.8054 22.9842 10.6723 22.9855C10.5393 22.9869 10.4079 23.0148 10.2857 23.0676C10.1636 23.1203 10.0532 23.197 9.96109 23.2929L7.00146 26.2526V1.33329C7.00338 1.19945 6.97841 1.06658 6.92803 0.942565C6.87766 0.818549 6.8029 0.705907 6.70818 0.611317C6.61347 0.516726 6.50073 0.442111 6.37665 0.391893C6.25257 0.341676 6.11967 0.316878 5.98583 0.31897Z" fill="#6F64A2"/>
</svg>
