<svg xmlns="http://www.w3.org/2000/svg" width="40" height="40" viewBox="0 0 40 40"><g><g><path fill="#fff" d="M16.82 29.905c0-1.184.4-2.053 1.189-2.585a8.598 8.598 0 0 1-1.397-.209c-1.006-.177-1.876-.497-2.586-.95-1.795-1.086-2.705-3.076-2.705-5.915 0-1.479.5-2.759 1.486-3.804-.453-1.165-.403-2.445.149-3.804h.595c.197 0 .447.05.743.148.77.237 1.639.677 2.585 1.308a14.093 14.093 0 0 1 3.567-.476c1.163 0 2.373.16 3.597.476.77-.514 1.499-.914 2.169-1.19.54-.202.956-.305 1.237-.305.047 0 .091.003.13.009l.357.03c.533 1.361.583 2.64.149 3.804.986 1.044 1.486 2.324 1.486 3.804 0 2.209-.55 3.899-1.635 5.023-.59.63-1.38 1.13-2.348 1.486-.81.297-1.72.486-2.705.564.809.572 1.219 1.442 1.219 2.586l.001 2.378c2.543-.907 4.672-2.476 6.33-4.666 1.617-2.17 2.437-4.67 2.437-7.43 0-1.677-.33-3.317-.981-4.874a12.405 12.405 0 0 0-2.675-3.983c-1.104-1.105-2.444-1.995-3.983-2.646-1.579-.67-3.208-1.01-4.844-1.01-1.617 0-3.257.34-4.875 1.01a13.14 13.14 0 0 0-3.983 2.646 13.864 13.864 0 0 0-2.675 3.983 12.577 12.577 0 0 0-.98 4.873c0 2.782.84 5.302 2.496 7.49 1.637 2.15 3.807 3.7 6.448 4.608h.002zm9.333-23.361c3.628 1.538 6.278 4.188 7.876 7.877.789 1.872 1.189 3.812 1.189 5.765 0 1.954-.4 3.894-1.19 5.766-1.597 3.709-4.247 6.379-7.875 7.936a14.366 14.366 0 0 1-5.766 1.189c-2.012 0-3.952-.4-5.766-1.189-3.67-1.578-6.32-4.248-7.877-7.936a14.365 14.365 0 0 1-1.19-5.766c0-2.012.4-3.952 1.19-5.765C8.3 10.753 10.95 8.103 14.62 6.544a14.382 14.382 0 0 1 5.766-1.188c2.011 0 3.951.4 5.766 1.188zM40 39.999V0H0v39.999z"/></g></g></svg>