<svg width="64" height="64" viewBox="0 0 64 64" fill="none" xmlns="http://www.w3.org/2000/svg">
<path d="M54.71 12.29L44.71 2.29C44.5193 2.1058 44.2651 2.00197 44 2H10C9.73478 2 9.48043 2.10536 9.29289 2.29289C9.10536 2.48043 9 2.73478 9 3V39H5C4.73478 39 4.48043 39.1054 4.29289 39.2929C4.10536 39.4804 4 39.7348 4 40V57C4 57.2652 4.10536 57.5196 4.29289 57.7071C4.48043 57.8946 4.73478 58 5 58H9V61C9 61.2652 9.10536 61.5196 9.29289 61.7071C9.48043 61.8946 9.73478 62 10 62H54C54.2652 62 54.5196 61.8946 54.7071 61.7071C54.8946 61.5196 55 61.2652 55 61V13C54.998 12.7349 54.8942 12.4807 54.71 12.29ZM45 5.41L51.59 12H46C45.7348 12 45.4804 11.8946 45.2929 11.7071C45.1054 11.5196 45 11.2652 45 11V5.41ZM6 56V41H12V56H6ZM53 60H11V58H13C13.2652 58 13.5196 57.8946 13.7071 57.7071C13.8946 57.5196 14 57.2652 14 57V56.71C15.7547 57.5611 17.6798 58.0022 19.63 58H31C31.5241 58.0012 32.0392 57.8648 32.494 57.6044C32.9488 57.344 33.3272 56.9687 33.5915 56.5162C33.8557 56.0636 33.9965 55.5496 33.9998 55.0256C34.003 54.5015 33.8686 53.9858 33.61 53.53C33.7917 53.4166 33.9595 53.2824 34.11 53.13C34.393 52.8523 34.6175 52.5208 34.7703 52.155C34.9232 51.7892 35.0013 51.3965 35 51C35.0015 50.4842 34.8669 49.9772 34.61 49.53C34.7917 49.4166 34.9595 49.2824 35.11 49.13C35.393 48.8523 35.6175 48.5208 35.7703 48.155C35.9232 47.7892 36.0013 47.3965 36 47C36.0015 46.4842 35.8669 45.9772 35.61 45.53C35.7917 45.4166 35.9595 45.2824 36.11 45.13C36.4225 44.8202 36.6632 44.4456 36.8152 44.0327C36.9673 43.6197 37.0269 43.1785 36.99 42.74C36.9072 41.9793 36.5435 41.2769 35.9702 40.7702C35.3969 40.2634 34.6551 39.9888 33.89 40H25V35C24.9976 34.2051 24.6808 33.4434 24.1187 32.8813C23.5566 32.3192 22.7949 32.0024 22 32H20C19.7348 32 19.4804 32.1054 19.2929 32.2929C19.1054 32.4804 19 32.7348 19 33V36C19 36.6566 18.8707 37.3068 18.6194 37.9134C18.3681 38.52 17.9998 39.0712 17.5355 39.5355C17.0712 39.9998 16.52 40.3681 15.9134 40.6194C15.3068 40.8707 14.6566 41 14 41V40C14 39.7348 13.8946 39.4804 13.7071 39.2929C13.5196 39.1054 13.2652 39 13 39H11V4H43V11C43.0024 11.7949 43.3192 12.5566 43.8813 13.1187C44.4434 13.6808 45.2051 13.9976 46 14H53V60ZM24 42H33.89C34.1537 41.992 34.4115 42.0797 34.6155 42.247C34.8196 42.4143 34.9561 42.6498 35 42.91C35.012 43.0581 34.9904 43.207 34.9367 43.3455C34.883 43.4841 34.7987 43.6087 34.69 43.71C34.6014 43.8036 34.4943 43.8777 34.3755 43.9276C34.2567 43.9776 34.1288 44.0022 34 44H33C32.7348 44 32.4804 44.1054 32.2929 44.2929C32.1054 44.4804 32 44.7348 32 45C32 45.2652 32.1054 45.5196 32.2929 45.7071C32.4804 45.8946 32.7348 46 33 46C33.2652 46 33.5196 46.1054 33.7071 46.2929C33.8946 46.4804 34 46.7348 34 47C34.0012 47.1335 33.9742 47.2657 33.9207 47.3881C33.8673 47.5104 33.7887 47.6201 33.69 47.71C33.6014 47.8036 33.4943 47.8777 33.3755 47.9276C33.2567 47.9776 33.1288 48.0022 33 48H32C31.7348 48 31.4804 48.1054 31.2929 48.2929C31.1054 48.4804 31 48.7348 31 49C31 49.2652 31.1054 49.5196 31.2929 49.7071C31.4804 49.8946 31.7348 50 32 50C32.2652 50 32.5196 50.1054 32.7071 50.2929C32.8946 50.4804 33 50.7348 33 51C33.0012 51.1335 32.9742 51.2657 32.9207 51.3881C32.8673 51.5104 32.7887 51.6201 32.69 51.71C32.6014 51.8036 32.4943 51.8777 32.3755 51.9276C32.2567 51.9776 32.1288 52.0022 32 52H31C30.7348 52 30.4804 52.1054 30.2929 52.2929C30.1054 52.4804 30 52.7348 30 53C30 53.2652 30.1054 53.5196 30.2929 53.7071C30.4804 53.8946 30.7348 54 31 54C31.2652 54 31.5196 54.1054 31.7071 54.2929C31.8946 54.4804 32 54.7348 32 55C32.0012 55.1335 31.9742 55.2657 31.9208 55.3881C31.8673 55.5104 31.7887 55.6201 31.69 55.71C31.6014 55.8036 31.4943 55.8777 31.3755 55.9276C31.2567 55.9776 31.1288 56.0022 31 56H19.63C17.6475 56.0033 15.7014 55.4675 14 54.45V43C15.8559 42.9979 17.6351 42.2597 18.9474 40.9474C20.2597 39.6351 20.9979 37.8559 21 36V34H22C22.2652 34 22.5196 34.1054 22.7071 34.2929C22.8946 34.4804 23 34.7348 23 35V41C23 41.2652 23.1054 41.5196 23.2929 41.7071C23.4804 41.8946 23.7348 42 24 42Z" fill="#008AE5"/>
<path d="M24 10H40C40.2652 10 40.5196 9.89464 40.7071 9.70711C40.8946 9.51957 41 9.26522 41 9C41 8.73478 40.8946 8.48043 40.7071 8.29289C40.5196 8.10536 40.2652 8 40 8H24C23.7348 8 23.4804 8.10536 23.2929 8.29289C23.1054 8.48043 23 8.73478 23 9C23 9.26522 23.1054 9.51957 23.2929 9.70711C23.4804 9.89464 23.7348 10 24 10Z" fill="#008AE5"/>
<path d="M50 52H38C37.7348 52 37.4804 52.1054 37.2929 52.2929C37.1054 52.4804 37 52.7348 37 53C37 53.2652 37.1054 53.5196 37.2929 53.7071C37.4804 53.8946 37.7348 54 38 54H50C50.2652 54 50.5196 53.8946 50.7071 53.7071C50.8946 53.5196 51 53.2652 51 53C51 52.7348 50.8946 52.4804 50.7071 52.2929C50.5196 52.1054 50.2652 52 50 52Z" fill="#008AE5"/>
<path d="M48 32H28C27.7348 32 27.4804 32.1054 27.2929 32.2929C27.1054 32.4804 27 32.7348 27 33C27 33.2652 27.1054 33.5196 27.2929 33.7071C27.4804 33.8946 27.7348 34 28 34H48C48.2652 34 48.5196 33.8946 48.7071 33.7071C48.8946 33.5196 49 33.2652 49 33C49 32.7348 48.8946 32.4804 48.7071 32.2929C48.5196 32.1054 48.2652 32 48 32Z" fill="#008AE5"/>
<path d="M49 37C49 36.7348 48.8946 36.4804 48.7071 36.2929C48.5196 36.1054 48.2652 36 48 36H28C27.7348 36 27.4804 36.1054 27.2929 36.2929C27.1054 36.4804 27 36.7348 27 37C27 37.2652 27.1054 37.5196 27.2929 37.7071C27.4804 37.8946 27.7348 38 28 38H48C48.2652 38 48.5196 37.8946 48.7071 37.7071C48.8946 37.5196 49 37.2652 49 37Z" fill="#008AE5"/>
<path d="M16 18H48C48.2652 18 48.5196 17.8946 48.7071 17.7071C48.8946 17.5196 49 17.2652 49 17C49 16.7348 48.8946 16.4804 48.7071 16.2929C48.5196 16.1054 48.2652 16 48 16H16C15.7348 16 15.4804 16.1054 15.2929 16.2929C15.1054 16.4804 15 16.7348 15 17C15 17.2652 15.1054 17.5196 15.2929 17.7071C15.4804 17.8946 15.7348 18 16 18Z" fill="#008AE5"/>
<path d="M16 22H48C48.2652 22 48.5196 21.8946 48.7071 21.7071C48.8946 21.5196 49 21.2652 49 21C49 20.7348 48.8946 20.4804 48.7071 20.2929C48.5196 20.1054 48.2652 20 48 20H16C15.7348 20 15.4804 20.1054 15.2929 20.2929C15.1054 20.4804 15 20.7348 15 21C15 21.2652 15.1054 21.5196 15.2929 21.7071C15.4804 21.8946 15.7348 22 16 22Z" fill="#008AE5"/>
<path d="M16 26H48C48.2652 26 48.5196 25.8946 48.7071 25.7071C48.8946 25.5196 49 25.2652 49 25C49 24.7348 48.8946 24.4804 48.7071 24.2929C48.5196 24.1054 48.2652 24 48 24H16C15.7348 24 15.4804 24.1054 15.2929 24.2929C15.1054 24.4804 15 24.7348 15 25C15 25.2652 15.1054 25.5196 15.2929 25.7071C15.4804 25.8946 15.7348 26 16 26Z" fill="#008AE5"/>
<path d="M49 29C49 28.7348 48.8946 28.4804 48.7071 28.2929C48.5196 28.1054 48.2652 28 48 28H16C15.7348 28 15.4804 28.1054 15.2929 28.2929C15.1054 28.4804 15 28.7348 15 29C15 29.2652 15.1054 29.5196 15.2929 29.7071C15.4804 29.8946 15.7348 30 16 30H48C48.2652 30 48.5196 29.8946 48.7071 29.7071C48.8946 29.5196 49 29.2652 49 29Z" fill="#008AE5"/>
<path d="M50 49H49.414L47.707 47.293C47.595 47.1812 47.458 47.0977 47.3074 47.0492C47.1567 47.0007 46.9968 46.9887 46.8406 47.0141C46.6844 47.0395 46.5365 47.1015 46.4089 47.1952C46.2814 47.2889 46.1779 47.4115 46.107 47.553L45.382 49H44.382C44.7854 48.4758 45.0028 47.8323 45 47.171V46.916C44.9998 46.2784 44.7906 45.6585 44.4046 45.1511C44.0185 44.6438 43.4768 44.2769 42.8623 44.1068C42.2479 43.9366 41.5947 43.9725 41.0026 44.2089C40.4105 44.4454 39.9122 44.8694 39.584 45.416L37.143 49.485C37.0726 49.5976 37.0252 49.7231 37.0038 49.8542C36.9824 49.9853 36.9873 50.1194 37.0183 50.2485C37.0492 50.3777 37.1056 50.4994 37.1842 50.6066C37.2627 50.7137 37.3618 50.8042 37.4756 50.8726C37.5895 50.941 37.7159 50.9861 37.8473 51.0051C37.9788 51.0242 38.1127 51.0168 38.2413 50.9835C38.3699 50.9502 38.4906 50.8917 38.5963 50.8112C38.702 50.7308 38.7907 50.63 38.857 50.515L41.3 46.444C41.4034 46.2728 41.56 46.1402 41.7458 46.0664C41.9316 45.9926 42.1364 45.9816 42.3291 46.0351C42.5217 46.0885 42.6916 46.2036 42.8127 46.3626C42.9339 46.5217 42.9997 46.716 43 46.916V47.171C43.0001 47.3024 42.9743 47.4327 42.924 47.5541C42.8737 47.6756 42.8 47.786 42.707 47.879L41.293 49.293C41.1532 49.4328 41.058 49.611 41.0194 49.8049C40.9809 49.9989 41.0007 50.1999 41.0763 50.3826C41.152 50.5653 41.2802 50.7215 41.4446 50.8314C41.609 50.9413 41.8023 50.9999 42 51H46C46.1867 51.001 46.3699 50.9497 46.529 50.852C46.6881 50.7543 46.8166 50.614 46.9 50.447L47.279 49.688L48.298 50.707C48.4843 50.8933 48.7366 50.9986 49 51H50C50.2652 51 50.5196 50.8946 50.7071 50.7071C50.8947 50.5195 51 50.2652 51 50C51 49.7347 50.8947 49.4804 50.7071 49.2929C50.5196 49.1053 50.2652 49 50 49Z" fill="#008AE5"/>
</svg>