<svg width="33" height="34" viewBox="0 0 33 34" fill="none" xmlns="http://www.w3.org/2000/svg">
<path d="M32.9146 5.15793C32.9146 12.9563 32.9146 20.8729 32.9146 28.6713C32.9146 28.7895 32.9146 28.7895 32.7994 28.9076C32.3385 31.2708 30.8406 32.8068 28.6514 33.5158C28.4209 33.6339 28.1905 33.6339 27.9601 33.6339C25.8861 33.6339 23.6968 33.6339 21.6228 33.6339C21.6228 33.5158 21.6228 33.3976 21.6228 33.3976C21.6228 29.3803 21.6228 25.3629 21.6228 21.3455C21.6228 21.2274 21.6228 21.1092 21.6228 20.9911C21.738 20.9911 21.8533 20.9911 21.9685 20.9911C23.5816 20.9911 25.1947 20.9911 26.8078 20.9911C27.0383 20.9911 27.1535 20.9911 27.1535 20.6366C27.1535 18.9824 27.1535 17.3282 27.1535 15.674C27.1535 15.5558 27.1535 15.4376 27.1535 15.3195C25.3099 15.3195 23.4664 15.3195 21.738 15.3195C21.738 14.4924 21.738 13.6653 21.738 12.8382C21.738 12.0111 22.3141 11.6566 23.0055 11.6566C24.2729 11.6566 25.5404 11.6566 26.8078 11.6566C26.9231 11.6566 27.0383 11.6566 27.1535 11.6566C27.1535 9.76608 27.1535 7.87556 27.1535 6.10319C27.0383 6.10319 26.9231 6.10319 26.9231 6.10319C25.5404 6.10319 24.2729 6.10319 22.8903 6.10319C21.738 6.10319 20.5858 6.45766 19.664 7.16661C18.0509 8.34819 17.0139 10.0024 16.7835 12.0111C16.6682 13.0745 16.6682 14.0198 16.6682 15.0832C16.6682 15.2013 16.6682 15.3195 16.6682 15.4377C15.2856 15.4377 14.0181 15.4377 12.6354 15.4377C12.6354 15.5558 12.6354 15.5558 12.6354 15.674C12.6354 17.3282 12.6354 19.1005 12.6354 20.7547C12.6354 20.9911 12.7507 20.9911 12.8659 20.9911C14.0181 20.9911 15.1703 20.9911 16.3226 20.9911C16.4378 20.9911 16.553 20.9911 16.6682 20.9911C16.6682 25.2447 16.6682 29.4984 16.6682 33.7521C12.8659 33.7521 9.06354 33.7521 5.14597 33.7521C5.03075 33.7521 5.03075 33.7521 4.91552 33.6339C2.61107 33.1613 1.11318 31.7434 0.42184 29.3803C0.191395 29.1439 0.0761719 28.9076 0.0761719 28.6713C0.0761719 20.7547 0.0761719 12.9563 0.0761719 5.15793C0.0761719 5.03977 0.191395 4.92161 0.191395 4.80346C0.652285 2.4403 2.03496 1.02241 4.22419 0.313464C4.45463 0.195306 4.8003 0.195306 5.03075 0.0771484C12.6354 0.0771484 20.3554 0.0771484 27.9601 0.0771484C28.0753 0.0771484 28.0753 0.0771484 28.1905 0.0771484C30.495 0.549779 32.1081 2.08583 32.7994 4.44898C32.7994 4.6853 32.9146 4.92161 32.9146 5.15793Z" fill="#545859"/>
</svg>
