<svg width="34" height="34" viewBox="0 0 34 34" fill="none" xmlns="http://www.w3.org/2000/svg">
<path d="M32.699 6.87021C32.0935 3.05656 30.1258 1.26891 26.3417 0.792208C23.4658 0.434678 20.59 0.315502 17.7141 0.196325C17.4113 0.196325 17.1086 0.315502 16.9572 0.0771484C11.3568 0.0771484 21.8725 0.0771484 16.272 0.0771484C16.1207 0.315502 15.8179 0.196325 15.5152 0.196325C12.6393 0.315502 9.91478 0.434678 7.03888 0.792208C3.55753 1.26891 1.43844 3.05656 0.832987 6.51268C0.530261 8.30033 0.378907 10.2072 0.227544 12.114C0.227544 12.3523 0.378898 12.5907 0.0761719 12.829C0.0761719 15.5701 0.0761719 18.3112 0.0761719 21.0522C0.378898 21.1714 0.227544 21.5289 0.227544 21.7673C0.378907 23.9125 0.53027 25.9385 0.984359 28.0836C1.58981 30.7055 3.40616 32.4932 6.13069 32.9699C7.3416 33.2082 8.5525 33.3274 9.91477 33.4466C15.4608 33.9233 13.2884 33.8448 15.4608 33.9233C19.8344 34.0814 21.1954 33.8041 26.6445 33.2082C29.9745 32.8507 31.9422 30.9439 32.5476 27.8453C32.8504 25.9385 33.1531 23.9125 33.1531 22.0056C33.4558 16.7619 33.4558 11.8756 32.699 6.87021ZM11.2078 24.0316C11.2078 19.2646 11.2078 14.4975 11.2078 9.73045C15.446 12.114 19.6842 14.4975 23.9223 16.881C19.6842 19.3838 15.446 21.6481 11.2078 24.0316Z" fill="#545859"/>
</svg>
