<svg width="33" height="33" viewBox="0 0 33 33" fill="none" xmlns="http://www.w3.org/2000/svg">
<path d="M0.615234 9.47069C0.730457 8.64358 0.845677 7.81648 1.07612 6.98937C1.9979 3.20833 4.87847 0.372543 8.79604 0.254385C14.0963 0.0180696 19.3965 0.0180696 24.6968 0.254385C29.0752 0.372543 32.4167 3.91727 32.6471 8.40727C32.8776 13.6062 32.8776 18.9233 32.6471 24.1222C32.5319 28.6122 29.1905 32.157 24.812 32.2751C19.5118 32.5114 14.0963 32.5114 8.79604 32.2751C4.41758 32.0388 1.30657 28.6122 0.960902 24.1222C0.960902 23.7678 0.845678 23.5315 0.730455 23.177C0.615233 18.687 0.615234 14.0788 0.615234 9.47069ZM16.7464 29.6757C18.9356 29.6757 21.2401 29.6757 23.4293 29.6757C27.3469 29.5575 29.6514 27.4307 29.7666 23.2951C29.8818 18.687 29.8818 14.0788 29.7666 9.47069C29.6514 5.45332 27.3469 3.20833 23.4293 3.09017C18.9356 3.09017 14.442 3.09017 9.94827 3.09017C6.0307 3.09017 3.72625 5.45332 3.61102 9.47069C3.4958 14.0788 3.4958 18.687 3.61102 23.177C3.72625 27.1943 6.0307 29.4393 9.94827 29.5575C12.2527 29.6757 14.442 29.6757 16.7464 29.6757Z" fill="#545859"/>
<path d="M16.63 8.05273C21.2389 8.05273 24.9261 11.7156 24.9261 16.3238C24.9261 20.9319 21.2389 24.713 16.63 24.713C12.0211 24.713 8.33398 21.0501 8.33398 16.4419C8.33398 11.8338 12.0211 8.05273 16.63 8.05273ZM22.0455 16.4419C22.0455 13.3698 19.6258 11.0067 16.7452 11.0067C13.8647 11.0067 11.445 13.3698 11.445 16.4419C11.445 19.514 13.7495 21.8772 16.7452 21.9953C19.6258 21.8772 22.0455 19.3959 22.0455 16.4419Z" fill="#545859"/>
<path d="M25.2732 5.68945C26.3102 5.68945 27.232 6.51656 27.232 7.69813C27.232 8.76155 26.3102 9.58866 25.2732 9.70682C24.2362 9.70682 23.3145 8.87971 23.3145 7.69813C23.3145 6.63472 24.2362 5.68945 25.2732 5.68945Z" fill="#545859"/>
</svg>
