<svg xmlns="http://www.w3.org/2000/svg" width="36" height="36" viewBox="0 0 36 36"><g><g><path fill="#6b5b56" d="M15.138 26.916c0-1.066.36-1.848 1.07-2.327a7.738 7.738 0 0 1-1.257-.188c-.906-.16-1.689-.447-2.328-.856-1.615-.976-2.434-2.767-2.434-5.322 0-1.332.45-2.484 1.337-3.425-.408-1.048-.362-2.2.134-3.424h.536c.178 0 .403.045.669.134.692.213 1.475.61 2.326 1.177a12.683 12.683 0 0 1 3.21-.429c1.047 0 2.136.145 3.238.429.692-.462 1.349-.822 1.952-1.07.486-.183.86-.275 1.113-.275.042 0 .082.002.118.007l.32.027c.48 1.226.525 2.377.135 3.424.887.94 1.337 2.092 1.337 3.425 0 1.987-.495 3.508-1.472 4.52-.531.568-1.242 1.018-2.113 1.338a9.234 9.234 0 0 1-2.434.507c.728.515 1.097 1.298 1.097 2.328l.001 2.14c2.288-.816 4.205-2.23 5.697-4.2 1.455-1.952 2.193-4.202 2.193-6.687a11.32 11.32 0 0 0-.883-4.387 11.165 11.165 0 0 0-2.407-3.585c-.994-.994-2.2-1.795-3.585-2.381a11.11 11.11 0 0 0-4.36-.91c-1.455 0-2.93.307-4.387.91a11.826 11.826 0 0 0-3.585 2.381 12.478 12.478 0 0 0-2.407 3.585 11.32 11.32 0 0 0-.882 4.387c0 2.503.755 4.77 2.246 6.74 1.473 1.935 3.426 3.33 5.804 4.148h.001zm8.4-21.026c3.265 1.385 5.65 3.77 7.088 7.09a13.309 13.309 0 0 1 1.07 5.189c0 1.758-.36 3.504-1.07 5.189-1.438 3.338-3.823 5.74-7.088 7.142a12.93 12.93 0 0 1-5.19 1.07 12.93 12.93 0 0 1-5.19-1.07c-3.302-1.42-5.687-3.823-7.088-7.142A12.93 12.93 0 0 1 5 18.168c0-1.81.36-3.557 1.07-5.189 1.401-3.3 3.786-5.686 7.089-7.09a12.944 12.944 0 0 1 5.19-1.068c1.81 0 3.556.36 5.189 1.069zM36 36V0H0v36z"/></g></g></svg>