<svg width="64" height="64" viewBox="0 0 64 64" fill="none" xmlns="http://www.w3.org/2000/svg">
<path d="M34 60H6.16999C5.64361 60.0141 5.13076 59.8321 4.73105 59.4893C4.33133 59.1465 4.07328 58.6674 4.00699 58.145C3.98365 57.8587 4.0235 57.5707 4.12372 57.3015C4.22395 57.0322 4.3821 56.7883 4.58699 56.587C4.76972 56.4024 4.98772 56.2565 5.22799 56.158C5.76579 55.912 6.22 55.5142 6.53481 55.0136C6.84961 54.513 7.0113 53.9313 6.99999 53.34V31C7.00343 28.0837 8.16346 25.2878 10.2256 23.2256C12.2878 21.1634 15.0837 20.0034 18 20H30C32.9163 20.0034 35.7122 21.1634 37.7744 23.2256C39.8365 25.2878 40.9966 28.0837 41 31V34C41 34.2652 41.1053 34.5195 41.2929 34.7071C41.4804 34.8946 41.7348 35 42 35C42.2652 35 42.5196 34.8946 42.7071 34.7071C42.8946 34.5195 43 34.2652 43 34V31C42.996 27.7851 41.8026 24.6854 39.6496 22.2979C37.4966 19.9105 34.5364 18.4041 31.339 18.069L35.954 3.29997C36.0011 3.15019 36.0123 2.99142 35.9866 2.83652C35.9609 2.68161 35.8992 2.53493 35.8063 2.40834C35.7134 2.28176 35.592 2.17882 35.4519 2.10788C35.3118 2.03693 35.157 1.99997 35 1.99998C33.7806 1.98617 32.5964 2.40857 31.661 3.19097C31.0606 3.71243 30.2922 3.99957 29.497 3.99957C28.7018 3.99957 27.9333 3.71243 27.333 3.19097C26.3908 2.42082 25.2114 2.0001 23.9945 2.0001C22.7776 2.0001 21.5982 2.42082 20.656 3.19097C20.0571 3.7127 19.2897 4.0001 18.4955 4.0001C17.7013 4.0001 16.9338 3.7127 16.335 3.19097C15.4013 2.40838 14.2182 1.98589 13 1.99998C12.8429 1.99981 12.688 2.03666 12.5478 2.10754C12.4076 2.17842 12.286 2.28133 12.193 2.40794C12.1 2.53455 12.0381 2.68129 12.0124 2.83627C11.9867 2.99125 11.9979 3.15011 12.045 3.29997L16.661 18.071C13.464 18.4061 10.504 19.9121 8.35104 22.2992C6.1981 24.6862 5.00446 27.7855 4.99999 31V53.34C5.00941 53.5387 4.96226 53.7359 4.86402 53.9089C4.76577 54.0818 4.62047 54.2233 4.44499 54.317C3.67502 54.6415 3.02616 55.1992 2.58972 55.9117C2.15328 56.6242 1.95123 57.4556 2.01199 58.289C2.10986 59.3177 2.59256 60.2715 3.36352 60.9596C4.13447 61.6477 5.13682 62.0192 6.16999 62H34C34.2652 62 34.5196 61.8946 34.7071 61.7071C34.8946 61.5195 35 61.2652 35 61C35 60.7348 34.8946 60.4804 34.7071 60.2929C34.5196 60.1053 34.2652 60 34 60ZM15.159 4.80897C16.1005 5.57925 17.2795 6.00009 18.496 6.00009C19.7125 6.00009 20.8915 5.57925 21.833 4.80897C22.4327 4.28735 23.2007 4.00006 23.9955 4.00006C24.7903 4.00006 25.5583 4.28735 26.158 4.80897C27.1003 5.57921 28.2799 5.99997 29.497 5.99997C30.714 5.99997 31.8937 5.57921 32.836 4.80897C33.0597 4.63991 33.2934 4.48463 33.536 4.34397L29.265 18H18.735L14.468 4.34598C14.7077 4.48589 14.9384 4.64052 15.159 4.80897Z" fill="#008AE5"/>
<path d="M34.9 44.134C34.7862 44.0681 34.6606 44.0254 34.5303 44.0082C34.4 43.991 34.2676 43.9996 34.1406 44.0336C34.0137 44.0676 33.8947 44.1263 33.7904 44.2063C33.6861 44.2863 33.5987 44.3861 33.533 44.5C32.2014 46.8128 30.0745 48.5627 27.5484 49.4236C25.0223 50.2845 22.2693 50.1976 19.8025 49.1792C17.3357 48.1609 15.3232 46.2804 14.1401 43.8882C12.9569 41.4961 12.6838 38.7553 13.3716 36.1767C14.0594 33.5981 15.6612 31.3575 17.8785 29.8723C20.0958 28.3871 22.7775 27.7587 25.4238 28.1041C28.0701 28.4496 30.5006 29.7453 32.2624 31.7499C34.0242 33.7545 34.9972 36.3312 35 39C35 39.2652 35.1054 39.5195 35.2929 39.7071C35.4804 39.8946 35.7348 40 36 40C36.2652 40 36.5196 39.8946 36.7071 39.7071C36.8946 39.5195 37 39.2652 37 39C36.9993 35.846 35.852 32.7999 33.772 30.4291C31.6919 28.0584 28.8209 26.5246 25.6939 26.1137C22.5668 25.7027 19.397 26.4426 16.7751 28.1954C14.1531 29.9483 12.2577 32.5945 11.4422 35.6412C10.6266 38.6879 10.9464 41.9271 12.3421 44.7554C13.7377 47.5838 16.114 49.8083 19.0281 51.0145C21.9423 52.2208 25.1955 52.3264 28.1818 51.3119C31.1681 50.2973 33.6837 48.2317 35.26 45.5C35.3931 45.271 35.43 44.9986 35.3625 44.7425C35.295 44.4864 35.1287 44.2676 34.9 44.134Z" fill="#008AE5"/>
<path d="M24 34C25.626 34 27 34.916 27 36C27 36.2652 27.1053 36.5196 27.2929 36.7071C27.4804 36.8946 27.7348 37 28 37C28.2652 37 28.5196 36.8946 28.7071 36.7071C28.8946 36.5196 29 36.2652 29 36C29 34.068 27.279 32.453 25 32.081V31C25 30.7348 24.8946 30.4804 24.7071 30.2929C24.5196 30.1054 24.2652 30 24 30C23.7348 30 23.4804 30.1054 23.2929 30.2929C23.1053 30.4804 23 30.7348 23 31V32.081C20.721 32.453 19 34.068 19 36C19 38.206 21.243 40 24 40C25.626 40 27 40.916 27 42C27 43.084 25.626 44 24 44C22.374 44 21 43.084 21 42C21 41.7348 20.8946 41.4804 20.7071 41.2929C20.5196 41.1054 20.2652 41 20 41C19.7348 41 19.4804 41.1054 19.2929 41.2929C19.1053 41.4804 19 41.7348 19 42C19 43.932 20.721 45.547 23 45.919V47C23 47.2652 23.1053 47.5196 23.2929 47.7071C23.4804 47.8946 23.7348 48 24 48C24.2652 48 24.5196 47.8946 24.7071 47.7071C24.8946 47.5196 25 47.2652 25 47V45.919C27.279 45.547 29 43.932 29 42C29 39.794 26.757 38 24 38C22.374 38 21 37.084 21 36C21 34.916 22.374 34 24 34Z" fill="#008AE5"/>
<path d="M62 47C61.9972 46.3424 61.7784 45.704 61.3773 45.1829C60.9762 44.6618 60.415 44.287 59.78 44.116C60.0733 43.4009 60.0733 42.5991 59.78 41.884C60.4819 41.696 61.0913 41.259 61.4947 40.6547C61.8981 40.0504 62.0679 39.32 61.9724 38.5997C61.8769 37.8794 61.5227 37.2185 60.9758 36.7401C60.4289 36.2618 59.7266 35.9987 59 36H41C40.5091 35.9984 40.0254 36.1176 39.5915 36.3472C39.1576 36.5768 38.7869 36.9097 38.5121 37.3165C38.2374 37.7233 38.067 38.1915 38.0161 38.6797C37.9651 39.168 38.0352 39.6613 38.22 40.116C37.5835 40.2842 37.0204 40.6583 36.6187 41.18C36.217 41.7017 35.9992 42.3416 35.9992 43C35.9992 43.6584 36.217 44.2984 36.6187 44.82C37.0204 45.3417 37.5835 45.7158 38.22 45.884C37.9268 46.5991 37.9268 47.4009 38.22 48.116C37.5835 48.2842 37.0204 48.6583 36.6187 49.18C36.217 49.7017 35.9992 50.3416 35.9992 51C35.9992 51.6584 36.217 52.2984 36.6187 52.82C37.0204 53.3417 37.5835 53.7158 38.22 53.884C37.9268 54.5991 37.9268 55.4009 38.22 56.116C37.5182 56.3041 36.9088 56.741 36.5054 57.3453C36.102 57.9496 35.9322 58.6801 36.0277 59.4003C36.1232 60.1206 36.4774 60.7816 37.0243 61.2599C37.5712 61.7383 38.2735 62.0013 39 62H57C57.4909 62.0017 57.9747 61.8825 58.4086 61.6529C58.8425 61.4233 59.2132 61.0904 59.488 60.6836C59.7627 60.2768 59.9331 59.8086 59.984 59.3203C60.035 58.8321 59.9649 58.3388 59.78 57.884C60.4166 57.7158 60.9796 57.3417 61.3814 56.82C61.7831 56.2984 62.0009 55.6584 62.0009 55C62.0009 54.3416 61.7831 53.7017 61.3814 53.18C60.9796 52.6583 60.4166 52.2842 59.78 52.116C60.0733 51.4009 60.0733 50.5991 59.78 49.884C60.415 49.7131 60.9762 49.3382 61.3773 48.8171C61.7784 48.296 61.9972 47.6576 62 47ZM41 38H59C59.2653 38 59.5196 38.1054 59.7072 38.2929C59.8947 38.4804 60 38.7348 60 39C60 39.2652 59.8947 39.5196 59.7072 39.7071C59.5196 39.8947 59.2653 40 59 40H41C40.7348 40 40.4805 39.8947 40.2929 39.7071C40.1054 39.5196 40 39.2652 40 39C40 38.7348 40.1054 38.4804 40.2929 38.2929C40.4805 38.1054 40.7348 38 41 38ZM39 42H57C57.2653 42 57.5196 42.1054 57.7072 42.2929C57.8947 42.4804 58 42.7348 58 43C58 43.2652 57.8947 43.5196 57.7072 43.7071C57.5196 43.8947 57.2653 44 57 44H39C38.7348 44 38.4805 43.8947 38.2929 43.7071C38.1054 43.5196 38 43.2652 38 43C38 42.7348 38.1054 42.4804 38.2929 42.2929C38.4805 42.1054 38.7348 42 39 42ZM39 50H57C57.2653 50 57.5196 50.1054 57.7072 50.2929C57.8947 50.4804 58 50.7348 58 51C58 51.2652 57.8947 51.5196 57.7072 51.7071C57.5196 51.8947 57.2653 52 57 52H39C38.7348 52 38.4805 51.8947 38.2929 51.7071C38.1054 51.5196 38 51.2652 38 51C38 50.7348 38.1054 50.4804 38.2929 50.2929C38.4805 50.1054 38.7348 50 39 50ZM57 60H39C38.7348 60 38.4805 59.8947 38.2929 59.7071C38.1054 59.5196 38 59.2652 38 59C38 58.7348 38.1054 58.4804 38.2929 58.2929C38.4805 58.1054 38.7348 58 39 58H57C57.2653 58 57.5196 58.1054 57.7072 58.2929C57.8947 58.4804 58 58.7348 58 59C58 59.2652 57.8947 59.5196 57.7072 59.7071C57.5196 59.8947 57.2653 60 57 60ZM59 56H41C40.7348 56 40.4805 55.8947 40.2929 55.7071C40.1054 55.5196 40 55.2652 40 55C40 54.7348 40.1054 54.4804 40.2929 54.2929C40.4805 54.1054 40.7348 54 41 54H59C59.2653 54 59.5196 54.1054 59.7072 54.2929C59.8947 54.4804 60 54.7348 60 55C60 55.2652 59.8947 55.5196 59.7072 55.7071C59.5196 55.8947 59.2653 56 59 56ZM59 48H41C40.7348 48 40.4805 47.8947 40.2929 47.7071C40.1054 47.5196 40 47.2652 40 47C40 46.7348 40.1054 46.4804 40.2929 46.2929C40.4805 46.1054 40.7348 46 41 46H59C59.2653 46 59.5196 46.1054 59.7072 46.2929C59.8947 46.4804 60 46.7348 60 47C60 47.2652 59.8947 47.5196 59.7072 47.7071C59.5196 47.8947 59.2653 48 59 48Z" fill="#008AE5"/>
</svg>