<svg width="64" height="64" viewBox="0 0 64 64" fill="none" xmlns="http://www.w3.org/2000/svg">
<path fill-rule="evenodd" clip-rule="evenodd" d="M56 25.569V28.08C57.6641 28.3214 59.1858 29.1533 60.2874 30.4238C61.3889 31.6942 61.9968 33.3185 62 35V61C62 61.2652 61.8946 61.5196 61.7071 61.7071C61.5196 61.8946 61.2652 62 61 62H41C40.7348 62 40.4804 61.8946 40.2929 61.7071C40.1054 61.5196 40 61.2652 40 61V52H34V53C34 53.2652 33.8946 53.5196 33.7071 53.7071C33.5196 53.8946 33.2652 54 33 54H27C26.7348 54 26.4804 53.8946 26.2929 53.7071C26.1054 53.5196 26 53.2652 26 53V50H23C21.8478 49.9985 20.7313 49.5999 19.8387 48.8713C18.9462 48.1427 18.3321 47.1286 18.1 46H9C8.73478 46 8.48043 45.8946 8.29289 45.7071C8.10536 45.5196 8 45.2652 8 45V21C8 20.7348 8.10536 20.4804 8.29289 20.2929C8.48043 20.1054 8.73478 20 9 20H37C37.2652 20 37.5196 20.1054 37.7071 20.2929C37.8946 20.4804 38 20.7348 38 21V42H40V35C40.0021 33.1441 40.7403 31.3649 42.0526 30.0526C43.3649 28.7403 45.1441 28.0021 47 28H48V25.929C46.3348 25.6863 44.8125 24.8529 43.7109 23.5808C42.6094 22.3086 42.0021 20.6828 42 19V14H36C35.7348 14 35.4804 13.8946 35.2929 13.7071C35.1054 13.5196 35 13.2652 35 13C35 12.7348 35.1054 12.4804 35.2929 12.2929C35.4804 12.1054 35.7348 12 36 12H41V11C41 8.61305 41.9482 6.32387 43.636 4.63604C45.3239 2.94821 47.6131 2 50 2C52.3869 2 54.6761 2.94821 56.364 4.63604C58.0518 6.32387 59 8.61305 59 11V13C59 13.2652 58.8946 13.5196 58.7071 13.7071C58.5196 13.8946 58.2652 14 58 14V21.769C58.0017 22.5175 57.8204 23.255 57.4718 23.9173C57.1232 24.5796 56.6179 25.1467 56 25.569ZM45.0503 6.05025C43.7375 7.36301 43 9.14348 43 11V12H57V11C57 9.14348 56.2625 7.36301 54.9497 6.05025C53.637 4.7375 51.8565 4 50 4C48.1435 4 46.363 4.7375 45.0503 6.05025ZM49 24H51C51.2652 24 51.5196 24.1054 51.7071 24.2929C51.8946 24.4804 52 24.7348 52 25C52 25.2652 51.8946 25.5196 51.7071 25.7071C51.5196 25.8946 51.2652 26 51 26H50V28H54V25C53.9999 24.8142 54.0516 24.632 54.1493 24.4739C54.247 24.3158 54.3868 24.1881 54.553 24.105C54.9891 23.8893 55.3558 23.5555 55.6116 23.1417C55.8674 22.7278 56.002 22.2505 56 21.764V14H44V19C44.0016 20.3256 44.5289 21.5964 45.4662 22.5338C46.4036 23.4711 47.6744 23.9984 49 24ZM16 22H10V44H26V41C26 40.7348 26.1054 40.4804 26.2929 40.2929C26.4804 40.1054 26.7348 40 27 40H33C33.2652 40 33.5196 40.1054 33.7071 40.2929C33.8946 40.4804 34 40.7348 34 41V42H36V22H30H27H25H21H19H16ZM21.2684 47.4486C21.7749 47.8066 22.3797 47.9992 23 48H26V46H20.171C20.3786 46.5845 20.7619 47.0905 21.2684 47.4486ZM28 42V52H32V42H28ZM45 44H34V50H47C48.8559 49.9979 50.6351 49.2597 51.9474 47.9474C53.2597 46.6351 53.9979 44.8559 54 43V37C54 36.2043 53.6839 35.4413 53.1213 34.8787C52.5587 34.3161 51.7957 34 51 34C50.2043 34 49.4413 34.3161 48.8787 34.8787C48.3161 35.4413 48 36.2043 48 37V41C48 41.7957 47.6839 42.5587 47.1213 43.1213C46.5587 43.6839 45.7957 44 45 44ZM53.361 49.361C51.6738 51.0483 49.3861 51.9974 47 52H42V56H60V35C59.9984 33.6744 59.4711 32.4036 58.5338 31.4662C57.5964 30.5289 56.3256 30.0016 55 30H47C45.6744 30.0016 44.4036 30.5289 43.4662 31.4662C42.5289 32.4036 42.0016 33.6744 42 35V42H45C45.2652 42 45.5196 41.8946 45.7071 41.7071C45.8946 41.5196 46 41.2652 46 41V37C46 35.6739 46.5268 34.4021 47.4645 33.4645C48.4021 32.5268 49.6739 32 51 32C52.3261 32 53.5979 32.5268 54.5355 33.4645C55.4732 34.4021 56 35.6739 56 37V43C55.9974 45.3861 55.0483 47.6738 53.361 49.361ZM42 58V60H60V58H42Z" fill="#008AE5"/>
</svg>