<svg xmlns="http://www.w3.org/2000/svg" width="26" height="26" viewBox="0 0 26 26"><defs><clipPath id="p66ha"><path fill="#fff" d="M0 26V0h26v26z"/></clipPath></defs><g><g><path fill="#fff" d="M0 26V0h26v26z"/><path fill="none" stroke="#62514b" stroke-miterlimit="20" stroke-opacity=".51" stroke-width="2" d="M0 26v0V0v0h26v26z" clip-path="url(&quot;#p66ha&quot;)"/></g><g><path fill="#62514b" d="M17.177 19.187v-4.24c0-1.011-.02-2.307-1.406-2.307-1.406 0-1.622 1.097-1.622 2.233v4.314h-2.702v-8.711h2.594v1.188h.038c.361-.685 1.244-1.407 2.56-1.407 2.737 0 3.24 1.803 3.24 4.144v4.786zM8.4 9.287a1.58 1.58 0 0 1-1.567-1.581 1.567 1.567 0 0 1 3.133 0A1.58 1.58 0 0 1 8.4 9.287zm1.354 9.9H7.048v-8.711h2.705z"/></g></g></svg>