<svg width="64" height="64" viewBox="0 0 64 64" fill="none" xmlns="http://www.w3.org/2000/svg">
<path d="M57 8H52V6C52 4.93913 51.5786 3.92172 50.8284 3.17157C50.0783 2.42143 49.0609 2 48 2C46.9391 2 45.9217 2.42143 45.1716 3.17157C44.4214 3.92172 44 4.93913 44 6V8H36V6C36 4.93913 35.5786 3.92172 34.8284 3.17157C34.0783 2.42143 33.0609 2 32 2C30.9391 2 29.9217 2.42143 29.1716 3.17157C28.4214 3.92172 28 4.93913 28 6V8H20V6C20 4.93913 19.5786 3.92172 18.8284 3.17157C18.0783 2.42143 17.0609 2 16 2C14.9391 2 13.9217 2.42143 13.1716 3.17157C12.4214 3.92172 12 4.93913 12 6V8H7C5.67392 8 4.40215 8.52678 3.46447 9.46447C2.52678 10.4021 2 11.6739 2 13V53C2 54.3261 2.52678 55.5979 3.46447 56.5355C4.40215 57.4732 5.67392 58 7 58H35C35.2652 58 35.5196 57.8946 35.7071 57.7071C35.8946 57.5196 36 57.2652 36 57C36 56.7348 35.8946 56.4804 35.7071 56.2929C35.5196 56.1054 35.2652 56 35 56H7C6.20508 55.9976 5.4434 55.6808 4.8813 55.1187C4.31921 54.5566 4.00237 53.7949 4 53V22H60V39C60 39.2652 60.1054 39.5196 60.2929 39.7071C60.4804 39.8946 60.7348 40 61 40C61.2652 40 61.5196 39.8946 61.7071 39.7071C61.8946 39.5196 62 39.2652 62 39V13C62 11.6739 61.4732 10.4021 60.5355 9.46447C59.5979 8.52678 58.3261 8 57 8ZM46 6C46 5.46957 46.2107 4.96086 46.5858 4.58579C46.9609 4.21071 47.4696 4 48 4C48.5304 4 49.0391 4.21071 49.4142 4.58579C49.7893 4.96086 50 5.46957 50 6V12C50 12.5304 49.7893 13.0391 49.4142 13.4142C49.0391 13.7893 48.5304 14 48 14C47.4696 14 46.9609 13.7893 46.5858 13.4142C46.2107 13.0391 46 12.5304 46 12V6ZM30 6C30 5.46957 30.2107 4.96086 30.5858 4.58579C30.9609 4.21071 31.4696 4 32 4C32.5304 4 33.0391 4.21071 33.4142 4.58579C33.7893 4.96086 34 5.46957 34 6V12C34 12.5304 33.7893 13.0391 33.4142 13.4142C33.0391 13.7893 32.5304 14 32 14C31.4696 14 30.9609 13.7893 30.5858 13.4142C30.2107 13.0391 30 12.5304 30 12V6ZM14 6C14 5.46957 14.2107 4.96086 14.5858 4.58579C14.9609 4.21071 15.4696 4 16 4C16.5304 4 17.0391 4.21071 17.4142 4.58579C17.7893 4.96086 18 5.46957 18 6V12C18 12.5304 17.7893 13.0391 17.4142 13.4142C17.0391 13.7893 16.5304 14 16 14C15.4696 14 14.9609 13.7893 14.5858 13.4142C14.2107 13.0391 14 12.5304 14 12V6ZM60 20H4V13C4.00237 12.2051 4.31921 11.4434 4.8813 10.8813C5.4434 10.3192 6.20508 10.0024 7 10H12V12C12 13.0609 12.4214 14.0783 13.1716 14.8284C13.9217 15.5786 14.9391 16 16 16C17.0609 16 18.0783 15.5786 18.8284 14.8284C19.5786 14.0783 20 13.0609 20 12V10H28V12C28 13.0609 28.4214 14.0783 29.1716 14.8284C29.9217 15.5786 30.9391 16 32 16C33.0609 16 34.0783 15.5786 34.8284 14.8284C35.5786 14.0783 36 13.0609 36 12V10H44V12C44 13.0609 44.4214 14.0783 45.1716 14.8284C45.9217 15.5786 46.9391 16 48 16C49.0609 16 50.0783 15.5786 50.8284 14.8284C51.5786 14.0783 52 13.0609 52 12V10H57C57.7949 10.0024 58.5566 10.3192 59.1187 10.8813C59.6808 11.4434 59.9976 12.2051 60 13V20Z" fill="#008AE5"/>
<path d="M30 29C30 28.4696 29.7893 27.9609 29.4142 27.5858C29.0391 27.2107 28.5304 27 28 27H24C23.4696 27 22.9609 27.2107 22.5858 27.5858C22.2107 27.9609 22 28.4696 22 29V32C22 32.5304 22.2107 33.0391 22.5858 33.4142C22.9609 33.7893 23.4696 34 24 34H28C28.5304 34 29.0391 33.7893 29.4142 33.4142C29.7893 33.0391 30 32.5304 30 32V29ZM24 32V29H28V32H24Z" fill="#008AE5"/>
<path d="M18 29C18 28.4696 17.7893 27.9609 17.4142 27.5858C17.0391 27.2107 16.5304 27 16 27H12C11.4696 27 10.9609 27.2107 10.5858 27.5858C10.2107 27.9609 10 28.4696 10 29V32C10 32.5304 10.2107 33.0391 10.5858 33.4142C10.9609 33.7893 11.4696 34 12 34H16C16.5304 34 17.0391 33.7893 17.4142 33.4142C17.7893 33.0391 18 32.5304 18 32V29ZM12 32V29H16V32H12Z" fill="#008AE5"/>
<path d="M52 34C52.5304 34 53.0391 33.7893 53.4142 33.4142C53.7893 33.0391 54 32.5304 54 32V29C54 28.4696 53.7893 27.9609 53.4142 27.5858C53.0391 27.2107 52.5304 27 52 27H48C47.4696 27 46.9609 27.2107 46.5858 27.5858C46.2107 27.9609 46 28.4696 46 29V32C46 32.5304 46.2107 33.0391 46.5858 33.4142C46.9609 33.7893 47.4696 34 48 34H52ZM48 29H52V32H48V29Z" fill="#008AE5"/>
<path d="M30 38C30 37.4696 29.7893 36.9609 29.4142 36.5858C29.0391 36.2107 28.5304 36 28 36H24C23.4696 36 22.9609 36.2107 22.5858 36.5858C22.2107 36.9609 22 37.4696 22 38V41C22 41.5304 22.2107 42.0391 22.5858 42.4142C22.9609 42.7893 23.4696 43 24 43H28C28.5304 43 29.0391 42.7893 29.4142 42.4142C29.7893 42.0391 30 41.5304 30 41V38ZM24 41V38H28V41H24Z" fill="#008AE5"/>
<path d="M18 38C18 37.4696 17.7893 36.9609 17.4142 36.5858C17.0391 36.2107 16.5304 36 16 36H12C11.4696 36 10.9609 36.2107 10.5858 36.5858C10.2107 36.9609 10 37.4696 10 38V41C10 41.5304 10.2107 42.0391 10.5858 42.4142C10.9609 42.7893 11.4696 43 12 43H16C16.5304 43 17.0391 42.7893 17.4142 42.4142C17.7893 42.0391 18 41.5304 18 41V38ZM12 41V38H16V41H12Z" fill="#008AE5"/>
<path d="M28 45H24C23.4696 45 22.9609 45.2107 22.5858 45.5858C22.2107 45.9609 22 46.4696 22 47V50C22 50.5304 22.2107 51.0391 22.5858 51.4142C22.9609 51.7893 23.4696 52 24 52H28C28.5304 52 29.0391 51.7893 29.4142 51.4142C29.7893 51.0391 30 50.5304 30 50V47C30 46.4696 29.7893 45.9609 29.4142 45.5858C29.0391 45.2107 28.5304 45 28 45ZM24 50V47H28V50H24Z" fill="#008AE5"/>
<path d="M36 34H40C40.5304 34 41.0391 33.7893 41.4142 33.4142C41.7893 33.0391 42 32.5304 42 32V29C42 28.4696 41.7893 27.9609 41.4142 27.5858C41.0391 27.2107 40.5304 27 40 27H36C35.4696 27 34.9609 27.2107 34.5858 27.5858C34.2107 27.9609 34 28.4696 34 29V32C34 32.5304 34.2107 33.0391 34.5858 33.4142C34.9609 33.7893 35.4696 34 36 34ZM36 29H40V32H36V29Z" fill="#008AE5"/>
<path d="M34 41C34 41.5304 34.2107 42.0391 34.5858 42.4142C34.9609 42.7893 35.4696 43 36 43C36.2652 43 36.5196 42.8946 36.7071 42.7071C36.8946 42.5196 37 42.2652 37 42C37 41.7348 36.8946 41.4804 36.7071 41.2929C36.5196 41.1054 36.2652 41 36 41V38H40C40.2652 38 40.5196 37.8946 40.7071 37.7071C40.8946 37.5196 41 37.2652 41 37C41 36.7348 40.8946 36.4804 40.7071 36.2929C40.5196 36.1054 40.2652 36 40 36H36C35.4696 36 34.9609 36.2107 34.5858 36.5858C34.2107 36.9609 34 37.4696 34 38V41Z" fill="#008AE5"/>
<path d="M16 45H12C11.4696 45 10.9609 45.2107 10.5858 45.5858C10.2107 45.9609 10 46.4696 10 47V50C10 50.5304 10.2107 51.0391 10.5858 51.4142C10.9609 51.7893 11.4696 52 12 52H16C16.5304 52 17.0391 51.7893 17.4142 51.4142C17.7893 51.0391 18 50.5304 18 50V47C18 46.4696 17.7893 45.9609 17.4142 45.5858C17.0391 45.2107 16.5304 45 16 45ZM12 50V47H16V50H12Z" fill="#008AE5"/>
<path d="M48.9999 36C46.4288 36 43.9154 36.7624 41.7775 38.1909C39.6397 39.6194 37.9735 41.6497 36.9895 44.0251C36.0056 46.4005 35.7481 49.0144 36.2497 51.5362C36.7513 54.0579 37.9895 56.3743 39.8076 58.1924C41.6256 60.0105 43.942 61.2486 46.4638 61.7502C48.9855 62.2518 51.5994 61.9944 53.9748 61.0104C56.3503 60.0265 58.3806 58.3602 59.809 56.2224C61.2375 54.0846 61.9999 51.5711 61.9999 49C61.996 45.5534 60.625 42.2491 58.1879 39.812C55.7508 37.3749 52.4465 36.004 48.9999 36ZM48.9999 60C46.8243 60 44.6976 59.3548 42.8887 58.1462C41.0797 56.9375 39.6698 55.2195 38.8373 53.2095C38.0047 51.1995 37.7869 48.9878 38.2113 46.854C38.6357 44.7202 39.6834 42.7602 41.2218 41.2218C42.7601 39.6834 44.7202 38.6358 46.8539 38.2114C48.9877 37.7869 51.1995 38.0048 53.2095 38.8373C55.2194 39.6699 56.9374 41.0798 58.1461 42.8887C59.3548 44.6977 59.9999 46.8244 59.9999 49C59.9965 51.9163 58.8365 54.7122 56.7743 56.7744C54.7122 58.8365 51.9163 59.9965 48.9999 60Z" fill="#008AE5"/>
<path d="M54.7779 44.8081L46.9999 52.5861L43.4649 49.0501C43.2763 48.8679 43.0237 48.7671 42.7615 48.7694C42.4993 48.7717 42.2485 48.8768 42.0631 49.0622C41.8777 49.2476 41.7725 49.4985 41.7703 49.7607C41.768 50.0229 41.8688 50.2755 42.0509 50.4641L46.2929 54.7071C46.4805 54.8945 46.7348 54.9998 46.9999 54.9998C47.2651 54.9998 47.5194 54.8945 47.7069 54.7071L56.1919 46.2221C56.3741 46.0335 56.4749 45.7809 56.4726 45.5187C56.4703 45.2565 56.3652 45.0056 56.1798 44.8202C55.9943 44.6348 55.7435 44.5297 55.4813 44.5274C55.2191 44.5251 54.9665 44.6259 54.7779 44.8081Z" fill="#008AE5"/>
</svg>