<svg xmlns="http://www.w3.org/2000/svg">
    <symbol id="download" viewBox="0 0 40 40" fill="none" xmlns="http://www.w3.org/2000/svg">
        <path d="M0 6C0 2.68629 2.68629 0 6 0H34C37.3137 0 40 2.68629 40 6V34C40 37.3137 37.3137 40 34 40H6C2.68629 40 0 37.3137 0 34V6Z"
              fill="none"/>
        <path d="M29.75 23.25V27.5833C29.75 28.158 29.5217 28.7091 29.1154 29.1154C28.7091 29.5217 28.158 29.75 27.5833 29.75H12.4167C11.842 29.75 11.2909 29.5217 10.8846 29.1154C10.4783 28.7091 10.25 28.158 10.25 27.5833V23.25"
              stroke="var(--c2, #454242)" stroke-width="1.5" stroke-linecap="round" stroke-linejoin="round"/>
        <path d="M14.5833 17.8333L19.9999 23.25L25.4166 17.8333" stroke="var(--c1, #454242)" stroke-width="1.5"
              stroke-linecap="round" stroke-linejoin="round"/>
        <path d="M20 23.25V10.25" stroke="var(--c1, #454242)" stroke-width="1.5" stroke-linecap="round"
              stroke-linejoin="round"/>
    </symbol>
    <symbol id="print" viewBox="0 0 40 40" fill="none" xmlns="http://www.w3.org/2000/svg">
        <path d="M0 6C0 2.68629 2.68629 0 6 0H34C37.3137 0 40 2.68629 40 6V34C40 37.3137 37.3137 40 34 40H6C2.68629 40 0 37.3137 0 34V6Z"
              fill="none"/>
        <path d="M13.5 16.75V9.16666H26.5V16.75" stroke="var(--c2,#8C8C8C)" stroke-width="1.5" stroke-linecap="round"
              stroke-linejoin="round"/>
        <path d="M13.5001 26.5H11.3334C10.7588 26.5 10.2077 26.2717 9.80135 25.8654C9.39502 25.4591 9.16675 24.908 9.16675 24.3333V18.9167C9.16675 18.342 9.39502 17.7909 9.80135 17.3846C10.2077 16.9783 10.7588 16.75 11.3334 16.75H28.6668C29.2414 16.75 29.7925 16.9783 30.1988 17.3846C30.6051 17.7909 30.8334 18.342 30.8334 18.9167V24.3333C30.8334 24.908 30.6051 25.4591 30.1988 25.8654C29.7925 26.2717 29.2414 26.5 28.6668 26.5H26.5001"
              stroke="var(--c1,#8C8C8C)" stroke-width="1.5" stroke-linecap="round" stroke-linejoin="round"/>
        <path d="M26.5 22.1667H13.5V30.8333H26.5V22.1667Z" stroke="var(--c1,#8C8C8C)" stroke-width="1.5" stroke-linecap="round"
              stroke-linejoin="round"/>
    </symbol>
    <symbol id="info" viewBox="0 0 18 18" fill="currentColor" xmlns="http://www.w3.org/2000/svg">
        <path fill-rule="evenodd" clip-rule="evenodd"
              d="M0.75 9C0.75 13.5563 4.44365 17.25 9 17.25C13.5563 17.25 17.25 13.5563 17.25 9C17.25 4.44365 13.5563 0.75 9 0.75C4.44365 0.75 0.75 4.44365 0.75 9ZM15.75 9C15.75 12.7279 12.7279 15.75 9 15.75C5.27208 15.75 2.25 12.7279 2.25 9C2.25 5.27208 5.27208 2.25 9 2.25C12.7279 2.25 15.75 5.27208 15.75 9ZM9.00025 12.7488C9.4146 12.7488 9.75049 12.413 9.75049 11.9988C9.75049 11.5845 9.4146 11.2488 9.00025 11.2488C8.5859 11.2488 8.25 11.5845 8.25 11.9988C8.25 12.413 8.5859 12.7488 9.00025 12.7488ZM8.25 10.5H9.75C9.75 9.90124 9.84406 9.79149 10.4604 9.48332C11.5316 8.94774 12 8.40124 12 7.125C12 5.49047 10.7133 4.5 9 4.5C7.34315 4.5 6 5.84315 6 7.5H7.5C7.5 6.67157 8.17157 6 9 6C9.95787 6 10.5 6.4173 10.5 7.125C10.5 7.72376 10.4059 7.83351 9.78959 8.14168C8.71844 8.67726 8.25 9.22376 8.25 10.5Z"
        />
    </symbol>
    <symbol id="chevron" viewBox="0 0 24 24" fill="currentColor" xmlns="http://www.w3.org/2000/svg">
        <path d="M13.0396 16.1222L22.069 8.20198C22.6437 7.69816 22.6437 6.88129 22.069 6.37772C21.4948 5.8741 20.5636 5.8741 19.9895 6.37772L11.9998 13.3859L4.0105 6.37792C3.43611 5.8743 2.50496 5.8743 1.9308 6.37792C1.3564 6.88154 1.3564 7.69836 1.9308 8.20218L10.9603 16.1224C11.2475 16.3742 11.6236 16.5 11.9998 16.5C12.3762 16.5 12.7525 16.374 13.0396 16.1222Z"
        />
    </symbol>
    <symbol id="zp" viewBox="0 0 40 40" fill="none" xmlns="http://www.w3.org/2000/svg">
        <path d="M23.7949 10.3148H23.4734C24.2052 9.49279 24.6509 8.41084 24.6509 7.22624V5.58265V4.82226V4.65116C24.6509 2.08648 22.5645 0 19.9999 0C17.4353 0 15.3489 2.08648 15.3489 4.65109V4.82218V5.58257V7.22624C15.3489 8.41077 15.7947 9.49272 16.5265 10.3148H16.2049C13.0171 10.3148 10.4237 12.9083 10.4237 16.0961V20C10.4237 20.4314 10.7735 20.7812 11.205 20.7812H28.7949C29.2263 20.7812 29.5762 20.4314 29.5762 20V16.0961C29.5762 12.9083 26.9827 10.3148 23.7949 10.3148ZM19.9999 1.5625C21.5491 1.5625 22.8356 2.70898 23.0553 4.19804L21.6767 3.38812C21.3477 3.19476 20.9273 3.26757 20.6822 3.55992C20.0211 4.3489 19.0517 4.80132 18.0223 4.80132H16.9114V4.65109C16.9114 2.94804 18.2969 1.5625 19.9999 1.5625ZM16.9114 6.36389H18.0223C19.2899 6.36389 20.4948 5.89077 21.4166 5.04749L23.0884 6.02975V7.22632C23.0884 8.92936 21.703 10.3149 19.9999 10.3149C18.2969 10.3149 16.9114 8.92928 16.9114 7.22632V6.36389ZM28.0137 19.2187H11.9862V16.0961C11.9862 13.7698 13.8788 11.8773 16.2049 11.8773H19.2187V13.4375C19.2187 13.869 19.5685 14.2187 19.9999 14.2187C20.4313 14.2187 20.7812 13.869 20.7812 13.4375V11.8773H23.7949C26.1211 11.8773 28.0137 13.7698 28.0137 16.0961V19.2187Z"
              fill="var(--c1, #454242)"/>
        <path d="M12.0312 31.161H10.9535C11.364 30.5722 11.6056 29.8573 11.6056 29.0867V28.3728C11.6056 26.3674 9.97412 24.7359 7.96874 24.7359C5.96335 24.7359 4.33187 26.3674 4.33187 28.3728V29.0867C4.33187 29.8573 4.57351 30.5722 4.98398 31.161H3.90624C1.75234 31.161 0 32.9134 0 35.0673V39.2188C0 39.6502 0.349843 40 0.781249 40H15.1562C15.5876 40 15.9375 39.6502 15.9375 39.2188V35.0673C15.9375 32.9134 14.1851 31.161 12.0312 31.161ZM5.89436 28.3728C5.89436 27.2289 6.82491 26.2984 7.96874 26.2984C9.11256 26.2984 10.0431 27.2289 10.0431 28.3728V29.0867C10.0431 30.2305 9.11256 31.161 7.96874 31.161C6.82491 31.161 5.89436 30.2305 5.89436 29.0867V28.3728ZM14.375 38.4375H1.5625V35.0673C1.5625 33.7749 2.6139 32.7235 3.90624 32.7235H7.18749V34.2969C7.18749 34.7284 7.53733 35.0781 7.96874 35.0781C8.40014 35.0781 8.74998 34.7284 8.74998 34.2969V32.7235H12.0312C13.3236 32.7235 14.375 33.7749 14.375 35.0673V38.4375Z"
              fill="var(--c1, #454242)"/>
        <path d="M36.0937 31.161H35.016C35.4265 30.5722 35.6681 29.8573 35.6681 29.0867V28.3728C35.6681 26.3674 34.0366 24.7359 32.0312 24.7359C30.0258 24.7359 28.3944 26.3674 28.3944 28.3728V29.0867C28.3944 29.8573 28.636 30.5722 29.0465 31.161H27.9687C25.8148 31.161 24.0625 32.9134 24.0625 35.0673V39.2188C24.0625 39.6502 24.4123 40 24.8437 40H39.2187C39.6501 40 40 39.6502 40 39.2188V35.0673C40 32.9134 38.2476 31.161 36.0937 31.161ZM29.9569 28.3728C29.9569 27.2289 30.8874 26.2984 32.0312 26.2984C33.1751 26.2984 34.1056 27.2289 34.1056 28.3728V29.0867C34.1056 30.2305 33.1751 31.161 32.0312 31.161C30.8874 31.161 29.9569 30.2305 29.9569 29.0867V28.3728ZM38.4375 38.4375H25.625V35.0673C25.625 33.7749 26.6764 32.7235 27.9687 32.7235H31.25V34.2969C31.25 34.7284 31.5998 35.0781 32.0312 35.0781C32.4626 35.0781 32.8125 34.7284 32.8125 34.2969V32.7235H36.0937C37.3861 32.7235 38.4375 33.7749 38.4375 35.0673V38.4375Z"
              fill="var(--c1, #454242)"/>
        <path d="M24.8727 30.4631L20.7812 26.3716V23.0859C20.7812 22.6544 20.4313 22.3046 19.9999 22.3046C19.5685 22.3046 19.2187 22.6544 19.2187 23.0859V26.3716L15.1271 30.4631C14.822 30.7682 14.822 31.2629 15.1271 31.5681C15.4323 31.8731 15.9268 31.8731 16.232 31.5681L19.9999 27.8L23.7678 31.568C23.9204 31.7206 24.1203 31.7968 24.3202 31.7968C24.5202 31.7968 24.7202 31.7206 24.8727 31.568C25.1778 31.2629 25.1778 30.7682 24.8727 30.4631Z"
              fill="var(--c2, #B7B7B7)"/>
        <path d="M20.5523 15.8929C20.407 15.7476 20.2055 15.664 20 15.664C19.7945 15.664 19.593 15.7476 19.4477 15.8929C19.3023 16.0382 19.2188 16.2398 19.2188 16.4453C19.2188 16.6507 19.3023 16.8523 19.4477 16.9976C19.593 17.1429 19.7945 17.2265 20 17.2265C20.2055 17.2265 20.407 17.1429 20.5523 16.9976C20.6976 16.8523 20.7812 16.6507 20.7812 16.4453C20.7812 16.2398 20.6977 16.0382 20.5523 15.8929Z"
              fill="var(--c1, #454242)"/>
    </symbol>
    <symbol id="unf" viewBox="0 0 40 40" fill="none" xmlns="http://www.w3.org/2000/svg">
        <path d="M35.8074 7.52533L32.474 4.192C32.2509 3.96858 31.9016 3.93242 31.6374 4.10533L27.9334 6.53333L23.9394 4.86667L23.3267 0.572C23.2796 0.243667 22.9984 -8.3312e-05 22.6667 2.1361e-08H17.3334C17.0017 -8.3312e-05 16.7204 0.243667 16.6734 0.572L16.06 4.86667L12.07 6.53333L8.36536 4.10667C8.10111 3.93375 7.75186 3.96992 7.52869 4.19333L4.19536 7.52667C3.97169 7.75042 3.93602 8.1005 4.11002 8.36467L6.57669 12.1113L6.16336 13.0667L7.38736 13.596L7.94402 12.3107C8.03344 12.1042 8.01261 11.8665 7.88869 11.6787L5.52069 8.08533L8.08669 5.51933L11.6347 7.84333C11.8204 7.96358 12.0534 7.98508 12.258 7.90067L16.9247 5.94667C17.1402 5.85533 17.292 5.65775 17.3247 5.426L17.9114 1.33333H22.0887L22.6734 5.428C22.706 5.65975 22.8579 5.85733 23.0734 5.94867L27.74 7.90133C27.9444 7.98575 28.1772 7.96425 28.3627 7.844L31.912 5.52133L34.496 8.10533L32.7627 11.0387C32.6595 11.2126 32.6409 11.424 32.712 11.6133L33.4514 13.566L34.6987 13.094L34.0727 11.4413L35.9094 8.336C36.0644 8.07417 36.0224 7.74058 35.8074 7.52533Z"
              fill="var(--c2, #B7B7B7)"/>
        <path d="M27.1381 25.5287L25.1381 23.5287C25.0131 23.4037 24.8436 23.3333 24.6667 23.3333H15.3334C15.1566 23.3333 14.9871 23.4037 14.8621 23.5287L12.8621 25.5287C12.7371 25.6537 12.6667 25.8232 12.6667 26V39.3333C12.6667 39.7015 12.9652 40 13.3334 40H26.6667C27.0349 40 27.3334 39.7015 27.3334 39.3333V26C27.3334 25.8232 27.2631 25.6537 27.1381 25.5287ZM22.2761 24.6667H24.3907L22.0001 27.0573L20.9427 26L22.2761 24.6667ZM21.0574 28L20.1954 28.862C20.07 28.9867 19.9997 29.1564 20.0001 29.3333C19.9988 29.1582 19.9287 28.9905 19.8047 28.8667L18.9427 28L20.0001 26.9427L21.0574 28ZM20.3907 24.6667L20.0001 25.0573L19.6094 24.6667H20.3907ZM17.7241 24.6667L19.0574 26L18.0001 27.0573L15.6094 24.6667H17.7241ZM17.4167 38.6667H14.0001V26.276L14.6667 25.6093L17.5287 28.4713L18.6287 29.5713L17.4167 38.6667ZM18.7621 38.6667L19.9941 29.4213C19.9981 29.3932 20.0001 29.365 20.0001 29.3367C20.0002 29.3794 20.0047 29.4221 20.0134 29.464L21.8534 38.6667H18.7621ZM26.0001 38.6667H23.2134L21.3907 29.5527L22.4714 28.4713L25.3334 25.6093L26.0001 26.276V38.6667Z"
              fill="var(--c1, #454242)"/>
        <path d="M24.6667 8.66667H18.6667C16.4585 8.66884 14.6689 10.4584 14.6667 12.6667V16.6667C14.6701 19.6108 17.0559 21.9967 20.0001 22C22.9442 21.9967 25.3301 19.6108 25.3334 16.6667V9.33334C25.3334 8.96517 25.0349 8.66667 24.6667 8.66667ZM24.0001 16.6667C24.0001 18.8758 22.2092 20.6667 20.0001 20.6667C17.7909 20.6667 16.0001 18.8758 16.0001 16.6667V14H21.3334C22.3187 13.9998 23.269 13.6339 24.0001 12.9733V16.6667ZM21.3334 12.6667H16.0001C16.0001 11.1939 17.194 10 18.6667 10H24.0001C24.0001 11.4728 22.8062 12.6667 21.3334 12.6667Z"
              fill="var(--c1, #454242)"/>
        <path d="M39.8046 28.1953L37.8046 26.1953C37.6796 26.0703 37.5101 26 37.3333 26H31.9999C31.8231 26 31.6536 26.0703 31.5286 26.1953L29.5286 28.1953C29.4036 28.3203 29.3333 28.4898 29.3333 28.6667V39.3333C29.3333 39.7015 29.6318 40 29.9999 40H39.3333C39.7014 40 39.9999 39.7015 39.9999 39.3333V28.6667C39.9999 28.4898 39.9296 28.3203 39.8046 28.1953ZM38.6666 38.6667H35.3333V28.6667H33.9999V38.6667H30.6666V28.9427L31.9999 27.6093L33.5286 29.138L33.9999 28.6667L34.4713 28.1953L33.6093 27.3333H35.7766L34.8759 28.1807L35.3333 28.6667L35.7906 29.1527L37.3799 27.656L38.6666 28.9427V38.6667Z"
              fill="var(--c1, #454242)"/>
        <path d="M35.3333 14.6667H34.022C32.187 14.6703 30.6986 16.1537 30.6887 17.9887L30.678 21.3267C30.6707 23.5321 32.4525 25.3259 34.658 25.3333C34.6624 25.3333 34.6669 25.3333 34.6713 25.3333C36.8761 25.3308 38.663 23.5448 38.6667 21.34V18C38.6645 16.16 37.1733 14.6688 35.3333 14.6667ZM32.022 17.9933C32.0256 16.8999 32.9067 16.012 34 16C34.0001 17.096 33.118 17.9879 32.022 18V17.9933ZM37.3333 21.338C37.3308 22.8063 36.1417 23.9963 34.6733 24C33.2043 24 32.0133 22.8091 32.0133 21.34C32.0133 21.3378 32.0133 21.3356 32.0133 21.3333L32.02 19.3333C33.0622 19.3271 34.0414 18.8338 34.6667 18C35.2962 18.8393 36.2842 19.3333 37.3333 19.3333V21.338ZM35.3333 16C36.4379 16 37.3333 16.8954 37.3333 18C36.2288 18 35.3333 17.1046 35.3333 16Z"
              fill="var(--c1, #454242)"/>
        <path d="M10.4713 28.1953L8.47133 26.1953C8.34633 26.0703 8.17683 26 8 26H2.66667C2.48983 26 2.32033 26.0703 2.19533 26.1953L0.195333 28.1953C0.0703333 28.3203 0 28.4898 0 28.6667V39.3333C0 39.7015 0.2985 40 0.666667 40H10C10.3682 40 10.6667 39.7015 10.6667 39.3333V28.6667C10.6667 28.4898 10.5963 28.3203 10.4713 28.1953ZM9.33333 38.6667H6V28.6667H4.66667V38.6667H1.33333V28.9427L2.66667 27.6093L4.19533 29.138L4.66667 28.6667L5.138 28.1953L4.276 27.3333H6.44333L5.54267 28.1807L6 28.6667L6.45733 29.1527L8.04667 27.656L9.33333 28.9427V38.6667Z"
              fill="var(--c1, #454242)"/>
        <path d="M5.99996 14.6667H4.68863C2.85363 14.6703 1.36521 16.1537 1.35529 17.9887L1.34463 21.3267C1.33729 23.5321 3.11913 25.3259 5.32463 25.3333C5.32904 25.3333 5.33354 25.3333 5.33796 25.3333C7.54271 25.3308 9.32963 23.5448 9.33329 21.34V18C9.33113 16.16 7.83996 14.6688 5.99996 14.6667ZM5.99996 16C6.84446 16.0035 7.59579 16.5371 7.87729 17.3333H6.66663C5.82213 17.3298 5.07079 16.7963 4.78929 16H5.99996ZM3.33329 16.5387V16.6607C3.33413 16.8381 3.26321 17.0083 3.13663 17.1327C3.04996 17.217 2.94104 17.2748 2.82263 17.2993C2.93171 17.0097 3.10654 16.7493 3.33329 16.5387ZM7.99996 21.34C7.99629 22.8076 6.80754 23.9963 5.33996 24C3.87088 24 2.67996 22.8091 2.67996 21.34C2.67996 21.3378 2.67996 21.3356 2.67996 21.3333L2.68863 18.6613C3.21054 18.6584 3.71029 18.4498 4.07929 18.0807C4.18471 17.9739 4.27788 17.8559 4.35729 17.7287C4.97588 18.3296 5.80421 18.666 6.66663 18.6667H7.99996V21.34Z"
              fill="var(--c1, #454242)"/>
    </symbol>
    <symbol id="buh" viewBox="0 0 40 40" fill="none" xmlns="http://www.w3.org/2000/svg">
        <path d="M30.9827 8.84161L33.7961 2.22373C33.9491 1.86378 33.8125 1.44608 33.4763 1.24618L32.0958 0.42539C31.0134 -0.218237 29.631 -0.115238 28.6559 0.681324L28.4427 0.85536C27.9129 1.28838 27.1438 1.28838 26.6133 0.855047L26.6048 0.848092C25.5002 -0.054126 23.8981 -0.0527974 22.7951 0.851531C22.2649 1.28627 21.4948 1.28674 20.964 0.853094L20.7475 0.676167C19.777 -0.116801 18.3992 -0.222535 17.3192 0.413121L15.9017 1.24727C15.5627 1.44678 15.4248 1.86714 15.5797 2.22873L18.4107 8.83598C16.3629 9.57573 14.6156 10.9906 13.4691 12.8491C13.2424 13.2163 13.3564 13.6979 13.7236 13.9245C14.0908 14.1511 14.5721 14.037 14.7988 13.6697C15.7828 12.0746 17.2941 10.8678 19.0638 10.2607H30.3112C33.5881 11.3834 35.7812 14.4463 35.7812 17.9207V19.9941C35.7812 20.4256 36.1309 20.7756 36.5624 20.7756C36.9939 20.7756 37.3437 20.4256 37.3437 19.9941V17.9207C37.3437 13.8344 34.8004 10.2264 30.9827 8.84161ZM29.3458 8.69774H20.0513L17.2866 2.24546L18.1113 1.76023C18.6303 1.45468 19.2925 1.50555 19.759 1.88668L19.9755 2.06353C21.08 2.96606 22.6824 2.96473 23.7856 2.06032C24.3156 1.62566 25.0856 1.62512 25.617 2.05907L25.6255 2.06603C26.7281 2.96668 28.3285 2.96668 29.431 2.06587L29.6441 1.89184C30.1127 1.50907 30.777 1.4596 31.2973 1.76883L32.0909 2.24069L29.3458 8.69774Z"
              fill="var(--c2, #B7B7B7)"/>
        <path d="M37.1148 22.3941C36.9695 22.2487 36.768 22.1651 36.5625 22.1651C36.357 22.1651 36.1555 22.2487 36.0102 22.3941C35.8648 22.5402 35.7812 22.741 35.7812 22.9466C35.7812 23.1521 35.8648 23.3538 36.0102 23.499C36.1555 23.6452 36.357 23.7288 36.5625 23.7288C36.768 23.7288 36.9695 23.6452 37.1148 23.499C37.2602 23.3538 37.3437 23.1521 37.3437 22.9466C37.3437 22.741 37.2602 22.5394 37.1148 22.3941Z"
              fill="var(--c1, #454242)"/>
        <path d="M11.9514 34.8539C11.8061 34.7085 11.6045 34.6249 11.399 34.6249C11.1936 34.6249 10.992 34.7085 10.8467 34.8539C10.7014 34.9993 10.6178 35.2009 10.6178 35.4064C10.6178 35.6119 10.7014 35.8136 10.8467 35.9589C10.992 36.1042 11.1936 36.1879 11.399 36.1879C11.6045 36.1879 11.8061 36.1043 11.9514 35.9589C12.0967 35.8136 12.1803 35.6119 12.1803 35.4064C12.1803 35.2009 12.0967 34.9993 11.9514 34.8539Z"
              fill="var(--c1, #454242)"/>
        <path d="M40 32.6541C40 31.7889 39.628 31.0093 39.0358 30.466C39.6279 29.9227 40 29.143 40 28.2778C40 26.6404 38.6682 25.3082 37.0312 25.3082H28.5937C26.9568 25.3082 25.625 26.6404 25.625 28.2778C25.625 29.143 25.9969 29.9227 26.5891 30.466C25.997 31.0093 25.625 31.7889 25.625 32.6541C25.625 33.5193 25.9969 34.299 26.5891 34.8423C25.997 35.3855 25.625 36.1652 25.625 37.0304C25.625 37.5391 25.7536 38.0181 25.9799 38.4371H22.7986V35.3813C22.7986 31.2485 19.6225 27.8445 15.5837 27.4818C15.4742 27.4492 15.359 27.442 15.2466 27.4584C15.2335 27.4578 15.2203 27.4575 15.2072 27.457C16.2213 26.4659 16.8526 25.0843 16.8526 23.5575V15.7742C16.8526 15.3426 16.5028 14.9927 16.0713 14.9927H10.2841C7.8921 14.9927 5.94609 16.9393 5.94609 19.3319V23.5574C5.94609 25.0842 6.57734 26.4658 7.59148 27.4569C7.57835 27.4574 7.56515 27.4577 7.55202 27.4584C7.4396 27.442 7.32445 27.4491 7.21491 27.4817C3.17617 27.8445 0 31.2486 0 35.3813V39.2185C0 39.6501 0.349765 40 0.781249 40H12.8125H22.0174H28.5937H36.5625H37.0312C38.6682 40 40 38.6678 40 37.0304C40 36.1652 39.628 35.3855 39.0358 34.8423C39.628 34.299 40 33.5193 40 32.6541ZM7.50859 20.4265V19.3319C7.50859 17.8011 8.75374 16.5556 10.2841 16.5556H15.2901V18.647C15.2901 19.7037 14.4306 20.5634 13.3741 20.5634H7.50859V20.4265ZM7.50859 23.5575V22.1263H13.3741C14.0817 22.1263 14.7402 21.9134 15.2901 21.549V23.5574C15.2901 25.7033 13.5447 27.4492 11.3994 27.4492C9.25405 27.4492 7.50859 25.7034 7.50859 23.5575ZM13.4741 29.0122L11.3993 31.0876L9.32444 29.0122H13.4741ZM21.2361 38.4371H12.8125V38.4371H1.5625V36.188H7.93773C8.36921 36.188 8.71898 35.838 8.71898 35.4065C8.71898 34.9749 8.36921 34.625 7.93773 34.625H1.60898C1.95429 31.7205 4.26039 29.4105 7.16265 29.0601L10.8469 32.7455C10.9995 32.898 11.1994 32.9744 11.3994 32.9744C11.5993 32.9744 11.7993 32.898 11.9518 32.7455L15.6361 29.0601C18.7863 29.4404 21.2361 32.1293 21.2361 35.3814V38.4371ZM37.0312 38.4371H36.5625H28.5937C27.8183 38.4371 27.1875 37.806 27.1875 37.0304C27.1875 36.2548 27.8183 35.6237 28.5937 35.6237H37.0312C37.8066 35.6237 38.4375 36.2548 38.4375 37.0304C38.4375 37.806 37.8066 38.4371 37.0312 38.4371ZM37.0312 34.0608H28.5937C27.8183 34.0608 27.1875 33.4297 27.1875 32.6541C27.1875 31.8785 27.8183 31.2474 28.5937 31.2474H37.0312C37.8066 31.2474 38.4375 31.8785 38.4375 32.6541C38.4375 33.4297 37.8066 34.0608 37.0312 34.0608ZM37.0312 29.6845H28.5937C27.8183 29.6845 27.1875 29.0534 27.1875 28.2778C27.1875 27.5022 27.8183 26.8712 28.5937 26.8712H37.0312C37.8066 26.8712 38.4375 27.5022 38.4375 28.2778C38.4375 29.0534 37.8066 29.6845 37.0312 29.6845Z"
              fill="var(--c1, #454242)"/>
        <path d="M29.2186 17.8113C28.5932 17.8113 28.0843 17.3818 28.0843 16.8539C28.0843 16.326 28.5932 15.8965 29.2186 15.8965C29.844 15.8965 30.3528 16.326 30.3528 16.8539C30.3528 17.2854 30.7026 17.6354 31.134 17.6354C31.5655 17.6354 31.9153 17.2854 31.9153 16.8539C31.9153 15.718 31.107 14.7556 29.9998 14.4418V14.3251C29.9998 13.8936 29.6501 13.5436 29.2186 13.5436C28.7871 13.5436 28.4373 13.8936 28.4373 14.3251V14.4418C27.3302 14.7556 26.5219 15.718 26.5219 16.8539C26.5219 18.2436 27.7315 19.3742 29.2186 19.3742C29.844 19.3742 30.3528 19.8037 30.3528 20.3316C30.3528 20.8595 29.844 21.289 29.2186 21.289C28.5932 21.289 28.0843 20.8595 28.0843 20.3316C28.0843 19.9001 27.7346 19.5502 27.3031 19.5502C26.8716 19.5502 26.5219 19.9001 26.5219 20.3316C26.5219 21.4675 27.3301 22.4299 28.4373 22.7437V22.7938C28.4373 23.2254 28.7871 23.5753 29.2186 23.5753C29.6501 23.5753 29.9998 23.2254 29.9998 22.7938V22.7437C31.1069 22.4299 31.9153 21.4675 31.9153 20.3316C31.9153 18.9419 30.7056 17.8113 29.2186 17.8113Z"
              fill="var(--c1, #454242)"/>
    </symbol>
</svg>
