<svg width="64" height="64" viewBox="0 0 64 64" fill="none" xmlns="http://www.w3.org/2000/svg">
<path d="M61 53H60V42C59.9974 39.6139 59.0483 37.3262 57.361 35.639C55.6738 33.9517 53.3861 33.0026 51 33H44V26C44 25.7348 43.8946 25.4804 43.7071 25.2929C43.5196 25.1054 43.2652 25 43 25H38C37.7348 25 37.4804 25.1054 37.2929 25.2929C37.1054 25.4804 37 25.7348 37 26C37 26.2652 37.1054 26.5196 37.2929 26.7071C37.4804 26.8946 37.7348 27 38 27H42V47H4V27H8C8.26522 27 8.51957 26.8946 8.70711 26.7071C8.89464 26.5196 9 26.2652 9 26C9 25.7348 8.89464 25.4804 8.70711 25.2929C8.51957 25.1054 8.26522 25 8 25H3C2.73478 25 2.48043 25.1054 2.29289 25.2929C2.10536 25.4804 2 25.7348 2 26V54C2 54.2652 2.10536 54.5196 2.29289 54.7071C2.48043 54.8946 2.73478 55 3 55H4V56C4 56.7956 4.31607 57.5587 4.87868 58.1213C5.44129 58.6839 6.20435 59 7 59H11.812C12.3368 59.9119 13.0928 60.6693 14.0036 61.1959C14.9144 61.7226 15.9479 61.9999 17 61.9999C18.0521 61.9999 19.0856 61.7226 19.9964 61.1959C20.9072 60.6693 21.6632 59.9119 22.188 59H45.812C46.3368 59.9119 47.0928 60.6693 48.0036 61.1959C48.9144 61.7226 49.9479 61.9999 51 61.9999C52.0521 61.9999 53.0856 61.7226 53.9964 61.1959C54.9072 60.6693 55.6632 59.9119 56.188 59H59C59.7957 59 60.5587 58.6839 61.1213 58.1213C61.6839 57.5587 62 56.7956 62 56V54C62 53.7348 61.8946 53.4804 61.7071 53.2929C61.5196 53.1054 61.2652 53 61 53ZM58 42V44H49C48.7348 44 48.4804 43.8946 48.2929 43.7071C48.1054 43.5196 48 43.2652 48 43V35H51C52.8559 35.0021 54.6351 35.7403 55.9474 37.0526C57.2597 38.3649 57.9979 40.1441 58 42ZM46 35V43C46 43.7956 46.3161 44.5587 46.8787 45.1213C47.4413 45.6839 48.2043 46 49 46H58V53H56.188C55.6632 52.0881 54.9072 51.3307 53.9964 50.8041C53.0856 50.2774 52.0521 50.0001 51 50.0001C49.9479 50.0001 48.9144 50.2774 48.0036 50.8041C47.0928 51.3307 46.3368 52.0881 45.812 53H44V35H46ZM42 49V53H22.188C21.6632 52.0881 20.9072 51.3307 19.9964 50.8041C19.0856 50.2774 18.0521 50.0001 17 50.0001C15.9479 50.0001 14.9144 50.2774 14.0036 50.8041C13.0928 51.3307 12.3368 52.0881 11.812 53H4V49H42ZM7 57C6.73478 57 6.48043 56.8946 6.29289 56.7071C6.10536 56.5196 6 56.2652 6 56V55H11.09C10.97 55.6613 10.97 56.3387 11.09 57H7ZM17 60C16.2089 60 15.4355 59.7654 14.7777 59.3259C14.1199 58.8864 13.6072 58.2616 13.3045 57.5307C13.0017 56.7998 12.9225 55.9956 13.0769 55.2196C13.2312 54.4437 13.6122 53.731 14.1716 53.1716C14.731 52.6122 15.4437 52.2312 16.2196 52.0769C16.9956 51.9225 17.7998 52.0017 18.5307 52.3045C19.2616 52.6072 19.8864 53.1199 20.3259 53.7777C20.7654 54.4355 21 55.2089 21 56C21 57.0609 20.5786 58.0783 19.8284 58.8284C19.0783 59.5786 18.0609 60 17 60ZM22.91 57C23.03 56.3387 23.03 55.6613 22.91 55H45.09C44.97 55.6613 44.97 56.3387 45.09 57H22.91ZM51 60C50.2089 60 49.4355 59.7654 48.7777 59.3259C48.1199 58.8864 47.6072 58.2616 47.3045 57.5307C47.0017 56.7998 46.9225 55.9956 47.0769 55.2196C47.2312 54.4437 47.6122 53.731 48.1716 53.1716C48.731 52.6122 49.4437 52.2312 50.2196 52.0769C50.9956 51.9225 51.7998 52.0017 52.5307 52.3045C53.2616 52.6072 53.8864 53.1199 54.3259 53.7777C54.7654 54.4355 55 55.2089 55 56C55 57.0609 54.5786 58.0783 53.8284 58.8284C53.0783 59.5786 52.0609 60 51 60ZM60 56C60 56.2652 59.8946 56.5196 59.7071 56.7071C59.5196 56.8946 59.2652 57 59 57H56.91C57.03 56.3387 57.03 55.6613 56.91 55H60V56Z" fill="#008AE5"/>
<rect x="11" y="14" width="24" height="24" rx="12" stroke="#008AE5" stroke-width="2"/>
<path d="M16 26L21 31L30 22" stroke="#008AE5" stroke-width="2" stroke-linecap="round" stroke-linejoin="round"/>
</svg>