<svg width="94" height="77" viewBox="0 0 94 77" fill="none" xmlns="http://www.w3.org/2000/svg">
<path d="M48.3088 51.4848H63.1804V48.853H51.9566C53.9207 47.1611 62.1516 39.7357 62.1516 32.9681C62.1516 29.9604 60.0003 26.7646 55.5108 26.7646C52.1436 26.7646 49.1506 28.8324 48.5894 32.4982L50.9277 33.4381C51.3954 30.8063 53.3596 29.4904 55.2302 29.4904C57.8491 29.4904 59.1586 31.2763 59.1586 33.4381C59.1586 38.6077 52.2372 45.2813 48.3088 49.135V51.4848ZM73.8431 43.9654C73.8431 51.4848 66.4541 58.6283 60.2809 63.234C54.7625 67.3697 49.0571 70.2835 46.9993 71.3174C44.8481 70.2835 39.2362 67.3697 33.7178 63.234C27.3576 58.5343 19.9685 51.4848 19.9685 43.9654V12.7596L46.9058 4.48818L73.8431 12.7596V43.9654ZM76.6491 8.99986L47.5605 0.070495C47.1864 -0.0234983 46.7188 -0.0234983 46.3446 0.070495L17.2561 8.99986C16.3207 9.28184 15.666 10.1278 15.666 11.1617V43.9654C15.666 48.1951 17.3496 52.6127 20.7168 56.9364C23.2421 60.2262 26.7964 63.61 31.1924 66.8057C38.5814 72.2573 45.7834 75.6411 46.1576 75.7351C46.4382 75.8291 46.7188 75.9231 46.9993 75.9231C47.2799 75.9231 47.5605 75.8291 47.8411 75.7351C48.1217 75.6411 55.4173 72.2573 62.8063 66.8057C67.2023 63.516 70.663 60.2262 73.2819 56.9364C76.6491 52.6127 78.3327 48.1951 78.3327 43.9654V11.1617C78.1456 10.1278 77.5844 9.28184 76.6491 8.99986ZM45.5028 35.7879H42.2292L37.9267 41.7095L33.7178 35.7879H30.3506L35.869 43.4954L29.9765 51.4848H33.2501L37.9267 45.0933L42.5098 51.4848H45.877L39.9844 43.3074L45.5028 35.7879Z" fill="white"/>
</svg>
