<svg width="32" height="32" viewBox="0 0 32 32" fill="none" xmlns="http://www.w3.org/2000/svg">
<path d="M16.0006 3.34375C15.2348 3.34375 14.4693 3.59285 13.8366 4.09115C13.8322 4.09458 13.8278 4.09805 13.8235 4.10156L3.03577 12.8919C2.92889 12.9731 2.83945 13.075 2.77277 13.1915C2.70609 13.308 2.66354 13.4367 2.64765 13.5699C2.63177 13.7032 2.64287 13.8383 2.6803 13.9672C2.71774 14.0961 2.78073 14.2162 2.86553 14.3202C2.95033 14.4242 3.05521 14.5101 3.17391 14.5728C3.29261 14.6354 3.4227 14.6735 3.55645 14.6849C3.69019 14.6962 3.82484 14.6804 3.95237 14.6386C4.07991 14.5968 4.19772 14.5297 4.29879 14.4414L15.0735 5.66276C15.6214 5.23135 16.3799 5.23135 16.9277 5.66276L27.7024 14.4414C27.8035 14.5297 27.9213 14.5968 28.0489 14.6386C28.1764 14.6804 28.311 14.6962 28.4448 14.6848C28.5785 14.6735 28.7086 14.6354 28.8273 14.5728C28.946 14.5101 29.0509 14.4242 29.1357 14.3202C29.2205 14.2162 29.2835 14.0961 29.3209 13.9672C29.3583 13.8383 29.3695 13.7032 29.3536 13.5699C29.3377 13.4367 29.2951 13.308 29.2285 13.1915C29.1618 13.075 29.0723 12.9731 28.9655 12.8919L18.1777 4.10156C18.1734 4.09805 18.169 4.09458 18.1647 4.09115C17.5319 3.59285 16.7664 3.34375 16.0006 3.34375ZM16.0006 6.66536C15.7354 6.66536 15.481 6.77072 15.2935 6.95826C15.106 7.14579 15.0006 7.40015 15.0006 7.66536C15.0006 7.93058 15.106 8.18493 15.2935 8.37247C15.481 8.56001 15.7354 8.66536 16.0006 8.66536C16.2658 8.66536 16.5202 8.56001 16.7077 8.37247C16.8953 8.18493 17.0006 7.93058 17.0006 7.66536C17.0006 7.40015 16.8953 7.14579 16.7077 6.95826C16.5202 6.77072 16.2658 6.66536 16.0006 6.66536V6.66536ZM16.0006 9.9987C15.7354 9.9987 15.481 10.1041 15.2935 10.2916C15.106 10.4791 15.0006 10.7335 15.0006 10.9987C15.0006 11.2639 15.106 11.5183 15.2935 11.7058C15.481 11.8933 15.7354 11.9987 16.0006 11.9987C16.2658 11.9987 16.5202 11.8933 16.7077 11.7058C16.8953 11.5183 17.0006 11.2639 17.0006 10.9987C17.0006 10.7335 16.8953 10.4791 16.7077 10.2916C16.5202 10.1041 16.2658 9.9987 16.0006 9.9987ZM16.0006 13.332C15.7354 13.332 15.481 13.4374 15.2935 13.6249C15.106 13.8125 15.0006 14.0668 15.0006 14.332C15.0006 14.5972 15.106 14.8516 15.2935 15.0391C15.481 15.2267 15.7354 15.332 16.0006 15.332C16.2658 15.332 16.5202 15.2267 16.7077 15.0391C16.8953 14.8516 17.0006 14.5972 17.0006 14.332C17.0006 14.0668 16.8953 13.8125 16.7077 13.6249C16.5202 13.4374 16.2658 13.332 16.0006 13.332ZM15.3977 16.6654C14.5593 16.6654 13.823 17.2575 13.6412 18.0755L13.6399 18.0807L12.9837 21.168C12.9783 21.1921 12.9717 21.1937 12.9811 21.1849C12.147 21.9727 11.623 23.0975 11.623 24.332C11.623 26.7133 13.5756 28.6606 15.955 28.6615H15.9563C18.3357 28.6606 20.2897 26.7133 20.2897 24.332C20.2897 23.0966 19.7637 21.9724 18.9303 21.1849H18.9316C18.9357 21.1888 18.9306 21.1791 18.9303 21.1784L18.2714 18.0807V18.0755C18.0897 17.2575 17.3521 16.6654 16.5136 16.6654H15.9563H15.3977ZM9.66728 20C9.40206 20 9.14771 20.1054 8.96017 20.2929C8.77264 20.4804 8.66728 20.7348 8.66728 21C8.66728 21.2652 8.77264 21.5196 8.96017 21.7071C9.14771 21.8946 9.40206 22 9.66728 22C9.9325 22 10.1869 21.8946 10.3744 21.7071C10.5619 21.5196 10.6673 21.2652 10.6673 21C10.6673 20.7348 10.5619 20.4804 10.3744 20.2929C10.1869 20.1054 9.9325 20 9.66728 20ZM15.2767 20H16.636L16.9759 21.599L16.9772 21.6042C17.0612 21.979 17.2488 22.3468 17.5566 22.638C18.0086 23.0651 18.2897 23.6594 18.2897 24.332C18.2897 25.6316 17.2576 26.6603 15.9563 26.6615C14.6544 26.661 13.623 25.6321 13.623 24.332C13.623 23.659 13.9026 23.0649 14.3548 22.638C14.6615 22.3478 14.8516 21.98 14.9355 21.6042L14.9368 21.599L15.2767 20ZM22.3339 20C22.0687 20 21.8144 20.1054 21.6268 20.2929C21.4393 20.4804 21.3339 20.7348 21.3339 21C21.3339 21.2652 21.4393 21.5196 21.6268 21.7071C21.8144 21.8946 22.0687 22 22.3339 22C22.5992 22 22.8535 21.8946 23.0411 21.7071C23.2286 21.5196 23.3339 21.2652 23.3339 21C23.3339 20.7348 23.2286 20.4804 23.0411 20.2929C22.8535 20.1054 22.5992 20 22.3339 20ZM8.33395 23.3333C8.06873 23.3333 7.81438 23.4387 7.62684 23.6262C7.4393 23.8138 7.33395 24.0681 7.33395 24.3333C7.33395 24.5985 7.4393 24.8529 7.62684 25.0404C7.81438 25.228 8.06873 25.3333 8.33395 25.3333C8.59916 25.3333 8.85352 25.228 9.04105 25.0404C9.22859 24.8529 9.33395 24.5985 9.33395 24.3333C9.33395 24.0681 9.22859 23.8138 9.04105 23.6262C8.85352 23.4387 8.59916 23.3333 8.33395 23.3333V23.3333ZM23.6673 23.3333C23.4021 23.3333 23.1477 23.4387 22.9602 23.6262C22.7726 23.8138 22.6673 24.0681 22.6673 24.3333C22.6673 24.5985 22.7726 24.8529 22.9602 25.0404C23.1477 25.228 23.4021 25.3333 23.6673 25.3333C23.9325 25.3333 24.1869 25.228 24.3744 25.0404C24.5619 24.8529 24.6673 24.5985 24.6673 24.3333C24.6673 24.0681 24.5619 23.8138 24.3744 23.6262C24.1869 23.4387 23.9325 23.3333 23.6673 23.3333ZM9.66728 26.6667C9.40206 26.6667 9.14771 26.772 8.96017 26.9596C8.77264 27.1471 8.66728 27.4014 8.66728 27.6667C8.66728 27.9319 8.77264 28.1862 8.96017 28.3738C9.14771 28.5613 9.40206 28.6667 9.66728 28.6667C9.9325 28.6667 10.1869 28.5613 10.3744 28.3738C10.5619 28.1862 10.6673 27.9319 10.6673 27.6667C10.6673 27.4014 10.5619 27.1471 10.3744 26.9596C10.1869 26.772 9.9325 26.6667 9.66728 26.6667ZM22.3339 26.6667C22.0687 26.6667 21.8144 26.772 21.6268 26.9596C21.4393 27.1471 21.3339 27.4014 21.3339 27.6667C21.3339 27.9319 21.4393 28.1862 21.6268 28.3738C21.8144 28.5613 22.0687 28.6667 22.3339 28.6667C22.5992 28.6667 22.8535 28.5613 23.0411 28.3738C23.2286 28.1862 23.3339 27.9319 23.3339 27.6667C23.3339 27.4014 23.2286 27.1471 23.0411 26.9596C22.8535 26.772 22.5992 26.6667 22.3339 26.6667Z" fill="#AFD73D"/>
</svg>