<svg xmlns="http://www.w3.org/2000/svg" width="36" height="36" viewBox="0 0 36 36"><g><g><path fill="#6b5b56" d="M29.909 8.526l-1.929 1.848a.566.566 0 0 0-.217.539v13.604a.553.553 0 0 0 .217.539l1.889 1.848v.41h-9.482v-.394l1.952-1.896c.193-.193.193-.25.193-.539v-11L17.1 27.273h-.731l-6.324-13.79v9.241c-.057.386.08.78.353 1.061l2.54 3.078v.41H5.72v-.41l2.54-3.078a1.23 1.23 0 0 0 .33-1.06V12.037a.917.917 0 0 0-.306-.788L6.027 8.526v-.41h7.015l5.416 11.893 4.765-11.885h6.686zM0 0v36h36V0z"/></g></g></svg>