<svg width="28" height="22" viewBox="0 0 28 22" fill="none" xmlns="http://www.w3.org/2000/svg">
<path d="M10.2135 0.333343C8.2428 0.333343 6.41055 1.36009 5.38151 3.04037L3.76823 5.67579C3.72077 5.66933 3.6729 5.66628 3.625 5.66668L1.66667 5.66668C1.53415 5.6648 1.40259 5.68928 1.27962 5.7387C1.15666 5.78811 1.04473 5.86147 0.950365 5.95452C0.855995 6.04756 0.781059 6.15843 0.729911 6.28069C0.678764 6.40295 0.652424 6.53415 0.652424 6.66668C0.652424 6.7992 0.678764 6.93041 0.729911 7.05266C0.781059 7.17492 0.855995 7.28579 0.950365 7.37884C1.04473 7.47188 1.15666 7.54524 1.27962 7.59465C1.40259 7.64407 1.53415 7.66855 1.66667 7.66668L1.91927 7.66668L1.26953 8.31642C1.2691 8.31641 1.26866 8.31641 1.26823 8.31642C0.456597 9.12891 1.86319e-07 10.2313 2.07947e-07 11.3802L3.20009e-07 17.3333L3.76482e-07 20.3333C3.90349e-07 21.07 0.596667 21.6667 1.33333 21.6667L3.33333 21.6667C4.07 21.6667 4.66667 21.07 4.66667 20.3333L4.66667 19.0117C6.99228 19.3432 10.2124 19.6667 14 19.6667C17.7876 19.6667 21.0077 19.3432 23.3333 19.0117L23.3333 20.3333C23.3333 21.07 23.93 21.6667 24.6667 21.6667L26.6667 21.6667C27.4033 21.6667 28 21.07 28 20.3333L28 17.3594C28.0001 17.3507 28.0001 17.342 28 17.3333L28 11.3815C28 10.2326 27.543 9.12895 26.7305 8.31641L26.0807 7.66668L26.3333 7.66668C26.4658 7.66855 26.5974 7.64407 26.7204 7.59465C26.8433 7.54524 26.9553 7.47188 27.0496 7.37883C27.144 7.28579 27.2189 7.17492 27.2701 7.05266C27.3212 6.9304 27.3476 6.7992 27.3476 6.66668C27.3476 6.53415 27.3212 6.40295 27.2701 6.28069C27.2189 6.15843 27.144 6.04756 27.0496 5.95452C26.9553 5.86147 26.8433 5.78811 26.7204 5.7387C26.5974 5.68928 26.4658 5.6648 26.3333 5.66668L24.3958 5.66668C24.3418 5.66621 24.2878 5.67013 24.2344 5.67839L22.6185 3.04037C21.5894 1.35925 19.7569 0.333343 17.7865 0.333343L10.2135 0.333343ZM10.2135 2.33334L17.7865 2.33334C19.064 2.33334 20.2458 2.9951 20.9128 4.08464L21.8815 5.66668L6.11849 5.66668L7.08724 4.08464C7.7542 2.9956 8.93628 2.33334 10.2135 2.33334ZM2.61719 9.81121L5.83333 10.3464C6.37333 10.4397 6.74698 10.9533 6.65365 11.5C6.57365 11.9867 6.14667 12.3333 5.66667 12.3333C5.61333 12.3333 5.56 12.327 5.5 12.3203L2 11.7396L2 11.3802C2 10.7964 2.22509 10.2406 2.61719 9.81121ZM25.3828 9.81121C25.7752 10.2406 26 10.7964 26 11.3815L26 11.7396L22.5 12.3203C22.44 12.327 22.3867 12.3333 22.3333 12.3333C21.8533 12.3333 21.4264 11.9867 21.3464 11.5C21.253 10.9533 21.6267 10.4397 22.1667 10.3464L25.3828 9.81121ZM14 10.3333C16.1467 10.3333 17.7003 10.5538 18.2669 10.6471C18.5403 10.6871 18.7861 10.8334 18.9661 11.0534L19.7201 11.9935C19.9667 12.3068 20.0331 12.7204 19.8997 13.0938C19.7597 13.4671 19.4466 13.7405 19.0599 13.8138C18.0799 14.0071 16.12 14.3333 14 14.3333C11.88 14.3333 9.91995 14.0071 8.94661 13.8138C8.55328 13.7405 8.24026 13.4671 8.10026 13.0938C7.96693 12.7204 8.03313 12.3068 8.28646 11.9935L9.03385 11.0534C9.21385 10.8334 9.45958 10.6871 9.73958 10.6471C10.2996 10.5538 11.8533 10.3333 14 10.3333ZM10.6797 16.3333L17.3203 16.3333C18.2203 16.3333 19.0872 16.6604 19.7539 17.2604L19.918 17.405C18.2366 17.5551 16.271 17.6667 14 17.6667C11.729 17.6667 9.7634 17.5551 8.08203 17.405L8.24609 17.2604C8.91276 16.6604 9.77969 16.3333 10.6797 16.3333Z" fill="#545859"/>
</svg>
