<svg width="19" height="27" viewBox="0 0 19 27" fill="none" xmlns="http://www.w3.org/2000/svg">
<path d="M11.3325 -2.13324e-07C9.86052 -1.85615e-07 8.66716 1.1947 8.66716 2.66536C8.66716 4.1387 9.86052 5.33333 11.3325 5.33333C12.8079 5.33333 14.0005 4.1387 14.0005 2.66536C14.0005 1.1947 12.8079 -2.41096e-07 11.3325 -2.13324e-07ZM9.33252 6.66667C8.86013 6.66667 8.42302 6.79991 8.03825 7.01563C7.95326 7.04917 7.86694 7.0721 7.78304 7.11328C7.77869 7.11542 7.77435 7.11759 7.77002 7.11979L3.21273 9.44271C3.08617 9.50705 2.97476 9.5976 2.88591 9.70833L0.219242 13.0417C0.0534815 13.2489 -0.0231796 13.5134 0.00612296 13.7772C0.0354255 14.0409 0.168291 14.2822 0.375492 14.4479C0.582692 14.6137 0.847254 14.6903 1.11098 14.661C1.3747 14.6317 1.61598 14.4989 1.78174 14.2917L4.29086 11.1549L6.21273 10.638L5.40414 14.7448C5.39584 14.7815 5.38877 14.8182 5.382 14.8555L5.36247 14.957L5.37159 14.9596C5.35421 15.0825 5.33383 15.2044 5.33383 15.332C5.33383 16.1952 5.75061 16.955 6.38591 17.4427L6.3833 17.4466L6.47315 17.5143C6.49002 17.5262 6.50547 17.5393 6.52263 17.5508L10.6672 20.6667L13.4471 26.1484L13.4497 26.1354C13.5682 26.3611 13.7683 26.533 14.0092 26.6161C14.2502 26.6992 14.5138 26.6872 14.7462 26.5824C14.9785 26.4777 15.1621 26.2882 15.2595 26.0527C15.3569 25.8172 15.3606 25.5533 15.27 25.3151L13.27 19.9818C13.2313 19.8802 13.1764 19.7857 13.1073 19.7018L13.1047 19.6979L10.5903 16.2839L11.5109 11.5742L12.6255 13.2174L12.8182 13.5286C12.9159 13.6854 13.0552 13.8121 13.2205 13.8945L17.2205 15.8945C17.3384 15.9569 17.4675 15.995 17.6003 16.0067C17.7331 16.0184 17.8669 16.0035 17.9938 15.9627C18.1207 15.922 18.2382 15.8563 18.3394 15.7694C18.4406 15.6826 18.5234 15.5765 18.5829 15.4572C18.6424 15.3379 18.6776 15.208 18.6861 15.0749C18.6947 14.9419 18.6766 14.8085 18.6329 14.6826C18.5892 14.5566 18.5208 14.4407 18.4316 14.3416C18.3425 14.2425 18.2344 14.1622 18.1138 14.1055L14.3677 12.2318L11.8547 8.19271L11.8534 8.19141C11.6973 7.93524 11.5005 7.71139 11.2765 7.51823C10.7899 6.99755 10.1029 6.66667 9.33252 6.66667ZM5.64242 18.6055L5.04346 21.4674L2.33773 24.9154L2.29346 24.9596C2.19749 25.0518 2.12087 25.1622 2.06809 25.2843C2.0153 25.4064 1.98742 25.5378 1.98607 25.6709C1.98471 25.8039 2.00992 25.9359 2.06021 26.0591C2.1105 26.1822 2.18486 26.2941 2.27894 26.3882C2.37302 26.4823 2.48492 26.5567 2.60809 26.6069C2.73127 26.6572 2.86324 26.6824 2.99628 26.6811C3.12932 26.6797 3.26075 26.6519 3.38288 26.5991C3.50501 26.5463 3.61538 26.4697 3.70752 26.3737L7.04086 23.0404C7.19187 22.8925 7.29215 22.7006 7.32731 22.4922L8.20752 20.5013L5.64242 18.6055Z" fill="#545859"/>
</svg>
