<svg width="20" height="20" viewBox="0 0 20 20" fill="none" xmlns="http://www.w3.org/2000/svg">
<circle cx="10" cy="10" r="10" fill="#6F64A2"/>
<path d="M7.44777 9.08605C8.2507 10.5076 9.32409 11.6095 10.6933 12.417C10.8792 12.5263 10.9891 12.5095 11.1074 12.3329C11.2089 12.1815 11.3103 11.9964 11.4624 11.9207C11.6991 11.8029 12.0033 11.6515 12.2231 11.7104C12.9077 11.8955 13.5923 12.1394 14.2431 12.417C15.1474 12.8039 15.2319 13.3422 14.5473 14.0656C13.6176 15.0497 12.9161 15.26 11.6822 14.6796C10.7694 14.2422 9.89037 13.6787 9.08744 13.0647C7.82811 12.0889 6.75472 10.8945 5.90108 9.52345C5.63907 9.09447 5.39397 8.64866 5.22493 8.17762C4.72627 6.79815 5.04744 6.15888 6.28142 5.19157C6.70401 4.86353 7.0928 4.96446 7.38016 5.4355C7.55765 5.7299 7.68443 6.05795 7.81121 6.38599C7.94644 6.72245 8.03941 7.07573 8.16618 7.4206C8.42819 8.11874 8.37748 8.32062 7.80275 8.79165C7.69288 8.87577 7.59146 8.96829 7.44777 9.08605Z" fill="white"/>
<path d="M10.8085 5.00926C13.0849 5.12417 14.9586 7.04465 14.9997 9.29342C15.0079 9.52322 14.9586 9.7284 14.6874 9.7366C14.4162 9.74481 14.3751 9.53963 14.3669 9.30983C14.2683 7.29907 12.7479 5.7315 10.7838 5.60839C10.5455 5.59197 10.2332 5.64942 10.2661 5.27189C10.2907 4.89436 10.6194 5.02568 10.8085 5.00926Z" fill="white"/>
<path d="M13.9479 9.43041C13.9138 9.47287 13.8115 9.69367 13.6667 9.72764C13.394 9.78708 13.3514 9.5493 13.3258 9.32001C13.1384 7.77445 12.2607 6.89127 10.7268 6.70444C10.4967 6.67897 10.2326 6.67047 10.2667 6.33928C10.3007 6.00809 10.5564 6.05055 10.7865 6.05904C12.4311 6.11 13.9308 7.62159 13.9479 9.43041Z" fill="white"/>
<path d="M12.3688 9.51549C12.3254 9.55944 12.2024 9.75719 12.1373 9.73522C12.0143 9.6986 11.8479 9.55944 11.8262 9.43492C11.6598 8.62193 11.3777 8.33628 10.5603 8.17515C10.4445 8.15317 10.3649 7.98472 10.2637 7.8895C10.3722 7.80161 10.4807 7.64047 10.5892 7.63315C11.4645 7.5892 12.3832 8.51939 12.3688 9.51549Z" fill="white"/>
</svg>
