<svg width="36" height="36" viewBox="0 0 36 36" fill="none" xmlns="http://www.w3.org/2000/svg">
<circle cx="18" cy="18" r="18" fill="#6F64A2"/>
<path d="M13.5 10.5C10.4712 10.5 8 12.9712 8 16C8 18.0481 9.54382 19.9764 11.4258 21.9541C13.3077 23.9318 15.6242 25.9347 17.4697 27.7803C17.6104 27.9209 17.8011 27.9999 18 27.9999C18.1989 27.9999 18.3896 27.9209 18.5303 27.7803C20.3758 25.9347 22.6923 23.9318 24.5742 21.9541C26.4562 19.9764 28 18.0481 28 16C28 12.9712 25.5288 10.5 22.5 10.5C20.7618 10.5 19.2484 11.4332 18 13.0186C16.7516 11.4332 15.2382 10.5 13.5 10.5ZM13.5 12C14.9643 12 16.1832 12.7792 17.3662 14.6504C17.4339 14.7573 17.5274 14.8453 17.6383 14.9063C17.7491 14.9673 17.8735 14.9993 18 14.9993C18.1265 14.9993 18.2509 14.9673 18.3617 14.9063C18.4726 14.8453 18.5661 14.7573 18.6338 14.6504C19.8168 12.7792 21.0357 12 22.5 12C24.7182 12 26.5 13.7818 26.5 16C26.5 17.2019 25.2938 19.0236 23.4883 20.9209C21.8418 22.6511 19.7952 24.4587 18 26.209C16.2048 24.4587 14.1582 22.6511 12.5117 20.9209C10.7062 19.0236 9.5 17.2019 9.5 16C9.5 13.7818 11.2818 12 13.5 12Z" fill="white"/>
</svg>
