<svg xmlns="http://www.w3.org/2000/svg" width="40" height="40" viewBox="0 0 40 40"><g><g><path fill="#fff" d="M19.681 27.395l-3.21 3.15c-.35.356-.65.663-1.335.664l.478-6.912L27.94 12.931c.16-.145.226-.282.186-.385-.035-.09-.149-.143-.306-.143-.213 0-.473.094-.713.258l-15.239 9.791-6.561-2.096c-.65-.207-1.031-.54-1.045-.914-.016-.441.474-.893 1.342-1.24L31.267 8.114c.228-.087.451-.132.663-.132.386 0 .708.146.93.42.23.281.457.828.247 1.834l-4.365 21.006c-.22.992-.671 1.495-1.34 1.495-.313 0-.673-.115-1.069-.342l-6.65-5h-.001zM40 39.999V0H0v39.999z"/></g></g></svg>