<svg width="94" height="77" viewBox="0 0 94 77" fill="none" xmlns="http://www.w3.org/2000/svg">
<path d="M53.7754 64.9568C49.5109 67.1364 44.4882 67.1364 40.2237 64.9568C40.0341 64.862 39.9394 64.862 39.7498 64.862C39.6551 64.862 39.5603 64.862 39.4655 64.862C39.1812 64.9568 38.9917 65.1463 38.8969 65.3359C38.8022 65.5254 38.7074 65.8097 38.8022 66.094C38.8969 66.3783 39.0865 66.5678 39.276 66.6626C44.1091 69.1266 49.89 69.1266 54.7231 66.6626C55.0074 66.5678 55.1022 66.2835 55.1969 66.094C55.2917 65.8097 55.2917 65.5254 55.1022 65.3359C54.9126 64.9568 54.2493 64.7673 53.7754 64.9568ZM36.9068 69.8847C36.7173 69.7899 36.6225 69.7899 36.433 69.7899C36.0539 69.7899 35.7696 69.9795 35.5801 70.2638C35.2957 70.7376 35.4853 71.3062 35.8644 71.5905C42.7824 75.7603 51.3115 75.7603 58.2295 71.5905C58.419 71.4958 58.6086 71.2114 58.7034 70.9271C58.7981 70.6428 58.7034 70.3585 58.6086 70.169C58.5138 69.9795 58.2295 69.7899 57.9452 69.6952C57.6609 69.6004 57.4714 69.6952 57.1871 69.7899C50.8376 73.6754 43.1615 73.6754 36.9068 69.8847ZM15.4893 16.9096C14.0678 16.9096 12.8358 15.7724 12.8358 14.2561V11.8869C12.8358 11.7922 12.9306 11.6974 13.0254 11.6974H80.9737C81.0685 11.6974 81.1633 11.7922 81.1633 11.8869V14.3509C81.1633 15.7724 80.0261 17.0044 78.5098 17.0044H15.4893V16.9096ZM12.8358 4.58981C12.8358 4.49504 12.9306 4.40028 13.0254 4.40028H80.9737C81.0685 4.40028 81.1633 4.49504 81.1633 4.58981V9.42296C81.1633 9.51773 81.0685 9.61249 80.9737 9.61249H13.0254C12.9306 9.61249 12.8358 9.51773 12.8358 9.42296V4.58981ZM76.3301 25.2492C76.3301 41.3596 63.1574 54.5323 47.0469 54.5323C30.9364 54.5323 17.7637 41.3596 17.7637 25.2492V19.184C17.7637 19.0893 17.8585 18.9945 17.9533 18.9945H76.1406C76.2354 18.9945 76.3301 19.0893 76.3301 19.184V25.2492ZM47.0469 56.5225C64.2946 56.5225 78.3202 42.4969 78.3202 25.2492V19.184C78.3202 19.0893 78.415 18.9945 78.5098 18.9945C81.0685 18.9945 83.1534 16.9096 83.1534 14.3509V3.4526C83.1534 2.88399 82.6796 2.41016 82.1109 2.41016H11.8881C11.3195 2.41016 10.8457 2.88399 10.8457 3.4526V14.3509C10.8457 16.9096 12.9306 18.9945 15.4893 18.9945C15.5841 18.9945 15.6789 19.0893 15.6789 19.184V25.2492C15.6789 42.4969 29.7045 56.5225 47.0469 56.5225ZM47.0469 48.4672C42.2138 48.4672 38.3283 44.5817 38.3283 39.7486C38.3283 35.0102 42.2138 31.03 47.0469 31.03C51.8801 31.03 55.7656 34.9155 55.7656 39.7486C55.6708 44.5817 51.7853 48.4672 47.0469 48.4672ZM47.0469 29.0399C41.1713 29.0399 36.3382 33.873 36.3382 39.7486C36.3382 45.6242 41.1713 50.4573 47.0469 50.4573C52.9225 50.4573 57.7557 45.6242 57.7557 39.7486C57.6609 33.873 52.9225 29.0399 47.0469 29.0399ZM47.0469 43.6341C44.962 43.6341 43.2562 41.9283 43.2562 39.8434C43.2562 37.7585 44.962 36.0527 47.0469 36.0527C49.1318 36.0527 50.9324 37.7585 50.9324 39.8434C50.8376 41.9283 49.1318 43.6341 47.0469 43.6341ZM47.0469 33.873C43.8248 33.873 41.1713 36.5265 41.1713 39.7486C41.1713 42.9707 43.8248 45.6242 47.0469 45.6242C50.269 45.6242 52.9225 42.9707 52.9225 39.7486C52.8278 36.5265 50.269 33.873 47.0469 33.873ZM51.6905 60.5975C51.501 60.1236 50.9324 59.8393 50.3638 60.0289C48.1841 60.8818 45.7202 60.8818 43.5405 60.0289C43.4458 60.0289 43.351 59.9341 43.2562 59.9341C42.8772 59.9341 42.4981 60.2184 42.3086 60.5975C42.119 61.0713 42.4033 61.6399 42.8772 61.9242C45.5307 62.8719 48.4684 62.8719 51.1219 61.9242C51.5958 61.6399 51.8801 61.0713 51.6905 60.5975Z" fill="white"/>
</svg>
