<svg xmlns="http://www.w3.org/2000/svg" width="36" height="36" viewBox="0 0 36 36"><g><g><path fill="#6b5b56" d="M6.314 25.736c2.37 0 4.605-.769 6.462-2.224A5.217 5.217 0 0 1 7.91 19.9c.367.055.679.081.983.081.451 0 .913-.059 1.37-.177a5.233 5.233 0 0 1-2.982-1.787 5.22 5.22 0 0 1-1.192-3.323v-.064c.718.4 1.532.63 2.353.66a5.199 5.199 0 0 1-2.321-4.335c0-.939.24-1.823.71-2.627a14.832 14.832 0 0 0 10.733 5.448 5.912 5.912 0 0 1-.128-1.193 5.212 5.212 0 0 1 9.01-3.562 10.304 10.304 0 0 0 3.304-1.257 5.19 5.19 0 0 1-2.29 2.869 10.401 10.401 0 0 0 2.999-.807 11.135 11.135 0 0 1-2.611 2.692c.016.226.016.455.016.677 0 3.596-1.39 7.236-3.816 9.987a14.013 14.013 0 0 1-4.643 3.479c-1.929.893-4.067 1.346-6.353 1.346-2.854 0-5.618-.808-7.994-2.335v-.001a10.8 10.8 0 0 0 1.257.064zM36 36V0H0v36z"/></g></g></svg>