<svg width="64" height="64" viewBox="0 0 64 64" fill="none" xmlns="http://www.w3.org/2000/svg">
<path d="M61 53H60V42C59.9974 39.6139 59.0483 37.3262 57.361 35.639C55.6738 33.9517 53.3861 33.0026 51 33H44V26C44 25.7348 43.8946 25.4804 43.7071 25.2929C43.5196 25.1054 43.2652 25 43 25H38C37.7348 25 37.4804 25.1054 37.2929 25.2929C37.1054 25.4804 37 25.7348 37 26C37 26.2652 37.1054 26.5196 37.2929 26.7071C37.4804 26.8946 37.7348 27 38 27H42V47H4V27H8C8.26522 27 8.51957 26.8946 8.70711 26.7071C8.89464 26.5196 9 26.2652 9 26C9 25.7348 8.89464 25.4804 8.70711 25.2929C8.51957 25.1054 8.26522 25 8 25H3C2.73478 25 2.48043 25.1054 2.29289 25.2929C2.10536 25.4804 2 25.7348 2 26V54C2 54.2652 2.10536 54.5196 2.29289 54.7071C2.48043 54.8946 2.73478 55 3 55H4V56C4 56.7956 4.31607 57.5587 4.87868 58.1213C5.44129 58.6839 6.20435 59 7 59H11.812C12.3368 59.9119 13.0928 60.6693 14.0036 61.1959C14.9144 61.7226 15.9479 61.9999 17 61.9999C18.0521 61.9999 19.0856 61.7226 19.9964 61.1959C20.9072 60.6693 21.6632 59.9119 22.188 59H45.812C46.3368 59.9119 47.0928 60.6693 48.0036 61.1959C48.9144 61.7226 49.9479 61.9999 51 61.9999C52.0521 61.9999 53.0856 61.7226 53.9964 61.1959C54.9072 60.6693 55.6632 59.9119 56.188 59H59C59.7957 59 60.5587 58.6839 61.1213 58.1213C61.6839 57.5587 62 56.7956 62 56V54C62 53.7348 61.8946 53.4804 61.7071 53.2929C61.5196 53.1054 61.2652 53 61 53ZM58 42V44H49C48.7348 44 48.4804 43.8946 48.2929 43.7071C48.1054 43.5196 48 43.2652 48 43V35H51C52.8559 35.0021 54.6351 35.7403 55.9474 37.0526C57.2597 38.3649 57.9979 40.1441 58 42ZM46 35V43C46 43.7956 46.3161 44.5587 46.8787 45.1213C47.4413 45.6839 48.2043 46 49 46H58V53H56.188C55.6632 52.0881 54.9072 51.3307 53.9964 50.8041C53.0856 50.2774 52.0521 50.0001 51 50.0001C49.9479 50.0001 48.9144 50.2774 48.0036 50.8041C47.0928 51.3307 46.3368 52.0881 45.812 53H44V35H46ZM42 49V53H22.188C21.6632 52.0881 20.9072 51.3307 19.9964 50.8041C19.0856 50.2774 18.0521 50.0001 17 50.0001C15.9479 50.0001 14.9144 50.2774 14.0036 50.8041C13.0928 51.3307 12.3368 52.0881 11.812 53H4V49H42ZM7 57C6.73478 57 6.48043 56.8946 6.29289 56.7071C6.10536 56.5196 6 56.2652 6 56V55H11.09C10.97 55.6613 10.97 56.3387 11.09 57H7ZM17 60C16.2089 60 15.4355 59.7654 14.7777 59.3259C14.1199 58.8864 13.6072 58.2616 13.3045 57.5307C13.0017 56.7998 12.9225 55.9956 13.0769 55.2196C13.2312 54.4437 13.6122 53.731 14.1716 53.1716C14.731 52.6122 15.4437 52.2312 16.2196 52.0769C16.9956 51.9225 17.7998 52.0017 18.5307 52.3045C19.2616 52.6072 19.8864 53.1199 20.3259 53.7777C20.7654 54.4355 21 55.2089 21 56C21 57.0609 20.5786 58.0783 19.8284 58.8284C19.0783 59.5786 18.0609 60 17 60ZM22.91 57C23.03 56.3387 23.03 55.6613 22.91 55H45.09C44.97 55.6613 44.97 56.3387 45.09 57H22.91ZM51 60C50.2089 60 49.4355 59.7654 48.7777 59.3259C48.1199 58.8864 47.6072 58.2616 47.3045 57.5307C47.0017 56.7998 46.9225 55.9956 47.0769 55.2196C47.2312 54.4437 47.6122 53.731 48.1716 53.1716C48.731 52.6122 49.4437 52.2312 50.2196 52.0769C50.9956 51.9225 51.7998 52.0017 52.5307 52.3045C53.2616 52.6072 53.8864 53.1199 54.3259 53.7777C54.7654 54.4355 55 55.2089 55 56C55 57.0609 54.5786 58.0783 53.8284 58.8284C53.0783 59.5786 52.0609 60 51 60ZM60 56C60 56.2652 59.8946 56.5196 59.7071 56.7071C59.5196 56.8946 59.2652 57 59 57H56.91C57.03 56.3387 57.03 55.6613 56.91 55H60V56Z" fill="#008AE5"/>
<path d="M19.447 26.658L17.658 27.553C17.1586 27.8007 16.7386 28.1833 16.4456 28.6575C16.1525 29.1318 15.9982 29.6786 16 30.236V31C16 31.2652 16.1054 31.5196 16.2929 31.7071C16.4804 31.8946 16.7348 32 17 32H21C21.2652 32 21.5196 31.8946 21.7071 31.7071C21.8947 31.5196 22 31.2652 22 31C22 30.7348 21.8947 30.4804 21.7071 30.2929C21.5196 30.1054 21.2652 30 21 30H18.027C18.0615 29.8587 18.1265 29.7266 18.2174 29.6129C18.3082 29.4993 18.4228 29.4068 18.553 29.342L20.342 28.447C20.8414 28.1993 21.2614 27.8167 21.5545 27.3425C21.8475 26.8682 22.0019 26.3214 22 25.764V25C22 24.2044 21.684 23.4413 21.1213 22.8787C20.5587 22.3161 19.7957 22 19 22C18.2044 22 17.4413 22.3161 16.8787 22.8787C16.3161 23.4413 16 24.2044 16 25C16 25.2652 16.1054 25.5196 16.2929 25.7071C16.4804 25.8946 16.7348 26 17 26C17.2652 26 17.5196 25.8946 17.7071 25.7071C17.8947 25.5196 18 25.2652 18 25C18 24.7348 18.1054 24.4804 18.2929 24.2929C18.4804 24.1054 18.7348 24 19 24C19.2652 24 19.5196 24.1054 19.7071 24.2929C19.8947 24.4804 20 24.7348 20 25V25.764C20.0006 25.9498 19.9491 26.1321 19.8514 26.2901C19.7536 26.4481 19.6135 26.5756 19.447 26.658Z" fill="#008AE5"/>
<path d="M28.341 22.06C28.1476 21.9897 27.9372 21.9808 27.7386 22.0345C27.5399 22.0882 27.3627 22.2019 27.231 22.36L22.231 28.36C22.1094 28.5061 22.0318 28.6838 22.0076 28.8723C21.9833 29.0609 22.0133 29.2524 22.094 29.4246C22.1747 29.5967 22.3028 29.7422 22.4633 29.8441C22.6237 29.9461 22.8099 30.0001 23 30H27V31C27 31.2652 27.1054 31.5196 27.2929 31.7071C27.4804 31.8946 27.7348 32 28 32C28.2652 32 28.5196 31.8946 28.7071 31.7071C28.8947 31.5196 29 31.2652 29 31V30H30C30.2652 30 30.5196 29.8946 30.7071 29.7071C30.8947 29.5196 31 29.2652 31 29C31 28.7348 30.8947 28.4804 30.7071 28.2929C30.5196 28.1054 30.2652 28 30 28H29V23C29 22.7946 28.9367 22.5942 28.8188 22.426C28.7009 22.2578 28.5341 22.13 28.341 22.06ZM27 28H25.135L27 25.762V28Z" fill="#008AE5"/>
<path d="M16.5 37.258C18.6209 38.4838 21.0449 39.0854 23.4928 38.9935C25.9407 38.9017 28.3128 38.1201 30.3358 36.7388C32.3588 35.3574 33.9504 33.4327 34.9271 31.1862C35.9039 28.9398 36.226 26.4631 35.8565 24.0415C35.4869 21.6199 34.4407 19.352 32.8384 17.4992C31.236 15.6463 29.1428 14.2839 26.7999 13.5688C24.457 12.8538 21.9597 12.8153 19.5958 13.4577C17.232 14.1002 15.0977 15.3974 13.439 17.2L13.312 15.107C13.296 14.8418 13.1752 14.5938 12.9763 14.4176C12.7775 14.2414 12.5167 14.1515 12.2515 14.1675C11.9863 14.1835 11.7383 14.3043 11.5621 14.5032C11.3859 14.7021 11.296 14.9628 11.312 15.228L11.606 20.058C11.606 20.087 11.626 20.111 11.63 20.139C11.643 20.2237 11.6668 20.3064 11.701 20.385C11.7208 20.4338 11.7438 20.4813 11.77 20.527C11.8183 20.5983 11.8758 20.6628 11.941 20.719C11.971 20.747 11.987 20.785 12.02 20.809C12.036 20.82 12.056 20.824 12.072 20.835C12.088 20.846 12.091 20.856 12.104 20.863C12.117 20.87 12.153 20.876 12.176 20.887C12.2524 20.9238 12.333 20.951 12.416 20.968C12.454 20.9761 12.4924 20.9818 12.531 20.985C12.556 20.985 12.579 20.997 12.604 20.997C12.6915 20.9972 12.7786 20.9857 12.863 20.963L17.693 19.669C17.9481 19.5995 18.1653 19.4317 18.297 19.2025C18.4288 18.9732 18.4644 18.7011 18.396 18.4457C18.3277 18.1903 18.1609 17.9723 17.9323 17.8395C17.7037 17.7067 17.4318 17.6698 17.176 17.737L15.185 18.27C17.0392 16.4071 19.5006 15.2718 22.1212 15.0707C24.7419 14.8696 27.3476 15.6159 29.4644 17.174C31.5811 18.7321 33.0682 20.9984 33.6549 23.5604C34.2417 26.1225 33.8891 28.81 32.6614 31.134C31.4337 33.458 29.4125 35.2641 26.9655 36.2235C24.5185 37.1829 21.8084 37.232 19.3283 36.3617C16.8482 35.4915 14.7629 33.7598 13.4519 31.4817C12.1409 29.2036 11.6914 26.5306 12.185 23.949C12.2143 23.8181 12.2169 23.6827 12.1928 23.5508C12.1687 23.4189 12.1183 23.2932 12.0446 23.1812C11.9709 23.0692 11.8755 22.9731 11.7639 22.8987C11.6524 22.8243 11.527 22.7731 11.3952 22.7482C11.2635 22.7232 11.1281 22.725 10.997 22.7535C10.866 22.7819 10.742 22.8364 10.6325 22.9137C10.5229 22.9911 10.43 23.0896 10.3594 23.2036C10.2887 23.3175 10.2416 23.4445 10.221 23.577C9.72108 26.2269 10.0567 28.9667 11.1816 31.4175C12.3064 33.8684 14.1649 35.9093 16.5 37.258Z" fill="#008AE5"/>
</svg>