<svg xmlns="http://www.w3.org/2000/svg" width="26" height="26" viewBox="0 0 26 26"><defs><clipPath id="km8ha"><path fill="#fff" d="M0 26V0h26v26z"/></clipPath></defs><g><g><path fill="#fff" d="M0 26V0h26v26z"/><path fill="none" stroke="#62514b" stroke-miterlimit="20" stroke-opacity=".51" stroke-width="2" d="M0 26v0V0v0h26v26z" clip-path="url(&quot;#km8ha&quot;)"/></g><g><path fill="#6b5b56" d="M19.567 9.286c.01.144.01.289.01.433 0 4.399-3.348 9.468-9.467 9.468A9.403 9.403 0 0 1 5 17.693c.268.03.525.04.804.04a6.664 6.664 0 0 0 4.13-1.42 3.333 3.333 0 0 1-3.11-2.308c.206.03.412.051.628.051.299 0 .597-.041.876-.113a3.328 3.328 0 0 1-2.669-3.266v-.041c.443.247.958.402 1.504.422A3.325 3.325 0 0 1 5.68 8.287c0-.618.165-1.185.453-1.68a9.458 9.458 0 0 0 6.861 3.483 3.756 3.756 0 0 1-.082-.763A3.326 3.326 0 0 1 16.24 6a3.32 3.32 0 0 1 2.43 1.05 6.551 6.551 0 0 0 2.113-.803 3.319 3.319 0 0 1-1.463 1.834 6.671 6.671 0 0 0 1.916-.515 7.153 7.153 0 0 1-1.669 1.72z"/></g></g></svg>