<svg xmlns="http://www.w3.org/2000/svg" width="26" height="26" viewBox="0 0 26 26"><defs><clipPath id="242ba"><path fill="#fff" d="M0 26V0h26v26z"/></clipPath></defs><g><g><path fill="#fff" d="M0 26V0h26v26z"/><path fill="none" stroke="#62514b" stroke-miterlimit="20" stroke-opacity=".51" stroke-width="2" d="M0 26v0V0v0h26v26z" clip-path="url(&quot;#242ba&quot;)"/></g><g><path fill="#62514b" d="M20.855 8.165l-2.496 11.772c-.189.83-.68 1.038-1.378.646l-3.803-2.802-1.835 1.765c-.203.203-.373.373-.764.373l.273-3.874 7.049-6.37c.306-.273-.067-.424-.477-.15L8.71 15.01 4.96 13.837c-.816-.255-.831-.816.17-1.207l14.673-5.654c.68-.254 1.274.152 1.053 1.19z"/></g></g></svg>