<svg xmlns="http://www.w3.org/2000/svg" width="40" height="40" viewBox="0 0 40 40"><g><g><path fill="#fff" d="M33.216 9.482l-2.144 2.056a.63.63 0 0 0-.242.598v15.13a.615.615 0 0 0 .242.6l2.1 2.055v.456H22.626v-.438l2.172-2.11c.214-.214.214-.276.214-.598V14.996l-6.04 15.336h-.814l-7.034-15.336v10.278c-.062.429.09.866.394 1.18l2.824 3.422v.456H6.316v-.456l2.825-3.423c.303-.313.437-.75.366-1.18V13.388a1.02 1.02 0 0 0-.34-.875l-2.511-3.03v-.456h7.802l6.023 13.227 5.3-13.218h7.436zM-.047 0v40.037h40.038V0z"/></g></g></svg>