<svg width="94" height="77" viewBox="0 0 94 77" fill="none" xmlns="http://www.w3.org/2000/svg">
<path d="M71.1437 37.1747L62.3573 39.5367L55.4604 35.4741L64.2468 33.1122L71.1437 37.1747ZM45.8237 29.9944L54.6101 27.6325L61.507 31.6005L52.7205 33.9625L45.8237 29.9944ZM36.1869 24.4202L44.9734 22.0583L51.8702 26.0264L43.0838 28.3883L36.1869 24.4202ZM26.6447 18.846L35.4311 16.4841L42.328 20.4522L33.5416 22.8141L26.6447 18.846ZM17.0079 13.3663L25.7944 11.0044L32.6913 14.9725L32.3133 15.0669L23.8103 17.3344L17.0079 13.3663ZM11.8117 10.3431C11.5282 10.1541 11.3393 9.87066 11.2448 9.49275C11.1503 9.11484 11.2448 8.73693 11.3393 8.4535L13.2288 5.24125C13.4178 4.95782 13.7012 4.67439 14.0791 4.57991C14.457 4.48543 14.835 4.57991 15.1184 4.67439L23.2435 9.39827L14.457 11.7602L11.8117 10.3431ZM19.0865 72.9818H6.9933V47.7562C6.9933 45.6777 8.6939 43.8827 10.8669 43.8827H15.3073C17.3859 43.8827 19.1809 45.5833 19.1809 47.7562V72.9818H19.0865ZM15.3073 41.8041H10.8669C7.56017 41.8041 4.82031 44.4495 4.82031 47.7562V74.0211C4.82031 74.6824 5.2927 75.1548 5.85957 75.1548H20.1257C20.6926 75.1548 21.165 74.6824 21.165 74.1155V47.7562C21.2594 44.4495 18.6141 41.8041 15.3073 41.8041ZM75.0173 58.6212C73.4112 58.6212 72.0885 57.2985 72.0885 55.6924C72.0885 54.0863 73.4112 52.7636 75.0173 52.7636C76.6234 52.7636 77.9461 54.0863 77.9461 55.6924C77.9461 57.2985 76.6234 58.6212 75.0173 58.6212ZM75.0173 50.5906C72.2774 50.5906 70.01 52.858 70.01 55.5979C70.01 58.3377 72.2774 60.6052 75.0173 60.6052C77.7571 60.6052 80.0246 58.3377 80.0246 55.5979C80.0246 52.858 77.7571 50.5906 75.0173 50.5906ZM61.6959 75.1548H87.4884C87.7718 75.1548 88.0552 75.0603 88.2442 74.8714C88.4331 74.6824 88.5276 74.399 88.5276 74.1155V42.9379C88.5276 41.0483 88.1497 39.2532 87.3939 37.5526C86.7325 35.852 85.6933 34.4349 84.3706 33.1122C83.2369 31.695 81.7252 30.7502 80.0246 29.9944C78.324 29.2386 76.4345 28.8607 74.5449 28.8607C72.8443 28.8607 71.2382 29.1441 69.6321 29.711C68.4038 30.1834 67.2701 30.8447 66.1364 31.6005L66.0419 31.695L16.1576 2.87931C15.3073 2.40692 14.3626 2.31244 13.5123 2.5014C12.5675 2.78483 11.8117 3.3517 11.3393 4.202L9.44972 7.41424C8.97733 8.17006 8.88286 9.11484 9.16629 10.0596C9.44972 11.0044 10.0166 11.7602 10.7724 12.2326L71.8995 47.4728C72.183 47.6618 72.4664 47.6618 72.7498 47.5673C73.0333 47.4728 73.2222 47.2839 73.4112 47.0949C73.6946 46.6225 73.5056 45.9612 73.0333 45.5833L65.0971 41.0483L67.837 40.2925C70.1989 39.6312 72.7498 38.9698 73.8836 38.6864H73.978L76.34 40.0091C77.3792 40.5759 77.9461 41.6152 77.9461 42.8434C77.9461 43.8827 77.4737 44.8274 76.6234 45.4888C76.151 45.8667 76.0565 46.528 76.34 47.0004C76.5289 47.1894 76.7179 47.3783 77.0013 47.4728C77.2848 47.4728 77.5682 47.4728 77.8516 47.2839C79.2688 46.2446 80.1191 44.6385 80.1191 42.9379C80.1191 41.0483 79.0798 39.2532 77.3792 38.3085L77.4737 38.214L77.3792 38.3085L68.4039 33.1122L68.5928 33.0177C70.4824 31.884 72.5609 31.2226 74.7339 31.2226C77.8516 31.2226 80.8749 32.4508 83.0479 34.7183C85.3154 36.9858 86.5436 39.9146 86.5436 43.0324V73.1708H62.9241V45.1109C62.9241 44.544 62.4518 44.0716 61.8849 44.0716C61.318 44.0716 60.8456 44.544 60.8456 45.1109V74.0211C60.8456 74.3045 60.9401 74.5879 61.1291 74.7769C61.1291 75.0603 61.4125 75.1548 61.6959 75.1548Z" fill="white"/>
</svg>
