<svg width="64" height="27" viewBox="0 0 64 27" fill="none" xmlns="http://www.w3.org/2000/svg">
<path d="M26.5444 14.6865C26.5444 14.2947 26.5444 14.0857 26.5444 13.8767C26.5444 10.7682 26.6245 7.64666 26.5177 4.53815C26.4509 2.53982 28.0532 1.23372 30.1362 2.01738C30.4299 0.93332 31.0575 0.136601 32.2725 0.0190523C33.4475 -0.111557 34.262 0.437003 34.7828 1.42964C36.9859 0.711284 38.4813 1.40352 38.6149 4.30305C38.7884 4.26387 38.9487 4.21162 39.1223 4.17244C40.8581 3.83286 42.1265 4.79937 42.1532 6.64096C42.2066 10.8597 42.26 15.0914 42.1265 19.297C42.0464 21.9092 41.0583 24.2341 38.7083 25.7492C36.8657 26.9508 34.7694 27.1206 32.6197 26.9377C31.8052 26.8724 30.9907 26.7418 30.2029 26.5459C28.2668 26.0757 26.7714 24.9394 25.7566 23.3329C24.1543 20.8121 22.6589 18.226 21.1901 15.6269C20.5492 14.4906 21.0032 13.1584 22.0447 12.5315C23.0461 11.9307 24.5015 12.1919 25.3026 13.1192C25.6899 13.5763 26.0504 14.0596 26.5444 14.6865ZM40.9515 13.067C40.9515 13.067 40.9649 13.067 40.9515 13.067C40.9515 11.0164 40.9649 8.97888 40.9515 6.92831C40.9515 6.5626 40.9382 6.13159 40.7379 5.87037C40.5242 5.58303 40.0836 5.29568 39.7498 5.29568C39.416 5.29568 38.9887 5.59609 38.7617 5.88343C38.5748 6.13159 38.5615 6.54954 38.5615 6.88912C38.5481 8.49562 38.5481 10.1152 38.5481 11.7217C38.5481 11.8784 38.6015 12.0613 38.5348 12.1658C38.3612 12.427 38.1342 12.649 37.9205 12.8841C37.7336 12.649 37.52 12.427 37.3598 12.1788C37.293 12.0613 37.3464 11.8784 37.3464 11.7347C37.3464 9.18785 37.3464 6.64096 37.333 4.09408C37.333 3.72837 37.333 3.31042 37.1595 3.02308C36.9859 2.73573 36.6254 2.42227 36.2916 2.37003C35.4103 2.2133 34.9296 2.68349 34.9296 3.59776C34.9163 6.14465 34.9296 8.69154 34.9296 11.2384C34.9296 11.4082 34.983 11.6303 34.9029 11.7478C34.7561 11.9568 34.5291 12.2441 34.3288 12.2441C34.1285 12.2441 33.8882 11.9698 33.7546 11.7609C33.6612 11.6172 33.7279 11.3821 33.7279 11.1862C33.7279 8.44338 33.7279 5.70057 33.7279 2.95777C33.7279 2.78798 33.7279 2.60512 33.7279 2.43533C33.7012 1.66473 33.2205 1.15536 32.5129 1.16842C31.8052 1.16842 31.3245 1.6778 31.3245 2.44839C31.3112 4.57733 31.3245 6.71933 31.3245 8.84827C31.3245 9.65805 31.3245 10.4548 31.3245 11.2645C31.3245 11.7086 31.4046 12.2833 30.7103 12.2702C30.0293 12.2572 30.1362 11.6825 30.1228 11.2384C30.1228 10.4939 30.1228 9.76254 30.1228 9.01806C30.1228 7.41156 30.1228 5.792 30.1228 4.1855C30.1228 3.62388 29.8958 3.21899 29.3484 3.01001C28.4938 2.68349 27.706 3.25817 27.706 4.21162C27.6927 8.1691 27.706 12.1396 27.6793 16.0971C27.6793 16.3844 27.4257 16.6718 27.2921 16.9722C26.9984 16.8285 26.6245 16.7502 26.4242 16.5151C25.7433 15.7183 25.1291 14.8563 24.4748 14.0335C23.914 13.3412 23.193 13.1714 22.6055 13.5502C22.018 13.929 21.8978 14.6343 22.3251 15.4049C23.2864 17.142 24.2345 18.8922 25.2626 20.5901C25.8768 21.6088 26.6112 22.5884 27.3722 23.5157C28.4938 24.9002 30.0561 25.5271 31.8186 25.7361C33.3541 25.919 34.8896 25.9712 36.385 25.5402C39.4828 24.652 40.7779 22.0268 40.8981 19.284C41.0316 17.2073 40.9515 15.1306 40.9515 13.067Z" fill="white"/>
<path d="M46.4737 15.6393C46.4759 15.7719 46.534 15.8982 46.6353 15.9906C46.7366 16.0829 46.8728 16.1337 47.014 16.1318L60.2869 16.1318L58.7105 17.6124C58.6593 17.6585 58.6185 17.7137 58.5904 17.7748C58.5623 17.8359 58.5474 17.9017 58.5467 17.9682C58.546 18.0348 58.5594 18.1008 58.5862 18.1624C58.613 18.224 58.6526 18.28 58.7027 18.3271C58.7528 18.3742 58.8124 18.4114 58.878 18.4365C58.9436 18.4617 59.0139 18.4743 59.0848 18.4736C59.1557 18.4729 59.2257 18.459 59.2907 18.4326C59.3558 18.4062 59.4146 18.3678 59.4636 18.3198L61.9493 15.9852C62.0491 15.8914 62.1052 15.7642 62.1052 15.6315C62.1052 15.4989 62.0491 15.3716 61.9493 15.2778L59.4636 12.9432C59.4146 12.8952 59.3558 12.8569 59.2907 12.8305C59.2257 12.8041 59.1557 12.7901 59.0848 12.7894C59.0139 12.7888 58.9436 12.8014 58.878 12.8265C58.8124 12.8517 58.7528 12.8889 58.7027 12.936C58.6526 12.983 58.613 13.039 58.5862 13.1006C58.5594 13.1623 58.546 13.2283 58.5467 13.2948C58.5474 13.3614 58.5623 13.4271 58.5904 13.4882C58.6185 13.5493 58.6593 13.6045 58.7105 13.6506L60.2869 15.1313L47.014 15.1313C46.9427 15.1303 46.8719 15.1428 46.8058 15.168C46.7398 15.1932 46.6798 15.2306 46.6294 15.278C46.579 15.3254 46.5393 15.3818 46.5125 15.4438C46.4858 15.5059 46.4726 15.5724 46.4737 15.6393Z" fill="white"/>
<path d="M16.6318 15.6238C16.6296 15.4913 16.5714 15.3649 16.4701 15.2726C16.3688 15.1803 16.2327 15.1295 16.0915 15.1314L2.81861 15.1314L4.39501 13.6508C4.44613 13.6047 4.48694 13.5495 4.51506 13.4884C4.54317 13.4273 4.55802 13.3615 4.55874 13.295C4.55946 13.2284 4.54604 13.1624 4.51925 13.1008C4.49247 13.0391 4.45286 12.9832 4.40275 12.9361C4.35264 12.889 4.29304 12.8518 4.22743 12.8267C4.16182 12.8015 4.09153 12.7889 4.02067 12.7896C3.94981 12.7903 3.8798 12.8042 3.81475 12.8306C3.7497 12.857 3.69091 12.8953 3.64183 12.9434L1.1562 15.2779C1.05635 15.3718 1.00026 15.499 1.00026 15.6317C1.00026 15.7643 1.05635 15.8915 1.1562 15.9854L3.64183 18.32C3.69091 18.368 3.7497 18.4063 3.81475 18.4327C3.8798 18.4591 3.94981 18.4731 4.02067 18.4737C4.09153 18.4744 4.16182 18.4618 4.22743 18.4366C4.29304 18.4115 4.35264 18.3743 4.40275 18.3272C4.45286 18.2802 4.49247 18.2242 4.51925 18.1626C4.54604 18.1009 4.55946 18.0349 4.55874 17.9684C4.55802 17.9018 4.54317 17.836 4.51506 17.775C4.48694 17.7139 4.44613 17.6586 4.39501 17.6125L2.81861 16.1319L16.0915 16.1319C16.1628 16.1329 16.2336 16.1204 16.2996 16.0952C16.3657 16.07 16.4257 16.0326 16.4761 15.9852C16.5264 15.9378 16.5662 15.8814 16.5929 15.8194C16.6197 15.7573 16.6329 15.6908 16.6318 15.6238Z" fill="white"/>
</svg>
