<svg width="64" height="64" viewBox="0 0 64 64" fill="none" xmlns="http://www.w3.org/2000/svg">
<path fill-rule="evenodd" clip-rule="evenodd" d="M57.0301 50.77C56.7466 47.7166 55.3909 44.8623 53.2034 42.7133C51.0159 40.5642 48.138 39.2593 45.0801 39.03H45.0701C44.7501 39.01 38.0001 39 38.0001 39C37.7349 39 37.4806 38.8946 37.293 38.7071C37.1055 38.5196 37.0001 38.2652 37.0001 38V36.79C38.6704 35.9331 40.0944 34.6642 41.1374 33.1032C42.1803 31.5423 42.8077 29.7411 42.9601 27.87C43.8257 27.656 44.5949 27.159 45.1457 26.4578C45.6965 25.7567 45.9972 24.8916 46.0001 24C46.7958 24 47.5588 23.6839 48.1214 23.1213C48.6841 22.5587 49.0001 21.7956 49.0001 21C49.0001 20.2044 48.6841 19.4413 48.1214 18.8787C47.5588 18.3161 46.7958 18 46.0001 18C46.0089 14.9768 45.0342 12.0327 43.2231 9.61191C41.4121 7.19114 38.8629 5.42502 35.9601 4.58C35.8592 3.86601 35.5044 3.21227 34.9609 2.73847C34.4173 2.26467 33.7212 2.00251 33.0001 2H31.0001C30.279 2.00251 29.583 2.26467 29.0394 2.73847C28.4958 3.21227 28.1411 3.86601 28.0401 4.58C25.1374 5.42502 22.5882 7.19114 20.7771 9.61191C18.966 12.0327 17.9914 14.9768 18.0001 18C17.2045 18 16.4414 18.3161 15.8788 18.8787C15.3162 19.4413 15.0001 20.2044 15.0001 21C15.0001 21.7956 15.3162 22.5587 15.8788 23.1213C16.4414 23.6839 17.2045 24 18.0001 24C18.003 24.8916 18.3038 25.7567 18.8545 26.4578C19.4053 27.159 20.1746 27.656 21.0401 27.87C21.1925 29.7411 21.8199 31.5423 22.8629 33.1032C23.9058 34.6642 25.3298 35.9331 27.0001 36.79V38C27.0001 38.2652 26.8948 38.5196 26.7072 38.7071C26.5197 38.8946 26.2653 39 26.0001 39H19.9101C16.6737 38.9881 13.5501 40.1888 11.155 42.3656C8.75985 44.5423 7.26683 47.5371 6.97012 50.76L6.00012 60.9C5.9885 61.0393 6.00557 61.1795 6.05029 61.312C6.09501 61.4444 6.16643 61.5663 6.26012 61.67C6.35362 61.7736 6.46776 61.8565 6.5952 61.9133C6.72265 61.9701 6.86058 61.9997 7.00012 62H57.0001C57.1397 61.9997 57.2776 61.9701 57.405 61.9133C57.5325 61.8565 57.6466 61.7736 57.7401 61.67C57.8338 61.5663 57.9052 61.4444 57.95 61.312C57.9947 61.1795 58.0117 61.0393 58.0001 60.9L57.0301 50.77ZM42.0001 41H44.0001V50H42.0001V41ZM43.0001 25.73V24H44.0001C44.0014 24.3511 43.9095 24.6962 43.7338 25.0001C43.5581 25.304 43.305 25.5559 43.0001 25.73ZM21.0001 25.73C20.6953 25.5559 20.4421 25.304 20.2664 25.0001C20.0907 24.6962 19.9988 24.3511 20.0001 24H21.0001V25.73ZM18.0001 22C17.7349 22 17.4806 21.8946 17.293 21.7071C17.1055 21.5196 17.0001 21.2652 17.0001 21C17.0001 20.7348 17.1055 20.4804 17.293 20.2929C17.4806 20.1054 17.7349 20 18.0001 20C18.0001 20.2652 18.1055 20.5196 18.293 20.7071C18.4806 20.8946 18.7349 21 19.0001 21C19.2653 21 19.5197 20.8946 19.7072 20.7071C19.8948 20.5196 20.0001 20.2652 20.0001 20V18C19.9949 16.0937 20.446 14.2139 21.3159 12.5177C22.1857 10.8215 23.449 9.35812 25.0001 8.25V10C25.0001 10.2652 25.1055 10.5196 25.293 10.7071C25.4806 10.8946 25.7349 11 26.0001 11C26.2653 11 26.5197 10.8946 26.7072 10.7071C26.8948 10.5196 27.0001 10.2652 27.0001 10V7.09C27.3301 6.94 27.6601 6.81 28.0001 6.69V13C28.0001 13.2652 28.1055 13.5196 28.293 13.7071C28.4806 13.8946 28.7349 14 29.0001 14C29.2653 14 29.5197 13.8946 29.7072 13.7071C29.8948 13.5196 30.0001 13.2652 30.0001 13V5C30.0001 4.73478 30.1055 4.48043 30.293 4.29289C30.4806 4.10536 30.7349 4 31.0001 4H33.0001C33.2653 4 33.5197 4.10536 33.7072 4.29289C33.8948 4.48043 34.0001 4.73478 34.0001 5V13C34.0001 13.2652 34.1055 13.5196 34.293 13.7071C34.4806 13.8946 34.7349 14 35.0001 14C35.2653 14 35.5197 13.8946 35.7072 13.7071C35.8948 13.5196 36.0001 13.2652 36.0001 13V6.69C36.3401 6.81 36.6701 6.94 37.0001 7.09V10C37.0001 10.2652 37.1055 10.5196 37.293 10.7071C37.4806 10.8946 37.7349 11 38.0001 11C38.2653 11 38.5197 10.8946 38.7072 10.7071C38.8948 10.5196 39.0001 10.2652 39.0001 10V8.25C40.5512 9.35812 41.8145 10.8215 42.6844 12.5177C43.5542 14.2139 44.0054 16.0937 44.0001 18V20C44.0001 20.2652 44.1055 20.5196 44.293 20.7071C44.4806 20.8946 44.7349 21 45.0001 21C45.2653 21 45.5197 20.8946 45.7072 20.7071C45.8948 20.5196 46.0001 20.2652 46.0001 20C46.2653 20 46.5197 20.1054 46.7072 20.2929C46.8948 20.4804 47.0001 20.7348 47.0001 21C47.0001 21.2652 46.8948 21.5196 46.7072 21.7071C46.5197 21.8946 46.2653 22 46.0001 22H18.0001ZM23.0001 27V24H25.0002H27.0001H28.0001H36.0001H37.0001H39.0002H41.0001V27C41.0001 29.3869 40.0519 31.6761 38.3641 33.364C36.6763 35.0518 34.3871 36 32.0001 36C29.6132 36 27.324 35.0518 25.6362 33.364C23.9483 31.6761 23.0001 29.3869 23.0001 27ZM29.0001 38V37.57C30.959 38.1433 33.0412 38.1433 35.0001 37.57V38C35.0014 38.7484 35.2837 39.469 35.7912 40.0191C36.2986 40.5692 36.9942 40.9086 37.7401 40.97C37.102 41.9039 36.2457 42.668 35.2454 43.196C34.2452 43.724 33.1312 43.9999 32.0001 43.9999C30.8691 43.9999 29.7551 43.724 28.7548 43.196C27.7546 42.668 26.8982 41.9039 26.2601 40.97C27.006 40.9086 27.7016 40.5692 28.2091 40.0191C28.7166 39.469 28.9989 38.7484 29.0001 38ZM24.0001 41.08C24.7481 42.5597 25.8919 43.803 27.3042 44.6716C28.7165 45.5402 30.3421 46.0001 32.0001 46.0001C33.6582 46.0001 35.2837 45.5402 36.6961 44.6716C38.1084 43.803 39.2521 42.5597 40.0001 41.08V50H24.0001V41.08ZM30.0001 52H34.0001H36.0001H40H47.0001C47.2653 52 47.5197 52.1054 47.7072 52.2929C47.8948 52.4804 48.0001 52.7348 48.0001 53V60H40H29.0092H28.9894H26H17.0001V53C17.0001 52.7348 17.1055 52.4804 17.293 52.2929C17.4806 52.1054 17.7349 52 18.0001 52H26H28.0001H30.0001ZM20.0001 41H22.0001V50H20.0001V41ZM15.0001 53V60H8.10012L8.97012 50.95C9.18746 48.5527 10.1905 46.2943 11.8235 44.5258C13.4564 42.7572 15.6277 41.5775 18.0001 41.17V50C17.2052 50.0024 16.4435 50.3192 15.8814 50.8813C15.3193 51.4434 15.0025 52.2051 15.0001 53ZM50.0001 60V53C49.9977 52.2051 49.6809 51.4434 49.1188 50.8813C48.5567 50.3192 47.795 50.0024 47.0001 50H46.0001V41.17C48.3739 41.5805 50.5461 42.7621 52.1803 44.532C53.8146 46.3018 54.8198 48.5611 55.0401 50.96L55.9001 60H50.0001Z" fill="#008AE5"/>
</svg>