<svg xmlns="http://www.w3.org/2000/svg" width="40" height="40" viewBox="0 0 40 40"><g><g><path fill="#fff" d="M7.015 28.594c2.634 0 5.117-.854 7.18-2.47a5.797 5.797 0 0 1-5.407-4.013 7.2 7.2 0 0 0 1.092.09c.501 0 1.014-.065 1.523-.197a5.815 5.815 0 0 1-3.314-1.985 5.8 5.8 0 0 1-1.325-3.691v-.072a5.83 5.83 0 0 0 2.615.734 5.776 5.776 0 0 1-2.58-4.817c0-1.043.267-2.026.789-2.92a16.48 16.48 0 0 0 11.927 6.054 6.568 6.568 0 0 1-.143-1.325 5.791 5.791 0 0 1 5.785-5.785 5.81 5.81 0 0 1 4.226 1.827 11.45 11.45 0 0 0 3.67-1.397 5.766 5.766 0 0 1-2.542 3.188c1.11-.12 2.23-.421 3.33-.896a12.372 12.372 0 0 1-2.9 2.99c.018.252.018.506.018.753 0 3.995-1.545 8.04-4.24 11.096a15.57 15.57 0 0 1-5.159 3.865c-2.143.993-4.519 1.496-7.06 1.496-3.17 0-6.241-.898-8.882-2.594v-.002c.432.05.863.071 1.397.071zM40 40V0H0v39.999z"/></g></g></svg>