<svg xmlns="http://www.w3.org/2000/svg" width="36" height="36" viewBox="0 0 36 36"><g><g><path fill="#6b5b56" d="M17.713 24.656l-2.889 2.836c-.314.32-.586.596-1.202.597l.43-6.22 11.095-10.23c.144-.131.203-.255.167-.347-.03-.08-.134-.129-.275-.129-.191 0-.425.085-.642.232l-13.715 8.813-5.905-1.886c-.585-.187-.928-.487-.94-.823-.014-.398.426-.804 1.208-1.116l23.095-9.08c.206-.079.407-.119.597-.119.347 0 .637.131.838.379.205.253.41.744.221 1.65l-3.928 18.906c-.199.892-.604 1.345-1.205 1.345-.283 0-.607-.103-.963-.307l-5.985-4.5-.001-.001zM36 36V0H0v36z"/></g></g></svg>