<svg width="64" height="64" viewBox="0 0 64 64" fill="none" xmlns="http://www.w3.org/2000/svg">
<path d="M59.6422 53.9159C59.5406 53.7631 59.4008 53.6393 59.2368 53.5569L57.027 52.4526C56.9817 52.287 56.8957 52.1352 56.7768 52.0113L38.2337 33.4682L40.9292 30.7759C43.2572 28.4459 45.9465 26.5073 48.8931 25.0355L49.9985 24.4791C50.4418 24.5321 50.8876 24.5599 51.3341 24.5625C54.3988 24.5658 57.3378 23.3436 59.4965 21.1681L60.7508 19.9138C63.8904 16.7719 64.6681 11.9741 62.6819 8.00124C62.4209 7.47981 61.7867 7.26865 61.2652 7.52956C61.1645 7.57998 61.0724 7.64623 60.9926 7.72568L55.7664 12.9519C54.5309 14.1903 52.5254 14.193 51.287 12.9576C50.6914 12.3635 50.3566 11.5569 50.3564 10.7157C50.3547 9.87542 50.6889 9.06918 51.2845 8.47635L56.5107 3.25014C56.9226 2.83745 56.9219 2.16886 56.5091 1.75697C56.4295 1.67752 56.3377 1.61127 56.2372 1.56085C52.2674 -0.433555 47.4663 0.342327 44.3268 3.48558L43.0725 4.73987C40.8879 6.91324 39.6637 9.87041 39.6728 12.9519C39.675 13.3815 39.7029 13.8105 39.7562 14.2368L39.2082 15.3412C37.7341 18.2879 35.7931 20.9769 33.4605 23.304L30.765 25.9995L29.1496 24.3852L32.1354 21.3962C32.5469 20.984 32.5469 20.3165 32.1354 19.9043L30.689 18.4579C30.4947 18.2635 30.2322 18.1525 29.9573 18.1485L27.7158 18.1179L27.3484 16.8077C27.2988 16.6335 27.2058 16.4748 27.0781 16.3463L12.9009 2.16372C10.0124 -0.722712 5.33116 -0.720996 2.44473 2.16741C-0.441695 5.05582 -0.43998 9.73711 2.44843 12.6235L16.5645 26.7396C16.6889 26.8638 16.8424 26.9549 17.0111 27.0046L18.4142 27.4216L18.4934 29.7444C18.5028 30.0119 18.6133 30.2658 18.8028 30.455L20.1964 31.8486C20.6087 32.2608 21.277 32.2608 21.6893 31.8486L24.6688 28.867L26.281 30.4792L23.0661 33.6931C20.7427 36.0276 18.0533 37.9666 15.1043 39.4335L14.0084 39.991C13.5811 39.9371 13.1509 39.9089 12.7203 39.9065C9.63856 39.8971 6.68126 41.1209 4.50724 43.3051L3.25295 44.5594C0.107321 47.697 -0.670408 52.4988 1.324 56.4688C1.58571 56.9899 2.22024 57.2001 2.74141 56.9384C2.84198 56.8879 2.9337 56.8218 3.01328 56.7423L8.23949 51.5171C9.4662 50.27 11.4716 50.2535 12.7187 51.4802C13.9659 52.7069 13.9824 54.7123 12.7557 55.9594C12.7437 55.9717 12.7315 55.9838 12.7193 55.9958L7.49304 61.2221C7.08154 61.6351 7.08286 62.3037 7.49595 62.7152C7.57579 62.7947 7.66778 62.8609 7.76861 62.9114C11.7397 64.8956 16.5349 64.1184 19.6759 60.9813L20.9302 59.7271C23.4322 57.2413 24.6523 53.7433 24.2391 50.2407L24.804 49.1194C26.2726 46.1735 28.2094 43.4854 30.5391 41.1597L33.7519 37.9469L51.7543 55.9452C51.7417 56.1245 51.7754 56.3043 51.8525 56.4667L53.338 59.4536C53.4204 59.6176 53.5442 59.7574 53.697 59.859L58.1768 62.8459C58.5954 63.1246 59.1524 63.0693 59.5081 62.7139L62.495 59.7271C62.851 59.3719 62.9071 58.8147 62.6291 58.3957L59.6422 53.9159ZM44.5654 6.23277L45.8197 4.97848C47.9261 2.86833 51.0126 2.06883 53.8786 2.89116L49.7916 6.97923C47.721 9.0317 47.7062 12.3742 49.7589 14.4448C51.8113 16.5154 55.1539 16.5301 57.2244 14.4775C57.2354 14.4667 57.2463 14.4557 57.2572 14.4448L61.3431 10.3588C62.1603 13.2242 61.3625 16.3075 59.2579 18.4167L58.0036 19.671C55.8975 21.7928 52.9084 22.7873 49.951 22.3506H49.9278C49.437 22.2806 48.9522 22.1726 48.4782 22.0276L48.4138 22.0075C47.9526 21.8625 47.5034 21.6824 47.0697 21.469L47.0064 21.4374C46.5647 21.2162 46.141 20.9605 45.7394 20.673C45.324 20.3727 44.9332 20.0397 44.5707 19.6773C43.1103 18.2223 42.1686 16.3278 41.89 14.2854C41.8233 13.8462 41.7898 13.4025 41.7897 12.9582C41.779 10.4355 42.7786 8.01351 44.5654 6.23277ZM34.9523 24.798C37.1599 22.5977 39.0397 20.0917 40.5343 17.3567C40.5808 17.4707 40.6399 17.5784 40.6906 17.6903C40.7719 17.8751 40.8542 18.0599 40.9461 18.2393C41.0232 18.3893 41.1066 18.536 41.19 18.6828C41.2734 18.8295 41.3673 18.9911 41.4634 19.1421C41.5595 19.293 41.6514 19.4345 41.7517 19.5781C41.852 19.7217 41.9628 19.8621 42.0684 20.0004C42.174 20.1387 42.2796 20.2792 42.3925 20.4143C42.5055 20.5494 42.6533 20.7057 42.7874 20.8493C42.8845 20.9549 42.9722 21.0604 43.0735 21.166C43.1538 21.2452 43.2403 21.3138 43.3216 21.3899C43.4969 21.5546 43.6722 21.7182 43.8559 21.8713C43.9509 21.9505 44.0501 22.0233 44.1473 22.1004C44.3394 22.2503 44.5337 22.395 44.7343 22.5322C44.8283 22.5966 44.9243 22.66 45.0204 22.7212C45.24 22.862 45.4645 22.9953 45.694 23.1214C45.7753 23.1657 45.8556 23.2122 45.9379 23.2555C46.2399 23.4117 46.5471 23.5574 46.8628 23.6862L46.8924 23.6999C44.1544 25.1942 41.6446 27.0728 39.4395 29.2788L36.7408 31.9753L32.9801 28.2156L32.2579 27.4924L34.9523 24.798ZM20.9461 29.6145L20.5934 29.2619L20.5026 26.5907C20.4873 26.1367 20.1832 25.7433 19.7477 25.6141L17.8716 25.0567L3.94661 11.138C1.88305 9.07591 1.88186 5.73127 3.94397 3.66771C6.00608 1.60414 9.35072 1.60295 11.4143 3.66507L25.3889 17.6439L25.8946 19.4482C26.0213 19.8984 26.429 20.2116 26.8965 20.2179L29.498 20.2538L29.8961 20.6518L20.9461 29.6145ZM19.4384 58.2363L18.1799 59.4937C16.0714 61.599 12.9878 62.3966 10.123 61.5779L14.209 57.4919C16.2454 55.4054 16.2047 52.0633 14.1182 50.0269C12.0689 48.0269 8.7988 48.0252 6.74765 50.0232L2.65959 54.1091C1.83567 51.2433 2.63478 48.1563 4.74585 46.0502L6.00014 44.7959C9.71577 41.0966 15.7227 41.0966 19.4384 44.7959C20.8892 46.2545 21.829 48.1435 22.1169 50.1805V50.1868C22.5551 53.1432 21.5605 56.1318 19.4384 58.2363ZM29.0462 39.6689C26.8395 41.8719 24.9607 44.3805 23.4673 47.1176C23.4525 47.0796 23.4325 47.0448 23.4166 47.012C23.3005 46.734 23.1738 46.4616 23.0365 46.1948C22.9785 46.0829 22.9162 45.9742 22.8539 45.8633C22.7483 45.6701 22.6343 45.479 22.515 45.2921C22.4358 45.1676 22.3555 45.0461 22.2721 44.9247C22.1549 44.7558 22.0314 44.5911 21.9047 44.4285C21.8129 44.3081 21.7221 44.1867 21.6239 44.0695C21.474 43.8911 21.3135 43.719 21.1519 43.548C21.0759 43.4688 21.0094 43.3833 20.9313 43.3051C20.8531 43.227 20.7571 43.1499 20.6715 43.0697C20.5079 42.9155 20.3442 42.7614 20.1732 42.6178C20.0476 42.5122 19.9166 42.4151 19.7868 42.3148C19.6369 42.1997 19.4859 42.0857 19.3317 41.978C19.1955 41.884 19.0583 41.7932 18.9179 41.7045C18.7574 41.5989 18.5937 41.5071 18.429 41.4142C18.2907 41.3361 18.1535 41.2569 18.012 41.1851C17.8167 41.0848 17.6161 40.995 17.4144 40.9063C17.3141 40.862 17.218 40.8092 17.1167 40.767C19.8554 39.2779 22.3637 37.3994 24.5632 35.1902L27.776 31.9774L32.259 36.4604L29.0462 39.6689ZM53.0413 54.2517L26.1659 27.3762L27.6609 25.8812L54.5364 52.7567L53.0413 54.2517ZM58.6297 60.6086L55.1044 58.2584L54.0771 56.2038L55.987 54.2939L58.0416 55.3212L60.3918 58.8465L58.6297 60.6086Z" fill="#008AE5"/>
</svg>