<svg width="24" height="10" viewBox="0 0 24 10" fill="none" xmlns="http://www.w3.org/2000/svg">
<path d="M23.9276 4.98751C23.9243 4.77221 23.8356 4.56704 23.6811 4.41708C23.5265 4.26712 23.3188 4.18462 23.1035 4.18771L2.85659 4.18771L5.26129 1.783C5.33927 1.70814 5.40152 1.61846 5.44441 1.51923C5.4873 1.42 5.50995 1.31321 5.51105 1.20512C5.51215 1.09703 5.49167 0.989797 5.45081 0.889717C5.40995 0.789637 5.34953 0.698715 5.27309 0.622277C5.19665 0.545839 5.10573 0.485421 5.00565 0.444561C4.90557 0.403701 4.79834 0.38322 4.69025 0.384319C4.58216 0.385418 4.47537 0.408074 4.37614 0.45096C4.27691 0.493847 4.18723 0.556101 4.11237 0.634077L0.320698 4.42575C0.168383 4.57812 0.0828171 4.78476 0.0828171 5.00021C0.0828171 5.21566 0.168383 5.42229 0.320698 5.57467L4.11237 9.36634C4.18723 9.44432 4.27691 9.50657 4.37614 9.54946C4.47537 9.59234 4.58216 9.615 4.69025 9.6161C4.79834 9.6172 4.90557 9.59672 5.00565 9.55586C5.10573 9.515 5.19665 9.45458 5.27309 9.37814C5.34953 9.3017 5.40995 9.21078 5.45081 9.1107C5.49167 9.01062 5.51215 8.90339 5.51105 8.7953C5.50995 8.6872 5.4873 8.58041 5.44441 8.48119C5.40152 8.38196 5.33927 8.29228 5.26129 8.21741L2.85659 5.81271L23.1035 5.81271C23.2122 5.81427 23.3202 5.79398 23.421 5.75305C23.5217 5.71212 23.6132 5.65138 23.6901 5.57442C23.767 5.49747 23.8276 5.40587 23.8684 5.30506C23.9092 5.20424 23.9293 5.09626 23.9276 4.98751Z" fill="white"/>
</svg>
