<svg width="86" height="26" viewBox="0 0 86 26" fill="none" xmlns="http://www.w3.org/2000/svg">
<path d="M53.1909 20.4304C48.27 24.0555 41.1384 25.9951 34.9894 25.9951C26.3756 25.9951 18.6257 22.8104 12.7562 17.5084C12.2988 17.0933 12.7054 16.5259 13.2644 16.8477C19.5913 20.5321 27.4258 22.7427 35.506 22.7427C40.9605 22.7427 46.9571 21.6162 52.471 19.2701C53.3095 18.9228 54.004 19.8206 53.1909 20.4304Z" fill="#FE9900"/>
<path d="M55.2319 18.0844C54.6052 17.2797 51.0733 17.7032 49.4894 17.8896C49.0066 17.9489 48.9304 17.5254 49.3708 17.2289C52.1828 15.247 56.7988 15.8229 57.3409 16.4836C57.883 17.1527 57.1969 21.7772 54.5543 23.9878C54.1478 24.3266 53.7582 24.1487 53.9445 23.6998C54.5374 22.2176 55.8671 18.8975 55.2319 18.0844Z" fill="#FE9900"/>
<path d="M49.5987 3.25332V1.33068C49.5987 1.04271 49.8189 0.8479 50.0814 0.8479H58.6952C58.9747 0.8479 59.1949 1.05118 59.1949 1.33068V2.98228C59.1949 3.26179 58.9578 3.61752 58.5428 4.19346L54.0876 10.5627C55.7477 10.5204 57.501 10.766 59.0001 11.613C59.3389 11.8078 59.4321 12.0873 59.4575 12.3583V14.408C59.4575 14.6875 59.1441 15.0178 58.8223 14.8484C56.1712 13.4594 52.6478 13.3069 49.7172 14.8654C49.4208 15.0263 49.1074 14.7045 49.1074 14.425V12.4769C49.1074 12.1635 49.1074 11.6299 49.4208 11.1556L54.5958 3.73609H50.0984C49.8189 3.73609 49.5987 3.54129 49.5987 3.25332Z" fill="white"/>
<path d="M18.1689 15.2637H15.5518C15.2977 15.2468 15.1029 15.0604 15.0859 14.8148V1.36482C15.0859 1.09379 15.3146 0.882042 15.5941 0.882042H18.0419C18.296 0.890511 18.4993 1.08532 18.5162 1.33094V3.09265H18.567C19.2022 1.39023 20.405 0.602539 22.0142 0.602539C23.6574 0.602539 24.6822 1.3987 25.4191 3.09265C26.0543 1.39023 27.4942 0.602539 29.0357 0.602539C30.1367 0.602539 31.3394 1.05991 32.0678 2.07628C32.8979 3.21123 32.7285 4.85437 32.7285 6.29423V14.7809C32.7285 15.052 32.4998 15.2637 32.2203 15.2637H29.6031C29.3406 15.2468 29.1288 15.035 29.1288 14.7809V7.64939C29.1288 7.08192 29.1796 5.66747 29.0526 5.1254C28.8578 4.21913 28.2734 3.96504 27.5111 3.96504C26.8759 3.96504 26.2152 4.38853 25.9442 5.06611C25.6732 5.74369 25.6986 6.87864 25.6986 7.64092V14.7725C25.6986 15.0435 25.4699 15.2553 25.1904 15.2553H22.5817C22.3191 15.2383 22.1074 15.0266 22.1074 14.7725V7.64092C22.1074 6.14177 22.353 3.93116 20.4897 3.93116C18.6094 3.93116 18.6771 6.08248 18.6771 7.64092V14.7725C18.6771 15.0435 18.4484 15.2637 18.1689 15.2637Z" fill="white"/>
<path d="M66.6235 0.594238C70.5111 0.594238 72.6201 3.93133 72.6201 8.18316C72.6201 12.2825 70.2909 15.5434 66.6235 15.5434C62.8036 15.5434 60.7285 12.2063 60.7285 8.03917C60.7201 3.8551 62.829 0.594238 66.6235 0.594238ZM66.6404 3.34692C64.7093 3.34692 64.5908 5.97255 64.5908 7.61568C64.5908 9.25882 64.5653 12.7738 66.6235 12.7738C68.6562 12.7738 68.7494 9.94487 68.7494 8.21704C68.7494 7.08209 68.6986 5.72692 68.3598 4.65126C68.0634 3.71112 67.479 3.34692 66.6404 3.34692Z" fill="white"/>
<path d="M77.6611 15.2639H75.0524C74.7899 15.247 74.5781 15.0352 74.5781 14.7811V1.32264C74.6035 1.07702 74.8153 0.882211 75.0863 0.882211H77.5171C77.7458 0.89068 77.9322 1.05161 77.983 1.25488V3.31304H78.0338C78.7707 1.47509 79.7955 0.594238 81.608 0.594238C82.7853 0.594238 83.9288 1.01773 84.6656 2.17809C85.3517 3.25375 85.3517 5.06628 85.3517 6.36216V14.8319C85.3263 15.0691 85.1061 15.2554 84.8435 15.2554H82.2179C81.9807 15.2385 81.7774 15.0606 81.752 14.8319V7.53099C81.752 6.05724 81.9214 3.90592 80.1089 3.90592C79.4737 3.90592 78.8808 4.32941 78.5928 4.98158C78.2201 5.80315 78.1778 6.62472 78.1778 7.53099V14.7726C78.1693 15.0437 77.9406 15.2639 77.6611 15.2639Z" fill="white"/>
<path d="M47.3984 12.7993C46.9157 12.1386 46.4075 11.5966 46.4075 10.3685V6.27755C46.4075 4.54972 46.5261 2.9574 45.2556 1.77163C44.2562 0.806076 42.5876 0.467285 41.3087 0.467285C38.8186 0.467285 36.032 1.39896 35.4476 4.48196C35.3883 4.81228 35.6254 4.98168 35.8372 5.0325L38.3781 5.30353C38.6153 5.29506 38.7931 5.0579 38.8355 4.82075C39.0557 3.76203 39.945 3.24537 40.9445 3.24537C41.4865 3.24537 42.0964 3.44865 42.4182 3.93142C42.7909 4.47349 42.7401 5.21036 42.7401 5.82865V6.16745C41.224 6.33684 39.2336 6.45542 37.8107 7.08218C36.1675 7.79364 35.0156 9.24197 35.0156 11.3679C35.0156 14.0952 36.7265 15.4503 38.9371 15.4503C40.8005 15.4503 41.8169 15.0099 43.2567 13.5446C43.731 14.2307 43.892 14.5695 44.7643 15.2894C44.9591 15.391 45.2132 15.3826 45.3826 15.2301V15.2386C45.9078 14.7727 46.8564 13.9427 47.39 13.5023C47.6017 13.3159 47.5678 13.028 47.3984 12.7993ZM42.2403 11.6135C41.8253 12.3504 41.1562 12.8077 40.4278 12.8077C39.4199 12.8077 38.8355 12.037 38.8355 10.9105C38.8355 8.6745 40.8344 8.26795 42.7401 8.26795V8.83543C42.7316 9.86027 42.757 10.7072 42.2403 11.6135Z" fill="white"/>
<path d="M13.0358 12.7993C12.553 12.1386 12.0449 11.5966 12.0449 10.3685V6.27755C12.0449 4.54972 12.1634 2.9574 10.893 1.77163C9.88506 0.806076 8.22498 0.467285 6.94605 0.467285C4.45593 0.467285 1.66937 1.39896 1.08496 4.48196C1.02567 4.81228 1.26283 4.98168 1.47457 5.0325L4.0155 5.30353C4.25266 5.29506 4.42205 5.0579 4.47287 4.82075C4.69309 3.76203 5.58241 3.24537 6.58185 3.24537C7.12391 3.24537 7.73374 3.44865 8.05559 3.93142C8.41979 4.47349 8.36897 5.21036 8.36897 5.82865V6.16745C6.85288 6.33684 4.86248 6.44695 3.43956 7.07371C1.79642 7.78517 0.644531 9.23351 0.644531 11.3594C0.644531 14.0867 2.3639 15.4419 4.56604 15.4419C6.42939 15.4419 7.44576 15.0014 8.88562 13.5362C9.3684 14.2222 9.52086 14.561 10.3932 15.2809C10.588 15.3826 10.8421 15.3741 11.0115 15.2216L11.02 15.2301C11.5451 14.7643 12.4937 13.9342 13.0273 13.4938C13.2391 13.3159 13.2052 13.028 13.0358 12.7993ZM7.87772 11.6135C7.4627 12.3504 6.80206 12.8078 6.06519 12.8078C5.05729 12.8078 4.47287 12.037 4.47287 10.9105C4.47287 8.6745 6.47174 8.26795 8.36897 8.26795V8.83543C8.36897 9.86027 8.39438 10.7072 7.87772 11.6135Z" fill="white"/>
</svg>
