<svg width="104" height="20" viewBox="0 0 104 20" fill="none" xmlns="http://www.w3.org/2000/svg">
<path d="M6.52581 19.1353H2.6495V9.83449H0V6.80676H2.6495V4.65965C2.6495 2.10686 3.81446 0.276367 7.69077 0.276367C8.50521 0.276367 9.79388 0.43468 9.79388 0.43468V3.24473H8.44335C7.0619 3.24473 6.52581 3.6504 6.52581 4.75859V6.80676H9.74233L9.45367 9.83449H6.53612L6.52581 19.1353ZM15.4434 6.56929C15.3918 6.56929 15.33 6.56929 15.2681 6.56929C11.6702 6.56929 10.0207 9.17155 10.0207 12.8622C10.0207 17.5126 12.1547 19.3728 15.2991 19.3728C17.0929 19.3728 18.2785 18.6505 18.9898 17.295V19.1353H22.6806V6.81665H18.9898V8.70651C18.4125 7.48948 17.196 6.57919 15.4434 6.56929ZM16.3815 9.47828C17.897 9.47828 18.8042 10.4875 18.8042 12.2092V13.9704C18.8042 15.1281 18.0517 16.4935 16.3815 16.4935C13.8042 16.4935 13.8764 13.822 13.8764 12.9414C13.8764 9.95322 15.2475 9.47828 16.3815 9.47828ZM24.1857 12.9711C24.1857 11.477 24.1136 6.57919 30.7631 6.57919C33.4332 6.57919 34.5466 7.39054 34.5466 7.39054L33.6497 10.0621C33.6497 10.0621 32.5363 9.47828 31.0827 9.47828C29.227 9.47828 28.0414 10.5073 28.0414 12.3279V13.634C28.0414 15.3853 29.1858 16.5529 31.0827 16.5529C32.4023 16.5529 33.6188 15.9592 33.6188 15.9592L34.5157 18.5714C34.5157 18.5714 33.4951 19.3926 30.7734 19.3926C24.4435 19.3827 24.1857 14.9796 24.1857 12.9711ZM56.2065 6.56929C59.8045 6.56929 61.4849 9.17155 61.4849 12.8622C61.4849 17.5126 59.3509 19.3728 56.2065 19.3728C54.4127 19.3728 53.0828 18.6505 52.3612 17.295V19.1353H48.7116V0.652359L52.588 0.32584V8.5383C53.1447 7.1036 54.9797 6.56929 56.2065 6.56929ZM55.1241 9.47828C53.6086 9.47828 52.588 10.4875 52.588 12.2092V13.9704C52.588 15.1281 53.2993 16.4935 55.1241 16.4935C57.7014 16.4935 57.6292 13.822 57.6292 12.9414C57.6292 9.95322 56.2581 9.47828 55.1241 9.47828ZM41.258 6.57919C37.1755 6.57919 35.0105 8.7164 35.0105 12.5159V13.2184C35.0105 18.1459 38.0415 19.4223 41.6497 19.4223C45.1549 19.4223 46.7529 18.4823 46.7529 18.4823L46.0312 15.9691C46.0312 15.9691 44.1652 16.731 42.124 16.731C40.0106 16.731 39.1033 16.2165 38.8662 14.2672H47.0725V12.2586C47.0725 8.13263 44.6498 6.57919 41.258 6.57919ZM41.3611 9.0924C42.7735 9.0924 43.691 9.92354 43.6394 11.853H38.8662C38.959 9.82459 39.9487 9.0924 41.3611 9.0924ZM69.2066 6.56929C65.0107 6.56929 62.8045 8.83514 62.8045 12.9018C62.8045 18.4823 66.6087 19.3827 69.2169 19.3827C73.0314 19.3827 75.5675 17.4137 75.5675 12.9513C75.5572 8.31073 72.7118 6.56929 69.2066 6.56929ZM69.1551 9.48818C71.0004 9.48818 71.7324 10.814 71.7324 12.318V13.6142C71.7324 15.4447 70.7118 16.4935 69.1448 16.4935C67.6808 16.4935 66.6602 15.5041 66.6602 13.6142V12.318C66.6602 10.2995 67.8767 9.48818 69.1551 9.48818ZM83.2789 6.56929C79.083 6.56929 76.8768 8.83514 76.8768 12.9018C76.8768 18.4823 80.6809 19.3827 83.2892 19.3827C87.1036 19.3827 89.6397 17.4137 89.6397 12.9513C89.6294 8.31073 86.784 6.56929 83.2789 6.56929ZM83.2273 9.48818C85.0727 9.48818 85.8047 10.814 85.8047 12.318V13.6142C85.8047 15.4447 84.784 16.4935 83.217 16.4935C81.7531 16.4935 80.7325 15.5041 80.7325 13.6142V12.318C80.7325 10.2995 81.949 9.48818 83.2273 9.48818ZM91.0934 19.1353V0.652359L94.98 0.32584V12.7138L98.8357 6.80676H102.939L98.9181 12.9216L103.093 19.1255H98.98L94.98 13.0997V19.1255L91.0934 19.1353Z" fill="#1B63A6"/>
</svg>
