<svg xmlns="http://www.w3.org/2000/svg" viewBox="20.1 616.8 1334.1 166.1">
	<path fill="#62514B" d="M97.8,688.5L35.2,619H20.1v160.4h41.8v-71.3l33.8,35.7h4.6l34.1-35.7v71.3h41.8V619h-14.6L97.8,688.5z
		 M316.8,619.5h-99.9v160h102v-36.3h-61.3v-28.1H312v-36.3h-54.4v-22.6h59.2L316.8,619.5z M457.8,722.8
		c40.5-27.4,29-103.1-33.8-103.3h-70.2v160h40.9v-47.1H416l27.4,47.1h45.7v-5.9L457.8,722.8z M424,695.6h-29.3v-39.5
		c9.6,0,19.7-0.2,29.3,0C447.3,656.3,446.1,695.6,424,695.6z M504.2,699.5c0.2,54.4,41.4,81.8,82.1,81.6c34.1,0,69.9-17.8,75.9-63.1
		h-40.2c-4.3,17.1-18.3,25.8-35.7,25.8c-24.2-0.2-39.8-20.8-39.8-44.3c0-26.5,15.8-44.6,39.8-44.6c17.1,0,29.3,7.3,35,23.5h40.2
		c-6.2-42.7-42.1-60.8-75.2-60.8C545.6,617.7,504.4,645.1,504.2,699.5z M826.7,619.5h-41.8v58.1h-49.4v-58.1h-41.8v160h41.8v-64.2
		h49.4v64.2h41.8L826.7,619.5z M928,619.5h-60.3v160H928C1032.2,779,1032.2,620,928,619.5L928,619.5z M908.5,656.8H928
		c51,0,51,85.5,0,85.5h-19.4V656.8z M1138.9,779.5h40v-5.9l-72.2-156.1h-17.6l-72,156.1v5.9h40l9.4-20.1h63.1L1138.9,779.5z
		 M1116.1,724.2h-36.1l17.8-42.1L1116.1,724.2z M1354.2,699.7c0-110.6-164.1-110.6-164.1,0C1190.1,810.6,1354.2,810.6,1354.2,699.7
		L1354.2,699.7z M1232.2,699.7c0-57.6,80.2-57.6,80.2,0C1312.4,757.8,1232.2,757.8,1232.2,699.7z"/>
</svg>