<svg width="542" height="75" viewBox="0 0 542 75" fill="none" xmlns="http://www.w3.org/2000/svg">
<path fill-rule="evenodd" clip-rule="evenodd" d="M173.775 29.7621H187.239C198.975 30.0755 205.133 37.3935 205.133 51.9103C205.133 66.427 198.975 73.7583 187.239 74.0628H173.775V29.7621ZM177.482 70.47H185.384C196.569 70.5362 201.421 65.1316 201.421 51.9103C201.421 38.6889 196.569 33.2997 185.384 33.3615H177.482V70.47ZM208.005 29.7621H234.902V33.3615H211.717V49.3679H233.431V52.9718H211.717V70.4678H235.168V74.0628H208.005V29.7621ZM237.357 29.7621H241.347L254 69.4174H254.103L266.65 29.7643H270.581L256.142 74.065H251.827L237.357 29.7621ZM272.706 29.7621H299.593V33.3615H276.409V49.3679H298.127V52.9718H276.409V70.4678H299.871V74.0628H272.704L272.706 29.7621ZM303.946 29.7621H307.653V70.47H329.468V74.065H303.946V29.7621ZM347.225 28.833C359.433 28.833 365.55 39.8166 365.55 51.9103C365.55 64.0039 359.423 75.0007 347.225 75.0007C334.95 75.0007 328.844 64.0171 328.844 51.9103C328.844 39.8034 334.947 28.844 347.223 28.844L347.225 28.833ZM347.225 71.4058C357.481 71.4058 361.836 61.6028 361.836 51.9103C361.836 42.2177 357.472 32.4324 347.225 32.4324C336.91 32.4324 332.558 42.242 332.558 51.9103C332.558 61.5786 336.908 71.408 347.223 71.408L347.225 71.4058ZM370.012 29.7621H387.309C394.299 29.7621 398.878 34.4142 398.878 42.4229C398.878 50.4317 394.299 55.0837 387.309 55.0837H373.737V74.0628H370.012V29.7621ZM373.737 51.4777H386.494C391.622 51.4777 395.173 48.4984 395.173 42.4295C395.173 36.3606 391.622 33.3659 386.494 33.3659H373.737V51.4821V51.4777ZM402.96 29.7621H408.403L421.883 68.603L435.316 29.7621H440.769V74.065H437.062V35.7846H436.954L423.648 74.0628H420.149L406.784 35.7846H406.685V74.065H402.96V29.7621ZM447.191 29.7621H474.087V33.3615H450.907V49.3679H472.626V52.9718H450.907V70.4678H474.365V74.0628H447.196V29.7621H447.191ZM478.185 29.7621H482.324L505.016 67.2436H505.124V29.7621H508.84V74.065H504.693L482.003 36.5924H481.906V74.065H478.199V29.7621H478.185ZM511.121 29.7621H542V33.3615H528.429V74.065H524.712V33.3615H511.129V29.7621H511.121Z" fill="white"/>
<path fill-rule="evenodd" clip-rule="evenodd" d="M87.7701 57.9105L91.7999 44.3118H91.9178L95.6624 57.9105H87.7701ZM70.159 73.6631H83.0875L84.9727 67.3603H98.2477L100.003 73.6631H113.33L98.1157 29.539H85.5407L70.159 73.6631ZM116.174 73.6631H129.058V56.8578H145.726V46.3443H129.058V40.8426H148.479V29.539H116.174V73.6631ZM165.899 29.539H153.025V73.6631H165.899V29.539ZM0 0H15.4807V42.7162C0.813036 37.519 0.336997 18.8246 0 0ZM27.8552 0H43.3524C43.136 14.3904 46.8686 28.5919 54.1929 41.2442C57.7915 30.4305 54.7066 13.2589 55.7412 0H71.2289C72.4944 21.3294 67.1048 36.3405 55.7412 45.6624C58.8188 54.7141 60.3833 64.1571 60.3791 73.6565H44.8913C44.9793 58.8086 41.2618 44.1575 34.0509 30.9337C30.4523 42.2439 33.5253 59.8989 32.4955 73.6565H17.0101C17.0525 54.0485 18.5136 35.7976 32.4955 29.4529C29.4366 19.8969 27.8736 9.97606 27.8552 0Z" fill="white"/>
</svg>
