<svg width="174" height="26" viewBox="0 0 174 26" fill="none" xmlns="http://www.w3.org/2000/svg">
<path fill-rule="evenodd" clip-rule="evenodd" d="M55.7871 10.3172H60.1093C63.877 10.4258 65.8538 12.9627 65.8538 17.9952C65.8538 23.0276 63.877 25.5691 60.1093 25.6747H55.7871V10.3172ZM56.9772 24.4292H59.5139C63.1045 24.4521 64.6623 22.5786 64.6623 17.9952C64.6623 13.4118 63.1045 11.5436 59.5139 11.565H56.9772V24.4292ZM66.7761 10.3172H75.4106V11.565H67.9676V17.1138H74.9385V18.3632H67.9676V24.4284H75.4961V25.6747H66.7761V10.3172ZM76.199 10.3172H77.4798L81.5417 24.0643H81.575L85.6029 10.318H86.8649L82.2295 25.6754H80.8442L76.199 10.3172ZM87.5473 10.3172H96.1788V11.565H88.7358V17.1138H95.7082V18.3632H88.7358V24.4284H96.2681V25.6747H87.5465L87.5473 10.3172ZM97.5762 10.3172H98.7662V24.4292H105.77V25.6754H97.5762V10.3172ZM111.47 9.99512C115.389 9.99512 117.353 13.8027 117.353 17.9952C117.353 22.1876 115.386 25.9998 111.47 25.9998C107.529 25.9998 105.569 22.1922 105.569 17.9952C105.569 13.7981 107.529 9.99894 111.47 9.99894L111.47 9.99512ZM111.47 24.7536C114.763 24.7536 116.161 21.3552 116.161 17.9952C116.161 14.6351 114.76 11.2429 111.47 11.2429C108.159 11.2429 106.762 14.6435 106.762 17.9952C106.762 21.3468 108.158 24.7543 111.47 24.7543L111.47 24.7536ZM118.785 10.3172H124.339C126.582 10.3172 128.052 11.9299 128.052 14.7063C128.052 17.4826 126.582 19.0953 124.339 19.0953H119.982V25.6747H118.785V10.3172ZM119.982 17.8452H124.077C125.723 17.8452 126.863 16.8124 126.863 14.7085C126.863 12.6047 125.723 11.5665 124.077 11.5665H119.982V17.8468V17.8452ZM129.363 10.3172H131.11L135.438 23.782L139.75 10.3172H141.501V25.6754H140.311V12.405H140.276L136.005 25.6747H134.881L130.591 12.405H130.559V25.6754H129.363V10.3172ZM143.563 10.3172H152.197V11.565H144.756V17.1138H151.728V18.3632H144.756V24.4284H152.286V25.6747H143.564V10.3172H143.563ZM153.513 10.3172H154.841L162.126 23.3107H162.161V10.3172H163.354V25.6754H162.023L154.738 12.685H154.707V25.6754H153.517V10.3172H153.513ZM164.086 10.3172H174V11.565H169.643V25.6754H168.449V11.565H164.089V10.3172H164.086Z" fill="white"/>
<path fill-rule="evenodd" clip-rule="evenodd" d="M28.1771 20.0755L29.4708 15.3613H29.5087L30.7108 20.0755H28.1771ZM22.5234 25.5364H26.6738L27.2791 23.3514H31.5408L32.1044 25.5364H36.3827L31.4984 10.2401H27.4614L22.5234 25.5364ZM37.2959 25.5364H41.4319V19.7106H46.7831V16.0659H41.4319V14.1587H47.6667V10.2401H37.2959V25.5364ZM53.2592 10.2401H49.1261V25.5364H53.2592V10.2401ZM0 0H4.96981V14.8082C0.261012 13.0065 0.108187 6.52582 0 0ZM8.94246 0H13.9176C13.8481 4.98865 15.0464 9.91179 17.3977 14.2979C18.553 10.5492 17.5626 4.59638 17.8948 0H22.8668C23.2731 7.39414 21.5429 12.598 17.8948 15.8295C18.8828 18.9674 19.385 22.241 19.3837 25.5341H14.4116C14.4399 20.3868 13.2464 15.3078 10.9315 10.7236C9.7762 14.6445 10.7627 20.7648 10.4321 25.5341H5.4608C5.47442 18.7367 5.94349 12.4098 10.4321 10.2103C9.45014 6.89755 8.94834 3.45834 8.94246 0Z" fill="white"/>
</svg>
