<svg width="206" height="60" viewBox="0 0 206 60" fill="none" xmlns="http://www.w3.org/2000/svg">
<path d="M49.5377 44.9814C57.3957 48.3104 58.618 55.1481 58.618 55.1481C45.3468 61.716 28.7577 50.3797 28.7577 50.3797C29.9801 51.5493 29.6308 52.6289 29.3689 53.4387L29.0197 53.9785C25.0907 57.3074 14.4388 55.8679 14.4388 55.8679C14.4388 55.8679 9.72396 51.8192 11.9067 46.9608C12.0814 46.511 12.6052 45.7912 12.8672 45.5213C5.53305 51.6393 14.5261 59.6466 14.5261 59.6466C28.4958 61.3561 30.0674 55.6879 30.1547 53.5286C48.1407 65.0449 59.9277 56.3177 59.9277 56.3177C59.8404 47.6806 49.5377 44.9814 49.5377 44.9814Z" fill="#A18EC3"/>
<path d="M19.9758 44.9819C-1.92585 29.9863 2.4728 19.8689 2.4728 19.8689C3.93901 19.4172 6.59654 19.7785 9.98717 20.6819L16.6768 23.3016C16.6768 23.3016 7.87946 16.7072 0.0901886 19.4172C0.0901886 19.4172 -2.20076 31.9737 16.3102 44.7108C18.2346 44.4398 19.9758 44.9819 19.9758 44.9819Z" fill="#A18EC3"/>
<path d="M9.91692 22.5088C9.91692 22.5088 22.1371 29.484 24.6505 41.1987C23.0038 37.1745 17.977 26.8012 7.49023 23.1348C7.49023 23.1348 19.9704 31.1831 23.7838 41.8247C23.7838 41.8247 23.7838 41.8247 23.6971 41.8247C19.8837 38.6054 9.65694 29.7522 8.09692 26.0858C8.70359 27.606 11.9103 34.7601 22.2238 42.0035C19.7971 40.4833 12.517 36.3697 8.61691 29.8417C8.61691 29.8417 10.6103 37.1745 20.2304 42.0929C20.6638 42.4506 21.6171 43.3449 22.5704 44.5969C16.2437 44.7757 14.1637 47.4585 13.6437 48.5316C14.857 46.3854 20.1437 45.8488 23.0904 45.4911V45.5805C13.7303 47.5479 14.4237 52.9134 14.4237 52.9134C17.0237 48.1739 21.0104 46.5642 23.2638 46.0277C23.6105 46.8325 23.9571 47.6373 24.0438 48.621C22.3971 52.0192 16.157 52.4663 16.157 52.4663C23.0904 53.0028 24.8238 49.6941 25.1705 47.9056C25.4305 53.6288 18.1504 53.45 18.1504 53.45C25.7771 54.4337 26.5572 48.5316 26.5572 46.5642C29.2439 48.621 40.0773 56.2222 47.8774 54.7914C47.8774 54.7914 36.004 53.8077 27.5105 45.9382C27.5972 45.9382 27.6838 45.8488 27.7705 45.8488C29.6772 47.1008 42.5907 55.0596 53.6842 53.1817C53.6842 53.1817 39.4707 52.3769 29.4172 45.9382C34.6173 47.1008 50.2175 50.6778 53.5975 53.0028C53.5975 53.0028 45.5374 47.0113 31.3239 45.4911C31.2372 45.4017 31.1506 45.4017 31.0639 45.3123C34.7906 45.4017 43.1107 45.4911 49.6975 48.5316C49.6975 48.5316 41.1173 43.7026 30.3705 44.5969C30.2839 44.5074 30.1972 44.418 30.1105 44.2392C33.7506 42.1824 41.464 36.7274 41.984 27.606C41.984 27.606 39.904 38.6054 29.4172 42.8978C29.3305 42.7189 29.2439 42.5401 29.2439 42.3612C32.1906 40.7516 39.5573 35.5649 40.8573 25.1916C40.8573 25.1916 38.1706 36.012 28.9838 41.2881C28.8972 40.6621 28.8105 39.9467 28.8972 39.2313C31.6706 34.5812 36.8706 26.2647 39.384 24.7444C39.384 24.7444 32.9706 28.1426 27.7705 39.6785C27.5972 39.8573 27.4238 40.0362 27.2505 40.215C28.4638 36.5486 30.8905 29.5734 35.5706 25.4598C35.5706 25.4598 28.3772 30.2888 26.0371 40.9304C24.5638 36.3697 19.7104 25.281 9.91692 22.5088Z" fill="#A18EC3"/>
<path d="M15.7759 5.95144C11.2805 4.4997 8.45984 6.94952 8.45984 6.94952C11.8094 14.5712 22.7394 15.8414 22.7394 15.8414C21.8579 15.8414 21.5935 16.4766 21.4172 16.9302V17.2932C21.9461 20.1059 26.8822 23.4631 26.8822 23.4631C26.8822 23.4631 30.3198 23.4631 31.025 20.6503C31.1131 20.3781 31.1131 19.9245 31.1131 19.6523C32.0827 24.9148 25.56 25.0055 25.56 25.0055C19.0372 20.6503 20.3594 17.6561 21.0646 16.658C9.51757 14.9341 7.49023 6.94952 7.49023 6.94952C10.4872 3.32017 15.6877 5.95144 15.7759 5.95144Z" fill="#A18EC3"/>
<path d="M28.7148 16.1981C42.141 17.4778 43.8405 12.0178 43.8405 12.0178C43.4156 11.3353 42.3109 10.6528 40.6964 9.88495L37.2124 8.77588C37.2124 8.77588 42.8208 9.03181 44.9451 12.7003C44.9451 12.7003 41.7161 18.4163 30.2444 17.3925C29.5646 16.6247 28.7148 16.1981 28.7148 16.1981Z" fill="#A18EC3"/>
<path d="M40.3838 10.6038C40.3838 10.6038 32.5808 9.09417 27.2275 13.0016C29.4051 11.9359 35.3028 9.44939 41.2004 11.6695C41.2004 11.6695 32.853 10.515 27.409 13.5344C30.2217 13.5344 37.934 13.5344 39.8394 12.5575C39.0228 13.0016 35.0306 14.7777 27.9534 14.0672C29.5866 14.3336 34.214 15.2217 38.2969 13.8896C38.2969 13.8896 34.7584 16.1985 28.8607 14.7777C28.5885 14.7777 27.7719 14.7777 26.9553 14.9553C29.6773 17.2642 29.5866 19.2179 29.4958 19.8395C29.768 18.5074 27.5905 16.3761 26.4109 15.1329C26.4109 15.1329 26.4109 15.1329 26.3202 15.1329C29.768 19.3067 27.4997 21.2604 27.4997 21.2604C28.0441 18.3298 26.8646 16.1985 26.048 15.2217C25.5943 15.3993 25.1407 15.6657 24.7778 16.0209C24.2334 17.9746 26.8646 20.4611 26.8646 20.4611C23.5982 18.1522 24.0519 16.1985 24.5055 15.3105C22.3279 17.6194 25.5943 20.1059 25.5943 20.1059C21.8743 17.797 23.689 15.0441 24.3241 14.2448C22.4187 14.156 14.9786 13.4456 11.9844 9.98222C11.9844 9.98222 17.5191 13.8008 24.0519 13.6232C24.0519 13.5344 23.9612 13.5344 23.9612 13.4456C22.6909 13.268 14.162 11.9359 9.98828 7.14048C9.98828 7.14048 16.5211 11.9359 23.2353 12.9128C20.5133 11.4919 12.4381 7.4069 10.079 7.14048C10.079 7.14048 15.7045 7.58451 22.6002 12.0247C22.6002 12.0247 22.6909 12.0247 22.7816 12.0247C21.1484 10.6927 17.4284 7.76211 13.4361 6.60765C13.4361 6.60765 18.9708 7.6733 23.326 11.9359C23.4168 11.9359 23.5075 11.9359 23.5075 11.8471C22.6002 9.62701 21.2392 4.65396 24.2333 0.657761C24.2333 0.657761 21.2392 5.98603 24.2333 11.5807C24.3241 11.4919 24.4148 11.4919 24.5055 11.4031C23.7797 9.62701 22.4187 4.83157 25.5943 0.0361328C25.5943 0.0361328 22.8724 5.54201 25.0499 10.9591C25.3221 10.7815 25.5943 10.4262 25.8665 10.1598C26.3202 7.22928 27.0461 1.90102 26.4109 0.302542C26.4109 0.302542 28.0441 4.03233 26.1387 10.6927C26.1387 10.8703 26.1388 10.9591 26.2295 11.1367C27.0461 9.18298 28.4071 5.36439 27.8627 1.98983C27.8627 1.98983 29.3144 6.60766 26.5017 11.8471C29.0422 11.0479 35.1213 8.20613 40.3838 10.6038Z" fill="#A18EC3"/>
<path d="M63.475 25.1399C66.1721 22.4818 69.0553 23.1234 69.0553 23.1234C69.4273 29.6313 62.0799 34.4893 62.0799 34.4893C62.731 34.2143 63.103 34.4893 63.382 34.7643L63.568 35.0393C64.219 37.2391 61.8009 41.2722 61.8009 41.2722C61.8009 41.2722 59.3828 42.5555 57.8017 40.8139C57.6157 40.6306 57.4297 40.3556 57.4297 40.1723C58.6387 44.1137 63.382 41.8222 63.382 41.8222C66.4511 36.4142 64.4981 34.856 63.568 34.4893C71.2874 29.0813 69.7993 22.8484 69.7993 22.8484C66.3581 21.3818 63.475 25.1399 63.475 25.1399Z" fill="#746AA2"/>
<path d="M58.6786 37.0715C48.9232 42.7856 45.5136 39.6688 45.5136 39.6688C45.6083 39.0628 46.1766 38.1104 47.1237 37.0715L49.3021 34.9937C49.3021 34.9937 45.1347 37.2447 44.9453 40.448C44.9453 40.448 49.681 43.2185 57.921 38.3702C58.2051 37.591 58.6786 37.0715 58.6786 37.0715Z" fill="#A18EC3"/>
<path d="M47.6283 37.2791C47.6283 37.2791 52.5298 33.7241 57.6162 34.4859C55.6741 34.4859 50.6802 34.8245 47.4434 38.2102C47.4434 38.2102 52.8072 34.7398 57.7087 34.9091C55.7666 35.8402 50.4027 38.3795 48.7381 38.3795C49.4779 38.3795 52.8997 38.2102 57.5237 35.417C56.5064 36.0941 53.5471 38.2102 50.3103 38.718C50.3103 38.718 53.6395 39.0566 57.2463 36.1787C57.4312 36.0941 57.9861 35.8402 58.6335 35.6709C57.6162 38.1255 58.356 39.3105 58.7259 39.6491C58.0786 38.8873 58.726 36.7712 59.0959 35.5862C58.2636 39.3952 60.5755 39.9877 60.5755 39.9877C59.0959 38.2948 59.1884 36.5173 59.2808 35.5862C59.6508 35.5862 60.0207 35.5862 60.4831 35.6709C61.5929 36.7712 60.668 39.2259 60.668 39.2259C62.0552 36.6866 61.038 35.5016 60.3906 35.0784C62.7026 35.8402 61.4079 38.5487 61.4079 38.5487C63.0725 35.8402 60.853 34.6552 60.1131 34.3166C61.4079 33.5548 66.3093 30.6769 67.0492 27.4605C67.0492 27.4605 64.6447 31.7773 60.0207 33.8087V33.7241C60.853 33.2162 66.2169 29.4919 67.4191 25.0059C67.4191 25.0059 64.6447 30.2537 60.2981 33.1316C61.6853 31.3541 65.7545 25.9369 67.2341 25.0059C67.2341 25.0059 63.4425 27.1219 60.3906 32.2852C60.3906 32.2852 60.2981 32.2852 60.2981 32.3698C60.9455 30.9309 62.4252 27.7991 64.7372 25.7676C64.7372 25.7676 61.3154 28.3069 59.8357 32.4545C59.7432 32.4545 59.7432 32.4544 59.6507 32.5391C59.4658 30.8462 58.541 27.1219 55.0267 25.5137C55.0267 25.5137 59.0959 27.9684 59.0034 32.6237C58.9109 32.6237 58.8184 32.6237 58.7259 32.6237C58.541 31.2694 57.7087 27.6298 53.8245 25.5984C53.8245 25.5984 57.7087 28.2223 58.2635 32.5391C57.9861 32.4544 57.7087 32.3698 57.4312 32.2852C56.044 30.5077 53.5471 27.2912 53.3621 26.1062C53.3621 26.1062 53.6395 29.0687 57.3387 32.793C57.3387 32.8777 57.4312 32.9623 57.4312 33.0469C56.1365 32.0312 53.732 30.0844 52.8997 27.6298C52.8997 27.6298 53.6395 31.1002 57.5237 33.5548C55.7666 33.8087 50.4952 33.978 47.6283 37.2791Z" fill="#A18EC3"/>
<path d="M196.827 21.2603H198.252C198.252 22.4032 198.786 22.9308 199.766 22.9308C200.745 22.9308 201.28 22.4032 201.28 21.2603H202.704C202.704 23.1066 201.725 24.0737 199.766 24.0737C197.806 24.0737 196.827 23.1066 196.827 21.2603ZM204.129 39.8996V27.5906L195.402 39.8996H193.442V24.953H195.313V37.262L204.04 24.953H206V39.8996H204.129ZM187.921 24.953H189.88V39.8996H187.921V24.953ZM176.878 24.953V38.317H181.152C182.845 38.317 183.646 37.4378 183.646 35.6794C183.646 33.833 182.577 32.8659 180.529 32.8659H178.57V31.2833H180.707C184.091 31.2833 185.783 32.69 185.783 35.5035C185.783 38.4049 184.27 39.8117 181.331 39.8117H174.918V24.865H176.878V24.953ZM166.903 38.317C168.684 38.317 169.575 37.4378 169.575 35.5915C169.575 33.833 168.328 32.9538 165.924 32.9538H165.033V31.7229C167.972 31.3712 169.397 30.3162 169.397 28.6457C169.397 27.2389 168.595 26.5355 166.992 26.5355H162.718V38.317H166.903ZM160.758 39.8996V24.953H167.26C170.109 24.953 171.534 26.0959 171.534 28.4698C171.534 30.1403 170.555 31.3712 168.684 32.1625C170.644 32.5142 171.712 33.6572 171.712 35.5915C171.712 38.5808 170.109 39.9875 166.992 39.9875H160.758V39.8996ZM157.641 24.953V26.5355H149.715V31.5471H157.285V33.1297H149.715V38.317H157.819V39.8996H147.756V24.953H157.641ZM131.637 39.8996V24.953H133.596V31.4591H142.234V24.953H144.194V39.8996H142.234V33.0417H133.596V39.8996H131.637ZM128.52 24.953V26.5355H120.593V31.5471H128.163V33.1297H120.593V38.317H128.698V39.8996H118.634V24.953H128.52ZM105.276 39.8996V24.953H111.421C114.538 24.953 116.052 26.2718 116.052 28.9973C116.052 31.8987 113.914 33.6572 109.728 34.2726L109.283 32.6021C112.4 32.1625 113.914 30.9316 113.914 28.9973C113.914 27.3268 113.024 26.5355 111.153 26.5355H107.146V39.8996H105.276ZM99.754 39.8996V27.5906L91.0264 39.8996H89.0671V24.953H90.9373V37.262L99.6649 24.953H101.624V39.8996H99.754ZM85.861 39.3721C84.5251 39.8117 83.1002 39.9875 81.5863 39.9875C76.3319 39.9875 73.6602 37.4378 73.6602 32.1625C73.6602 27.2389 76.3319 24.7771 81.5863 24.7771C83.1002 24.7771 84.5251 24.953 85.861 25.3926V27.0631C84.5251 26.5355 83.1893 26.3597 81.8534 26.3597C77.7568 26.3597 75.6194 28.294 75.6194 32.1625C75.6194 36.2948 77.6677 38.4049 81.8534 38.4049C83.1893 38.4049 84.6142 38.1412 85.861 37.7016V39.3721Z" fill="#5543A8"/>
<path d="M120.098 57.4667H118.167V42.4849H120.098V57.4667ZM127.56 57.4667C125.189 53.6772 123.697 51.5621 123.083 51.0333C122.468 50.5045 121.854 50.2402 121.327 50.2402V48.8301C122.468 48.8301 123.521 47.7726 124.663 45.6575C125.804 43.5424 127.033 42.4849 128.35 42.4849H129.491V44.1593H128.701C127.911 44.1593 127.121 44.9525 126.155 46.6269C125.189 48.3013 124.399 49.2707 123.522 49.5351C124.048 49.6233 124.575 50.0639 125.277 50.6808C125.892 51.3858 127.472 53.589 129.842 57.4667H127.56ZM104.999 57.4667V42.4849H111.056C114.129 42.4849 115.621 43.8068 115.621 46.5388C115.621 49.447 113.514 51.2096 109.388 51.8265L108.949 50.152C112.022 49.7114 113.514 48.4776 113.514 46.5388C113.514 44.8643 112.636 44.0712 110.793 44.0712H106.843V57.4667H104.999ZM90.0758 57.4667H88.0567L94.3772 42.4849H96.484L102.804 57.4667H100.698L98.7664 52.7959H93.8505L94.3772 51.2096H98.1519L95.3428 44.4237L90.0758 57.4667ZM73.6602 57.4667V42.4849H86.0377V57.4667H84.1065V44.0712H75.5914V57.4667H73.6602Z" fill="#5543A8"/>
<path d="M175.127 17.0826C174.507 17.2557 173.888 17.3422 173.179 17.3422C170.7 17.3422 169.46 16.1308 169.46 13.7945C169.46 11.5448 170.7 10.4199 173.179 10.4199C173.888 10.4199 174.507 10.5065 175.127 10.6795V11.4583C174.507 11.1987 173.888 11.1122 173.268 11.1122C171.319 11.1122 170.345 11.9774 170.345 13.7945C170.345 15.6982 171.319 16.65 173.268 16.65C173.888 16.65 174.507 16.5635 175.127 16.3039V17.0826ZM164.235 17.3422H163.35V10.4199H164.235V17.3422ZM167.689 17.3422C166.538 15.6116 165.829 14.5733 165.564 14.4002C165.298 14.1407 165.032 14.0541 164.767 14.0541V13.4484C165.298 13.4484 165.829 12.9293 166.361 11.9774C166.892 11.0256 167.512 10.5065 168.132 10.5065H168.663V11.2852H168.309C167.955 11.2852 167.512 11.6313 167.158 12.4101C166.715 13.1888 166.272 13.6215 165.918 13.708C166.183 13.708 166.449 13.9676 166.715 14.2272C166.98 14.5733 167.777 15.6116 168.929 17.3422H167.689ZM161.844 10.5065V11.1987H158.125V13.535H161.667V14.2272H158.125V16.65H161.933V17.3422H157.24V10.4199H161.844V10.5065ZM148.827 16.65C150.155 16.65 150.864 15.6116 150.864 13.535V10.5065H155.469V17.4288H154.583V11.2852H151.749V13.6215C151.749 16.2173 150.775 17.5153 148.827 17.5153V16.65ZM142.186 17.3422V10.4199H148.03V17.3422H147.145V11.1987H143.16V17.3422H142.186ZM133.065 17.3422V10.4199H134.216L136.784 16.1308L139.352 10.4199H140.503V17.3422H139.706V11.7179L137.227 17.3422H136.518L133.95 11.7179V17.3422H133.065ZM124.652 13.8811C124.652 11.5448 125.803 10.3334 128.194 10.3334C130.497 10.3334 131.648 11.5448 131.648 13.8811C131.648 16.2173 130.497 17.3422 128.194 17.3422C125.803 17.4287 124.652 16.2173 124.652 13.8811ZM125.626 13.8811C125.626 15.6982 126.512 16.65 128.194 16.65C129.877 16.65 130.762 15.6982 130.762 13.8811C130.762 12.064 129.877 11.1122 128.194 11.1122C126.423 11.1122 125.626 12.064 125.626 13.8811ZM119.339 17.3422H118.453V10.4199H119.339V17.3422ZM122.793 17.3422C121.641 15.6116 120.933 14.5733 120.667 14.4002C120.402 14.1407 120.136 14.0541 119.87 14.0541V13.4484C120.402 13.4484 120.933 12.9293 121.464 11.9774C121.996 11.0256 122.615 10.5065 123.235 10.5065H123.767V11.2852H123.412C123.058 11.2852 122.704 11.6313 122.261 12.4101C121.819 13.1888 121.376 13.6215 121.022 13.708C121.287 13.708 121.553 13.9676 121.819 14.2272C122.084 14.5733 122.881 15.6116 124.032 17.3422H122.793ZM109.952 8.77588H110.661C110.661 9.29505 110.926 9.55463 111.369 9.55463C111.812 9.55463 112.078 9.29505 112.078 8.77588H112.786C112.786 9.64117 112.343 10.0738 111.458 10.0738C110.395 10.0738 109.952 9.64117 109.952 8.77588ZM113.406 17.3422V11.6313L109.333 17.3422H108.447V10.4199H109.333V16.1308L113.406 10.4199H114.292V17.3422H113.406ZM99.946 13.8811C99.946 11.5448 101.097 10.3334 103.488 10.3334C105.79 10.3334 106.942 11.5448 106.942 13.8811C106.942 16.2173 105.79 17.3422 103.488 17.3422C101.097 17.4287 99.946 16.2173 99.946 13.8811ZM100.92 13.8811C100.92 15.6982 101.806 16.65 103.488 16.65C105.171 16.65 106.056 15.6982 106.056 13.8811C106.056 12.064 105.171 11.1122 103.488 11.1122C101.717 11.1122 100.92 12.064 100.92 13.8811ZM91.7991 16.65C93.1274 16.65 93.8358 15.6116 93.8358 13.535V10.5065H98.4405V17.4288H97.555V11.2852H94.7213V13.6215C94.7213 16.2173 93.7473 17.5153 91.7991 17.5153V16.65ZM90.1166 17.3422V11.6313L86.0432 17.3422H85.1576V10.4199H86.0432V16.1308L90.1166 10.4199H91.0021V17.3422H90.1166ZM74 17.3422C75.1512 15.6116 75.8596 14.5733 76.2138 14.2272C76.4795 13.8811 76.7451 13.708 77.0108 13.708C76.6566 13.6215 76.2138 13.1023 75.7711 12.4101C75.3283 11.6313 74.9741 11.2852 74.6199 11.2852H74.2656V10.5065H74.797C75.4168 10.5065 76.0367 11.0256 76.568 11.9774C77.0993 12.9293 77.6306 13.4484 78.162 13.4484V14.0541C77.8963 14.0541 77.6307 14.1407 77.365 14.4002C77.0993 14.6598 76.3909 15.6116 75.2397 17.3422H74ZM79.5788 17.3422H78.6933V10.4199H79.5788V17.3422ZM83.0324 17.3422C81.8812 15.6116 81.1728 14.5733 80.9071 14.4002C80.6414 14.1407 80.3758 14.0541 80.1101 14.0541V13.4484C80.6415 13.4484 81.1728 12.9293 81.7041 11.9774C82.2354 11.0256 82.8553 10.5065 83.4751 10.5065H84.0065V11.2852H83.6522C83.298 11.2852 82.8553 11.6313 82.501 12.4101C82.0583 13.1888 81.6155 13.6215 81.2613 13.708C81.527 13.708 81.7926 13.9676 82.0583 14.2272C82.3239 14.5733 83.1209 15.6116 84.2721 17.3422H83.0324Z" fill="#5543A8"/>
</svg>
