<svg width="149" height="21" viewBox="0 0 149 21" fill="none" xmlns="http://www.w3.org/2000/svg">
<g opacity="0.5">
<path fill-rule="evenodd" clip-rule="evenodd" d="M47.7715 8.33339H51.4727C54.699 8.42113 56.3918 10.4702 56.3918 14.5349C56.3918 18.5996 54.699 20.6523 51.4727 20.7376H47.7715V8.33339ZM48.7906 19.7316H50.9628C54.0375 19.7502 55.3715 18.2369 55.3715 14.5349C55.3715 10.8329 54.0375 9.32392 50.9628 9.34122H48.7906V19.7316ZM57.1816 8.33339H64.5755V9.34122H58.2019V13.823H64.1713V14.8321H58.2019V19.731H64.6487V20.7376H57.1816V8.33339ZM65.2506 8.33339H66.3474L69.8257 19.4369H69.8542L73.3034 8.33401H74.384L70.4147 20.7382H69.2284L65.2506 8.33339ZM74.9684 8.33339H82.3598V9.34122H75.9862V13.823H81.9568V14.8321H75.9862V19.731H82.4362V20.7376H74.9678L74.9684 8.33339ZM83.5564 8.33339H84.5755V19.7316H90.5726V20.7382H83.5564V8.33339ZM95.4542 8.07324C98.8101 8.07324 100.492 11.1486 100.492 14.5349C100.492 17.9211 98.8075 21.0002 95.4542 21.0002C92.0795 21.0002 90.4009 17.9248 90.4009 14.5349C90.4009 11.1449 92.0789 8.07633 95.4536 8.07633L95.4542 8.07324ZM95.4542 19.9936C98.2737 19.9936 99.4709 17.2488 99.4709 14.5349C99.4709 11.821 98.2711 9.08108 95.4542 9.08108C92.6186 9.08108 91.422 11.8277 91.422 14.5349C91.422 17.242 92.6179 19.9942 95.4536 19.9942L95.4542 19.9936ZM101.718 8.33339H106.474C108.395 8.33339 109.654 9.63597 109.654 11.8784C109.654 14.1209 108.395 15.4234 106.474 15.4234H102.743V20.7376H101.718V8.33339ZM102.743 14.4138H106.249C107.659 14.4138 108.635 13.5796 108.635 11.8803C108.635 10.181 107.659 9.34246 106.249 9.34246H102.743V14.415V14.4138ZM110.776 8.33339H112.273L115.978 19.2088L119.671 8.33339H121.17V20.7382H120.151V10.0197H120.121L116.463 20.7376H115.501L111.827 10.0197H111.8V20.7382H110.776V8.33339ZM122.936 8.33339H130.33V9.34122H123.957V13.823H129.928V14.8321H123.957V19.731H130.406V20.7376H122.937V8.33339H122.936ZM131.456 8.33339H132.594L138.832 18.8282H138.862V8.33339H139.883V20.7382H138.743L132.506 10.2459H132.479V20.7382H131.46V8.33339H131.456ZM140.511 8.33339H148.999V9.34122H145.268V20.7382H144.247V9.34122H140.513V8.33339H140.511Z" fill="#191919"/>
<path fill-rule="evenodd" clip-rule="evenodd" d="M24.1287 16.2149L25.2365 12.4073H25.2689L26.2983 16.2149H24.1287ZM19.2873 20.6257H22.8414L23.3597 18.8609H27.009L27.4917 20.6257H31.1553L26.9728 8.27091H23.5158L19.2873 20.6257ZM31.9373 20.6257H35.4791V15.9202H40.0613V12.9764H35.4791V11.4359H40.8181V8.27091H31.9373V20.6257ZM45.607 8.27091H42.0678V20.6257H45.607V8.27091ZM0 0H4.25575V11.9605C0.22351 10.5053 0.0926431 5.27089 0 0ZM7.65762 0H11.9179C11.8584 4.02932 12.8845 8.00573 14.8981 11.5484C15.8873 8.52055 15.0393 3.71249 15.3237 0H19.5814C19.9293 5.97223 18.4476 10.1754 15.3237 12.7855C16.1697 15.3199 16.5998 17.964 16.5987 20.6238H12.341C12.3652 16.4664 11.3432 12.3641 9.36085 8.66144C8.37157 11.8283 9.21637 16.7717 8.93326 20.6238H4.6762C4.68786 15.1336 5.08954 10.0233 8.93326 8.24681C8.09236 5.57114 7.66266 2.7933 7.65762 0Z" fill="#191919"/>
</g>
</svg>
