<svg width="85" height="29" viewBox="0 0 85 29" fill="none" xmlns="http://www.w3.org/2000/svg">
<path d="M12.6099 12.563H7.43711V14.0409H12.6099V19.9527H4.48125L1.52539 16.9968V1.47852H7.43711V6.65127H12.6099V12.563Z" fill="white"/>
<path d="M34.7789 19.9523H17.0438L14.0879 16.9964V6.65088H19.9996V14.0405H21.4775V6.65088H27.3893V14.0405H28.8672V6.65088H34.7789V19.9523Z" fill="white"/>
<path d="M42.1676 6.65088H36.2559V19.9523H42.1676V6.65088Z" fill="white"/>
<path d="M42.1676 1.47852H36.2559V5.17334H42.1676V1.47852Z" fill="white"/>
<path d="M54.731 12.563H49.5582V14.0409H54.731V19.9527H46.6023L43.6465 16.9968V1.47852H49.5582V6.65127H54.731V12.563Z" fill="white"/>
<path d="M68.0324 12.5626H62.1207V14.0405H68.0324V19.9523H59.1648L56.209 16.9964V9.60674L59.1648 6.65088H68.0324V12.5626Z" fill="white"/>
<path d="M82.8111 19.9527H76.8994V12.563H75.4215V19.9527H69.5098V1.47852H75.4215V6.65127H79.8553L82.8111 9.60713V19.9527Z" fill="white"/>
<path d="M80.5941 5.17276H76.8993V0H68.7854L65.0537 5.17276H58.4251L56.2082 7.38965V5.17276H51.0355V0H34.7783V5.17276H11.9073L8.17549 0H0.046875V17.7352L10.3924 28.0807H20.7379V25.1248L23.6938 28.0807H43.6458V25.1248L46.6017 28.0807H56.2082V25.1248L59.1641 28.0807H77.6382L84.2889 21.43V8.86759L80.5941 5.17276ZM12.6093 12.5624H7.43653V14.0403H12.6093V19.9521H4.48067L1.52481 16.9962V1.47793H7.43653V6.65069H12.6093V12.5624ZM34.7783 19.9521H17.0431L14.0872 16.9962V6.65069H19.9989V14.0403H21.4769V6.65069H27.3886V14.0403H28.8665V6.65069H34.7783V19.9521ZM42.1679 19.9521H36.2562V6.65069H42.1679V19.9521ZM42.1679 5.17276H36.2562V1.47793H42.1679V5.17276ZM54.7303 12.5624H49.5576V14.0403H54.7303V19.9521H46.6017L43.6458 16.9962V1.47793H49.5576V6.65069H54.7303V12.5624ZM68.0317 12.5624H62.12V14.0403H68.0317V19.9521H59.1641L56.2082 16.9962V9.60655L59.1641 6.65069H68.0317V12.5624ZM82.811 19.9521H76.8993V12.5624H75.4213V19.9521H69.5096V1.47793H75.4213V6.65069H79.8551L82.811 9.60655V19.9521Z" fill="#5F3EA9"/>
</svg>
