<svg width="151" height="48" viewBox="0 0 151 48" fill="none" xmlns="http://www.w3.org/2000/svg">
<path d="M1.39648 24V8.35938H6.875C8.77279 8.35938 10.2122 8.72461 11.1934 9.45508C12.1745 10.1784 12.665 11.2419 12.665 12.6455C12.665 13.4118 12.4681 14.0885 12.0742 14.6758C11.6803 15.2559 11.1325 15.682 10.4307 15.9541C11.2327 16.1546 11.863 16.5592 12.3213 17.168C12.7868 17.7767 13.0195 18.5215 13.0195 19.4023C13.0195 20.9062 12.5397 22.0449 11.5801 22.8184C10.6204 23.5918 9.2526 23.9857 7.47656 24H1.39648ZM4.61914 17.1895V21.4111H7.37988C8.139 21.4111 8.72982 21.2321 9.15234 20.874C9.58203 20.5088 9.79688 20.0075 9.79688 19.3701C9.79688 17.9378 9.05566 17.2109 7.57324 17.1895H4.61914ZM4.61914 14.9121H7.00391C8.62956 14.8835 9.44238 14.2354 9.44238 12.9678C9.44238 12.2588 9.2347 11.7503 8.81934 11.4424C8.41113 11.1273 7.76302 10.9697 6.875 10.9697H4.61914V14.9121ZM18.5625 15.7822H20.7861C21.7887 15.7822 22.6696 15.9505 23.4287 16.2871C24.1878 16.6237 24.7679 17.1071 25.1689 17.7373C25.5771 18.3604 25.7812 19.0872 25.7812 19.918C25.7812 21.1426 25.3265 22.1309 24.417 22.8828C23.5146 23.6276 22.2829 24 20.7217 24H15.4473V12.377H18.5625V15.7822ZM30.7227 24H27.6182V12.377H30.7227V24ZM18.5625 18.2744V21.5186H20.7646C21.3805 21.5186 21.8532 21.3753 22.1826 21.0889C22.512 20.8024 22.6768 20.4121 22.6768 19.918C22.6768 19.4167 22.5156 19.0192 22.1934 18.7256C21.8711 18.4248 21.3949 18.2744 20.7646 18.2744H18.5625ZM33.666 24V12.377H38.5215C40.1042 12.377 41.318 12.6562 42.1631 13.2148C43.0081 13.7734 43.4307 14.5755 43.4307 15.6211C43.4307 16.1582 43.2516 16.6416 42.8936 17.0713C42.5426 17.4938 42.027 17.8197 41.3467 18.0488C42.1774 18.2064 42.8291 18.5179 43.3018 18.9834C43.7816 19.4417 44.0215 20.0075 44.0215 20.6807C44.0215 21.762 43.6133 22.5856 42.7969 23.1514C41.9876 23.7171 40.8096 24 39.2627 24H33.666ZM36.7705 19.1768V21.5186H39.2734C40.3691 21.5186 40.917 21.1354 40.917 20.3691C40.917 19.5885 40.3942 19.1911 39.3486 19.1768H36.7705ZM36.7705 17.0928H38.6934C39.7819 17.0785 40.3262 16.7275 40.3262 16.04C40.3262 15.6175 40.1758 15.3167 39.875 15.1377C39.5814 14.9587 39.1302 14.8691 38.5215 14.8691H36.7705V17.0928ZM45.4395 18.0811C45.4395 16.9281 45.6615 15.9004 46.1055 14.998C46.5495 14.0957 47.1868 13.3975 48.0176 12.9033C48.8555 12.4092 49.8258 12.1621 50.9287 12.1621C52.4971 12.1621 53.7754 12.6419 54.7637 13.6016C55.7591 14.5612 56.3141 15.8646 56.4287 17.5117L56.4502 18.3066C56.4502 20.0898 55.9525 21.5221 54.957 22.6035C53.9616 23.6777 52.626 24.2148 50.9502 24.2148C49.2744 24.2148 47.9352 23.6777 46.9326 22.6035C45.9372 21.5293 45.4395 20.0684 45.4395 18.2207V18.0811ZM48.5439 18.3066C48.5439 19.4095 48.7516 20.2546 49.167 20.8418C49.5824 21.4219 50.1768 21.7119 50.9502 21.7119C51.7021 21.7119 52.2894 21.4255 52.7119 20.8525C53.1344 20.2725 53.3457 19.3486 53.3457 18.0811C53.3457 16.9997 53.1344 16.1618 52.7119 15.5674C52.2894 14.973 51.695 14.6758 50.9287 14.6758C50.1696 14.6758 49.5824 14.973 49.167 15.5674C48.7516 16.1546 48.5439 17.0677 48.5439 18.3066ZM64.4639 15.8037C64.4639 15.3955 64.3278 15.0804 64.0557 14.8584C63.7907 14.6292 63.4111 14.5146 62.917 14.5146C62.4085 14.5146 61.9932 14.6221 61.6709 14.8369C61.3558 15.0446 61.1982 15.3418 61.1982 15.7285H58.0938C58.0938 14.6758 58.5306 13.82 59.4043 13.1611C60.278 12.5023 61.3952 12.1729 62.7559 12.1729C64.2526 12.1729 65.4271 12.4665 66.2793 13.0537C67.1387 13.641 67.5684 14.4753 67.5684 15.5566C67.5684 16.0723 67.4108 16.5485 67.0957 16.9854C66.7878 17.415 66.3509 17.7588 65.7852 18.0166C67.11 18.4821 67.7725 19.3809 67.7725 20.7129C67.7725 21.7799 67.3141 22.6322 66.3975 23.2695C65.488 23.8997 64.2741 24.2148 62.7559 24.2148C61.3451 24.2148 60.1849 23.8854 59.2754 23.2266C58.3659 22.5677 57.9111 21.6797 57.9111 20.5625H61.0156C61.0156 20.9564 61.1911 21.2751 61.542 21.5186C61.8929 21.762 62.3512 21.8838 62.917 21.8838C63.4684 21.8838 63.8981 21.7549 64.2061 21.4971C64.514 21.2393 64.668 20.9027 64.668 20.4873C64.668 19.9788 64.5212 19.6172 64.2275 19.4023C63.9339 19.1803 63.4935 19.0693 62.9062 19.0693H61.2197V17.0498H63.0137C63.9805 17.0212 64.4639 16.6058 64.4639 15.8037ZM82.2207 20.3369L85.2607 12.377H89.1494V24H86.0449V16.8672L83.2627 24H81.1787L78.4502 16.9854V24H75.3457V12.377H79.2021L82.2207 20.3369ZM96.1963 19.6064L98.3447 12.377H101.675L97.002 25.8047L96.7441 26.417C96.0495 27.9352 94.9036 28.6943 93.3066 28.6943C92.8555 28.6943 92.3971 28.6263 91.9316 28.4902V26.1377L92.4043 26.1484C92.9915 26.1484 93.4284 26.0589 93.7148 25.8799C94.0085 25.7008 94.2376 25.4036 94.4023 24.9883L94.7676 24.0322L90.6963 12.377H94.0371L96.1963 19.6064ZM107.583 21.7119C108.156 21.7119 108.621 21.5544 108.979 21.2393C109.338 20.9242 109.524 20.5052 109.538 19.9824H112.449C112.442 20.7702 112.227 21.4935 111.805 22.1523C111.382 22.804 110.802 23.3125 110.064 23.6777C109.334 24.0358 108.525 24.2148 107.637 24.2148C105.975 24.2148 104.665 23.6885 103.705 22.6357C102.745 21.5758 102.266 20.1149 102.266 18.2529V18.0488C102.266 16.2585 102.742 14.8298 103.694 13.7627C104.647 12.6956 105.954 12.1621 107.615 12.1621C109.069 12.1621 110.233 12.5775 111.106 13.4082C111.987 14.2318 112.435 15.3311 112.449 16.7061H109.538C109.524 16.1045 109.338 15.6175 108.979 15.2451C108.621 14.8656 108.149 14.6758 107.562 14.6758C106.838 14.6758 106.29 14.9408 105.918 15.4707C105.553 15.9935 105.37 16.8457 105.37 18.0273V18.3496C105.37 19.5456 105.553 20.4049 105.918 20.9277C106.283 21.4505 106.838 21.7119 107.583 21.7119ZM113.738 18.0811C113.738 16.9281 113.96 15.9004 114.404 14.998C114.848 14.0957 115.486 13.3975 116.316 12.9033C117.154 12.4092 118.125 12.1621 119.228 12.1621C120.796 12.1621 122.074 12.6419 123.062 13.6016C124.058 14.5612 124.613 15.8646 124.728 17.5117L124.749 18.3066C124.749 20.0898 124.251 21.5221 123.256 22.6035C122.26 23.6777 120.925 24.2148 119.249 24.2148C117.573 24.2148 116.234 23.6777 115.231 22.6035C114.236 21.5293 113.738 20.0684 113.738 18.2207V18.0811ZM116.843 18.3066C116.843 19.4095 117.05 20.2546 117.466 20.8418C117.881 21.4219 118.476 21.7119 119.249 21.7119C120.001 21.7119 120.588 21.4255 121.011 20.8525C121.433 20.2725 121.645 19.3486 121.645 18.0811C121.645 16.9997 121.433 16.1618 121.011 15.5674C120.588 14.973 119.994 14.6758 119.228 14.6758C118.468 14.6758 117.881 14.973 117.466 15.5674C117.05 16.1546 116.843 17.0677 116.843 18.3066ZM137.124 18.2959C137.124 20.0863 136.716 21.5221 135.899 22.6035C135.09 23.6777 133.994 24.2148 132.612 24.2148C131.438 24.2148 130.489 23.8066 129.766 22.9902V28.4688H126.661V12.377H129.54L129.647 13.5156C130.399 12.6133 131.381 12.1621 132.591 12.1621C134.023 12.1621 135.137 12.6921 135.932 13.752C136.727 14.8118 137.124 16.2728 137.124 18.1348V18.2959ZM134.02 18.0703C134.02 16.9889 133.826 16.1546 133.439 15.5674C133.06 14.9801 132.505 14.6865 131.774 14.6865C130.8 14.6865 130.131 15.0589 129.766 15.8037V20.5625C130.145 21.3288 130.822 21.7119 131.796 21.7119C133.278 21.7119 134.02 20.498 134.02 18.0703ZM145.793 24C145.65 23.7207 145.546 23.3734 145.481 22.958C144.729 23.7959 143.752 24.2148 142.549 24.2148C141.41 24.2148 140.465 23.8854 139.713 23.2266C138.968 22.5677 138.596 21.737 138.596 20.7344C138.596 19.5026 139.05 18.5573 139.96 17.8984C140.877 17.2396 142.198 16.9066 143.924 16.8994H145.353V16.2334C145.353 15.6963 145.213 15.2666 144.934 14.9443C144.661 14.6221 144.228 14.4609 143.634 14.4609C143.111 14.4609 142.699 14.5863 142.398 14.8369C142.105 15.0876 141.958 15.4313 141.958 15.8682H138.854C138.854 15.195 139.061 14.5719 139.477 13.999C139.892 13.4261 140.479 12.9785 141.238 12.6562C141.997 12.3268 142.85 12.1621 143.795 12.1621C145.227 12.1621 146.362 12.5238 147.2 13.2471C148.045 13.9632 148.468 14.973 148.468 16.2764V21.3145C148.475 22.4173 148.629 23.2516 148.93 23.8174V24H145.793ZM143.226 21.8408C143.684 21.8408 144.106 21.7406 144.493 21.54C144.88 21.3324 145.166 21.0566 145.353 20.7129V18.7148H144.192C142.638 18.7148 141.811 19.252 141.711 20.3262L141.7 20.5088C141.7 20.8955 141.836 21.2142 142.108 21.4648C142.381 21.7155 142.753 21.8408 143.226 21.8408Z" fill="#1D1D1D"/>
<path d="M6.20117 35.8906V43H5.26367V36.6621H2.71484L2.58789 39.4795C2.53906 40.4235 2.44141 41.1331 2.29492 41.6084C2.15169 42.0837 1.9401 42.4336 1.66016 42.6582C1.38021 42.8796 1.00586 42.9935 0.537109 43H0.229492V42.2334L0.424805 42.2236C0.727539 42.2008 0.960286 42.1032 1.12305 41.9307C1.28581 41.7549 1.40951 41.4766 1.49414 41.0957C1.57878 40.7148 1.639 40.1289 1.6748 39.3379L1.82129 35.8906H6.20117ZM11.1816 37.7168H12.085V43H11.1816V39.1475L8.74512 43H7.8418V37.7168H8.74512V41.5742L11.1816 37.7168ZM13.6133 37.7168H14.5215V42.2627H16.9531V37.7168H17.8564V42.2627H18.4863L18.3984 44.5674H17.5879V43H13.6133V37.7168ZM21.6553 43.0977C20.9391 43.0977 20.3564 42.8633 19.9072 42.3945C19.458 41.9225 19.2334 41.2926 19.2334 40.5049V40.3389C19.2334 39.8148 19.3327 39.3477 19.5312 38.9375C19.7331 38.5241 20.013 38.2018 20.3711 37.9707C20.7324 37.7363 21.123 37.6191 21.543 37.6191C22.2298 37.6191 22.7637 37.8454 23.1445 38.2979C23.5254 38.7503 23.7158 39.3981 23.7158 40.2412V40.6172H20.1367C20.1497 41.138 20.3011 41.5596 20.5908 41.8818C20.8838 42.2008 21.2549 42.3604 21.7041 42.3604C22.0231 42.3604 22.2933 42.2952 22.5146 42.165C22.736 42.0348 22.9297 41.8623 23.0957 41.6475L23.6475 42.0771C23.2048 42.7575 22.5407 43.0977 21.6553 43.0977ZM21.543 38.3613C21.1784 38.3613 20.8724 38.4948 20.625 38.7617C20.3776 39.0254 20.2246 39.3965 20.166 39.875H22.8125V39.8066C22.7865 39.3477 22.6628 38.9928 22.4414 38.7422C22.2201 38.4883 21.9206 38.3613 21.543 38.3613ZM29.082 43H28.1787V40.7441H25.752V43H24.8438V37.7168H25.752V40.0068H28.1787V37.7168H29.082V43ZM33.4424 39.1621C33.4424 38.9147 33.348 38.7194 33.1592 38.5762C32.9704 38.4297 32.7116 38.3564 32.3828 38.3564C32.0638 38.3564 31.7969 38.4395 31.582 38.6055C31.3704 38.7715 31.2646 38.9668 31.2646 39.1914H30.3662C30.3662 38.7324 30.5583 38.3564 30.9424 38.0635C31.3265 37.7705 31.8066 37.624 32.3828 37.624C33.0013 37.624 33.4831 37.7575 33.8281 38.0244C34.1732 38.2881 34.3457 38.6657 34.3457 39.1572C34.3457 39.3949 34.2741 39.613 34.1309 39.8115C33.9876 40.0101 33.7842 40.168 33.5205 40.2852C34.1357 40.4935 34.4434 40.9036 34.4434 41.5156C34.4434 42.0007 34.2562 42.3848 33.8818 42.668C33.5075 42.9512 33.0078 43.0928 32.3828 43.0928C31.7741 43.0928 31.2712 42.9447 30.874 42.6484C30.4801 42.349 30.2832 41.9453 30.2832 41.4375H31.1816C31.1816 41.6947 31.2956 41.916 31.5234 42.1016C31.7546 42.2839 32.041 42.375 32.3828 42.375C32.7279 42.375 33.0062 42.2952 33.2178 42.1357C33.4294 41.9762 33.5352 41.7695 33.5352 41.5156C33.5352 41.2194 33.4456 41.0078 33.2666 40.8809C33.0908 40.7507 32.8158 40.6855 32.4414 40.6855H31.5381V39.9238H32.5195C33.1348 39.9076 33.4424 39.6536 33.4424 39.1621ZM39.0332 37.7168H39.9365V43H39.0332V39.1475L36.5967 43H35.6934V37.7168H36.5967V41.5742L39.0332 37.7168ZM45.4248 37.7168V43H44.5166V40.9443H43.1543L41.9092 43H40.9326L42.2607 40.8076C41.9222 40.6839 41.6618 40.4935 41.4795 40.2363C41.3005 39.9759 41.2109 39.6732 41.2109 39.3281C41.2109 38.8464 41.3916 38.459 41.7529 38.166C42.1143 37.8698 42.5977 37.7201 43.2031 37.7168H45.4248ZM42.1191 39.3379C42.1191 39.5951 42.207 39.8034 42.3828 39.9629C42.5586 40.1191 42.7913 40.1989 43.0811 40.2021H44.5166V38.4492H43.2178C42.8825 38.4492 42.6156 38.5322 42.417 38.6982C42.2184 38.861 42.1191 39.0742 42.1191 39.3379ZM53.7207 39.9678C53.7207 41.0257 53.54 41.8118 53.1787 42.3262C52.8174 42.8405 52.2526 43.0977 51.4844 43.0977C50.7259 43.0977 50.1644 42.847 49.7998 42.3457C49.4352 41.8411 49.2464 41.0892 49.2334 40.0898V38.8838C49.2334 37.8389 49.4141 37.0625 49.7754 36.5547C50.1367 36.0469 50.7031 35.793 51.4746 35.793C52.2396 35.793 52.8027 36.0387 53.1641 36.5303C53.5254 37.0186 53.7109 37.7738 53.7207 38.7959V39.9678ZM52.8174 38.7324C52.8174 37.9674 52.71 37.4108 52.4951 37.0625C52.2803 36.7109 51.9401 36.5352 51.4746 36.5352C51.0124 36.5352 50.6755 36.7093 50.4639 37.0576C50.2523 37.4059 50.1432 37.9414 50.1367 38.6641V40.1094C50.1367 40.8776 50.2474 41.4456 50.4688 41.8135C50.6934 42.1781 51.0319 42.3604 51.4844 42.3604C51.9303 42.3604 52.2607 42.1878 52.4756 41.8428C52.6937 41.4977 52.8076 40.9541 52.8174 40.2119V38.7324ZM59.4678 36.3984L56.5234 43H55.5762L58.5107 36.6328H54.6631V35.8906H59.4678V36.3984ZM65.083 36.3984L62.1387 43H61.1914L64.126 36.6328H60.2783V35.8906H65.083V36.3984ZM71.5576 43H70.6494V36.9795L68.8281 37.6484V36.8281L71.416 35.8564H71.5576V43ZM78.8623 43H74.2041V42.3506L76.665 39.6162C77.0296 39.2028 77.2803 38.8675 77.417 38.6104C77.557 38.3499 77.627 38.0814 77.627 37.8047C77.627 37.4336 77.5146 37.1292 77.29 36.8916C77.0654 36.654 76.766 36.5352 76.3916 36.5352C75.9424 36.5352 75.5924 36.6637 75.3418 36.9209C75.0944 37.1748 74.9707 37.5296 74.9707 37.9854H74.0674C74.0674 37.3311 74.2773 36.8021 74.6973 36.3984C75.1204 35.9948 75.6852 35.793 76.3916 35.793C77.0524 35.793 77.5749 35.9671 77.959 36.3154C78.3431 36.6605 78.5352 37.1211 78.5352 37.6973C78.5352 38.3971 78.0892 39.2305 77.1973 40.1973L75.293 42.2627H78.8623V43ZM84.2773 39.9678C84.2773 41.0257 84.0967 41.8118 83.7354 42.3262C83.374 42.8405 82.8092 43.0977 82.041 43.0977C81.2826 43.0977 80.721 42.847 80.3564 42.3457C79.9919 41.8411 79.8031 41.0892 79.79 40.0898V38.8838C79.79 37.8389 79.9707 37.0625 80.332 36.5547C80.6934 36.0469 81.2598 35.793 82.0312 35.793C82.7962 35.793 83.3594 36.0387 83.7207 36.5303C84.082 37.0186 84.2676 37.7738 84.2773 38.7959V39.9678ZM83.374 38.7324C83.374 37.9674 83.2666 37.4108 83.0518 37.0625C82.8369 36.7109 82.4967 36.5352 82.0312 36.5352C81.569 36.5352 81.2321 36.7093 81.0205 37.0576C80.8089 37.4059 80.6999 37.9414 80.6934 38.6641V40.1094C80.6934 40.8776 80.804 41.4456 81.0254 41.8135C81.25 42.1781 81.5885 42.3604 82.041 42.3604C82.487 42.3604 82.8174 42.1878 83.0322 41.8428C83.2503 41.4977 83.3643 40.9541 83.374 40.2119V38.7324ZM87.7686 40.3096C87.7686 39.792 87.8695 39.3265 88.0713 38.9131C88.2764 38.4997 88.5596 38.1807 88.9209 37.9561C89.2855 37.7314 89.7005 37.6191 90.166 37.6191C90.8854 37.6191 91.4665 37.8682 91.9092 38.3662C92.3551 38.8643 92.5781 39.5267 92.5781 40.3535V40.417C92.5781 40.9313 92.4788 41.3936 92.2803 41.8037C92.085 42.2106 91.8034 42.528 91.4355 42.7559C91.071 42.9837 90.651 43.0977 90.1758 43.0977C89.4596 43.0977 88.8786 42.8486 88.4326 42.3506C87.9899 41.8525 87.7686 41.1934 87.7686 40.373V40.3096ZM88.6768 40.417C88.6768 41.0029 88.8118 41.4733 89.082 41.8281C89.3555 42.1829 89.7201 42.3604 90.1758 42.3604C90.6348 42.3604 90.9993 42.1813 91.2695 41.8232C91.5397 41.4619 91.6748 40.9574 91.6748 40.3096C91.6748 39.7301 91.5365 39.2614 91.2598 38.9033C90.9863 38.542 90.6217 38.3613 90.166 38.3613C89.7201 38.3613 89.3604 38.5387 89.0869 38.8936C88.8135 39.2484 88.6768 39.7562 88.6768 40.417ZM97.5293 38.4492H95.7568V43H94.8535V38.4492H93.1152V37.7168H97.5293V38.4492ZM105.454 43H100.796V42.3506L103.257 39.6162C103.621 39.2028 103.872 38.8675 104.009 38.6104C104.149 38.3499 104.219 38.0814 104.219 37.8047C104.219 37.4336 104.106 37.1292 103.882 36.8916C103.657 36.654 103.358 36.5352 102.983 36.5352C102.534 36.5352 102.184 36.6637 101.934 36.9209C101.686 37.1748 101.562 37.5296 101.562 37.9854H100.659C100.659 37.3311 100.869 36.8021 101.289 36.3984C101.712 35.9948 102.277 35.793 102.983 35.793C103.644 35.793 104.167 35.9671 104.551 36.3154C104.935 36.6605 105.127 37.1211 105.127 37.6973C105.127 38.3971 104.681 39.2305 103.789 40.1973L101.885 42.2627H105.454V43ZM109.956 35.8857V36.6523H109.79C109.087 36.6654 108.527 36.8737 108.11 37.2773C107.694 37.681 107.453 38.249 107.388 38.9814C107.762 38.5518 108.273 38.3369 108.921 38.3369C109.539 38.3369 110.033 38.555 110.4 38.9912C110.771 39.4274 110.957 39.9906 110.957 40.6807C110.957 41.4131 110.757 41.999 110.356 42.4385C109.959 42.8779 109.425 43.0977 108.755 43.0977C108.075 43.0977 107.523 42.8372 107.1 42.3164C106.676 41.7923 106.465 41.1185 106.465 40.2949V39.9482C106.465 38.6396 106.743 37.6403 107.3 36.9502C107.86 36.2568 108.691 35.902 109.795 35.8857H109.956ZM108.77 39.0889C108.46 39.0889 108.175 39.1816 107.915 39.3672C107.655 39.5527 107.474 39.7855 107.373 40.0654V40.3975C107.373 40.9834 107.505 41.4554 107.769 41.8135C108.032 42.1715 108.361 42.3506 108.755 42.3506C109.162 42.3506 109.481 42.2008 109.712 41.9014C109.946 41.6019 110.063 41.2096 110.063 40.7246C110.063 40.2363 109.945 39.8424 109.707 39.543C109.473 39.2402 109.16 39.0889 108.77 39.0889ZM112.139 42.5264C112.139 42.3701 112.184 42.2399 112.275 42.1357C112.37 42.0316 112.51 41.9795 112.695 41.9795C112.881 41.9795 113.021 42.0316 113.115 42.1357C113.213 42.2399 113.262 42.3701 113.262 42.5264C113.262 42.6761 113.213 42.8014 113.115 42.9023C113.021 43.0033 112.881 43.0537 112.695 43.0537C112.51 43.0537 112.37 43.0033 112.275 42.9023C112.184 42.8014 112.139 42.6761 112.139 42.5264ZM119.121 39.9678C119.121 41.0257 118.94 41.8118 118.579 42.3262C118.218 42.8405 117.653 43.0977 116.885 43.0977C116.126 43.0977 115.565 42.847 115.2 42.3457C114.836 41.8411 114.647 41.0892 114.634 40.0898V38.8838C114.634 37.8389 114.814 37.0625 115.176 36.5547C115.537 36.0469 116.104 35.793 116.875 35.793C117.64 35.793 118.203 36.0387 118.564 36.5303C118.926 37.0186 119.111 37.7738 119.121 38.7959V39.9678ZM118.218 38.7324C118.218 37.9674 118.11 37.4108 117.896 37.0625C117.681 36.7109 117.34 36.5352 116.875 36.5352C116.413 36.5352 116.076 36.7093 115.864 37.0576C115.653 37.4059 115.544 37.9414 115.537 38.6641V40.1094C115.537 40.8776 115.648 41.4456 115.869 41.8135C116.094 42.1781 116.432 42.3604 116.885 42.3604C117.331 42.3604 117.661 42.1878 117.876 41.8428C118.094 41.4977 118.208 40.9541 118.218 40.2119V38.7324ZM124.937 43H120.278V42.3506L122.739 39.6162C123.104 39.2028 123.354 38.8675 123.491 38.6104C123.631 38.3499 123.701 38.0814 123.701 37.8047C123.701 37.4336 123.589 37.1292 123.364 36.8916C123.14 36.654 122.84 36.5352 122.466 36.5352C122.017 36.5352 121.667 36.6637 121.416 36.9209C121.169 37.1748 121.045 37.5296 121.045 37.9854H120.142C120.142 37.3311 120.352 36.8021 120.771 36.3984C121.195 35.9948 121.759 35.793 122.466 35.793C123.127 35.793 123.649 35.9671 124.033 36.3154C124.417 36.6605 124.609 37.1211 124.609 37.6973C124.609 38.3971 124.163 39.2305 123.271 40.1973L121.367 42.2627H124.937V43ZM126.006 42.5264C126.006 42.3701 126.051 42.2399 126.143 42.1357C126.237 42.0316 126.377 41.9795 126.562 41.9795C126.748 41.9795 126.888 42.0316 126.982 42.1357C127.08 42.2399 127.129 42.3701 127.129 42.5264C127.129 42.6761 127.08 42.8014 126.982 42.9023C126.888 43.0033 126.748 43.0537 126.562 43.0537C126.377 43.0537 126.237 43.0033 126.143 42.9023C126.051 42.8014 126.006 42.6761 126.006 42.5264ZM133.188 43H128.53V42.3506L130.991 39.6162C131.356 39.2028 131.606 38.8675 131.743 38.6104C131.883 38.3499 131.953 38.0814 131.953 37.8047C131.953 37.4336 131.841 37.1292 131.616 36.8916C131.392 36.654 131.092 36.5352 130.718 36.5352C130.269 36.5352 129.919 36.6637 129.668 36.9209C129.421 37.1748 129.297 37.5296 129.297 37.9854H128.394C128.394 37.3311 128.604 36.8021 129.023 36.3984C129.447 35.9948 130.011 35.793 130.718 35.793C131.379 35.793 131.901 35.9671 132.285 36.3154C132.669 36.6605 132.861 37.1211 132.861 37.6973C132.861 38.3971 132.415 39.2305 131.523 40.1973L129.619 42.2627H133.188V43ZM138.604 39.9678C138.604 41.0257 138.423 41.8118 138.062 42.3262C137.7 42.8405 137.135 43.0977 136.367 43.0977C135.609 43.0977 135.047 42.847 134.683 42.3457C134.318 41.8411 134.129 41.0892 134.116 40.0898V38.8838C134.116 37.8389 134.297 37.0625 134.658 36.5547C135.02 36.0469 135.586 35.793 136.357 35.793C137.122 35.793 137.686 36.0387 138.047 36.5303C138.408 37.0186 138.594 37.7738 138.604 38.7959V39.9678ZM137.7 38.7324C137.7 37.9674 137.593 37.4108 137.378 37.0625C137.163 36.7109 136.823 36.5352 136.357 36.5352C135.895 36.5352 135.558 36.7093 135.347 37.0576C135.135 37.4059 135.026 37.9414 135.02 38.6641V40.1094C135.02 40.8776 135.13 41.4456 135.352 41.8135C135.576 42.1781 135.915 42.3604 136.367 42.3604C136.813 42.3604 137.144 42.1878 137.358 41.8428C137.576 41.4977 137.69 40.9541 137.7 40.2119V38.7324ZM142.729 43H141.821V36.9795L140 37.6484V36.8281L142.588 35.8564H142.729V43ZM148.921 35.8857V36.6523H148.755C148.052 36.6654 147.492 36.8737 147.075 37.2773C146.659 37.681 146.418 38.249 146.353 38.9814C146.727 38.5518 147.238 38.3369 147.886 38.3369C148.504 38.3369 148.997 38.555 149.365 38.9912C149.736 39.4274 149.922 39.9906 149.922 40.6807C149.922 41.4131 149.722 41.999 149.321 42.4385C148.924 42.8779 148.39 43.0977 147.72 43.0977C147.039 43.0977 146.488 42.8372 146.064 42.3164C145.641 41.7923 145.43 41.1185 145.43 40.2949V39.9482C145.43 38.6396 145.708 37.6403 146.265 36.9502C146.825 36.2568 147.656 35.902 148.76 35.8857H148.921ZM147.734 39.0889C147.425 39.0889 147.14 39.1816 146.88 39.3672C146.619 39.5527 146.439 39.7855 146.338 40.0654V40.3975C146.338 40.9834 146.47 41.4554 146.733 41.8135C146.997 42.1715 147.326 42.3506 147.72 42.3506C148.127 42.3506 148.446 42.2008 148.677 41.9014C148.911 41.6019 149.028 41.2096 149.028 40.7246C149.028 40.2363 148.91 39.8424 148.672 39.543C148.438 39.2402 148.125 39.0889 147.734 39.0889Z" fill="#1D1D1D"/>
</svg>