<svg width="171" height="36" viewBox="0 0 171 36" fill="none" xmlns="http://www.w3.org/2000/svg">
	<path d="M59.1585 13.2245H60.9124L65.6343 23.9777H63.6106L62.5313 21.4397H57.4721L56.3928 23.9777H54.4366L59.1585 13.2245ZM61.8567 19.7699L60.0354 15.4953L58.2141 19.7699H61.8567Z" fill="white"/>
	<path d="M78.5857 13.3581H83.375C85.8709 13.3581 87.3549 14.6939 87.3549 16.7644C87.3549 18.5009 86.2756 19.5696 84.7916 19.9703L87.6922 23.9777H85.4661L82.7679 20.2375H80.407V23.9777H78.5182V13.3581H78.5857ZM83.2401 18.6345C84.5892 18.6345 85.4661 17.9666 85.4661 16.8312C85.4661 15.6957 84.6567 15.0946 83.2401 15.0946H80.4744V18.7013H83.2401V18.6345Z" fill="white"/>
	<path d="M100.239 18.6345C100.239 15.6289 102.532 13.1577 105.77 13.1577C107.659 13.1577 108.806 13.692 109.885 14.6271L108.671 16.0297C107.861 15.3618 107.052 14.8942 105.635 14.8942C103.679 14.8942 102.128 16.6308 102.128 18.7013C102.128 20.9054 103.612 22.5083 105.77 22.5083C106.782 22.5083 107.727 22.1744 108.334 21.7068V19.7031H105.568V18.0334H110.155V22.5083C109.076 23.3766 107.592 24.1781 105.635 24.1781C102.465 24.1781 100.239 21.7736 100.239 18.6345Z" fill="white"/>
	<path d="M123.916 13.3581H125.805V23.9777H123.916V13.3581Z" fill="white"/>
	<path d="M139.768 13.3581H141.522L147.256 20.705V13.3581H149.144V23.9777H147.593L141.657 16.4304V23.9777H139.768V13.3581Z" fill="white"/>
	<path d="M162.973 13.3581H170.932V15.0278H164.861V17.7662H170.258V19.436H164.861V22.308H171V23.9777H162.973V13.3581Z" fill="white"/>
	<path d="M9.30888 19.9703L0 36L20.9787 25.6475L9.30888 19.9703Z" fill="url(#paint0_linear)"/>
	<path d="M20.9786 25.6475L41.9573 36L32.6485 19.9703L20.9786 25.6475Z" fill="url(#paint1_linear)"/>
	<path d="M20.9787 25.6475L32.6485 19.9703L20.9787 0L9.3089 19.9703L20.9787 25.6475Z" fill="url(#paint2_linear)"/>
	<defs>
		<linearGradient id="paint0_linear" x1="2.35305" y1="37.9282" x2="15.9795" y2="21.527" gradientUnits="userSpaceOnUse">
			<stop stop-color="#65C4F0"/>
			<stop offset="0.1964" stop-color="#61BCE9"/>
			<stop offset="0.5008" stop-color="#55A6D4"/>
			<stop offset="0.8732" stop-color="#4183B3"/>
			<stop offset="1" stop-color="#3A75A6"/>
		</linearGradient>
		<linearGradient id="paint1_linear" x1="22.1402" y1="22.5112" x2="43.9531" y2="30.5296" gradientUnits="userSpaceOnUse">
			<stop offset="0.1582" stop-color="#F9E700"/>
			<stop offset="0.9641" stop-color="#F79C63"/>
		</linearGradient>
		<linearGradient id="paint2_linear" x1="19.1215" y1="25.0099" x2="27.3118" y2="2.28328" gradientUnits="userSpaceOnUse">
			<stop stop-color="#BCD431"/>
			<stop offset="0.1112" stop-color="#ADD142"/>
			<stop offset="0.3313" stop-color="#84C86E"/>
			<stop offset="0.636" stop-color="#44B9B4"/>
			<stop offset="0.933" stop-color="#00AAFF"/>
		</linearGradient>
	</defs>
</svg>