<svg xmlns="http://www.w3.org/2000/svg" width="807" height="769" viewBox="0 0 807 769"><g><g><g><g><g><path fill="#fff" d="M806.586 84.546l-98.323-54.34L734.777 6.47l71.937 52.886.005-1.019L734.995 5.61a.408.408 0 0 0-.518.025l-27.194 24.345a.409.409 0 0 0 .075.667l99.223 54.837z"/></g></g><g><g><path fill="#fff" d="M806.205 158.897L709.074 31.593l97.507 53.89.005-.937-98.83-54.62a.408.408 0 0 0-.51.09.412.412 0 0 0-.016.52l98.968 129.71z"/></g></g><g><g><path fill="#fff" d="M405.33 766.637L537.595 707l12.965 60.38.842.003-13.109-61.055a.408.408 0 0 0-.572-.287l-134.373 60.586z"/></g></g><g><g><path fill="#fff" d="M803.238 740.509l-86.77 27.716 2.664.014 84.101-26.864z"/></g></g><g><g><path fill="#fff" d="M806.72 58.337L735.953 6.313l71.044-2.358.003-.825-72.261 2.398a.416.416 0 0 0-.38.29c-.052.168.008.35.15.454l72.205 53.083z"/></g></g><g><g><path fill="#fff" d="M805.207 354.716l-95.77-5.646 77.377-46.919 18.586 14.472.005-1.04-18.31-14.256a.41.41 0 0 0-.465-.027l-78.75 47.751a.41.41 0 0 0-.185.451.409.409 0 0 0 .373.312l97.134 5.727z"/></g></g><g><g><path fill="#fff" d="M94.518 765.051l15.773-26.905 3.181 27.002.83.005-3.335-28.321a.412.412 0 0 0-.765-.16l-16.637 28.374z"/></g></g><g><g><path fill="#fff" d="M803.238 740.509l-86.77 27.716 2.663.014 84.102-26.864z"/></g><g><path fill="#fff" d="M803.26 736.032l-90.97-22.598a.418.418 0 0 0-.499.3l-13.768 54.398.85.003 13.615-53.803 90.768 22.549z"/></g></g><g><g><path fill="#fff" d="M804.223 547.563l-49.702 28.525-37.537-10.03 87.314-33.433.006-.884-88.8 34.003a.409.409 0 0 0-.263.405.41.41 0 0 0 .303.378l38.928 10.4a.416.416 0 0 0 .312-.04l49.434-28.371z"/></g></g><g><g><path fill="#fff" d="M551.402 767.383l-12.955-60.332 50.208 17.812-21.688 42.599.92.005L589.6 724.82a.412.412 0 0 0-.23-.576l-51.342-18.216a.406.406 0 0 0-.409.078.416.416 0 0 0-.131.396l13.072 60.877z"/></g></g><g><g><path fill="#fff" d="M567.888 767.467l21.382-42.002 26.602 42.247.977.004-27.268-43.304c-.08-.124-.22-.214-.367-.19a.408.408 0 0 0-.347.224l-21.9 43.016z"/></g></g><g><g><path fill="#fff" d="M615.874 767.713l.975.003-26.52-42.116 90.638 42.444 1.961.01-93.52-43.794a.412.412 0 0 0-.523.591z"/></g></g><g><g><path fill="#fff" d="M589.058 725.005l91.907 43.04 1.963.01-92.135-43.146 120.856-10.614-13.626 53.837.849.003 13.718-54.2a.417.417 0 0 0-.086-.368.434.434 0 0 0-.35-.144l-122.957 10.8a.41.41 0 1 0-.139.782z"/></g></g><g><g><path fill="#fff" d="M114.302 765.153l-3.233-27.451 42.758 27.653 1.526.007-44.572-28.827a.411.411 0 0 0-.632.393l3.323 28.22z"/></g></g><g><g><path fill="#fff" d="M483.676 455.672l-95.955 31.123-4.042-19.535zM387.41 487.74a.461.461 0 0 0 .128-.02l100.328-32.542a.41.41 0 0 0 .275-.479.395.395 0 0 0-.449-.32l-104.556 12.115a.411.411 0 0 0-.354.491l4.226 20.427a.409.409 0 0 0 .402.328z"/></g></g><g><g><path fill="#fff" d="M55.865 764.855l5.391-58.939 48.746 31.098-16.437 28.032.953.005 16.394-27.963a.411.411 0 0 0-.133-.554L61.13 704.858a.411.411 0 0 0-.632.309l-5.461 59.682z"/></g></g><g><g><path fill="#fff" d="M144.804 646.765l-34.45 89.497-48.706-31.074zm-34.25 90.526a.478.478 0 0 0 .132-.019c.118-.04.21-.13.256-.244l35.116-91.23a.41.41 0 0 0-.621-.484L60.672 704.87a.411.411 0 0 0 .016.684l49.647 31.674a.41.41 0 0 0 .22.064z"/></g></g><g><g><path fill="#fff" d="M145.855 646.326l114.02 92.523-148.722-2.372zm115.59 93.095a.41.41 0 0 0-.126-.46l-115.385-93.63a.412.412 0 0 0-.644.173l-35.118 91.228a.413.413 0 0 0 .379.56l150.502 2.4h.003a.411.411 0 0 0 .39-.27z"/></g></g><g><g><path fill="#fff" d="M153.827 765.355l1.528.007-43.367-28.048 147.516 2.353-47.17 25.986 1.689.009 47.235-26.021a.41.41 0 0 0 .2-.46.41.41 0 0 0-.391-.312l-150.502-2.4h-.005a.41.41 0 0 0-.226.756z"/></g></g><g><g><path fill="#fff" d="M214.025 765.662l45.868-25.269-15.617 25.423.963.004 16.172-26.323a.415.415 0 0 0-.053-.5.409.409 0 0 0-.496-.078l-48.528 26.734z"/></g></g><g><g><path fill="#fff" d="M245.239 765.82l16.007-26.057 91.145 26.604 2.99.016-94.207-27.497a.401.401 0 0 0-.465.18l-16.435 26.75z"/></g></g><g><g><path fill="#fff" d="M575.714 382.81l85.02 140.988-172.195-69.136zm86.004 142.24a.412.412 0 0 0 .354-.625l-85.898-142.448a.404.404 0 0 0-.284-.193.394.394 0 0 0-.332.088l-88.079 72.597a.41.41 0 0 0 .109.7l173.979 69.85c.049.022.1.03.15.03z"/></g></g><g><g><path fill="#fff" d="M647.628 350.527l13.546 172.407-84.762-140.558zm14.09 174.522a.409.409 0 0 0 .412-.444L648.404 349.88a.409.409 0 0 0-.578-.342l-72.173 32.277a.41.41 0 0 0-.184.588l85.9 142.45a.409.409 0 0 0 .349.197z"/></g></g><g><g><path fill="#fff" d="M707.558 349.82L661.94 522.195 648.44 350.32zm-45.439 174.922l46.372-175.235a.412.412 0 0 0-.072-.356c-.079-.102-.242-.142-.33-.16l-60.098.51a.415.415 0 0 0-.3.133.407.407 0 0 0-.107.312l13.727 174.724c.015.2.173.36.373.378l.034.001a.411.411 0 0 0 .401-.307z"/></g></g><g><g><path fill="#fff" d="M804.303 531.74l-88.584 33.922-52.935-40.725 141.632-15.177.003-.828-142.742 15.296a.418.418 0 0 0-.354.299.411.411 0 0 0 .147.436l53.93 41.492a.405.405 0 0 0 .398.058l88.5-33.888z"/></g></g><g><g><path fill="#fff" d="M707.68 348.995l-58.65.498 58.405-55.854zm-59.682 1.33l60.099-.51a.41.41 0 0 0 .408-.413l-.25-56.725a.41.41 0 1 0-.697-.295l-59.85 57.234a.411.411 0 0 0 .283.709z"/></g></g><g><g><path fill="#fff" d="M805.767 244.823l-97.514 47.2-.283-260.517 98.228 128.74.007-1.35-98.32-128.86a.41.41 0 0 0-.46-.14.41.41 0 0 0-.28.39l.285 262.393a.414.414 0 0 0 .41.413.413.413 0 0 0 .181-.043l97.742-47.308z"/></g></g><g><g><path fill="#fff" d="M785.598 301.925l-77.096 46.749-.246-55.533zm-77.507 47.89c.076.001.15-.02.216-.06l78.75-47.751a.413.413 0 0 0-.167-.762l-79.002-8.972a.418.418 0 0 0-.321.104.408.408 0 0 0-.137.307l.253 56.724a.408.408 0 0 0 .408.41z"/></g></g><g><g><path fill="#fff" d="M805.595 278.723l-18.925 22.495-77.368-8.788 96.461-46.69.004-.917-98.104 47.486a.412.412 0 0 0 .134.779l79 8.972.044.003a.413.413 0 0 0 .317-.147l18.43-21.905z"/></g></g><g><g><path fill="#fff" d="M805.432 310.435l-17.937-8.919 18.093-21.505.007-1.288-19.067 22.663a.413.413 0 0 0 .132.635l18.768 9.332z"/></g></g><g><g><path fill="#fff" d="M805.405 315.584l-15.073-11.738 15.096 7.507.004-.918-18.406-9.152a.412.412 0 0 0-.437.695l18.811 14.645z"/></g></g><g><g><path fill="#fff" d="M260.944 739.676l91.447 26.69 2.99.017-93.216-27.21 165.354-85.117-39.947 112.49.872.005 40.198-113.198a.413.413 0 0 0-.575-.505L260.87 738.914a.412.412 0 0 0 .074.762z"/></g></g><g><g><path fill="#fff" d="M388.444 766.551l40.046-112.765 108.43 52.616-133.572 60.225 1.982.01 132.73-59.846a.411.411 0 1 0 .01-.746l-109.635-53.201a.424.424 0 0 0-.337-.01.415.415 0 0 0-.231.242l-40.295 113.47z"/></g></g><g><g><path fill="#fff" d="M462.3 515.02l-26.805 8.01-45.633-34.374zm-26.768 8.857l28.196-8.426a.41.41 0 0 0 .023-.78l-76.198-27.73a.412.412 0 0 0-.388.715l48.002 36.157a.418.418 0 0 0 .365.064z"/></g></g><g><g><path fill="#fff" d="M487.032 455.45l-23.655 59.084-74.7-27.185zm-23.423 60.019a.41.41 0 0 0 .384-.258l24.13-60.272a.41.41 0 0 0-.082-.435.406.406 0 0 0-.427-.109l-100.328 32.542a.412.412 0 0 0-.016.777l76.2 27.73a.426.426 0 0 0 .139.025z"/></g></g><g><g><path fill="#fff" d="M463.032 515.66l-34.134 133.384 6.91-125.249zm-34.377 137.656l35.354-138.156a.408.408 0 1 0-.516-.496l-28.196 8.424a.413.413 0 0 0-.293.372l-7.16 129.731a.411.411 0 0 0 .81.125z"/></g></g><g><g><path fill="#fff" d="M487.969 455.321l171.328 68.788-195.09-9.435zm173.749 69.728a.412.412 0 0 0 .156-.793l-173.98-69.852a.411.411 0 0 0-.535.23l-24.13 60.27a.412.412 0 0 0 .363.565l198.108 9.58h.018z"/></g></g><g><g><path fill="#fff" d="M575.163 382.198l-87.11 71.797-20.09-155.48zm-87.161 72.906l88.08-72.597a.41.41 0 0 0-.009-.642L467.682 297.25a.412.412 0 1 0-.661.375l20.312 157.215a.411.411 0 0 0 .67.265z"/></g></g><g><g><path fill="#fff" d="M561.504 255.814l13.8 125.451-107.085-83.596zm14.315 126.788zm0 0a.415.415 0 0 0 .41-.458l-13.97-126.982a.411.411 0 0 0-.576-.33l-94.423 42.365a.412.412 0 0 0-.086.7l108.393 84.617a.42.42 0 0 0 .252.088z"/></g></g><g><g><path fill="#fff" d="M706.683 30.88l-144.657 223.3-44.74-185.781zM561.849 255.62c.139 0 .27-.069.348-.188L707.902 30.509a.41.41 0 1 0-.425-.626L516.705 67.676a.41.41 0 0 0-.32.5l45.066 187.128a.41.41 0 0 0 .398.316z"/></g></g><g><g><path fill="#fff" d="M647.307 349.769l-71.139 31.814-13.77-125.162zm-71.488 32.833a.399.399 0 0 0 .169-.037l72.173-32.277a.412.412 0 0 0 .137-.653l-86.143-94.705a.413.413 0 0 0-.714.323l13.97 126.982a.42.42 0 0 0 .205.313.44.44 0 0 0 .203.054z"/></g></g><g><g><path fill="#fff" d="M707.023 292.893l-59.009 56.43-84.933-93.374zm-59.032 57.432a.41.41 0 0 0 .288-.116l59.847-57.232a.413.413 0 0 0-.182-.696l-145.991-37.472a.41.41 0 0 0-.407.675l86.144 94.706c.073.082.179.13.29.135h.011z"/></g></g><g><g><path fill="#fff" d="M707.148 31.677l.282 260.47-144.923-37.196zm.947 261.329c.1-.08.16-.2.16-.327l-.286-262.393a.412.412 0 0 0-.758-.224L561.505 254.984a.414.414 0 0 0 .243.623l145.99 37.472a.42.42 0 0 0 .356-.074z"/></g></g><g><g><path fill="#fff" d="M612.547 618.435l-183.733 34.256 35.05-136.96zm-184.294 35.192c.026 0 .05-.004.077-.008l185.342-34.556a.413.413 0 0 0 .158-.744L463.844 514.718a.411.411 0 0 0-.377-.046.417.417 0 0 0-.256.284l-35.355 138.156a.415.415 0 0 0 .396.514z"/></g></g><g><g><path fill="#fff" d="M612.518 619.277l-74.732 86.63L429.56 653.39zm-74.628 87.55a.403.403 0 0 0 .312-.143l75.705-87.758a.407.407 0 0 0 .046-.473.413.413 0 0 0-.432-.2L428.18 652.809a.41.41 0 0 0-.331.35.407.407 0 0 0 .228.425l109.636 53.202c.057.028.116.04.178.04z"/></g></g><g><g><path fill="#fff" d="M661.063 525.018l-47.619 93.035-148.412-102.514zm-47.366 94.04a.42.42 0 0 0 .266-.212l48.123-94.02a.41.41 0 0 0-.346-.6l-198.11-9.58a.428.428 0 0 0-.409.279.411.411 0 0 0 .156.472l149.985 103.6a.43.43 0 0 0 .335.061z"/></g></g><g><g><path fill="#fff" d="M612.823 620.184L588.935 724.09l-50.34-17.862zm-23.591 104.86a.416.416 0 0 0 .404-.32l24.362-105.975a.413.413 0 0 0-.714-.36l-75.705 87.759a.412.412 0 0 0 .174.656l51.342 18.215c.044.018.09.025.137.025z"/></g></g><g><g><path fill="#fff" d="M711.255 713.504l-121.493 10.668 24.071-104.712zm-121.986 11.538l122.956-10.798a.41.41 0 0 0 .25-.705l-98.592-95.177a.412.412 0 1 0-.688.204L588.832 724.54a.41.41 0 0 0 .4.503z"/></g></g><g><g><path fill="#fff" d="M714.886 566.06l-100.34 51.646 47.316-92.44zm-101.102 52.965l102.055-52.53a.411.411 0 0 0 .063-.693l-53.93-41.49a.41.41 0 0 0-.618.139l-48.124 94.02a.41.41 0 0 0 .363.6.426.426 0 0 0 .191-.046z"/></g></g><g><g><path fill="#fff" d="M753.958 577.144l-41.963 135.93-97.607-94.223zM712.29 714.232a.408.408 0 0 0 .291-.276l42.39-137.305a.412.412 0 0 0-.51-.516l-140.983 42.128a.412.412 0 0 0-.168.692l98.593 95.175a.413.413 0 0 0 .387.102z"/></g></g><g><g><path fill="#fff" d="M753.067 576.551l-135.335 40.442 97.966-50.426zm-139.474 42.52c.04 0 .08-.006.121-.018l140.983-42.13a.412.412 0 0 0-.01-.791l-38.929-10.4a.411.411 0 0 0-.296.031l-102.055 52.528a.415.415 0 0 0-.193.521.414.414 0 0 0 .38.258z"/></g></g><g><g><path fill="#fff" d="M145.032 645.348L6.984 670.232l114.392-66.984zM4.774 671.46c.024 0 .049-.002.074-.007l140.898-25.397a.41.41 0 0 0 .286-.607l-24.144-42.97a.412.412 0 0 0-.567-.154L4.567 670.693a.412.412 0 0 0 .207.767z"/></g></g><g><g><path fill="#fff" d="M192.546 588.988l-46.805 55.94-23.576-41.954zm-46.874 57.074a.412.412 0 0 0 .318-.146l47.937-57.295a.41.41 0 0 0 .038-.473.415.415 0 0 0-.435-.195l-72.08 14.323a.413.413 0 0 0-.279.605l24.143 42.972a.414.414 0 0 0 .321.207l.037.002z"/></g></g><g><g><path fill="#fff" d="M349.639 356.555a.412.412 0 0 1-.396-.516l22.643-87.212a.412.412 0 0 1 .797.207l-22.644 87.212a.412.412 0 0 1-.4.309z"/></g></g><g><g><path fill="#fff" d="M466.314 297.667l-116.047 57.705 22.309-85.924zM349.64 356.555a.414.414 0 0 0 .186-.044l117.786-58.569a.412.412 0 0 0-.065-.763l-95.142-28.642a.41.41 0 0 0-.518.29l-22.644 87.212a.412.412 0 0 0 .397.516z"/></g></g><g><g><path fill="#fff" d="M486.632 454.5l-103.153 11.953-33.093-109.272zm-103.45 12.814c.018 0 .034-.001.052-.003l104.554-12.116a.41.41 0 1 0 .191-.744l-138.098-98.644a.41.41 0 0 0-.633.455l33.543 110.76a.413.413 0 0 0 .392.292z"/></g></g><g><g><path fill="#fff" d="M467.093 298.199l20.118 155.703-136.772-97.696zm20.646 156.998a.408.408 0 0 0 .409-.463L467.835 297.52a.41.41 0 0 0-.59-.315l-117.787 58.568a.416.416 0 0 0-.228.337.414.414 0 0 0 .172.366l138.1 98.644a.4.4 0 0 0 .237.076z"/></g></g><g><g><path fill="#fff" d="M386.956 487.156L314.733 541.4l68.211-73.631zM311.32 544.89a.418.418 0 0 0 .251-.083l76.09-57.15a.41.41 0 0 0 .156-.413l-4.226-20.424a.414.414 0 0 0-.293-.315.407.407 0 0 0-.413.118l-71.863 77.575a.412.412 0 0 0 .298.692z"/></g></g><g><g><path fill="#fff" d="M434.404 523.237l-121.48 20.553 74.488-55.948zM311.39 544.883l124.092-20.993a.412.412 0 1 0 .179-.735l-48.002-36.157a.416.416 0 0 0-.495 0l-76.091 57.151a.411.411 0 0 0 .317.734z"/></g></g><g><g><path fill="#fff" d="M434.976 523.976l-7.085 128.338-115.679-107.57zm-6.723 129.65a.41.41 0 0 0 .412-.39l7.16-129.73a.41.41 0 0 0-.479-.428l-124.093 20.994a.41.41 0 0 0-.21.707l116.93 108.737a.421.421 0 0 0 .28.11z"/></g></g><g><g><path fill="#fff" d="M804.802 434.093l-142.416 89.64 45.984-173.766 96.653 40.83.004-.892-96.772-40.882a.416.416 0 0 0-.56.275l-46.372 175.236a.41.41 0 0 0 .618.452l142.856-89.917z"/></g></g><g><g><path fill="#fff" d="M804.42 508.932l-140.974 15.107 141.35-88.97.006-.976-143.3 90.197a.41.41 0 1 0 .216.76c.016 0 .031 0 .045-.002l142.653-15.288z"/></g></g><g><g><path fill="#fff" d="M805.026 389.905l-94.568-39.95 94.744 5.586.005-.825-97.09-5.723c-.224-.02-.378.121-.424.316a.414.414 0 0 0 .24.474l97.09 41.014z"/></g></g><g><g><path fill="#fff" d="M286.223 588.444l-139.177 56.209 46.758-55.884zm-140.55 57.618a.38.38 0 0 0 .155-.03l142.686-57.627a.41.41 0 0 0-.15-.793h-.004l-94.751.334a.414.414 0 0 0-.314.145l-47.937 57.295a.414.414 0 0 0-.017.507.409.409 0 0 0 .331.169z"/></g></g><g><g><path fill="#fff" d="M287.823 588.686l-27.046 149.835-114.301-92.75zm-26.767 151.005c.05 0 .099-.006.148-.024a.41.41 0 0 0 .26-.314l27.301-151.256a.41.41 0 0 0-.558-.455L145.52 645.27a.41.41 0 0 0-.105.701L260.8 739.6c.074.06.165.091.256.091z"/></g></g><g><g><path fill="#fff" d="M288.113 587.614l-92.197.323 114.539-42.696zm-94.502 1.155l94.75-.334a.409.409 0 0 0 .364-.219l22.961-43.546a.416.416 0 0 0-.054-.465.414.414 0 0 0-.453-.114l-117.712 43.88a.412.412 0 0 0 .142.798z"/></g></g><g><g><path fill="#fff" d="M427.32 653.234l-165.708 85.298 27.06-149.909zm-166.072 86.412l167.196-86.065a.414.414 0 0 0-.016-.74l-139.893-65.19a.413.413 0 0 0-.579.3l-27.301 151.256a.409.409 0 0 0 .401.484.385.385 0 0 0 .192-.045z"/></g></g><g><g><path fill="#fff" d="M311.435 545.146l114.628 106.593-137.137-63.905zm116.818 108.48a.412.412 0 0 0 .282-.714L311.602 544.176a.411.411 0 0 0-.644.11l-22.961 43.546a.418.418 0 0 0-.027.324.416.416 0 0 0 .216.24l139.895 65.192a.46.46 0 0 0 .172.038z"/></g></g><g><g><path fill="#fff" d="M803.983 594.491l-48.437-18.042 48.672-27.933.005-.953-49.85 28.61a.412.412 0 0 0 .062.743l49.544 18.453z"/></g></g><g><g><path fill="#fff" d="M372.283 269.342a.414.414 0 0 1-.228-.754l95.073-63.582a.41.41 0 0 1 .458.684l-95.074 63.582c-.07.05-.15.07-.23.07z"/></g></g><g><g><path fill="#fff" d="M466.946 206.118l.07 90.902-93.777-28.232zm.728 91.786a.408.408 0 0 0 .165-.332l-.07-92.224a.412.412 0 0 0-.64-.343l-95.074 63.583a.415.415 0 0 0-.178.403.409.409 0 0 0 .288.334l95.144 28.642a.41.41 0 0 0 .365-.063z"/></g></g><g><g><path fill="#fff" d="M560.912 255.177l-93.073 41.76-.07-90.905zm-93.486 42.807a.41.41 0 0 0 .17-.035l94.423-42.366a.406.406 0 0 0 .243-.362.407.407 0 0 0-.22-.377l-94.493-49.86a.412.412 0 0 0-.605.364l.072 92.226a.413.413 0 0 0 .41.41z"/></g></g><g><g><path fill="#fff" d="M516.707 69.51l44.53 184.908-93.372-49.267zm45.397 186.024a.415.415 0 0 0 .147-.423L517.184 67.983a.409.409 0 0 0-.377-.314c-.175-.025-.349.1-.41.27l-49.428 137.27a.414.414 0 0 0 .194.504l94.495 49.86c.06.03.125.047.191.047.09 0 .18-.03.255-.086z"/></g></g><g><g><path fill="#fff" d="M803.691 651.567l-90.763 61.272 41.81-135.432 49.01 63.06.007-1.333-48.851-62.857a.404.404 0 0 0-.399-.152.408.408 0 0 0-.319.282l-42.39 137.305a.41.41 0 0 0 .625.464l91.265-61.613z"/></g></g><g><g><path fill="#fff" d="M803.26 736.034l-90.074-22.376 90.5-61.095.005-.996-91.731 61.926a.411.411 0 0 0 .13.74l91.166 22.648z"/></g></g><g><g><path fill="#fff" d="M803.755 639.134l-47.962-61.713 48.186 17.948.004-.878-49.26-18.347a.409.409 0 0 0-.476.142.408.408 0 0 0 .008.495l49.492 63.686z"/></g></g></g><g><g><g><path fill="#fff" d="M734.774 1.648a4.294 4.294 0 1 0-.044 8.588 4.294 4.294 0 0 0 .044-8.588z"/></g><g><path fill="#fff" d="M740.691 5.97a5.945 5.945 0 0 1-5.97 5.91 5.945 5.945 0 0 1-5.909-5.971A5.947 5.947 0 0 1 734.782 0a5.946 5.946 0 0 1 5.91 5.97zm-5.917-4.322a4.293 4.293 0 1 0-.044 8.586 4.293 4.293 0 1 0 .044-8.586z"/></g></g><g><g><path fill="#fff" d="M60.921 702.556a2.648 2.648 0 0 0-2.661 2.635 2.648 2.648 0 1 0 5.298.029 2.65 2.65 0 0 0-2.637-2.664z"/></g><g><path fill="#fff" d="M60.93 700.909a4.3 4.3 0 0 1 4.274 4.318 4.3 4.3 0 0 1-4.318 4.273 4.3 4.3 0 0 1-4.274-4.317 4.3 4.3 0 0 1 4.318-4.274zm-2.67 4.282a2.65 2.65 0 1 0 2.661-2.635z"/></g></g><g><g><path fill="#fff" d="M110.576 733.212a3.668 3.668 0 1 0-.037 7.336 3.668 3.668 0 0 0 .037-7.336z"/></g><g><path fill="#fff" d="M115.872 736.907a5.323 5.323 0 0 1-5.342 5.288 5.32 5.32 0 0 1-5.286-5.342 5.318 5.318 0 0 1 5.34-5.286 5.32 5.32 0 0 1 5.288 5.34zm-8.982-.045a3.667 3.667 0 1 0 7.335.037 3.668 3.668 0 0 0-3.65-3.686z"/></g></g><g><g><path fill="#fff" d="M786.86 298.47a3.182 3.182 0 1 0-.033 6.364 3.182 3.182 0 0 0 .033-6.364z"/></g><g><path fill="#fff" d="M791.67 301.676a4.831 4.831 0 0 1-4.852 4.803 4.83 4.83 0 0 1-4.802-4.852 4.833 4.833 0 0 1 4.85-4.804 4.834 4.834 0 0 1 4.804 4.853zm-8.009-.04a3.182 3.182 0 1 0 3.199-3.166z"/></g></g><g><g><path fill="#fff" d="M570.367 382.19a5.454 5.454 0 1 1 10.907 0 5.454 5.454 0 0 1-10.907 0z"/></g><g><path fill="#fff" d="M582.921 382.227c-.02 3.914-3.22 7.084-7.137 7.063-3.916-.02-7.084-3.221-7.065-7.137.021-3.914 3.223-7.084 7.137-7.063 3.916.019 7.084 3.22 7.065 7.137zm-12.554-.065a5.455 5.455 0 1 0 5.482-5.427z"/></g></g><g><g><path fill="#fff" d="M650.33 349.925a2.336 2.336 0 1 0-4.671-.024 2.336 2.336 0 0 0 4.671.024z"/></g><g><path fill="#fff" d="M648.014 345.93a3.985 3.985 0 0 1 3.962 4.002 3.986 3.986 0 0 1-4.002 3.963 3.986 3.986 0 0 1-3.962-4.003 3.986 3.986 0 0 1 4.002-3.962zm-.009 1.647a2.335 2.335 0 1 0-.024 4.671 2.335 2.335 0 0 0 .024-4.67z"/></g></g><g><g><path fill="#fff" d="M707.814 298.053a5.375 5.375 0 0 0 5.402-5.346 5.376 5.376 0 0 0-5.347-5.401 5.373 5.373 0 0 0-5.4 5.345 5.373 5.373 0 0 0 5.345 5.402z"/></g><g><path fill="#fff" d="M714.862 292.714a7.026 7.026 0 0 1-7.057 6.985c-3.87-.02-7.003-3.185-6.984-7.055.02-3.872 3.186-7.005 7.056-6.986 3.872.021 7.004 3.186 6.985 7.056zm-12.393-.063a5.373 5.373 0 1 0 10.747.056 5.376 5.376 0 0 0-5.347-5.401z"/></g></g><g><g><path fill="#fff" d="M710.912 30.304a3.355 3.355 0 0 0-3.338-3.374 3.356 3.356 0 1 0 3.338 3.374z"/></g><g><path fill="#fff" d="M712.56 30.31a5.01 5.01 0 0 1-5.028 4.98 5.011 5.011 0 0 1-4.98-5.03 5.01 5.01 0 0 1 5.03-4.977 5.009 5.009 0 0 1 4.978 5.028zm-4.986-3.38a3.356 3.356 0 1 0-.035 6.712 3.356 3.356 0 0 0 .035-6.712z"/></g></g><g><g><path fill="#fff" d="M463.635 510.202a4.854 4.854 0 0 0-4.879 4.83 4.854 4.854 0 1 0 9.71.05 4.854 4.854 0 0 0-4.83-4.88z"/></g><g><path fill="#fff" d="M463.644 508.556c3.584.018 6.488 2.95 6.468 6.534a6.51 6.51 0 0 1-6.535 6.47c-3.586-.02-6.487-2.951-6.468-6.535a6.507 6.507 0 0 1 6.535-6.469zm-.009 1.646a4.856 4.856 0 1 0-.049 9.713 4.856 4.856 0 0 0 .05-9.713z"/></g></g><g><g><path fill="#fff" d="M537.912 702.244a4.17 4.17 0 1 0-.04 8.342 4.17 4.17 0 0 0 .04-8.342z"/></g><g><path fill="#fff" d="M543.709 706.444a5.824 5.824 0 0 1-5.847 5.788 5.823 5.823 0 0 1-5.788-5.846 5.822 5.822 0 0 1 5.847-5.788 5.824 5.824 0 0 1 5.788 5.846zm-9.988-.05a4.171 4.171 0 1 0 4.192-4.15z"/></g></g><g><g><path fill="#fff" d="M589.26 719.225a5.408 5.408 0 1 0-.055 10.815 5.408 5.408 0 0 0 .055-10.815z"/></g><g><path fill="#fff" d="M596.288 724.669c-.021 3.889-3.202 7.038-7.091 7.019-3.89-.021-7.039-3.202-7.02-7.091.021-3.89 3.202-7.039 7.091-7.02 3.89.021 7.04 3.202 7.02 7.092zm-12.463-.064a5.408 5.408 0 1 0 5.435-5.38z"/></g></g><g><g><path fill="#fff" d="M613.61 615.63a3.028 3.028 0 0 0-.03 6.054 3.027 3.027 0 1 0 .03-6.054z"/></g><g><path fill="#fff" d="M618.269 618.68a4.679 4.679 0 0 1-4.697 4.652 4.679 4.679 0 0 1-4.649-4.698 4.676 4.676 0 0 1 4.696-4.65 4.676 4.676 0 0 1 4.65 4.697zm-7.7-.038a3.027 3.027 0 1 0 3.042-3.012z"/></g></g><g><g><path fill="#fff" d="M715.68 560.269a5.86 5.86 0 1 0-.062 11.718 5.86 5.86 0 0 0 .063-11.718z"/></g><g><path fill="#fff" d="M723.156 566.167c-.02 4.138-3.405 7.49-7.544 7.468-4.14-.02-7.49-3.405-7.468-7.545.021-4.139 3.405-7.49 7.544-7.469 4.14.021 7.49 3.407 7.468 7.546zm-7.475-5.898a5.86 5.86 0 1 0-.062 11.718 5.86 5.86 0 0 0 .062-11.718z"/></g></g><g><g><path fill="#fff" d="M4.788 668.639a2.41 2.41 0 1 0-.025 4.82 2.41 2.41 0 0 0 .025-4.82z"/></g><g><path fill="#fff" d="M4.797 666.991a4.06 4.06 0 0 1 4.035 4.078 4.06 4.06 0 0 1-4.077 4.036 4.062 4.062 0 0 1-4.037-4.077 4.065 4.065 0 0 1 4.079-4.037zm-.01 1.648a2.41 2.41 0 1 0-.025 4.82 2.41 2.41 0 0 0 .026-4.82z"/></g></g><g><g><path fill="#fff" d="M121.55 598.783a3.897 3.897 0 1 0-.04 7.795 3.897 3.897 0 0 0 .04-7.795z"/></g><g><path fill="#fff" d="M127.074 602.709a5.551 5.551 0 0 1-5.574 5.516 5.552 5.552 0 0 1-5.516-5.574 5.552 5.552 0 0 1 5.574-5.516 5.552 5.552 0 0 1 5.516 5.574zm-9.442-.05a3.897 3.897 0 1 0 3.918-3.877z"/></g></g><g><g><path fill="#fff" d="M349.653 353.79a2.353 2.353 0 1 0-.023 4.706 2.353 2.353 0 0 0 .023-4.706z"/></g><g><path fill="#fff" d="M353.64 356.163a4.002 4.002 0 0 1-4.019 3.98 4.005 4.005 0 0 1-3.98-4.02 4.008 4.008 0 0 1 4.02-3.98 4.005 4.005 0 0 1 3.98 4.02zm-3.987-2.373a2.354 2.354 0 0 0-.023 4.707 2.353 2.353 0 1 0 .023-4.707z"/></g></g><g><g><path fill="#fff" d="M487.769 449.421a5.365 5.365 0 1 0-.057 10.73 5.365 5.365 0 0 0 .057-10.73z"/></g><g><path fill="#fff" d="M494.751 454.821a7.018 7.018 0 0 1-7.046 6.976c-3.866-.02-6.996-3.181-6.975-7.048.02-3.865 3.18-6.994 7.046-6.975 3.866.02 6.996 3.18 6.975 7.047zm-6.982-5.4a5.365 5.365 0 1 0-.057 10.73 5.365 5.365 0 0 0 .057-10.73z"/></g></g><g><g><path fill="#fff" d="M383.172 469.58a2.678 2.678 0 1 0 .024-5.356 2.678 2.678 0 0 0-.024 5.355z"/></g><g><path fill="#fff" d="M387.509 466.925a4.33 4.33 0 0 1-4.346 4.3 4.328 4.328 0 0 1-4.301-4.344 4.328 4.328 0 0 1 4.345-4.302 4.33 4.33 0 0 1 4.302 4.346zm-7-.037a2.678 2.678 0 1 0 2.69-2.661z"/></g></g><g><g><path fill="#fff" d="M387.428 484.302a3.025 3.025 0 1 0-.03 6.052 3.025 3.025 0 0 0 .03-6.052z"/></g><g><path fill="#fff" d="M392.084 487.351a4.677 4.677 0 0 1-4.696 4.647 4.676 4.676 0 0 1-4.647-4.694 4.676 4.676 0 0 1 4.694-4.648 4.677 4.677 0 0 1 4.65 4.695zm-7.696-.038a3.025 3.025 0 1 0 3.04-3.011z"/></g></g><g><g><path fill="#fff" d="M435.426 521.116a2.367 2.367 0 1 0-.027 4.734 2.367 2.367 0 0 0 .027-4.734z"/></g><g><path fill="#fff" d="M439.428 523.504a4.017 4.017 0 0 1-4.035 3.993 4.016 4.016 0 0 1-3.993-4.034 4.019 4.019 0 0 1 4.034-3.994 4.02 4.02 0 0 1 3.994 4.035zm-6.382-.034a2.369 2.369 0 1 0 2.38-2.354z"/></g></g><g><g><path fill="#fff" d="M661.742 520.521a4.118 4.118 0 1 0 4.095 4.139 4.118 4.118 0 0 0-4.095-4.139z"/></g><g><path fill="#fff" d="M667.484 524.667a5.772 5.772 0 0 1-5.793 5.735 5.772 5.772 0 0 1-5.735-5.793 5.772 5.772 0 0 1 5.793-5.735 5.772 5.772 0 0 1 5.735 5.793zm-9.88-.05a4.118 4.118 0 0 0 8.233.043 4.118 4.118 0 0 0-4.095-4.139z"/></g></g><g><g><path fill="#fff" d="M708.118 344.67a4.733 4.733 0 1 0-.047 9.466 4.733 4.733 0 0 0 .047-9.466z"/></g><g><path fill="#fff" d="M708.126 343.025a6.384 6.384 0 0 1 6.346 6.41 6.383 6.383 0 0 1-6.41 6.346 6.386 6.386 0 0 1-6.348-6.41c.02-3.518 2.895-6.365 6.412-6.346zm-4.764 6.354a4.733 4.733 0 1 0 4.756-4.709z"/></g></g><g><g><path fill="#fff" d="M145.7 640.52a5.131 5.131 0 1 0-.053 10.262 5.131 5.131 0 0 0 .053-10.262z"/></g><g><path fill="#fff" d="M145.709 638.872a6.785 6.785 0 0 1 6.742 6.814c-.017 3.737-3.075 6.762-6.812 6.742a6.784 6.784 0 0 1-6.744-6.812 6.787 6.787 0 0 1 6.814-6.744zm-.009 1.648a5.131 5.131 0 1 0-.053 10.262 5.131 5.131 0 0 0 .053-10.262z"/></g></g><g><g><path fill="#fff" d="M196.565 588.372a2.955 2.955 0 1 0-5.909-.031 2.955 2.955 0 0 0 5.91.031z"/></g><g><path fill="#fff" d="M198.213 588.38a4.605 4.605 0 0 1-4.625 4.578 4.607 4.607 0 0 1-4.579-4.624 4.608 4.608 0 0 1 4.625-4.58 4.61 4.61 0 0 1 4.579 4.627zm-7.557-.038a2.954 2.954 0 1 0 2.97-2.94z"/></g></g><g><g><path fill="#fff" d="M261.083 734.637a4.642 4.642 0 1 0-.047 9.286 4.643 4.643 0 0 0 .047-9.286z"/></g><g><path fill="#fff" d="M261.091 732.991a6.296 6.296 0 0 1 6.258 6.322 6.298 6.298 0 0 1-6.323 6.257 6.297 6.297 0 0 1-6.257-6.32 6.299 6.299 0 0 1 6.322-6.259zm-4.675 6.265a4.642 4.642 0 0 0 4.62 4.667 4.643 4.643 0 0 0 .047-9.286z"/></g></g><g><g><path fill="#fff" d="M288.384 583.169a4.856 4.856 0 1 0-.045 9.712 4.856 4.856 0 0 0 .045-9.712z"/></g><g><path fill="#fff" d="M288.393 581.523a6.507 6.507 0 0 1 6.469 6.535c-.018 3.584-2.95 6.486-6.536 6.469a6.512 6.512 0 0 1-6.468-6.536c.02-3.586 2.951-6.487 6.535-6.468zm-.009 1.646a4.856 4.856 0 1 0-.045 9.712 4.856 4.856 0 0 0 .045-9.712z"/></g></g><g><g><path fill="#fff" d="M428.277 648.98a4.235 4.235 0 1 0-.046 8.469 4.235 4.235 0 0 0 .046-8.47z"/></g><g><path fill="#fff" d="M434.137 653.244a5.887 5.887 0 0 1-5.912 5.85 5.887 5.887 0 0 1-5.851-5.91 5.888 5.888 0 0 1 5.91-5.852 5.891 5.891 0 0 1 5.853 5.912zm-10.118-.05a4.236 4.236 0 1 0 4.258-4.215z"/></g></g><g><g><path fill="#fff" d="M311.339 541.369a3.11 3.11 0 1 0-.031 6.218 3.11 3.11 0 0 0 .03-6.218z"/></g><g><path fill="#fff" d="M316.077 544.502a4.763 4.763 0 0 1-4.779 4.732 4.761 4.761 0 0 1-4.731-4.781 4.76 4.76 0 0 1 4.779-4.73 4.76 4.76 0 0 1 4.731 4.779zm-7.863-.04a3.108 3.108 0 1 0 6.216.031 3.109 3.109 0 0 0-3.091-3.124z"/></g></g><g><g><path fill="#fff" d="M372.304 265.213a3.718 3.718 0 1 0-.037 7.437 3.718 3.718 0 0 0 .037-7.437z"/></g><g><path fill="#fff" d="M377.65 268.958a5.37 5.37 0 0 1-5.394 5.337 5.369 5.369 0 0 1-5.337-5.391 5.372 5.372 0 0 1 5.394-5.339 5.371 5.371 0 0 1 5.336 5.393zm-9.083-.045a3.718 3.718 0 1 0 3.737-3.7z"/></g></g><g><g><path fill="#fff" d="M467.442 294.81a2.764 2.764 0 0 0-2.777 2.75 2.763 2.763 0 1 0 2.777-2.75z"/></g><g><path fill="#fff" d="M471.835 297.595c-.012 2.432-2 4.4-4.43 4.388a4.415 4.415 0 0 1-4.386-4.432 4.413 4.413 0 0 1 4.43-4.386c2.432.012 4.4 2 4.386 4.43zm-4.393-2.784a2.764 2.764 0 0 0-2.777 2.749 2.763 2.763 0 1 0 2.777-2.75z"/></g></g><g><g><path fill="#fff" d="M477.348 51.246a4.39 4.39 0 1 0-.044 8.78 4.39 4.39 0 0 0 .044-8.78z"/></g><g><path fill="#fff" d="M483.36 55.667a6.042 6.042 0 0 1-6.067 6.005 6.042 6.042 0 0 1-6.003-6.066 6.042 6.042 0 0 1 6.066-6.006 6.04 6.04 0 0 1 6.004 6.067zm-10.425-.054a4.39 4.39 0 1 0 4.412-4.367z"/></g></g><g><g><path fill="#fff" d="M467.326 211.293a5.945 5.945 0 1 0 .062-11.89 5.942 5.942 0 0 0-5.976 5.915 5.943 5.943 0 0 0 5.914 5.975z"/></g><g><path fill="#fff" d="M474.95 205.386c-.024 4.186-3.446 7.576-7.632 7.555-4.186-.023-7.574-3.446-7.553-7.632.021-4.186 3.444-7.574 7.63-7.553 4.186.021 7.575 3.444 7.554 7.63zm-7.562-5.982a5.942 5.942 0 0 0-5.976 5.914 5.946 5.946 0 1 0 5.975-5.914z"/></g></g><g><g><path fill="#fff" d="M561.865 252.174a3.033 3.033 0 1 0-.03 6.068 3.036 3.036 0 0 0 3.05-3.019 3.032 3.032 0 0 0-3.02-3.05z"/></g><g><path fill="#fff" d="M566.532 255.232a4.686 4.686 0 0 1-4.706 4.656 4.687 4.687 0 0 1-4.657-4.705 4.686 4.686 0 0 1 4.705-4.656 4.687 4.687 0 0 1 4.658 4.705zm-4.667-3.058a3.033 3.033 0 1 0-.03 6.068 3.036 3.036 0 0 0 3.05-3.019 3.032 3.032 0 0 0-3.02-3.05z"/></g></g><g><g><path fill="#fff" d="M516.802 64.706a3.375 3.375 0 0 0-.035 6.747 3.374 3.374 0 0 0 .035-6.747z"/></g><g><path fill="#fff" d="M521.805 68.106a5.026 5.026 0 0 1-5.045 4.994 5.027 5.027 0 0 1-4.995-5.045 5.026 5.026 0 0 1 5.046-4.995 5.026 5.026 0 0 1 4.994 5.046zm-5.003-3.4a3.375 3.375 0 0 0-.035 6.747 3.374 3.374 0 0 0 .035-6.747z"/></g></g><g><g><path fill="#fff" d="M712.205 710.683a3.153 3.153 0 1 0-.032 6.302 3.153 3.153 0 0 0 .032-6.302z"/></g><g><path fill="#fff" d="M716.988 713.858a4.803 4.803 0 0 1-4.823 4.774 4.803 4.803 0 0 1-4.774-4.823 4.804 4.804 0 0 1 4.823-4.774 4.804 4.804 0 0 1 4.774 4.823zm-7.951-.04a3.153 3.153 0 1 0 3.168-3.135z"/></g></g><g><g><path fill="#fff" d="M750.657 576.53a3.923 3.923 0 1 1 7.845 0 3.923 3.923 0 0 1-7.845 0z"/></g><g><path fill="#fff" d="M754.607 570.96a5.576 5.576 0 0 1 5.542 5.598 5.576 5.576 0 0 1-5.598 5.54 5.576 5.576 0 0 1-5.54-5.598 5.574 5.574 0 0 1 5.596-5.54zm-.007 1.647a3.922 3.922 0 0 0-3.944 3.902 3.923 3.923 0 1 0 3.944-3.902z"/></g></g></g></g></g></svg>