<svg width="47" height="19" viewBox="0 0 47 19" fill="none" xmlns="http://www.w3.org/2000/svg">
<path d="M0.000195583 9.52613C0.00682557 9.96924 0.181628 10.3915 0.486209 10.7001C0.79079 11.0088 1.20024 11.1786 1.62463 11.1722L41.5327 11.1722L36.7929 16.1213C36.6392 16.2754 36.5165 16.4599 36.4319 16.6642C36.3474 16.8684 36.3027 17.0882 36.3006 17.3106C36.2984 17.5331 36.3388 17.7538 36.4193 17.9598C36.4999 18.1657 36.6189 18.3529 36.7696 18.5102C36.9203 18.6675 37.0995 18.7918 37.2967 18.8759C37.494 18.96 37.7054 19.0022 37.9184 18.9999C38.1315 18.9977 38.342 18.951 38.5376 18.8628C38.7332 18.7745 38.9099 18.6464 39.0575 18.4859L46.5311 10.6823C46.8313 10.3687 47 9.94342 47 9.5C47 9.05658 46.8313 8.63131 46.5311 8.3177L39.0575 0.514111C38.9099 0.353628 38.7332 0.225502 38.5376 0.137239C38.342 0.0489769 38.1315 0.00234985 37.9184 8.7738e-05C37.7054 -0.00217438 37.494 0.0399761 37.2967 0.124069C37.0995 0.208162 36.9203 0.332508 36.7696 0.489824C36.6189 0.647141 36.4999 0.834267 36.4193 1.04024C36.3388 1.24622 36.2984 1.4669 36.3006 1.68937C36.3027 1.91183 36.3474 2.13162 36.4319 2.33584C36.5165 2.54006 36.6392 2.72462 36.7929 2.8787L41.5327 7.8278L1.62463 7.8278C1.41028 7.82459 1.19749 7.86634 0.99888 7.95058C0.800269 8.03482 0.619874 8.15984 0.468387 8.31821C0.316901 8.47659 0.197405 8.66511 0.116982 8.8726C0.036559 9.08009 -0.00315434 9.30232 0.000195583 9.52613Z" fill="#6F64A2"/>
</svg>
