<svg width="47" height="20" viewBox="0 0 47 20" fill="none" xmlns="http://www.w3.org/2000/svg">
<path d="M46.9998 9.65848C46.9932 9.20673 46.8184 8.77626 46.5138 8.4616C46.2092 8.14695 45.7998 7.97386 45.3754 7.98034L5.46729 7.98033L10.2071 2.9348C10.3608 2.77771 10.4835 2.58955 10.5681 2.38135C10.6526 2.17315 10.6973 1.94909 10.6994 1.72228C10.7016 1.49548 10.6612 1.2705 10.5807 1.06051C10.5001 0.850521 10.3811 0.65975 10.2304 0.499368C10.0797 0.338985 9.90052 0.212216 9.70325 0.126484C9.50599 0.0407523 9.29464 -0.00221928 9.08157 8.6414e-05C8.86851 0.00239211 8.65802 0.049929 8.46244 0.139912C8.26685 0.229896 8.09009 0.360517 7.94252 0.524127L0.468879 8.47978C0.168655 8.7995 -3.95876e-07 9.23306 -4.15258e-07 9.68512C-4.34641e-07 10.1372 0.168655 10.5707 0.468879 10.8905L7.94252 18.8461C8.09009 19.0097 8.26685 19.1403 8.46244 19.2303C8.65802 19.3203 8.86851 19.3678 9.08157 19.3701C9.29463 19.3725 9.50598 19.3295 9.70325 19.2438C9.90052 19.158 10.0797 19.0313 10.2304 18.8709C10.3811 18.7105 10.5001 18.5197 10.5807 18.3097C10.6612 18.0997 10.7016 17.8748 10.6994 17.648C10.6973 17.4211 10.6526 17.1971 10.5681 16.9889C10.4835 16.7807 10.3608 16.5925 10.2071 16.4354L5.46729 11.3899L45.3754 11.3899C45.5897 11.3932 45.8025 11.3506 46.0011 11.2647C46.1997 11.1788 46.3801 11.0514 46.5316 10.8899C46.6831 10.7285 46.8026 10.5363 46.883 10.3247C46.9634 10.1132 47.0032 9.88665 46.9998 9.65848Z" fill="#6F64A2"/>
</svg>
