<svg width="24" height="10" viewBox="0 0 24 10" fill="none" xmlns="http://www.w3.org/2000/svg">
<path d="M0.0704121 5.01249C0.0737758 5.22779 0.16246 5.43296 0.316985 5.58292C0.471511 5.73288 0.679242 5.81538 0.89455 5.81229L21.1415 5.81229L18.7368 8.217C18.6588 8.29187 18.5965 8.38154 18.5536 8.48077C18.5108 8.58 18.4881 8.68679 18.487 8.79488C18.4859 8.90298 18.5064 9.0102 18.5472 9.11028C18.5881 9.21036 18.6485 9.30129 18.725 9.37772C18.8014 9.45416 18.8923 9.51458 18.9924 9.55544C19.0925 9.5963 19.1997 9.61678 19.3078 9.61568C19.4159 9.61458 19.5227 9.59193 19.6219 9.54904C19.7211 9.50616 19.8108 9.4439 19.8857 9.36592L23.6773 5.57426C23.8297 5.42188 23.9152 5.21525 23.9152 4.99979C23.9152 4.78434 23.8297 4.57771 23.6773 4.42533L19.8857 0.633661C19.8108 0.555685 19.7211 0.493431 19.6219 0.450544C19.5227 0.407658 19.4159 0.385003 19.3078 0.383904C19.1997 0.382806 19.0925 0.403285 18.9924 0.444145C18.8923 0.485005 18.8014 0.545422 18.725 0.621861C18.6485 0.698299 18.5881 0.789221 18.5472 0.889301C18.5064 0.989381 18.4859 1.09661 18.487 1.2047C18.4881 1.3128 18.5108 1.41959 18.5536 1.51882C18.5965 1.61805 18.6588 1.70772 18.7368 1.78259L21.1415 4.18729L0.89455 4.18729C0.785802 4.18573 0.677847 4.20602 0.577084 4.24695C0.47632 4.28788 0.384799 4.34862 0.307944 4.42558C0.231089 4.50253 0.170464 4.59413 0.129662 4.69494C0.0888607 4.79576 0.0687126 4.90374 0.0704121 5.01249Z" fill="white"/>
</svg>
