<svg xmlns="http://www.w3.org/2000/svg" x="0px" y="0px"
	 viewBox="307 72.4 239 442" enable-background="new 307 72.4 239 442">
<g>
	<g>
		<g>
			<g>
				<g>
					<path fill="#E6895E" d="M360.9,306.7l64.9-106.3l-7.9,83.2h73.3l-66,104.2l9.2-81.1L360.9,306.7z M545.6,253.6h-94.8
						l17.2-180L307.4,336.7h93.2l-20.1,177.5L545.6,253.6z"/>
				</g>
			</g>
		</g>
	</g>
	<g display="none">
		<g display="inline">
			<g>
				<g>
					<path fill="#FFFFFF" d="M483.7,402.5l-96,27.5l-4-17.2L483.7,402.5z M387.4,430.8c0,0,0.1,0,0.1,0l100.3-28.7
						c0.2-0.1,0.3-0.2,0.3-0.4c0-0.2-0.2-0.3-0.4-0.3l-104.6,10.7c-0.1,0-0.2,0.1-0.3,0.1c-0.1,0.1-0.1,0.2-0.1,0.3l4.2,18
						c0,0.1,0.1,0.2,0.2,0.2C387.3,430.8,387.3,430.8,387.4,430.8L387.4,430.8z"/>
				</g>
			</g>
			<g>
				<g>
					<path fill="#FFFFFF" d="M575.7,338.3l85,124.4l-172.2-61L575.7,338.3z M662,463.6c0.1-0.1,0.1-0.3,0-0.4l-85.9-125.6
						c-0.1-0.1-0.2-0.2-0.3-0.2c-0.1,0-0.2,0-0.3,0.1l-88.1,64c-0.1,0.1-0.2,0.2-0.1,0.3c0,0.1,0.1,0.2,0.3,0.3l174,61.6
						c0,0,0.1,0,0.2,0C661.8,463.7,661.9,463.7,662,463.6L662,463.6z"/>
				</g>
			</g>
			<g>
				<g>
					<path fill="#FFFFFF" d="M462.3,454.9l-26.8,7.1l-45.6-30.3L462.3,454.9z M435.4,462.7c0,0,0.1,0,0.1,0l28.2-7.4
						c0.2,0,0.3-0.2,0.3-0.3c0-0.2-0.1-0.3-0.3-0.4l-76.2-24.5c-0.2-0.1-0.4,0-0.5,0.2c-0.1,0.2,0,0.4,0.1,0.5l48,31.9
						C435.2,462.7,435.3,462.7,435.4,462.7L435.4,462.7z"/>
				</g>
			</g>
			<g>
				<g>
					<path fill="#FFFFFF" d="M487,402.3l-23.7,52.1l-74.7-24L487,402.3z M463.6,455.3c0.2,0,0.3-0.1,0.4-0.2l24.1-53.2
						c0.1-0.1,0-0.3-0.1-0.4c-0.1-0.1-0.3-0.1-0.4-0.1l-100.3,28.7c-0.2,0-0.3,0.2-0.3,0.3c0,0.2,0.1,0.3,0.3,0.3l76.2,24.5
						C463.5,455.3,463.6,455.3,463.6,455.3L463.6,455.3z"/>
				</g>
			</g>
			<g>
				<g>
					<path fill="#FFFFFF" d="M463,455.5l-34.1,117.6l6.9-110.5L463,455.5z M428.3,577.1c0.2,0,0.4-0.1,0.4-0.3L464,455
						c0-0.1,0-0.3-0.1-0.4c-0.1-0.1-0.3-0.1-0.4-0.1l-28.2,7.4c-0.2,0-0.3,0.2-0.3,0.3l-7.2,114.4
						C427.8,576.9,428,577.1,428.3,577.1C428.2,577.1,428.2,577.1,428.3,577.1L428.3,577.1z"/>
				</g>
			</g>
			<g>
				<g>
					<path fill="#FFFFFF" d="M488,402.2l171.3,60.7l-195.1-8.3L488,402.2z M661.7,463.7c0.2,0,0.4-0.1,0.4-0.3
						c0-0.2-0.1-0.3-0.3-0.4l-174-61.6c-0.1,0-0.2,0-0.3,0c-0.1,0-0.2,0.1-0.2,0.2l-24.1,53.2c0,0.1,0,0.2,0,0.3
						c0.1,0.1,0.2,0.2,0.3,0.2L661.7,463.7L661.7,463.7L661.7,463.7z"/>
				</g>
			</g>
			<g>
				<g>
					<path fill="#FFFFFF" d="M575.2,337.7l-87.1,63.3L468,263.9L575.2,337.7z M488,402l88.1-64c0.1-0.1,0.1-0.2,0.2-0.3
						c0-0.1-0.1-0.2-0.2-0.3l-108.4-74.6c-0.1-0.1-0.3-0.1-0.5,0c-0.1,0.1-0.2,0.2-0.2,0.4l20.3,138.7c0,0.1,0.1,0.2,0.3,0.3
						c0,0,0.1,0,0.1,0C487.8,402.1,487.9,402.1,488,402L488,402z"/>
				</g>
			</g>
			<g>
				<g>
					<path fill="#FFFFFF" d="M561.5,226.3l13.8,110.7l-107.1-73.7L561.5,226.3z M575.8,338.1c0.1,0,0.1,0,0.2,0
						c0.1-0.1,0.2-0.2,0.2-0.4l-14-112c0-0.1-0.1-0.2-0.2-0.3c-0.1-0.1-0.3-0.1-0.4,0l-94.4,37.4c-0.1,0-0.2,0.2-0.2,0.3
						c0,0.1,0,0.3,0.2,0.3L575.6,338C575.6,338.1,575.7,338.1,575.8,338.1L575.8,338.1z"/>
				</g>
			</g>
			<g>
				<g>
					<path fill="#FFFFFF" d="M706.7,27.9L562,224.8L517.3,61L706.7,27.9z M561.8,226.1c0.1,0,0.3-0.1,0.3-0.2L707.9,27.5
						c0.1-0.1,0.1-0.3,0-0.4c-0.1-0.1-0.3-0.2-0.4-0.2L516.7,60.3c-0.1,0-0.2,0.1-0.3,0.2c-0.1,0.1-0.1,0.2-0.1,0.3l45.1,165.1
						C561.5,226,561.6,226.1,561.8,226.1C561.8,226.1,561.8,226.1,561.8,226.1L561.8,226.1z"/>
				</g>
			</g>
			<g>
				<g>
					<path fill="#FFFFFF" d="M612.5,546.1l-183.7,30.2l35-120.8L612.5,546.1z M428.3,577.1C428.3,577.1,428.3,577.1,428.3,577.1
						l185.4-30.5c0.2,0,0.3-0.1,0.3-0.3c0-0.1,0-0.3-0.2-0.4l-150-91.4c-0.1-0.1-0.3-0.1-0.4,0c-0.1,0-0.2,0.1-0.3,0.3l-35.4,121.9
						c0,0.1,0,0.3,0.1,0.3C428,577.1,428.1,577.1,428.3,577.1L428.3,577.1z"/>
				</g>
			</g>
			<g>
				<g>
					<path fill="#FFFFFF" d="M661.1,463.7l-47.6,82.1L465,455.3L661.1,463.7z M613.6,546.7c0,0,0.1,0,0.1,0c0.1,0,0.2-0.1,0.3-0.2
						l48.1-82.9c0.1-0.1,0.1-0.2,0-0.3c-0.1-0.1-0.2-0.2-0.3-0.2l-198.1-8.5c-0.2,0-0.4,0.1-0.4,0.2c-0.1,0.2,0,0.3,0.2,0.4
						l150,91.4C613.4,546.6,613.5,546.7,613.6,546.7L613.6,546.7z"/>
				</g>
			</g>
			<g>
				<g>
					<path fill="#FFFFFF" d="M349.6,315.1c0,0-0.1,0-0.1,0c-0.2,0-0.4-0.2-0.3-0.4l22.6-76.9c0.1-0.2,0.3-0.3,0.5-0.3
						c0.2,0.1,0.4,0.3,0.3,0.4L350,314.8C350,315,349.8,315.1,349.6,315.1L349.6,315.1z"/>
				</g>
			</g>
			<g>
				<g>
					<path fill="#FFFFFF" d="M466.3,263.2l-116,50.9l22.3-75.8L466.3,263.2z M349.8,315.1l117.8-51.7c0.2-0.1,0.2-0.2,0.2-0.4
						c0-0.2-0.1-0.3-0.3-0.3l-95.1-25.3c-0.1,0-0.2,0-0.3,0c-0.1,0-0.2,0.1-0.2,0.2l-22.6,76.9c0,0.1,0,0.3,0.1,0.4
						C349.5,315.1,349.7,315.1,349.8,315.1L349.8,315.1z"/>
				</g>
			</g>
			<g>
				<g>
					<path fill="#FFFFFF" d="M486.6,401.5l-103.2,10.5l-33.1-96.4L486.6,401.5z M383.2,412.8C383.2,412.8,383.2,412.8,383.2,412.8
						l104.6-10.7c0.2,0,0.3-0.1,0.4-0.3c0-0.1,0-0.3-0.2-0.4l-138.1-87c-0.1-0.1-0.3-0.1-0.5,0c-0.1,0.1-0.2,0.2-0.2,0.4l33.5,97.7
						C382.8,412.7,383,412.8,383.2,412.8L383.2,412.8z"/>
				</g>
			</g>
			<g>
				<g>
					<path fill="#FFFFFF" d="M467.1,263.6L487.2,401l-136.8-86.2L467.1,263.6z M487.7,402.1c0.1,0,0.1,0,0.2-0.1
						c0.1-0.1,0.2-0.2,0.2-0.4L467.8,263c0-0.1-0.1-0.2-0.2-0.3c-0.1-0.1-0.3-0.1-0.4,0l-117.8,51.7c-0.1,0.1-0.2,0.2-0.2,0.3
						c0,0.1,0.1,0.3,0.2,0.3l138.1,87C487.6,402.1,487.7,402.1,487.7,402.1L487.7,402.1z"/>
				</g>
			</g>
			<g>
				<g>
					<path fill="#FFFFFF" d="M387,430.3l-72.2,47.8l68.2-64.9L387,430.3z M311.3,481.2c0.1,0,0.2,0,0.3-0.1l76.1-50.4
						c0.1-0.1,0.2-0.2,0.2-0.4l-4.2-18c0-0.1-0.2-0.2-0.3-0.3c-0.1,0-0.3,0-0.4,0.1L311,480.6c-0.1,0.1-0.1,0.3,0,0.5c0,0,0,0,0,0
						C311.1,481.2,311.2,481.2,311.3,481.2z"/>
				</g>
			</g>
			<g>
				<g>
					<path fill="#FFFFFF" d="M434.4,462.1l-121.5,18.1l74.5-49.3L434.4,462.1z M311.4,481.2l124.1-18.5c0.2,0,0.3-0.1,0.3-0.3
						c0-0.1,0-0.3-0.2-0.4l-48-31.9c-0.2-0.1-0.3-0.1-0.5,0l-76.1,50.4c-0.2,0.1-0.2,0.3-0.1,0.4C311,481.2,311.2,481.3,311.4,481.2
						L311.4,481.2z"/>
				</g>
			</g>
			<g>
				<g>
					<path fill="#FFFFFF" d="M435,462.8L427.9,576l-115.7-94.9L435,462.8z M428.4,577.1c0.1,0,0.2-0.2,0.3-0.3l7.2-114.4
						c0-0.1,0-0.2-0.1-0.3c-0.1-0.1-0.2-0.1-0.3-0.1l-124.1,18.5c-0.1,0-0.3,0.1-0.3,0.3c0,0.1,0,0.3,0.1,0.4L428,577
						C428.1,577.1,428.3,577.2,428.4,577.1L428.4,577.1z"/>
				</g>
			</g>
			<g>
				<g>
					<path fill="#FFFFFF" d="M288.1,518.9l-92.2,0.3l114.5-37.7L288.1,518.9z M193.6,519.9l94.8-0.3c0.1,0,0.3-0.1,0.4-0.2l23-38.4
						c0.1-0.1,0.1-0.3-0.1-0.4c-0.1-0.1-0.3-0.2-0.5-0.1l-117.7,38.7c-0.2,0.1-0.3,0.2-0.3,0.4C193.2,519.8,193.4,519.9,193.6,519.9
						L193.6,519.9z"/>
				</g>
			</g>
			<g>
				<g>
					<path fill="#FFFFFF" d="M311.4,481.5l114.6,94l-137.1-56.4L311.4,481.5z M428.3,577.1c0.1,0,0.3-0.1,0.3-0.2
						c0.1-0.1,0.1-0.4-0.1-0.5c0,0,0,0,0,0l-116.9-95.9c-0.1-0.1-0.2-0.1-0.4-0.1c-0.1,0-0.2,0.1-0.3,0.2l-23,38.4
						c-0.1,0.1-0.1,0.2,0,0.3c0,0.1,0.1,0.2,0.2,0.2l139.9,57.5C428.1,577.1,428.2,577.1,428.3,577.1z"/>
				</g>
			</g>
			<g>
				<g>
					<path fill="#FFFFFF" d="M372.3,238.2c-0.1,0-0.3-0.1-0.3-0.2c-0.1-0.2-0.1-0.4,0.1-0.5l95.1-56.1c0.2-0.1,0.4-0.1,0.6,0.1
						c0.1,0.2,0.1,0.4-0.1,0.5l-95.1,56.1C372.4,238.2,372.4,238.2,372.3,238.2L372.3,238.2z"/>
				</g>
			</g>
			<g>
				<g>
					<path fill="#FFFFFF" d="M466.9,182.4l0.1,80.2l-93.8-24.9L466.9,182.4z M467.4,263.5c0.1,0,0.2,0,0.2-0.1
						c0.1-0.1,0.2-0.2,0.2-0.3l-0.1-81.3c0-0.1-0.1-0.3-0.2-0.3c-0.1-0.1-0.3-0.1-0.4,0l-95.1,56.1c-0.1,0.1-0.2,0.2-0.2,0.4
						c0,0.1,0.1,0.3,0.3,0.3l95.1,25.3C467.3,263.5,467.4,263.5,467.4,263.5L467.4,263.5z"/>
				</g>
			</g>
			<g>
				<g>
					<path fill="#FFFFFF" d="M560.9,225.7l-93.1,36.8l-0.1-80.2L560.9,225.7z M467.4,263.5c0.1,0,0.1,0,0.2,0l94.4-37.4
						c0.1,0,0.2-0.2,0.2-0.3c0-0.1-0.1-0.3-0.2-0.3l-94.5-44c-0.1-0.1-0.3-0.1-0.4,0c-0.1,0.1-0.2,0.2-0.2,0.3l0.1,81.3
						c0,0.1,0.1,0.2,0.2,0.3C467.3,263.4,467.3,263.5,467.4,263.5L467.4,263.5z"/>
				</g>
			</g>
			<g>
				<g>
					<path fill="#FFFFFF" d="M516.7,61.9L561.2,225l-93.4-43.5L516.7,61.9z M561.8,226.1c0.1,0,0.2,0,0.3-0.1
						c0.1-0.1,0.2-0.2,0.1-0.4L517.2,60.6c0-0.2-0.2-0.3-0.4-0.3c-0.2,0-0.3,0.1-0.4,0.2L467,181.6c-0.1,0.2,0,0.4,0.2,0.4l94.5,44
						C561.7,226.1,561.8,226.1,561.8,226.1L561.8,226.1z"/>
				</g>
			</g>
		</g>
		<g display="inline">
			<g>
				<g>
					<path fill="#FFFFFF" d="M463.6,450.6c-2.7,0-4.9,1.9-4.9,4.3c0,2.4,2.1,4.3,4.8,4.3c2.7,0,4.9-1.9,4.9-4.3
						C468.5,452.6,466.3,450.7,463.6,450.6L463.6,450.6z"/>
				</g>
				<g>
					<path fill="#FFFFFF" d="M463.6,449.2c3.6,0,6.5,2.6,6.5,5.8c0,3.2-2.9,5.7-6.5,5.7c-3.6,0-6.5-2.6-6.5-5.8
						C457.1,451.7,460.1,449.2,463.6,449.2z M463.6,450.6c-2.7,0-4.9,1.9-4.9,4.3c0,2.4,2.1,4.3,4.8,4.3c2.7,0,4.9-1.9,4.9-4.3
						C468.5,452.6,466.3,450.7,463.6,450.6L463.6,450.6z"/>
				</g>
			</g>
			<g>
				<g>
					<path fill="#FFFFFF" d="M349.7,312.7c-1.3,0-2.4,0.9-2.4,2.1s1,2.1,2.3,2.1c1.3,0,2.4-0.9,2.4-2.1
						C352,313.6,351,312.7,349.7,312.7L349.7,312.7z"/>
				</g>
				<g>
					<path fill="#FFFFFF" d="M353.6,314.8c0,1.9-1.8,3.5-4,3.5c-2.2,0-4-1.6-4-3.5c0-1.9,1.8-3.5,4-3.5
						C351.9,311.2,353.7,312.8,353.6,314.8L353.6,314.8z M347.3,314.7c0,1.1,1,2.1,2.3,2.1c1.3,0,2.4-0.9,2.4-2.1
						c0-1.1-1-2.1-2.3-2.1L347.3,314.7z"/>
				</g>
			</g>
			<g>
				<g>
					<path fill="#FFFFFF" d="M487.8,397c-3,0-5.4,2.1-5.4,4.7c0,2.6,2.4,4.7,5.3,4.8c3,0,5.4-2.1,5.4-4.7
						C493.1,399.2,490.7,397,487.8,397L487.8,397z"/>
				</g>
				<g>
					<path fill="#FFFFFF" d="M487.8,395.6c3.9,0,7,2.8,7,6.2c0,3.4-3.2,6.2-7,6.2c-3.9,0-7-2.8-7-6.2
						C480.8,398.3,483.9,395.6,487.8,395.6z M487.8,397c-3,0-5.4,2.1-5.4,4.7c0,2.6,2.4,4.7,5.3,4.8c3,0,5.4-2.1,5.4-4.7
						C493.1,399.2,490.7,397,487.8,397z"/>
				</g>
			</g>
			<g>
				<g>
					<path fill="#FFFFFF" d="M383.2,414.8c1.5,0,2.7-1,2.7-2.3c0-1.3-1.2-2.4-2.7-2.4c-1.5,0-2.7,1-2.7,2.3
						C380.5,413.7,381.7,414.8,383.2,414.8L383.2,414.8z"/>
				</g>
				<g>
					<path fill="#FFFFFF" d="M387.5,412.5c0,2.1-2,3.8-4.3,3.8c-2.4,0-4.3-1.7-4.3-3.8c0-2.1,2-3.8,4.3-3.8
						C385.6,408.6,387.5,410.4,387.5,412.5L387.5,412.5z M380.5,412.4c0,1.3,1.2,2.4,2.7,2.4c1.5,0,2.7-1,2.7-2.4
						c0-1.3-1.2-2.4-2.7-2.4L380.5,412.4z"/>
				</g>
			</g>
			<g>
				<g>
					<path fill="#FFFFFF" d="M387.4,427.8c-1.7,0-3,1.2-3,2.7c0,1.5,1.3,2.7,3,2.7s3-1.2,3-2.7C390.4,429,389.1,427.8,387.4,427.8z"
						/>
				</g>
				<g>
					<path fill="#FFFFFF" d="M392.1,430.5c0,2.3-2.1,4.1-4.7,4.1c-2.6,0-4.7-1.9-4.6-4.1c0-2.3,2.1-4.1,4.7-4.1
						C390,426.4,392.1,428.2,392.1,430.5L392.1,430.5z M387.4,427.8c-1.7,0-3,1.2-3,2.7c0,1.5,1.3,2.7,3,2.7s3-1.2,3-2.7
						C390.4,429,389.1,427.8,387.4,427.8L387.4,427.8z"/>
				</g>
			</g>
			<g>
				<g>
					<path fill="#FFFFFF" d="M435.4,460.3c-1.3,0-2.4,0.9-2.4,2.1c0,1.2,1,2.1,2.4,2.1c1.3,0,2.4-0.9,2.4-2.1
						C437.8,461.2,436.7,460.3,435.4,460.3L435.4,460.3z"/>
				</g>
				<g>
					<path fill="#FFFFFF" d="M435.4,458.8c2.2,0,4,1.6,4,3.6c0,2-1.8,3.5-4,3.5c-2.2,0-4-1.6-4-3.6
						C431.4,460.4,433.2,458.8,435.4,458.8L435.4,458.8z M435.4,460.3c-1.3,0-2.4,0.9-2.4,2.1c0,1.2,1,2.1,2.4,2.1
						c1.3,0,2.4-0.9,2.4-2.1C437.8,461.2,436.7,460.3,435.4,460.3L435.4,460.3z"/>
				</g>
			</g>
			<g>
				<g>
					<path fill="#FFFFFF" d="M311.3,478.1c-1.7,0-3.1,1.2-3.1,2.7s1.4,2.7,3.1,2.8c1.7,0,3.1-1.2,3.1-2.7
						C314.4,479.4,313.1,478.1,311.3,478.1z"/>
				</g>
				<g>
					<path fill="#FFFFFF" d="M316.1,480.9c0,2.3-2.2,4.2-4.8,4.2c-2.6,0-4.7-1.9-4.7-4.2c0-2.3,2.2-4.2,4.8-4.2
						C314,476.7,316.1,478.6,316.1,480.9z M308.2,480.9c0,1.5,1.4,2.7,3.1,2.8c1.7,0,3.1-1.2,3.1-2.7c0-1.5-1.4-2.7-3.1-2.8
						L308.2,480.9z"/>
				</g>
			</g>
			<g>
				<g>
					<path fill="#FFFFFF" d="M372.3,234.6c-2.1,0-3.7,1.5-3.7,3.3c0,1.8,1.6,3.3,3.7,3.3c2.1,0,3.7-1.5,3.7-3.3
						C376,236,374.4,234.6,372.3,234.6z"/>
				</g>
				<g>
					<path fill="#FFFFFF" d="M372.3,233.1c3,0,5.4,2.1,5.3,4.8c0,2.6-2.4,4.7-5.4,4.7c-3,0-5.4-2.1-5.3-4.8
						C366.9,235.2,369.4,233.1,372.3,233.1L372.3,233.1z M368.6,237.8c0,1.8,1.6,3.3,3.7,3.3c2.1,0,3.7-1.5,3.7-3.3
						c0-1.8-1.6-3.3-3.7-3.3L368.6,237.8z"/>
				</g>
			</g>
			<g>
				<g>
					<path fill="#FFFFFF" d="M467.4,260.7c-1.5,0-2.8,1.1-2.8,2.4c0,1.3,1.2,2.4,2.8,2.4c1.5,0,2.8-1.1,2.8-2.4
						C470.2,261.8,469,260.7,467.4,260.7L467.4,260.7z"/>
				</g>
				<g>
					<path fill="#FFFFFF" d="M471.8,263.1c0,2.1-2,3.9-4.4,3.9c-2.4,0-4.4-1.8-4.4-3.9c0-2.1,2-3.9,4.4-3.9
						C469.9,259.2,471.8,261,471.8,263.1z M464.7,263.1c0,1.3,1.2,2.4,2.8,2.4c1.5,0,2.8-1.1,2.8-2.4c0-1.3-1.2-2.4-2.7-2.5
						L464.7,263.1z"/>
				</g>
			</g>
			<g>
				<g>
					<path fill="#FFFFFF" d="M467.3,187c3.3,0,6-2.3,6-5.2c0-2.9-2.6-5.3-5.9-5.3c-3.3,0-6,2.3-6,5.2C461.4,184.6,464,187,467.3,187
						L467.3,187z"/>
				</g>
				<g>
					<path fill="#FFFFFF" d="M475,181.8c0,3.7-3.4,6.7-7.6,6.7c-4.2,0-7.6-3-7.6-6.7c0-3.7,3.4-6.7,7.6-6.7
						C471.6,175.1,475,178.1,475,181.8L475,181.8z M467.4,176.5c-3.3,0-6,2.3-6,5.2c0,2.9,2.6,5.3,5.9,5.3c3.3,0,6-2.3,6-5.2
						C473.3,178.9,470.7,176.5,467.4,176.5L467.4,176.5z"/>
				</g>
			</g>
		</g>
	</g>
</g>
</svg>
