<svg xmlns="http://www.w3.org/2000/svg" viewBox="0 0 281 338">
	<defs>
		<linearGradient id="u7wpb" x1="89.31" x2="194.17" y1="157.11" y2="157.11" gradientUnits="userSpaceOnUse">
			<stop offset="0" stop-color="#e34d6f"/>
			<stop offset="1" stop-color="#e9c54c"/>
		</linearGradient>
	</defs>
	<g>
		<g>
			<path fill="#e6895d" d="M238.263 119.917l16.357 175.095-21.582-21.582-16.6 16.6 23.702 23.703H40.91l23.703-23.702-16.6-16.601-21.583 21.582 16.357-175.095zM94.669 70.547c0-25.955 21.115-47.07 47.07-47.07 25.954 0 47.069 21.115 47.069 47.07v25.892H94.669zM260.183 96.44h-47.897V70.546C212.285 31.647 180.638 0 141.738 0c-38.9 0-70.546 31.647-70.546 70.546V96.44H20.867L0 337.21h281.05z"/>
		</g>
		<g>
			<path fill="url(#u7wpb)" d="M141.738 180.591c15.966 0 28.955 12.99 28.955 28.955 0 15.966-12.989 28.955-28.955 28.955-15.966 0-28.955-12.989-28.955-28.955 0-15.966 12.99-28.955 28.955-28.955zm0 81.388c28.912 0 52.433-23.521 52.433-52.433 0-28.91-23.521-52.432-52.433-52.432-28.91 0-52.432 23.521-52.432 52.432 0 28.912 23.521 52.433 52.432 52.433z"/>
		</g>
	</g>
</svg>