<svg xmlns="http://www.w3.org/2000/svg" xmlns:xlink="http://www.w3.org/1999/xlink" x="0px" y="0px"
	 viewBox="0 167 1163 468" enable-background="new 0 167 1163 468" xml:space="preserve">
<g>
	<g>
		
			<linearGradient id="SVGID_1_" gradientUnits="userSpaceOnUse" x1="0" y1="369" x2="1163" y2="369" gradientTransform="matrix(1 0 0 -1 0 770)">
			<stop  offset="0" style="stop-color:#E34D6F"/>
			<stop  offset="1" style="stop-color:#E9C54C"/>
		</linearGradient>
		<path fill="url(#SVGID_1_)" d="M0,635V167h1163v468H0z"/>
	</g>
	<g>
		<path fill="#62514B" d="M0,635V167h1163v468H0z"/>
	</g>
	<g>
		<g>
			<g>
				<g>
					<path fill="#FFFFFF" d="M1161.2,354.7l-95.8-5.6l77.4-46.9l18.6,14.5l0-1l-18.3-14.3c-0.1-0.1-0.3-0.1-0.5,0l-78.8,47.8
						c-0.2,0.1-0.2,0.3-0.2,0.5c0,0.2,0.2,0.3,0.4,0.3l97.1,5.7L1161.2,354.7z"/>
				</g>
			</g>
			<g>
				<g>
					<path fill="#FFFFFF" d="M1160.2,547.6l-49.7,28.5l-37.5-10l87.3-33.4l0-0.9l-88.8,34c-0.2,0.1-0.3,0.2-0.3,0.4
						c0,0.2,0.1,0.3,0.3,0.4l38.9,10.4c0.1,0,0.2,0,0.3,0l49.4-28.4L1160.2,547.6z"/>
				</g>
			</g>
			<g>
				<g>
					<path fill="#FFFFFF" d="M839.7,455.7l-96,31.1l-4-19.5L839.7,455.7z M743.4,487.7c0,0,0.1,0,0.1,0l100.3-32.5
						c0.2-0.1,0.3-0.3,0.3-0.5c0-0.2-0.2-0.4-0.4-0.3l-104.6,12.1c-0.2,0-0.4,0.2-0.4,0.5c0,0,0,0,0,0l4.2,20.4
						C743,487.6,743.2,487.7,743.4,487.7L743.4,487.7z"/>
				</g>
			</g>
			<g>
				<g>
					<path fill="#FFFFFF" d="M931.7,382.8l85,141l-172.2-69.1L931.7,382.8z M1017.7,525c0.2,0,0.4-0.2,0.4-0.4c0-0.1,0-0.1-0.1-0.2
						L932.2,382c-0.1-0.1-0.2-0.2-0.3-0.2c-0.1,0-0.2,0-0.3,0.1l-88.1,72.6c-0.2,0.1-0.2,0.4-0.1,0.6c0,0.1,0.1,0.1,0.2,0.1
						l174,69.9C1017.6,525,1017.7,525,1017.7,525L1017.7,525z"/>
				</g>
			</g>
			<g>
				<g>
					<path fill="#FFFFFF" d="M1003.6,350.5l13.5,172.4l-84.8-140.6L1003.6,350.5z M1017.7,525c0.2,0,0.4-0.2,0.4-0.4c0,0,0,0,0,0
						l-13.7-174.7c0-0.2-0.2-0.4-0.4-0.4c0,0-0.1,0-0.1,0l-72.2,32.3c-0.2,0.1-0.3,0.3-0.2,0.5c0,0,0,0,0,0l85.9,142.4
						C1017.4,525,1017.6,525,1017.7,525L1017.7,525z"/>
				</g>
			</g>
			<g>
				<g>
					<path fill="#FFFFFF" d="M1063.6,349.8l-45.6,172.4l-13.5-171.9L1063.6,349.8z M1018.1,524.7l46.4-175.2c0-0.1,0-0.3-0.1-0.4
						c-0.1-0.1-0.2-0.1-0.3-0.2l-60.1,0.5c-0.1,0-0.2,0-0.3,0.1c-0.1,0.1-0.1,0.2-0.1,0.3l13.7,174.7c0,0.2,0.2,0.4,0.4,0.4l0,0
						C1017.9,525.1,1018.1,524.9,1018.1,524.7L1018.1,524.7z"/>
				</g>
			</g>
			<g>
				<g>
					<path fill="#FFFFFF" d="M1160.3,531.7l-88.6,33.9l-52.9-40.7l141.6-15.2l0-0.8l-142.7,15.3c-0.2,0-0.3,0.1-0.4,0.3
						c0,0.2,0,0.3,0.1,0.4l53.9,41.5c0.1,0.1,0.3,0.1,0.4,0.1l88.5-33.9L1160.3,531.7z"/>
				</g>
			</g>
			<g>
				<g>
					<path fill="#FFFFFF" d="M1063.7,349l-58.7,0.5l58.4-55.9L1063.7,349z M1004,350.3l60.1-0.5c0.2,0,0.4-0.2,0.4-0.4c0,0,0,0,0,0
						l-0.3-56.7c0.2-0.2,0.2-0.4,0-0.6c-0.2-0.2-0.4-0.2-0.6,0c-0.1,0.1-0.1,0.2-0.1,0.3l-59.8,57.2c-0.2,0.2-0.2,0.4,0,0.6
						C1003.8,350.3,1003.9,350.3,1004,350.3L1004,350.3z"/>
				</g>
			</g>
			<g>
				<g>
					<path fill="#FFFFFF" d="M1161.8,244.8l-97.5,47.2L1064,31.5l98.2,128.7l0-1.3L1063.9,30c-0.1-0.1-0.3-0.2-0.5-0.1
						c-0.2,0.1-0.3,0.2-0.3,0.4l0.3,262.4c0,0.2,0.2,0.4,0.4,0.4c0.1,0,0.1,0,0.2,0l97.7-47.3L1161.8,244.8z"/>
				</g>
			</g>
			<g>
				<g>
					<path fill="#FFFFFF" d="M1141.6,301.9l-77.1,46.7l-0.2-55.5L1141.6,301.9z M1064.1,349.8c0.1,0,0.2,0,0.2-0.1l78.8-47.8
						c0.2-0.1,0.3-0.4,0.1-0.6c-0.1-0.1-0.2-0.2-0.3-0.2l-79-9c-0.1,0-0.2,0-0.3,0.1c-0.1,0.1-0.1,0.2-0.1,0.3l0.3,56.7
						C1063.7,349.6,1063.9,349.8,1064.1,349.8C1064.1,349.8,1064.1,349.8,1064.1,349.8L1064.1,349.8z"/>
				</g>
			</g>
			<g>
				<g>
					<path fill="#FFFFFF" d="M1161.6,278.7l-18.9,22.5l-77.4-8.8l96.5-46.7l0-0.9l-98.1,47.5c-0.2,0.1-0.3,0.3-0.2,0.6
						c0.1,0.1,0.2,0.2,0.3,0.2l79,9l0,0c0.1,0,0.2-0.1,0.3-0.1l18.4-21.9L1161.6,278.7z"/>
				</g>
			</g>
			<g>
				<g>
					<path fill="#FFFFFF" d="M1161.4,310.4l-17.9-8.9l18.1-21.5l0-1.3l-19.1,22.7c-0.1,0.2-0.1,0.4,0.1,0.6c0,0,0.1,0,0.1,0.1
						l18.8,9.3L1161.4,310.4z"/>
				</g>
			</g>
			<g>
				<g>
					<path fill="#FFFFFF" d="M1161.4,315.6l-15.1-11.7l15.1,7.5l0-0.9l-18.4-9.2c-0.2-0.1-0.5,0-0.6,0.2c-0.1,0.2,0,0.4,0.1,0.5
						l18.8,14.6L1161.4,315.6z"/>
				</g>
			</g>
			<g>
				<g>
					<path fill="#FFFFFF" d="M818.3,515l-26.8,8l-45.6-34.4L818.3,515z M791.5,523.9l28.2-8.4c0.2-0.1,0.3-0.3,0.3-0.5
						c0-0.1-0.1-0.2-0.3-0.3l-76.2-27.7c-0.2-0.1-0.4,0-0.5,0.3c-0.1,0.2,0,0.4,0.1,0.5l48,36.2
						C791.3,523.9,791.4,523.9,791.5,523.9L791.5,523.9z"/>
				</g>
			</g>
			<g>
				<g>
					<path fill="#FFFFFF" d="M843,455.5l-23.7,59.1l-74.7-27.2L843,455.5z M819.6,515.5c0.2,0,0.3-0.1,0.4-0.3l24.1-60.3
						c0.1-0.1,0-0.3-0.1-0.4c-0.1-0.1-0.3-0.2-0.4-0.1l-100.3,32.5c-0.2,0.1-0.3,0.3-0.3,0.5c0,0.1,0.1,0.2,0.2,0.3l76.2,27.7
						C819.5,515.5,819.6,515.5,819.6,515.5z"/>
				</g>
			</g>
			<g>
				<g>
					<path fill="#FFFFFF" d="M819,515.7L784.9,649l6.9-125.3L819,515.7z M784.7,653.3L820,515.2c0.2-0.1,0.3-0.3,0.3-0.5
						c-0.1-0.2-0.3-0.3-0.5-0.3c-0.1,0-0.2,0.1-0.3,0.3l-28.2,8.4c-0.2,0.1-0.3,0.2-0.3,0.4l-7.2,129.7c0,0.2,0.2,0.4,0.4,0.4
						C784.4,653.6,784.6,653.5,784.7,653.3L784.7,653.3z"/>
				</g>
			</g>
			<g>
				<g>
					<path fill="#FFFFFF" d="M844,455.3l171.3,68.8l-195.1-9.4L844,455.3z M1017.7,525c0.2,0,0.4-0.2,0.4-0.4c0-0.2-0.1-0.3-0.3-0.4
						l-174-69.9c-0.2-0.1-0.4,0-0.5,0.2c0,0,0,0,0,0l-24.1,60.3c-0.1,0.2,0,0.5,0.2,0.5c0,0,0.1,0,0.1,0L1017.7,525L1017.7,525
						L1017.7,525z"/>
				</g>
			</g>
			<g>
				<g>
					<path fill="#FFFFFF" d="M931.2,382.2L844.1,454L824,298.5L931.2,382.2z M844,455.1l88.1-72.6c0.2-0.1,0.2-0.4,0.1-0.6
						c0,0,0,0-0.1-0.1l-108.4-84.6c0-0.2-0.2-0.4-0.5-0.4c-0.2,0-0.4,0.2-0.4,0.5c0,0.1,0.1,0.2,0.2,0.3l20.3,157.2
						c0,0.2,0.2,0.4,0.5,0.4C843.9,455.2,843.9,455.2,844,455.1L844,455.1z"/>
				</g>
			</g>
			<g>
				<g>
					<path fill="#FFFFFF" d="M917.5,255.8l13.8,125.5l-107.1-83.6L917.5,255.8z M931.8,382.6c0.2,0,0.4-0.2,0.4-0.4c0,0,0,0,0,0
						l-14-127c0-0.2-0.2-0.4-0.5-0.4c0,0-0.1,0-0.1,0l-94.4,42.4c-0.2,0.1-0.3,0.3-0.2,0.5c0,0.1,0.1,0.1,0.1,0.2l108.4,84.6
						C931.6,382.6,931.7,382.6,931.8,382.6L931.8,382.6z"/>
				</g>
			</g>
			<g>
				<g>
					<path fill="#FFFFFF" d="M1062.7,30.9L918,254.2L873.3,68.4L1062.7,30.9z M917.8,255.6c0.1,0,0.3-0.1,0.3-0.2l145.7-224.9
						c0.2,0,0.4-0.3,0.3-0.5c0-0.2-0.3-0.4-0.5-0.3c-0.1,0-0.2,0.1-0.3,0.2L872.7,67.7c-0.2,0-0.4,0.3-0.3,0.5c0,0,0,0,0,0
						l45.1,187.1C917.5,255.5,917.7,255.6,917.8,255.6L917.8,255.6z"/>
				</g>
			</g>
			<g>
				<g>
					<path fill="#FFFFFF" d="M1003.3,349.8l-71.1,31.8l-13.8-125.2L1003.3,349.8z M931.8,382.6c0.1,0,0.1,0,0.2,0l72.2-32.3
						c0.2-0.1,0.3-0.3,0.2-0.5c0,0,0-0.1-0.1-0.1l-86.1-94.7c-0.2-0.2-0.4-0.2-0.6,0c-0.1,0.1-0.1,0.2-0.1,0.3l14,127
						c0,0.1,0.1,0.2,0.2,0.3C931.7,382.6,931.7,382.6,931.8,382.6z"/>
				</g>
			</g>
			<g>
				<g>
					<path fill="#FFFFFF" d="M1063,292.9l-59,56.4l-84.9-93.4L1063,292.9z M1004,350.3c0.1,0,0.2,0,0.3-0.1l59.8-57.2
						c0.2-0.2,0.2-0.4,0-0.6c-0.1-0.1-0.1-0.1-0.2-0.1l-146-37.5c-0.2-0.1-0.4,0.1-0.5,0.3c0,0.1,0,0.3,0.1,0.4l86.1,94.7
						C1003.8,350.3,1003.9,350.3,1004,350.3L1004,350.3z"/>
				</g>
			</g>
			<g>
				<g>
					<path fill="#FFFFFF" d="M1063.1,31.7l0.3,260.5L918.5,255L1063.1,31.7z M1064.1,293c0.1-0.1,0.2-0.2,0.2-0.3L1064,30.3
						c0-0.2-0.2-0.4-0.4-0.4c-0.1,0-0.3,0.1-0.3,0.2L917.5,255c-0.1,0.2-0.1,0.4,0.1,0.6c0,0,0.1,0,0.1,0.1l146,37.5
						C1063.9,293.1,1064,293.1,1064.1,293L1064.1,293z"/>
				</g>
			</g>
			<g>
				<g>
					<path fill="#FFFFFF" d="M968.5,618.4l-183.7,34.3l35-137L968.5,618.4z M784.3,653.6C784.3,653.6,784.3,653.6,784.3,653.6
						l185.4-34.6c0.2,0,0.4-0.3,0.3-0.5c0-0.1-0.1-0.2-0.2-0.3l-150-103.6c-0.1-0.1-0.3-0.1-0.4,0c-0.1,0-0.2,0.2-0.3,0.3
						l-35.4,138.2C783.8,653.3,783.9,653.6,784.3,653.6C784.2,653.6,784.2,653.6,784.3,653.6L784.3,653.6z"/>
				</g>
			</g>
			<g>
				<g>
					<path fill="#FFFFFF" d="M968.5,619.3l-74.7,86.6l-108.2-52.5L968.5,619.3z M893.9,706.8c0.1,0,0.2-0.1,0.3-0.1l75.7-87.8
						c0.1-0.1,0.1-0.3,0-0.5c-0.1-0.2-0.3-0.2-0.4-0.2l-185.3,34.6c-0.2,0-0.3,0.2-0.3,0.3c0,0.2,0.1,0.3,0.2,0.4l109.6,53.2
						C893.8,706.8,893.8,706.8,893.9,706.8L893.9,706.8z"/>
				</g>
			</g>
			<g>
				<g>
					<path fill="#FFFFFF" d="M1017.1,525l-47.6,93L821,515.5L1017.1,525z M969.7,619.1c0.1,0,0.2-0.1,0.3-0.2l48.1-94
						c0.1-0.2,0-0.4-0.2-0.6c-0.1,0-0.1,0-0.2,0l-198.1-9.6c-0.2,0-0.3,0.1-0.4,0.3c-0.1,0.2,0,0.4,0.2,0.5l150,103.6
						C969.5,619.1,969.6,619.1,969.7,619.1L969.7,619.1z"/>
				</g>
			</g>
			<g>
				<g>
					<path fill="#FFFFFF" d="M968.8,620.2l-23.9,103.9l-50.3-17.9L968.8,620.2z M945.2,725c0.2,0,0.4-0.1,0.4-0.3l24.4-106
						c0-0.2-0.1-0.4-0.3-0.5c-0.1,0-0.3,0-0.4,0.1l-75.7,87.8c-0.1,0.2-0.1,0.4,0,0.6c0,0,0.1,0.1,0.1,0.1l51.3,18.2
						C945.1,725,945.2,725,945.2,725L945.2,725z"/>
				</g>
			</g>
			<g>
				<g>
					<path fill="#FFFFFF" d="M1067.3,713.5l-121.5,10.7l24.1-104.7L1067.3,713.5z M945.3,725l123-10.8c0.2,0,0.4-0.2,0.4-0.4
						c0-0.1-0.1-0.2-0.1-0.3l-98.6-95.2c0.1-0.2-0.1-0.4-0.3-0.5c-0.2-0.1-0.4,0.1-0.5,0.3c0,0.1,0,0.3,0.1,0.4l-24.4,106
						c-0.1,0.2,0.1,0.4,0.3,0.5C945.2,725,945.2,725,945.3,725L945.3,725z"/>
				</g>
			</g>
			<g>
				<g>
					<path fill="#FFFFFF" d="M1070.9,566.1l-100.3,51.6l47.3-92.4L1070.9,566.1z M969.8,619l102.1-52.5c0.2-0.1,0.3-0.4,0.2-0.6
						c0-0.1-0.1-0.1-0.1-0.1l-53.9-41.5c-0.2-0.1-0.4-0.1-0.6,0.1c0,0,0,0,0,0.1l-48.1,94c-0.1,0.2,0,0.4,0.2,0.6c0.1,0,0.1,0,0.2,0
						C969.7,619.1,969.7,619.1,969.8,619L969.8,619z"/>
				</g>
			</g>
			<g>
				<g>
					<path fill="#FFFFFF" d="M1110,577.1l-42,135.9l-97.6-94.2L1110,577.1z M1068.3,714.2c0.1,0,0.2-0.1,0.3-0.3l42.4-137.3
						c0.1-0.2-0.1-0.4-0.3-0.5c-0.1,0-0.2,0-0.2,0l-141,42.1c-0.2,0.1-0.3,0.3-0.3,0.5c0,0.1,0.1,0.1,0.1,0.2l98.6,95.2
						C1068,714.2,1068.2,714.3,1068.3,714.2L1068.3,714.2z"/>
				</g>
			</g>
			<g>
				<g>
					<path fill="#FFFFFF" d="M1109.1,576.5L973.7,617l98-50.4L1109.1,576.5z M969.6,619.1c0,0,0.1,0,0.1,0l141-42.1
						c0.2-0.1,0.3-0.3,0.3-0.5c0-0.1-0.1-0.2-0.3-0.3l-38.9-10.4c-0.1,0-0.2,0-0.3,0l-102.1,52.5c-0.2,0.1-0.3,0.3-0.2,0.5
						C969.3,619,969.4,619.1,969.6,619.1L969.6,619.1z"/>
				</g>
			</g>
			<g>
				<g>
					<path fill="#FFFFFF" d="M501,645.3l-138,24.9l114.4-67L501,645.3z M360.8,671.5C360.8,671.5,360.8,671.5,360.8,671.5l141-25.4
						c0.2,0,0.4-0.3,0.3-0.5c0,0,0-0.1,0-0.1l-24.1-43c-0.1-0.2-0.4-0.3-0.6-0.2c0,0,0,0,0,0l-116.8,68.4c-0.2,0.1-0.3,0.4-0.1,0.6
						C360.5,671.4,360.6,671.5,360.8,671.5z"/>
				</g>
			</g>
			<g>
				<g>
					<path fill="#FFFFFF" d="M548.5,589l-46.8,55.9l-23.6-42L548.5,589z M501.7,646.1c0.1,0,0.2-0.1,0.3-0.1l47.9-57.3
						c0.1-0.1,0.1-0.3,0-0.5c-0.1-0.1-0.3-0.2-0.4-0.2l-72.1,14.3c-0.2,0-0.4,0.3-0.3,0.5c0,0,0,0.1,0,0.1l24.1,43
						C501.4,646,501.5,646,501.7,646.1L501.7,646.1L501.7,646.1z"/>
				</g>
			</g>
			<g>
				<g>
					<path fill="#FFFFFF" d="M705.6,356.6c-0.2,0-0.4-0.2-0.4-0.4c0,0,0-0.1,0-0.1l22.6-87.2c0.1-0.2,0.3-0.3,0.5-0.3
						c0.2,0.1,0.3,0.3,0.3,0.5L706,356.2C706,356.4,705.8,356.6,705.6,356.6z"/>
				</g>
			</g>
			<g>
				<g>
					<path fill="#FFFFFF" d="M822.3,297.7l-116,57.7l22.3-85.9L822.3,297.7z M705.6,356.6c0.1,0,0.1,0,0.2,0l117.8-58.6
						c0.2-0.1,0.3-0.3,0.2-0.6c-0.1-0.1-0.1-0.2-0.2-0.2l-95.1-28.6c-0.2-0.1-0.4,0.1-0.5,0.3c0,0,0,0,0,0L705.2,356
						c-0.1,0.2,0.1,0.4,0.3,0.5C705.6,356.5,705.6,356.6,705.6,356.6L705.6,356.6z"/>
				</g>
			</g>
			<g>
				<g>
					<path fill="#FFFFFF" d="M842.6,454.5l-103.2,12l-33.1-109.3L842.6,454.5z M739.2,467.3C739.2,467.3,739.2,467.3,739.2,467.3
						l104.6-12.1c0.2,0.1,0.4,0.1,0.6-0.1c0.1-0.2,0.1-0.4-0.1-0.6c-0.1-0.1-0.2-0.1-0.3-0.1l-138.1-98.6c-0.2-0.1-0.4-0.1-0.6,0.1
						c-0.1,0.1-0.1,0.2-0.1,0.4L738.8,467C738.8,467.2,739,467.3,739.2,467.3L739.2,467.3z"/>
				</g>
			</g>
			<g>
				<g>
					<path fill="#FFFFFF" d="M823.1,298.2l20.1,155.7l-136.8-97.7L823.1,298.2z M843.7,455.2c0.2,0,0.4-0.2,0.4-0.4c0,0,0,0,0-0.1
						l-20.3-157.2c0-0.2-0.2-0.4-0.5-0.4c0,0-0.1,0-0.1,0l-117.8,58.6c-0.1,0.1-0.2,0.2-0.2,0.3c0,0.1,0.1,0.3,0.2,0.4l138.1,98.6
						C843.6,455.2,843.7,455.2,843.7,455.2L843.7,455.2z"/>
				</g>
			</g>
			<g>
				<g>
					<path fill="#FFFFFF" d="M743,487.2l-72.2,54.2l68.2-73.6L743,487.2z M667.3,544.9c0.1,0,0.2,0,0.3-0.1l76.1-57.1
						c0.1-0.1,0.2-0.3,0.2-0.4l-4.2-20.4c0-0.2-0.1-0.3-0.3-0.3c-0.1,0-0.3,0-0.4,0.1L667,544.2c-0.2,0.2-0.1,0.4,0,0.6
						C667.1,544.9,667.2,544.9,667.3,544.9L667.3,544.9z"/>
				</g>
			</g>
			<g>
				<g>
					<path fill="#FFFFFF" d="M790.4,523.2l-121.5,20.6l74.5-55.9L790.4,523.2z M667.4,544.9l124.1-21c0.2,0.1,0.4,0.1,0.6-0.1
						c0.1-0.2,0.1-0.4-0.1-0.6c-0.1-0.1-0.2-0.1-0.3-0.1l-48-36.2c-0.1-0.1-0.3-0.1-0.5,0l-76.1,57.2c-0.2,0.1-0.2,0.4-0.1,0.6
						C667.1,544.8,667.2,544.9,667.4,544.9z"/>
				</g>
			</g>
			<g>
				<g>
					<path fill="#FFFFFF" d="M791,524l-7.1,128.3L668.2,544.7L791,524z M784.3,653.6c0.2,0,0.4-0.2,0.4-0.4l7.2-129.7
						c0-0.2-0.2-0.4-0.4-0.4c0,0-0.1,0-0.1,0l-124.1,21c-0.2,0-0.4,0.2-0.3,0.5c0,0.1,0.1,0.2,0.1,0.2L784,653.5
						C784,653.6,784.1,653.6,784.3,653.6L784.3,653.6z"/>
				</g>
			</g>
			<g>
				<g>
					<path fill="#FFFFFF" d="M1160.8,434.1l-142.4,89.6l46-173.8l96.7,40.8l0-0.9l-96.8-40.9c-0.2-0.1-0.5,0-0.5,0.2c0,0,0,0,0,0
						l-46.4,175.2c-0.1,0.2,0.1,0.4,0.3,0.5c0.1,0,0.2,0,0.3-0.1l142.9-89.9L1160.8,434.1z"/>
				</g>
			</g>
			<g>
				<g>
					<path fill="#FFFFFF" d="M1160.4,508.9l-141,15.1l141.3-89l0-1l-143.3,90.2c-0.2,0-0.4,0.2-0.4,0.4c0,0.2,0.2,0.4,0.4,0.4
						c0.1,0,0.1,0,0.2-0.1c0,0,0,0,0,0l142.7-15.3L1160.4,508.9z"/>
				</g>
			</g>
			<g>
				<g>
					<path fill="#FFFFFF" d="M1161,389.9l-94.6-40l94.7,5.6l0-0.8l-97.1-5.7c-0.2,0-0.4,0.1-0.4,0.3c0,0.2,0.1,0.4,0.2,0.5l97.1,41
						L1161,389.9z"/>
				</g>
			</g>
			<g>
				<g>
					<path fill="#FFFFFF" d="M642.2,588.4L503,644.7l46.8-55.9L642.2,588.4z M501.7,646.1c0.1,0,0.1,0,0.2,0l142.7-57.6
						c0.2-0.1,0.3-0.3,0.2-0.5c-0.1-0.2-0.2-0.3-0.4-0.3h0l-94.8,0.3c-0.1,0-0.2,0.1-0.3,0.1l-47.9,57.3c-0.1,0.1-0.1,0.4,0,0.5
						C501.4,646,501.5,646.1,501.7,646.1L501.7,646.1z"/>
				</g>
			</g>
			<g>
				<g>
					<path fill="#FFFFFF" d="M643.8,588.7l-27,149.8l-114.3-92.8L643.8,588.7z M617.1,739.7c0,0,0.1,0,0.1,0
						c0.1-0.1,0.2-0.2,0.3-0.3l27.3-151.3c0-0.2-0.1-0.4-0.3-0.5c-0.1,0-0.2,0-0.2,0l-142.7,57.6c-0.2,0.1-0.3,0.3-0.2,0.5
						c0,0.1,0.1,0.1,0.1,0.2l115.4,93.6C616.9,739.7,617,739.7,617.1,739.7z"/>
				</g>
			</g>
			<g>
				<g>
					<path fill="#FFFFFF" d="M644.1,587.6l-92.2,0.3l114.5-42.7L644.1,587.6z M549.6,588.8l94.8-0.3c0.2,0,0.3-0.1,0.4-0.2l23-43.5
						c0.1-0.2,0.1-0.3-0.1-0.5c-0.1-0.1-0.3-0.2-0.5-0.1L549.5,588c-0.2,0.1-0.3,0.3-0.2,0.5C549.3,588.7,549.4,588.8,549.6,588.8
						L549.6,588.8z"/>
				</g>
			</g>
			<g>
				<g>
					<path fill="#FFFFFF" d="M783.3,653.2l-165.7,85.3l27.1-149.9L783.3,653.2z M617.2,739.6l167.2-86.1c0.2-0.1,0.3-0.4,0.2-0.6
						c0-0.1-0.1-0.1-0.2-0.2l-139.9-65.2c-0.2-0.1-0.5,0-0.5,0.2c0,0,0,0.1,0,0.1l-27.3,151.3c0,0.2,0.1,0.4,0.3,0.5c0,0,0,0,0.1,0
						C617.1,739.7,617.2,739.7,617.2,739.6z"/>
				</g>
			</g>
			<g>
				<g>
					<path fill="#FFFFFF" d="M667.4,545.1l114.6,106.6l-137.1-63.9L667.4,545.1z M784.3,653.6c0.2,0,0.4-0.2,0.4-0.4
						c0-0.1,0-0.2-0.1-0.3L667.6,544.2c-0.2-0.2-0.4-0.1-0.6,0c0,0,0,0.1-0.1,0.1l-23,43.5c-0.1,0.1-0.1,0.2,0,0.3
						c0,0.1,0.1,0.2,0.2,0.2l139.9,65.2C784.1,653.6,784.2,653.6,784.3,653.6L784.3,653.6z"/>
				</g>
			</g>
			<g>
				<g>
					<path fill="#FFFFFF" d="M1160,594.5l-48.4-18l48.7-27.9l0-1l-49.8,28.6c-0.2,0.1-0.3,0.4-0.2,0.6c0,0.1,0.1,0.1,0.2,0.2
						l49.5,18.5L1160,594.5z"/>
				</g>
			</g>
			<g>
				<g>
					<path fill="#FFFFFF" d="M728.3,269.3c-0.2,0-0.4-0.2-0.4-0.4c0-0.1,0.1-0.3,0.2-0.3l95.1-63.6c0.2-0.1,0.4-0.1,0.6,0.1
						c0.1,0.2,0.1,0.4-0.1,0.6l-95.1,63.6C728.4,269.3,728.4,269.3,728.3,269.3L728.3,269.3z"/>
				</g>
			</g>
			<g>
				<g>
					<path fill="#FFFFFF" d="M822.9,206.1L823,297l-93.8-28.2L822.9,206.1z M823.7,297.9c0.1-0.1,0.2-0.2,0.2-0.3l-0.1-92.2
						c0-0.2-0.2-0.4-0.4-0.4c-0.1,0-0.2,0-0.2,0.1l-95.1,63.6c-0.1,0.1-0.2,0.2-0.2,0.4c0,0.2,0.1,0.3,0.3,0.3l95.1,28.6
						C823.4,298,823.6,298,823.7,297.9L823.7,297.9z"/>
				</g>
			</g>
			<g>
				<g>
					<path fill="#FFFFFF" d="M916.9,255.2l-93.1,41.8l-0.1-90.9L916.9,255.2z M823.4,298c0.1,0,0.1,0,0.2,0l94.4-42.4
						c0.1-0.1,0.2-0.2,0.2-0.4c0-0.2-0.1-0.3-0.2-0.4L823.5,205c-0.2-0.1-0.5,0-0.6,0.2c0,0.1,0,0.1,0,0.2l0.1,92.2
						C823,297.8,823.2,298,823.4,298z"/>
				</g>
			</g>
			<g>
				<g>
					<path fill="#FFFFFF" d="M872.7,69.5l44.5,184.9l-93.4-49.3L872.7,69.5z M918.1,255.5c0.1-0.1,0.2-0.3,0.1-0.4L873.2,68
						c0-0.2-0.2-0.3-0.4-0.3c-0.2,0-0.3,0.1-0.4,0.3L823,205.2c-0.1,0.2,0,0.4,0.2,0.5l94.5,49.9c0.1,0,0.1,0,0.2,0
						C917.9,255.6,918,255.6,918.1,255.5L918.1,255.5z"/>
				</g>
			</g>
			<g>
				<g>
					<path fill="#FFFFFF" d="M1159.7,651.6l-90.8,61.3l41.8-135.4l49,63.1l0-1.3l-48.9-62.9c-0.1-0.1-0.2-0.2-0.4-0.2
						c-0.2,0-0.3,0.1-0.3,0.3l-42.4,137.3c-0.1,0.2,0,0.4,0.3,0.5c0.1,0,0.3,0,0.4-0.1l91.3-61.6L1159.7,651.6z"/>
				</g>
			</g>
			<g>
				<g>
					<path fill="#FFFFFF" d="M1159.8,639.1l-48-61.7l48.2,17.9l0-0.9l-49.3-18.3c-0.2-0.1-0.4,0-0.5,0.1c-0.1,0.1-0.1,0.4,0,0.5
						l49.5,63.7L1159.8,639.1z"/>
				</g>
			</g>
		</g>
		<g>
			<g>
				<g>
					<path fill="#FFFFFF" d="M1142.9,298.5c-1.8,0-3.2,1.4-3.2,3.2s1.4,3.2,3.2,3.2s3.2-1.4,3.2-3.2S1144.6,298.5,1142.9,298.5z"/>
				</g>
				<g>
					<path fill="#FFFFFF" d="M1147.7,301.7c0,2.7-2.2,4.8-4.9,4.8c-2.7,0-4.8-2.2-4.8-4.9c0-2.7,2.2-4.8,4.8-4.8
						C1145.5,296.8,1147.7,299,1147.7,301.7L1147.7,301.7z M1139.7,301.6c0,1.8,1.4,3.2,3.2,3.2c1.8,0,3.2-1.4,3.2-3.2
						s-1.4-3.2-3.2-3.2L1139.7,301.6z"/>
				</g>
			</g>
			<g>
				<g>
					<path fill="#FFFFFF" d="M926.4,382.2c0-3,2.4-5.5,5.4-5.5c3,0,5.5,2.4,5.5,5.4c0,0,0,0.1,0,0.1c0,3-2.5,5.4-5.5,5.4
						C928.8,387.5,926.4,385.1,926.4,382.2z"/>
				</g>
				<g>
					<path fill="#FFFFFF" d="M938.9,382.2c0,3.9-3.2,7.1-7.1,7.1c-3.9,0-7.1-3.2-7.1-7.1c0-3.9,3.2-7.1,7.1-7.1
						C935.8,375.1,938.9,378.3,938.9,382.2z M926.4,382.2c0,3,2.4,5.5,5.4,5.5c3,0,5.5-2.4,5.5-5.4c0-3-2.4-5.5-5.4-5.5c0,0,0,0,0,0
						L926.4,382.2z"/>
				</g>
			</g>
			<g>
				<g>
					<path fill="#FFFFFF" d="M1006.3,349.9c0-1.3-1-2.4-2.3-2.4s-2.4,1-2.4,2.3c0,0,0,0.1,0,0.1c0,1.3,1.1,2.3,2.4,2.3
						C1005.3,352.2,1006.3,351.2,1006.3,349.9z"/>
				</g>
				<g>
					<path fill="#FFFFFF" d="M1004,345.9c2.2,0,4,1.8,4,4c0,2.2-1.8,4-4,4c-2.2,0-4-1.8-4-4C1000,347.7,1001.8,345.9,1004,345.9
						L1004,345.9z M1004,347.6c-1.3,0-2.3,1-2.3,2.3c0,1.3,1,2.3,2.3,2.3l0,0c1.3,0,2.3-1,2.3-2.3
						C1006.3,348.6,1005.3,347.6,1004,347.6z"/>
				</g>
			</g>
			<g>
				<g>
					<path fill="#FFFFFF" d="M1063.8,298.1c3,0,5.4-2.4,5.4-5.3c0-3-2.4-5.4-5.3-5.4c-3,0-5.4,2.4-5.4,5.3c0,0,0,0,0,0
						C1058.5,295.6,1060.8,298,1063.8,298.1C1063.8,298.1,1063.8,298.1,1063.8,298.1L1063.8,298.1z"/>
				</g>
				<g>
					<path fill="#FFFFFF" d="M1070.9,292.7c0,3.9-3.2,7-7.1,7c-3.9,0-7-3.2-7-7.1c0-3.9,3.2-7,7.1-7
						C1067.7,285.7,1070.9,288.8,1070.9,292.7L1070.9,292.7z M1058.5,292.7c0,3,2.4,5.4,5.3,5.4c3,0,5.4-2.4,5.4-5.3l0,0
						c0-3-2.4-5.4-5.3-5.4L1058.5,292.7z"/>
				</g>
			</g>
			<g>
				<g>
					<path fill="#FFFFFF" d="M819.6,510.2c-2.7,0-4.9,2.1-4.9,4.8c0,0,0,0,0,0c0,2.7,2.1,4.9,4.8,4.9s4.9-2.1,4.9-4.8
						C824.5,512.4,822.3,510.2,819.6,510.2C819.6,510.2,819.6,510.2,819.6,510.2L819.6,510.2z"/>
				</g>
				<g>
					<path fill="#FFFFFF" d="M819.6,508.6c3.6,0,6.5,3,6.5,6.5c0,3.6-2.9,6.5-6.5,6.5c-3.6,0-6.5-3-6.5-6.5
						C813.1,511.4,816.1,508.5,819.6,508.6L819.6,508.6z M819.6,510.2c-2.7,0-4.9,2.1-4.9,4.8c0,2.7,2.1,4.9,4.8,4.9
						c2.7,0,4.9-2.1,4.9-4.8S822.3,510.2,819.6,510.2L819.6,510.2L819.6,510.2z"/>
				</g>
			</g>
			<g>
				<g>
					<path fill="#FFFFFF" d="M969.6,615.6c-1.7,0-3,1.4-3,3.1c0,1.6,1.3,2.9,2.9,3c1.7,0,3-1.3,3-3
						C972.6,617,971.3,615.6,969.6,615.6z"/>
				</g>
				<g>
					<path fill="#FFFFFF" d="M974.3,618.7c0,2.6-2.1,4.7-4.7,4.7c-2.6,0-4.7-2.1-4.6-4.7c0-2.6,2.1-4.7,4.7-4.6
						C972.2,614,974.3,616.1,974.3,618.7L974.3,618.7z M966.6,618.6c0,1.7,1.3,3,3,3c1.7,0,3-1.3,3-3c0-1.7-1.3-3-3-3L966.6,618.6z"
						/>
				</g>
			</g>
			<g>
				<g>
					<path fill="#FFFFFF" d="M1071.7,560.3c-3.2-0.1-5.9,2.5-6,5.7c-0.1,3.2,2.5,5.9,5.7,6c0.1,0,0.1,0,0.2,0c3.2,0,5.8-2.7,5.8-5.9
						C1077.4,562.9,1074.8,560.3,1071.7,560.3L1071.7,560.3z"/>
				</g>
				<g>
					<path fill="#FFFFFF" d="M1079.2,566.2c0,4.1-3.4,7.5-7.5,7.5c-4.1,0-7.5-3.4-7.5-7.5c0-4.1,3.4-7.5,7.5-7.5
						C1075.8,558.6,1079.2,562,1079.2,566.2z M1071.7,560.3c-3.2-0.1-5.9,2.5-6,5.7c-0.1,3.2,2.5,5.9,5.7,6c0.1,0,0.1,0,0.2,0
						c3.2,0,5.8-2.7,5.8-5.9C1077.4,562.9,1074.8,560.3,1071.7,560.3z"/>
				</g>
			</g>
			<g>
				<g>
					<path fill="#FFFFFF" d="M477.5,598.8c-2.2,0-3.9,1.7-3.9,3.9c0,2.2,1.7,3.9,3.9,3.9l0,0c2.2,0,3.9-1.7,3.9-3.9
						C481.4,600.5,479.7,598.8,477.5,598.8z"/>
				</g>
				<g>
					<path fill="#FFFFFF" d="M483.1,602.7c0,3.1-2.5,5.5-5.6,5.5c-3.1,0-5.5-2.5-5.5-5.6c0-3.1,2.5-5.5,5.6-5.5
						C480.6,597.2,483.1,599.6,483.1,602.7z M473.6,602.7c0,2.2,1.7,3.9,3.9,3.9s3.9-1.7,3.9-3.9c0-2.2-1.7-3.9-3.9-3.9L473.6,602.7
						z"/>
				</g>
			</g>
			<g>
				<g>
					<path fill="#FFFFFF" d="M705.7,353.8c-1.3,0-2.4,1-2.4,2.3s1,2.4,2.3,2.4l0,0c1.3,0,2.4-1,2.4-2.3S707,353.8,705.7,353.8z"/>
				</g>
				<g>
					<path fill="#FFFFFF" d="M709.6,356.2c0,2.2-1.8,4-4,4c-2.2,0-4-1.8-4-4c0-2.2,1.8-4,4-4C707.9,352.2,709.6,354,709.6,356.2
						L709.6,356.2z M705.7,353.8c-1.3,0-2.3,1.1-2.3,2.4c0,1.3,1,2.3,2.3,2.3c1.3,0,2.4-1,2.4-2.3C708,354.9,707,353.8,705.7,353.8z
						"/>
				</g>
			</g>
			<g>
				<g>
					<path fill="#FFFFFF" d="M843.8,449.4c-3,0-5.4,2.4-5.4,5.3c0,3,2.4,5.4,5.3,5.4s5.4-2.4,5.4-5.3
						C849.1,451.9,846.7,449.4,843.8,449.4z"/>
				</g>
				<g>
					<path fill="#FFFFFF" d="M850.8,454.8c0,3.9-3.2,7-7,7c-3.9,0-7-3.2-7-7c0-3.9,3.2-7,7-7C847.6,447.8,850.8,451,850.8,454.8z
						 M843.8,449.4c-3,0-5.4,2.4-5.4,5.3c0,3,2.4,5.4,5.3,5.4s5.4-2.4,5.4-5.3C849.1,451.9,846.7,449.4,843.8,449.4z"/>
				</g>
			</g>
			<g>
				<g>
					<path fill="#FFFFFF" d="M739.2,469.6c1.5,0,2.7-1.1,2.7-2.6c0-1.5-1.1-2.7-2.6-2.7c0,0-0.1,0-0.1,0c-1.5,0-2.7,1.2-2.6,2.7
						C736.6,468.4,737.7,469.5,739.2,469.6z"/>
				</g>
				<g>
					<path fill="#FFFFFF" d="M743.5,466.9c0,2.4-2,4.3-4.3,4.3c-2.4,0-4.3-2-4.3-4.3c0-2.4,2-4.3,4.3-4.3
						C741.6,462.6,743.5,464.5,743.5,466.9L743.5,466.9z M736.5,466.9c0,1.5,1.2,2.7,2.7,2.7c1.5,0,2.7-1.2,2.7-2.7
						c0-1.5-1.2-2.7-2.7-2.7c0,0,0,0,0,0L736.5,466.9z"/>
				</g>
			</g>
			<g>
				<g>
					<path fill="#FFFFFF" d="M743.4,484.3c-1.7,0-3,1.3-3,3s1.3,3,3,3s3-1.3,3-3S745.1,484.3,743.4,484.3L743.4,484.3z"/>
				</g>
				<g>
					<path fill="#FFFFFF" d="M748.1,487.4c0,2.6-2.1,4.7-4.7,4.6c-2.6,0-4.7-2.1-4.6-4.7c0-2.6,2.1-4.7,4.7-4.6
						C746,482.7,748.1,484.8,748.1,487.4L748.1,487.4z M740.4,487.3c0,1.7,1.3,3,3,3s3-1.3,3-3c0-1.7-1.3-3-3-3L740.4,487.3z"/>
				</g>
			</g>
			<g>
				<g>
					<path fill="#FFFFFF" d="M791.4,521.1c-1.3,0-2.4,1-2.4,2.4s1,2.4,2.4,2.4s2.4-1,2.4-2.4S792.7,521.1,791.4,521.1z"/>
				</g>
				<g>
					<path fill="#FFFFFF" d="M795.4,523.5c0,2.2-1.8,4-4,4c-2.2,0-4-1.8-4-4c0-2.2,1.8-4,4-4C793.7,519.5,795.4,521.3,795.4,523.5
						L795.4,523.5z M789,523.5c0,1.3,1,2.4,2.4,2.4c1.3,0,2.4-1,2.4-2.4c0-1.3-1-2.4-2.4-2.4c0,0,0,0,0,0L789,523.5z"/>
				</g>
			</g>
			<g>
				<g>
					<path fill="#FFFFFF" d="M1017.7,520.5c-2.3,0-4.1,1.8-4.1,4.1s1.8,4.1,4.1,4.1c2.3,0,4.1-1.8,4.1-4.1c0,0,0,0,0,0
						C1021.8,522.4,1020,520.5,1017.7,520.5z"/>
				</g>
				<g>
					<path fill="#FFFFFF" d="M1023.5,524.7c0,3.2-2.6,5.7-5.8,5.7c-3.2,0-5.7-2.6-5.7-5.8c0-3.2,2.6-5.7,5.8-5.7
						C1020.9,518.9,1023.5,521.5,1023.5,524.7z M1013.6,524.6c0,2.3,1.9,4.1,4.2,4c2.2,0,4-1.8,4-4c0-2.3-1.8-4.1-4.1-4.1
						L1013.6,524.6z"/>
				</g>
			</g>
			<g>
				<g>
					<path fill="#FFFFFF" d="M1064.1,344.7c-2.6,0-4.7,2.1-4.8,4.7c0,2.6,2.1,4.7,4.7,4.8s4.7-2.1,4.8-4.7
						C1068.8,346.8,1066.7,344.7,1064.1,344.7z"/>
				</g>
				<g>
					<path fill="#FFFFFF" d="M1064.1,343c3.5,0,6.4,2.9,6.3,6.4c0,3.5-2.9,6.4-6.4,6.3c-3.5,0-6.4-2.9-6.3-6.4
						C1057.7,345.9,1060.6,343,1064.1,343L1064.1,343z M1059.4,349.4c0,2.6,2.1,4.7,4.7,4.8c2.6,0,4.7-2.1,4.8-4.7
						c0-2.6-2.1-4.7-4.7-4.8c0,0,0,0,0,0L1059.4,349.4z"/>
				</g>
			</g>
			<g>
				<g>
					<path fill="#FFFFFF" d="M552.6,588.4c0-1.6-1.3-3-2.9-3c-1.6,0-3,1.3-3,2.9c0,0,0,0.1,0,0.1c0,1.6,1.3,3,2.9,3
						C551.2,591.3,552.6,590,552.6,588.4L552.6,588.4z"/>
				</g>
				<g>
					<path fill="#FFFFFF" d="M554.2,588.4c0,2.5-2.1,4.6-4.6,4.6c-2.5,0-4.6-2.1-4.6-4.6c0-2.5,2.1-4.6,4.6-4.6
						C552.2,583.8,554.2,585.8,554.2,588.4L554.2,588.4z M546.7,588.3c0,1.6,1.3,3,2.9,3c1.6,0,3-1.3,3-2.9c0-1.6-1.3-3-2.9-3
						L546.7,588.3z"/>
				</g>
			</g>
			<g>
				<g>
					<path fill="#FFFFFF" d="M644.4,583.2c-2.7,0-4.9,2.2-4.9,4.8c0,2.7,2.2,4.9,4.8,4.9s4.9-2.2,4.9-4.8
						C649.2,585.4,647.1,583.2,644.4,583.2z"/>
				</g>
				<g>
					<path fill="#FFFFFF" d="M644.4,581.5c3.6,0,6.5,2.9,6.5,6.5c0,3.6-3,6.5-6.5,6.5c-3.6,0-6.5-2.9-6.5-6.5
						C637.9,584.4,640.8,581.5,644.4,581.5z M644.4,583.2c-2.7,0-4.9,2.2-4.9,4.8c0,2.7,2.2,4.9,4.8,4.9l0,0c2.7,0,4.9-2.2,4.9-4.8
						C649.2,585.4,647.1,583.2,644.4,583.2z"/>
				</g>
			</g>
			<g>
				<g>
					<path fill="#FFFFFF" d="M667.3,541.4c-1.7,0-3.1,1.3-3.2,3c0,1.7,1.3,3.1,3,3.2c0,0,0.1,0,0.1,0c1.7,0,3.1-1.4,3.1-3.1
						C670.4,542.8,669,541.4,667.3,541.4L667.3,541.4z"/>
				</g>
				<g>
					<path fill="#FFFFFF" d="M672.1,544.5c0,2.6-2.2,4.7-4.8,4.7c-2.6,0-4.7-2.2-4.7-4.8c0-2.6,2.2-4.7,4.8-4.7
						C670,539.7,672.1,541.9,672.1,544.5z M664.2,544.5c0,1.7,1.4,3.1,3.1,3.1c1.7,0,3.1-1.4,3.1-3.1c0-1.7-1.4-3.1-3.1-3.1
						L664.2,544.5z"/>
				</g>
			</g>
			<g>
				<g>
					<path fill="#FFFFFF" d="M728.3,265.2c-2.1,0-3.7,1.6-3.7,3.7s1.6,3.7,3.7,3.7l0,0c2.1,0,3.7-1.6,3.7-3.7
						S730.4,265.2,728.3,265.2z"/>
				</g>
				<g>
					<path fill="#FFFFFF" d="M733.7,269c0,3-2.4,5.4-5.4,5.3c-3,0-5.3-2.4-5.3-5.4c0-3,2.4-5.4,5.4-5.3
						C731.3,263.6,733.7,266,733.7,269L733.7,269z M724.6,268.9c0,2.1,1.6,3.7,3.7,3.7c2.1,0,3.7-1.6,3.7-3.7c0-2.1-1.6-3.7-3.7-3.7
						L724.6,268.9z"/>
				</g>
			</g>
			<g>
				<g>
					<path fill="#FFFFFF" d="M823.4,294.8c-1.5,0-2.8,1.2-2.8,2.8c0,1.5,1.2,2.8,2.8,2.8c1.5,0,2.8-1.2,2.8-2.8
						C826.2,296.1,825,294.8,823.4,294.8z"/>
				</g>
				<g>
					<path fill="#FFFFFF" d="M827.8,297.6c0,2.4-2,4.4-4.4,4.4c-2.4,0-4.4-2-4.4-4.4c0-2.4,2-4.4,4.4-4.4
						C825.9,293.2,827.8,295.2,827.8,297.6z M823.4,294.8c-1.5,0-2.8,1.2-2.8,2.7c0,1.5,1.2,2.8,2.8,2.8c1.5,0,2.8-1.2,2.8-2.8
						C826.2,296.1,825,294.8,823.4,294.8L823.4,294.8z"/>
				</g>
			</g>
			<g>
				<g>
					<path fill="#FFFFFF" d="M823.3,211.3c3.3,0,6-2.6,6-5.9c0-3.3-2.6-6-5.9-6c-3.3,0-6,2.6-6,5.9c0,0,0,0,0,0
						C817.4,208.6,820,211.3,823.3,211.3C823.3,211.3,823.3,211.3,823.3,211.3z"/>
				</g>
				<g>
					<path fill="#FFFFFF" d="M831,205.4c0,4.2-3.4,7.6-7.6,7.6c-4.2,0-7.6-3.4-7.6-7.6c0-4.2,3.4-7.6,7.6-7.6
						C827.6,197.8,831,201.2,831,205.4L831,205.4z M823.4,199.4c-3.3,0-6,2.6-6,5.9c0,0,0,0,0,0c0,3.3,2.6,6,5.9,6
						c3.3,0,6-2.6,6-5.9C829.3,202.1,826.7,199.4,823.4,199.4C823.4,199.4,823.4,199.4,823.4,199.4L823.4,199.4z"/>
				</g>
			</g>
			<g>
				<g>
					<path fill="#FFFFFF" d="M917.9,252.2c-1.7,0-3,1.3-3,3c0,1.7,1.3,3,3,3c1.7,0,3-1.3,3-3C920.9,253.5,919.5,252.2,917.9,252.2
						C917.9,252.2,917.9,252.2,917.9,252.2L917.9,252.2z"/>
				</g>
				<g>
					<path fill="#FFFFFF" d="M922.5,255.2c0,2.6-2.1,4.7-4.7,4.7c-2.6,0-4.7-2.1-4.7-4.7c0-2.6,2.1-4.7,4.7-4.7
						C920.5,250.5,922.5,252.6,922.5,255.2L922.5,255.2z M917.9,252.2c-1.7,0-3,1.3-3,3c0,1.7,1.3,3,3,3c1.7,0,3-1.3,3-3
						C920.9,253.5,919.5,252.2,917.9,252.2C917.9,252.2,917.9,252.2,917.9,252.2L917.9,252.2z"/>
				</g>
			</g>
			<g>
				<g>
					<path fill="#FFFFFF" d="M1106.7,576.5c0-2.2,1.7-4,3.9-4c2.2,0,4,1.7,4,3.9c0,0,0,0.1,0,0.1c0,2.2-1.8,3.9-4,3.9
						C1108.4,580.4,1106.7,578.6,1106.7,576.5z"/>
				</g>
				<g>
					<path fill="#FFFFFF" d="M1110.6,571c3.1,0,5.6,2.5,5.5,5.6c0,3.1-2.5,5.6-5.6,5.5c-3.1,0-5.6-2.5-5.5-5.6
						C1105,573.4,1107.5,570.9,1110.6,571L1110.6,571z M1110.6,572.6c-2.2,0-3.9,1.7-3.9,3.9c0,0,0,0,0,0c0,2.2,1.7,3.9,3.9,3.9
						s3.9-1.7,3.9-3.9C1114.5,574.4,1112.8,572.6,1110.6,572.6z"/>
				</g>
			</g>
		</g>
	</g>
	<g>
		
			<linearGradient id="SVGID_2_" gradientUnits="userSpaceOnUse" x1="659.7563" y1="560.7852" x2="1064.5464" y2="174.1953" gradientTransform="matrix(1 0 0 -1 0 770)">
			<stop  offset="0" style="stop-color:#E34D6F"/>
			<stop  offset="1" style="stop-color:#E9C54C"/>
		</linearGradient>
		<path fill="url(#SVGID_2_)" d="M643,261.6L643,261.6l60.4-34.9v69.7l60.4,34.9l60.4,34.9l60.4-34.9l60.4-34.9l60.4-34.9v209.1
			l-60.4,34.9l-60.4,34.9l-60.4,34.9v-69.7l60.4-34.9l60.4-34.9v-69.7L884.5,401l-60.4,34.9L763.7,401l-60.4-34.9L643,401h0
			l60.4-34.9v139.4L643,470.8L643,261.6z"/>
	</g>
</g>
</svg>
