<svg xmlns="http://www.w3.org/2000/svg" viewBox="0 0 272 260"><defs><linearGradient id="b65ua" x1=".77" x2="303.8" y1=".13" y2="288.35" gradientUnits="userSpaceOnUse"><stop offset="0" stop-color="#e34d6f"/><stop offset="1" stop-color="#e9c54c"/></linearGradient></defs><g><g><path fill="url(#b65ua)" d="M249.341 173.773c0 14.807-14.411 33.405-39.546 46.67v-51.98c11.621-5.61 22.242-12.435 31.53-20.502 2.66-2.311 5.135-4.695 7.48-7.119.17-.175.367-.339.536-.508v33.439zm-55.268-22.886c-.006 0-.011.006-.017.006-20.558 8.796-39.433 13.067-57.703 13.067-18.27 0-37.145-4.271-57.732-13.079-.005 0-.011-.005-.017-.01-12.022-5.091-23.224-12-32.4-19.977-14.303-12.412-22.84-26.728-22.84-38.292 0-28.14 47.444-69.878 112.989-69.878 65.544 0 112.988 41.738 112.988 69.878 0 11.564-8.536 25.88-22.835 38.297-9.163 7.966-20.355 14.864-32.393 19.971-.012.006-.029.011-.04.017zm-6.875 78.922c-11.813 3.735-25.022 6.362-39.546 7.249V186.1c1-.08 2.005-.21 3.005-.31.893-.091 1.78-.17 2.672-.278a158.55 158.55 0 0 0 5.983-.841c.514-.085 1.028-.142 1.542-.232 2.503-.424 5.023-.927 7.548-1.48.746-.164 1.497-.362 2.248-.537 1.814-.43 3.639-.876 5.47-1.367.937-.254 1.886-.531 2.83-.802a213.317 213.317 0 0 0 7.971-2.48c.09-.029.186-.057.277-.09v52.126zm-62.138 7.249h-.006c-14.525-.887-27.733-3.514-39.546-7.249v-52.121c.09.028.18.056.271.09.955.322 1.91.627 2.859.932 1.717.548 3.429 1.068 5.135 1.554.927.266 1.859.537 2.78.785 1.858.503 3.706.955 5.547 1.39.73.17 1.458.362 2.181.52 2.537.56 5.062 1.062 7.57 1.486.497.084.989.14 1.486.22 2.023.322 4.04.616 6.05.853.882.107 1.763.18 2.645.271 1.005.102 2.022.232 3.028.31zm-62.15-16.615c-25.134-13.27-39.546-31.863-39.546-46.67v-33.44c.17.176.379.346.548.52a118.236 118.236 0 0 0 7.469 7.108c9.293 8.073 19.92 14.903 31.53 20.501zM136.353.126C59.99.126.767 49.836.767 92.602v81.17C.767 214.557 56.447 260 136.353 260c79.905 0 135.586-45.444 135.586-86.227V92.602c0-42.766-59.223-92.476-135.586-92.476z"/></g></g></svg>