<svg xmlns="http://www.w3.org/2000/svg">
    <symbol id="windows" viewBox="0 0 30 30" fill="none">
        <path d="M0 4.6875V14.0625H13.125V3.04688L0 4.6875Z" fill="#B7B7B7"/>
        <path d="M15 2.8125V14.0625H30V0.9375L15 2.8125Z" fill="#B7B7B7"/>
        <path d="M15 15.9375V27.1875L30 29.0625V15.9375H15Z" fill="#B7B7B7"/>
        <path d="M0 15.9375V25.3125L13.125 26.9531V15.9375H0Z" fill="#B7B7B7"/>
    </symbol>
    <symbol id="linux" viewBox="0 0 30 30" fill="none">
        <path d="M27.0161 24.0875C26.1363 23.7272 25.76 23.2491 25.7964 22.5357C25.8339 21.7029 25.3614 21.093 25.1371 20.852C25.2726 20.3342 25.6687 18.5431 25.1375 16.9873C24.5666 15.322 22.8236 12.7787 21.0252 10.2787C20.2889 9.25196 20.2541 8.13596 20.2139 6.84369C20.1753 5.61112 20.1319 4.21399 19.4445 2.66087C18.6972 0.969744 17.1975 0 15.3299 0C14.219 0 13.0786 0.347215 12.201 0.952531C10.4039 2.19277 10.6415 4.89682 10.7986 6.68611C10.8202 6.93113 10.8404 7.16257 10.8522 7.36018C10.9569 9.11259 10.8617 10.0362 10.7372 10.3169C10.6566 10.5004 10.26 11.0225 9.84031 11.5753C9.40624 12.1469 8.91414 12.7949 8.51076 13.3988C8.02947 14.1254 7.64095 15.236 7.26521 16.31C6.99029 17.0959 6.73061 17.8382 6.47782 18.2818C5.99871 19.1352 6.11792 19.931 6.21746 20.2987C6.03608 20.4247 5.77405 20.6728 5.55283 21.1404C5.28549 21.7109 4.74303 22.0175 3.61502 22.2344C3.09665 22.3404 2.73921 22.5584 2.55232 22.8822C2.28035 23.3534 2.42849 23.9456 2.56363 24.3502C2.76331 24.9451 2.63888 25.3216 2.41265 26.0053C2.36052 26.163 2.3014 26.3417 2.2415 26.5387C2.14717 26.8496 2.18121 27.1323 2.34242 27.3789C2.76842 28.0301 4.01151 28.2598 5.29119 28.4109C6.05526 28.5016 6.89153 28.8072 7.70036 29.1028C8.49285 29.3924 9.3123 29.6919 10.0572 29.7828C10.1704 29.7971 10.2825 29.8043 10.3906 29.8043C11.5153 29.8043 12.0234 29.058 12.1846 28.7514C12.5885 28.669 13.9818 28.405 15.4178 28.3696C16.8515 28.3286 18.2387 28.6117 18.6316 28.6998C18.7552 28.9362 19.0809 29.4763 19.6 29.7546C19.8854 29.9106 20.2824 30 20.6892 30C20.6893 30 20.6892 30 20.6893 30C21.1236 30 21.95 29.8973 22.604 29.2093C23.2563 28.518 24.8861 27.6355 26.0763 26.9911C26.3419 26.8473 26.5904 26.7128 26.8082 26.5913C27.4768 26.2207 27.8416 25.6911 27.8091 25.1384C27.7819 24.6793 27.4781 24.2767 27.0161 24.0875ZM12.2156 23.9544C12.1324 23.3682 11.3783 22.7868 10.5049 22.1136C9.79083 21.5631 8.98141 20.9392 8.75843 20.4108C8.29761 19.3207 8.66086 17.4041 9.2942 16.4171C9.60719 15.9229 9.86283 15.1735 10.1101 14.4488C10.3771 13.6662 10.6532 12.8571 10.9619 12.5029C11.4509 11.9499 11.9027 10.8739 11.9828 10.026C12.4407 10.4631 13.151 11.0177 13.8071 11.0177C13.9081 11.0177 14.0062 11.0046 14.0999 10.9781C14.5489 10.8485 15.2092 10.4669 15.8477 10.0981C16.3983 9.77997 17.0771 9.3877 17.3326 9.352C17.7706 9.98092 20.3157 15.6132 20.5758 17.422C20.7815 18.8531 20.5641 20.0362 20.4549 20.4996C20.3669 20.4876 20.2621 20.4778 20.1519 20.4778C19.443 20.4778 19.2554 20.8648 19.2065 21.0958C19.0808 21.6961 19.0675 23.6157 19.0661 24.047C18.8098 24.3727 17.5135 25.9063 15.6524 26.182C14.8943 26.2922 14.1864 26.348 13.5484 26.348C13.0031 26.348 12.6551 26.3059 12.5106 26.284L11.5754 25.2139C11.9442 25.0319 12.3128 24.6477 12.2156 23.9544ZM13.4024 6.30978C13.3731 6.32237 13.3444 6.33584 13.3162 6.35021C13.3133 6.28686 13.3068 6.22263 13.2966 6.15821C13.1945 5.5705 12.8048 5.1439 12.3702 5.1439C12.338 5.1439 12.3056 5.14636 12.2701 5.15177C12.0115 5.19485 11.8087 5.38912 11.6976 5.66453C11.795 5.0602 12.1374 4.61275 12.5437 4.61275C13.0207 4.61275 13.4237 5.25564 13.4237 6.01656C13.4237 6.11247 13.4167 6.20788 13.4024 6.30978ZM17.1092 6.76293C17.1529 6.62385 17.1765 6.47335 17.1765 6.31716C17.1765 5.62725 16.7388 5.08675 16.18 5.08675C15.6339 5.08675 15.1896 5.63866 15.1896 6.31716C15.1896 6.36339 15.1918 6.40971 15.1962 6.45594C15.1673 6.44483 15.139 6.43401 15.1115 6.42358C15.0486 6.23325 15.0169 6.03466 15.0169 5.83194C15.0169 5.00698 15.5441 4.33577 16.1923 4.33577C16.8404 4.33577 17.3677 5.00698 17.3677 5.83194C17.3677 6.17512 17.273 6.50267 17.1092 6.76293ZM16.6313 8.36858C16.6219 8.41028 16.6021 8.42878 16.3823 8.54307C16.2714 8.60081 16.1333 8.67271 15.9604 8.77796L15.845 8.84789C15.3809 9.12921 14.2943 9.78813 13.9993 9.82679C13.799 9.85374 13.675 9.77603 13.3964 9.58669C13.3335 9.5439 13.2666 9.49846 13.1953 9.45272C12.693 9.12311 12.3699 8.76006 12.3334 8.61812C12.4971 8.49153 12.9031 8.17471 13.1109 7.98713C13.5328 7.59487 13.9573 7.33126 14.1674 7.33126C14.1785 7.33126 14.1886 7.33205 14.199 7.33402C14.4459 7.37759 15.0548 7.62064 15.4996 7.79808C15.7052 7.88012 15.8827 7.95094 16.0077 7.99579C16.4012 8.13094 16.6064 8.30386 16.6313 8.36858ZM20.1671 26.7002C20.3891 25.6988 20.6448 24.3365 20.6034 23.5333C20.5939 23.3509 20.5777 23.1523 20.5621 22.9603C20.5329 22.6013 20.4895 22.0677 20.5342 21.9094C20.5431 21.9053 20.5529 21.9017 20.5639 21.8987C20.5657 22.3578 20.6655 23.2737 21.3979 23.593C21.6161 23.6883 21.8656 23.7365 22.1392 23.7365C22.8729 23.7365 23.6869 23.3765 24.0204 23.0431C24.2167 22.8468 24.3818 22.6066 24.4975 22.4163C24.5228 22.4904 24.5383 22.5872 24.5302 22.7119C24.4866 23.3891 24.8157 24.2876 25.4421 24.6187L25.5333 24.6666C25.7563 24.7836 26.3489 25.0947 26.3584 25.2423C26.3583 25.2424 26.3534 25.2597 26.3204 25.2904C26.1719 25.426 25.6495 25.6928 25.1443 25.9508C24.2482 26.4083 23.2324 26.927 22.7762 27.4068C22.1339 28.0827 21.4074 28.5368 20.9687 28.5368C20.9159 28.5368 20.8678 28.5301 20.825 28.5165C20.3485 28.368 19.9564 27.6805 20.1671 26.7002ZM3.92653 24.1454C3.87794 23.918 3.83958 23.7385 3.88079 23.5646C3.91069 23.4358 4.5468 23.2977 4.81847 23.2387C5.20041 23.1558 5.59542 23.0702 5.85372 22.9134C6.203 22.7018 6.39215 22.3116 6.55897 21.9673C6.67976 21.7184 6.80448 21.461 6.95291 21.3765C6.96127 21.3716 6.97406 21.3658 6.99845 21.3658C7.27652 21.3658 7.86 21.9504 8.1962 22.4736C8.28148 22.6055 8.43944 22.8698 8.6222 23.1758C9.16879 24.0904 9.91722 25.343 10.3081 25.7628C10.6603 26.1402 11.2305 26.8658 11.0903 27.4881C10.9876 27.971 10.4409 28.3637 10.3119 28.4505C10.2651 28.4611 10.2072 28.4665 10.139 28.4665C9.39089 28.4665 7.90996 27.8441 7.11432 27.5097L6.99658 27.4602C6.55228 27.2739 5.82697 27.1566 5.12555 27.0431C4.56745 26.9527 3.80318 26.829 3.67649 26.7173C3.5738 26.6021 3.69292 26.2276 3.79797 25.8973C3.87361 25.6598 3.95171 25.4143 3.9945 25.1573C4.05519 24.7473 3.98377 24.4136 3.92653 24.1454Z"
              fill="#B7B7B7"/>
    </symbol>
    <symbol id="macOS" viewBox="0 0 30 30" fill="none">
        <path d="M10.8535 30C6.38859 29.9743 2.69531 20.8599 2.69531 16.2182C2.69531 8.63592 8.3833 6.97596 10.5754 6.97596C11.5633 6.97596 12.6182 7.36391 13.5486 7.70721C14.1992 7.94668 14.8721 8.19389 15.2463 8.19389C15.4703 8.19389 15.9982 7.98359 16.4643 7.79908C17.4582 7.4034 18.695 6.91162 20.1352 6.91162C20.1378 6.91162 20.1412 6.91162 20.1438 6.91162C21.2192 6.91162 24.4799 7.14764 26.4403 10.0916L26.8995 10.7817L26.2386 11.2804C25.2945 11.9928 23.5719 13.2922 23.5719 15.8663C23.5719 18.915 25.5228 20.0875 26.4601 20.6514C26.8738 20.9003 27.302 21.1569 27.302 21.7183C27.302 22.0848 24.3769 29.9545 20.1292 29.9545C19.0898 29.9545 18.3551 29.6421 17.707 29.3666C17.0513 29.0877 16.4856 28.8474 15.551 28.8474C15.0772 28.8474 14.478 29.0714 13.8438 29.3091C12.977 29.6326 11.9959 30 10.8827 30H10.8535Z"
              fill="#B7B7B7"/>
        <path d="M20.5853 0C20.6959 3.98883 17.8433 6.75609 14.994 6.58254C14.5245 3.39932 17.8429 0 20.5853 0Z"
              fill="#B7B7B7"/>
    </symbol>
</svg>