<svg width="10" height="27" viewBox="0 0 10 27" fill="none" xmlns="http://www.w3.org/2000/svg">
<path d="M4.98625 26.9999C4.75303 26.9961 4.53079 26.8957 4.36835 26.7207C4.20591 26.5457 4.11655 26.3105 4.1199 26.0667L4.1199 3.14079L1.51511 5.86367C1.43401 5.95197 1.33687 6.02246 1.22939 6.07102C1.1219 6.11958 1.00623 6.14523 0.889141 6.14648C0.772053 6.14772 0.655903 6.12453 0.547496 6.07826C0.439088 6.032 0.340602 5.96359 0.257803 5.87704C0.175005 5.79048 0.10956 5.68753 0.0653001 5.57421C0.0210404 5.46088 -0.0011439 5.33947 4.64363e-05 5.21707C0.00123678 5.09468 0.025778 4.97376 0.0722324 4.8614C0.118687 4.74904 0.186121 4.6475 0.270585 4.56273L4.37774 0.269356C4.5428 0.0968879 4.76662 2.74569e-07 5 2.88012e-07C5.23338 3.01455e-07 5.4572 0.0968879 5.62226 0.269356L9.72942 4.56273C9.81388 4.6475 9.88132 4.74904 9.92777 4.8614C9.97422 4.97376 9.99876 5.09468 9.99995 5.21707C10.0011 5.33947 9.97896 5.46088 9.9347 5.57421C9.89044 5.68753 9.825 5.79048 9.7422 5.87704C9.6594 5.96359 9.56091 6.032 9.45251 6.07826C9.3441 6.12453 9.22795 6.14772 9.11086 6.14648C8.99377 6.14523 8.8781 6.11958 8.77061 6.07102C8.66313 6.02246 8.56599 5.95197 8.48489 5.86367L5.88011 3.14079L5.8801 26.0667C5.88179 26.1898 5.85982 26.3121 5.81548 26.4262C5.77115 26.5403 5.70535 26.6439 5.62199 26.7309C5.53864 26.818 5.43942 26.8866 5.33021 26.9328C5.22101 26.979 5.10404 27.0018 4.98625 26.9999Z" fill="#5543A8"/>
</svg>
