<svg width="84" height="84" viewBox="0 0 84 84" fill="none" xmlns="http://www.w3.org/2000/svg">
<path d="M43.5508 22.4089C43.5019 22.404 43.4528 22.4017 43.4038 22.4019H1.40685C0.633752 22.398 0.00379805 23.0217 -5.16688e-05 23.7948C-0.000226656 23.8439 0.00204818 23.8929 0.00694782 23.9418L5.61354 79.9377C5.68546 80.653 6.28759 81.1976 7.00644 81.1976H11.2061V83.9974H14.0059V81.1976H30.8047V83.9974H33.6045V81.1976H37.8042C38.5258 81.2013 39.132 80.6557 39.2041 79.9377L44.8037 23.9418C44.881 23.1725 44.32 22.4862 43.5508 22.4089ZM41.024 33.6011H12.606V36.4009H40.744L36.5443 78.3978H8.27334L4.07365 36.4009H8.40633V33.6011H3.79367L2.95373 25.2017H41.8639L41.024 33.6011Z" fill="#008AE5"/>
<path d="M17.9635 51.177L20.7633 46.9773C21.1923 46.3342 21.0189 45.4649 20.3759 45.0358C20.3757 45.0358 20.3757 45.0356 20.3755 45.0356L16.1758 42.2358L14.6219 44.5653L16.0106 45.4906C10.9797 47.4856 8.51872 53.1813 10.5139 58.2122C11.9926 61.9408 15.5945 64.3918 19.6056 64.399V61.5992C15.7515 61.6102 12.6181 58.4948 12.6071 54.6407C12.5996 51.9865 14.0982 49.5578 16.474 48.3744L15.6341 49.6231L17.9635 51.177Z" fill="#008AE5"/>
<path d="M34.2899 50.9871C32.8122 47.2608 29.2139 44.8103 25.2051 44.8003V47.6001C29.0592 47.5891 32.1925 50.7045 32.2036 54.5586C32.2111 57.2128 30.7125 59.6415 28.3367 60.8249L29.1766 59.5762L26.8472 58.0223L24.0474 62.222C23.6183 62.8651 23.7918 63.7344 24.4348 64.1635C24.435 64.1635 24.435 64.1637 24.4352 64.1637L28.6279 66.9635L30.1818 64.634L28.7931 63.7087C33.824 61.7137 36.285 56.018 34.2899 50.9871Z" fill="#008AE5"/>
<path d="M82.8795 12.6304C82.7878 12.6117 82.6944 12.6022 82.6006 12.6021H80.6659L76.861 4.97699C76.7131 4.68092 76.4652 4.44678 76.161 4.31624L66.3618 0.116549C66.1014 0.00525732 65.8135 -0.0244905 65.5358 0.0311554L58.9003 1.35826L55.0534 0.0759522C54.5506 -0.0916856 53.9963 0.0388548 53.6213 0.413328L48.6251 5.39976L40.9886 2.85615L31.1893 0.0563536C30.8525 -0.0398894 30.4918 -0.00646682 30.1786 0.150147L18.9794 5.74974C18.5048 5.98685 18.2051 6.47209 18.2053 7.00265V11.0889L13.4806 7.30922C13.0043 6.9281 12.336 6.89923 11.8287 7.23783L3.78632 12.6022H1.40649C0.633399 12.6029 0.00712002 13.2301 0.00764498 14.0032C0.00764498 14.0968 0.0172693 14.1902 0.0359929 14.2821L1.17971 19.8817L3.92631 19.3217L3.12137 15.402H80.8857L68.8592 74.1977H67.0757C66.3072 69.6285 61.9801 66.5473 57.4108 67.3158C53.8847 67.9089 51.122 70.6716 50.5289 74.1977H42.0035V76.9975H50.5289C51.2975 81.5668 55.6245 84.648 60.1938 83.8794C63.72 83.2864 66.4827 80.5237 67.0757 76.9975H70.0015C70.6663 76.997 71.239 76.5289 71.372 75.8776L83.9711 14.2821C84.1258 13.5246 83.637 12.7851 82.8795 12.6304ZM8.82595 12.6022L12.5301 10.1342L15.6141 12.6022H8.82595ZM21.0051 12.6022V7.86778L30.9443 2.89815L40.1613 5.52995L48.5607 8.32975C49.0632 8.49949 49.6188 8.3686 49.9928 7.99237L54.9806 3.00594L58.3599 4.12586C58.5911 4.20215 58.8378 4.21773 59.0767 4.17065L65.6562 2.85615L74.5792 6.68627L77.5358 12.6022H21.0051ZM58.8023 81.1972C55.7098 81.1972 53.2027 78.6902 53.2027 75.5976C53.2027 72.5051 55.7098 69.9981 58.8023 69.9981C61.8949 69.9981 64.4019 72.5051 64.4019 75.5976C64.4019 78.6902 61.8949 81.1972 58.8023 81.1972Z" fill="#008AE5"/>
<path d="M28.0049 8.40283H25.2051V11.2026H28.0049V8.40283Z" fill="#008AE5"/>
<path d="M37.8042 7.00293H35.0044V9.80273H37.8042V7.00293Z" fill="#008AE5"/>
<path d="M70.0019 7.00293H67.2021V9.80273H70.0019V7.00293Z" fill="#008AE5"/>
<path d="M60.2026 7.00293H57.4028V9.80273H60.2026V7.00293Z" fill="#008AE5"/>
</svg>