<svg width="84" height="84" viewBox="0 0 84 84" fill="none" xmlns="http://www.w3.org/2000/svg">
<path d="M28.681 45.1357C29.3607 45.1357 29.9114 44.5849 29.9114 43.9052C29.9114 43.2255 29.3607 42.6747 28.681 42.6747H23.1265V38.9847C23.1265 38.3049 22.5757 37.7542 21.896 37.7542C21.2163 37.7542 20.6655 38.3049 20.6655 38.9847V42.6747H16.3413V28.4646C16.3413 27.5592 15.638 26.8501 14.7401 26.8501H2.1227C1.1065 26.8501 0.310303 27.73 0.310303 28.8531V81.9968C0.310303 83.1199 1.1065 83.9998 2.1227 83.9998H28.099C29.0984 83.9998 29.9114 83.1012 29.9114 81.9968V69.2388C29.9114 68.5591 29.3607 68.0083 28.681 68.0083C28.0013 68.0083 27.4505 68.5591 27.4505 69.2388V81.5389H2.7714V29.311H13.8806V32.4076H9.72421C9.0445 32.4076 8.49374 32.9583 8.49374 33.638C8.49374 34.3177 9.0445 34.8685 9.72421 34.8685H13.8804V39.3366H10.1513C9.47155 39.3366 8.9208 39.8873 8.9208 40.567C8.9208 41.2467 9.47155 41.7975 10.1513 41.7975H13.8804V52.6698C13.8804 53.3495 14.4312 53.9002 15.1109 53.9002H27.4505V63.5176C27.4505 64.1973 28.0013 64.748 28.681 64.748C29.3607 64.748 29.9114 64.1973 29.9114 63.5176V53.0537C29.9114 52.0565 29.0536 51.4393 28.2587 51.4393H23.1265V45.1357H28.681ZM20.6655 51.4393H16.3413V45.1357H20.6654V51.4393H20.6655Z" fill="#008AE5"/>
<path d="M70.6404 56.9108V50.8348V39.7021C70.6404 39.7016 70.6404 39.701 70.6404 39.7005V36.1525V22.4918C70.6404 22.4913 70.6404 22.4907 70.6404 22.4902V21.4704V15.1161H73.037C74.1553 15.1161 75.065 14.207 75.065 13.0896V12.9764H81.4408C81.9858 12.9764 82.4859 12.7998 82.8754 12.5068C82.9459 12.4596 83.0127 12.4044 83.0744 12.3409C83.0883 12.3267 83.1003 12.3112 83.1134 12.2965C83.4703 11.936 83.6894 11.4616 83.6894 10.9407V4.17539C83.6894 3.05271 82.6808 2.13954 81.4408 2.13954H75.0652V2.0265C75.0652 0.90907 74.1554 0 73.0372 0H57.3884C56.2702 0 55.3603 0.90907 55.3603 2.0265V2.13954H53.0339H39.3438C39.3424 2.13954 39.341 2.13954 39.3396 2.13954H38.3188H20.704C19.4616 2.13954 18.4508 3.05271 18.4508 4.17539V10.9405C18.4508 12.063 19.4616 12.9762 20.704 12.9762H26.5589V17.218L22.007 22.0561H20.8825C19.8056 22.0561 18.9295 22.9315 18.9295 24.0076V29.7616C18.9295 30.8401 19.8056 31.7177 20.8825 31.7177H34.692C35.7715 31.7177 36.6498 30.8401 36.6498 29.7616V24.0076C36.6498 22.9315 35.7715 22.0561 34.692 22.0561H33.5721L29.02 17.218V12.9764H38.3191H53.034H55.3604V13.0896C55.3604 14.207 56.2703 15.1161 57.3886 15.1161H59.785V21.47V36.1523V50.8346V64.2862H55.9289C54.2233 64.2862 52.8357 65.6721 52.8357 67.3755V75.401H51.4856C49.1098 75.401 47.1768 77.3309 47.1768 79.7029V81.9454C47.1768 83.0783 48.1015 83.9998 49.238 83.9998H81.5771C82.711 83.9998 83.6333 83.0783 83.6333 81.9454V79.7029C83.6333 77.3309 81.7025 75.401 79.3295 75.401H77.9794V67.3755C77.9794 65.6721 76.5895 64.2862 74.8813 64.2862H70.6404V56.9125C70.6404 56.912 70.6404 56.9115 70.6404 56.9108ZM81.2287 4.60097V8.83378L76.8687 4.6008L81.2287 4.60097ZM75.0652 6.27966L79.4279 10.5154H75.0652V6.27966ZM20.9117 10.5148V4.60048H21.5939L27.6839 10.5149L20.9117 10.5148ZM34.1887 24.5172V29.2569H21.3903V24.5172H34.1887ZM30.1929 22.0562H25.3859L27.7894 19.5016L30.1929 22.0562ZM25.1262 4.60048H36.3087L30.7174 10.0306L25.1262 4.60048ZM38.3189 10.5154L33.7508 10.5153L39.3419 5.08528L44.9331 10.5154H38.3189ZM42.3749 4.60048H53.0339H53.5576L47.9661 10.0306L42.3749 4.60048ZM53.0339 10.5154H50.9993L55.3603 6.28031V10.5154H53.0339ZM74.8811 66.7474C75.2325 66.7474 75.5183 67.0292 75.5183 67.3757V75.4012H68.3542C67.6745 75.4012 67.1237 75.9519 67.1237 76.6316C67.1237 77.3113 67.6745 77.8621 68.3542 77.8621H79.3293C80.3455 77.8621 81.1722 78.6878 81.1722 79.703V81.5391H49.6378V79.703C49.6378 78.6878 50.4668 77.8621 51.4856 77.8621H62.3951C63.0748 77.8621 63.6256 77.3113 63.6256 76.6316C63.6256 75.9519 63.0748 75.4012 62.3951 75.4012H55.2966V67.3757C55.2966 67.0351 55.5864 66.7474 55.9289 66.7474H61.0154H69.4099H74.8811ZM67.691 22.4908L62.246 28.0726V21.47V16.9089L67.691 22.4908ZM63.9347 15.1161H68.1795V19.4675L63.9347 15.1161ZM68.1795 25.5142V36.1523V36.6777L62.7342 31.0957L68.1795 25.5142ZM67.691 39.7012L62.246 45.2831V36.1523V34.1193L67.691 39.7012ZM68.1795 42.7247V50.8348V53.8883L62.7344 48.3064L68.1795 42.7247ZM67.691 56.9118L62.246 62.4935V51.3299L67.691 56.9118ZM68.1795 59.9352V64.2864H63.9347L68.1795 59.9352ZM69.4099 12.6551H61.0316C61.0308 12.6551 61.0298 12.6551 61.0288 12.6551H61.0154H57.8211V2.46094H72.6041V12.6551H69.4099Z" fill="#008AE5"/>
<path d="M24.5014 59.4163C24.5014 58.4021 23.6778 57.5771 22.6657 57.5771H7.55652C6.54163 57.5771 5.71606 58.4021 5.71606 59.4163V64.4353C5.71606 65.4495 6.54163 66.2744 7.55652 66.2744H22.6657C23.678 66.2744 24.5014 65.4495 24.5014 64.4353V59.4163ZM13.8805 63.8135H8.177V60.0381H13.8806V63.8135H13.8805ZM22.0404 63.8135H16.3414V60.0381H22.0403V63.8135H22.0404Z" fill="#008AE5"/>
<path d="M22.6655 69.9512H7.55652C6.54163 69.9512 5.71606 70.7761 5.71606 71.7903V76.8093C5.71606 77.8234 6.54163 78.6483 7.55652 78.6483H22.6657C23.678 78.6483 24.5014 77.8234 24.5014 76.8093V71.7903C24.5014 70.7761 23.6778 69.9512 22.6655 69.9512ZM13.8805 76.1874H8.177V72.4121H13.8806V76.1874H13.8805ZM22.0404 76.1874H16.3414V72.4121H22.0403V76.1874H22.0404Z" fill="#008AE5"/>
</svg>