<svg width="84" height="84" viewBox="0 0 84 84" fill="none" xmlns="http://www.w3.org/2000/svg">
<path d="M79.66 68.2751C82.0267 64.5598 81.6236 59.722 78.6747 56.4496C75.7259 53.1772 70.956 52.2745 67.0152 54.2429C66.5702 52.2161 65.3908 50.4258 63.7042 49.2169L65.0692 46.2069C66.5647 47.1108 67.9474 48.1894 69.188 49.4199C69.7276 49.9548 70.5954 49.9617 71.1434 49.4353C71.6914 48.909 71.7195 48.0417 71.2068 47.4809C69.7242 45.9905 68.0517 44.7016 66.2326 43.6477L67.3988 41.0773C69.7918 42.3518 72.0542 43.8574 74.1538 45.5727C74.5352 45.8978 75.0611 45.9948 75.5333 45.8271C76.0055 45.6593 76.3524 45.2524 76.4433 44.7596C76.5342 44.2667 76.3552 43.7628 75.9738 43.4377C73.6781 41.5508 71.1951 39.9042 68.5636 38.5237L69.7228 35.9687C72.5561 37.4315 75.2542 39.1424 77.7854 41.0815C78.3932 41.5605 79.2741 41.4562 79.7531 40.8484C80.2321 40.2407 80.1278 39.3597 79.52 38.8807C76.813 36.7947 73.919 34.9632 70.875 33.4095L72.0342 30.8517C75.3218 32.4469 78.4476 34.3561 81.368 36.5525C81.6154 36.7484 81.9218 36.855 82.2374 36.8549C82.3948 36.8553 82.551 36.8288 82.6994 36.7765C83.152 36.6184 83.4922 36.2396 83.601 35.7727C85.309 28.4297 81.1482 19.5887 76.545 17.5013C71.9418 15.4139 62.545 18.1089 58.149 24.2311C57.8692 24.6208 57.8083 25.1266 57.9877 25.5715C58.1672 26.0164 58.5619 26.3385 59.0338 26.4249C62.614 27.1746 66.113 28.2694 69.482 29.6939L68.32 32.2517C65.1421 30.9827 61.8534 30.0106 58.4962 29.3481C57.7354 29.2093 57.0061 29.7136 56.8673 30.4744C56.7285 31.2353 57.2328 31.9645 57.9936 32.1033C61.124 32.7294 64.1923 33.6332 67.1622 34.8039L66.003 37.3589C63.2278 36.2854 60.349 35.5014 57.4126 35.0195C56.9127 34.935 56.4062 35.1274 56.0884 35.5224C55.7706 35.9174 55.6912 36.4534 55.8809 36.9236C56.0705 37.3938 56.4995 37.7247 57.0024 37.7887C59.6793 38.2369 62.3054 38.9483 64.8424 39.9125L63.6762 42.4829C61.6813 41.8064 59.6059 41.3959 57.5036 41.2621H57.4392C56.666 41.2451 56.0254 41.8581 56.0084 42.6313C55.9914 43.4045 56.6044 44.0451 57.3776 44.0621C59.1233 44.179 60.8482 44.5081 62.5142 45.0421L61.1856 47.9737C59.7571 47.5176 58.2288 47.4749 56.777 47.8505C55.8251 45.9774 53.9012 44.7982 51.8 44.7999C51.8077 40.5805 49.1089 36.8317 45.1051 35.5001C41.1013 34.1686 36.6948 35.5545 34.174 38.9381C32.8651 37.0142 30.5015 36.102 28.2394 36.6477L26.8786 36.9781L25.5542 31.5377C25.1883 30.0355 23.6741 29.1142 22.1718 29.4797L16.73 30.7999C15.229 31.1685 14.3084 32.6812 14.6706 34.1837L15.9964 39.6241L14.637 39.9545C13.1939 40.3059 11.9495 41.2162 11.1776 42.4852C10.4057 43.7541 10.1695 45.2777 10.521 46.7207L12.103 53.2209C8.61684 53.3943 5.48656 55.4104 3.8868 58.5127C2.28703 61.615 2.4597 65.3344 4.34002 68.2751C0.985591 70.1214 -0.691243 74.0062 0.265968 77.7135C1.22318 81.4209 4.57107 84.0083 8.40002 83.9999H75.6C79.429 84.0083 82.7769 81.4209 83.7341 77.7135C84.6913 74.0062 83.0145 70.1214 79.66 68.2751ZM75.3872 20.0507C78.2334 21.3415 81.4884 27.2481 81.1776 32.9531C75.3178 28.8936 68.7727 25.9265 61.8576 24.1947C65.9512 20.2005 72.5452 18.7599 75.3872 20.0507ZM19.152 70.3527L17.5434 63.7475C17.4557 63.3851 17.5161 63.0026 17.7114 62.6849C17.8999 62.3723 18.2044 62.1468 18.5584 62.0577H18.5752L34.8992 58.0831H34.9216C35.669 57.9074 36.4185 58.3665 36.6016 59.1121L37.9694 64.7457C34.3254 65.2021 31.0025 67.0602 28.7056 69.9257C25.5195 69.5361 22.2907 69.6804 19.152 70.3527ZM35.2646 53.6689C35.4466 54.4102 34.9975 55.1598 34.258 55.3489H34.2356L17.9116 59.3249H17.8962C17.1484 59.5006 16.3987 59.0407 16.2162 58.2945C16.0343 57.5443 16.494 56.7883 17.2438 56.6047L33.5734 52.6399C34.3246 52.4572 35.0817 52.9178 35.2646 53.6689ZM17.3922 33.5257L22.834 32.1999L24.1584 37.6417L18.718 38.9661L17.3922 33.5257ZM13.5688 43.9459C13.954 43.3115 14.5772 42.8577 15.2992 42.6859L18.0194 42.0237L22.1004 41.0297L28.9016 39.3735C29.1184 39.321 29.3407 39.2942 29.5638 39.2937C30.8555 39.2933 31.9799 40.1765 32.2854 41.4315L33.9402 48.2341C34.1222 48.9844 33.6625 49.7403 32.9126 49.9239L16.5886 53.8999C15.8375 54.0827 15.0804 53.622 14.8974 52.8709L13.2412 46.0599C13.0633 45.3398 13.1813 44.5784 13.5688 43.9459ZM75.6 81.1999H8.40002C5.59055 81.2095 3.2116 79.1299 2.84547 76.3443C2.47935 73.5588 4.24011 70.9351 6.95662 70.2183C7.4373 70.0894 7.81341 69.715 7.94453 69.2349C8.07564 68.7549 7.94204 68.2413 7.59362 67.8859C5.62958 65.871 5.06295 62.8759 6.15519 60.2827C7.24744 57.6896 9.78622 56.0025 12.6 55.9999C13.0137 56.0039 13.4261 56.0461 13.832 56.1259C12.886 57.9911 13.483 60.2691 15.2222 61.4305C14.7235 62.3395 14.5813 63.4016 14.8232 64.4097L16.4724 71.1815C15.2027 71.6375 14.0287 72.3254 13.0102 73.2101C12.6164 73.6119 12.5013 74.2105 12.7181 74.7297C12.935 75.2489 13.4416 75.5878 14.0042 75.5901C14.3692 75.5918 14.7205 75.4518 14.9842 75.1995C15.0234 75.1617 18.984 71.5063 29.232 72.7873C29.8147 72.8541 30.3786 72.5561 30.6516 72.0369C30.7496 71.8395 33.285 67.1999 42 67.1999C42.7732 67.1999 43.4 66.5731 43.4 65.7999C43.4 65.0267 42.7732 64.3999 42 64.3999C41.58 64.3999 41.1712 64.4153 40.7708 64.4349L39.3148 58.4401C39.0665 57.4347 38.4519 56.5581 37.5914 55.9817C38.6316 54.0978 38.0526 51.7308 36.26 50.5399C36.7596 49.6308 36.9018 48.5679 36.659 47.5593L35.413 42.4437C36.5635 39.2446 39.8463 37.3346 43.1961 37.9155C46.5459 38.4964 48.9939 41.4002 49 44.7999C49.006 45.2704 48.9591 45.74 48.86 46.1999C48.7436 46.7075 48.9186 47.2378 49.3143 47.5764C49.7099 47.9151 50.2609 48.0061 50.7444 47.8127C51.5217 47.5098 52.3931 47.5654 53.1257 47.9646C53.8582 48.3638 54.3772 49.0659 54.544 49.8833C54.62 50.3068 54.8864 50.6718 55.2666 50.8732C55.6467 51.0747 56.0984 51.0901 56.4914 50.9151C57.2163 50.5833 58.0029 50.4077 58.8 50.3999C59.2127 50.4014 59.624 50.4484 60.0264 50.5399L57.309 56.5291C55.9622 56.2064 54.5847 56.029 53.2 55.9999C52.4268 55.9999 51.8 56.6267 51.8 57.3999C51.8 58.1731 52.4268 58.7999 53.2 58.7999C54.6 58.7999 58.6502 59.2297 60.6102 61.1897C61.1595 61.7203 62.0327 61.7127 62.5728 61.1727C63.1128 60.6327 63.1204 59.7595 62.5898 59.2101C61.8276 58.4725 60.9414 57.8749 59.9718 57.4447L62.5142 51.8447C63.7077 52.8967 64.3941 54.409 64.4 55.9999C64.3961 56.1177 64.3844 56.2351 64.365 56.3513L64.323 56.6901C64.2669 57.2673 64.5724 57.8194 65.0912 58.0783C65.6101 58.3373 66.2349 58.2496 66.6624 57.8577C69.4641 55.3954 73.7045 55.5624 76.3039 58.2376C78.9032 60.9127 78.9483 65.1561 76.4064 67.8859C76.058 68.2413 75.9244 68.7549 76.0555 69.2349C76.1866 69.715 76.5627 70.0894 77.0434 70.2183C79.7599 70.9351 81.5207 73.5588 81.1546 76.3443C80.7884 79.1299 78.4095 81.2095 75.6 81.1999Z" fill="#008AE5"/>
<path d="M40.6 75.5998C41.3732 75.5998 42 74.973 42 74.1998C42 73.4266 41.3732 72.7998 40.6 72.7998C39.8268 72.7998 39.2 73.4266 39.2 74.1998C39.2 74.973 39.8268 75.5998 40.6 75.5998Z" fill="#008AE5"/>
<path d="M23.8 78.4001C24.5732 78.4001 25.2 77.7733 25.2 77.0001C25.2 76.2269 24.5732 75.6001 23.8 75.6001C23.0268 75.6001 22.4 76.2269 22.4 77.0001C22.4 77.7733 23.0268 78.4001 23.8 78.4001Z" fill="#008AE5"/>
<path d="M42 46.1999C42.7732 46.1999 43.4 45.5731 43.4 44.7999C43.4 44.0267 42.7732 43.3999 42 43.3999C41.2268 43.3999 40.6 44.0267 40.6 44.7999C40.6 45.5731 41.2268 46.1999 42 46.1999Z" fill="#008AE5"/>
<path d="M46.2 57.4001C46.9732 57.4001 47.6 56.7733 47.6 56.0001C47.6 55.2269 46.9732 54.6001 46.2 54.6001C45.4268 54.6001 44.8 55.2269 44.8 56.0001C44.8 56.7733 45.4268 57.4001 46.2 57.4001Z" fill="#008AE5"/>
<path d="M63 76.9997C63.7732 76.9997 64.4 76.3729 64.4 75.5997C64.4 74.8265 63.7732 74.1997 63 74.1997C62.2268 74.1997 61.6 74.8265 61.6 75.5997C61.6 76.3729 62.2268 76.9997 63 76.9997Z" fill="#008AE5"/>
<path d="M68.6 67.1999C69.3732 67.1999 70 66.5731 70 65.7999C70 65.0267 69.3732 64.3999 68.6 64.3999C67.8268 64.3999 67.2001 65.0267 67.2001 65.7999C67.2001 66.5731 67.8268 67.1999 68.6 67.1999Z" fill="#008AE5"/>
<path d="M73.6512 23.8757C73.9693 23.171 73.6559 22.3419 72.9512 22.0237C72.2465 21.7056 71.4173 22.019 71.0992 22.7237C70.781 23.4283 71.0943 24.2575 71.799 24.5757C72.1374 24.7285 72.5227 24.7406 72.8701 24.6094C73.2174 24.4781 73.4984 24.2142 73.6512 23.8757Z" fill="#008AE5"/>
<path d="M51.8 64.3999C49.4805 64.3999 47.6001 66.2803 47.6001 68.5999C47.6001 70.9195 49.4805 72.7999 51.8 72.7999C54.1196 72.7999 56 70.9195 56 68.5999C56 66.2803 54.1196 64.3999 51.8 64.3999ZM51.8 69.9999C51.0269 69.9999 50.4 69.3731 50.4 68.5999C50.4 67.8267 51.0269 67.1999 51.8 67.1999C52.5732 67.1999 53.2 67.8267 53.2 68.5999C53.2 69.3731 52.5732 69.9999 51.8 69.9999Z" fill="#008AE5"/>
<path d="M5.60001 8.39984C5.60001 10.7194 7.48041 12.5998 9.80001 12.5998H12.6C14.7039 12.6074 16.4869 11.0532 16.7667 8.96805C17.0465 6.88284 15.7361 4.91366 13.7046 4.36644L15.1648 2.17683C15.4424 1.76069 15.4769 1.22806 15.2553 0.779588C15.0337 0.331112 14.5897 0.0349212 14.0905 0.00258805C13.5913 -0.0297451 13.1128 0.206692 12.8352 0.622835L11.2 3.07983L9.56481 0.622835C9.13568 -0.0204668 8.26631 -0.194091 7.62301 0.235034C6.97971 0.66416 6.80608 1.53353 7.23521 2.17683L8.69541 4.36644C6.8746 4.86276 5.60843 6.51262 5.60001 8.39984ZM9.80001 6.99984H12.6C13.3732 6.99984 14 7.62664 14 8.39984C14 9.17303 13.3732 9.79984 12.6 9.79984H9.80001C9.02681 9.79984 8.40001 9.17303 8.40001 8.39984C8.40001 7.62664 9.02681 6.99984 9.80001 6.99984Z" fill="#008AE5"/>
<path d="M32.2001 23.7996C32.2001 26.1192 34.0805 27.9996 36.4001 27.9996H39.2001C41.3039 28.0072 43.087 26.453 43.3668 24.3678C43.6465 22.2826 42.3361 20.3134 40.3047 19.7662L41.7649 17.5766C42.0425 17.1605 42.077 16.6278 41.8554 16.1794C41.6338 15.7309 41.1898 15.4347 40.6906 15.4024C40.1914 15.37 39.7129 15.6065 39.4353 16.0226L37.8001 18.4796L36.1649 16.0268C35.7357 15.3835 34.8664 15.2099 34.2231 15.639C33.5798 16.0681 33.4061 16.9375 33.8353 17.5808L35.2955 19.7704C33.4762 20.2663 32.2104 21.9139 32.2001 23.7996ZM36.4001 22.3996H39.2001C39.9733 22.3996 40.6001 23.0264 40.6001 23.7996C40.6001 24.5728 39.9733 25.1996 39.2001 25.1996H36.4001C35.6269 25.1996 35.0001 24.5728 35.0001 23.7996C35.0001 23.0264 35.6269 22.3996 36.4001 22.3996Z" fill="#008AE5"/>
<path d="M57.4 8.39984C57.4 10.7194 59.2804 12.5998 61.6 12.5998H64.4C66.5039 12.6074 68.2869 11.0532 68.5667 8.96805C68.8464 6.88284 67.5361 4.91366 65.5046 4.36644L66.9648 2.17683C67.2424 1.76069 67.2769 1.22806 67.0553 0.779588C66.8337 0.331112 66.3897 0.0349212 65.8905 0.002588C65.3913 -0.0297452 64.9128 0.206691 64.6352 0.622835L63 3.07983L61.3648 0.622835C60.9357 -0.0204668 60.0663 -0.194091 59.423 0.235034C58.7797 0.66416 58.6061 1.53353 59.0352 2.17683L60.4954 4.36644C58.6746 4.86276 57.4084 6.51262 57.4 8.39984ZM61.6 6.99984H64.4C65.1732 6.99984 65.8 7.62664 65.8 8.39984C65.8 9.17303 65.1732 9.79984 64.4 9.79984H61.6C60.8268 9.79984 60.2 9.17303 60.2 8.39984C60.2 7.62664 60.8268 6.99984 61.6 6.99984Z" fill="#008AE5"/>
</svg>