<svg width="84" height="84" viewBox="0 0 84 84" fill="none" xmlns="http://www.w3.org/2000/svg">
<path d="M82.5998 42H79.94L45.0803 17.2686C47.6602 15.5644 48.3702 12.0899 46.665 9.50998C45.9021 8.35488 44.7388 7.5238 43.3997 7.17671V2.79983H51.8002C52.5728 2.79983 53.1998 2.17332 53.1998 1.40017C53.1998 0.626514 52.5728 0 51.8002 0H32.1998C31.4272 0 30.8002 0.626514 30.8002 1.40017C30.8002 2.17332 31.4272 2.79983 32.1998 2.79983H40.5998V8.4C40.5998 9.17314 41.2269 9.80017 42 9.80017C43.5463 9.80017 44.7998 11.0537 44.7998 12.6C44.7998 14.1463 43.5463 15.4003 42 15.4003C40.4537 15.4003 39.2002 14.1463 39.2002 12.6C39.2002 11.8269 38.5731 11.1998 37.8 11.1998C37.0269 11.1998 36.4003 11.8269 36.4003 12.6C36.4039 14.479 37.3504 16.2314 38.9197 17.265L3.88367 42H1.40017C0.626514 42 0 42.6265 0 43.4002V82.5998C0 83.3735 0.626514 84 1.40017 84H82.5998C83.3735 84 84 83.3735 84 82.5998V43.4002C84 42.6265 83.3735 42 82.5998 42ZM42 18.5145L75.0955 42H8.73889L42 18.5145ZM81.2002 81.2002H2.79983V44.7998H81.2002V81.2002Z" fill="#008AE5"/>
<path d="M47.5997 78.4003C48.3733 78.4003 49.0004 77.7733 49.0004 76.9996V49.0003C49.0004 48.2266 48.3733 47.5996 47.5997 47.5996C46.827 47.5996 46.2 48.2266 46.2 49.0003V76.9996C46.2 77.7733 46.827 78.4003 47.5997 78.4003Z" fill="#008AE5"/>
<path d="M58.8 78.4003C59.5731 78.4003 60.2002 77.7733 60.2002 76.9996V49.0003C60.2002 48.2266 59.5731 47.5996 58.8 47.5996C58.0268 47.5996 57.4003 48.2266 57.4003 49.0003V76.9996C57.4003 77.7733 58.0268 78.4003 58.8 78.4003Z" fill="#008AE5"/>
<path d="M70.0004 78.4003C70.773 78.4003 71.4 77.7733 71.4 76.9996V49.0003C71.4 48.2266 70.773 47.5996 70.0004 47.5996C69.2267 47.5996 68.5997 48.2266 68.5997 49.0003V76.9996C68.5997 77.7733 69.2267 78.4003 70.0004 78.4003Z" fill="#008AE5"/>
<path d="M13.9996 78.4003C14.7733 78.4003 15.4003 77.7733 15.4003 76.9996V49.0003C15.4003 48.2266 14.7733 47.5996 13.9996 47.5996C13.227 47.5996 12.6 48.2266 12.6 49.0003V76.9996C12.6 77.7733 13.227 78.4003 13.9996 78.4003Z" fill="#008AE5"/>
<path d="M25.2 78.4003C25.9731 78.4003 26.5996 77.7733 26.5996 76.9996V49.0003C26.5996 48.2266 25.9731 47.5996 25.2 47.5996C24.4268 47.5996 23.7998 48.2266 23.7998 49.0003V76.9996C23.7998 77.7733 24.4268 78.4003 25.2 78.4003Z" fill="#008AE5"/>
<path d="M36.4003 78.4003C37.1729 78.4003 37.8 77.7733 37.8 76.9996V49.0003C37.8 48.2266 37.1729 47.5996 36.4003 47.5996C35.6267 47.5996 34.9996 48.2266 34.9996 49.0003V76.9996C34.9996 77.7733 35.6267 78.4003 36.4003 78.4003Z" fill="#008AE5"/>
</svg>