<svg width="146" height="150" viewBox="0 0 146 150" fill="none" xmlns="http://www.w3.org/2000/svg">
<path d="M145 75.4057C145 115.974 112.746 148.828 73 148.828C33.2536 148.828 1 115.974 1 75.4057C1 34.8374 33.2536 1.9834 73 1.9834C112.746 1.9834 145 34.8374 145 75.4057Z" stroke="#AFD73D" stroke-width="2"/>
<path d="M72.9856 62.3024C72.7206 62.3065 72.4681 62.4157 72.2835 62.6058C72.099 62.796 71.9974 63.0517 72.0012 63.3167V73.9834H61.3346C61.202 73.9815 61.0705 74.006 60.9475 74.0554C60.8245 74.1048 60.7126 74.1782 60.6183 74.2712C60.5239 74.3642 60.4489 74.4751 60.3978 74.5974C60.3467 74.7196 60.3203 74.8508 60.3203 74.9834C60.3203 75.1159 60.3467 75.2471 60.3978 75.3693C60.4489 75.4916 60.5239 75.6025 60.6183 75.6955C60.7126 75.7886 60.8245 75.8619 60.9475 75.9113C61.0705 75.9608 61.202 75.9852 61.3346 75.9834H72.0012V86.65C71.9993 86.7825 72.0238 86.9141 72.0732 87.0371C72.1227 87.16 72.196 87.272 72.2891 87.3663C72.3821 87.4607 72.493 87.5356 72.6152 87.5868C72.7375 87.6379 72.8687 87.6643 73.0012 87.6643C73.1337 87.6643 73.265 87.6379 73.3872 87.5868C73.5095 87.5356 73.6203 87.4607 73.7134 87.3663C73.8064 87.272 73.8798 87.16 73.9292 87.0371C73.9786 86.9141 74.0031 86.7825 74.0012 86.65V75.9834H84.6679C84.8004 75.9852 84.932 75.9608 85.0549 75.9113C85.1779 75.8619 85.2898 75.7886 85.3842 75.6955C85.4786 75.6025 85.5535 75.4916 85.6046 75.3693C85.6558 75.2471 85.6821 75.1159 85.6821 74.9834C85.6821 74.8508 85.6558 74.7196 85.6046 74.5974C85.5535 74.4751 85.4786 74.3642 85.3842 74.2712C85.2898 74.1782 85.1779 74.1048 85.0549 74.0554C84.932 74.006 84.8004 73.9815 84.6679 73.9834H74.0012V63.3167C74.0031 63.1828 73.9782 63.05 73.9278 62.926C73.8774 62.8019 73.8027 62.6893 73.7079 62.5947C73.6132 62.5001 73.5005 62.4255 73.3764 62.3753C73.2523 62.3251 73.1194 62.3003 72.9856 62.3024Z" fill="#6F64A2"/>
</svg>
